<?xml version="1.0" encoding="utf-8"?>
<!-- Generator: Adobe Illustrator 18.0.0, SVG Export Plug-In . SVG Version: 6.00 Build 0)  -->
<!DOCTYPE svg PUBLIC "-//W3C//DTD SVG 1.1//EN" "http://www.w3.org/Graphics/SVG/1.1/DTD/svg11.dtd">
<svg version="1.1" id="Layer_1" xmlns="http://www.w3.org/2000/svg" xmlns:xlink="http://www.w3.org/1999/xlink" x="0px" y="0px"
	 viewBox="0 0 258.3 106" enable-background="new 0 0 258.3 106" xml:space="preserve">
<linearGradient id="SVGID_1_" gradientUnits="userSpaceOnUse" x1="177.3212" y1="32.1802" x2="177.3212" y2="32.1802">
	<stop  offset="0" style="stop-color:#F6921E"/>
	<stop  offset="0.4588" style="stop-color:#B46E23"/>
	<stop  offset="0.8192" style="stop-color:#865527"/>
	<stop  offset="1" style="stop-color:#754C28"/>
</linearGradient>
<path fill="url(#SVGID_1_)" d="M177.3,32.2"/>
<linearGradient id="SVGID_2_" gradientUnits="userSpaceOnUse" x1="193.3563" y1="63.8682" x2="193.3563" y2="63.8682">
	<stop  offset="0" style="stop-color:#F6921E"/>
	<stop  offset="0.4588" style="stop-color:#B46E23"/>
	<stop  offset="0.8192" style="stop-color:#865527"/>
	<stop  offset="1" style="stop-color:#754C28"/>
</linearGradient>
<path fill="url(#SVGID_2_)" d="M193.4,63.9"/>
<linearGradient id="SVGID_3_" gradientUnits="userSpaceOnUse" x1="206.261" y1="31.9694" x2="190.0923" y2="59.9744">
	<stop  offset="0" style="stop-color:#F6921E"/>
	<stop  offset="0.4588" style="stop-color:#B46E23"/>
	<stop  offset="0.8192" style="stop-color:#865527"/>
	<stop  offset="1" style="stop-color:#754C28"/>
</linearGradient>
<path fill="url(#SVGID_3_)" d="M233.4,47.8c-1.3,0.6-2.7,1-4.1,1.3c-1.4,0.3-2.8,0.7-4.2,0.9c-1.4,0.3-2.8,0.5-4.2,0.7
	c-1.4,0.2-2.8,0.4-4.2,0.5l-4.3,0.4c-1.4,0.1-2.8,0.2-4.3,0.2l-4.3,0.2c-1.5,0-2.8,0-4.3,0l-4.3-0.2c-1.4-0.1-2.9-0.2-4.3-0.3
	c-1.4-0.2-2.9-0.3-4.3-0.5c-1.4-0.2-2.8-0.4-4.2-0.7c-1.4-0.2-2.8-0.6-4.2-0.9c-1.4-0.3-2.8-0.7-4.2-1c-1.4-0.4-2.8-0.8-4.1-1.3
	c-1.4-0.5-2.7-0.9-4.1-1.6l-2.9-1.3l3-1.3c0.9-0.4,1.6-0.6,2.5-0.9c0.8-0.3,1.6-0.6,2.5-0.8c1.6-0.5,3.3-0.9,5-1.3
	c1.7-0.4,3.4-0.7,5.1-1c0.8-0.2,1.7-0.3,2.6-0.4c0.8-0.1,1.7-0.2,2.6-0.3c1.7-0.2,3.4-0.3,5.1-0.4c0.9,0,1.7-0.1,2.6-0.1
	c0.9,0,1.7-0.1,2.6-0.1l2.6,0c0.9,0,1.7,0.1,2.6,0.1c1.7,0.1,3.4,0.2,5.1,0.4l0,0.3c-1.7,0.1-3.4,0.2-5.1,0.4
	c-1.7,0.1-3.4,0.3-5.1,0.5c-0.8,0.1-1.7,0.2-2.5,0.3c-0.8,0.1-1.7,0.2-2.5,0.3c-1.7,0.2-3.3,0.5-5,0.8c-3.3,0.6-6.6,1.3-9.9,2.1
	c-1.6,0.4-3.2,0.9-4.8,1.3c-0.8,0.2-1.6,0.5-2.4,0.7c-0.8,0.3-1.6,0.5-2.3,0.8L167,43c1.2,0.6,2.5,1.1,3.8,1.6
	c1.3,0.5,2.6,0.9,4,1.4c1.3,0.4,2.7,0.8,4,1.2c1.4,0.3,2.7,0.7,4.1,1c1.4,0.3,2.8,0.6,4.1,0.8c1.4,0.3,2.8,0.4,4.2,0.6
	c1.4,0.2,2.8,0.3,4.2,0.5l4.2,0.3c1.4,0,2.9,0.1,4.2,0.1l4.2,0c1.4,0,2.8,0,4.2,0l4.2-0.2c1.4,0,2.8-0.2,4.2-0.3
	c1.4-0.1,2.8-0.3,4.2-0.5c1.4-0.2,2.8-0.4,4.2-0.7c1.4-0.3,2.7-0.6,4.1-1.1L233.4,47.8z"/>
<linearGradient id="SVGID_4_" gradientUnits="userSpaceOnUse" x1="164.4975" y1="54.1541" x2="164.4975" y2="44.2321">
	<stop  offset="0" style="stop-color:#F6921E"/>
	<stop  offset="0.4588" style="stop-color:#B46E23"/>
	<stop  offset="0.8192" style="stop-color:#865527"/>
	<stop  offset="1" style="stop-color:#754C28"/>
</linearGradient>
<path fill="url(#SVGID_4_)" d="M163.1,46.9c0.1,1.7,0.4,4.1,0.8,6.9c0,0.1,0,0.2,0,0.2l2.2,0c0-0.2,0-0.4-0.1-0.5
	c-0.3-2.8-0.4-5.2-0.5-6.8c0-0.8,0-1.5-0.1-1.9c0-0.4,0-0.7,0-0.7l-2.6,0c0,0,0,0.2,0,0.7C163,45.4,163,46.1,163.1,46.9z"/>
<linearGradient id="SVGID_5_" gradientUnits="userSpaceOnUse" x1="223.4775" y1="-8.8561" x2="190.972" y2="47.4451">
	<stop  offset="0" style="stop-color:#F6921E"/>
	<stop  offset="0.4588" style="stop-color:#B46E23"/>
	<stop  offset="0.8192" style="stop-color:#865527"/>
	<stop  offset="1" style="stop-color:#754C28"/>
</linearGradient>
<path fill="url(#SVGID_5_)" d="M189.5,46.5C189.5,46.5,189.5,46.5,189.5,46.5C189.5,46.6,189.5,46.6,189.5,46.5
	C189.5,46.6,189.5,46.6,189.5,46.5c0,0-0.1-0.1-0.2-0.1c-0.2-0.1-0.4-0.4-0.8-0.6c-0.7-0.6-1.6-1.4-2.8-2.6
	c-1.1-1.2-2.5-2.7-3.9-4.5c-1.4-1.8-2.9-4-4.2-6.6c-1.3-2.6-2.4-5.6-2.6-8.9c-0.1-1.7,0-3.4,0.5-5.2c0.5-1.7,1.3-3.4,2.4-4.9
	c2.2-3,5.2-5.4,8.6-7.2c1.8-0.9,3.6-1.5,5.6-1.9c1.9-0.3,3.9-0.3,5.9-0.1c3.9,0.4,7.5,1.7,11,2.9c3.5,1.3,6.9,2.6,10.2,3.6
	c3.3,1,6.6,1.7,9.8,1.8c3.2,0.2,6.2-0.2,8.8-1c2.7-0.8,5-1.8,7-3c1-0.6,2-1.1,2.4-1.9c0.2-0.4,0.2-0.8-0.1-1.1
	c-0.3-0.3-0.6-0.5-1-0.7c-0.7-0.3-1.5-0.3-2.1-0.1c-0.6,0.2-1,0.6-1.1,1c-0.1,0.4-0.1,0.8-0.1,1c0,0.2,0.1,0.3,0.1,0.3
	s0-0.1-0.1-0.3c0-0.2-0.1-0.6,0-1c0.1-0.4,0.5-0.9,1.1-1.1c0.6-0.2,1.4-0.3,2.2,0c0.4,0.1,0.8,0.3,1.2,0.7c0.2,0.2,0.3,0.4,0.3,0.7
	c0,0.3,0,0.6-0.1,0.8c-0.2,0.5-0.6,0.9-1.1,1.2c-0.4,0.3-0.9,0.6-1.4,1c-1.9,1.3-4.2,2.5-7,3.4c-2.7,0.9-5.8,1.5-9.2,1.4
	c-3.3-0.1-6.8-0.7-10.2-1.6c-3.4-1-6.9-2.2-10.4-3.4c-3.5-1.2-7-2.3-10.6-2.7c-1.8-0.2-3.6-0.2-5.4,0.1c-1.7,0.3-3.5,0.8-5,1.6
	c-3.2,1.7-6.1,3.8-8.1,6.5c-2,2.7-2.9,5.9-2.8,9c0.1,3.1,1,6,2.1,8.5c1.1,2.5,2.5,4.7,3.7,6.6c1.3,1.9,2.5,3.4,3.6,4.7
	c1.1,1.2,1.9,2.2,2.6,2.8c0.3,0.3,0.6,0.6,0.7,0.7C189.4,46.5,189.4,46.5,189.5,46.5C189.5,46.6,189.5,46.6,189.5,46.5
	C189.5,46.5,189.5,46.5,189.5,46.5z"/>
<linearGradient id="SVGID_6_" gradientUnits="userSpaceOnUse" x1="200.1989" y1="15.5789" x2="184.8942" y2="42.0874">
	<stop  offset="0" style="stop-color:#F6921E"/>
	<stop  offset="0.4588" style="stop-color:#B46E23"/>
	<stop  offset="0.8192" style="stop-color:#865527"/>
	<stop  offset="1" style="stop-color:#754C28"/>
</linearGradient>
<path fill="url(#SVGID_6_)" d="M194.9,47.8c0,0,0.2-0.1,0.2-0.4c0.1-0.3-0.1-0.8-0.4-1.3c-0.6-1-1.7-2.3-3-3.9
	c-1.3-1.6-2.8-3.4-4.3-5.6c-1.4-2.1-2.8-4.6-3.6-7.3c-0.4-1.3-0.6-2.8-0.7-4.2c0-1.4,0.2-2.8,0.7-4.1c0.4-1.3,1.1-2.4,1.9-3.3
	c0.7-1,1.6-1.8,2.4-2.4c0.8-0.7,1.6-1.2,2.3-1.6c0.7-0.4,1.3-0.8,1.9-1.1c0.5-0.3,1-0.5,1.3-0.6c0.3-0.1,0.4-0.2,0.4-0.2
	s-0.1,0.1-0.4,0.3c-0.3,0.2-0.7,0.4-1.2,0.8c-0.5,0.3-1.1,0.7-1.7,1.2c-0.7,0.5-1.3,1.1-2.1,1.8c-1.4,1.4-2.9,3.3-3.6,5.6
	c-0.2,0.6-0.3,1.2-0.4,1.8c-0.1,0.6-0.1,1.2-0.1,1.9c0,1.3,0.3,2.6,0.7,3.8c0.4,1.3,0.9,2.5,1.5,3.7c0.6,1.2,1.2,2.3,1.9,3.4
	c1.3,2.1,2.7,4.1,3.9,5.7c0.6,0.8,1.1,1.6,1.6,2.3c0.4,0.7,0.8,1.3,1.1,1.9c0.2,0.6,0.3,1.1,0.2,1.4C195,47.8,194.8,47.8,194.9,47.8
	z"/>
<linearGradient id="SVGID_7_" gradientUnits="userSpaceOnUse" x1="244.7796" y1="1.1701" x2="217.1476" y2="49.0302">
	<stop  offset="0" style="stop-color:#F6921E"/>
	<stop  offset="0.4588" style="stop-color:#B46E23"/>
	<stop  offset="0.8192" style="stop-color:#865527"/>
	<stop  offset="1" style="stop-color:#754C28"/>
</linearGradient>
<path fill="url(#SVGID_7_)" d="M213.7,47.1C213.7,47.1,213.7,47.1,213.7,47.1C213.8,47.1,213.8,47.1,213.7,47.1
	C213.8,47,213.7,47,213.7,47.1c-0.2-0.1-0.3-0.2-0.6-0.4c-0.5-0.3-1.2-0.8-1.8-1.6c-0.3-0.4-0.6-1-0.6-1.7c-0.1-0.7,0.1-1.4,0.5-2
	c0.8-1.3,2.1-2.4,3.7-3.3c1.5-0.9,3.3-1.7,5.2-2.5c0.9-0.4,1.9-0.7,2.9-1.1c0.9-0.4,1.8-1,2.5-1.7c0.7-0.7,0.9-1.6,0.7-2.6
	c-0.2-1-0.7-2-1.2-3c-0.5-1-1.1-2.1-1.3-3.4c-0.1-0.6-0.2-1.3,0-2c0.1-0.7,0.4-1.3,0.7-1.9c0.7-1.1,1.7-2,2.7-2.6
	c1-0.7,2.1-1.2,3.2-1.7c2.2-1,4.4-1.6,6.5-2.2c2.1-0.6,4.2-1.1,6.2-1.4c2-0.4,3.9-0.5,5.5-1.3c1.6-0.7,2.6-2.2,2.7-3.6
	c0.1-1.4-0.7-2.6-1.6-3.1c-0.9-0.5-1.8-0.5-2.3-0.4c-0.3,0-0.5,0.1-0.6,0.1c-0.1,0-0.2,0.1-0.2,0.1s0.1,0,0.2-0.1
	c0.1,0,0.3-0.1,0.6-0.1c0.5-0.1,1.4-0.1,2.3,0.4c0.9,0.5,1.8,1.7,1.7,3.2c0,0.7-0.3,1.5-0.8,2.2c-0.5,0.7-1.2,1.2-2,1.6
	c-0.8,0.4-1.7,0.7-2.6,0.9c-0.9,0.2-1.9,0.5-2.9,0.7c-1.9,0.5-4,1.1-6.1,1.8c-2.1,0.7-4.2,1.4-6.3,2.4c-1,0.5-2,1-3,1.7
	c-0.9,0.6-1.8,1.4-2.3,2.3c-0.5,0.9-0.7,1.9-0.5,3c0.2,1,0.7,2.1,1.2,3.1c0.5,1,1,2.1,1.3,3.4c0.1,0.6,0.1,1.3-0.1,2
	c-0.2,0.6-0.6,1.2-1,1.7c-1.8,1.7-4,2.3-5.9,2.9c-1.9,0.7-3.6,1.4-5.2,2.2c-1.5,0.8-2.9,1.7-3.6,2.9c-0.4,0.6-0.6,1.2-0.6,1.8
	c0,0.6,0.2,1.1,0.5,1.5c0.5,0.8,1.2,1.4,1.6,1.7C213.4,46.8,213.6,46.9,213.7,47.1C213.7,47,213.8,47,213.7,47.1
	C213.8,47.1,213.8,47.1,213.7,47.1C213.8,47.1,213.8,47.1,213.7,47.1C213.7,47.1,213.7,47.1,213.7,47.1z"/>
<g>
	<path fill="#603813" d="M158.1,43.8c0.1-0.1,0.1-0.2-0.1-0.4c-0.2-0.1-0.4-0.2-0.5-0.1c-2.7,2.4-4.9,4.6-6.4,6.7
		c-0.2,0.2-0.3,0.5-0.3,0.9c0,0.3,0,0.7,0.1,0.9c0.1,0.3,0.2,0.5,0.3,0.6c0.1,0.1,0.3,0.1,0.5,0c0.8-1.5,1.8-3,2.9-4.6
		C155.7,46.2,156.9,44.9,158.1,43.8z"/>
	<path fill="#603813" d="M53.6,27c-1.1-1.1-2.5-2.1-4.2-2.9c-1.7-0.8-3.8-1.4-6.1-1.7c0.9-0.6,1.8-1.2,2.8-1.6c1-0.4,2-0.8,3-1.1
		c0.3-0.1,0.4-0.3,0.4-0.4c0-0.2-0.1-0.3-0.4-0.3c-2.9,0.7-5.4,1.8-7.5,3.2c-0.5-0.1-0.9-0.1-1.4-0.1c-0.4,0-0.9,0-1.4,0
		c-2.9,0-5.5,0.4-8,1.1c-2.5,0.8-4.7,1.8-6.7,3.1c-2,1.3-3.7,2.8-5.1,4.5c-1.4,1.7-2.5,3.4-3.2,5.3c-0.1,0.2,0,0.4,0.1,0.5
		c0.1,0.1,0.3,0.1,0.4,0c0.9-1.9,2-3.6,3.3-5.2c1.3-1.5,2.9-2.8,4.6-3.9c1.7-1,3.5-1.9,5.4-2.4c1.9-0.6,3.8-0.8,5.7-0.8
		c0.6,0,1.2,0,1.8,0c0.5,0,1.1,0.1,1.6,0.2c-2.5,2.2-4.5,5-6.3,8.2c-1.7,3.3-3.2,7.1-4.4,11.4c-1.2,4.4-2.4,8.1-3.5,11
		c-1.1,2.9-2.2,5.3-3.2,7.1c-1.1,1.8-2.2,3.2-3.4,4c-1.2,0.9-2.6,1.5-4.1,1.8c-1.6,0.3-2.9,0.3-4.1,0c-1.1-0.3-2.3-1.1-3.4-2.2
		C6,65.5,5.5,65.5,5,65.6c-0.5,0.1-1,0.2-1.4,0.4c-0.4,0.2-0.8,0.4-1.1,0.7c-0.3,0.3-0.3,0.5-0.2,0.7c4.1,3.4,8.6,6.2,13.4,8.1
		c4.9,2,10.3,3,16.3,3c7.5,0,13.1-1.5,16.9-4.6c3.8-3.1,5.6-7.3,5.6-12.6c0-2.9-0.8-5.6-2.3-8.3c-1.5-2.7-3.9-4.8-7.3-6.3
		c1.5,0,2.9-0.3,4.3-0.9c1.4-0.6,2.7-1.4,3.8-2.5c1.1-1,2-2.3,2.7-3.8c0.7-1.5,1-3.1,1-4.8c0-1.4-0.3-2.8-0.8-4.1
		C55.5,29.4,54.7,28.2,53.6,27z M52.2,40.2c-0.5,1.1-1.1,2-1.9,2.8c-0.8,0.8-1.7,1.4-2.7,1.9c-1,0.4-2.1,0.7-3.1,0.7
		c-0.7,0-1.3,0-1.7-0.1c-0.4-0.1-0.9-0.3-1.4-0.5c-0.4-0.1-0.8,0-1.3,0.1c-0.5,0.1-1,0.3-1.4,0.5c-0.4,0.2-0.7,0.5-1,0.8
		c-0.2,0.3-0.3,0.5-0.1,0.7c8.8,2.3,13.2,7.7,13.2,16.2c0,2-0.4,3.8-1.1,5.5c-0.7,1.7-1.8,3.2-3.2,4.4c-1.4,1.3-3.2,2.2-5.3,3
		c-2.1,0.7-4.4,1.1-7,1.1c-4.4,0-8.6-0.7-12.5-2.2c-4-1.5-7.4-3.3-10.4-5.5c1.9-0.1,3.7-0.5,5.5-1.2c1.8-0.8,3.6-2.1,5.3-4.1
		c1.7-2,3.3-4.7,4.9-8.2c1.6-3.5,3.2-8,4.7-13.5c1.1-4.1,2.3-7.6,3.9-10.5c1.5-2.9,3.2-5.4,5.2-7.4c4.2,0.8,7.3,2.2,9.3,4.4
		c2,2.2,3,4.7,3,7.5C52.9,37.9,52.7,39.1,52.2,40.2z"/>
	<path fill="#603813" d="M76,58.2c0-0.6-0.3-1.1-0.8-1.5c-0.5-0.4-1.1-0.5-1.8-0.5c-1.6,0-3.2,0.8-4.6,2.4c-1.4,1.6-2.7,3.8-3.9,6.6
		c0.3-1.2,0.5-2.3,0.7-3.5c0.2-1.2,0.3-2.2,0.3-3.1c0-1.6-0.6-2.5-1.9-2.5c-0.9,0-1.9,0.5-3,1.4c-1.1,0.9-2.1,1.9-2.9,3
		c-0.1,0.2-0.1,0.4,0.1,0.6c0.2,0.1,0.4,0.2,0.6,0c0.5-0.7,1.1-1.3,1.7-1.8c0.6-0.5,1.2-0.8,1.6-0.8c0.8,0,1.1,0.9,0.9,2.6
		c-0.2,1.2-0.4,2.4-0.7,3.9c-0.3,1.4-0.7,2.8-1.1,4.3c-0.4,1.5-0.9,2.9-1.4,4.3c-0.5,1.4-1,2.8-1.5,4c-0.3,0.6-0.2,1,0.4,1
		c0.5,0,1-0.1,1.7-0.3c0.7-0.2,1.1-0.6,1.2-1.1c1.5-5.4,3-9.7,4.6-12.7c1.6-3.1,3.5-4.6,5.5-4.6c1.3,0,2,0.5,2,1.5
		c0,0.4,0.2,0.5,0.5,0.3c0.4-0.4,0.7-0.9,1.1-1.6C75.8,59.2,76,58.6,76,58.2z"/>
	<path fill="#603813" d="M86.6,56.1c-1.5,0-3,0.5-4.3,1.6c-1.4,1-2.6,2.4-3.6,4c-1,1.6-1.9,3.4-2.5,5.4c-0.6,2-1,3.8-1,5.6
		c0,1.9,0.5,3.4,1.4,4.4c1,1,2.2,1.5,3.7,1.5c1.6,0,3.2-0.5,4.7-1.4c1.5-1,2.7-2.1,3.7-3.5c0.1-0.2,0.1-0.4,0-0.6
		c-0.1-0.2-0.3-0.2-0.5-0.1c-0.8,1-1.7,1.8-2.8,2.4c-1,0.6-2.1,0.9-3.3,0.9c-1.2,0-2.1-0.5-2.7-1.5c-0.6-1-1-2.2-1-3.7
		c0-0.8,0-1.5,0-2.1c0-0.6,0.1-1.3,0.1-1.9c1.6-0.4,3.1-0.8,4.5-1.3c1.4-0.5,2.7-1,3.8-1.5c1.1-0.6,2-1.2,2.6-1.9
		c0.6-0.7,1-1.5,1-2.3c0-1-0.4-1.9-1.1-2.7C88.7,56.5,87.7,56.1,86.6,56.1z M85.1,63.9c-1.3,0.8-3.4,1.4-6.2,1.8
		c0.5-2.5,1.2-4.3,2.3-5.5c1.1-1.2,2.2-1.8,3.6-1.8c0.7,0,1.3,0.3,1.7,0.8c0.4,0.5,0.6,1.2,0.6,2C87.1,62.2,86.4,63.1,85.1,63.9z"/>
	<path fill="#603813" d="M118.8,56.2c-0.2,0-0.5,0.1-0.9,0.3c-0.3,0.2-0.7,0.5-1.1,0.8c-0.4,0.3-0.7,0.7-1,1c-0.3,0.4-0.5,0.7-0.7,1
		c-0.1,0.5,0.1,0.7,0.5,0.6c1-0.8,1.9-0.9,2.8-0.3c0.9,0.6,1.4,2.1,1.4,4.4c0,1.6-0.3,3.1-0.8,4.5c-0.6,1.4-1.3,2.7-2.1,3.8
		c-0.8,1.1-1.8,1.9-2.8,2.6c-1.1,0.6-2.1,1-3.1,1c-2,0-3-1.4-3-4.2c0-2.2,0.2-4.5,0.7-7c0.5-2.5,1.2-4.8,2.1-6.7
		c0-0.2-0.1-0.2-0.4-0.2c-0.3,0.1-0.6,0.2-0.9,0.3c-0.4,0.2-0.7,0.4-1.1,0.7c-0.4,0.3-0.6,0.5-0.6,0.7c-0.3,1.1-0.6,2-0.8,2.6
		c-0.3,0.6-0.6,1.1-0.9,1.6c-0.9,1.2-1.9,2.6-3,4.1c-1.1,1.5-2.2,3.2-3.3,5.2c0.2-0.9,0.3-2,0.5-3.2c0.1-1.2,0.2-2.6,0.2-4.1
		c0-3.4-0.3-5.8-0.8-7.2c-0.5-1.4-1.3-2.1-2.5-2.1c-0.5,0-1,0.1-1.5,0.4c-0.5,0.3-1,0.6-1.5,0.9c-0.5,0.4-0.9,0.7-1.2,1.1
		c-0.3,0.4-0.6,0.7-0.7,1c-0.1,0.2,0,0.4,0.2,0.6c0.2,0.1,0.4,0.2,0.5,0c0.3-0.6,0.7-1.1,1.3-1.4c0.6-0.3,1-0.4,1.4-0.3
		c0.7,0.3,1.2,1.2,1.4,2.6c0.3,1.5,0.4,3.2,0.4,5.1c0,2-0.1,4-0.4,6c-0.3,2.1-0.6,3.8-1,5.2c-0.1,0.6,0.1,1,0.5,1
		c0.5,0,0.9-0.1,1.2-0.4c0.3-0.3,0.7-0.9,1.2-1.8c1.3-2.2,2.6-4.3,3.9-6.4c1.3-2.1,2.5-3.9,3.8-5.4c-0.2,0.6-0.3,1.3-0.5,2
		c-0.1,0.8-0.3,1.6-0.4,2.4c-0.1,0.8-0.2,1.7-0.3,2.5c-0.1,0.8-0.1,1.6-0.1,2.3c0,1.6,0.3,2.9,0.9,3.7c0.6,0.8,1.4,1.2,2.5,1.2
		c1.3,0,2.7-0.5,4.2-1.4c1.5-0.9,2.9-2.1,4.2-3.6c1.3-1.5,2.3-3.3,3.2-5.3c0.8-2,1.3-4.1,1.3-6.4c0-1.9-0.3-3.3-0.8-4.2
		C120.3,56.7,119.6,56.2,118.8,56.2z"/>
	<path fill="#603813" d="M138,56.7c-0.8-0.4-1.8-0.6-2.9-0.6c-1.9,0-3.5,0.5-4.6,1.6c-1.1,1-1.7,2.3-1.7,3.9c0,1,0.2,2,0.7,2.9
		c0.5,0.9,1.1,1.8,1.7,2.7c0.6,0.9,1.2,1.8,1.7,2.8c0.5,1,0.8,2,0.8,3.1c0,1.3-0.4,2.3-1.3,3.1c-0.8,0.8-2,1.2-3.5,1.2
		c-1,0-1.9-0.2-2.6-0.7c-0.7-0.5-1.2-1.2-1.4-2.2c-0.1-0.5-0.1-1,0.2-1.6c0.2-0.6,0.6-1.2,1-1.6c0.1-0.2,0.1-0.4,0-0.5
		c-0.1-0.2-0.3-0.2-0.5-0.1c-0.8,0.6-1.5,1.5-2.2,2.5c-0.6,1.1-1,1.8-1,2.4c0,0.7,0.6,1.4,1.8,2c1.2,0.6,2.7,1,4.5,1
		c2.6,0,4.6-0.6,5.9-1.9c1.3-1.3,2-2.9,2-4.7c0-1.2-0.2-2.2-0.7-3.2c-0.5-1-1.1-1.9-1.7-2.7c-0.6-0.8-1.2-1.7-1.7-2.5
		c-0.5-0.8-0.7-1.7-0.7-2.7c0-1.2,0.3-2,0.9-2.6c0.6-0.6,1.4-0.9,2.4-0.9c1.3,0,2.2,0.6,2.5,1.7c0.1,0.4,0.1,0.9,0.1,1.4
		c-0.1,0.5-0.2,1-0.3,1.4c-0.1,0.2,0,0.3,0.2,0.4c0.2,0.1,0.4,0.1,0.5,0c0.3-0.5,0.6-1.2,0.8-2c0.3-0.8,0.4-1.5,0.4-2.2
		C139.1,57.5,138.8,57.1,138,56.7z"/>
	<path fill="#603813" d="M147.4,66c0.6-1.5,1.2-3.1,1.9-4.7c0.7-1.6,1.5-3,2.2-4.4c0-0.5-0.2-0.8-0.7-0.8c-1.4,0.7-2.8,1.6-4.2,2.6
		c-1.4,1.1-2.5,2-3.3,2.8c-0.1,0.2-0.1,0.4,0,0.6c0.1,0.2,0.3,0.2,0.5,0.1c0.5-0.5,1.2-1.1,2.1-1.8c1-0.7,1.8-1.3,2.4-1.8
		c-0.7,1-1.4,2.3-2.1,3.8c-0.7,1.5-1.4,3-2,4.6c-0.6,1.6-1.1,3.1-1.4,4.7c-0.4,1.5-0.6,2.9-0.6,4c0,1.9,0.8,2.9,2.3,2.9
		c1,0,2.2-0.5,3.4-1.6c1.2-1,2.3-2.2,3.4-3.5c0.1-0.2,0.1-0.4-0.1-0.6c-0.2-0.2-0.3-0.2-0.4-0.1c-0.8,0.9-1.5,1.7-2.1,2.2
		c-0.6,0.6-1.2,0.8-1.9,0.8c-0.8,0-1.2-0.6-1.2-1.8c0-0.9,0.2-2.1,0.5-3.5C146.4,69,146.9,67.5,147.4,66z"/>
	<path fill="#603813" d="M166.5,56.1c-1.5,0-3,0.5-4.3,1.6c-1.4,1-2.6,2.4-3.7,4c-1.1,1.6-1.9,3.3-2.6,5.2c-0.6,1.9-1,3.6-1,5.3
		c0,2,0.4,3.6,1.2,4.7c0.8,1.1,1.9,1.7,3.3,1.7c1.2,0,2.4-0.5,3.8-1.5c1.4-1,2.6-2.3,3.8-3.9c1.2-1.6,2.1-3.4,2.9-5.4
		c0.8-2,1.1-4,1.1-6c0-1.7-0.4-3.1-1.1-4.1C169.3,56.7,168.1,56.1,166.5,56.1z M167.6,68.9c-0.4,1.3-0.9,2.5-1.5,3.5
		c-0.6,1-1.4,1.8-2.2,2.5c-0.8,0.6-1.7,0.9-2.6,0.9c-2.3,0-3.5-1.8-3.5-5.5c0-1.5,0.2-3,0.5-4.3c0.4-1.4,0.8-2.6,1.4-3.6
		c0.6-1,1.3-1.8,2.1-2.5c0.8-0.6,1.7-0.9,2.5-0.9c1.3,0,2.3,0.5,2.9,1.5c0.6,1,0.9,2.4,0.9,4.2C168.2,66.2,168,67.6,167.6,68.9z"/>
	<path fill="#603813" d="M197.3,72.9c-0.2-0.1-0.4-0.1-0.5,0c-1.5,2-2.9,3.1-4.1,3.1c-0.9,0-1.4-0.7-1.4-2.2c0-2,0.4-4.3,1.3-6.7
		c0.8-2.4,1.9-4.7,3.1-7c0.4-0.8,0.5-1.5,0.5-2.3c0-0.5-0.2-0.9-0.6-1.2c-0.4-0.4-0.9-0.5-1.6-0.5c-1,0-2.2,0.3-3.4,0.9
		c-1.2,0.6-2.4,1.4-3.6,2.4c-1.2,1-2.3,2.2-3.5,3.6c-1.1,1.4-2.1,2.9-2.9,4.5c0.5-1.4,0.9-2.8,1.3-4.2c0.4-1.4,0.7-2.8,1-4.1
		c0.5-2,0-3-1.5-3c-1.3,0-2.5,0.5-3.6,1.6c-1.1,1-2,2.1-2.6,3.1c-0.1,0.2,0,0.4,0.1,0.5c0.1,0.2,0.3,0.2,0.4,0.1
		c0.6-0.9,1.3-1.7,1.8-2.3c0.6-0.6,1.2-0.9,1.8-0.9c0.6,0,0.8,0.6,0.6,1.7c-0.8,3.1-1.8,6.2-2.8,9.4c-1.1,3.2-2.1,6-3.1,8.5
		c-0.2,0.5,0.1,0.8,0.7,0.8c0.5,0,1-0.1,1.5-0.3c0.5-0.2,0.8-0.5,1-0.8c2.2-6.4,4.6-11,7.2-14c2.6-3,5-4.5,7.1-4.5
		c0.6,0,0.9,0.3,0.9,1c0,0.4-0.1,0.8-0.4,1.2c-1.2,2.4-2.2,4.9-2.9,7.3c-0.7,2.4-1.1,4.6-1.1,6.6c0,2.3,0.9,3.5,2.7,3.5
		c1,0,2.2-0.5,3.4-1.5c1.2-1,2.3-2.2,3.3-3.5C197.5,73.2,197.5,73.1,197.3,72.9z"/>
</g>
<g>
	<linearGradient id="SVGID_8_" gradientUnits="userSpaceOnUse" x1="79.0763" y1="96.0845" x2="79.0763" y2="79.5602">
		<stop  offset="0" style="stop-color:#F6921E"/>
		<stop  offset="7.672918e-002" style="stop-color:#D68120"/>
		<stop  offset="0.1681" style="stop-color:#B87123"/>
		<stop  offset="0.2693" style="stop-color:#A06325"/>
		<stop  offset="0.3824" style="stop-color:#8D5926"/>
		<stop  offset="0.5139" style="stop-color:#7F5127"/>
		<stop  offset="0.6807" style="stop-color:#774D28"/>
		<stop  offset="1" style="stop-color:#754C28"/>
	</linearGradient>
	<path fill="url(#SVGID_8_)" d="M84.9,79.6c0.4,0,0.6,0.1,0.7,0.4c0.1,0.3,0.1,0.7-0.2,1.1c-0.1,0.1-0.2,0.1-0.2-0.1
		c0-0.2,0-0.4-0.2-0.5c-0.1-0.1-0.3-0.2-0.6-0.2c-0.5,0-1.1,0.2-1.6,0.5c-0.5,0.4-1.1,0.9-1.6,1.5c-0.5,0.6-1,1.4-1.5,2.3
		c-0.5,0.9-0.9,1.8-1.3,2.8c-0.4,1-0.8,2.1-1.1,3.2c-0.3,1.1-0.6,2.2-0.8,3.4c-0.1,0.3-0.1,0.6,0,0.9c0,0.3,0.1,0.4,0.3,0.4
		c0.2,0,0.3-0.1,0.5-0.2c0.2-0.2,0.3-0.4,0.4-0.6c0,0,0.1,0,0.1,0c0.1,0,0.1,0.1,0.1,0.1c-0.1,0.1-0.2,0.3-0.3,0.4
		c-0.1,0.2-0.3,0.3-0.4,0.5c-0.2,0.1-0.3,0.3-0.5,0.3c-0.2,0.1-0.3,0.1-0.4,0.1c-0.2,0-0.4-0.1-0.5-0.3c-0.1-0.2-0.1-0.5-0.1-0.8
		c0-0.2,0-0.5,0.1-0.7c0-0.2,0.1-0.5,0.2-0.7c-0.1,0.3-0.3,0.6-0.5,0.9c-0.2,0.3-0.4,0.5-0.7,0.8c-0.2,0.2-0.5,0.4-0.7,0.6
		c-0.2,0.2-0.4,0.3-0.6,0.3c-0.2,0-0.5-0.1-0.7-0.3c-0.2-0.2-0.3-0.6-0.3-1c0-0.6,0.1-1.1,0.3-1.6c0.2-0.5,0.4-1,0.8-1.4
		c0.3-0.4,0.7-0.7,1.1-1c0.4-0.2,0.9-0.4,1.4-0.4c0.2,0,0.3,0,0.4,0.1c0.1,0,0.2,0.1,0.3,0.2c0.3-0.8,0.6-1.6,1-2.5
		c0.4-0.9,0.8-1.7,1.2-2.5c0.4-0.8,0.9-1.6,1.4-2.3c0.5-0.7,1-1.4,1.5-2c0.5-0.6,1-1,1.6-1.3C83.9,79.7,84.4,79.6,84.9,79.6z
		 M73.9,95.3c0.2,0,0.4-0.1,0.6-0.3c0.2-0.2,0.5-0.4,0.7-0.7c0.2-0.3,0.4-0.6,0.7-1c0.2-0.4,0.4-0.8,0.5-1.2c0-0.1,0.1-0.3,0.1-0.4
		c0-0.1,0.1-0.3,0.1-0.4c-0.1-0.2-0.2-0.3-0.3-0.4c-0.2-0.1-0.3-0.1-0.5-0.1c-0.3,0-0.6,0.1-0.9,0.3c-0.3,0.2-0.6,0.4-0.8,0.8
		c-0.2,0.3-0.4,0.7-0.5,1.1c-0.1,0.4-0.2,0.9-0.2,1.4c0,0.3,0.1,0.5,0.2,0.7C73.6,95.2,73.7,95.3,73.9,95.3z"/>
	<linearGradient id="SVGID_9_" gradientUnits="userSpaceOnUse" x1="80.9112" y1="96.0845" x2="80.9112" y2="90.4888">
		<stop  offset="0" style="stop-color:#F6921E"/>
		<stop  offset="7.672918e-002" style="stop-color:#D68120"/>
		<stop  offset="0.1681" style="stop-color:#B87123"/>
		<stop  offset="0.2693" style="stop-color:#A06325"/>
		<stop  offset="0.3824" style="stop-color:#8D5926"/>
		<stop  offset="0.5139" style="stop-color:#7F5127"/>
		<stop  offset="0.6807" style="stop-color:#774D28"/>
		<stop  offset="1" style="stop-color:#754C28"/>
	</linearGradient>
	<path fill="url(#SVGID_9_)" d="M80.7,91.1c0,0.2,0,0.5-0.1,0.8c0,0.3-0.1,0.6-0.2,0.9c0.3-0.7,0.6-1.2,1-1.6
		c0.4-0.4,0.7-0.6,1.1-0.6c0.2,0,0.3,0,0.4,0.1c0.1,0.1,0.2,0.2,0.2,0.4c0,0.1,0,0.3-0.1,0.4c-0.1,0.2-0.2,0.3-0.3,0.4
		c-0.1,0.1-0.1,0-0.1-0.1c0-0.3-0.2-0.4-0.5-0.4c-0.5,0-1,0.4-1.4,1.1c-0.4,0.8-0.8,1.8-1.2,3.2c0,0.1-0.1,0.2-0.3,0.3
		c-0.2,0-0.3,0.1-0.4,0.1c-0.2,0-0.2-0.1-0.1-0.2c0.1-0.3,0.3-0.6,0.4-1c0.1-0.4,0.2-0.7,0.3-1.1c0.1-0.4,0.2-0.7,0.3-1.1
		c0.1-0.3,0.1-0.7,0.2-1c0.1-0.4,0-0.7-0.2-0.7c-0.1,0-0.3,0.1-0.4,0.2c-0.2,0.1-0.3,0.3-0.4,0.5c-0.1,0-0.1,0-0.2,0
		c0,0-0.1-0.1,0-0.1c0.2-0.3,0.5-0.5,0.7-0.8c0.3-0.2,0.5-0.3,0.8-0.3C80.5,90.5,80.7,90.7,80.7,91.1z"/>
	<linearGradient id="SVGID_10_" gradientUnits="userSpaceOnUse" x1="85.0054" y1="96.0845" x2="85.0054" y2="87.2705">
		<stop  offset="0" style="stop-color:#F6921E"/>
		<stop  offset="7.672918e-002" style="stop-color:#D68120"/>
		<stop  offset="0.1681" style="stop-color:#B87123"/>
		<stop  offset="0.2693" style="stop-color:#A06325"/>
		<stop  offset="0.3824" style="stop-color:#8D5926"/>
		<stop  offset="0.5139" style="stop-color:#7F5127"/>
		<stop  offset="0.6807" style="stop-color:#774D28"/>
		<stop  offset="1" style="stop-color:#754C28"/>
	</linearGradient>
	<path fill="url(#SVGID_10_)" d="M83.4,92c0,0-0.1,0-0.1,0c0,0,0-0.1,0-0.1c0.2-0.2,0.5-0.4,0.8-0.7c0.3-0.3,0.7-0.5,1-0.7
		c0.1,0,0.2,0.1,0.2,0.2c-0.2,0.3-0.4,0.7-0.6,1.1c-0.2,0.4-0.3,0.8-0.5,1.2c-0.1,0.4-0.3,0.8-0.3,1.1c-0.1,0.4-0.1,0.7-0.1,0.9
		c0,0.3,0.1,0.5,0.3,0.5c0.2,0,0.3-0.1,0.5-0.2c0.2-0.1,0.3-0.3,0.5-0.6c0,0,0.1,0,0.1,0c0,0,0,0.1,0,0.2c-0.3,0.3-0.5,0.6-0.8,0.9
		c-0.3,0.3-0.6,0.4-0.8,0.4c-0.4,0-0.6-0.2-0.6-0.7c0-0.3,0-0.6,0.1-1c0.1-0.4,0.2-0.8,0.4-1.2c0.1-0.4,0.3-0.8,0.5-1.1
		c0.2-0.4,0.4-0.7,0.5-0.9c-0.2,0.1-0.4,0.3-0.6,0.4C83.7,91.8,83.5,91.9,83.4,92z M85.4,89.6c0,0-0.1,0-0.1,0c0,0-0.1-0.1-0.1-0.2
		c0-0.1,0-0.1,0-0.2c0-0.1,0-0.2,0.1-0.2c0.4-0.5,0.9-1.1,1.6-1.7c0,0,0.1,0,0.1,0c0,0,0,0.1,0,0.1c-0.3,0.3-0.6,0.6-0.9,1
		C85.8,88.8,85.6,89.2,85.4,89.6z"/>
	<linearGradient id="SVGID_11_" gradientUnits="userSpaceOnUse" x1="88.937" y1="96.0845" x2="88.937" y2="90.4888">
		<stop  offset="0" style="stop-color:#F6921E"/>
		<stop  offset="7.672918e-002" style="stop-color:#D68120"/>
		<stop  offset="0.1681" style="stop-color:#B87123"/>
		<stop  offset="0.2693" style="stop-color:#A06325"/>
		<stop  offset="0.3824" style="stop-color:#8D5926"/>
		<stop  offset="0.5139" style="stop-color:#7F5127"/>
		<stop  offset="0.6807" style="stop-color:#774D28"/>
		<stop  offset="1" style="stop-color:#754C28"/>
	</linearGradient>
	<path fill="url(#SVGID_11_)" d="M91.7,94.7c0,0,0.1,0,0.1,0c0,0,0.1,0.1,0,0.1c-0.2,0.3-0.5,0.6-0.8,0.9c-0.3,0.3-0.6,0.4-0.8,0.4
		c-0.5,0-0.7-0.3-0.7-0.9c0-0.5,0.1-1,0.3-1.7c0.2-0.6,0.4-1.2,0.7-1.8c0.1-0.1,0.1-0.2,0.1-0.3c0-0.2-0.1-0.2-0.2-0.2
		c-0.5,0-1.1,0.4-1.8,1.1c-0.6,0.7-1.2,1.9-1.8,3.5c0,0.1-0.1,0.2-0.2,0.2c-0.1,0-0.3,0.1-0.4,0.1C86,96.1,86,96,86,95.9
		c0.2-0.6,0.5-1.3,0.8-2.1c0.3-0.8,0.5-1.6,0.7-2.3c0.1-0.3,0-0.4-0.2-0.4c-0.1,0-0.3,0.1-0.4,0.2c-0.1,0.1-0.3,0.3-0.5,0.6
		c0,0-0.1,0-0.1,0c0,0,0-0.1,0-0.1c0.2-0.3,0.4-0.5,0.7-0.8c0.3-0.3,0.6-0.4,0.9-0.4c0.4,0,0.5,0.2,0.4,0.7c-0.1,0.3-0.1,0.7-0.2,1
		c-0.1,0.4-0.2,0.7-0.3,1.1c0.2-0.4,0.4-0.8,0.7-1.1c0.3-0.3,0.6-0.6,0.9-0.9c0.3-0.2,0.6-0.4,0.9-0.6c0.3-0.1,0.6-0.2,0.8-0.2
		c0.2,0,0.3,0,0.4,0.1c0.1,0.1,0.1,0.2,0.1,0.3c0,0.2,0,0.4-0.1,0.6c-0.3,0.6-0.6,1.1-0.8,1.7c-0.2,0.6-0.3,1.2-0.3,1.7
		c0,0.4,0.1,0.5,0.4,0.5C91,95.4,91.3,95.2,91.7,94.7z"/>
	<linearGradient id="SVGID_12_" gradientUnits="userSpaceOnUse" x1="98.1597" y1="96.0845" x2="98.1597" y2="79.5602">
		<stop  offset="0" style="stop-color:#F6921E"/>
		<stop  offset="7.672918e-002" style="stop-color:#D68120"/>
		<stop  offset="0.1681" style="stop-color:#B87123"/>
		<stop  offset="0.2693" style="stop-color:#A06325"/>
		<stop  offset="0.3824" style="stop-color:#8D5926"/>
		<stop  offset="0.5139" style="stop-color:#7F5127"/>
		<stop  offset="0.6807" style="stop-color:#774D28"/>
		<stop  offset="1" style="stop-color:#754C28"/>
	</linearGradient>
	<path fill="url(#SVGID_12_)" d="M95,93.2c0.2,0.8,0.4,1.4,0.6,1.8c0.2,0.4,0.6,0.6,0.9,0.6c0.2,0,0.3,0,0.4-0.1
		c0.1-0.1,0.3-0.2,0.4-0.4c0,0,0.1,0,0.1,0c0,0,0,0.1,0,0.1c-0.2,0.3-0.4,0.5-0.7,0.6c-0.2,0.2-0.5,0.2-0.8,0.2
		c-0.5,0-0.8-0.2-1.1-0.7c-0.3-0.5-0.5-1.2-0.7-2.2c0-0.1,0-0.2,0.1-0.2c0.3,0.1,0.5,0.1,0.8,0c0.3,0,0.5-0.1,0.7-0.3
		c0.2-0.1,0.4-0.3,0.5-0.5c0.1-0.2,0.2-0.4,0.2-0.6c0-0.4-0.2-0.5-0.5-0.5c-0.5,0-1,0.2-1.4,0.7c-0.4,0.5-0.8,1.2-1,2.2
		c-0.1,0.2-0.1,0.5-0.2,0.8c-0.1,0.3-0.1,0.5-0.2,0.8c0,0.1-0.1,0.2-0.1,0.3c0,0.1-0.1,0.1-0.2,0.2c-0.2,0.1-0.3,0.1-0.5,0.1
		c-0.1,0-0.2-0.1-0.1-0.2c0.5-2.4,1.1-4.7,1.8-6.7c0.8-2,1.6-3.7,2.6-5.2c0.9-1.4,1.9-2.5,2.9-3.3c1-0.8,1.9-1.2,2.8-1.2
		c0.3,0,0.6,0.1,0.8,0.2c0.2,0.1,0.4,0.3,0.4,0.5c0.1,0.2,0.1,0.4,0.1,0.6c0,0.2-0.1,0.5-0.3,0.7c-0.1,0.1-0.2,0.1-0.2-0.1
		c0.1-0.3,0-0.6-0.2-0.9c-0.2-0.3-0.6-0.4-1.1-0.4c-0.6,0-1.3,0.2-2,0.7c-0.7,0.5-1.4,1.2-2.2,2.2c-0.7,1-1.4,2.3-2.1,3.8
		c-0.7,1.6-1.3,3.4-1.8,5.5c0.3-0.6,0.7-1.1,1.1-1.5c0.4-0.4,0.9-0.6,1.5-0.6c0.2,0,0.4,0.1,0.6,0.3c0.2,0.2,0.2,0.4,0.2,0.6
		c0,0.5-0.2,0.9-0.7,1.2C96.2,92.9,95.7,93.1,95,93.2z"/>
	<linearGradient id="SVGID_13_" gradientUnits="userSpaceOnUse" x1="103.5624" y1="96.0845" x2="103.5624" y2="87.2705">
		<stop  offset="0" style="stop-color:#F6921E"/>
		<stop  offset="7.672918e-002" style="stop-color:#D68120"/>
		<stop  offset="0.1681" style="stop-color:#B87123"/>
		<stop  offset="0.2693" style="stop-color:#A06325"/>
		<stop  offset="0.3824" style="stop-color:#8D5926"/>
		<stop  offset="0.5139" style="stop-color:#7F5127"/>
		<stop  offset="0.6807" style="stop-color:#774D28"/>
		<stop  offset="1" style="stop-color:#754C28"/>
	</linearGradient>
	<path fill="url(#SVGID_13_)" d="M102,92c0,0-0.1,0-0.1,0c0,0,0-0.1,0-0.1c0.2-0.2,0.5-0.4,0.8-0.7c0.3-0.3,0.7-0.5,1-0.7
		c0.1,0,0.2,0.1,0.2,0.2c-0.2,0.3-0.4,0.7-0.6,1.1c-0.2,0.4-0.3,0.8-0.5,1.2c-0.1,0.4-0.3,0.8-0.3,1.1c-0.1,0.4-0.1,0.7-0.1,0.9
		c0,0.3,0.1,0.5,0.3,0.5c0.2,0,0.3-0.1,0.5-0.2c0.2-0.1,0.3-0.3,0.5-0.6c0,0,0.1,0,0.1,0c0,0,0.1,0.1,0,0.2
		c-0.3,0.3-0.5,0.6-0.8,0.9c-0.3,0.3-0.6,0.4-0.8,0.4c-0.4,0-0.6-0.2-0.6-0.7c0-0.3,0-0.6,0.1-1c0.1-0.4,0.2-0.8,0.4-1.2
		c0.1-0.4,0.3-0.8,0.5-1.1c0.2-0.4,0.4-0.7,0.5-0.9c-0.2,0.1-0.4,0.3-0.6,0.4C102.3,91.8,102.1,91.9,102,92z M103.9,89.6
		c0,0-0.1,0-0.1,0c0,0-0.1-0.1-0.1-0.2c0-0.1,0-0.1,0-0.2c0-0.1,0-0.2,0.1-0.2c0.4-0.5,0.9-1.1,1.6-1.7c0,0,0.1,0,0.1,0
		c0,0,0.1,0.1,0,0.1c-0.3,0.3-0.6,0.6-0.9,1C104.4,88.8,104.1,89.2,103.9,89.6z"/>
	<linearGradient id="SVGID_14_" gradientUnits="userSpaceOnUse" x1="107.4941" y1="96.0845" x2="107.4941" y2="90.4888">
		<stop  offset="0" style="stop-color:#F6921E"/>
		<stop  offset="7.672918e-002" style="stop-color:#D68120"/>
		<stop  offset="0.1681" style="stop-color:#B87123"/>
		<stop  offset="0.2693" style="stop-color:#A06325"/>
		<stop  offset="0.3824" style="stop-color:#8D5926"/>
		<stop  offset="0.5139" style="stop-color:#7F5127"/>
		<stop  offset="0.6807" style="stop-color:#774D28"/>
		<stop  offset="1" style="stop-color:#754C28"/>
	</linearGradient>
	<path fill="url(#SVGID_14_)" d="M110.3,94.7c0,0,0.1,0,0.1,0c0,0,0.1,0.1,0,0.1c-0.2,0.3-0.5,0.6-0.8,0.9c-0.3,0.3-0.6,0.4-0.8,0.4
		c-0.5,0-0.7-0.3-0.7-0.9c0-0.5,0.1-1,0.3-1.7c0.2-0.6,0.4-1.2,0.7-1.8c0.1-0.1,0.1-0.2,0.1-0.3c0-0.2-0.1-0.2-0.2-0.2
		c-0.5,0-1.1,0.4-1.8,1.1c-0.6,0.7-1.3,1.9-1.8,3.5c0,0.1-0.1,0.2-0.2,0.2c-0.1,0-0.3,0.1-0.4,0.1c-0.2,0-0.2-0.1-0.2-0.2
		c0.2-0.6,0.5-1.3,0.8-2.1c0.3-0.8,0.5-1.6,0.7-2.3c0.1-0.3,0-0.4-0.2-0.4c-0.1,0-0.3,0.1-0.4,0.2c-0.1,0.1-0.3,0.3-0.5,0.6
		c0,0-0.1,0-0.1,0c0,0,0-0.1,0-0.1c0.2-0.3,0.4-0.5,0.7-0.8c0.3-0.3,0.6-0.4,0.9-0.4c0.4,0,0.5,0.2,0.4,0.7c-0.1,0.3-0.1,0.7-0.2,1
		c-0.1,0.4-0.2,0.7-0.3,1.1c0.2-0.4,0.4-0.8,0.7-1.1c0.3-0.3,0.6-0.6,0.9-0.9c0.3-0.2,0.6-0.4,0.9-0.6c0.3-0.1,0.6-0.2,0.8-0.2
		c0.2,0,0.3,0,0.4,0.1c0.1,0.1,0.1,0.2,0.1,0.3c0,0.2,0,0.4-0.1,0.6c-0.3,0.6-0.6,1.1-0.8,1.7c-0.2,0.6-0.3,1.2-0.3,1.7
		c0,0.4,0.1,0.5,0.3,0.5C109.5,95.4,109.9,95.2,110.3,94.7z"/>
	<linearGradient id="SVGID_15_" gradientUnits="userSpaceOnUse" x1="116.4705" y1="96.0845" x2="116.4705" y2="87.8078">
		<stop  offset="0" style="stop-color:#F6921E"/>
		<stop  offset="7.672918e-002" style="stop-color:#D68120"/>
		<stop  offset="0.1681" style="stop-color:#B87123"/>
		<stop  offset="0.2693" style="stop-color:#A06325"/>
		<stop  offset="0.3824" style="stop-color:#8D5926"/>
		<stop  offset="0.5139" style="stop-color:#7F5127"/>
		<stop  offset="0.6807" style="stop-color:#774D28"/>
		<stop  offset="1" style="stop-color:#754C28"/>
	</linearGradient>
	<path fill="url(#SVGID_15_)" d="M118.2,90.6c0.1,0,0.1,0.1,0.1,0.1c0,0.1-0.1,0.1-0.2,0.1c-0.2,0-0.5,0-0.8,0c-0.3,0-0.6,0-0.9,0.1
		c-0.3,0.7-0.5,1.4-0.7,2.1c-0.2,0.7-0.3,1.2-0.3,1.7c0,0.5,0.2,0.7,0.6,0.7c0.4,0,0.8-0.3,1.2-1c0,0,0.1,0,0.1,0c0,0,0.1,0.1,0,0.2
		c-0.1,0.2-0.3,0.4-0.4,0.6c-0.2,0.2-0.3,0.3-0.5,0.5c-0.2,0.1-0.3,0.2-0.5,0.3c-0.2,0.1-0.3,0.1-0.4,0.1c-0.3,0-0.6-0.1-0.7-0.3
		c-0.2-0.2-0.2-0.4-0.2-0.7c0-0.5,0.1-1.1,0.3-1.8c0.2-0.7,0.5-1.5,0.8-2.3c-0.2,0-0.4,0.1-0.5,0.1c-0.2,0-0.3,0.1-0.5,0.1
		c-0.1,0-0.1-0.1-0.1-0.1c0-0.1,0.1-0.1,0.2-0.2c0.1-0.1,0.2-0.1,0.3-0.2c0.1-0.1,0.3-0.1,0.4-0.1c0.1,0,0.1,0,0.2,0
		c0.1,0,0.1,0,0.2,0c0.2-0.5,0.4-0.9,0.6-1.3c0.2-0.4,0.4-0.8,0.6-1.1c0.1-0.1,0.2-0.2,0.3-0.2c0.1-0.1,0.2-0.1,0.3-0.1
		c0.1,0,0.2,0,0.2,0c0.1,0,0.1,0,0.1,0.1c-0.2,0.4-0.5,0.8-0.7,1.3c-0.2,0.5-0.5,0.9-0.7,1.4c0.3,0,0.5,0,0.8,0
		C117.7,90.6,117.9,90.6,118.2,90.6z"/>
	<linearGradient id="SVGID_16_" gradientUnits="userSpaceOnUse" x1="123.8014" y1="96.0845" x2="123.8014" y2="79.5602">
		<stop  offset="0" style="stop-color:#F6921E"/>
		<stop  offset="7.672918e-002" style="stop-color:#D68120"/>
		<stop  offset="0.1681" style="stop-color:#B87123"/>
		<stop  offset="0.2693" style="stop-color:#A06325"/>
		<stop  offset="0.3824" style="stop-color:#8D5926"/>
		<stop  offset="0.5139" style="stop-color:#7F5127"/>
		<stop  offset="0.6807" style="stop-color:#774D28"/>
		<stop  offset="1" style="stop-color:#754C28"/>
	</linearGradient>
	<path fill="url(#SVGID_16_)" d="M118,95.9c0.7-2.5,1.4-4.8,2.2-6.8c0.8-2,1.7-3.7,2.6-5.1c0.9-1.4,1.8-2.5,2.7-3.3
		c0.9-0.8,1.8-1.1,2.7-1.1c0.3,0,0.6,0.1,0.8,0.2c0.2,0.1,0.4,0.3,0.4,0.5c0.1,0.2,0.1,0.4,0.1,0.6c0,0.2-0.1,0.5-0.3,0.7
		c0,0-0.1,0.1-0.1,0c0,0-0.1,0-0.1-0.1c0.1-0.3,0-0.6-0.3-0.8c-0.2-0.3-0.6-0.4-1.1-0.4c-0.7,0-1.4,0.3-2.1,0.8
		c-0.7,0.5-1.4,1.4-2.1,2.5c-0.7,1.1-1.4,2.5-2.1,4.2c-0.7,1.7-1.4,3.7-2,6c0.2-0.5,0.5-0.9,0.8-1.3c0.3-0.4,0.6-0.7,0.9-1
		c0.3-0.3,0.6-0.5,1-0.7c0.3-0.2,0.6-0.3,1-0.3c0.2,0,0.3,0,0.4,0.1c0.1,0.1,0.1,0.2,0.1,0.3c0,0.2-0.1,0.4-0.2,0.6
		c-0.3,0.5-0.6,1.1-0.8,1.7c-0.2,0.6-0.3,1.1-0.3,1.6c0,0.2,0,0.4,0.1,0.5c0.1,0.1,0.1,0.2,0.3,0.2c0.1,0,0.3-0.1,0.5-0.2
		c0.2-0.2,0.3-0.3,0.4-0.5c0,0,0.1,0,0.1,0c0,0,0.1,0.1,0,0.1c-0.1,0.1-0.2,0.3-0.3,0.4c-0.1,0.1-0.3,0.3-0.4,0.4
		c-0.2,0.1-0.3,0.2-0.5,0.3c-0.2,0.1-0.3,0.1-0.4,0.1c-0.4,0-0.5-0.3-0.5-0.9c0-0.5,0.1-1.1,0.3-1.7c0.2-0.6,0.4-1.2,0.6-1.6
		c0.1-0.1,0.1-0.3,0.1-0.4c0-0.1-0.1-0.2-0.2-0.2c-0.3,0-0.5,0.1-0.9,0.3c-0.3,0.2-0.6,0.5-0.9,0.9c-0.3,0.4-0.6,0.9-0.9,1.4
		c-0.3,0.6-0.6,1.2-0.8,1.9c0,0.1-0.1,0.2-0.2,0.2c-0.1,0.1-0.2,0.1-0.4,0.1C118,96.1,118,96,118,95.9z"/>
	<linearGradient id="SVGID_17_" gradientUnits="userSpaceOnUse" x1="126.4291" y1="96.0845" x2="126.4291" y2="90.4888">
		<stop  offset="0" style="stop-color:#F6921E"/>
		<stop  offset="7.672918e-002" style="stop-color:#D68120"/>
		<stop  offset="0.1681" style="stop-color:#B87123"/>
		<stop  offset="0.2693" style="stop-color:#A06325"/>
		<stop  offset="0.3824" style="stop-color:#8D5926"/>
		<stop  offset="0.5139" style="stop-color:#7F5127"/>
		<stop  offset="0.6807" style="stop-color:#774D28"/>
		<stop  offset="1" style="stop-color:#754C28"/>
	</linearGradient>
	<path fill="url(#SVGID_17_)" d="M128.4,91.4c0,0.2-0.1,0.4-0.2,0.6c-0.2,0.2-0.4,0.3-0.7,0.5c-0.3,0.1-0.6,0.3-1,0.4
		c-0.4,0.1-0.7,0.2-1.1,0.3c0,0.2,0,0.3,0,0.5c0,0.2,0,0.3,0,0.5c0,0.4,0.1,0.7,0.2,0.9c0.2,0.2,0.4,0.4,0.7,0.4
		c0.3,0,0.6-0.1,0.8-0.2c0.3-0.1,0.5-0.3,0.7-0.6c0.1,0,0.1,0,0.1,0c0,0,0,0.1,0,0.2c-0.2,0.3-0.6,0.6-0.9,0.9
		c-0.4,0.2-0.8,0.4-1.2,0.4c-0.4,0-0.7-0.1-0.9-0.4c-0.2-0.2-0.4-0.6-0.4-1.1c0-0.4,0.1-0.9,0.2-1.4c0.2-0.5,0.4-0.9,0.6-1.3
		c0.3-0.4,0.6-0.7,0.9-1c0.3-0.3,0.7-0.4,1.1-0.4c0.3,0,0.5,0.1,0.7,0.3C128.3,91,128.4,91.2,128.4,91.4z M126.9,91.1
		c-0.3,0-0.6,0.1-0.9,0.4c-0.3,0.3-0.5,0.8-0.6,1.4c0.7-0.1,1.2-0.2,1.5-0.4c0.3-0.2,0.5-0.4,0.5-0.7c0-0.2-0.1-0.4-0.2-0.5
		C127.2,91.1,127.1,91.1,126.9,91.1z"/>
	<linearGradient id="SVGID_18_" gradientUnits="userSpaceOnUse" x1="136.3856" y1="96.0845" x2="136.3856" y2="90.4888">
		<stop  offset="0" style="stop-color:#F6921E"/>
		<stop  offset="7.672918e-002" style="stop-color:#D68120"/>
		<stop  offset="0.1681" style="stop-color:#B87123"/>
		<stop  offset="0.2693" style="stop-color:#A06325"/>
		<stop  offset="0.3824" style="stop-color:#8D5926"/>
		<stop  offset="0.5139" style="stop-color:#7F5127"/>
		<stop  offset="0.6807" style="stop-color:#774D28"/>
		<stop  offset="1" style="stop-color:#754C28"/>
	</linearGradient>
	<path fill="url(#SVGID_18_)" d="M139.4,91.5c0-0.3-0.1-0.5-0.3-0.5c-0.2,0-0.5,0.1-0.7,0.3c-0.3,0.2-0.5,0.5-0.8,0.9
		c-0.3,0.4-0.6,0.9-0.9,1.5c-0.3,0.6-0.6,1.3-0.8,2c0,0.1-0.1,0.2-0.2,0.2c-0.1,0-0.2,0.1-0.4,0.1c-0.2,0-0.2-0.1-0.2-0.2
		c0.1-0.3,0.2-0.6,0.4-1c0.2-0.4,0.3-0.8,0.4-1.2c0.1-0.4,0.3-0.8,0.4-1.2c0.1-0.4,0.2-0.7,0.2-0.9c0-0.4-0.1-0.6-0.4-0.6
		c-0.4,0-0.9,0.4-1.4,1.2c-0.6,0.8-1.1,2-1.7,3.5c0,0.1-0.1,0.2-0.2,0.2c-0.1,0-0.2,0.1-0.3,0.1c-0.1,0-0.1,0-0.2,0
		c0,0-0.1-0.1,0-0.2c0.1-0.3,0.2-0.7,0.4-1.1c0.1-0.4,0.3-0.8,0.4-1.2c0.1-0.4,0.3-0.8,0.4-1.2c0.1-0.4,0.2-0.7,0.3-1.1
		c0.1-0.3,0-0.4-0.1-0.4c-0.1,0-0.3,0.1-0.4,0.2c-0.2,0.2-0.3,0.4-0.5,0.6c0,0-0.1,0-0.1,0c0,0-0.1-0.1,0-0.1
		c0.2-0.3,0.5-0.6,0.7-0.8c0.3-0.3,0.5-0.4,0.8-0.4c0.2,0,0.3,0.1,0.4,0.2c0.1,0.1,0.1,0.3,0,0.5c-0.1,0.3-0.1,0.6-0.2,0.9
		c-0.1,0.3-0.1,0.5-0.3,0.8c0.4-0.7,0.8-1.3,1.3-1.8c0.5-0.5,0.9-0.7,1.4-0.7c0.2,0,0.3,0.1,0.4,0.2c0.1,0.1,0.2,0.3,0.2,0.5
		c0,0.3,0,0.6-0.1,0.9c-0.1,0.3-0.1,0.6-0.3,0.9c0.4-0.8,0.9-1.5,1.4-1.9c0.5-0.5,1-0.7,1.5-0.7c0.2,0,0.3,0.1,0.4,0.2
		c0.1,0.1,0.2,0.3,0.2,0.5c0,0.3-0.1,0.5-0.2,0.9c-0.1,0.3-0.2,0.6-0.4,1c-0.1,0.3-0.3,0.7-0.4,1c-0.1,0.3-0.2,0.6-0.2,0.9
		c0,0.4,0.1,0.5,0.3,0.5c0.2,0,0.6-0.2,1-0.7c0,0,0.1,0,0.1,0c0,0,0,0.1,0,0.2c-0.1,0.1-0.2,0.2-0.3,0.4c-0.1,0.1-0.3,0.3-0.4,0.4
		c-0.1,0.1-0.3,0.2-0.4,0.3c-0.2,0.1-0.3,0.1-0.5,0.1c-0.3,0-0.5-0.3-0.5-0.8c0-0.3,0.1-0.7,0.2-1.1c0.1-0.4,0.2-0.7,0.3-1
		c0.1-0.3,0.2-0.6,0.3-0.9C139.4,91.9,139.4,91.7,139.4,91.5z"/>
	<linearGradient id="SVGID_19_" gradientUnits="userSpaceOnUse" x1="143.3363" y1="96.0845" x2="143.3363" y2="90.4888">
		<stop  offset="0" style="stop-color:#F6921E"/>
		<stop  offset="7.672918e-002" style="stop-color:#D68120"/>
		<stop  offset="0.1681" style="stop-color:#B87123"/>
		<stop  offset="0.2693" style="stop-color:#A06325"/>
		<stop  offset="0.3824" style="stop-color:#8D5926"/>
		<stop  offset="0.5139" style="stop-color:#7F5127"/>
		<stop  offset="0.6807" style="stop-color:#774D28"/>
		<stop  offset="1" style="stop-color:#754C28"/>
	</linearGradient>
	<path fill="url(#SVGID_19_)" d="M144.2,90.5c0.4,0,0.7,0.1,0.9,0.4c0.2,0.3,0.3,0.6,0.3,1c0,0.5-0.1,1-0.3,1.5
		c-0.2,0.5-0.4,0.9-0.7,1.3c-0.3,0.4-0.6,0.7-0.9,1c-0.3,0.3-0.7,0.4-1,0.4c-0.4,0-0.6-0.1-0.8-0.4c-0.2-0.3-0.3-0.7-0.3-1.2
		c0-0.4,0.1-0.8,0.2-1.3c0.2-0.5,0.4-0.9,0.6-1.3c0.3-0.4,0.6-0.7,0.9-1C143.5,90.6,143.8,90.5,144.2,90.5z M142.9,95.4
		c0.2,0,0.4-0.1,0.6-0.2c0.2-0.2,0.4-0.4,0.6-0.6c0.2-0.3,0.3-0.5,0.4-0.9c0.1-0.3,0.1-0.7,0.1-1c0-0.4-0.1-0.8-0.2-1
		c-0.1-0.3-0.4-0.4-0.7-0.4c-0.2,0-0.4,0.1-0.6,0.2c-0.2,0.2-0.4,0.4-0.5,0.6c-0.2,0.3-0.3,0.6-0.4,0.9c-0.1,0.3-0.1,0.7-0.1,1.1
		C142,94.9,142.3,95.4,142.9,95.4z"/>
	<linearGradient id="SVGID_20_" gradientUnits="userSpaceOnUse" x1="150.3317" y1="96.0845" x2="150.3317" y2="90.4888">
		<stop  offset="0" style="stop-color:#F6921E"/>
		<stop  offset="7.672918e-002" style="stop-color:#D68120"/>
		<stop  offset="0.1681" style="stop-color:#B87123"/>
		<stop  offset="0.2693" style="stop-color:#A06325"/>
		<stop  offset="0.3824" style="stop-color:#8D5926"/>
		<stop  offset="0.5139" style="stop-color:#7F5127"/>
		<stop  offset="0.6807" style="stop-color:#774D28"/>
		<stop  offset="1" style="stop-color:#754C28"/>
	</linearGradient>
	<path fill="url(#SVGID_20_)" d="M153.4,91.5c0-0.3-0.1-0.5-0.3-0.5c-0.2,0-0.5,0.1-0.7,0.3c-0.3,0.2-0.5,0.5-0.8,0.9
		c-0.3,0.4-0.6,0.9-0.9,1.5c-0.3,0.6-0.6,1.3-0.8,2c0,0.1-0.1,0.2-0.2,0.2c-0.1,0-0.2,0.1-0.4,0.1c-0.2,0-0.2-0.1-0.2-0.2
		c0.1-0.3,0.2-0.6,0.4-1c0.2-0.4,0.3-0.8,0.4-1.2c0.1-0.4,0.3-0.8,0.4-1.2c0.1-0.4,0.2-0.7,0.2-0.9c0-0.4-0.1-0.6-0.4-0.6
		c-0.4,0-0.9,0.4-1.4,1.2c-0.6,0.8-1.1,2-1.7,3.5c0,0.1-0.1,0.2-0.2,0.2c-0.1,0-0.2,0.1-0.3,0.1c-0.1,0-0.1,0-0.2,0
		c0,0-0.1-0.1,0-0.2c0.1-0.3,0.2-0.7,0.4-1.1c0.1-0.4,0.3-0.8,0.4-1.2c0.1-0.4,0.3-0.8,0.4-1.2c0.1-0.4,0.2-0.7,0.3-1.1
		c0.1-0.3,0-0.4-0.1-0.4c-0.1,0-0.3,0.1-0.4,0.2c-0.2,0.2-0.3,0.4-0.5,0.6c0,0-0.1,0-0.1,0c0,0-0.1-0.1,0-0.1
		c0.2-0.3,0.5-0.6,0.7-0.8c0.3-0.3,0.5-0.4,0.8-0.4c0.2,0,0.3,0.1,0.4,0.2c0.1,0.1,0.1,0.3,0,0.5c-0.1,0.3-0.1,0.6-0.2,0.9
		c-0.1,0.3-0.1,0.5-0.3,0.8c0.4-0.7,0.8-1.3,1.3-1.8c0.5-0.5,0.9-0.7,1.4-0.7c0.2,0,0.3,0.1,0.4,0.2c0.1,0.1,0.2,0.3,0.2,0.5
		c0,0.3,0,0.6-0.1,0.9c-0.1,0.3-0.1,0.6-0.3,0.9c0.4-0.8,0.9-1.5,1.4-1.9c0.5-0.5,1-0.7,1.5-0.7c0.2,0,0.3,0.1,0.4,0.2
		c0.1,0.1,0.2,0.3,0.2,0.5c0,0.3-0.1,0.5-0.2,0.9c-0.1,0.3-0.2,0.6-0.4,1c-0.1,0.3-0.3,0.7-0.4,1c-0.1,0.3-0.2,0.6-0.2,0.9
		c0,0.4,0.1,0.5,0.3,0.5c0.2,0,0.6-0.2,1-0.7c0,0,0.1,0,0.1,0c0,0,0,0.1,0,0.2c-0.1,0.1-0.2,0.2-0.3,0.4c-0.1,0.1-0.3,0.3-0.4,0.4
		c-0.1,0.1-0.3,0.2-0.4,0.3c-0.2,0.1-0.3,0.1-0.5,0.1c-0.3,0-0.5-0.3-0.5-0.8c0-0.3,0.1-0.7,0.2-1.1c0.1-0.4,0.2-0.7,0.3-1
		c0.1-0.3,0.2-0.6,0.3-0.9C153.3,91.9,153.4,91.7,153.4,91.5z"/>
	<linearGradient id="SVGID_21_" gradientUnits="userSpaceOnUse" x1="157.183" y1="96.0845" x2="157.183" y2="90.4888">
		<stop  offset="0" style="stop-color:#F6921E"/>
		<stop  offset="7.672918e-002" style="stop-color:#D68120"/>
		<stop  offset="0.1681" style="stop-color:#B87123"/>
		<stop  offset="0.2693" style="stop-color:#A06325"/>
		<stop  offset="0.3824" style="stop-color:#8D5926"/>
		<stop  offset="0.5139" style="stop-color:#7F5127"/>
		<stop  offset="0.6807" style="stop-color:#774D28"/>
		<stop  offset="1" style="stop-color:#754C28"/>
	</linearGradient>
	<path fill="url(#SVGID_21_)" d="M159.1,91.4c0,0.2-0.1,0.4-0.2,0.6c-0.2,0.2-0.4,0.3-0.7,0.5c-0.3,0.1-0.6,0.3-1,0.4
		c-0.4,0.1-0.7,0.2-1.1,0.3c0,0.2,0,0.3,0,0.5c0,0.2,0,0.3,0,0.5c0,0.4,0.1,0.7,0.2,0.9c0.2,0.2,0.4,0.4,0.7,0.4
		c0.3,0,0.6-0.1,0.8-0.2c0.3-0.1,0.5-0.3,0.7-0.6c0.1,0,0.1,0,0.1,0c0,0,0,0.1,0,0.2c-0.2,0.3-0.6,0.6-0.9,0.9
		c-0.4,0.2-0.8,0.4-1.2,0.4c-0.4,0-0.7-0.1-0.9-0.4c-0.2-0.2-0.4-0.6-0.4-1.1c0-0.4,0.1-0.9,0.2-1.4c0.2-0.5,0.4-0.9,0.6-1.3
		c0.3-0.4,0.6-0.7,0.9-1c0.3-0.3,0.7-0.4,1.1-0.4c0.3,0,0.5,0.1,0.7,0.3C159,91,159.1,91.2,159.1,91.4z M157.7,91.1
		c-0.3,0-0.6,0.1-0.9,0.4c-0.3,0.3-0.5,0.8-0.6,1.4c0.7-0.1,1.2-0.2,1.5-0.4c0.3-0.2,0.5-0.4,0.5-0.7c0-0.2-0.1-0.4-0.2-0.5
		C158,91.1,157.8,91.1,157.7,91.1z"/>
	<linearGradient id="SVGID_22_" gradientUnits="userSpaceOnUse" x1="162.5124" y1="96.0845" x2="162.5124" y2="90.4888">
		<stop  offset="0" style="stop-color:#F6921E"/>
		<stop  offset="7.672918e-002" style="stop-color:#D68120"/>
		<stop  offset="0.1681" style="stop-color:#B87123"/>
		<stop  offset="0.2693" style="stop-color:#A06325"/>
		<stop  offset="0.3824" style="stop-color:#8D5926"/>
		<stop  offset="0.5139" style="stop-color:#7F5127"/>
		<stop  offset="0.6807" style="stop-color:#774D28"/>
		<stop  offset="1" style="stop-color:#754C28"/>
	</linearGradient>
	<path fill="url(#SVGID_22_)" d="M165.3,94.7c0,0,0.1,0,0.1,0c0,0,0.1,0.1,0,0.1c-0.3,0.3-0.5,0.6-0.8,0.9c-0.3,0.3-0.6,0.4-0.8,0.4
		c-0.5,0-0.7-0.3-0.7-0.9c0-0.5,0.1-1,0.3-1.7c0.2-0.6,0.4-1.2,0.7-1.8c0.1-0.1,0.1-0.2,0.1-0.3c0-0.2-0.1-0.2-0.2-0.2
		c-0.5,0-1.1,0.4-1.8,1.1c-0.6,0.7-1.2,1.9-1.8,3.5c0,0.1-0.1,0.2-0.2,0.2c-0.1,0-0.3,0.1-0.4,0.1c-0.2,0-0.2-0.1-0.2-0.2
		c0.2-0.6,0.5-1.3,0.8-2.1c0.3-0.8,0.5-1.6,0.7-2.3c0.1-0.3,0-0.4-0.2-0.4c-0.1,0-0.3,0.1-0.4,0.2c-0.1,0.1-0.3,0.3-0.5,0.6
		c0,0-0.1,0-0.1,0c0,0,0-0.1,0-0.1c0.2-0.3,0.4-0.5,0.7-0.8c0.3-0.3,0.6-0.4,0.9-0.4c0.4,0,0.5,0.2,0.4,0.7c-0.1,0.3-0.1,0.7-0.2,1
		c-0.1,0.4-0.2,0.7-0.3,1.1c0.2-0.4,0.4-0.8,0.7-1.1c0.3-0.3,0.6-0.6,0.9-0.9c0.3-0.2,0.6-0.4,0.9-0.6c0.3-0.1,0.6-0.2,0.8-0.2
		c0.2,0,0.3,0,0.4,0.1c0.1,0.1,0.1,0.2,0.1,0.3c0,0.2,0,0.4-0.1,0.6c-0.3,0.6-0.6,1.1-0.8,1.7c-0.2,0.6-0.3,1.2-0.3,1.7
		c0,0.4,0.1,0.5,0.3,0.5C164.5,95.4,164.9,95.2,165.3,94.7z"/>
	<linearGradient id="SVGID_23_" gradientUnits="userSpaceOnUse" x1="168.2094" y1="96.0845" x2="168.2094" y2="87.8078">
		<stop  offset="0" style="stop-color:#F6921E"/>
		<stop  offset="7.672918e-002" style="stop-color:#D68120"/>
		<stop  offset="0.1681" style="stop-color:#B87123"/>
		<stop  offset="0.2693" style="stop-color:#A06325"/>
		<stop  offset="0.3824" style="stop-color:#8D5926"/>
		<stop  offset="0.5139" style="stop-color:#7F5127"/>
		<stop  offset="0.6807" style="stop-color:#774D28"/>
		<stop  offset="1" style="stop-color:#754C28"/>
	</linearGradient>
	<path fill="url(#SVGID_23_)" d="M170,90.6c0.1,0,0.1,0.1,0.1,0.1c0,0.1-0.1,0.1-0.2,0.1c-0.2,0-0.5,0-0.8,0c-0.3,0-0.6,0-0.9,0.1
		c-0.3,0.7-0.5,1.4-0.7,2.1c-0.2,0.7-0.3,1.2-0.3,1.7c0,0.5,0.2,0.7,0.6,0.7c0.4,0,0.8-0.3,1.2-1c0,0,0.1,0,0.1,0c0,0,0.1,0.1,0,0.2
		c-0.1,0.2-0.3,0.4-0.4,0.6c-0.2,0.2-0.3,0.3-0.5,0.5c-0.2,0.1-0.3,0.2-0.5,0.3c-0.2,0.1-0.3,0.1-0.4,0.1c-0.3,0-0.6-0.1-0.7-0.3
		c-0.2-0.2-0.2-0.4-0.2-0.7c0-0.5,0.1-1.1,0.3-1.8c0.2-0.7,0.5-1.5,0.8-2.3c-0.2,0-0.4,0.1-0.5,0.1c-0.2,0-0.3,0.1-0.5,0.1
		c-0.1,0-0.1-0.1-0.1-0.1c0-0.1,0.1-0.1,0.2-0.2c0.1-0.1,0.2-0.1,0.3-0.2c0.1-0.1,0.3-0.1,0.4-0.1c0.1,0,0.1,0,0.2,0
		c0.1,0,0.1,0,0.2,0c0.2-0.5,0.4-0.9,0.6-1.3c0.2-0.4,0.4-0.8,0.6-1.1c0.1-0.1,0.2-0.2,0.3-0.2c0.1-0.1,0.2-0.1,0.3-0.1
		c0.1,0,0.2,0,0.2,0c0.1,0,0.1,0,0.1,0.1c-0.2,0.4-0.5,0.8-0.7,1.3c-0.2,0.5-0.5,0.9-0.7,1.4c0.3,0,0.5,0,0.8,0
		C169.4,90.6,169.7,90.6,170,90.6z"/>
	<linearGradient id="SVGID_24_" gradientUnits="userSpaceOnUse" x1="171.183" y1="96.0845" x2="171.183" y2="90.4888">
		<stop  offset="0" style="stop-color:#F6921E"/>
		<stop  offset="7.672918e-002" style="stop-color:#D68120"/>
		<stop  offset="0.1681" style="stop-color:#B87123"/>
		<stop  offset="0.2693" style="stop-color:#A06325"/>
		<stop  offset="0.3824" style="stop-color:#8D5926"/>
		<stop  offset="0.5139" style="stop-color:#7F5127"/>
		<stop  offset="0.6807" style="stop-color:#774D28"/>
		<stop  offset="1" style="stop-color:#754C28"/>
	</linearGradient>
	<path fill="url(#SVGID_24_)" d="M172.2,90.5c0.3,0,0.5,0,0.7,0.1c0.2,0.1,0.3,0.2,0.3,0.3c0,0.2,0,0.3-0.1,0.5
		c-0.1,0.2-0.1,0.4-0.2,0.5c0,0-0.1,0-0.1,0c-0.1,0-0.1-0.1-0.1-0.1c0-0.1,0.1-0.2,0.1-0.3c0-0.1,0-0.2,0-0.3
		c-0.1-0.3-0.3-0.4-0.6-0.4c-0.2,0-0.4,0.1-0.6,0.2c-0.2,0.1-0.2,0.4-0.2,0.7c0,0.2,0.1,0.5,0.2,0.7c0.1,0.2,0.3,0.4,0.4,0.6
		c0.2,0.2,0.3,0.4,0.4,0.7c0.1,0.2,0.2,0.5,0.2,0.8c0,0.5-0.2,0.9-0.5,1.2c-0.3,0.3-0.8,0.5-1.5,0.5c-0.5,0-0.8-0.1-1.1-0.2
		c-0.3-0.2-0.4-0.3-0.4-0.5c0-0.1,0.1-0.3,0.2-0.6c0.2-0.3,0.3-0.5,0.5-0.6c0,0,0.1,0,0.1,0c0,0,0,0.1,0,0.1
		c-0.1,0.1-0.2,0.3-0.3,0.4c-0.1,0.2-0.1,0.3,0,0.4c0,0.2,0.2,0.4,0.3,0.6c0.2,0.1,0.4,0.2,0.6,0.2c0.4,0,0.7-0.1,0.9-0.3
		c0.2-0.2,0.3-0.5,0.3-0.8c0-0.3-0.1-0.5-0.2-0.8c-0.1-0.2-0.3-0.5-0.4-0.7c-0.2-0.2-0.3-0.5-0.4-0.7c-0.1-0.2-0.2-0.5-0.2-0.7
		c0-0.4,0.1-0.7,0.4-1C171.4,90.6,171.8,90.5,172.2,90.5z"/>
	<linearGradient id="SVGID_25_" gradientUnits="userSpaceOnUse" x1="179.2699" y1="96.0845" x2="179.2699" y2="90.4888">
		<stop  offset="0" style="stop-color:#F6921E"/>
		<stop  offset="7.672918e-002" style="stop-color:#D68120"/>
		<stop  offset="0.1681" style="stop-color:#B87123"/>
		<stop  offset="0.2693" style="stop-color:#A06325"/>
		<stop  offset="0.3824" style="stop-color:#8D5926"/>
		<stop  offset="0.5139" style="stop-color:#7F5127"/>
		<stop  offset="0.6807" style="stop-color:#774D28"/>
		<stop  offset="1" style="stop-color:#754C28"/>
	</linearGradient>
	<path fill="url(#SVGID_25_)" d="M180.1,90.5c0.4,0,0.7,0.1,0.9,0.4c0.2,0.3,0.3,0.6,0.3,1c0,0.5-0.1,1-0.3,1.5
		c-0.2,0.5-0.4,0.9-0.7,1.3c-0.3,0.4-0.6,0.7-1,1c-0.3,0.3-0.7,0.4-1,0.4c-0.3,0-0.6-0.1-0.8-0.4c-0.2-0.3-0.3-0.7-0.3-1.2
		c0-0.4,0.1-0.8,0.2-1.3c0.2-0.5,0.4-0.9,0.6-1.3c0.3-0.4,0.6-0.7,0.9-1C179.4,90.6,179.8,90.5,180.1,90.5z M178.8,95.4
		c0.2,0,0.4-0.1,0.6-0.2c0.2-0.2,0.4-0.4,0.6-0.6c0.2-0.3,0.3-0.5,0.4-0.9c0.1-0.3,0.1-0.7,0.1-1c0-0.4-0.1-0.8-0.2-1
		c-0.1-0.3-0.4-0.4-0.7-0.4c-0.2,0-0.4,0.1-0.6,0.2c-0.2,0.2-0.4,0.4-0.5,0.6c-0.2,0.3-0.3,0.6-0.4,0.9c-0.1,0.3-0.1,0.7-0.1,1.1
		C177.9,94.9,178.2,95.4,178.8,95.4z"/>
	<linearGradient id="SVGID_26_" gradientUnits="userSpaceOnUse" x1="184.0365" y1="101.397" x2="184.0365" y2="80.1958">
		<stop  offset="0" style="stop-color:#F6921E"/>
		<stop  offset="7.672918e-002" style="stop-color:#D68120"/>
		<stop  offset="0.1681" style="stop-color:#B87123"/>
		<stop  offset="0.2693" style="stop-color:#A06325"/>
		<stop  offset="0.3824" style="stop-color:#8D5926"/>
		<stop  offset="0.5139" style="stop-color:#7F5127"/>
		<stop  offset="0.6807" style="stop-color:#774D28"/>
		<stop  offset="1" style="stop-color:#754C28"/>
	</linearGradient>
	<path fill="url(#SVGID_26_)" d="M191.7,80.2c0.3,0,0.5,0.1,0.7,0.2c0.2,0.1,0.3,0.3,0.4,0.5c0.1,0.2,0.1,0.4,0.1,0.6
		c0,0.2-0.1,0.5-0.2,0.7c0,0-0.1,0.1-0.1,0c0,0-0.1,0-0.1-0.1c0-0.3-0.2-0.5-0.4-0.8c-0.2-0.2-0.6-0.3-1.1-0.3
		c-0.6,0-1.1,0.1-1.6,0.4c-0.5,0.3-1,0.8-1.5,1.5c-0.5,0.7-1,1.7-1.6,3c-0.5,1.2-1.1,2.8-1.7,4.7c0.3,0,0.7,0,1.1,0
		c0.4,0,0.8,0,1.1,0c0.1,0,0.1,0.1,0.1,0.1c0,0-0.1,0.1-0.2,0.1c-0.4,0-0.7,0-1.1,0c-0.4,0-0.7,0-1.1,0.1c0,0.2-0.1,0.3-0.2,0.4
		c-0.6,1.9-1.2,3.5-1.8,4.8c-0.6,1.3-1.3,2.3-1.9,3.1c-0.7,0.8-1.3,1.3-2,1.7c-0.7,0.3-1.4,0.5-2.1,0.5c-0.5,0-0.8-0.1-1.1-0.3
		c-0.2-0.2-0.3-0.5-0.3-0.8c0-0.1,0-0.3,0.1-0.4c0.1-0.2,0.1-0.3,0.2-0.4c0,0,0.1-0.1,0.1,0c0,0,0.1,0.1,0.1,0.1
		c-0.1,0.1-0.1,0.2-0.1,0.4c0,0.2,0.1,0.3,0.2,0.4c0.1,0.1,0.3,0.3,0.5,0.4c0.2,0.1,0.5,0.1,0.8,0.1c0.3,0,0.7,0,1-0.1
		c0.3-0.1,0.7-0.3,1-0.5c0.3-0.2,0.7-0.6,1-1c0.3-0.4,0.7-1,1.1-1.7c0.4-0.7,0.7-1.6,1.1-2.6c0.4-1,0.8-2.2,1.2-3.6
		c0-0.1,0-0.1,0.1-0.2c0-0.1,0-0.1,0.1-0.2c-0.2,0-0.5,0.1-0.7,0.1c-0.2,0-0.5,0.1-0.7,0.1c-0.1,0-0.1-0.1-0.1-0.1
		c0-0.1,0.1-0.1,0.2-0.2c0.1-0.1,0.2-0.1,0.3-0.2c0.1-0.1,0.3-0.1,0.4-0.1c0.1,0,0.2,0,0.4,0c0.1,0,0.3,0,0.4,0
		c0.5-1.6,1.1-3,1.7-4.3c0.6-1.3,1.2-2.4,1.9-3.3c0.7-0.9,1.4-1.6,2.1-2.1C190.2,80.4,190.9,80.2,191.7,80.2z"/>
	<linearGradient id="SVGID_27_" gradientUnits="userSpaceOnUse" x1="193.7535" y1="96.0845" x2="193.7535" y2="79.8433">
		<stop  offset="0" style="stop-color:#F6921E"/>
		<stop  offset="7.672918e-002" style="stop-color:#D68120"/>
		<stop  offset="0.1681" style="stop-color:#B87123"/>
		<stop  offset="0.2693" style="stop-color:#A06325"/>
		<stop  offset="0.3824" style="stop-color:#8D5926"/>
		<stop  offset="0.5139" style="stop-color:#7F5127"/>
		<stop  offset="0.6807" style="stop-color:#774D28"/>
		<stop  offset="1" style="stop-color:#754C28"/>
	</linearGradient>
	<path fill="url(#SVGID_27_)" d="M197.9,79.8c0.4,0,0.6,0.2,0.7,0.5c0.1,0.3,0.1,0.7-0.1,1.1c0,0-0.1,0-0.1,0c0,0-0.1-0.1-0.1-0.1
		c0-0.2,0-0.3-0.2-0.4c-0.2-0.1-0.4-0.2-0.7-0.2c-0.6,0-1.2,0.3-1.9,0.8c-0.6,0.5-1.2,1.2-1.8,2c-0.6,0.8-1.1,1.8-1.6,2.8
		c-0.5,1-0.9,2.1-1.3,3.1c-0.4,1-0.6,2-0.8,2.9c-0.2,0.9-0.3,1.7-0.3,2.2c0,0.4,0.1,0.7,0.4,0.7c0.2,0,0.3-0.1,0.5-0.2
		c0.2-0.1,0.4-0.4,0.6-0.7c0,0,0.1,0,0.1,0c0,0,0,0.1,0,0.1c-0.3,0.5-0.6,0.8-1,1.1c-0.4,0.3-0.6,0.4-0.9,0.4
		c-0.2,0-0.3-0.1-0.5-0.2c-0.1-0.2-0.2-0.4-0.2-0.6c0-0.4,0.1-0.9,0.2-1.6c0.1-0.6,0.3-1.4,0.6-2.2c0.3-0.8,0.6-1.6,1-2.5
		c0.4-0.9,0.8-1.8,1.2-2.6c0.4-0.9,0.9-1.7,1.4-2.5c0.5-0.8,1-1.5,1.5-2.1c0.5-0.6,1-1.1,1.6-1.4C196.8,80,197.4,79.8,197.9,79.8z"
		/>
	<linearGradient id="SVGID_28_" gradientUnits="userSpaceOnUse" x1="193.8593" y1="96.0845" x2="193.8593" y2="87.2705">
		<stop  offset="0" style="stop-color:#F6921E"/>
		<stop  offset="7.672918e-002" style="stop-color:#D68120"/>
		<stop  offset="0.1681" style="stop-color:#B87123"/>
		<stop  offset="0.2693" style="stop-color:#A06325"/>
		<stop  offset="0.3824" style="stop-color:#8D5926"/>
		<stop  offset="0.5139" style="stop-color:#7F5127"/>
		<stop  offset="0.6807" style="stop-color:#774D28"/>
		<stop  offset="1" style="stop-color:#754C28"/>
	</linearGradient>
	<path fill="url(#SVGID_28_)" d="M192.3,92c0,0-0.1,0-0.1,0c0,0,0-0.1,0-0.1c0.2-0.2,0.5-0.4,0.8-0.7c0.3-0.3,0.7-0.5,1-0.7
		c0.1,0,0.2,0.1,0.2,0.2c-0.2,0.3-0.4,0.7-0.6,1.1c-0.2,0.4-0.3,0.8-0.5,1.2c-0.1,0.4-0.3,0.8-0.3,1.1c-0.1,0.4-0.1,0.7-0.1,0.9
		c0,0.3,0.1,0.5,0.3,0.5c0.2,0,0.3-0.1,0.5-0.2c0.2-0.1,0.3-0.3,0.5-0.6c0,0,0.1,0,0.1,0c0,0,0,0.1,0,0.2c-0.3,0.3-0.5,0.6-0.8,0.9
		c-0.3,0.3-0.6,0.4-0.8,0.4c-0.4,0-0.6-0.2-0.6-0.7c0-0.3,0-0.6,0.1-1c0.1-0.4,0.2-0.8,0.4-1.2c0.1-0.4,0.3-0.8,0.5-1.1
		c0.2-0.4,0.4-0.7,0.5-0.9c-0.2,0.1-0.4,0.3-0.6,0.4C192.6,91.8,192.4,91.9,192.3,92z M194.2,89.6c0,0-0.1,0-0.1,0
		c0,0-0.1-0.1-0.1-0.2c0-0.1,0-0.1,0-0.2c0-0.1,0-0.2,0.1-0.2c0.4-0.5,0.9-1.1,1.6-1.7c0,0,0.1,0,0.1,0c0,0,0.1,0.1,0,0.1
		c-0.3,0.3-0.6,0.6-0.9,1C194.7,88.8,194.4,89.2,194.2,89.6z"/>
	<linearGradient id="SVGID_29_" gradientUnits="userSpaceOnUse" x1="196.9115" y1="101.397" x2="196.9115" y2="80.1958">
		<stop  offset="0" style="stop-color:#F6921E"/>
		<stop  offset="7.672918e-002" style="stop-color:#D68120"/>
		<stop  offset="0.1681" style="stop-color:#B87123"/>
		<stop  offset="0.2693" style="stop-color:#A06325"/>
		<stop  offset="0.3824" style="stop-color:#8D5926"/>
		<stop  offset="0.5139" style="stop-color:#7F5127"/>
		<stop  offset="0.6807" style="stop-color:#774D28"/>
		<stop  offset="1" style="stop-color:#754C28"/>
	</linearGradient>
	<path fill="url(#SVGID_29_)" d="M204.5,80.2c0.3,0,0.5,0.1,0.7,0.2c0.2,0.1,0.3,0.3,0.4,0.5c0.1,0.2,0.1,0.4,0.1,0.6
		c0,0.2,0,0.5-0.2,0.7c0,0-0.1,0.1-0.1,0c0,0-0.1,0-0.1-0.1c0-0.3-0.2-0.5-0.4-0.8c-0.2-0.2-0.6-0.3-1.1-0.3c-0.6,0-1.1,0.1-1.6,0.4
		c-0.5,0.3-1,0.8-1.5,1.5c-0.5,0.7-1,1.7-1.6,3c-0.5,1.2-1.1,2.8-1.7,4.7c0.3,0,0.7,0,1.1,0c0.4,0,0.8,0,1.1,0
		c0.1,0,0.1,0.1,0.1,0.1c0,0-0.1,0.1-0.2,0.1c-0.4,0-0.7,0-1.1,0c-0.4,0-0.7,0-1.1,0.1c0,0.2-0.1,0.3-0.2,0.4
		c-0.6,1.9-1.2,3.5-1.8,4.8c-0.6,1.3-1.3,2.3-1.9,3.1c-0.7,0.8-1.3,1.3-2,1.7c-0.7,0.3-1.4,0.5-2.1,0.5c-0.5,0-0.8-0.1-1.1-0.3
		c-0.2-0.2-0.3-0.5-0.3-0.8c0-0.1,0-0.3,0.1-0.4c0.1-0.2,0.1-0.3,0.2-0.4c0,0,0.1-0.1,0.1,0c0,0,0.1,0.1,0.1,0.1
		c-0.1,0.1-0.1,0.2-0.1,0.4c0,0.2,0.1,0.3,0.2,0.4c0.1,0.1,0.3,0.3,0.5,0.4c0.2,0.1,0.5,0.1,0.8,0.1c0.3,0,0.7,0,1-0.1
		c0.3-0.1,0.7-0.3,1-0.5c0.3-0.2,0.7-0.6,1-1c0.3-0.4,0.7-1,1.1-1.7c0.4-0.7,0.7-1.6,1.1-2.6c0.4-1,0.8-2.2,1.2-3.6
		c0-0.1,0-0.1,0.1-0.2c0-0.1,0-0.1,0.1-0.2c-0.2,0-0.5,0.1-0.7,0.1c-0.2,0-0.5,0.1-0.7,0.1c-0.1,0-0.1-0.1-0.1-0.1
		c0-0.1,0.1-0.1,0.2-0.2c0.1-0.1,0.2-0.1,0.3-0.2c0.1-0.1,0.3-0.1,0.4-0.1c0.1,0,0.2,0,0.4,0c0.1,0,0.3,0,0.4,0
		c0.5-1.6,1.1-3,1.7-4.3c0.6-1.3,1.2-2.4,1.9-3.3c0.7-0.9,1.4-1.6,2.1-2.1C203.1,80.4,203.8,80.2,204.5,80.2z"/>
	<linearGradient id="SVGID_30_" gradientUnits="userSpaceOnUse" x1="200.3754" y1="96.0845" x2="200.3754" y2="90.4888">
		<stop  offset="0" style="stop-color:#F6921E"/>
		<stop  offset="7.672918e-002" style="stop-color:#D68120"/>
		<stop  offset="0.1681" style="stop-color:#B87123"/>
		<stop  offset="0.2693" style="stop-color:#A06325"/>
		<stop  offset="0.3824" style="stop-color:#8D5926"/>
		<stop  offset="0.5139" style="stop-color:#7F5127"/>
		<stop  offset="0.6807" style="stop-color:#774D28"/>
		<stop  offset="1" style="stop-color:#754C28"/>
	</linearGradient>
	<path fill="url(#SVGID_30_)" d="M202.3,91.4c0,0.2-0.1,0.4-0.2,0.6c-0.2,0.2-0.4,0.3-0.7,0.5c-0.3,0.1-0.6,0.3-1,0.4
		c-0.4,0.1-0.7,0.2-1.1,0.3c0,0.2,0,0.3,0,0.5c0,0.2,0,0.3,0,0.5c0,0.4,0.1,0.7,0.2,0.9c0.2,0.2,0.4,0.4,0.7,0.4
		c0.3,0,0.6-0.1,0.8-0.2c0.3-0.1,0.5-0.3,0.7-0.6c0.1,0,0.1,0,0.1,0c0,0,0,0.1,0,0.2c-0.2,0.3-0.6,0.6-0.9,0.9
		c-0.4,0.2-0.8,0.4-1.2,0.4c-0.4,0-0.7-0.1-0.9-0.4c-0.2-0.2-0.4-0.6-0.4-1.1c0-0.4,0.1-0.9,0.2-1.4c0.2-0.5,0.4-0.9,0.6-1.3
		c0.3-0.4,0.6-0.7,0.9-1c0.3-0.3,0.7-0.4,1.1-0.4c0.3,0,0.5,0.1,0.7,0.3C202.2,91,202.3,91.2,202.3,91.4z M200.9,91.1
		c-0.3,0-0.6,0.1-0.9,0.4c-0.3,0.3-0.5,0.8-0.6,1.4c0.7-0.1,1.2-0.2,1.5-0.4c0.3-0.2,0.5-0.4,0.5-0.7c0-0.2-0.1-0.4-0.2-0.5
		C201.2,91.1,201,91.1,200.9,91.1z"/>
</g>
<linearGradient id="SVGID_31_" gradientUnits="userSpaceOnUse" x1="-85.9888" y1="100.481" x2="-85.9888" y2="47.6627" gradientTransform="matrix(-1 0 0 1 137.9446 0)">
	<stop  offset="0" style="stop-color:#F6921E"/>
	<stop  offset="0.4588" style="stop-color:#B46E23"/>
	<stop  offset="0.8192" style="stop-color:#865527"/>
	<stop  offset="1" style="stop-color:#754C28"/>
</linearGradient>
<path fill="url(#SVGID_31_)" d="M233.8,49.1c0,0-0.1,1.1,0,0.2c0,0.4,0,0.1,0,0.9c-0.1,1.6-0.2,4-0.5,6.8c-0.3,2.8-0.7,6.1-1.4,9.5
	c-0.3,1.7-0.7,3.5-1.2,5.3c-0.2,0.9-0.5,1.8-0.7,2.7c-0.3,0.9-0.5,1.8-0.8,2.7c-0.3,0.9-0.6,1.8-0.9,2.6c-0.2,0.4-0.3,0.9-0.5,1.3
	c-0.2,0.4-0.4,0.9-0.5,1.3c-0.7,1.7-1.5,3.3-2.4,4.9c-0.4,0.8-0.9,1.5-1.3,2.2c-0.5,0.7-1,1.4-1.4,2c-0.5,0.6-1,1.2-1.5,1.8
	c-0.5,0.6-1,1.1-1.5,1.6c-0.5,0.5-1,1-1.5,1.4c-0.5,0.4-1,0.8-1.4,1.2c-0.2,0.2-0.4,0.4-0.6,0.5c-0.2,0.2-0.4,0.3-0.6,0.4
	c-0.4,0.3-0.8,0.5-1.1,0.8c-0.7,0.4-1.3,0.7-1.7,0.9c-0.4,0.2-0.6,0.3-0.6,0.3s0.2-0.1,0.6-0.3c0.4-0.2,1-0.5,1.7-0.9
	c0.4-0.2,0.7-0.5,1.2-0.7c0.2-0.1,0.4-0.3,0.7-0.4c0.2-0.2,0.4-0.3,0.7-0.5c0.5-0.4,1-0.7,1.5-1.1c0.5-0.4,1-0.9,1.5-1.4
	c0.5-0.5,1-1,1.6-1.6c0.5-0.6,1-1.2,1.6-1.8c0.5-0.7,1-1.3,1.5-2c0.5-0.7,1-1.4,1.5-2.2c0.9-1.5,1.8-3.1,2.7-4.8
	c0.2-0.4,0.4-0.8,0.6-1.3c0.2-0.4,0.4-0.9,0.6-1.3c0.4-0.9,0.7-1.8,1.1-2.6c0.4-0.9,0.6-1.8,1-2.7c0.3-0.9,0.6-1.8,0.9-2.7
	c0.5-1.8,1-3.6,1.4-5.3c0.8-3.5,1.4-6.8,1.8-9.6c0.4-2.8,0.7-5.2,0.8-6.9c0.1-0.8,0.1-1.5,0.1-1.9c0-0.5,0-0.7,0-0.7L233.8,49.1z"/>
</svg>
