<?xml version="1.0" encoding="utf-8"?>
<!-- Generator: Adobe Illustrator 18.0.0, SVG Export Plug-In . SVG Version: 6.00 Build 0)  -->
<!DOCTYPE svg PUBLIC "-//W3C//DTD SVG 1.1//EN" "http://www.w3.org/Graphics/SVG/1.1/DTD/svg11.dtd">
<svg version="1.1" id="Layer_1" xmlns="http://www.w3.org/2000/svg" xmlns:xlink="http://www.w3.org/1999/xlink" x="0px" y="0px"
	 viewBox="0 0 841.9 595.3" enable-background="new 0 0 841.9 595.3" xml:space="preserve">
<g id="Layer_4">
</g>
<g id="Layer_3">
</g>
<g id="Layer_1_1_">
	
		<linearGradient id="SVGID_1_" gradientUnits="userSpaceOnUse" x1="93.4" y1="535.08" x2="93.4" y2="535.08" gradientTransform="matrix(3.1331 0 0 -3.1331 40.2791 1865.0438)">
		<stop  offset="0" style="stop-color:#F7941E"/>
		<stop  offset="0.3414" style="stop-color:#BD7428"/>
		<stop  offset="0.7791" style="stop-color:#87572A"/>
		<stop  offset="1" style="stop-color:#754C29"/>
	</linearGradient>
	<path fill="url(#SVGID_1_)" d="M332.9,188.6"/>
	
		<linearGradient id="SVGID_2_" gradientUnits="userSpaceOnUse" x1="201.2" y1="552.48" x2="201.2" y2="552.48" gradientTransform="matrix(3.1331 0 0 -3.1331 40.2791 1865.0438)">
		<stop  offset="0" style="stop-color:#F7941E"/>
		<stop  offset="0.3414" style="stop-color:#BD7428"/>
		<stop  offset="0.7791" style="stop-color:#87572A"/>
		<stop  offset="1" style="stop-color:#754C29"/>
	</linearGradient>
	<path fill="url(#SVGID_2_)" d="M670.6,134.1"/>
	<path fill="#FFFFFF" stroke="#FFFFFF" stroke-miterlimit="10" d="M672.2,292.6c0,0,0,0-0.3,1.3c-0.3,8.5-1.3,20.4-2.8,34.5
		c-2.8,28.5-9.1,66.4-20.1,103.4c-2.8,9.1-5.6,18.5-9.1,27.3c-3.1,8.8-6.9,17.5-11,25.7c-7.8,16.6-16.9,31.3-26,42.9
		c-4.7,6-9.1,11.3-13.5,15.4c-4.1,4.4-8.5,7.8-11.6,11c-3.4,2.8-6.3,5-8.1,6.3c-1.9,1.6-34.2,17.9-34.2,17.9s32.3-16.3,34.2-17.5
		c1.9-1.6,5-3.1,8.5-6c3.4-2.8,7.8-6.3,12.2-10.3c4.7-4.1,9.4-9.4,14.4-15c9.7-11.6,19.7-26,28.5-42.3c4.4-8.1,8.8-16.9,12.5-25.7
		c4.1-8.8,7.5-18.2,11-27.3c13.2-37,21.3-75.2,26-104c2.2-14.4,3.8-26.6,4.7-35.1s1.3-13.5,1.3-13.5L672.2,292.6z"/>
	<path fill="#FFFFFF" stroke="#FFFFFF" stroke-miterlimit="10" d="M670,282.9c-7.8,3.4-16.3,6-24.4,8.1c-8.5,2.2-16.6,4.1-25.1,5.3
		c-8.5,1.6-16.9,3.1-25.4,4.1c-8.5,0.9-16.9,2.5-25.7,3.1l-25.7,2.2c-8.5,0.9-17.2,0.9-25.7,1.3l-25.7,0.9c-8.8,0.3-17.2,0-25.7,0
		l-26-0.9c-8.5-0.6-17.2-1.3-25.7-2.2s-17.2-1.9-25.7-3.1c-8.5-1.3-16.9-2.5-25.7-4.1c-8.5-1.6-16.9-3.4-25.4-5.3
		s-16.9-4.1-25.1-6.3c-8.5-2.2-16.6-4.7-25.1-7.5c-8.5-2.8-16.3-5.6-24.8-9.4l-17.5-7.5l17.9-7.5c5-2.2,10-3.8,15-5.6
		c5-1.6,10-3.4,14.7-5c10-3.1,20.1-5.6,30.1-8.1c10-2.2,20.4-4.4,30.4-6.3c5-0.9,10.3-1.6,15.4-2.2s10.3-1.6,15.4-1.9
		c10.3-1.3,20.7-1.9,31-2.8c5-0.3,10.3-0.3,15.4-0.6c5-0.3,10.3-0.3,15.4-0.3h15.4c5,0,10.3,0.3,15.4,0.6
		c10.3,0.3,20.7,1.3,30.7,2.2v1.6c-10.3,0.9-20.4,1.3-30.7,2.2c-10,0.9-20.4,1.9-30.4,2.8c-5,0.3-10,1.3-15,1.9
		c-5,0.6-10,1.3-15,2.2c-10,1.6-20.1,2.8-30.1,4.7c-20.1,3.4-39.8,7.5-59.2,12.5c-9.7,2.5-19.4,5.3-29.1,7.8
		c-4.7,1.3-9.7,2.8-14.4,4.4s-9.7,3.1-13.8,5l0.3-15.4c7.2,3.4,15,6.6,22.9,9.7c7.8,2.8,15.7,5.6,23.8,8.1s16,5,24.1,7.2
		c8.1,2.2,16.3,4.1,24.8,6c8.1,1.9,16.6,3.4,24.8,4.7c8.5,1.6,16.6,2.5,25.1,3.8s16.9,1.9,25.4,2.8l25.4,1.9
		c8.5,0.3,17.2,0.6,25.4,0.9h25.4c8.5,0,16.9,0.3,25.7-0.3l25.4-0.9c8.5-0.3,16.9-1.3,25.4-1.9c8.5-0.6,16.9-1.6,25.4-2.8
		c8.5-0.9,16.9-2.8,25.1-4.4c8.5-1.9,16.6-3.8,24.4-6.9L670,282.9z"/>
	<g>
		<path fill="#FFFFFF" stroke="#FFFFFF" stroke-miterlimit="10" d="M247.1,277.6c0.9,10,2.2,24.4,4.7,41.7c1.6,10.7,3.4,22.2,6,34.5
			h11.6h0.3c-2.2-12.8-3.4-25.1-4.7-36c-1.9-16.9-2.5-31-2.8-41c-0.3-5-0.3-8.8-0.3-11.6c0-2.5,0-4.1,0-4.1l-15.7,0.3
			c0,0,0,1.6,0.3,4.4C246.4,268.5,246.7,272.6,247.1,277.6z"/>
		<path fill="#FFFFFF" stroke="#FFFFFF" stroke-miterlimit="10" d="M383.3,574c-2.2-1.3-4.4-2.8-6.9-4.7c-1.3-0.9-2.5-1.9-3.8-2.5
			c-1.3-0.9-2.5-2.2-4.1-3.1c-2.5-2.2-5.6-4.4-8.5-7.2s-5.6-5.6-8.8-8.5c-2.8-3.1-6-6.6-9.1-10c-2.8-3.8-6-7.2-8.8-11.3
			c-2.8-4.1-5.6-8.1-8.5-12.2c-2.5-4.4-5.6-8.8-8.1-13.5c-5-9.4-10-19.1-14.4-29.5c-1.3-2.5-2.2-5-3.4-7.8c-0.6-1.6-1.3-2.8-1.6-4.4
			H290c0.9,2.2,1.9,4.7,3.1,6.9c1.3,2.5,2.5,5,3.8,7.8c5,10.3,10.3,20.1,16,29.5c2.8,4.7,6,9.1,8.8,13.5c3.1,4.1,6.3,8.1,9.1,12.2
			c3.1,3.8,6.3,7.5,9.4,11c3.1,3.4,6.6,6.6,9.4,9.7c3.1,2.8,6.3,5.6,9.4,8.1c2.8,2.5,6.3,4.7,8.8,6.9c1.6,0.9,2.8,2.2,4.1,3.1
			c1.3,0.9,2.8,1.6,4.1,2.5c2.5,1.6,5,3.1,7.2,4.4c4.4,2.5,8.1,4.1,10.3,5.3c2.5,1.3,3.8,1.9,3.8,1.9s-1.3-0.6-3.8-1.9
			C391.2,578.4,387.4,576.5,383.3,574z"/>
	</g>
	<path fill="#FFFFFF" stroke="#FFFFFF" stroke-miterlimit="10" d="M405.9,275.1L405.9,275.1C405.9,275.4,405.9,275.4,405.9,275.1
		C405.9,275.4,405.9,275.4,405.9,275.1c-0.3,0-0.6-0.3-1.3-0.6c-0.9-0.9-2.5-2.2-4.7-3.8c-4.1-3.4-9.7-8.8-16.6-16s-15-16-23.5-27.3
		c-8.5-11-17.5-24.1-25.1-39.5c-7.5-15.4-14.1-33.5-15.4-53.9c-0.6-10,0.3-20.7,3.1-31c2.8-10.3,7.8-20.4,14.1-29.5
		C349.5,55.5,368,41,388.4,30.4c10.7-5.3,21.9-9.1,33.5-11.3c11.6-1.9,23.8-2.2,35.4-0.9c23.5,2.5,45.4,10,66.4,17.2
		c21,7.5,41.4,15.7,61.4,21.6c20.1,6,39.8,10.3,58.9,11.3c19.1,0.9,37-1.3,52.9-6c16-4.4,30.1-11,42-17.9
		c5.6-3.4,11.9-6.6,14.4-11.3c1.3-2.2,0.9-5-0.6-6.9c-1.6-1.9-3.8-3.1-6-4.1c-4.4-1.6-9.1-1.9-12.5-0.6c-3.4,0.9-6,3.4-6.9,6
		c-0.9,2.5-0.6,4.7-0.6,6c0.3,1.3,0.3,2.2,0.3,2.2s-0.3-0.6-0.3-1.9c-0.3-1.3-0.6-3.4,0.3-6c0.6-2.5,3.1-5.6,6.9-6.9
		c3.8-1.3,8.5-1.6,13.5,0c2.5,0.6,5,1.9,6.9,4.4c0.9,1.3,1.9,2.5,2.2,4.4c0.3,1.6,0,3.4-0.6,5c-1.6,3.1-3.8,5.3-6.6,7.5
		c-2.5,1.9-5.3,3.8-8.5,5.6c-11.6,7.5-25.4,15.4-42,20.7c-16.3,5.3-35.1,8.8-55.1,8.5c-19.7-0.3-40.7-3.8-61.4-9.7
		c-20.7-5.6-41.4-13.5-62.3-20.7c-21-7.2-42.3-14.1-63.9-16.3c-11-0.9-21.6-1.3-32.3,0.6c-10.7,1.6-20.7,5-30.1,9.7
		c-19.1,10-36.7,22.9-48.6,39.2c-12.2,16.3-17.5,35.7-16.9,54.2c0.6,18.8,6,36,12.8,51.4s14.7,28.5,22.6,39.8
		c7.8,11.3,15.4,20.7,21.6,28.2c6.6,7.5,11.6,13.2,15.4,16.9c1.9,1.9,3.4,3.4,4.4,4.4C405.3,274.8,405.6,275.1,405.9,275.1
		C405.9,275.4,405.9,275.4,405.9,275.1L405.9,275.1z"/>
	<path fill="#FFFFFF" stroke="#FFFFFF" stroke-miterlimit="10" d="M422.5,282.9c0,0,0.9-0.6,1.3-2.5c0.3-1.9-0.6-4.4-2.2-7.5
		c-3.4-6.3-10-13.8-17.9-23.5c-7.8-9.4-16.9-20.7-25.7-33.5c-8.8-12.8-16.9-27.6-21.9-43.9c-2.5-8.1-3.8-16.6-4.1-25.1
		c-0.3-8.5,1.3-16.9,4.1-24.4c2.5-7.5,6.6-14.4,11.3-20.1c4.4-5.6,9.4-10.7,14.1-14.7c4.7-4.1,9.4-7.2,13.8-10
		c4.4-2.5,8.1-4.7,11.3-6.3c3.1-1.9,5.6-2.8,7.5-3.4c1.9-0.9,2.8-1.3,2.8-1.3s-0.9,0.6-2.5,1.6c-1.6,0.9-4.1,2.5-6.9,4.4
		c-3.1,1.9-6.6,4.4-10.3,7.5c-4.1,3.1-8.1,6.6-12.5,11c-8.5,8.5-17.5,19.7-21.9,33.5c-1.3,3.4-1.9,7.2-2.5,10.7
		c-0.3,3.8-0.6,7.5-0.6,11.3c0.3,7.5,1.6,15.4,3.8,22.9c2.2,7.5,5.3,15,8.8,21.9c3.4,6.9,7.2,13.8,11.3,20.4
		c8.1,12.8,16.3,24.4,23.5,34.5c3.4,5,6.6,9.7,9.4,14.1c2.8,4.4,5,8.1,6.3,11.6c1.6,3.4,1.9,6.3,1.3,8.5
		C423.5,282.6,422.5,282.9,422.5,282.9z"/>
	<path fill="#FFFFFF" stroke="#FFFFFF" stroke-miterlimit="10" d="M551.9,278.2c0,0,0,0,0.3,0C552.2,278.5,552.2,278.2,551.9,278.2
		L551.9,278.2c-0.9-0.6-2.2-1.3-3.4-2.2c-2.8-1.9-6.9-4.7-10.7-9.7c-1.9-2.5-3.4-6-3.8-10c-0.3-4.1,0.6-8.5,3.1-12.2
		c4.7-7.8,12.8-14.1,22.2-19.7c9.4-5.6,20.1-10.3,31.3-14.7c5.6-2.2,11.6-4.4,17.2-6.9c5.6-2.5,11-5.6,15-10
		c4.1-4.4,5.3-9.7,4.1-15.7c-1.3-6-4.4-11.9-7.5-18.2c-3.1-6.3-6.3-12.8-7.8-20.7c-0.6-3.8-0.9-7.8-0.3-11.9
		c0.6-4.1,2.2-7.8,4.1-11.3c4.1-6.9,10-11.9,16-16c6.3-4.1,12.5-7.5,19.1-10.3c12.8-5.6,26.3-9.7,39.2-13.5
		c12.8-3.4,25.4-6.3,37.6-8.5c11.9-2.5,23.8-3.1,32.9-7.8c9.4-4.4,15.7-13.2,16-21.6c0.3-8.5-4.4-15.7-9.7-18.5
		c-5.3-3.1-10.7-2.8-13.8-2.5c-1.6,0.3-2.8,0.6-3.8,0.9c-0.9,0.3-1.3,0.3-1.3,0.3s0.3,0,1.3-0.3c0.9-0.3,1.9-0.6,3.8-0.9
		c3.1-0.6,8.5-0.9,14.1,2.2c5.3,2.8,10.7,10,10.3,19.1c0,4.4-1.6,9.1-4.4,13.2s-6.9,7.5-11.9,10c-4.7,2.5-10.3,4.1-16,5.3
		c-5.6,1.3-11.3,2.8-17.2,4.4c-11.6,3.1-24.1,6.6-36.7,10.7c-12.5,4.1-25.4,8.8-37.9,14.4c-6.3,2.8-12.2,6.3-17.9,10
		c-5.3,3.8-10.7,8.5-13.8,13.8c-3.1,5.3-4.1,11.6-2.8,17.9c1.3,6.3,4.1,12.5,7.2,18.8c2.8,6.3,6.3,12.5,7.8,20.1
		c0.6,3.8,0.9,7.8-0.3,11.9s-3.4,7.2-6,10c-10.7,10.3-24.1,13.8-35.4,17.5c-11.3,4.1-21.9,8.5-31,13.2c-9.1,5-17.2,10.3-21.9,17.2
		c-2.2,3.4-3.4,7.2-3.4,10.7s1.3,6.6,2.8,9.1c3.1,5,7.2,8.1,9.7,10.3c1.3,0.9,2.5,1.9,3.1,2.2C551.9,277.9,551.9,278.2,551.9,278.2
		c0.3,0,0.3,0,0.6,0C552.2,278.5,552.2,278.2,551.9,278.2L551.9,278.2z"/>
	<g>
		<path fill="#FFFFFF" stroke="#FFFFFF" stroke-miterlimit="10" d="M525.6,336.2c0.3-0.3,0.3-0.6-0.3-1.3c-0.6-0.3-0.9-0.6-1.6-0.3
			c-8.1,7.2-14.7,14.1-19.1,20.4c-0.6,0.6-0.9,1.6-0.9,2.5c0,0.9,0,1.9,0.3,2.8c0.3,0.9,0.6,1.6,0.9,1.9c0.3,0.3,0.9,0.3,1.6,0
			c2.5-4.7,5.3-9.1,8.8-13.8C518.4,343.4,521.8,339.3,525.6,336.2z"/>
		<path fill="#FFFFFF" stroke="#FFFFFF" stroke-miterlimit="10" d="M211,285.7c-3.4-3.4-7.5-6.3-12.8-8.8c-5.3-2.5-11.3-4.1-18.2-5
			c2.5-1.9,5.3-3.4,8.5-5c3.1-1.3,6-2.5,9.1-3.4c0.9-0.3,1.3-0.9,1.3-1.3c0-0.6-0.3-0.9-1.3-0.9c-8.8,2.2-16.3,5.3-22.6,9.7
			c-1.6-0.3-2.8-0.3-4.1-0.3s-2.8,0-4.1,0c-8.5,0-16.6,1.3-24.1,3.4c-7.5,2.2-14.1,5.3-20.1,9.1c-6,3.8-11,8.5-15.4,13.5
			c-4.4,5-7.5,10.3-9.7,15.7c-0.3,0.6,0,1.3,0.3,1.6c0.3,0.3,0.9,0.3,1.3,0c2.5-6,6-11,10-15.7c4.1-4.7,8.5-8.5,13.8-11.6
			c5-3.1,10.7-5.6,16.3-7.2s11.6-2.5,17.2-2.5c1.9,0,3.8,0,5.3,0s3.1,0.3,4.7,0.6c-7.5,6.6-13.8,15-18.8,24.8
			c-5.3,9.7-9.7,21.3-13.2,34.2c-3.8,13.5-7.2,24.4-10.3,33.2c-3.1,8.8-6.6,16-9.7,21.3c-3.1,5.3-6.6,9.4-10.3,12.2
			c-3.8,2.5-7.8,4.4-12.2,5.3c-4.7,0.9-8.8,0.9-12.2,0c-3.4-0.9-6.9-3.1-10-6.6c-0.9-0.6-2.5-0.6-4.1-0.3c-1.6,0.3-3.1,0.6-4.4,1.3
			c-1.3,0.6-2.5,1.3-3.4,2.2c-0.9,0.9-0.9,1.6-0.6,2.2c12.2,10.3,25.7,18.5,40.4,24.4c14.7,6,31,9.1,49.2,9.1
			c22.6,0,39.5-4.7,50.8-14.1c11.3-9.4,16.9-21.9,16.9-37.9c0-8.5-2.2-16.9-6.9-25.1c-4.7-8.1-11.9-14.4-21.9-19.1
			c4.4,0,8.8-0.9,13.2-2.5c4.4-1.9,8.1-4.1,11.6-7.5c3.4-3.1,6-6.9,8.1-11.3c1.9-4.4,3.1-9.1,3.1-14.4c0-4.1-0.9-8.1-2.5-12.2
			C216.7,292.6,214.5,288.9,211,285.7z M206.6,325.2c-1.6,3.1-3.4,6-6,8.5c-2.5,2.5-5,4.4-8.1,5.6c-3.1,1.3-6.3,1.9-9.4,1.9
			c-2.2,0-3.8,0-5-0.3s-2.8-0.6-4.4-1.6c-0.9-0.3-2.5,0-4.1,0.3s-3.1,0.9-4.1,1.6c-1.3,0.6-2.2,1.6-2.8,2.5
			c-0.6,0.9-0.9,1.6-0.3,2.2c26.6,6.9,39.8,23.2,39.8,48.9c0,6-1.3,11.6-3.4,16.6c-2.2,5-5.3,9.4-9.7,13.2
			c-4.4,3.8-9.7,6.9-15.7,9.1c-6.3,2.2-13.2,3.4-21.3,3.4c-13.2,0-25.7-2.2-37.6-6.6c-11.9-4.4-22.2-10-31.3-16.6
			c5.6-0.3,11.3-1.3,16.6-3.8c5.3-2.2,10.7-6.3,15.7-12.5c5-6,10-14.1,15-24.8c4.7-10.3,9.4-24.1,14.1-40.7
			c3.1-12.2,6.9-22.9,11.6-31.6c4.7-8.8,9.7-16.3,15.7-22.2c12.5,2.2,21.9,6.6,28.2,13.2c6,6.6,9.1,14.1,9.1,22.6
			C208.8,318.3,208.2,321.8,206.6,325.2z"/>
		<path fill="#FFFFFF" stroke="#FFFFFF" stroke-miterlimit="10" d="M278.4,379.4c0-1.9-0.9-3.4-2.5-4.4c-1.6-0.9-3.4-1.6-5.3-1.6
			c-5,0-9.4,2.5-13.8,7.2c-4.1,4.7-8.1,11.6-11.6,19.7c0.9-3.4,1.6-6.9,2.2-10.7c0.6-3.4,0.9-6.6,0.9-9.1c0-5-1.9-7.5-5.6-7.5
			c-2.8,0-6,1.3-9.1,4.1c-3.1,2.8-6.3,5.6-8.8,9.1c-0.3,0.6-0.3,1.3,0.3,1.6c0.6,0.3,1.3,0.6,1.9,0c1.6-2.2,3.4-4.1,5-5.6
			c1.9-1.6,3.4-2.5,5-2.5c2.5,0,3.4,2.5,2.5,7.8c-0.6,3.4-1.3,7.5-2.2,11.6c-0.9,4.1-1.9,8.5-3.4,12.8c-1.3,4.4-2.8,8.8-4.1,13.2
			c-1.6,4.4-2.8,8.1-4.4,11.9c-0.9,1.9-0.6,2.8,1.3,2.8c1.3,0,3.1-0.3,5-0.9c1.9-0.6,3.1-1.6,3.4-3.4c4.4-16.3,9.1-29.1,14.1-38.2
			s10.3-13.8,16.6-13.8c4.1,0,6,1.6,6,4.4c0,1.3,0.6,1.6,1.6,0.9c0.9-0.9,2.2-2.8,3.1-5C278.1,382.5,278.4,380.7,278.4,379.4z"/>
		<path fill="#FFFFFF" stroke="#FFFFFF" stroke-miterlimit="10" d="M310.3,373.1c-4.7,0-8.8,1.6-13.2,4.7c-4.1,3.1-7.8,7.2-11,12.2
			s-5.6,10.3-7.5,16.3c-1.9,6-2.8,11.6-2.8,16.6c0,6,1.6,10.3,4.4,13.2c2.8,3.1,6.6,4.4,11.3,4.4c5,0,9.7-1.6,14.1-4.4
			c4.4-2.8,8.1-6.3,11.3-10.3c0.3-0.6,0.3-1.3,0-1.9c-0.3-0.6-0.9-0.6-1.6-0.3c-2.5,3.1-5.3,5.3-8.1,7.2c-3.1,1.9-6.3,2.5-10,2.5
			c-3.4,0-6.3-1.6-8.1-4.4c-1.9-3.1-2.8-6.6-2.8-11c0-2.2,0-4.4,0-6.3s0.3-3.8,0.3-6c4.7-1.3,9.4-2.5,13.5-4.1
			c4.4-1.3,8.1-2.8,11.6-4.7c3.4-1.6,6-3.4,7.8-5.6c1.9-2.2,2.8-4.4,2.8-6.9c0-3.1-1.3-5.6-3.4-8.1
			C316.6,374.4,313.8,373.1,310.3,373.1z M305.6,396.6c-4.1,2.5-10,4.1-18.5,5.3c1.3-7.5,3.8-13.2,6.9-16.6
			c3.1-3.4,6.9-5.3,10.7-5.3c2.2,0,3.8,0.9,5,2.5c1.3,1.6,1.9,3.8,1.9,6C311.6,391.6,309.7,394.1,305.6,396.6z"/>
		<path fill="#FFFFFF" stroke="#FFFFFF" stroke-miterlimit="10" d="M407.5,373.5c-0.6,0-1.6,0.3-2.5,0.9c-0.9,0.6-2.2,1.3-3.4,2.5
			c-1.3,0.9-2.2,1.9-3.1,3.1c-0.9,0.9-1.6,1.9-2.2,2.8c-0.3,1.6,0.3,2.2,1.6,1.9c3.1-2.5,6-2.8,8.5-0.9c2.8,1.9,4.1,6.3,4.1,13.2
			c0,4.7-0.9,9.4-2.5,13.5c-1.6,4.4-3.8,8.1-6.3,11.3c-2.5,3.1-5.3,6-8.5,7.8s-6.3,2.8-9.1,2.8c-6,0-9.1-4.1-9.1-12.5
			c0-6.6,0.6-13.5,2.2-21.3c1.6-7.5,3.4-14.4,6.3-20.1c0-0.6-0.3-0.6-1.3-0.6c-0.9,0.3-1.6,0.6-2.8,0.9c-0.9,0.6-2.2,1.3-3.1,1.9
			c-0.9,0.9-1.6,1.6-1.9,2.2c-0.9,3.4-1.6,6-2.5,7.8c-0.9,1.9-1.6,3.4-2.8,5c-2.8,3.8-6,7.8-9.1,12.2c-3.1,4.4-6.6,9.7-10,15.7
			c0.6-2.8,0.9-6,1.6-9.7c0.3-3.8,0.6-7.8,0.6-12.5c0-10.3-0.9-17.5-2.5-21.6c-1.6-4.4-4.1-6.6-7.5-6.6c-1.3,0-2.8,0.3-4.4,1.3
			c-1.6,0.9-3.1,1.6-4.4,2.8c-1.3,0.9-2.5,2.2-3.8,3.4c-0.9,1.3-1.9,2.2-2.2,3.1c-0.3,0.6,0,1.3,0.6,1.6c0.6,0.3,1.3,0.6,1.6,0
			c0.9-1.9,2.2-3.4,3.8-4.1c1.6-0.9,3.1-1.3,4.1-0.9c2.2,0.9,3.4,3.4,4.4,7.8c0.9,4.4,1.3,9.4,1.3,15.4c0,6-0.3,11.9-1.3,18.2
			c-0.9,6.3-1.9,11.6-3.1,15.7c-0.3,1.9,0.3,2.8,1.6,2.8s2.5-0.3,3.4-1.3c0.9-0.9,2.2-2.8,3.4-5.6c3.8-6.6,7.8-12.8,11.6-19.1
			c3.8-6.3,7.5-11.9,11.3-16.3c-0.6,1.9-0.9,3.8-1.6,6c-0.3,2.2-0.9,4.7-1.3,7.2c-0.3,2.5-0.6,5-0.9,7.5c-0.3,2.5-0.3,4.7-0.3,6.9
			c0,5,0.9,8.5,2.8,11s4.4,3.8,7.5,3.8c3.8,0,8.1-1.3,12.5-4.1c4.7-2.8,8.8-6.3,12.5-11c3.8-4.7,7.2-10,9.7-16
			c2.5-6,3.8-12.5,3.8-19.1c0-5.6-0.9-10-2.5-12.8C411.9,375,409.7,373.5,407.5,373.5z"/>
		<path fill="#FFFFFF" stroke="#FFFFFF" stroke-miterlimit="10" d="M464.8,375c-2.5-1.3-5.3-1.6-8.8-1.6c-6,0-10.3,1.6-13.8,4.7
			c-3.4,3.1-5,6.9-5,11.6c0,3.1,0.6,6,2.2,8.8c1.6,2.8,3.1,5.3,5,8.1c1.9,2.8,3.4,5.6,5,8.5c1.6,2.8,2.5,6,2.5,9.4
			c0,3.8-1.3,6.9-3.8,9.4c-2.5,2.5-6,3.8-10.7,3.8c-3.1,0-5.6-0.6-7.8-2.2c-2.2-1.6-3.4-3.8-4.1-6.6c-0.3-1.3-0.3-3.1,0.6-5
			c0.6-1.9,1.9-3.4,3.1-5c0.3-0.6,0.3-0.9,0-1.6c-0.3-0.6-0.9-0.6-1.6-0.3c-2.5,1.9-4.7,4.4-6.6,7.5s-2.8,5.6-2.8,7.2
			c0,2.2,1.9,4.1,5.3,6c3.4,1.9,8.1,2.8,13.5,2.8c7.8,0,13.8-1.9,17.9-6c4.1-3.8,6-8.5,6-14.1c0-3.4-0.6-6.6-2.2-9.7
			c-1.6-2.8-3.1-5.6-5-8.1c-1.9-2.5-3.4-5-5-7.5c-1.6-2.5-2.2-5.3-2.2-8.1c0-3.4,0.9-6.3,2.8-7.8c1.9-1.9,4.4-2.5,7.2-2.5
			c4.1,0,6.6,1.9,7.5,5.3c0.3,1.3,0.3,2.5,0.3,4.1c-0.3,1.6-0.6,3.1-0.9,4.1c-0.3,0.6,0,0.9,0.6,1.3c0.6,0.3,0.9,0.3,1.6,0
			c0.9-1.6,1.6-3.4,2.5-6c0.9-2.5,1.3-4.7,1.3-6.6C468.6,377.2,467.3,376,464.8,375z"/>
		<path fill="#FFFFFF" stroke="#FFFFFF" stroke-miterlimit="10" d="M493.3,402.9c1.6-4.7,3.4-9.4,6-14.1c2.2-4.7,4.4-9.1,6.6-13.2
			c0-1.6-0.6-2.5-2.2-2.5c-4.1,2.2-8.5,4.7-12.5,7.8c-4.1,3.1-7.5,6-10,8.5c-0.3,0.6-0.3,0.9,0,1.6c0.3,0.6,0.9,0.6,1.6,0.3
			c1.3-1.3,3.4-3.1,6.6-5.3c2.8-2.2,5.3-4.1,7.2-5.3c-2.2,3.1-4.4,6.9-6.6,11.3c-2.2,4.4-4.1,9.1-6,13.8c-1.9,4.7-3.1,9.4-4.4,14.1
			s-1.6,8.8-1.6,11.9c0,6,2.2,8.8,6.9,8.8c3.1,0,6.6-1.6,10-4.7c3.4-3.1,6.9-6.6,10-10.7c0.3-0.6,0.3-1.3-0.3-1.9
			c-0.6-0.6-0.9-0.6-1.3-0.3c-2.5,2.8-4.7,5-6.6,6.6s-3.8,2.5-5.6,2.5c-2.5,0-3.8-1.9-3.8-5.6c0-2.8,0.6-6.3,1.6-10.7
			C490.5,412,491.8,407.6,493.3,402.9z"/>
		<path fill="#FFFFFF" stroke="#FFFFFF" stroke-miterlimit="10" d="M551,373.1c-4.7,0-8.8,1.6-13.2,4.7c-4.1,3.1-7.8,7.2-11,11.9
			c-3.1,4.7-6,10-7.8,15.7c-1.9,5.6-2.8,11-2.8,15.7c0,6.3,1.3,11,3.8,14.1c2.5,3.4,5.6,5,10,5c3.4,0,7.2-1.6,11.6-4.4
			c4.1-3.1,7.8-6.9,11.6-11.6c3.4-4.7,6.3-10.3,8.8-16.3c2.2-6,3.4-11.9,3.4-17.9c0-5-1.3-9.1-3.4-12.5
			C559.1,374.7,555.7,373.1,551,373.1z M554.4,411.7c-1.3,4.1-2.8,7.5-4.7,10.7c-1.9,3.1-4.1,5.6-6.6,7.5c-2.5,1.9-5,2.8-7.8,2.8
			c-6.9,0-10.7-5.6-10.7-16.6c0-4.7,0.6-8.8,1.6-13.2c0.9-4.1,2.5-7.8,4.4-10.7c1.9-3.1,4.1-5.6,6.6-7.5s5-2.8,7.5-2.8
			c4.1,0,6.9,1.6,8.8,4.7s2.5,7.2,2.5,12.5C556,403.5,555.4,407.6,554.4,411.7z"/>
		<path fill="#FFFFFF" stroke="#FFFFFF" stroke-miterlimit="10" d="M643.4,423.9c-0.6-0.3-0.9-0.3-1.6,0c-4.7,6.3-8.8,9.1-12.5,9.1
			c-2.8,0-4.1-2.2-4.1-6.6c0-6.3,1.3-12.8,3.8-20.1c2.5-7.2,5.6-14.4,9.4-21c0.9-2.2,1.6-4.7,1.6-6.9c0-1.3-0.6-2.5-1.6-3.8
			c-1.3-0.9-2.8-1.6-5-1.6c-3.1,0-6.6,0.9-10,2.5c-3.8,1.9-7.2,4.1-10.7,7.2c-3.8,3.1-7.2,6.6-10.3,10.7c-3.4,4.1-6.3,8.8-8.8,13.5
			c1.3-4.1,2.8-8.5,4.1-12.8c1.3-4.4,2.2-8.5,2.8-12.2c1.3-6,0-9.1-4.4-9.1c-3.8,0-7.5,1.6-11,4.7c-3.4,3.1-6,6.3-7.8,9.1
			c-0.3,0.6,0,0.9,0.3,1.6c0.3,0.6,0.9,0.6,1.3,0.3c1.9-2.8,3.8-5,5.6-6.9c1.9-1.9,3.4-2.5,5.3-2.5c1.9,0,2.5,1.6,1.9,5
			c-2.5,9.4-5.3,18.8-8.5,28.2c-3.1,9.4-6.3,17.9-9.4,25.7c-0.6,1.6,0.3,2.5,2.2,2.5c1.3,0,2.8-0.3,4.4-0.9s2.5-1.6,2.8-2.5
			c6.6-19.1,13.8-33.2,21.6-42.3s15-13.5,21.6-13.5c1.9,0,2.5,0.9,2.5,2.8c0,1.3-0.3,2.5-0.9,3.8c-3.8,7.5-6.6,14.7-8.8,21.9
			c-2.2,7.2-3.1,13.8-3.1,20.1c0,6.9,2.8,10.7,8.1,10.7c3.1,0,6.6-1.6,10-4.7c3.4-3.1,6.9-6.6,10-10.7
			C644,424.8,644,424.2,643.4,423.9z"/>
	</g>
</g>
</svg>
