<?xml version="1.0" encoding="utf-8"?>
<!-- Generator: Adobe Illustrator 18.0.0, SVG Export Plug-In . SVG Version: 6.00 Build 0)  -->
<!DOCTYPE svg PUBLIC "-//W3C//DTD SVG 1.1//EN" "http://www.w3.org/Graphics/SVG/1.1/DTD/svg11.dtd">
<svg version="1.1" xmlns="http://www.w3.org/2000/svg" xmlns:xlink="http://www.w3.org/1999/xlink" x="0px" y="0px"
	 viewBox="0 0 239.3 102" enable-background="new 0 0 239.3 102" xml:space="preserve">
<g id="Layer_2">
</g>
<g id="Layer_4">
</g>
<g id="Layer_3">
</g>
<g id="Layer_1">
	<path fill="#FFFFFF" stroke="#FFFFFF" stroke-width="0.5" stroke-miterlimit="10" d="M163.3,31.3"/>
	<path fill="#FFFFFF" stroke="#FFFFFF" stroke-width="0.5" stroke-miterlimit="10" d="M179.3,63"/>
	<path fill="#FFFFFF" stroke="#FFFFFF" stroke-width="0.5" stroke-miterlimit="10" d="M219.3,46.9c-1.3,0.6-2.7,1-4.1,1.3
		c-1.4,0.3-2.8,0.7-4.2,0.9c-1.4,0.3-2.8,0.5-4.2,0.7c-1.4,0.2-2.8,0.4-4.2,0.5l-4.3,0.4c-1.4,0.1-2.8,0.2-4.3,0.2l-4.3,0.2
		c-1.5,0-2.8,0-4.3,0l-4.3-0.2c-1.4-0.1-2.9-0.2-4.3-0.3c-1.4-0.2-2.9-0.3-4.3-0.5c-1.4-0.2-2.8-0.4-4.2-0.7
		c-1.4-0.2-2.8-0.6-4.2-0.9c-1.4-0.3-2.8-0.7-4.2-1c-1.4-0.4-2.8-0.8-4.1-1.3c-1.4-0.5-2.7-0.9-4.1-1.6l-2.9-1.3l3-1.3
		c0.9-0.4,1.6-0.6,2.5-0.9c0.8-0.3,1.6-0.6,2.5-0.8c1.6-0.5,3.3-0.9,5-1.3c1.7-0.4,3.4-0.7,5.1-1c0.8-0.2,1.7-0.3,2.6-0.4
		c0.8-0.1,1.7-0.2,2.6-0.3c1.7-0.2,3.4-0.3,5.1-0.4c0.9,0,1.7-0.1,2.6-0.1c0.9,0,1.7-0.1,2.6-0.1l2.6,0c0.9,0,1.7,0.1,2.6,0.1
		c1.7,0.1,3.4,0.2,5.1,0.4l0,0.3c-1.7,0.1-3.4,0.2-5.1,0.4c-1.7,0.1-3.4,0.3-5.1,0.5c-0.8,0.1-1.7,0.2-2.5,0.3
		c-0.8,0.1-1.7,0.2-2.5,0.3c-1.7,0.2-3.3,0.5-5,0.8c-3.3,0.6-6.6,1.3-9.9,2.1c-1.6,0.4-3.2,0.9-4.8,1.3c-0.8,0.2-1.6,0.5-2.4,0.7
		c-0.8,0.3-1.6,0.5-2.3,0.8l0.1-2.5c1.2,0.6,2.5,1.1,3.8,1.6c1.3,0.5,2.6,0.9,4,1.4c1.3,0.4,2.7,0.8,4,1.2c1.4,0.3,2.7,0.7,4.1,1
		c1.4,0.3,2.8,0.6,4.1,0.8c1.4,0.3,2.8,0.4,4.2,0.6c1.4,0.2,2.8,0.3,4.2,0.5l4.2,0.3c1.4,0,2.9,0.1,4.2,0.1l4.2,0c1.4,0,2.8,0,4.2,0
		l4.2-0.2c1.4,0,2.8-0.2,4.2-0.3c1.4-0.1,2.8-0.3,4.2-0.5c1.4-0.2,2.8-0.4,4.2-0.7c1.4-0.3,2.7-0.6,4.1-1.1L219.3,46.9z"/>
	<path fill="#FFFFFF" stroke="#FFFFFF" stroke-width="0.5" stroke-miterlimit="10" d="M149,46c0.1,1.7,0.4,4.1,0.8,6.9
		c0.2,1.5,0.5,3.1,0.8,4.8l1.7-1.9c-0.1-1.1-0.3-2.2-0.4-3.2c-0.3-2.8-0.4-5.2-0.5-6.8c0-0.8,0-1.5-0.1-1.9c0-0.4,0-0.7,0-0.7
		l-2.6,0c0,0,0,0.2,0,0.7C148.9,44.5,148.9,45.2,149,46z"/>
	<path fill="#FFFFFF" stroke="#FFFFFF" stroke-width="0.5" stroke-miterlimit="10" d="M175.4,45.6C175.4,45.6,175.4,45.6,175.4,45.6
		C175.4,45.7,175.4,45.7,175.4,45.6C175.4,45.7,175.4,45.7,175.4,45.6c0,0-0.1-0.1-0.2-0.1c-0.2-0.1-0.4-0.4-0.8-0.6
		c-0.7-0.6-1.6-1.4-2.8-2.6c-1.1-1.2-2.5-2.7-3.9-4.5c-1.4-1.8-2.9-4-4.2-6.6c-1.3-2.6-2.4-5.6-2.6-8.9c-0.1-1.7,0-3.4,0.5-5.2
		c0.5-1.7,1.3-3.4,2.4-4.9c2.2-3,5.2-5.4,8.6-7.2c1.8-0.9,3.6-1.5,5.6-1.9c1.9-0.3,3.9-0.3,5.9-0.1c3.9,0.4,7.5,1.7,11,2.9
		c3.5,1.3,6.9,2.6,10.2,3.6c3.3,1,6.6,1.7,9.8,1.8c3.2,0.2,6.2-0.2,8.8-1c2.7-0.8,5-1.8,7-3c1-0.6,2-1.1,2.4-1.9
		c0.2-0.4,0.2-0.8-0.1-1.1c-0.3-0.3-0.6-0.5-1-0.7c-0.7-0.3-1.5-0.3-2.1-0.1c-0.6,0.2-1,0.6-1.1,1c-0.1,0.4-0.1,0.8-0.1,1
		c0,0.2,0.1,0.3,0.1,0.3s0-0.1-0.1-0.3c0-0.2-0.1-0.6,0-1c0.1-0.4,0.5-0.9,1.1-1.1c0.6-0.2,1.4-0.3,2.2,0c0.4,0.1,0.8,0.3,1.2,0.7
		c0.2,0.2,0.3,0.4,0.3,0.7c0,0.3,0,0.6-0.1,0.8c-0.2,0.5-0.6,0.9-1.1,1.2c-0.4,0.3-0.9,0.6-1.4,1c-1.9,1.3-4.2,2.5-7,3.4
		c-2.7,0.9-5.8,1.5-9.2,1.4c-3.3-0.1-6.8-0.7-10.2-1.6c-3.4-1-6.9-2.2-10.4-3.4c-3.5-1.2-7-2.3-10.6-2.7c-1.8-0.2-3.6-0.2-5.4,0.1
		c-1.7,0.3-3.5,0.8-5,1.6c-3.2,1.7-6.1,3.8-8.1,6.5c-2,2.7-2.9,5.9-2.8,9c0.1,3.1,1,6,2.1,8.5c1.1,2.5,2.5,4.7,3.7,6.6
		c1.3,1.9,2.5,3.4,3.6,4.7c1.1,1.2,1.9,2.2,2.6,2.8c0.3,0.3,0.6,0.6,0.7,0.7C175.3,45.6,175.3,45.6,175.4,45.6
		C175.4,45.7,175.4,45.7,175.4,45.6C175.4,45.6,175.4,45.6,175.4,45.6z"/>
	<path fill="#FFFFFF" stroke="#FFFFFF" stroke-width="0.5" stroke-miterlimit="10" d="M180.8,46.9c0,0,0.2-0.1,0.2-0.4
		c0.1-0.3-0.1-0.8-0.4-1.3c-0.6-1-1.7-2.3-3-3.9c-1.3-1.6-2.8-3.4-4.3-5.6c-1.4-2.1-2.8-4.6-3.6-7.3c-0.4-1.3-0.6-2.8-0.7-4.2
		c0-1.4,0.2-2.8,0.7-4.1c0.4-1.3,1.1-2.4,1.9-3.3c0.7-1,1.6-1.8,2.4-2.4c0.8-0.7,1.6-1.2,2.3-1.6c0.7-0.4,1.3-0.8,1.9-1.1
		c0.5-0.3,1-0.5,1.3-0.6c0.3-0.1,0.4-0.2,0.4-0.2s-0.1,0.1-0.4,0.3c-0.3,0.2-0.7,0.4-1.2,0.8c-0.5,0.3-1.1,0.7-1.7,1.2
		c-0.7,0.5-1.3,1.1-2.1,1.8c-1.4,1.4-2.9,3.3-3.6,5.6c-0.2,0.6-0.3,1.2-0.4,1.8c-0.1,0.6-0.1,1.2-0.1,1.9c0,1.3,0.3,2.6,0.7,3.8
		c0.4,1.3,0.9,2.5,1.5,3.7c0.6,1.2,1.2,2.3,1.9,3.4c1.3,2.1,2.7,4.1,3.9,5.7c0.6,0.8,1.1,1.6,1.6,2.3c0.4,0.7,0.8,1.3,1.1,1.9
		c0.2,0.6,0.3,1.1,0.2,1.4C181,46.8,180.8,46.9,180.8,46.9z"/>
	<path fill="#FFFFFF" stroke="#FFFFFF" stroke-width="0.5" stroke-miterlimit="10" d="M199.7,46.1C199.7,46.1,199.7,46.2,199.7,46.1
		C199.7,46.2,199.7,46.2,199.7,46.1C199.7,46.1,199.7,46.1,199.7,46.1c-0.2-0.1-0.3-0.2-0.6-0.4c-0.5-0.3-1.2-0.8-1.8-1.6
		c-0.3-0.4-0.6-1-0.6-1.7c-0.1-0.7,0.1-1.4,0.5-2c0.8-1.3,2.1-2.4,3.7-3.3c1.5-0.9,3.3-1.7,5.2-2.5c0.9-0.4,1.9-0.7,2.9-1.1
		c0.9-0.4,1.8-1,2.5-1.7c0.7-0.7,0.9-1.6,0.7-2.6c-0.2-1-0.7-2-1.2-3c-0.5-1-1.1-2.1-1.3-3.4c-0.1-0.6-0.2-1.3,0-2
		c0.1-0.7,0.4-1.3,0.7-1.9c0.7-1.1,1.7-2,2.7-2.6c1-0.7,2.1-1.2,3.2-1.7c2.2-1,4.4-1.6,6.5-2.2c2.1-0.6,4.2-1.1,6.2-1.4
		c2-0.4,3.9-0.5,5.5-1.3c1.6-0.7,2.6-2.2,2.7-3.6c0.1-1.4-0.7-2.6-1.6-3.1c-0.9-0.5-1.8-0.5-2.3-0.4c-0.3,0-0.5,0.1-0.6,0.1
		c-0.1,0-0.2,0.1-0.2,0.1s0.1,0,0.2-0.1c0.1,0,0.3-0.1,0.6-0.1c0.5-0.1,1.4-0.1,2.3,0.4c0.9,0.5,1.8,1.7,1.7,3.2
		c0,0.7-0.3,1.5-0.8,2.2c-0.5,0.7-1.2,1.2-2,1.6c-0.8,0.4-1.7,0.7-2.6,0.9c-0.9,0.2-1.9,0.5-2.9,0.7c-1.9,0.5-4,1.1-6.1,1.8
		c-2.1,0.7-4.2,1.4-6.3,2.4c-1,0.5-2,1-3,1.7c-0.9,0.6-1.8,1.4-2.3,2.3c-0.5,0.9-0.7,1.9-0.5,3c0.2,1,0.7,2.1,1.2,3.1
		c0.5,1,1,2.1,1.3,3.4c0.1,0.6,0.1,1.3-0.1,2c-0.2,0.6-0.6,1.2-1,1.7c-1.8,1.7-4,2.3-5.9,2.9c-1.9,0.7-3.6,1.4-5.2,2.2
		c-1.5,0.8-2.9,1.7-3.6,2.9c-0.4,0.6-0.6,1.2-0.6,1.8c0,0.6,0.2,1.1,0.5,1.5c0.5,0.8,1.2,1.4,1.6,1.7
		C199.3,45.9,199.5,46,199.7,46.1C199.7,46.1,199.7,46.1,199.7,46.1C199.7,46.1,199.7,46.2,199.7,46.1
		C199.7,46.2,199.7,46.2,199.7,46.1C199.7,46.2,199.7,46.1,199.7,46.1z"/>
	<g>
		<path fill="#FFFFFF" stroke="#FFFFFF" stroke-width="0.5" stroke-miterlimit="10" d="M158.7,58.6c0.1-0.1,0.1-0.2-0.1-0.4
			c-0.2-0.1-0.4-0.2-0.5-0.1c-2.7,2.4-4.9,4.6-6.4,6.7c-0.2,0.2-0.3,0.5-0.3,0.9c0,0.3,0,0.7,0.1,0.9c0.1,0.3,0.2,0.5,0.3,0.6
			c0.1,0.1,0.3,0.1,0.5,0c0.8-1.5,1.8-3,2.9-4.6C156.3,61.1,157.5,59.7,158.7,58.6z"/>
		<path fill="#FFFFFF" stroke="#FFFFFF" stroke-width="0.5" stroke-miterlimit="10" d="M54.2,41.9c-1.1-1.1-2.5-2.1-4.2-2.9
			c-1.7-0.8-3.8-1.4-6.1-1.7c0.9-0.6,1.8-1.2,2.8-1.6c1-0.4,2-0.8,3-1.1c0.3-0.1,0.4-0.3,0.4-0.4c0-0.2-0.1-0.3-0.4-0.3
			c-2.9,0.7-5.4,1.8-7.5,3.2C41.6,37,41.2,37,40.7,37c-0.4,0-0.9,0-1.4,0c-2.9,0-5.5,0.4-8,1.1c-2.5,0.8-4.7,1.8-6.7,3.1
			c-2,1.3-3.7,2.8-5.1,4.5c-1.4,1.7-2.5,3.4-3.2,5.3c-0.1,0.2,0,0.4,0.1,0.5c0.1,0.1,0.3,0.1,0.4,0c0.9-1.9,2-3.6,3.3-5.2
			c1.3-1.5,2.9-2.8,4.6-3.9c1.7-1,3.5-1.9,5.4-2.4c1.9-0.6,3.8-0.8,5.7-0.8c0.6,0,1.2,0,1.8,0c0.5,0,1.1,0.1,1.6,0.2
			c-2.5,2.2-4.5,5-6.3,8.2c-1.7,3.3-3.2,7.1-4.4,11.4c-1.2,4.4-2.4,8.1-3.5,11c-1.1,2.9-2.2,5.3-3.2,7.1c-1.1,1.8-2.2,3.2-3.4,4
			c-1.2,0.9-2.6,1.5-4.1,1.8c-1.6,0.3-2.9,0.3-4.1,0c-1.1-0.3-2.3-1.1-3.4-2.2c-0.3-0.2-0.8-0.2-1.3-0.1c-0.5,0.1-1,0.2-1.4,0.4
			C3.7,81,3.3,81.3,3,81.5c-0.3,0.3-0.3,0.5-0.2,0.7c4.1,3.4,8.6,6.2,13.4,8.1c4.9,2,10.3,3,16.3,3c7.5,0,13.1-1.5,16.9-4.6
			c3.8-3.1,5.6-7.3,5.6-12.6c0-2.9-0.8-5.6-2.3-8.3c-1.5-2.7-3.9-4.8-7.3-6.3c1.5,0,2.9-0.3,4.3-0.9c1.4-0.6,2.7-1.4,3.8-2.5
			c1.1-1,2-2.3,2.7-3.8c0.7-1.5,1-3.1,1-4.8c0-1.4-0.3-2.8-0.8-4.1C56.1,44.2,55.3,43,54.2,41.9z M52.7,55c-0.5,1.1-1.1,2-1.9,2.8
			c-0.8,0.8-1.7,1.4-2.7,1.9c-1,0.4-2.1,0.7-3.1,0.7c-0.7,0-1.3,0-1.7-0.1c-0.4-0.1-0.9-0.3-1.4-0.5c-0.4-0.1-0.8,0-1.3,0.1
			c-0.5,0.1-1,0.3-1.4,0.5c-0.4,0.2-0.7,0.5-1,0.8c-0.2,0.3-0.3,0.5-0.1,0.7c8.8,2.3,13.2,7.7,13.2,16.2c0,2-0.4,3.8-1.1,5.5
			c-0.7,1.7-1.8,3.2-3.2,4.4c-1.4,1.3-3.2,2.2-5.3,3c-2.1,0.7-4.4,1.1-7,1.1c-4.4,0-8.6-0.7-12.5-2.2c-4-1.5-7.4-3.3-10.4-5.5
			c1.9-0.1,3.7-0.5,5.5-1.2c1.8-0.8,3.6-2.1,5.3-4.1c1.7-2,3.3-4.7,4.9-8.2c1.6-3.5,3.2-8,4.7-13.5c1.1-4.1,2.3-7.6,3.9-10.5
			c1.5-2.9,3.2-5.4,5.2-7.4c4.2,0.8,7.3,2.2,9.3,4.4c2,2.2,3,4.7,3,7.5C53.5,52.7,53.2,53.9,52.7,55z"/>
		<path fill="#FFFFFF" stroke="#FFFFFF" stroke-width="0.5" stroke-miterlimit="10" d="M76.6,73c0-0.6-0.3-1.1-0.8-1.5
			c-0.5-0.4-1.1-0.5-1.8-0.5c-1.6,0-3.2,0.8-4.6,2.4c-1.4,1.6-2.7,3.8-3.9,6.6c0.3-1.2,0.5-2.3,0.7-3.5c0.2-1.2,0.3-2.2,0.3-3.1
			c0-1.6-0.6-2.5-1.9-2.5c-0.9,0-1.9,0.5-3,1.4c-1.1,0.9-2.1,1.9-2.9,3c-0.1,0.2-0.1,0.4,0.1,0.6c0.2,0.1,0.4,0.2,0.6,0
			c0.5-0.7,1.1-1.3,1.7-1.8c0.6-0.5,1.2-0.8,1.6-0.8c0.8,0,1.1,0.9,0.9,2.6c-0.2,1.2-0.4,2.4-0.7,3.9c-0.3,1.4-0.7,2.8-1.1,4.3
			c-0.4,1.5-0.9,2.9-1.4,4.3c-0.5,1.4-1,2.8-1.5,4c-0.4,0.6-0.2,1,0.4,1c0.5,0,1-0.1,1.7-0.3c0.7-0.2,1.1-0.6,1.2-1.1
			c1.5-5.4,3-9.7,4.6-12.7c1.6-3.1,3.5-4.6,5.5-4.6c1.3,0,2,0.5,2,1.5c0,0.4,0.2,0.5,0.5,0.3c0.4-0.4,0.7-0.9,1.1-1.6
			C76.4,74,76.6,73.4,76.6,73z"/>
		<path fill="#FFFFFF" stroke="#FFFFFF" stroke-width="0.5" stroke-miterlimit="10" d="M87.2,71c-1.5,0-3,0.5-4.3,1.6
			c-1.4,1-2.6,2.4-3.6,4c-1,1.6-1.9,3.4-2.5,5.4c-0.6,2-1,3.8-1,5.6c0,1.9,0.5,3.4,1.4,4.4c1,1,2.2,1.5,3.7,1.5
			c1.6,0,3.2-0.5,4.7-1.4c1.5-1,2.7-2.1,3.7-3.5c0.1-0.2,0.1-0.4,0-0.6c-0.1-0.2-0.3-0.2-0.5-0.1c-0.8,1-1.7,1.8-2.8,2.4
			c-1,0.6-2.1,0.9-3.3,0.9c-1.2,0-2.1-0.5-2.7-1.5c-0.6-1-1-2.2-1-3.7c0-0.8,0-1.5,0-2.1c0-0.6,0.1-1.3,0.1-1.9
			c1.6-0.4,3.1-0.8,4.5-1.3c1.4-0.5,2.7-1,3.8-1.5c1.1-0.6,2-1.2,2.6-1.9c0.6-0.7,1-1.5,1-2.3c0-1-0.4-1.9-1.1-2.7
			C89.2,71.4,88.3,71,87.2,71z M85.7,78.7c-1.3,0.8-3.4,1.4-6.2,1.8c0.5-2.5,1.2-4.3,2.3-5.5c1.1-1.2,2.2-1.8,3.6-1.8
			c0.7,0,1.3,0.3,1.7,0.8c0.4,0.5,0.6,1.2,0.6,2C87.6,77,87,77.9,85.7,78.7z"/>
		<path fill="#FFFFFF" stroke="#FFFFFF" stroke-width="0.5" stroke-miterlimit="10" d="M119.4,71.1c-0.2,0-0.5,0.1-0.9,0.3
			c-0.3,0.2-0.7,0.5-1.1,0.8c-0.4,0.3-0.7,0.7-1,1c-0.3,0.4-0.5,0.7-0.7,1c-0.1,0.5,0.1,0.7,0.5,0.6c1-0.8,1.9-0.9,2.8-0.3
			c0.9,0.6,1.4,2.1,1.4,4.4c0,1.6-0.3,3.1-0.8,4.5c-0.6,1.4-1.3,2.7-2.1,3.8c-0.8,1.1-1.8,1.9-2.8,2.6c-1.1,0.6-2.1,1-3.1,1
			c-2,0-3-1.4-3-4.2c0-2.2,0.2-4.5,0.7-7c0.5-2.5,1.2-4.8,2.1-6.7c0-0.2-0.1-0.2-0.4-0.2c-0.3,0.1-0.6,0.2-0.9,0.3
			c-0.4,0.2-0.7,0.4-1.1,0.7c-0.4,0.3-0.6,0.5-0.6,0.7c-0.3,1.1-0.6,2-0.8,2.6c-0.3,0.6-0.6,1.1-0.9,1.6c-0.9,1.2-1.9,2.6-3,4.1
			c-1.1,1.5-2.2,3.2-3.3,5.2c0.2-0.9,0.3-2,0.5-3.2c0.1-1.2,0.2-2.6,0.2-4.1c0-3.4-0.3-5.8-0.8-7.2c-0.5-1.4-1.3-2.1-2.5-2.1
			c-0.5,0-1,0.1-1.5,0.4c-0.5,0.3-1,0.6-1.5,0.9c-0.5,0.4-0.9,0.7-1.2,1.1c-0.3,0.4-0.6,0.7-0.7,1c-0.1,0.2,0,0.4,0.2,0.6
			c0.2,0.1,0.4,0.2,0.5,0c0.3-0.6,0.7-1.1,1.3-1.4c0.6-0.3,1-0.4,1.4-0.3c0.7,0.3,1.2,1.2,1.4,2.6c0.3,1.5,0.4,3.2,0.4,5.1
			c0,2-0.1,4-0.4,6c-0.3,2.1-0.6,3.8-1,5.2c-0.1,0.6,0.1,1,0.5,1c0.5,0,0.9-0.1,1.2-0.4c0.3-0.3,0.7-0.9,1.2-1.8
			c1.3-2.2,2.6-4.3,3.9-6.4c1.3-2.1,2.5-3.9,3.8-5.4c-0.2,0.6-0.3,1.3-0.5,2c-0.1,0.8-0.3,1.6-0.4,2.4c-0.1,0.8-0.2,1.7-0.3,2.5
			c-0.1,0.8-0.1,1.6-0.1,2.3c0,1.6,0.3,2.9,0.9,3.7c0.6,0.8,1.4,1.2,2.5,1.2c1.3,0,2.7-0.5,4.2-1.4c1.5-0.9,2.9-2.1,4.2-3.6
			c1.3-1.5,2.3-3.3,3.2-5.3c0.8-2,1.3-4.1,1.3-6.4c0-1.9-0.3-3.3-0.8-4.2C120.9,71.5,120.2,71.1,119.4,71.1z"/>
		<path fill="#FFFFFF" stroke="#FFFFFF" stroke-width="0.5" stroke-miterlimit="10" d="M138.5,71.5c-0.8-0.4-1.8-0.6-2.9-0.6
			c-1.9,0-3.5,0.5-4.6,1.6c-1.1,1-1.7,2.3-1.7,3.9c0,1,0.2,2,0.7,2.9c0.5,0.9,1.1,1.8,1.7,2.7c0.6,0.9,1.2,1.8,1.7,2.8
			c0.5,1,0.8,2,0.8,3.1c0,1.3-0.4,2.3-1.3,3.1c-0.8,0.8-2,1.2-3.5,1.2c-1,0-1.9-0.2-2.6-0.7c-0.7-0.5-1.2-1.2-1.4-2.2
			c-0.1-0.5-0.1-1,0.2-1.6c0.2-0.6,0.6-1.2,1-1.6c0.1-0.2,0.1-0.4,0-0.5c-0.1-0.2-0.3-0.2-0.5-0.1c-0.8,0.6-1.5,1.5-2.2,2.5
			c-0.6,1.1-1,1.8-1,2.4c0,0.7,0.6,1.4,1.8,2c1.2,0.6,2.7,1,4.5,1c2.6,0,4.6-0.6,5.9-1.9c1.3-1.3,2-2.9,2-4.7c0-1.2-0.3-2.2-0.7-3.2
			c-0.5-1-1.1-1.9-1.7-2.7c-0.6-0.8-1.2-1.7-1.7-2.5c-0.5-0.8-0.7-1.7-0.7-2.7c0-1.2,0.3-2,0.9-2.6c0.6-0.6,1.4-0.9,2.4-0.9
			c1.3,0,2.2,0.6,2.5,1.7c0.1,0.4,0.1,0.9,0.1,1.4c-0.1,0.5-0.2,1-0.3,1.4c-0.1,0.2,0,0.3,0.2,0.4c0.2,0.1,0.4,0.1,0.5,0
			c0.3-0.5,0.6-1.2,0.8-2c0.3-0.8,0.4-1.5,0.4-2.2C139.7,72.3,139.3,71.9,138.5,71.5z"/>
		<path fill="#FFFFFF" stroke="#FFFFFF" stroke-width="0.5" stroke-miterlimit="10" d="M148,80.8c0.6-1.5,1.2-3.1,1.9-4.7
			c0.7-1.6,1.5-3,2.2-4.4c0-0.5-0.2-0.8-0.7-0.8c-1.4,0.7-2.8,1.6-4.2,2.6c-1.4,1.1-2.5,2-3.3,2.8c-0.1,0.2-0.1,0.4,0,0.6
			c0.1,0.2,0.3,0.2,0.5,0.1c0.5-0.5,1.2-1.1,2.1-1.8c1-0.7,1.8-1.3,2.4-1.8c-0.7,1-1.4,2.3-2.1,3.8c-0.7,1.5-1.4,3-2,4.6
			c-0.6,1.6-1.1,3.1-1.4,4.7c-0.4,1.5-0.6,2.9-0.6,4c0,1.9,0.8,2.9,2.3,2.9c1.1,0,2.2-0.5,3.4-1.6c1.2-1,2.3-2.2,3.4-3.5
			c0.1-0.2,0.1-0.4-0.1-0.6c-0.2-0.2-0.3-0.2-0.4-0.1c-0.8,0.9-1.5,1.7-2.1,2.2c-0.6,0.6-1.2,0.8-1.9,0.8c-0.8,0-1.2-0.6-1.2-1.8
			c0-0.9,0.2-2.1,0.5-3.5C147,83.9,147.4,82.4,148,80.8z"/>
		<path fill="#FFFFFF" stroke="#FFFFFF" stroke-width="0.5" stroke-miterlimit="10" d="M167.1,71c-1.5,0-3,0.5-4.3,1.6
			c-1.4,1-2.6,2.4-3.7,4c-1.1,1.6-1.9,3.3-2.6,5.2c-0.6,1.9-1,3.6-1,5.3c0,2,0.4,3.6,1.2,4.7c0.8,1.1,1.9,1.7,3.3,1.7
			c1.2,0,2.4-0.5,3.8-1.5c1.4-1,2.6-2.3,3.8-3.9c1.2-1.6,2.1-3.4,2.9-5.4c0.8-2,1.1-4,1.1-6c0-1.7-0.4-3.1-1.1-4.1
			C169.9,71.5,168.7,71,167.1,71z M168.2,83.8c-0.4,1.3-0.9,2.5-1.5,3.5c-0.6,1-1.4,1.8-2.2,2.5c-0.8,0.6-1.7,0.9-2.6,0.9
			c-2.3,0-3.5-1.8-3.5-5.5c0-1.5,0.2-3,0.5-4.3c0.4-1.4,0.8-2.6,1.4-3.6c0.6-1,1.3-1.8,2.1-2.5c0.8-0.6,1.7-0.9,2.5-0.9
			c1.3,0,2.3,0.5,2.9,1.5c0.6,1,0.9,2.4,0.9,4.2C168.8,81,168.6,82.4,168.2,83.8z"/>
		<path fill="#FFFFFF" stroke="#FFFFFF" stroke-width="0.5" stroke-miterlimit="10" d="M197.9,87.8c-0.2-0.1-0.4-0.1-0.5,0
			c-1.5,2-2.9,3.1-4.1,3.1c-0.9,0-1.4-0.7-1.4-2.2c0-2,0.4-4.3,1.3-6.7c0.8-2.4,1.9-4.7,3.1-7c0.4-0.8,0.5-1.5,0.5-2.3
			c0-0.5-0.2-0.9-0.6-1.2c-0.4-0.4-0.9-0.5-1.6-0.5c-1,0-2.2,0.3-3.4,0.9c-1.2,0.6-2.4,1.4-3.6,2.4c-1.2,1-2.3,2.2-3.5,3.6
			c-1.1,1.4-2.1,2.9-2.9,4.5c0.5-1.4,0.9-2.8,1.3-4.2c0.4-1.4,0.7-2.8,1-4.1c0.5-2,0-3-1.5-3c-1.3,0-2.5,0.5-3.6,1.6
			c-1.1,1-2,2.1-2.6,3.1c-0.1,0.2,0,0.4,0.1,0.5c0.1,0.2,0.3,0.2,0.4,0.1c0.6-0.9,1.3-1.7,1.8-2.3c0.6-0.6,1.2-0.9,1.8-0.9
			c0.6,0,0.8,0.6,0.6,1.7c-0.8,3.1-1.8,6.2-2.8,9.4c-1.1,3.2-2.1,6-3.1,8.5c-0.2,0.5,0.1,0.8,0.7,0.8c0.5,0,1-0.1,1.5-0.3
			c0.5-0.2,0.8-0.5,1-0.8c2.2-6.4,4.6-11,7.2-14c2.6-3,5-4.5,7.1-4.5c0.6,0,0.9,0.3,0.9,1c0,0.4-0.1,0.8-0.4,1.2
			c-1.2,2.4-2.2,4.9-2.9,7.3c-0.7,2.4-1.1,4.6-1.1,6.6c0,2.3,0.9,3.5,2.7,3.5c1,0,2.2-0.5,3.4-1.5c1.2-1,2.3-2.2,3.3-3.5
			C198.1,88.1,198,87.9,197.9,87.8z"/>
	</g>
	<path fill="#FFFFFF" stroke="#FFFFFF" stroke-width="0.5" stroke-miterlimit="10" d="M219.7,48.2c0,0-0.1,1.1,0,0.2
		c0,0.4,0,0.1,0,0.9c-0.1,1.6-0.2,4-0.5,6.8c-0.3,2.8-0.7,6.1-1.4,9.5c-0.3,1.7-0.7,3.5-1.2,5.3c-0.2,0.9-0.5,1.8-0.7,2.7
		c-0.3,0.9-0.5,1.8-0.8,2.7c-0.3,0.9-0.6,1.8-0.9,2.6c-0.2,0.4-0.3,0.9-0.5,1.3c-0.2,0.4-0.4,0.9-0.5,1.3c-0.7,1.7-1.5,3.3-2.4,4.9
		c-0.4,0.8-0.9,1.5-1.3,2.2c-0.5,0.7-1,1.4-1.4,2c-0.5,0.6-1,1.2-1.5,1.8c-0.5,0.6-1,1.1-1.5,1.6c-0.5,0.5-1,1-1.5,1.4
		c-0.5,0.4-1,0.8-1.4,1.2c-0.2,0.2-0.4,0.4-0.6,0.5c-0.2,0.2-0.4,0.3-0.6,0.4c-0.4,0.3-0.8,0.5-1.1,0.8c-0.7,0.4-1.3,0.7-1.7,0.9
		c-0.4,0.2-0.6,0.3-0.6,0.3s0.2-0.1,0.6-0.3c0.4-0.2,1-0.5,1.7-0.9c0.4-0.2,0.7-0.5,1.2-0.7c0.2-0.1,0.4-0.3,0.7-0.4
		c0.2-0.2,0.4-0.3,0.7-0.5c0.5-0.4,1-0.7,1.5-1.1c0.5-0.4,1-0.9,1.5-1.4c0.5-0.5,1-1,1.6-1.6c0.5-0.6,1-1.2,1.6-1.8
		c0.5-0.7,1-1.3,1.5-2c0.5-0.7,1-1.4,1.5-2.2c0.9-1.5,1.8-3.1,2.7-4.8c0.2-0.4,0.4-0.8,0.6-1.3c0.2-0.4,0.4-0.9,0.6-1.3
		c0.4-0.9,0.7-1.8,1.1-2.6c0.4-0.9,0.6-1.8,1-2.7c0.3-0.9,0.6-1.8,0.9-2.7c0.5-1.8,1-3.6,1.4-5.3c0.8-3.5,1.4-6.8,1.8-9.6
		c0.4-2.8,0.7-5.2,0.8-6.9c0.1-0.8,0.1-1.5,0.1-1.9c0-0.5,0-0.7,0-0.7L219.7,48.2z"/>
</g>
</svg>
