<?xml version="1.0" encoding="utf-8"?>
<!-- Generator: Adobe Illustrator 18.0.0, SVG Export Plug-In . SVG Version: 6.00 Build 0)  -->
<!DOCTYPE svg PUBLIC "-//W3C//DTD SVG 1.1//EN" "http://www.w3.org/Graphics/SVG/1.1/DTD/svg11.dtd">
<svg version="1.1" xmlns="http://www.w3.org/2000/svg" xmlns:xlink="http://www.w3.org/1999/xlink" x="0px" y="0px"
	 viewBox="0 0 327 269.6" enable-background="new 0 0 327 269.6" xml:space="preserve">
<g id="Layer_2">
	<rect x="3.2" fill="#FFFFFF" width="323.3" height="269"/>
</g>
<g id="Layer_4">
</g>
<g id="Layer_3">
</g>
<g id="Layer_1">
	<path fill="#FFFFFF" stroke="#FFFFFF" stroke-width="0.5" stroke-miterlimit="10" d="M211.8,101.6"/>
	<path fill="#FFFFFF" stroke="#FFFFFF" stroke-width="0.5" stroke-miterlimit="10" d="M227.9,133.3"/>
	<path fill="#FFFFFF" stroke="#FFFFFF" stroke-width="0.5" stroke-miterlimit="10" d="M267.9,117.2c-1.3,0.6-2.7,1-4.1,1.3
		c-1.4,0.3-2.8,0.7-4.2,0.9c-1.4,0.3-2.8,0.5-4.2,0.7c-1.4,0.2-2.8,0.4-4.2,0.5l-4.3,0.4c-1.4,0.1-2.8,0.2-4.3,0.2l-4.3,0.2
		c-1.5,0-2.8,0-4.3,0l-4.3-0.2c-1.4-0.1-2.9-0.2-4.3-0.3c-1.4-0.2-2.9-0.3-4.3-0.5c-1.4-0.2-2.8-0.4-4.2-0.7
		c-1.4-0.2-2.8-0.6-4.2-0.9c-1.4-0.3-2.8-0.7-4.2-1c-1.4-0.4-2.8-0.8-4.1-1.3c-1.4-0.5-2.7-0.9-4.1-1.6l-2.9-1.3l3-1.3
		c0.9-0.4,1.6-0.6,2.5-0.9c0.8-0.3,1.6-0.6,2.5-0.8c1.6-0.5,3.3-0.9,5-1.3c1.7-0.4,3.4-0.7,5.1-1c0.8-0.2,1.7-0.3,2.6-0.4
		c0.8-0.1,1.7-0.2,2.6-0.3c1.7-0.2,3.4-0.3,5.1-0.4c0.9,0,1.7-0.1,2.6-0.1c0.9,0,1.7-0.1,2.6-0.1l2.6,0c0.9,0,1.7,0.1,2.6,0.1
		c1.7,0.1,3.4,0.2,5.1,0.4l0,0.3c-1.7,0.1-3.4,0.2-5.1,0.4c-1.7,0.1-3.4,0.3-5.1,0.5c-0.8,0.1-1.7,0.2-2.5,0.3
		c-0.8,0.1-1.7,0.2-2.5,0.3c-1.7,0.2-3.3,0.5-5,0.8c-3.3,0.6-6.6,1.3-9.9,2.1c-1.6,0.4-3.2,0.9-4.8,1.3c-0.8,0.2-1.6,0.5-2.4,0.7
		c-0.8,0.3-1.6,0.5-2.3,0.8l0.1-2.5c1.2,0.6,2.5,1.1,3.8,1.6c1.3,0.5,2.6,0.9,4,1.4c1.3,0.4,2.7,0.8,4,1.2c1.4,0.3,2.7,0.7,4.1,1
		c1.4,0.3,2.8,0.6,4.1,0.8c1.4,0.3,2.8,0.4,4.2,0.6c1.4,0.2,2.8,0.3,4.2,0.5l4.2,0.3c1.4,0,2.9,0.1,4.2,0.1l4.2,0c1.4,0,2.8,0,4.2,0
		l4.2-0.2c1.4,0,2.8-0.2,4.2-0.3c1.4-0.1,2.8-0.3,4.2-0.5c1.4-0.2,2.8-0.4,4.2-0.7c1.4-0.3,2.7-0.6,4.1-1.1L267.9,117.2z"/>
	<path fill="#FFFFFF" stroke="#FFFFFF" stroke-width="0.5" stroke-miterlimit="10" d="M197.6,116.4c0.1,1.7,0.4,4.1,0.8,6.9
		c0.2,1.5,0.5,3.1,0.8,4.8l1.7-1.9c-0.1-1.1-0.3-2.2-0.4-3.2c-0.3-2.8-0.4-5.2-0.5-6.8c0-0.8,0-1.5-0.1-1.9c0-0.4,0-0.7,0-0.7
		l-2.6,0c0,0,0,0.2,0,0.7C197.5,114.9,197.5,115.5,197.6,116.4z"/>
	<path fill="#FFFFFF" stroke="#FFFFFF" stroke-width="0.5" stroke-miterlimit="10" d="M224,116C224,116,224,116,224,116
		C224,116,224,116,224,116C224,116,224,116,224,116c0,0-0.1-0.1-0.2-0.1c-0.2-0.1-0.4-0.4-0.8-0.6c-0.7-0.6-1.6-1.4-2.8-2.6
		c-1.1-1.2-2.5-2.7-3.9-4.5c-1.4-1.8-2.9-4-4.2-6.6c-1.3-2.6-2.4-5.6-2.6-8.9c-0.1-1.7,0-3.4,0.5-5.2c0.5-1.7,1.3-3.4,2.4-4.9
		c2.2-3,5.2-5.4,8.6-7.2c1.8-0.9,3.6-1.5,5.6-1.9c1.9-0.3,3.9-0.3,5.9-0.1c3.9,0.4,7.5,1.7,11,2.9c3.5,1.3,6.9,2.6,10.2,3.6
		c3.3,1,6.6,1.7,9.8,1.8c3.2,0.2,6.2-0.2,8.8-1c2.7-0.8,5-1.8,7-3c1-0.6,2-1.1,2.4-1.9c0.2-0.4,0.2-0.8-0.1-1.1
		c-0.3-0.3-0.6-0.5-1-0.7c-0.7-0.3-1.5-0.3-2.1-0.1c-0.6,0.2-1,0.6-1.1,1c-0.1,0.4-0.1,0.8-0.1,1c0,0.2,0.1,0.3,0.1,0.3
		s0-0.1-0.1-0.3c0-0.2-0.1-0.6,0-1c0.1-0.4,0.5-0.9,1.1-1.1c0.6-0.2,1.4-0.3,2.2,0c0.4,0.1,0.8,0.3,1.2,0.7c0.2,0.2,0.3,0.4,0.3,0.7
		c0,0.3,0,0.6-0.1,0.8c-0.2,0.5-0.6,0.9-1.1,1.2c-0.4,0.3-0.9,0.6-1.4,1c-1.9,1.3-4.2,2.5-7,3.4c-2.7,0.9-5.8,1.5-9.2,1.4
		c-3.3-0.1-6.8-0.7-10.2-1.6c-3.4-1-6.9-2.2-10.4-3.4c-3.5-1.2-7-2.3-10.6-2.7c-1.8-0.2-3.6-0.2-5.4,0.1c-1.7,0.3-3.5,0.8-5,1.6
		c-3.2,1.7-6.1,3.8-8.1,6.5c-2,2.7-2.9,5.9-2.8,9c0.1,3.1,1,6,2.1,8.5c1.1,2.5,2.5,4.7,3.7,6.6c1.3,1.9,2.5,3.4,3.6,4.7
		c1.1,1.2,1.9,2.2,2.6,2.8c0.3,0.3,0.6,0.6,0.7,0.7C223.8,115.9,223.9,116,224,116C224,116,224,116,224,116C224,116,224,116,224,116
		z"/>
	<path fill="#FFFFFF" stroke="#FFFFFF" stroke-width="0.5" stroke-miterlimit="10" d="M229.3,117.3c0,0,0.2-0.1,0.2-0.4
		c0.1-0.3-0.1-0.8-0.4-1.3c-0.6-1-1.7-2.3-3-3.9c-1.3-1.6-2.8-3.4-4.3-5.6c-1.4-2.1-2.8-4.6-3.6-7.3c-0.4-1.3-0.6-2.8-0.7-4.2
		c0-1.4,0.2-2.8,0.7-4.1c0.4-1.3,1.1-2.4,1.9-3.3c0.7-1,1.6-1.8,2.4-2.4c0.8-0.7,1.6-1.2,2.3-1.6c0.7-0.4,1.3-0.8,1.9-1.1
		c0.5-0.3,1-0.5,1.3-0.6c0.3-0.1,0.4-0.2,0.4-0.2s-0.1,0.1-0.4,0.3c-0.3,0.2-0.7,0.4-1.2,0.8c-0.5,0.3-1.1,0.7-1.7,1.2
		c-0.7,0.5-1.3,1.1-2.1,1.8c-1.4,1.4-2.9,3.3-3.6,5.6c-0.2,0.6-0.3,1.2-0.4,1.8c-0.1,0.6-0.1,1.2-0.1,1.9c0,1.3,0.3,2.6,0.7,3.8
		c0.4,1.3,0.9,2.5,1.5,3.7c0.6,1.2,1.2,2.3,1.9,3.4c1.3,2.1,2.7,4.1,3.9,5.7c0.6,0.8,1.1,1.6,1.6,2.3c0.4,0.7,0.8,1.3,1.1,1.9
		c0.2,0.6,0.3,1.1,0.2,1.4C229.5,117.2,229.3,117.2,229.3,117.3z"/>
	<path fill="#FFFFFF" stroke="#FFFFFF" stroke-width="0.5" stroke-miterlimit="10" d="M248.2,116.5
		C248.2,116.5,248.2,116.5,248.2,116.5C248.3,116.5,248.3,116.5,248.2,116.5C248.2,116.5,248.2,116.4,248.2,116.5
		c-0.2-0.1-0.3-0.2-0.6-0.4c-0.5-0.3-1.2-0.8-1.8-1.6c-0.3-0.4-0.6-1-0.6-1.7c-0.1-0.7,0.1-1.4,0.5-2c0.8-1.3,2.1-2.4,3.7-3.3
		c1.5-0.9,3.3-1.7,5.2-2.5c0.9-0.4,1.9-0.7,2.9-1.1c0.9-0.4,1.8-1,2.5-1.7c0.7-0.7,0.9-1.6,0.7-2.6c-0.2-1-0.7-2-1.2-3
		c-0.5-1-1.1-2.1-1.3-3.4c-0.1-0.6-0.2-1.3,0-2c0.1-0.7,0.4-1.3,0.7-1.9c0.7-1.1,1.7-2,2.7-2.6c1-0.7,2.1-1.2,3.2-1.7
		c2.2-1,4.4-1.6,6.5-2.2c2.1-0.6,4.2-1.1,6.2-1.4c2-0.4,3.9-0.5,5.5-1.3c1.6-0.7,2.6-2.2,2.7-3.6c0.1-1.4-0.7-2.6-1.6-3.1
		c-0.9-0.5-1.8-0.5-2.3-0.4c-0.3,0-0.5,0.1-0.6,0.1c-0.1,0-0.2,0.1-0.2,0.1s0.1,0,0.2-0.1c0.1,0,0.3-0.1,0.6-0.1
		c0.5-0.1,1.4-0.1,2.3,0.4c0.9,0.5,1.8,1.7,1.7,3.2c0,0.7-0.3,1.5-0.8,2.2c-0.5,0.7-1.2,1.2-2,1.6c-0.8,0.4-1.7,0.7-2.6,0.9
		c-0.9,0.2-1.9,0.5-2.9,0.7c-1.9,0.5-4,1.1-6.1,1.8c-2.1,0.7-4.2,1.4-6.3,2.4c-1,0.5-2,1-3,1.7c-0.9,0.6-1.8,1.4-2.3,2.3
		c-0.5,0.9-0.7,1.9-0.5,3c0.2,1,0.7,2.1,1.2,3.1c0.5,1,1,2.1,1.3,3.4c0.1,0.6,0.1,1.3-0.1,2c-0.2,0.6-0.6,1.2-1,1.7
		c-1.8,1.7-4,2.3-5.9,2.9c-1.9,0.7-3.6,1.4-5.2,2.2c-1.5,0.8-2.9,1.7-3.6,2.9c-0.4,0.6-0.6,1.2-0.6,1.8c0,0.6,0.2,1.1,0.5,1.5
		c0.5,0.8,1.2,1.4,1.6,1.7C247.9,116.2,248.1,116.3,248.2,116.5C248.2,116.4,248.3,116.5,248.2,116.5
		C248.3,116.5,248.3,116.5,248.2,116.5C248.3,116.5,248.3,116.5,248.2,116.5C248.2,116.5,248.2,116.5,248.2,116.5z"/>
	<g>
		<path fill="#FFFFFF" stroke="#FFFFFF" stroke-width="0.5" stroke-miterlimit="10" d="M207.3,129c0.1-0.1,0.1-0.2-0.1-0.4
			c-0.2-0.1-0.4-0.2-0.5-0.1c-2.7,2.4-4.9,4.6-6.4,6.7c-0.2,0.2-0.3,0.5-0.3,0.9c0,0.3,0,0.7,0.1,0.9c0.1,0.3,0.2,0.5,0.3,0.6
			c0.1,0.1,0.3,0.1,0.5,0c0.8-1.5,1.8-3,2.9-4.6C204.9,131.4,206.1,130.1,207.3,129z"/>
		<path fill="#FFFFFF" stroke="#FFFFFF" stroke-width="0.5" stroke-miterlimit="10" d="M102.7,112.2c-1.1-1.1-2.5-2.1-4.2-2.9
			c-1.7-0.8-3.8-1.4-6.1-1.7c0.9-0.6,1.8-1.2,2.8-1.6c1-0.4,2-0.8,3-1.1c0.3-0.1,0.4-0.3,0.4-0.4c0-0.2-0.1-0.3-0.4-0.3
			c-2.9,0.7-5.4,1.8-7.5,3.2c-0.5-0.1-0.9-0.1-1.4-0.1c-0.4,0-0.9,0-1.4,0c-2.9,0-5.5,0.4-8,1.1c-2.5,0.8-4.7,1.8-6.7,3.1
			c-2,1.3-3.7,2.8-5.1,4.5c-1.4,1.7-2.5,3.4-3.2,5.3c-0.1,0.2,0,0.4,0.1,0.5c0.1,0.1,0.3,0.1,0.4,0c0.9-1.9,2-3.6,3.3-5.2
			c1.3-1.5,2.9-2.8,4.6-3.9c1.7-1,3.5-1.9,5.4-2.4c1.9-0.6,3.8-0.8,5.7-0.8c0.6,0,1.2,0,1.8,0c0.5,0,1.1,0.1,1.6,0.2
			c-2.5,2.2-4.5,5-6.3,8.2c-1.7,3.3-3.2,7.1-4.4,11.4c-1.2,4.4-2.4,8.1-3.5,11c-1.1,2.9-2.2,5.3-3.2,7.1c-1.1,1.8-2.2,3.2-3.4,4
			c-1.2,0.9-2.6,1.5-4.1,1.8c-1.6,0.3-2.9,0.3-4.1,0c-1.1-0.3-2.3-1.1-3.4-2.2c-0.3-0.2-0.8-0.2-1.3-0.1c-0.5,0.1-1,0.2-1.4,0.4
			c-0.4,0.2-0.8,0.4-1.1,0.7c-0.3,0.3-0.3,0.5-0.2,0.7c4.1,3.4,8.6,6.2,13.4,8.1c4.9,2,10.3,3,16.3,3c7.5,0,13.1-1.5,16.9-4.6
			c3.8-3.1,5.6-7.3,5.6-12.6c0-2.9-0.8-5.6-2.3-8.3c-1.5-2.7-3.9-4.8-7.3-6.3c1.5,0,2.9-0.3,4.3-0.9c1.4-0.6,2.7-1.4,3.8-2.5
			c1.1-1,2-2.3,2.7-3.8c0.7-1.5,1-3.1,1-4.8c0-1.4-0.3-2.8-0.8-4.1C104.7,114.6,103.9,113.3,102.7,112.2z M101.3,125.3
			c-0.5,1.1-1.1,2-1.9,2.8c-0.8,0.8-1.7,1.4-2.7,1.9c-1,0.4-2.1,0.7-3.1,0.7c-0.7,0-1.3,0-1.7-0.1c-0.4-0.1-0.9-0.3-1.4-0.5
			c-0.4-0.1-0.8,0-1.3,0.1c-0.5,0.1-1,0.3-1.4,0.5c-0.4,0.2-0.7,0.5-1,0.8c-0.2,0.3-0.3,0.5-0.1,0.7c8.8,2.3,13.2,7.7,13.2,16.2
			c0,2-0.4,3.8-1.1,5.5c-0.7,1.7-1.8,3.2-3.2,4.4c-1.4,1.3-3.2,2.2-5.3,3c-2.1,0.7-4.4,1.1-7,1.1c-4.4,0-8.6-0.7-12.5-2.2
			c-4-1.5-7.4-3.3-10.4-5.5c1.9-0.1,3.7-0.5,5.5-1.2c1.8-0.8,3.6-2.1,5.3-4.1c1.7-2,3.3-4.7,4.9-8.2c1.6-3.5,3.2-8,4.7-13.5
			c1.1-4.1,2.3-7.6,3.9-10.5c1.5-2.9,3.2-5.4,5.2-7.4c4.2,0.8,7.3,2.2,9.3,4.4c2,2.2,3,4.7,3,7.5C102,123,101.8,124.2,101.3,125.3z"
			/>
		<path fill="#FFFFFF" stroke="#FFFFFF" stroke-width="0.5" stroke-miterlimit="10" d="M125.2,143.3c0-0.6-0.3-1.1-0.8-1.5
			c-0.5-0.4-1.1-0.5-1.8-0.5c-1.6,0-3.2,0.8-4.6,2.4c-1.4,1.6-2.7,3.8-3.9,6.6c0.3-1.2,0.5-2.3,0.7-3.5c0.2-1.2,0.3-2.2,0.3-3.1
			c0-1.6-0.6-2.5-1.9-2.5c-0.9,0-1.9,0.5-3,1.4c-1.1,0.9-2.1,1.9-2.9,3c-0.1,0.2-0.1,0.4,0.1,0.6c0.2,0.1,0.4,0.2,0.6,0
			c0.5-0.7,1.1-1.3,1.7-1.8c0.6-0.5,1.2-0.8,1.6-0.8c0.8,0,1.1,0.9,0.9,2.6c-0.2,1.2-0.4,2.4-0.7,3.9c-0.3,1.4-0.7,2.8-1.1,4.3
			c-0.4,1.5-0.9,2.9-1.4,4.3c-0.5,1.4-1,2.8-1.5,4c-0.4,0.6-0.2,1,0.4,1c0.5,0,1-0.1,1.7-0.3c0.7-0.2,1.1-0.6,1.2-1.1
			c1.5-5.4,3-9.7,4.6-12.7c1.6-3.1,3.5-4.6,5.5-4.6c1.3,0,2,0.5,2,1.5c0,0.4,0.2,0.5,0.5,0.3c0.4-0.4,0.7-0.9,1.1-1.6
			C125,144.4,125.2,143.8,125.2,143.3z"/>
		<path fill="#FFFFFF" stroke="#FFFFFF" stroke-width="0.5" stroke-miterlimit="10" d="M135.8,141.3c-1.5,0-3,0.5-4.3,1.6
			c-1.4,1-2.6,2.4-3.6,4c-1,1.6-1.9,3.4-2.5,5.4c-0.6,2-1,3.8-1,5.6c0,1.9,0.5,3.4,1.4,4.4c1,1,2.2,1.5,3.7,1.5
			c1.6,0,3.2-0.5,4.7-1.4c1.5-1,2.7-2.1,3.7-3.5c0.1-0.2,0.1-0.4,0-0.6c-0.1-0.2-0.3-0.2-0.5-0.1c-0.8,1-1.7,1.8-2.8,2.4
			c-1,0.6-2.1,0.9-3.3,0.9c-1.2,0-2.1-0.5-2.7-1.5c-0.6-1-1-2.2-1-3.7c0-0.8,0-1.5,0-2.1c0-0.6,0.1-1.3,0.1-1.9
			c1.6-0.4,3.1-0.8,4.5-1.3c1.4-0.5,2.7-1,3.8-1.5c1.1-0.6,2-1.2,2.6-1.9c0.6-0.7,1-1.5,1-2.3c0-1-0.4-1.9-1.1-2.7
			C137.8,141.7,136.9,141.3,135.8,141.3z M134.2,149.1c-1.3,0.8-3.4,1.4-6.2,1.8c0.5-2.5,1.2-4.3,2.3-5.5c1.1-1.2,2.2-1.8,3.6-1.8
			c0.7,0,1.3,0.3,1.7,0.8c0.4,0.5,0.6,1.2,0.6,2C136.2,147.4,135.5,148.3,134.2,149.1z"/>
		<path fill="#FFFFFF" stroke="#FFFFFF" stroke-width="0.5" stroke-miterlimit="10" d="M168,141.4c-0.2,0-0.5,0.1-0.9,0.3
			c-0.3,0.2-0.7,0.5-1.1,0.8c-0.4,0.3-0.7,0.7-1,1c-0.3,0.4-0.5,0.7-0.7,1c-0.1,0.5,0.1,0.7,0.5,0.6c1-0.8,1.9-0.9,2.8-0.3
			c0.9,0.6,1.4,2.1,1.4,4.4c0,1.6-0.3,3.1-0.8,4.5c-0.6,1.4-1.3,2.7-2.1,3.8c-0.8,1.1-1.8,1.9-2.8,2.6c-1.1,0.6-2.1,1-3.1,1
			c-2,0-3-1.4-3-4.2c0-2.2,0.2-4.5,0.7-7c0.5-2.5,1.2-4.8,2.1-6.7c0-0.2-0.1-0.2-0.4-0.2c-0.3,0.1-0.6,0.2-0.9,0.3
			c-0.4,0.2-0.7,0.4-1.1,0.7c-0.4,0.3-0.6,0.5-0.6,0.7c-0.3,1.1-0.6,2-0.8,2.6c-0.3,0.6-0.6,1.1-0.9,1.6c-0.9,1.2-1.9,2.6-3,4.1
			c-1.1,1.5-2.2,3.2-3.3,5.2c0.2-0.9,0.3-2,0.5-3.2c0.1-1.2,0.2-2.6,0.2-4.1c0-3.4-0.3-5.8-0.8-7.2c-0.5-1.4-1.3-2.1-2.5-2.1
			c-0.5,0-1,0.1-1.5,0.4c-0.5,0.3-1,0.6-1.5,0.9c-0.5,0.4-0.9,0.7-1.2,1.1c-0.3,0.4-0.6,0.7-0.7,1c-0.1,0.2,0,0.4,0.2,0.6
			c0.2,0.1,0.4,0.2,0.5,0c0.3-0.6,0.7-1.1,1.3-1.4c0.6-0.3,1-0.4,1.4-0.3c0.7,0.3,1.2,1.2,1.4,2.6c0.3,1.5,0.4,3.2,0.4,5.1
			c0,2-0.1,4-0.4,6c-0.3,2.1-0.6,3.8-1,5.2c-0.1,0.6,0.1,1,0.5,1c0.5,0,0.9-0.1,1.2-0.4c0.3-0.3,0.7-0.9,1.2-1.8
			c1.3-2.2,2.6-4.3,3.9-6.4c1.3-2.1,2.5-3.9,3.8-5.4c-0.2,0.6-0.3,1.3-0.5,2c-0.1,0.8-0.3,1.6-0.4,2.4c-0.1,0.8-0.2,1.7-0.3,2.5
			c-0.1,0.8-0.1,1.6-0.1,2.3c0,1.6,0.3,2.9,0.9,3.7c0.6,0.8,1.4,1.2,2.5,1.2c1.3,0,2.7-0.5,4.2-1.4c1.5-0.9,2.9-2.1,4.2-3.6
			c1.3-1.5,2.3-3.3,3.2-5.3c0.8-2,1.3-4.1,1.3-6.4c0-1.9-0.3-3.3-0.8-4.2C169.5,141.9,168.8,141.4,168,141.4z"/>
		<path fill="#FFFFFF" stroke="#FFFFFF" stroke-width="0.5" stroke-miterlimit="10" d="M187.1,141.9c-0.8-0.4-1.8-0.6-2.9-0.6
			c-1.9,0-3.5,0.5-4.6,1.6c-1.1,1-1.7,2.3-1.7,3.9c0,1,0.2,2,0.7,2.9c0.5,0.9,1.1,1.8,1.7,2.7c0.6,0.9,1.2,1.8,1.7,2.8
			c0.5,1,0.8,2,0.8,3.1c0,1.3-0.4,2.3-1.3,3.1c-0.8,0.8-2,1.2-3.5,1.2c-1,0-1.9-0.2-2.6-0.7c-0.7-0.5-1.2-1.2-1.4-2.2
			c-0.1-0.5-0.1-1,0.2-1.6c0.2-0.6,0.6-1.2,1-1.6c0.1-0.2,0.1-0.4,0-0.5c-0.1-0.2-0.3-0.2-0.5-0.1c-0.8,0.6-1.5,1.5-2.2,2.5
			c-0.6,1.1-1,1.8-1,2.4c0,0.7,0.6,1.4,1.8,2c1.2,0.6,2.7,1,4.5,1c2.6,0,4.6-0.6,5.9-1.9c1.3-1.3,2-2.9,2-4.7c0-1.2-0.3-2.2-0.7-3.2
			c-0.5-1-1.1-1.9-1.7-2.7c-0.6-0.8-1.2-1.7-1.7-2.5c-0.5-0.8-0.7-1.7-0.7-2.7c0-1.2,0.3-2,0.9-2.6c0.6-0.6,1.4-0.9,2.4-0.9
			c1.3,0,2.2,0.6,2.5,1.7c0.1,0.4,0.1,0.9,0.1,1.4c-0.1,0.5-0.2,1-0.3,1.4c-0.1,0.2,0,0.3,0.2,0.4c0.2,0.1,0.4,0.1,0.5,0
			c0.3-0.5,0.6-1.2,0.8-2c0.3-0.8,0.4-1.5,0.4-2.2C188.3,142.7,187.9,142.3,187.1,141.9z"/>
		<path fill="#FFFFFF" stroke="#FFFFFF" stroke-width="0.5" stroke-miterlimit="10" d="M196.6,151.2c0.6-1.5,1.2-3.1,1.9-4.7
			c0.7-1.6,1.5-3,2.2-4.4c0-0.5-0.2-0.8-0.7-0.8c-1.4,0.7-2.8,1.6-4.2,2.6c-1.4,1.1-2.5,2-3.3,2.8c-0.1,0.2-0.1,0.4,0,0.6
			c0.1,0.2,0.3,0.2,0.5,0.1c0.5-0.5,1.2-1.1,2.1-1.8c1-0.7,1.8-1.3,2.4-1.8c-0.7,1-1.4,2.3-2.1,3.8c-0.7,1.5-1.4,3-2,4.6
			c-0.6,1.6-1.1,3.1-1.4,4.7c-0.4,1.5-0.6,2.9-0.6,4c0,1.9,0.8,2.9,2.3,2.9c1.1,0,2.2-0.5,3.4-1.6c1.2-1,2.3-2.2,3.4-3.5
			c0.1-0.2,0.1-0.4-0.1-0.6c-0.2-0.2-0.3-0.2-0.4-0.1c-0.8,0.9-1.5,1.7-2.1,2.2c-0.6,0.6-1.2,0.8-1.9,0.8c-0.8,0-1.2-0.6-1.2-1.8
			c0-0.9,0.2-2.1,0.5-3.5C195.6,154.2,196,152.7,196.6,151.2z"/>
		<path fill="#FFFFFF" stroke="#FFFFFF" stroke-width="0.5" stroke-miterlimit="10" d="M215.7,141.3c-1.5,0-3,0.5-4.3,1.6
			c-1.4,1-2.6,2.4-3.7,4c-1.1,1.6-1.9,3.3-2.6,5.2c-0.6,1.9-1,3.6-1,5.3c0,2,0.4,3.6,1.2,4.7c0.8,1.1,1.9,1.7,3.3,1.7
			c1.2,0,2.4-0.5,3.8-1.5c1.4-1,2.6-2.3,3.8-3.9c1.2-1.6,2.1-3.4,2.9-5.4c0.8-2,1.1-4,1.1-6c0-1.7-0.4-3.1-1.1-4.1
			C218.4,141.8,217.3,141.3,215.7,141.3z M216.8,154.1c-0.4,1.3-0.9,2.5-1.5,3.5c-0.6,1-1.4,1.8-2.2,2.5c-0.8,0.6-1.7,0.9-2.6,0.9
			c-2.3,0-3.5-1.8-3.5-5.5c0-1.5,0.2-3,0.5-4.3c0.4-1.4,0.8-2.6,1.4-3.6c0.6-1,1.3-1.8,2.1-2.5c0.8-0.6,1.7-0.9,2.5-0.9
			c1.3,0,2.3,0.5,2.9,1.5c0.6,1,0.9,2.4,0.9,4.2C217.4,151.3,217.2,152.7,216.8,154.1z"/>
		<path fill="#FFFFFF" stroke="#FFFFFF" stroke-width="0.5" stroke-miterlimit="10" d="M246.4,158.1c-0.2-0.1-0.4-0.1-0.5,0
			c-1.5,2-2.9,3.1-4.1,3.1c-0.9,0-1.4-0.7-1.4-2.2c0-2,0.4-4.3,1.3-6.7c0.8-2.4,1.9-4.7,3.1-7c0.4-0.8,0.5-1.5,0.5-2.3
			c0-0.5-0.2-0.9-0.6-1.2c-0.4-0.4-0.9-0.5-1.6-0.5c-1,0-2.2,0.3-3.4,0.9c-1.2,0.6-2.4,1.4-3.6,2.4c-1.2,1-2.3,2.2-3.5,3.6
			c-1.1,1.4-2.1,2.9-2.9,4.5c0.5-1.4,0.9-2.8,1.3-4.2c0.4-1.4,0.7-2.8,1-4.1c0.5-2,0-3-1.5-3c-1.3,0-2.5,0.5-3.6,1.6
			c-1.1,1-2,2.1-2.6,3.1c-0.1,0.2,0,0.4,0.1,0.5c0.1,0.2,0.3,0.2,0.4,0.1c0.6-0.9,1.3-1.7,1.8-2.3c0.6-0.6,1.2-0.9,1.8-0.9
			c0.6,0,0.8,0.6,0.6,1.7c-0.8,3.1-1.8,6.2-2.8,9.4c-1.1,3.2-2.1,6-3.1,8.5c-0.2,0.5,0.1,0.8,0.7,0.8c0.5,0,1-0.1,1.5-0.3
			c0.5-0.2,0.8-0.5,1-0.8c2.2-6.4,4.6-11,7.2-14c2.6-3,5-4.5,7.1-4.5c0.6,0,0.9,0.3,0.9,1c0,0.4-0.1,0.8-0.4,1.2
			c-1.2,2.4-2.2,4.9-2.9,7.3c-0.7,2.4-1.1,4.6-1.1,6.6c0,2.3,0.9,3.5,2.7,3.5c1,0,2.2-0.5,3.4-1.5c1.2-1,2.3-2.2,3.3-3.5
			C246.7,158.4,246.6,158.2,246.4,158.1z"/>
	</g>
	<path fill="#FFFFFF" stroke="#FFFFFF" stroke-width="0.5" stroke-miterlimit="10" d="M268.3,118.5c0,0-0.1,1.1,0,0.2
		c0,0.4,0,0.1,0,0.9c-0.1,1.6-0.2,4-0.5,6.8c-0.3,2.8-0.7,6.1-1.4,9.5c-0.3,1.7-0.7,3.5-1.2,5.3c-0.2,0.9-0.5,1.8-0.7,2.7
		c-0.3,0.9-0.5,1.8-0.8,2.7c-0.3,0.9-0.6,1.8-0.9,2.6c-0.2,0.4-0.3,0.9-0.5,1.3c-0.2,0.4-0.4,0.9-0.5,1.3c-0.7,1.7-1.5,3.3-2.4,4.9
		c-0.4,0.8-0.9,1.5-1.3,2.2c-0.5,0.7-1,1.4-1.4,2c-0.5,0.6-1,1.2-1.5,1.8c-0.5,0.6-1,1.1-1.5,1.6c-0.5,0.5-1,1-1.5,1.4
		c-0.5,0.4-1,0.8-1.4,1.2c-0.2,0.2-0.4,0.4-0.6,0.5c-0.2,0.2-0.4,0.3-0.6,0.4c-0.4,0.3-0.8,0.5-1.1,0.8c-0.7,0.4-1.3,0.7-1.7,0.9
		c-0.4,0.2-0.6,0.3-0.6,0.3s0.2-0.1,0.6-0.3c0.4-0.2,1-0.5,1.7-0.9c0.4-0.2,0.7-0.5,1.2-0.7c0.2-0.1,0.4-0.3,0.7-0.4
		c0.2-0.2,0.4-0.3,0.7-0.5c0.5-0.4,1-0.7,1.5-1.1c0.5-0.4,1-0.9,1.5-1.4c0.5-0.5,1-1,1.6-1.6c0.5-0.6,1-1.2,1.6-1.8
		c0.5-0.7,1-1.3,1.5-2c0.5-0.7,1-1.4,1.5-2.2c0.9-1.5,1.8-3.1,2.7-4.8c0.2-0.4,0.4-0.8,0.6-1.3c0.2-0.4,0.4-0.9,0.6-1.3
		c0.4-0.9,0.7-1.8,1.1-2.6c0.4-0.9,0.6-1.8,1-2.7c0.3-0.9,0.6-1.8,0.9-2.7c0.5-1.8,1-3.6,1.4-5.3c0.8-3.5,1.4-6.8,1.8-9.6
		c0.4-2.8,0.7-5.2,0.8-6.9c0.1-0.8,0.1-1.5,0.1-1.9c0-0.5,0-0.7,0-0.7L268.3,118.5z"/>
</g>
</svg>
