<?xml version="1.0" encoding="utf-8"?>
<!-- Generator: Adobe Illustrator 18.0.0, SVG Export Plug-In . SVG Version: 6.00 Build 0)  -->
<!DOCTYPE svg PUBLIC "-//W3C//DTD SVG 1.1//EN" "http://www.w3.org/Graphics/SVG/1.1/DTD/svg11.dtd">
<svg version="1.1" xmlns="http://www.w3.org/2000/svg" xmlns:xlink="http://www.w3.org/1999/xlink" x="0px" y="0px"
	 viewBox="0 0 327 269.6" enable-background="new 0 0 327 269.6" xml:space="preserve">
<g id="Layer_2">
	<rect x="3.2" fill="#FFFFFF" width="323.3" height="269"/>
</g>
<g id="Layer_4">
</g>
<g id="Layer_3">
</g>
<g id="Layer_1">
	<linearGradient id="SVGID_1_" gradientUnits="userSpaceOnUse" x1="209.9419" y1="166.9268" x2="209.9419" y2="113.6553">
		<stop  offset="0" style="stop-color:#F7941E"/>
		<stop  offset="0.3414" style="stop-color:#BD7428"/>
		<stop  offset="0.7791" style="stop-color:#87572A"/>
		<stop  offset="1" style="stop-color:#754C29"/>
	</linearGradient>
	<path fill="url(#SVGID_1_)" d="M200,113.7c0,0,0,0.2,0,0.7c0,0.4,0,1.1,0.1,1.9c0.1,1.6,0.2,4,0.5,6.8c0.3,2.8,0.7,6.1,1.4,9.6
		c0.3,1.7,0.7,3.5,1.2,5.3c0.2,0.9,0.5,1.8,0.7,2.7c0.3,0.9,0.5,1.8,0.8,2.7c0.3,0.9,0.6,1.8,1,2.7c0.2,0.4,0.3,0.9,0.5,1.3
		c0.2,0.4,0.4,0.9,0.6,1.3c0.7,1.7,1.6,3.3,2.4,4.9c0.4,0.8,0.9,1.5,1.3,2.2c0.5,0.7,1,1.4,1.4,2.1c0.5,0.6,1,1.3,1.5,1.9
		c0.5,0.6,1,1.1,1.5,1.6c0.5,0.5,1,1,1.5,1.4c0.5,0.5,1,0.8,1.4,1.2c0.2,0.2,0.4,0.4,0.7,0.5c0.2,0.2,0.4,0.3,0.6,0.4
		c0.4,0.3,0.8,0.5,1.1,0.8c0.7,0.4,1.3,0.7,1.7,1c0.4,0.2,0.6,0.3,0.6,0.3s-0.2-0.1-0.6-0.3c-0.4-0.2-1-0.5-1.7-0.9
		c-0.4-0.2-0.8-0.5-1.2-0.7c-0.2-0.1-0.4-0.3-0.7-0.4c-0.2-0.2-0.4-0.3-0.7-0.5c-0.5-0.4-1-0.7-1.5-1.1c-0.5-0.4-1-0.9-1.6-1.4
		c-0.5-0.5-1-1-1.6-1.6c-0.5-0.6-1-1.2-1.6-1.8c-0.5-0.7-1-1.3-1.5-2c-0.5-0.7-1-1.4-1.5-2.2c-0.9-1.5-1.9-3.2-2.7-4.9
		c-0.2-0.4-0.4-0.9-0.6-1.3c-0.2-0.4-0.4-0.9-0.6-1.3c-0.4-0.9-0.7-1.8-1.1-2.7c-0.4-0.9-0.7-1.8-1-2.7c-0.3-0.9-0.6-1.8-0.9-2.7
		c-0.5-1.8-1-3.6-1.4-5.4c-0.8-3.5-1.4-6.8-1.8-9.7c-0.4-2.9-0.7-5.3-0.8-6.9c-0.1-0.8-0.1-1.5-0.1-2c0-0.5,0-0.7,0-0.7L200,113.7z"
		/>
	<linearGradient id="SVGID_2_" gradientUnits="userSpaceOnUse" x1="211.8174" y1="101.6035" x2="211.8174" y2="101.6035">
		<stop  offset="0" style="stop-color:#F7941E"/>
		<stop  offset="0.3414" style="stop-color:#BD7428"/>
		<stop  offset="0.7791" style="stop-color:#87572A"/>
		<stop  offset="1" style="stop-color:#754C29"/>
	</linearGradient>
	<path fill="url(#SVGID_2_)" d="M211.8,101.6"/>
	<linearGradient id="SVGID_3_" gradientUnits="userSpaceOnUse" x1="227.8525" y1="133.2915" x2="227.8525" y2="133.2915">
		<stop  offset="0" style="stop-color:#F7941E"/>
		<stop  offset="0.3414" style="stop-color:#BD7428"/>
		<stop  offset="0.7791" style="stop-color:#87572A"/>
		<stop  offset="1" style="stop-color:#754C29"/>
	</linearGradient>
	<path fill="url(#SVGID_3_)" d="M227.9,133.3"/>
	<linearGradient id="SVGID_4_" gradientUnits="userSpaceOnUse" x1="240.7572" y1="101.3926" x2="224.5885" y2="129.3976">
		<stop  offset="0" style="stop-color:#F7941E"/>
		<stop  offset="0.3414" style="stop-color:#BD7428"/>
		<stop  offset="0.7791" style="stop-color:#87572A"/>
		<stop  offset="1" style="stop-color:#754C29"/>
	</linearGradient>
	<path fill="url(#SVGID_4_)" d="M267.9,117.2c-1.3,0.6-2.7,1-4.1,1.3c-1.4,0.3-2.8,0.7-4.2,0.9c-1.4,0.3-2.8,0.5-4.2,0.7
		c-1.4,0.2-2.8,0.4-4.2,0.5l-4.3,0.4c-1.4,0.1-2.8,0.2-4.3,0.2l-4.3,0.2c-1.5,0-2.8,0-4.3,0l-4.3-0.2c-1.4-0.1-2.9-0.2-4.3-0.3
		c-1.4-0.2-2.9-0.3-4.3-0.5c-1.4-0.2-2.8-0.4-4.2-0.7c-1.4-0.2-2.8-0.6-4.2-0.9c-1.4-0.3-2.8-0.7-4.2-1c-1.4-0.4-2.8-0.8-4.1-1.3
		c-1.4-0.5-2.7-0.9-4.1-1.6l-2.9-1.3l3-1.3c0.9-0.4,1.6-0.6,2.5-0.9c0.8-0.3,1.6-0.6,2.5-0.8c1.6-0.5,3.3-0.9,5-1.3
		c1.7-0.4,3.4-0.7,5.1-1c0.8-0.2,1.7-0.3,2.6-0.4c0.8-0.1,1.7-0.2,2.6-0.3c1.7-0.2,3.4-0.3,5.1-0.4c0.9,0,1.7-0.1,2.6-0.1
		c0.9,0,1.7-0.1,2.6-0.1l2.6,0c0.9,0,1.7,0.1,2.6,0.1c1.7,0.1,3.4,0.2,5.1,0.4l0,0.3c-1.7,0.1-3.4,0.2-5.1,0.4
		c-1.7,0.1-3.4,0.3-5.1,0.5c-0.8,0.1-1.7,0.2-2.5,0.3c-0.8,0.1-1.7,0.2-2.5,0.3c-1.7,0.2-3.3,0.5-5,0.8c-3.3,0.6-6.6,1.3-9.9,2.1
		c-1.6,0.4-3.2,0.9-4.8,1.3c-0.8,0.2-1.6,0.5-2.4,0.7c-0.8,0.3-1.6,0.5-2.3,0.8l0.1-2.5c1.2,0.6,2.5,1.1,3.8,1.6
		c1.3,0.5,2.6,0.9,4,1.4c1.3,0.4,2.7,0.8,4,1.2c1.4,0.3,2.7,0.7,4.1,1c1.4,0.3,2.8,0.6,4.1,0.8c1.4,0.3,2.8,0.4,4.2,0.6
		c1.4,0.2,2.8,0.3,4.2,0.5l4.2,0.3c1.4,0,2.9,0.1,4.2,0.1l4.2,0c1.4,0,2.8,0,4.2,0l4.2-0.2c1.4,0,2.8-0.2,4.2-0.3
		c1.4-0.1,2.8-0.3,4.2-0.5c1.4-0.2,2.8-0.4,4.2-0.7c1.4-0.3,2.7-0.6,4.1-1.1L267.9,117.2z"/>
	<polygon fill="#FFFFFF" points="269.4,218.9 180.5,171.9 177.7,172 129.2,124.7 138,107.2 196.9,123.5 201.3,123.6 250.6,178.6 
		252.4,178.6 286.1,167.8 	"/>
	<linearGradient id="SVGID_5_" gradientUnits="userSpaceOnUse" x1="257.9738" y1="60.5672" x2="225.4682" y2="116.8684">
		<stop  offset="0" style="stop-color:#F7941E"/>
		<stop  offset="0.3414" style="stop-color:#BD7428"/>
		<stop  offset="0.7791" style="stop-color:#87572A"/>
		<stop  offset="1" style="stop-color:#754C29"/>
	</linearGradient>
	<path fill="url(#SVGID_5_)" d="M224,116C224,116,224,116,224,116C224,116,224,116,224,116C224,116,224,116,224,116
		c0,0-0.1-0.1-0.2-0.1c-0.2-0.1-0.4-0.4-0.8-0.6c-0.7-0.6-1.6-1.4-2.8-2.6c-1.1-1.2-2.5-2.7-3.9-4.5c-1.4-1.8-2.9-4-4.2-6.6
		c-1.3-2.6-2.4-5.6-2.6-8.9c-0.1-1.7,0-3.4,0.5-5.2c0.5-1.7,1.3-3.4,2.4-4.9c2.2-3,5.2-5.4,8.6-7.2c1.8-0.9,3.6-1.5,5.6-1.9
		c1.9-0.3,3.9-0.3,5.9-0.1c3.9,0.4,7.5,1.7,11,2.9c3.5,1.3,6.9,2.6,10.2,3.6c3.3,1,6.6,1.7,9.8,1.8c3.2,0.2,6.2-0.2,8.8-1
		c2.7-0.8,5-1.8,7-3c1-0.6,2-1.1,2.4-1.9c0.2-0.4,0.2-0.8-0.1-1.1c-0.3-0.3-0.6-0.5-1-0.7c-0.7-0.3-1.5-0.3-2.1-0.1
		c-0.6,0.2-1,0.6-1.1,1c-0.1,0.4-0.1,0.8-0.1,1c0,0.2,0.1,0.3,0.1,0.3s0-0.1-0.1-0.3c0-0.2-0.1-0.6,0-1c0.1-0.4,0.5-0.9,1.1-1.1
		c0.6-0.2,1.4-0.3,2.2,0c0.4,0.1,0.8,0.3,1.2,0.7c0.2,0.2,0.3,0.4,0.3,0.7c0,0.3,0,0.6-0.1,0.8c-0.2,0.5-0.6,0.9-1.1,1.2
		c-0.4,0.3-0.9,0.6-1.4,1c-1.9,1.3-4.2,2.5-7,3.4c-2.7,0.9-5.8,1.5-9.2,1.4c-3.3-0.1-6.8-0.7-10.2-1.6c-3.4-1-6.9-2.2-10.4-3.4
		c-3.5-1.2-7-2.3-10.6-2.7c-1.8-0.2-3.6-0.2-5.4,0.1c-1.7,0.3-3.5,0.8-5,1.6c-3.2,1.7-6.1,3.8-8.1,6.5c-2,2.7-2.9,5.9-2.8,9
		c0.1,3.1,1,6,2.1,8.5c1.1,2.5,2.5,4.7,3.7,6.6c1.3,1.9,2.5,3.4,3.6,4.7c1.1,1.2,1.9,2.2,2.6,2.8c0.3,0.3,0.6,0.6,0.7,0.7
		C223.8,115.9,223.9,116,224,116C224,116,224,116,224,116C224,116,224,116,224,116z"/>
	<linearGradient id="SVGID_6_" gradientUnits="userSpaceOnUse" x1="234.6952" y1="85.0021" x2="219.3905" y2="111.5107">
		<stop  offset="0" style="stop-color:#F7941E"/>
		<stop  offset="0.3414" style="stop-color:#BD7428"/>
		<stop  offset="0.7791" style="stop-color:#87572A"/>
		<stop  offset="1" style="stop-color:#754C29"/>
	</linearGradient>
	<path fill="url(#SVGID_6_)" d="M229.3,117.3c0,0,0.2-0.1,0.2-0.4c0.1-0.3-0.1-0.8-0.4-1.3c-0.6-1-1.7-2.3-3-3.9
		c-1.3-1.6-2.8-3.4-4.3-5.6c-1.4-2.1-2.8-4.6-3.6-7.3c-0.4-1.3-0.6-2.8-0.7-4.2c0-1.4,0.2-2.8,0.7-4.1c0.4-1.3,1.1-2.4,1.9-3.3
		c0.7-1,1.6-1.8,2.4-2.4c0.8-0.7,1.6-1.2,2.3-1.6c0.7-0.4,1.3-0.8,1.9-1.1c0.5-0.3,1-0.5,1.3-0.6c0.3-0.1,0.4-0.2,0.4-0.2
		s-0.1,0.1-0.4,0.3c-0.3,0.2-0.7,0.4-1.2,0.8c-0.5,0.3-1.1,0.7-1.7,1.2c-0.7,0.5-1.3,1.1-2.1,1.8c-1.4,1.4-2.9,3.3-3.6,5.6
		c-0.2,0.6-0.3,1.2-0.4,1.8c-0.1,0.6-0.1,1.2-0.1,1.9c0,1.3,0.3,2.6,0.7,3.8c0.4,1.3,0.9,2.5,1.5,3.7c0.6,1.2,1.2,2.3,1.9,3.4
		c1.3,2.1,2.7,4.1,3.9,5.7c0.6,0.8,1.1,1.6,1.6,2.3c0.4,0.7,0.8,1.3,1.1,1.9c0.2,0.6,0.3,1.1,0.2,1.4
		C229.5,117.2,229.3,117.2,229.3,117.3z"/>
	<linearGradient id="SVGID_7_" gradientUnits="userSpaceOnUse" x1="279.2758" y1="70.5933" x2="251.6438" y2="118.4534">
		<stop  offset="0" style="stop-color:#F7941E"/>
		<stop  offset="0.3414" style="stop-color:#BD7428"/>
		<stop  offset="0.7791" style="stop-color:#87572A"/>
		<stop  offset="1" style="stop-color:#754C29"/>
	</linearGradient>
	<path fill="url(#SVGID_7_)" d="M248.2,116.5C248.2,116.5,248.2,116.5,248.2,116.5C248.3,116.5,248.3,116.5,248.2,116.5
		C248.2,116.5,248.2,116.4,248.2,116.5c-0.2-0.1-0.3-0.2-0.6-0.4c-0.5-0.3-1.2-0.8-1.8-1.6c-0.3-0.4-0.6-1-0.6-1.7
		c-0.1-0.7,0.1-1.4,0.5-2c0.8-1.3,2.1-2.4,3.7-3.3c1.5-0.9,3.3-1.7,5.2-2.5c0.9-0.4,1.9-0.7,2.9-1.1c0.9-0.4,1.8-1,2.5-1.7
		c0.7-0.7,0.9-1.6,0.7-2.6c-0.2-1-0.7-2-1.2-3c-0.5-1-1.1-2.1-1.3-3.4c-0.1-0.6-0.2-1.3,0-2c0.1-0.7,0.4-1.3,0.7-1.9
		c0.7-1.1,1.7-2,2.7-2.6c1-0.7,2.1-1.2,3.2-1.7c2.2-1,4.4-1.6,6.5-2.2c2.1-0.6,4.2-1.1,6.2-1.4c2-0.4,3.9-0.5,5.5-1.3
		c1.6-0.7,2.6-2.2,2.7-3.6c0.1-1.4-0.7-2.6-1.6-3.1c-0.9-0.5-1.8-0.5-2.3-0.4c-0.3,0-0.5,0.1-0.6,0.1c-0.1,0-0.2,0.1-0.2,0.1
		s0.1,0,0.2-0.1c0.1,0,0.3-0.1,0.6-0.1c0.5-0.1,1.4-0.1,2.3,0.4c0.9,0.5,1.8,1.7,1.7,3.2c0,0.7-0.3,1.5-0.8,2.2
		c-0.5,0.7-1.2,1.2-2,1.6c-0.8,0.4-1.7,0.7-2.6,0.9c-0.9,0.2-1.9,0.5-2.9,0.7c-1.9,0.5-4,1.1-6.1,1.8c-2.1,0.7-4.2,1.4-6.3,2.4
		c-1,0.5-2,1-3,1.7c-0.9,0.6-1.8,1.4-2.3,2.3c-0.5,0.9-0.7,1.9-0.5,3c0.2,1,0.7,2.1,1.2,3.1c0.5,1,1,2.1,1.3,3.4
		c0.1,0.6,0.1,1.3-0.1,2c-0.2,0.6-0.6,1.2-1,1.7c-1.8,1.7-4,2.3-5.9,2.9c-1.9,0.7-3.6,1.4-5.2,2.2c-1.5,0.8-2.9,1.7-3.6,2.9
		c-0.4,0.6-0.6,1.2-0.6,1.8c0,0.6,0.2,1.1,0.5,1.5c0.5,0.8,1.2,1.4,1.6,1.7C247.9,116.2,248.1,116.3,248.2,116.5
		C248.2,116.4,248.3,116.5,248.2,116.5C248.3,116.5,248.3,116.5,248.2,116.5C248.3,116.5,248.3,116.5,248.2,116.5
		C248.2,116.5,248.2,116.5,248.2,116.5z"/>
	<g>
		<path fill="#603913" d="M192.6,113.2c0.1-0.1,0.1-0.2-0.1-0.4c-0.2-0.1-0.4-0.2-0.5-0.1c-2.7,2.4-4.9,4.6-6.4,6.7
			c-0.2,0.2-0.3,0.5-0.3,0.9c0,0.3,0,0.7,0.1,0.9c0.1,0.3,0.2,0.5,0.3,0.6c0.1,0.1,0.3,0.1,0.5,0c0.8-1.5,1.8-3,2.9-4.6
			C190.2,115.7,191.4,114.3,192.6,113.2z"/>
		<path fill="#603913" d="M88.1,96.5c-1.1-1.1-2.5-2.1-4.2-2.9c-1.7-0.8-3.8-1.4-6.1-1.7c0.9-0.6,1.8-1.2,2.8-1.6c1-0.4,2-0.8,3-1.1
			c0.3-0.1,0.4-0.3,0.4-0.4c0-0.2-0.1-0.3-0.4-0.3c-2.9,0.7-5.4,1.8-7.5,3.2c-0.5-0.1-0.9-0.1-1.4-0.1c-0.4,0-0.9,0-1.4,0
			c-2.9,0-5.5,0.4-8,1.1c-2.5,0.8-4.7,1.8-6.7,3.1c-2,1.3-3.7,2.8-5.1,4.5c-1.4,1.7-2.5,3.4-3.2,5.3c-0.1,0.2,0,0.4,0.1,0.5
			c0.1,0.1,0.3,0.1,0.4,0c0.9-1.9,2-3.6,3.3-5.2c1.3-1.5,2.9-2.8,4.6-3.9c1.7-1,3.5-1.9,5.4-2.4c1.9-0.6,3.8-0.8,5.7-0.8
			c0.6,0,1.2,0,1.8,0c0.5,0,1.1,0.1,1.6,0.2c-2.5,2.2-4.5,5-6.3,8.2c-1.7,3.3-3.2,7.1-4.4,11.4c-1.2,4.4-2.4,8.1-3.5,11
			c-1.1,2.9-2.2,5.3-3.2,7.1c-1.1,1.8-2.2,3.2-3.4,4c-1.2,0.9-2.6,1.5-4.1,1.8c-1.6,0.3-2.9,0.3-4.1,0c-1.1-0.3-2.3-1.1-3.4-2.2
			c-0.3-0.2-0.8-0.2-1.3-0.1c-0.5,0.1-1,0.2-1.4,0.4c-0.4,0.2-0.8,0.4-1.1,0.7c-0.3,0.3-0.3,0.5-0.2,0.7c4.1,3.4,8.6,6.2,13.4,8.1
			c4.9,2,10.3,3,16.3,3c7.5,0,13.1-1.5,16.9-4.6c3.8-3.1,5.6-7.3,5.6-12.6c0-2.9-0.8-5.6-2.3-8.3c-1.5-2.7-3.9-4.8-7.3-6.3
			c1.5,0,2.9-0.3,4.3-0.9c1.4-0.6,2.7-1.4,3.8-2.5c1.1-1,2-2.3,2.7-3.8c0.7-1.5,1-3.1,1-4.8c0-1.4-0.3-2.8-0.8-4.1
			C90,98.8,89.2,97.6,88.1,96.5z M86.7,109.6c-0.5,1.1-1.1,2-1.9,2.8c-0.8,0.8-1.7,1.4-2.7,1.9c-1,0.4-2.1,0.7-3.1,0.7
			c-0.7,0-1.3,0-1.7-0.1c-0.4-0.1-0.9-0.3-1.4-0.5c-0.4-0.1-0.8,0-1.3,0.1c-0.5,0.1-1,0.3-1.4,0.5c-0.4,0.2-0.7,0.5-1,0.8
			c-0.2,0.3-0.3,0.5-0.1,0.7c8.8,2.3,13.2,7.7,13.2,16.2c0,2-0.4,3.8-1.1,5.5c-0.7,1.7-1.8,3.2-3.2,4.4c-1.4,1.3-3.2,2.2-5.3,3
			c-2.1,0.7-4.4,1.1-7,1.1c-4.4,0-8.6-0.7-12.5-2.2c-4-1.5-7.4-3.3-10.4-5.5c1.9-0.1,3.7-0.5,5.5-1.2c1.8-0.8,3.6-2.1,5.3-4.1
			c1.7-2,3.3-4.7,4.9-8.2c1.6-3.5,3.2-8,4.7-13.5c1.1-4.1,2.3-7.6,3.9-10.5c1.5-2.9,3.2-5.4,5.2-7.4c4.2,0.8,7.3,2.2,9.3,4.4
			c2,2.2,3,4.7,3,7.5C87.4,107.3,87.2,108.5,86.7,109.6z"/>
		<path fill="#603913" d="M110.5,127.6c0-0.6-0.3-1.1-0.8-1.5c-0.5-0.4-1.1-0.5-1.8-0.5c-1.6,0-3.2,0.8-4.6,2.4
			c-1.4,1.6-2.7,3.8-3.9,6.6c0.3-1.2,0.5-2.3,0.7-3.5c0.2-1.2,0.3-2.2,0.3-3.1c0-1.6-0.6-2.5-1.9-2.5c-0.9,0-1.9,0.5-3,1.4
			c-1.1,0.9-2.1,1.9-2.9,3c-0.1,0.2-0.1,0.4,0.1,0.6c0.2,0.1,0.4,0.2,0.6,0c0.5-0.7,1.1-1.3,1.7-1.8c0.6-0.5,1.2-0.8,1.6-0.8
			c0.8,0,1.1,0.9,0.9,2.6c-0.2,1.2-0.4,2.4-0.7,3.9c-0.3,1.4-0.7,2.8-1.1,4.3c-0.4,1.5-0.9,2.9-1.4,4.3c-0.5,1.4-1,2.8-1.5,4
			c-0.4,0.6-0.2,1,0.4,1c0.5,0,1-0.1,1.7-0.3c0.7-0.2,1.1-0.6,1.2-1.1c1.5-5.4,3-9.7,4.6-12.7c1.6-3.1,3.5-4.6,5.5-4.6
			c1.3,0,2,0.5,2,1.5c0,0.4,0.2,0.5,0.5,0.3c0.4-0.4,0.7-0.9,1.1-1.6C110.3,128.6,110.5,128,110.5,127.6z"/>
		<path fill="#603913" d="M121.1,125.6c-1.5,0-3,0.5-4.3,1.6c-1.4,1-2.6,2.4-3.6,4c-1,1.6-1.9,3.4-2.5,5.4c-0.6,2-1,3.8-1,5.6
			c0,1.9,0.5,3.4,1.4,4.4c1,1,2.2,1.5,3.7,1.5c1.6,0,3.2-0.5,4.7-1.4c1.5-1,2.7-2.1,3.7-3.5c0.1-0.2,0.1-0.4,0-0.6
			c-0.1-0.2-0.3-0.2-0.5-0.1c-0.8,1-1.7,1.8-2.8,2.4c-1,0.6-2.1,0.9-3.3,0.9c-1.2,0-2.1-0.5-2.7-1.5c-0.6-1-1-2.2-1-3.7
			c0-0.8,0-1.5,0-2.1c0-0.6,0.1-1.3,0.1-1.9c1.6-0.4,3.1-0.8,4.5-1.3c1.4-0.5,2.7-1,3.8-1.5c1.1-0.6,2-1.2,2.6-1.9
			c0.6-0.7,1-1.5,1-2.3c0-1-0.4-1.9-1.1-2.7C123.2,126,122.2,125.6,121.1,125.6z M119.6,133.3c-1.3,0.8-3.4,1.4-6.2,1.8
			c0.5-2.5,1.2-4.3,2.3-5.5c1.1-1.2,2.2-1.8,3.6-1.8c0.7,0,1.3,0.3,1.7,0.8c0.4,0.5,0.6,1.2,0.6,2
			C121.5,131.6,120.9,132.5,119.6,133.3z"/>
		<path fill="#603913" d="M153.3,125.7c-0.2,0-0.5,0.1-0.9,0.3c-0.3,0.2-0.7,0.5-1.1,0.8c-0.4,0.3-0.7,0.7-1,1
			c-0.3,0.4-0.5,0.7-0.7,1c-0.1,0.5,0.1,0.7,0.5,0.6c1-0.8,1.9-0.9,2.8-0.3c0.9,0.6,1.4,2.1,1.4,4.4c0,1.6-0.3,3.1-0.8,4.5
			c-0.6,1.4-1.3,2.7-2.1,3.8c-0.8,1.1-1.8,1.9-2.8,2.6c-1.1,0.6-2.1,1-3.1,1c-2,0-3-1.4-3-4.2c0-2.2,0.2-4.5,0.7-7
			c0.5-2.5,1.2-4.8,2.1-6.7c0-0.2-0.1-0.2-0.4-0.2c-0.3,0.1-0.6,0.2-0.9,0.3c-0.4,0.2-0.7,0.4-1.1,0.7c-0.4,0.3-0.6,0.5-0.6,0.7
			c-0.3,1.1-0.6,2-0.8,2.6c-0.3,0.6-0.6,1.1-0.9,1.6c-0.9,1.2-1.9,2.6-3,4.1c-1.1,1.5-2.2,3.2-3.3,5.2c0.2-0.9,0.3-2,0.5-3.2
			c0.1-1.2,0.2-2.6,0.2-4.1c0-3.4-0.3-5.8-0.8-7.2c-0.5-1.4-1.3-2.1-2.5-2.1c-0.5,0-1,0.1-1.5,0.4c-0.5,0.3-1,0.6-1.5,0.9
			c-0.5,0.4-0.9,0.7-1.2,1.1c-0.3,0.4-0.6,0.7-0.7,1c-0.1,0.2,0,0.4,0.2,0.6c0.2,0.1,0.4,0.2,0.5,0c0.3-0.6,0.7-1.1,1.3-1.4
			c0.6-0.3,1-0.4,1.4-0.3c0.7,0.3,1.2,1.2,1.4,2.6c0.3,1.5,0.4,3.2,0.4,5.1c0,2-0.1,4-0.4,6c-0.3,2.1-0.6,3.8-1,5.2
			c-0.1,0.6,0.1,1,0.5,1c0.5,0,0.9-0.1,1.2-0.4c0.3-0.3,0.7-0.9,1.2-1.8c1.3-2.2,2.6-4.3,3.9-6.4c1.3-2.1,2.5-3.9,3.8-5.4
			c-0.2,0.6-0.3,1.3-0.5,2c-0.1,0.8-0.3,1.6-0.4,2.4c-0.1,0.8-0.2,1.7-0.3,2.5c-0.1,0.8-0.1,1.6-0.1,2.3c0,1.6,0.3,2.9,0.9,3.7
			c0.6,0.8,1.4,1.2,2.5,1.2c1.3,0,2.7-0.5,4.2-1.4c1.5-0.9,2.9-2.1,4.2-3.6c1.3-1.5,2.3-3.3,3.2-5.3c0.8-2,1.3-4.1,1.3-6.4
			c0-1.9-0.3-3.3-0.8-4.2C154.8,126.1,154.1,125.7,153.3,125.7z"/>
		<path fill="#603913" d="M172.5,126.1c-0.8-0.4-1.8-0.6-2.9-0.6c-1.9,0-3.5,0.5-4.6,1.6c-1.1,1-1.7,2.3-1.7,3.9c0,1,0.2,2,0.7,2.9
			c0.5,0.9,1.1,1.8,1.7,2.7c0.6,0.9,1.2,1.8,1.7,2.8c0.5,1,0.8,2,0.8,3.1c0,1.3-0.4,2.3-1.3,3.1c-0.8,0.8-2,1.2-3.5,1.2
			c-1,0-1.9-0.2-2.6-0.7c-0.7-0.5-1.2-1.2-1.4-2.2c-0.1-0.5-0.1-1,0.2-1.6c0.2-0.6,0.6-1.2,1-1.6c0.1-0.2,0.1-0.4,0-0.5
			c-0.1-0.2-0.3-0.2-0.5-0.1c-0.8,0.6-1.5,1.5-2.2,2.5c-0.6,1.1-1,1.8-1,2.4c0,0.7,0.6,1.4,1.8,2c1.2,0.6,2.7,1,4.5,1
			c2.6,0,4.6-0.6,5.9-1.9c1.3-1.3,2-2.9,2-4.7c0-1.2-0.2-2.2-0.7-3.2c-0.5-1-1.1-1.9-1.7-2.7c-0.6-0.8-1.2-1.7-1.7-2.5
			c-0.5-0.8-0.7-1.7-0.7-2.7c0-1.2,0.3-2,0.9-2.6c0.6-0.6,1.4-0.9,2.4-0.9c1.3,0,2.2,0.6,2.5,1.7c0.1,0.4,0.1,0.9,0.1,1.4
			c-0.1,0.5-0.2,1-0.3,1.4c-0.1,0.2,0,0.3,0.2,0.4c0.2,0.1,0.4,0.1,0.5,0c0.3-0.5,0.6-1.2,0.8-2c0.3-0.8,0.4-1.5,0.4-2.2
			C173.6,126.9,173.2,126.5,172.5,126.1z"/>
		<path fill="#603913" d="M181.9,135.4c0.6-1.5,1.2-3.1,1.9-4.7c0.7-1.6,1.5-3,2.2-4.4c0-0.5-0.2-0.8-0.7-0.8
			c-1.4,0.7-2.8,1.6-4.2,2.6c-1.4,1.1-2.5,2-3.3,2.8c-0.1,0.2-0.1,0.4,0,0.6c0.1,0.2,0.3,0.2,0.5,0.1c0.5-0.5,1.2-1.1,2.1-1.8
			c1-0.7,1.8-1.3,2.4-1.8c-0.7,1-1.4,2.3-2.1,3.8c-0.7,1.5-1.4,3-2,4.6c-0.6,1.6-1.1,3.1-1.4,4.7c-0.4,1.5-0.6,2.9-0.6,4
			c0,1.9,0.8,2.9,2.3,2.9c1,0,2.2-0.5,3.4-1.6c1.2-1,2.3-2.2,3.4-3.5c0.1-0.2,0.1-0.4-0.1-0.6c-0.2-0.2-0.3-0.2-0.4-0.1
			c-0.8,0.9-1.5,1.7-2.1,2.2c-0.6,0.6-1.2,0.8-1.9,0.8c-0.8,0-1.2-0.6-1.2-1.8c0-0.9,0.2-2.1,0.5-3.5
			C180.9,138.4,181.4,137,181.9,135.4z"/>
		<path fill="#603913" d="M201,125.6c-1.5,0-3,0.5-4.3,1.6c-1.4,1-2.6,2.4-3.7,4c-1.1,1.6-1.9,3.3-2.6,5.2c-0.6,1.9-1,3.6-1,5.3
			c0,2,0.4,3.6,1.2,4.7c0.8,1.1,1.9,1.7,3.3,1.7c1.2,0,2.4-0.5,3.8-1.5c1.4-1,2.6-2.3,3.8-3.9c1.2-1.6,2.1-3.4,2.9-5.4
			c0.8-2,1.1-4,1.1-6c0-1.7-0.4-3.1-1.1-4.1C203.8,126.1,202.6,125.6,201,125.6z M202.1,138.3c-0.4,1.3-0.9,2.5-1.5,3.5
			c-0.6,1-1.4,1.8-2.2,2.5c-0.8,0.6-1.7,0.9-2.6,0.9c-2.3,0-3.5-1.8-3.5-5.5c0-1.5,0.2-3,0.5-4.3c0.4-1.4,0.8-2.6,1.4-3.6
			c0.6-1,1.3-1.8,2.1-2.5c0.8-0.6,1.7-0.9,2.5-0.9c1.3,0,2.3,0.5,2.9,1.5c0.6,1,0.9,2.4,0.9,4.2C202.7,135.6,202.5,137,202.1,138.3z
			"/>
		<path fill="#603913" d="M231.8,142.4c-0.2-0.1-0.4-0.1-0.5,0c-1.5,2-2.9,3.1-4.1,3.1c-0.9,0-1.4-0.7-1.4-2.2c0-2,0.4-4.3,1.3-6.7
			c0.8-2.4,1.9-4.7,3.1-7c0.4-0.8,0.5-1.5,0.5-2.3c0-0.5-0.2-0.9-0.6-1.2c-0.4-0.4-0.9-0.5-1.6-0.5c-1,0-2.2,0.3-3.4,0.9
			c-1.2,0.6-2.4,1.4-3.6,2.4c-1.2,1-2.3,2.2-3.5,3.6c-1.1,1.4-2.1,2.9-2.9,4.5c0.5-1.4,0.9-2.8,1.3-4.2c0.4-1.4,0.7-2.8,1-4.1
			c0.5-2,0-3-1.5-3c-1.3,0-2.5,0.5-3.6,1.6c-1.1,1-2,2.1-2.6,3.1c-0.1,0.2,0,0.4,0.1,0.5c0.1,0.2,0.3,0.2,0.4,0.1
			c0.6-0.9,1.3-1.7,1.8-2.3c0.6-0.6,1.2-0.9,1.8-0.9c0.6,0,0.8,0.6,0.6,1.7c-0.8,3.1-1.8,6.2-2.8,9.4c-1.1,3.2-2.1,6-3.1,8.5
			c-0.2,0.5,0.1,0.8,0.7,0.8c0.5,0,1-0.1,1.5-0.3c0.5-0.2,0.8-0.5,1-0.8c2.2-6.4,4.6-11,7.2-14c2.6-3,5-4.5,7.1-4.5
			c0.6,0,0.9,0.3,0.9,1c0,0.4-0.1,0.8-0.4,1.2c-1.2,2.4-2.2,4.9-2.9,7.3c-0.7,2.4-1.1,4.6-1.1,6.6c0,2.3,0.9,3.5,2.7,3.5
			c1,0,2.2-0.5,3.4-1.5c1.2-1,2.3-2.2,3.3-3.5C232,142.7,232,142.5,231.8,142.4z"/>
	</g>
	<g>
		<linearGradient id="SVGID_8_" gradientUnits="userSpaceOnUse" x1="113.5725" y1="165.5078" x2="113.5725" y2="148.9834">
			<stop  offset="0" style="stop-color:#F7941E"/>
			<stop  offset="1.313370e-002" style="stop-color:#EC8E20"/>
			<stop  offset="0.1109" style="stop-color:#C37727"/>
			<stop  offset="0.2191" style="stop-color:#A4672A"/>
			<stop  offset="0.3399" style="stop-color:#8E5A2A"/>
			<stop  offset="0.4805" style="stop-color:#7F5229"/>
			<stop  offset="0.6587" style="stop-color:#774E29"/>
			<stop  offset="1" style="stop-color:#754C29"/>
		</linearGradient>
		<path fill="url(#SVGID_8_)" d="M119.4,149c0.4,0,0.6,0.1,0.7,0.4c0.1,0.3,0.1,0.7-0.2,1.1c-0.1,0.1-0.2,0.1-0.2-0.1
			c0-0.2,0-0.4-0.2-0.5c-0.1-0.1-0.3-0.2-0.6-0.2c-0.5,0-1.1,0.2-1.6,0.5c-0.5,0.4-1.1,0.9-1.6,1.5c-0.5,0.6-1,1.4-1.5,2.3
			c-0.5,0.9-0.9,1.8-1.3,2.8c-0.4,1-0.8,2.1-1.1,3.2c-0.3,1.1-0.6,2.2-0.8,3.4c-0.1,0.3-0.1,0.6,0,0.9c0,0.3,0.1,0.4,0.3,0.4
			c0.2,0,0.3-0.1,0.5-0.2c0.2-0.2,0.3-0.4,0.4-0.6c0,0,0.1,0,0.1,0c0.1,0,0.1,0.1,0.1,0.1c-0.1,0.1-0.2,0.3-0.3,0.4
			c-0.1,0.2-0.3,0.3-0.4,0.5c-0.2,0.1-0.3,0.3-0.5,0.3c-0.2,0.1-0.3,0.1-0.4,0.1c-0.2,0-0.4-0.1-0.5-0.3c-0.1-0.2-0.1-0.5-0.1-0.8
			c0-0.2,0-0.5,0.1-0.7c0-0.2,0.1-0.5,0.2-0.7c-0.1,0.3-0.3,0.6-0.5,0.9c-0.2,0.3-0.4,0.5-0.7,0.8c-0.2,0.2-0.5,0.4-0.7,0.6
			c-0.2,0.2-0.4,0.3-0.6,0.3c-0.2,0-0.5-0.1-0.7-0.3c-0.2-0.2-0.3-0.6-0.3-1c0-0.6,0.1-1.1,0.3-1.6c0.2-0.5,0.4-1,0.8-1.4
			c0.3-0.4,0.7-0.7,1.1-1c0.4-0.2,0.9-0.4,1.4-0.4c0.2,0,0.3,0,0.4,0.1c0.1,0,0.2,0.1,0.3,0.2c0.3-0.8,0.6-1.6,1-2.5
			c0.4-0.9,0.8-1.7,1.2-2.5c0.4-0.8,0.9-1.6,1.4-2.3c0.5-0.7,1-1.4,1.5-2c0.5-0.6,1-1,1.6-1.3C118.4,149.2,118.9,149,119.4,149z
			 M108.4,164.7c0.2,0,0.4-0.1,0.6-0.3c0.2-0.2,0.5-0.4,0.7-0.7c0.2-0.3,0.4-0.6,0.7-1c0.2-0.4,0.4-0.8,0.5-1.2
			c0-0.1,0.1-0.3,0.1-0.4c0-0.1,0.1-0.3,0.1-0.4c-0.1-0.2-0.2-0.3-0.3-0.4c-0.2-0.1-0.3-0.1-0.5-0.1c-0.3,0-0.6,0.1-0.9,0.3
			c-0.3,0.2-0.6,0.4-0.8,0.8c-0.2,0.3-0.4,0.7-0.5,1.1c-0.1,0.4-0.2,0.9-0.2,1.4c0,0.3,0.1,0.5,0.2,0.7
			C108.1,164.7,108.2,164.7,108.4,164.7z"/>
		<linearGradient id="SVGID_9_" gradientUnits="userSpaceOnUse" x1="115.4075" y1="165.5078" x2="115.4075" y2="159.9121">
			<stop  offset="0" style="stop-color:#F7941E"/>
			<stop  offset="1.313370e-002" style="stop-color:#EC8E20"/>
			<stop  offset="0.1109" style="stop-color:#C37727"/>
			<stop  offset="0.2191" style="stop-color:#A4672A"/>
			<stop  offset="0.3399" style="stop-color:#8E5A2A"/>
			<stop  offset="0.4805" style="stop-color:#7F5229"/>
			<stop  offset="0.6587" style="stop-color:#774E29"/>
			<stop  offset="1" style="stop-color:#754C29"/>
		</linearGradient>
		<path fill="url(#SVGID_9_)" d="M115.2,160.5c0,0.2,0,0.5-0.1,0.8c0,0.3-0.1,0.6-0.2,0.9c0.3-0.7,0.6-1.2,1-1.6
			c0.4-0.4,0.7-0.6,1.1-0.6c0.2,0,0.3,0,0.4,0.1c0.1,0.1,0.2,0.2,0.2,0.4c0,0.1,0,0.3-0.1,0.4c-0.1,0.2-0.2,0.3-0.3,0.4
			c-0.1,0.1-0.1,0-0.1-0.1c0-0.3-0.2-0.4-0.5-0.4c-0.5,0-1,0.4-1.4,1.1c-0.4,0.8-0.8,1.8-1.2,3.2c0,0.1-0.1,0.2-0.3,0.3
			c-0.2,0-0.3,0.1-0.4,0.1c-0.2,0-0.2-0.1-0.1-0.2c0.1-0.3,0.3-0.6,0.4-1c0.1-0.4,0.2-0.7,0.3-1.1c0.1-0.4,0.2-0.7,0.3-1.1
			c0.1-0.3,0.1-0.7,0.2-1c0.1-0.4,0-0.7-0.2-0.7c-0.1,0-0.3,0.1-0.4,0.2c-0.2,0.1-0.3,0.3-0.4,0.5c-0.1,0-0.1,0-0.2,0
			c0,0-0.1-0.1,0-0.1c0.2-0.3,0.5-0.5,0.7-0.8c0.3-0.2,0.5-0.3,0.8-0.3C115,159.9,115.2,160.1,115.2,160.5z"/>
		<linearGradient id="SVGID_10_" gradientUnits="userSpaceOnUse" x1="119.5017" y1="165.5078" x2="119.5017" y2="156.6937">
			<stop  offset="0" style="stop-color:#F7941E"/>
			<stop  offset="1.313370e-002" style="stop-color:#EC8E20"/>
			<stop  offset="0.1109" style="stop-color:#C37727"/>
			<stop  offset="0.2191" style="stop-color:#A4672A"/>
			<stop  offset="0.3399" style="stop-color:#8E5A2A"/>
			<stop  offset="0.4805" style="stop-color:#7F5229"/>
			<stop  offset="0.6587" style="stop-color:#774E29"/>
			<stop  offset="1" style="stop-color:#754C29"/>
		</linearGradient>
		<path fill="url(#SVGID_10_)" d="M117.9,161.4c0,0-0.1,0-0.1,0c0,0,0-0.1,0-0.1c0.2-0.2,0.5-0.4,0.8-0.7c0.3-0.3,0.7-0.5,1-0.7
			c0.1,0,0.2,0.1,0.2,0.2c-0.2,0.3-0.4,0.7-0.6,1.1c-0.2,0.4-0.3,0.8-0.5,1.2c-0.1,0.4-0.3,0.8-0.3,1.1c-0.1,0.4-0.1,0.7-0.1,0.9
			c0,0.3,0.1,0.5,0.3,0.5c0.2,0,0.3-0.1,0.5-0.2c0.2-0.1,0.3-0.3,0.5-0.6c0,0,0.1,0,0.1,0c0,0,0,0.1,0,0.2c-0.3,0.3-0.5,0.6-0.8,0.9
			c-0.3,0.3-0.6,0.4-0.8,0.4c-0.4,0-0.6-0.2-0.6-0.7c0-0.3,0-0.6,0.1-1c0.1-0.4,0.2-0.8,0.4-1.2c0.1-0.4,0.3-0.8,0.5-1.1
			c0.2-0.4,0.4-0.7,0.5-0.9c-0.2,0.1-0.4,0.3-0.6,0.4C118.2,161.2,118,161.3,117.9,161.4z M119.9,159c0,0-0.1,0-0.1,0
			c0,0-0.1-0.1-0.1-0.2c0-0.1,0-0.1,0-0.2c0-0.1,0-0.2,0.1-0.2c0.4-0.5,0.9-1.1,1.6-1.7c0,0,0.1,0,0.1,0c0,0,0,0.1,0,0.1
			c-0.3,0.3-0.6,0.6-0.9,1C120.3,158.2,120.1,158.6,119.9,159z"/>
		<linearGradient id="SVGID_11_" gradientUnits="userSpaceOnUse" x1="123.4332" y1="165.5078" x2="123.4332" y2="159.9121">
			<stop  offset="0" style="stop-color:#F7941E"/>
			<stop  offset="1.313370e-002" style="stop-color:#EC8E20"/>
			<stop  offset="0.1109" style="stop-color:#C37727"/>
			<stop  offset="0.2191" style="stop-color:#A4672A"/>
			<stop  offset="0.3399" style="stop-color:#8E5A2A"/>
			<stop  offset="0.4805" style="stop-color:#7F5229"/>
			<stop  offset="0.6587" style="stop-color:#774E29"/>
			<stop  offset="1" style="stop-color:#754C29"/>
		</linearGradient>
		<path fill="url(#SVGID_11_)" d="M126.2,164.1c0,0,0.1,0,0.1,0c0,0,0.1,0.1,0,0.1c-0.2,0.3-0.5,0.6-0.8,0.9
			c-0.3,0.3-0.6,0.4-0.8,0.4c-0.5,0-0.7-0.3-0.7-0.9c0-0.5,0.1-1,0.3-1.7c0.2-0.6,0.4-1.2,0.7-1.8c0.1-0.1,0.1-0.2,0.1-0.3
			c0-0.2-0.1-0.2-0.2-0.2c-0.5,0-1.1,0.4-1.8,1.1c-0.6,0.7-1.2,1.9-1.8,3.5c0,0.1-0.1,0.2-0.2,0.2c-0.1,0-0.3,0.1-0.4,0.1
			c-0.2,0-0.2-0.1-0.2-0.2c0.2-0.6,0.5-1.3,0.8-2.1c0.3-0.8,0.5-1.6,0.7-2.3c0.1-0.3,0-0.4-0.2-0.4c-0.1,0-0.3,0.1-0.4,0.2
			c-0.1,0.1-0.3,0.3-0.5,0.6c0,0-0.1,0-0.1,0c0,0,0-0.1,0-0.1c0.2-0.3,0.4-0.5,0.7-0.8c0.3-0.3,0.6-0.4,0.9-0.4
			c0.4,0,0.5,0.2,0.4,0.7c-0.1,0.3-0.1,0.7-0.2,1c-0.1,0.4-0.2,0.7-0.3,1.1c0.2-0.4,0.4-0.8,0.7-1.1c0.3-0.3,0.6-0.6,0.9-0.9
			c0.3-0.2,0.6-0.4,0.9-0.6c0.3-0.1,0.6-0.2,0.8-0.2c0.2,0,0.3,0,0.4,0.1c0.1,0.1,0.1,0.2,0.1,0.3c0,0.2,0,0.4-0.1,0.6
			c-0.3,0.6-0.6,1.1-0.8,1.7c-0.2,0.6-0.3,1.2-0.3,1.7c0,0.4,0.1,0.5,0.4,0.5C125.5,164.9,125.8,164.6,126.2,164.1z"/>
		<linearGradient id="SVGID_12_" gradientUnits="userSpaceOnUse" x1="132.6559" y1="165.5078" x2="132.6559" y2="148.9834">
			<stop  offset="0" style="stop-color:#F7941E"/>
			<stop  offset="1.313370e-002" style="stop-color:#EC8E20"/>
			<stop  offset="0.1109" style="stop-color:#C37727"/>
			<stop  offset="0.2191" style="stop-color:#A4672A"/>
			<stop  offset="0.3399" style="stop-color:#8E5A2A"/>
			<stop  offset="0.4805" style="stop-color:#7F5229"/>
			<stop  offset="0.6587" style="stop-color:#774E29"/>
			<stop  offset="1" style="stop-color:#754C29"/>
		</linearGradient>
		<path fill="url(#SVGID_12_)" d="M129.5,162.6c0.2,0.8,0.4,1.4,0.6,1.8c0.2,0.4,0.6,0.6,0.9,0.6c0.2,0,0.3,0,0.4-0.1
			c0.1-0.1,0.3-0.2,0.4-0.4c0,0,0.1,0,0.1,0c0,0,0,0.1,0,0.1c-0.2,0.3-0.4,0.5-0.7,0.6c-0.2,0.2-0.5,0.2-0.8,0.2
			c-0.5,0-0.8-0.2-1.1-0.7c-0.3-0.5-0.5-1.2-0.7-2.2c0-0.1,0-0.2,0.1-0.2c0.3,0.1,0.5,0.1,0.8,0c0.3,0,0.5-0.1,0.7-0.3
			c0.2-0.1,0.4-0.3,0.5-0.5c0.1-0.2,0.2-0.4,0.2-0.6c0-0.4-0.2-0.5-0.5-0.5c-0.5,0-1,0.2-1.4,0.7c-0.4,0.5-0.8,1.2-1,2.2
			c-0.1,0.2-0.1,0.5-0.2,0.8c-0.1,0.3-0.1,0.5-0.2,0.8c0,0.1-0.1,0.2-0.1,0.3c0,0.1-0.1,0.1-0.2,0.2c-0.2,0.1-0.3,0.1-0.5,0.1
			c-0.1,0-0.2-0.1-0.1-0.2c0.5-2.4,1.1-4.7,1.8-6.7c0.8-2,1.6-3.7,2.6-5.2c0.9-1.4,1.9-2.5,2.9-3.3c1-0.8,1.9-1.2,2.8-1.2
			c0.3,0,0.6,0.1,0.8,0.2c0.2,0.1,0.4,0.3,0.4,0.5c0.1,0.2,0.1,0.4,0.1,0.6c0,0.2-0.1,0.5-0.3,0.7c-0.1,0.1-0.2,0.1-0.2-0.1
			c0.1-0.3,0-0.6-0.2-0.9c-0.2-0.3-0.6-0.4-1.1-0.4c-0.6,0-1.3,0.2-2,0.7c-0.7,0.5-1.4,1.2-2.2,2.2c-0.7,1-1.4,2.3-2.1,3.8
			c-0.7,1.6-1.3,3.4-1.8,5.5c0.3-0.6,0.7-1.1,1.1-1.5c0.4-0.4,0.9-0.6,1.5-0.6c0.2,0,0.4,0.1,0.6,0.3c0.2,0.2,0.2,0.4,0.2,0.6
			c0,0.5-0.2,0.9-0.7,1.2C130.7,162.3,130.2,162.6,129.5,162.6z"/>
		<linearGradient id="SVGID_13_" gradientUnits="userSpaceOnUse" x1="138.0586" y1="165.5078" x2="138.0586" y2="156.6937">
			<stop  offset="0" style="stop-color:#F7941E"/>
			<stop  offset="1.313370e-002" style="stop-color:#EC8E20"/>
			<stop  offset="0.1109" style="stop-color:#C37727"/>
			<stop  offset="0.2191" style="stop-color:#A4672A"/>
			<stop  offset="0.3399" style="stop-color:#8E5A2A"/>
			<stop  offset="0.4805" style="stop-color:#7F5229"/>
			<stop  offset="0.6587" style="stop-color:#774E29"/>
			<stop  offset="1" style="stop-color:#754C29"/>
		</linearGradient>
		<path fill="url(#SVGID_13_)" d="M136.5,161.4c0,0-0.1,0-0.1,0c0,0,0-0.1,0-0.1c0.2-0.2,0.5-0.4,0.8-0.7c0.3-0.3,0.7-0.5,1-0.7
			c0.1,0,0.2,0.1,0.2,0.2c-0.2,0.3-0.4,0.7-0.6,1.1c-0.2,0.4-0.3,0.8-0.5,1.2c-0.1,0.4-0.3,0.8-0.3,1.1c-0.1,0.4-0.1,0.7-0.1,0.9
			c0,0.3,0.1,0.5,0.3,0.5c0.2,0,0.3-0.1,0.5-0.2c0.2-0.1,0.3-0.3,0.5-0.6c0,0,0.1,0,0.1,0c0,0,0.1,0.1,0,0.2
			c-0.3,0.3-0.5,0.6-0.8,0.9c-0.3,0.3-0.6,0.4-0.8,0.4c-0.4,0-0.6-0.2-0.6-0.7c0-0.3,0-0.6,0.1-1c0.1-0.4,0.2-0.8,0.4-1.2
			c0.1-0.4,0.3-0.8,0.5-1.1c0.2-0.4,0.4-0.7,0.5-0.9c-0.2,0.1-0.4,0.3-0.6,0.4C136.8,161.2,136.6,161.3,136.5,161.4z M138.4,159
			c0,0-0.1,0-0.1,0c0,0-0.1-0.1-0.1-0.2c0-0.1,0-0.1,0-0.2c0-0.1,0-0.2,0.1-0.2c0.4-0.5,0.9-1.1,1.6-1.7c0,0,0.1,0,0.1,0
			c0,0,0.1,0.1,0,0.1c-0.3,0.3-0.6,0.6-0.9,1C138.9,158.2,138.6,158.6,138.4,159z"/>
		<linearGradient id="SVGID_14_" gradientUnits="userSpaceOnUse" x1="141.9903" y1="165.5078" x2="141.9903" y2="159.9121">
			<stop  offset="0" style="stop-color:#F7941E"/>
			<stop  offset="1.313370e-002" style="stop-color:#EC8E20"/>
			<stop  offset="0.1109" style="stop-color:#C37727"/>
			<stop  offset="0.2191" style="stop-color:#A4672A"/>
			<stop  offset="0.3399" style="stop-color:#8E5A2A"/>
			<stop  offset="0.4805" style="stop-color:#7F5229"/>
			<stop  offset="0.6587" style="stop-color:#774E29"/>
			<stop  offset="1" style="stop-color:#754C29"/>
		</linearGradient>
		<path fill="url(#SVGID_14_)" d="M144.8,164.1c0,0,0.1,0,0.1,0c0,0,0.1,0.1,0,0.1c-0.2,0.3-0.5,0.6-0.8,0.9
			c-0.3,0.3-0.6,0.4-0.8,0.4c-0.5,0-0.7-0.3-0.7-0.9c0-0.5,0.1-1,0.3-1.7c0.2-0.6,0.4-1.2,0.7-1.8c0.1-0.1,0.1-0.2,0.1-0.3
			c0-0.2-0.1-0.2-0.2-0.2c-0.5,0-1.1,0.4-1.8,1.1c-0.6,0.7-1.3,1.9-1.8,3.5c0,0.1-0.1,0.2-0.2,0.2c-0.1,0-0.3,0.1-0.4,0.1
			c-0.2,0-0.2-0.1-0.2-0.2c0.2-0.6,0.5-1.3,0.8-2.1c0.3-0.8,0.5-1.6,0.7-2.3c0.1-0.3,0-0.4-0.2-0.4c-0.1,0-0.3,0.1-0.4,0.2
			c-0.1,0.1-0.3,0.3-0.5,0.6c0,0-0.1,0-0.1,0c0,0,0-0.1,0-0.1c0.2-0.3,0.4-0.5,0.7-0.8c0.3-0.3,0.6-0.4,0.9-0.4
			c0.4,0,0.5,0.2,0.4,0.7c-0.1,0.3-0.1,0.7-0.2,1c-0.1,0.4-0.2,0.7-0.3,1.1c0.2-0.4,0.4-0.8,0.7-1.1c0.3-0.3,0.6-0.6,0.9-0.9
			c0.3-0.2,0.6-0.4,0.9-0.6c0.3-0.1,0.6-0.2,0.8-0.2c0.2,0,0.3,0,0.4,0.1c0.1,0.1,0.1,0.2,0.1,0.3c0,0.2,0,0.4-0.1,0.6
			c-0.3,0.6-0.6,1.1-0.8,1.7c-0.2,0.6-0.3,1.2-0.3,1.7c0,0.4,0.1,0.5,0.3,0.5C144,164.9,144.4,164.6,144.8,164.1z"/>
		<linearGradient id="SVGID_15_" gradientUnits="userSpaceOnUse" x1="150.9667" y1="165.5078" x2="150.9667" y2="157.231">
			<stop  offset="0" style="stop-color:#F7941E"/>
			<stop  offset="1.313370e-002" style="stop-color:#EC8E20"/>
			<stop  offset="0.1109" style="stop-color:#C37727"/>
			<stop  offset="0.2191" style="stop-color:#A4672A"/>
			<stop  offset="0.3399" style="stop-color:#8E5A2A"/>
			<stop  offset="0.4805" style="stop-color:#7F5229"/>
			<stop  offset="0.6587" style="stop-color:#774E29"/>
			<stop  offset="1" style="stop-color:#754C29"/>
		</linearGradient>
		<path fill="url(#SVGID_15_)" d="M152.7,160c0.1,0,0.1,0.1,0.1,0.1c0,0.1-0.1,0.1-0.2,0.1c-0.2,0-0.5,0-0.8,0c-0.3,0-0.6,0-0.9,0.1
			c-0.3,0.7-0.5,1.4-0.7,2.1c-0.2,0.7-0.3,1.2-0.3,1.7c0,0.5,0.2,0.7,0.6,0.7c0.4,0,0.8-0.3,1.2-1c0,0,0.1,0,0.1,0
			c0,0,0.1,0.1,0,0.2c-0.1,0.2-0.3,0.4-0.4,0.6c-0.2,0.2-0.3,0.3-0.5,0.5c-0.2,0.1-0.3,0.2-0.5,0.3c-0.2,0.1-0.3,0.1-0.4,0.1
			c-0.3,0-0.6-0.1-0.7-0.3c-0.2-0.2-0.2-0.4-0.2-0.7c0-0.5,0.1-1.1,0.3-1.8c0.2-0.7,0.5-1.5,0.8-2.3c-0.2,0-0.4,0.1-0.5,0.1
			c-0.2,0-0.3,0.1-0.5,0.1c-0.1,0-0.1-0.1-0.1-0.1c0-0.1,0.1-0.1,0.2-0.2c0.1-0.1,0.2-0.1,0.3-0.2c0.1-0.1,0.3-0.1,0.4-0.1
			c0.1,0,0.1,0,0.2,0c0.1,0,0.1,0,0.2,0c0.2-0.5,0.4-0.9,0.6-1.3c0.2-0.4,0.4-0.8,0.6-1.1c0.1-0.1,0.2-0.2,0.3-0.2
			c0.1-0.1,0.2-0.1,0.3-0.1c0.1,0,0.2,0,0.2,0c0.1,0,0.1,0,0.1,0.1c-0.2,0.4-0.5,0.8-0.7,1.3c-0.2,0.5-0.5,0.9-0.7,1.4
			c0.3,0,0.5,0,0.8,0C152.2,160,152.4,160,152.7,160z"/>
		<linearGradient id="SVGID_16_" gradientUnits="userSpaceOnUse" x1="158.2976" y1="165.5078" x2="158.2976" y2="148.9834">
			<stop  offset="0" style="stop-color:#F7941E"/>
			<stop  offset="1.313370e-002" style="stop-color:#EC8E20"/>
			<stop  offset="0.1109" style="stop-color:#C37727"/>
			<stop  offset="0.2191" style="stop-color:#A4672A"/>
			<stop  offset="0.3399" style="stop-color:#8E5A2A"/>
			<stop  offset="0.4805" style="stop-color:#7F5229"/>
			<stop  offset="0.6587" style="stop-color:#774E29"/>
			<stop  offset="1" style="stop-color:#754C29"/>
		</linearGradient>
		<path fill="url(#SVGID_16_)" d="M152.5,165.3c0.7-2.5,1.4-4.8,2.2-6.8c0.8-2,1.7-3.7,2.6-5.1c0.9-1.4,1.8-2.5,2.7-3.3
			c0.9-0.8,1.8-1.1,2.7-1.1c0.3,0,0.6,0.1,0.8,0.2c0.2,0.1,0.4,0.3,0.4,0.5c0.1,0.2,0.1,0.4,0.1,0.6c0,0.2-0.1,0.5-0.3,0.7
			c0,0-0.1,0.1-0.1,0c0,0-0.1,0-0.1-0.1c0.1-0.3,0-0.6-0.3-0.8c-0.2-0.3-0.6-0.4-1.1-0.4c-0.7,0-1.4,0.3-2.1,0.8
			c-0.7,0.5-1.4,1.4-2.1,2.5c-0.7,1.1-1.4,2.5-2.1,4.2c-0.7,1.7-1.4,3.7-2,6c0.2-0.5,0.5-0.9,0.8-1.3c0.3-0.4,0.6-0.7,0.9-1
			c0.3-0.3,0.6-0.5,1-0.7c0.3-0.2,0.6-0.3,1-0.3c0.2,0,0.3,0,0.4,0.1c0.1,0.1,0.1,0.2,0.1,0.3c0,0.2-0.1,0.4-0.2,0.6
			c-0.3,0.5-0.6,1.1-0.8,1.7c-0.2,0.6-0.3,1.1-0.3,1.6c0,0.2,0,0.4,0.1,0.5c0.1,0.1,0.1,0.2,0.3,0.2c0.1,0,0.3-0.1,0.5-0.2
			c0.2-0.2,0.3-0.3,0.4-0.5c0,0,0.1,0,0.1,0c0,0,0.1,0.1,0,0.1c-0.1,0.1-0.2,0.3-0.3,0.4c-0.1,0.1-0.3,0.3-0.4,0.4
			c-0.2,0.1-0.3,0.2-0.5,0.3c-0.2,0.1-0.3,0.1-0.4,0.1c-0.4,0-0.5-0.3-0.5-0.9c0-0.5,0.1-1.1,0.3-1.7c0.2-0.6,0.4-1.2,0.6-1.6
			c0.1-0.1,0.1-0.3,0.1-0.4c0-0.1-0.1-0.2-0.2-0.2c-0.3,0-0.5,0.1-0.9,0.3c-0.3,0.2-0.6,0.5-0.9,0.9c-0.3,0.4-0.6,0.9-0.9,1.4
			c-0.3,0.6-0.6,1.2-0.8,1.9c0,0.1-0.1,0.2-0.2,0.2c-0.1,0.1-0.2,0.1-0.4,0.1C152.5,165.5,152.5,165.4,152.5,165.3z"/>
		<linearGradient id="SVGID_17_" gradientUnits="userSpaceOnUse" x1="160.9253" y1="165.5078" x2="160.9253" y2="159.9121">
			<stop  offset="0" style="stop-color:#F7941E"/>
			<stop  offset="1.313370e-002" style="stop-color:#EC8E20"/>
			<stop  offset="0.1109" style="stop-color:#C37727"/>
			<stop  offset="0.2191" style="stop-color:#A4672A"/>
			<stop  offset="0.3399" style="stop-color:#8E5A2A"/>
			<stop  offset="0.4805" style="stop-color:#7F5229"/>
			<stop  offset="0.6587" style="stop-color:#774E29"/>
			<stop  offset="1" style="stop-color:#754C29"/>
		</linearGradient>
		<path fill="url(#SVGID_17_)" d="M162.8,160.9c0,0.2-0.1,0.4-0.2,0.6c-0.2,0.2-0.4,0.3-0.7,0.5c-0.3,0.1-0.6,0.3-1,0.4
			c-0.4,0.1-0.7,0.2-1.1,0.3c0,0.2,0,0.3,0,0.5c0,0.2,0,0.3,0,0.5c0,0.4,0.1,0.7,0.2,0.9c0.2,0.2,0.4,0.4,0.7,0.4
			c0.3,0,0.6-0.1,0.8-0.2c0.3-0.1,0.5-0.3,0.7-0.6c0.1,0,0.1,0,0.1,0c0,0,0,0.1,0,0.2c-0.2,0.3-0.6,0.6-0.9,0.9
			c-0.4,0.2-0.8,0.4-1.2,0.4c-0.4,0-0.7-0.1-0.9-0.4c-0.2-0.2-0.4-0.6-0.4-1.1c0-0.4,0.1-0.9,0.2-1.4c0.2-0.5,0.4-0.9,0.6-1.3
			c0.3-0.4,0.6-0.7,0.9-1c0.3-0.3,0.7-0.4,1.1-0.4c0.3,0,0.5,0.1,0.7,0.3C162.8,160.4,162.8,160.6,162.8,160.9z M161.4,160.5
			c-0.3,0-0.6,0.1-0.9,0.4c-0.3,0.3-0.5,0.8-0.6,1.4c0.7-0.1,1.2-0.2,1.5-0.4c0.3-0.2,0.5-0.4,0.5-0.7c0-0.2-0.1-0.4-0.2-0.5
			C161.7,160.5,161.6,160.5,161.4,160.5z"/>
		<linearGradient id="SVGID_18_" gradientUnits="userSpaceOnUse" x1="170.8819" y1="165.5078" x2="170.8819" y2="159.9121">
			<stop  offset="0" style="stop-color:#F7941E"/>
			<stop  offset="1.313370e-002" style="stop-color:#EC8E20"/>
			<stop  offset="0.1109" style="stop-color:#C37727"/>
			<stop  offset="0.2191" style="stop-color:#A4672A"/>
			<stop  offset="0.3399" style="stop-color:#8E5A2A"/>
			<stop  offset="0.4805" style="stop-color:#7F5229"/>
			<stop  offset="0.6587" style="stop-color:#774E29"/>
			<stop  offset="1" style="stop-color:#754C29"/>
		</linearGradient>
		<path fill="url(#SVGID_18_)" d="M173.9,160.9c0-0.3-0.1-0.5-0.3-0.5c-0.2,0-0.5,0.1-0.7,0.3c-0.3,0.2-0.5,0.5-0.8,0.9
			c-0.3,0.4-0.6,0.9-0.9,1.5c-0.3,0.6-0.6,1.3-0.8,2c0,0.1-0.1,0.2-0.2,0.2c-0.1,0-0.2,0.1-0.4,0.1c-0.2,0-0.2-0.1-0.2-0.2
			c0.1-0.3,0.2-0.6,0.4-1c0.2-0.4,0.3-0.8,0.4-1.2c0.1-0.4,0.3-0.8,0.4-1.2c0.1-0.4,0.2-0.7,0.2-0.9c0-0.4-0.1-0.6-0.4-0.6
			c-0.4,0-0.9,0.4-1.4,1.2c-0.6,0.8-1.1,2-1.7,3.5c0,0.1-0.1,0.2-0.2,0.2c-0.1,0-0.2,0.1-0.3,0.1c-0.1,0-0.1,0-0.2,0
			c0,0-0.1-0.1,0-0.2c0.1-0.3,0.2-0.7,0.4-1.1c0.1-0.4,0.3-0.8,0.4-1.2c0.1-0.4,0.3-0.8,0.4-1.2c0.1-0.4,0.2-0.7,0.3-1.1
			c0.1-0.3,0-0.4-0.1-0.4c-0.1,0-0.3,0.1-0.4,0.2c-0.2,0.2-0.3,0.4-0.5,0.6c0,0-0.1,0-0.1,0c0,0-0.1-0.1,0-0.1
			c0.2-0.3,0.5-0.6,0.7-0.8c0.3-0.3,0.5-0.4,0.8-0.4c0.2,0,0.3,0.1,0.4,0.2c0.1,0.1,0.1,0.3,0,0.5c-0.1,0.3-0.1,0.6-0.2,0.9
			c-0.1,0.3-0.1,0.5-0.3,0.8c0.4-0.7,0.8-1.3,1.3-1.8c0.5-0.5,0.9-0.7,1.4-0.7c0.2,0,0.3,0.1,0.4,0.2c0.1,0.1,0.2,0.3,0.2,0.5
			c0,0.3,0,0.6-0.1,0.9c-0.1,0.3-0.1,0.6-0.3,0.9c0.4-0.8,0.9-1.5,1.4-1.9c0.5-0.5,1-0.7,1.5-0.7c0.2,0,0.3,0.1,0.4,0.2
			c0.1,0.1,0.2,0.3,0.2,0.5c0,0.3-0.1,0.5-0.2,0.9c-0.1,0.3-0.2,0.6-0.4,1c-0.1,0.3-0.3,0.7-0.4,1c-0.1,0.3-0.2,0.6-0.2,0.9
			c0,0.4,0.1,0.5,0.3,0.5c0.2,0,0.6-0.2,1-0.7c0,0,0.1,0,0.1,0c0,0,0,0.1,0,0.2c-0.1,0.1-0.2,0.2-0.3,0.4c-0.1,0.1-0.3,0.3-0.4,0.4
			c-0.1,0.1-0.3,0.2-0.4,0.3c-0.2,0.1-0.3,0.1-0.5,0.1c-0.3,0-0.5-0.3-0.5-0.8c0-0.3,0.1-0.7,0.2-1.1c0.1-0.4,0.2-0.7,0.3-1
			c0.1-0.3,0.2-0.6,0.3-0.9C173.9,161.4,173.9,161.1,173.9,160.9z"/>
		<linearGradient id="SVGID_19_" gradientUnits="userSpaceOnUse" x1="177.8326" y1="165.5078" x2="177.8326" y2="159.9121">
			<stop  offset="0" style="stop-color:#F7941E"/>
			<stop  offset="1.313370e-002" style="stop-color:#EC8E20"/>
			<stop  offset="0.1109" style="stop-color:#C37727"/>
			<stop  offset="0.2191" style="stop-color:#A4672A"/>
			<stop  offset="0.3399" style="stop-color:#8E5A2A"/>
			<stop  offset="0.4805" style="stop-color:#7F5229"/>
			<stop  offset="0.6587" style="stop-color:#774E29"/>
			<stop  offset="1" style="stop-color:#754C29"/>
		</linearGradient>
		<path fill="url(#SVGID_19_)" d="M178.7,159.9c0.4,0,0.7,0.1,0.9,0.4c0.2,0.3,0.3,0.6,0.3,1c0,0.5-0.1,1-0.3,1.5
			c-0.2,0.5-0.4,0.9-0.7,1.3c-0.3,0.4-0.6,0.7-0.9,1c-0.3,0.3-0.7,0.4-1,0.4c-0.4,0-0.6-0.1-0.8-0.4c-0.2-0.3-0.3-0.7-0.3-1.2
			c0-0.4,0.1-0.8,0.2-1.3c0.2-0.5,0.4-0.9,0.6-1.3c0.3-0.4,0.6-0.7,0.9-1C178,160,178.3,159.9,178.7,159.9z M177.4,164.8
			c0.2,0,0.4-0.1,0.6-0.2c0.2-0.2,0.4-0.4,0.6-0.6c0.2-0.3,0.3-0.5,0.4-0.9c0.1-0.3,0.1-0.7,0.1-1c0-0.4-0.1-0.8-0.2-1
			c-0.1-0.3-0.4-0.4-0.7-0.4c-0.2,0-0.4,0.1-0.6,0.2c-0.2,0.2-0.4,0.4-0.5,0.6c-0.2,0.3-0.3,0.6-0.4,0.9c-0.1,0.3-0.1,0.7-0.1,1.1
			C176.5,164.4,176.8,164.8,177.4,164.8z"/>
		<linearGradient id="SVGID_20_" gradientUnits="userSpaceOnUse" x1="184.8279" y1="165.5078" x2="184.8279" y2="159.9121">
			<stop  offset="0" style="stop-color:#F7941E"/>
			<stop  offset="1.313370e-002" style="stop-color:#EC8E20"/>
			<stop  offset="0.1109" style="stop-color:#C37727"/>
			<stop  offset="0.2191" style="stop-color:#A4672A"/>
			<stop  offset="0.3399" style="stop-color:#8E5A2A"/>
			<stop  offset="0.4805" style="stop-color:#7F5229"/>
			<stop  offset="0.6587" style="stop-color:#774E29"/>
			<stop  offset="1" style="stop-color:#754C29"/>
		</linearGradient>
		<path fill="url(#SVGID_20_)" d="M187.9,160.9c0-0.3-0.1-0.5-0.3-0.5c-0.2,0-0.5,0.1-0.7,0.3c-0.3,0.2-0.5,0.5-0.8,0.9
			c-0.3,0.4-0.6,0.9-0.9,1.5c-0.3,0.6-0.6,1.3-0.8,2c0,0.1-0.1,0.2-0.2,0.2c-0.1,0-0.2,0.1-0.4,0.1c-0.2,0-0.2-0.1-0.2-0.2
			c0.1-0.3,0.2-0.6,0.4-1c0.2-0.4,0.3-0.8,0.4-1.2c0.1-0.4,0.3-0.8,0.4-1.2c0.1-0.4,0.2-0.7,0.2-0.9c0-0.4-0.1-0.6-0.4-0.6
			c-0.4,0-0.9,0.4-1.4,1.2c-0.6,0.8-1.1,2-1.7,3.5c0,0.1-0.1,0.2-0.2,0.2c-0.1,0-0.2,0.1-0.3,0.1c-0.1,0-0.1,0-0.2,0
			c0,0-0.1-0.1,0-0.2c0.1-0.3,0.2-0.7,0.4-1.1c0.1-0.4,0.3-0.8,0.4-1.2c0.1-0.4,0.3-0.8,0.4-1.2c0.1-0.4,0.2-0.7,0.3-1.1
			c0.1-0.3,0-0.4-0.1-0.4c-0.1,0-0.3,0.1-0.4,0.2c-0.2,0.2-0.3,0.4-0.5,0.6c0,0-0.1,0-0.1,0c0,0-0.1-0.1,0-0.1
			c0.2-0.3,0.5-0.6,0.7-0.8c0.3-0.3,0.5-0.4,0.8-0.4c0.2,0,0.3,0.1,0.4,0.2c0.1,0.1,0.1,0.3,0,0.5c-0.1,0.3-0.1,0.6-0.2,0.9
			c-0.1,0.3-0.1,0.5-0.3,0.8c0.4-0.7,0.8-1.3,1.3-1.8c0.5-0.5,0.9-0.7,1.4-0.7c0.2,0,0.3,0.1,0.4,0.2c0.1,0.1,0.2,0.3,0.2,0.5
			c0,0.3,0,0.6-0.1,0.9c-0.1,0.3-0.1,0.6-0.3,0.9c0.4-0.8,0.9-1.5,1.4-1.9c0.5-0.5,1-0.7,1.5-0.7c0.2,0,0.3,0.1,0.4,0.2
			c0.1,0.1,0.2,0.3,0.2,0.5c0,0.3-0.1,0.5-0.2,0.9c-0.1,0.3-0.2,0.6-0.4,1c-0.1,0.3-0.3,0.7-0.4,1c-0.1,0.3-0.2,0.6-0.2,0.9
			c0,0.4,0.1,0.5,0.3,0.5c0.2,0,0.6-0.2,1-0.7c0,0,0.1,0,0.1,0c0,0,0,0.1,0,0.2c-0.1,0.1-0.2,0.2-0.3,0.4c-0.1,0.1-0.3,0.3-0.4,0.4
			c-0.1,0.1-0.3,0.2-0.4,0.3c-0.2,0.1-0.3,0.1-0.5,0.1c-0.3,0-0.5-0.3-0.5-0.8c0-0.3,0.1-0.7,0.2-1.1c0.1-0.4,0.2-0.7,0.3-1
			c0.1-0.3,0.2-0.6,0.3-0.9C187.8,161.4,187.9,161.1,187.9,160.9z"/>
		<linearGradient id="SVGID_21_" gradientUnits="userSpaceOnUse" x1="191.6792" y1="165.5078" x2="191.6792" y2="159.9121">
			<stop  offset="0" style="stop-color:#F7941E"/>
			<stop  offset="1.313370e-002" style="stop-color:#EC8E20"/>
			<stop  offset="0.1109" style="stop-color:#C37727"/>
			<stop  offset="0.2191" style="stop-color:#A4672A"/>
			<stop  offset="0.3399" style="stop-color:#8E5A2A"/>
			<stop  offset="0.4805" style="stop-color:#7F5229"/>
			<stop  offset="0.6587" style="stop-color:#774E29"/>
			<stop  offset="1" style="stop-color:#754C29"/>
		</linearGradient>
		<path fill="url(#SVGID_21_)" d="M193.6,160.9c0,0.2-0.1,0.4-0.2,0.6c-0.2,0.2-0.4,0.3-0.7,0.5c-0.3,0.1-0.6,0.3-1,0.4
			c-0.4,0.1-0.7,0.2-1.1,0.3c0,0.2,0,0.3,0,0.5c0,0.2,0,0.3,0,0.5c0,0.4,0.1,0.7,0.2,0.9c0.2,0.2,0.4,0.4,0.7,0.4
			c0.3,0,0.6-0.1,0.8-0.2c0.3-0.1,0.5-0.3,0.7-0.6c0.1,0,0.1,0,0.1,0c0,0,0,0.1,0,0.2c-0.2,0.3-0.6,0.6-0.9,0.9
			c-0.4,0.2-0.8,0.4-1.2,0.4c-0.4,0-0.7-0.1-0.9-0.4c-0.2-0.2-0.4-0.6-0.4-1.1c0-0.4,0.1-0.9,0.2-1.4c0.2-0.5,0.4-0.9,0.6-1.3
			c0.3-0.4,0.6-0.7,0.9-1c0.3-0.3,0.7-0.4,1.1-0.4c0.3,0,0.5,0.1,0.7,0.3C193.5,160.4,193.6,160.6,193.6,160.9z M192.2,160.5
			c-0.3,0-0.6,0.1-0.9,0.4c-0.3,0.3-0.5,0.8-0.6,1.4c0.7-0.1,1.2-0.2,1.5-0.4c0.3-0.2,0.5-0.4,0.5-0.7c0-0.2-0.1-0.4-0.2-0.5
			C192.5,160.5,192.3,160.5,192.2,160.5z"/>
		<linearGradient id="SVGID_22_" gradientUnits="userSpaceOnUse" x1="197.0086" y1="165.5078" x2="197.0086" y2="159.9121">
			<stop  offset="0" style="stop-color:#F7941E"/>
			<stop  offset="1.313370e-002" style="stop-color:#EC8E20"/>
			<stop  offset="0.1109" style="stop-color:#C37727"/>
			<stop  offset="0.2191" style="stop-color:#A4672A"/>
			<stop  offset="0.3399" style="stop-color:#8E5A2A"/>
			<stop  offset="0.4805" style="stop-color:#7F5229"/>
			<stop  offset="0.6587" style="stop-color:#774E29"/>
			<stop  offset="1" style="stop-color:#754C29"/>
		</linearGradient>
		<path fill="url(#SVGID_22_)" d="M199.8,164.1c0,0,0.1,0,0.1,0c0,0,0.1,0.1,0,0.1c-0.3,0.3-0.5,0.6-0.8,0.9
			c-0.3,0.3-0.6,0.4-0.8,0.4c-0.5,0-0.7-0.3-0.7-0.9c0-0.5,0.1-1,0.3-1.7c0.2-0.6,0.4-1.2,0.7-1.8c0.1-0.1,0.1-0.2,0.1-0.3
			c0-0.2-0.1-0.2-0.2-0.2c-0.5,0-1.1,0.4-1.8,1.1c-0.6,0.7-1.2,1.9-1.8,3.5c0,0.1-0.1,0.2-0.2,0.2c-0.1,0-0.3,0.1-0.4,0.1
			c-0.2,0-0.2-0.1-0.2-0.2c0.2-0.6,0.5-1.3,0.8-2.1c0.3-0.8,0.5-1.6,0.7-2.3c0.1-0.3,0-0.4-0.2-0.4c-0.1,0-0.3,0.1-0.4,0.2
			c-0.1,0.1-0.3,0.3-0.5,0.6c0,0-0.1,0-0.1,0c0,0,0-0.1,0-0.1c0.2-0.3,0.4-0.5,0.7-0.8c0.3-0.3,0.6-0.4,0.9-0.4
			c0.4,0,0.5,0.2,0.4,0.7c-0.1,0.3-0.1,0.7-0.2,1c-0.1,0.4-0.2,0.7-0.3,1.1c0.2-0.4,0.4-0.8,0.7-1.1c0.3-0.3,0.6-0.6,0.9-0.9
			c0.3-0.2,0.6-0.4,0.9-0.6c0.3-0.1,0.6-0.2,0.8-0.2c0.2,0,0.3,0,0.4,0.1c0.1,0.1,0.1,0.2,0.1,0.3c0,0.2,0,0.4-0.1,0.6
			c-0.3,0.6-0.6,1.1-0.8,1.7c-0.2,0.6-0.3,1.2-0.3,1.7c0,0.4,0.1,0.5,0.3,0.5C199,164.9,199.4,164.6,199.8,164.1z"/>
		<linearGradient id="SVGID_23_" gradientUnits="userSpaceOnUse" x1="202.7057" y1="165.5078" x2="202.7057" y2="157.231">
			<stop  offset="0" style="stop-color:#F7941E"/>
			<stop  offset="1.313370e-002" style="stop-color:#EC8E20"/>
			<stop  offset="0.1109" style="stop-color:#C37727"/>
			<stop  offset="0.2191" style="stop-color:#A4672A"/>
			<stop  offset="0.3399" style="stop-color:#8E5A2A"/>
			<stop  offset="0.4805" style="stop-color:#7F5229"/>
			<stop  offset="0.6587" style="stop-color:#774E29"/>
			<stop  offset="1" style="stop-color:#754C29"/>
		</linearGradient>
		<path fill="url(#SVGID_23_)" d="M204.5,160c0.1,0,0.1,0.1,0.1,0.1c0,0.1-0.1,0.1-0.2,0.1c-0.2,0-0.5,0-0.8,0c-0.3,0-0.6,0-0.9,0.1
			c-0.3,0.7-0.5,1.4-0.7,2.1c-0.2,0.7-0.3,1.2-0.3,1.7c0,0.5,0.2,0.7,0.6,0.7c0.4,0,0.8-0.3,1.2-1c0,0,0.1,0,0.1,0
			c0,0,0.1,0.1,0,0.2c-0.1,0.2-0.3,0.4-0.4,0.6c-0.2,0.2-0.3,0.3-0.5,0.5c-0.2,0.1-0.3,0.2-0.5,0.3c-0.2,0.1-0.3,0.1-0.4,0.1
			c-0.3,0-0.6-0.1-0.7-0.3c-0.2-0.2-0.2-0.4-0.2-0.7c0-0.5,0.1-1.1,0.3-1.8c0.2-0.7,0.5-1.5,0.8-2.3c-0.2,0-0.4,0.1-0.5,0.1
			c-0.2,0-0.3,0.1-0.5,0.1c-0.1,0-0.1-0.1-0.1-0.1c0-0.1,0.1-0.1,0.2-0.2c0.1-0.1,0.2-0.1,0.3-0.2c0.1-0.1,0.3-0.1,0.4-0.1
			c0.1,0,0.1,0,0.2,0c0.1,0,0.1,0,0.2,0c0.2-0.5,0.4-0.9,0.6-1.3c0.2-0.4,0.4-0.8,0.6-1.1c0.1-0.1,0.2-0.2,0.3-0.2
			c0.1-0.1,0.2-0.1,0.3-0.1c0.1,0,0.2,0,0.2,0c0.1,0,0.1,0,0.1,0.1c-0.2,0.4-0.5,0.8-0.7,1.3c-0.2,0.5-0.5,0.9-0.7,1.4
			c0.3,0,0.5,0,0.8,0C203.9,160,204.2,160,204.5,160z"/>
		<linearGradient id="SVGID_24_" gradientUnits="userSpaceOnUse" x1="205.6792" y1="165.5078" x2="205.6792" y2="159.9121">
			<stop  offset="0" style="stop-color:#F7941E"/>
			<stop  offset="1.313370e-002" style="stop-color:#EC8E20"/>
			<stop  offset="0.1109" style="stop-color:#C37727"/>
			<stop  offset="0.2191" style="stop-color:#A4672A"/>
			<stop  offset="0.3399" style="stop-color:#8E5A2A"/>
			<stop  offset="0.4805" style="stop-color:#7F5229"/>
			<stop  offset="0.6587" style="stop-color:#774E29"/>
			<stop  offset="1" style="stop-color:#754C29"/>
		</linearGradient>
		<path fill="url(#SVGID_24_)" d="M206.7,159.9c0.3,0,0.5,0,0.7,0.1c0.2,0.1,0.3,0.2,0.3,0.3c0,0.2,0,0.3-0.1,0.5
			c-0.1,0.2-0.1,0.4-0.2,0.5c0,0-0.1,0-0.1,0c-0.1,0-0.1-0.1-0.1-0.1c0-0.1,0.1-0.2,0.1-0.3c0-0.1,0-0.2,0-0.3
			c-0.1-0.3-0.3-0.4-0.6-0.4c-0.2,0-0.4,0.1-0.6,0.2c-0.2,0.1-0.2,0.4-0.2,0.7c0,0.2,0.1,0.5,0.2,0.7c0.1,0.2,0.3,0.4,0.4,0.6
			c0.2,0.2,0.3,0.4,0.4,0.7c0.1,0.2,0.2,0.5,0.2,0.8c0,0.5-0.2,0.9-0.5,1.2c-0.3,0.3-0.8,0.5-1.5,0.5c-0.5,0-0.8-0.1-1.1-0.2
			c-0.3-0.2-0.4-0.3-0.4-0.5c0-0.1,0.1-0.3,0.2-0.6c0.2-0.3,0.3-0.5,0.5-0.6c0,0,0.1,0,0.1,0c0,0,0,0.1,0,0.1
			c-0.1,0.1-0.2,0.3-0.3,0.4c-0.1,0.2-0.1,0.3,0,0.4c0,0.2,0.2,0.4,0.3,0.6c0.2,0.1,0.4,0.2,0.6,0.2c0.4,0,0.7-0.1,0.9-0.3
			c0.2-0.2,0.3-0.5,0.3-0.8c0-0.3-0.1-0.5-0.2-0.8c-0.1-0.2-0.3-0.5-0.4-0.7c-0.2-0.2-0.3-0.5-0.4-0.7c-0.1-0.2-0.2-0.5-0.2-0.7
			c0-0.4,0.1-0.7,0.4-1C205.9,160,206.3,159.9,206.7,159.9z"/>
		<linearGradient id="SVGID_25_" gradientUnits="userSpaceOnUse" x1="213.7661" y1="165.5078" x2="213.7661" y2="159.9121">
			<stop  offset="0" style="stop-color:#F7941E"/>
			<stop  offset="1.313370e-002" style="stop-color:#EC8E20"/>
			<stop  offset="0.1109" style="stop-color:#C37727"/>
			<stop  offset="0.2191" style="stop-color:#A4672A"/>
			<stop  offset="0.3399" style="stop-color:#8E5A2A"/>
			<stop  offset="0.4805" style="stop-color:#7F5229"/>
			<stop  offset="0.6587" style="stop-color:#774E29"/>
			<stop  offset="1" style="stop-color:#754C29"/>
		</linearGradient>
		<path fill="url(#SVGID_25_)" d="M214.6,159.9c0.4,0,0.7,0.1,0.9,0.4c0.2,0.3,0.3,0.6,0.3,1c0,0.5-0.1,1-0.3,1.5
			c-0.2,0.5-0.4,0.9-0.7,1.3c-0.3,0.4-0.6,0.7-1,1c-0.3,0.3-0.7,0.4-1,0.4c-0.3,0-0.6-0.1-0.8-0.4c-0.2-0.3-0.3-0.7-0.3-1.2
			c0-0.4,0.1-0.8,0.2-1.3c0.2-0.5,0.4-0.9,0.6-1.3c0.3-0.4,0.6-0.7,0.9-1C213.9,160,214.3,159.9,214.6,159.9z M213.3,164.8
			c0.2,0,0.4-0.1,0.6-0.2c0.2-0.2,0.4-0.4,0.6-0.6c0.2-0.3,0.3-0.5,0.4-0.9c0.1-0.3,0.1-0.7,0.1-1c0-0.4-0.1-0.8-0.2-1
			c-0.1-0.3-0.4-0.4-0.7-0.4c-0.2,0-0.4,0.1-0.6,0.2c-0.2,0.2-0.4,0.4-0.5,0.6c-0.2,0.3-0.3,0.6-0.4,0.9c-0.1,0.3-0.1,0.7-0.1,1.1
			C212.4,164.4,212.7,164.8,213.3,164.8z"/>
		<linearGradient id="SVGID_26_" gradientUnits="userSpaceOnUse" x1="218.5327" y1="170.8203" x2="218.5327" y2="149.6191">
			<stop  offset="0" style="stop-color:#F7941E"/>
			<stop  offset="1.313370e-002" style="stop-color:#EC8E20"/>
			<stop  offset="0.1109" style="stop-color:#C37727"/>
			<stop  offset="0.2191" style="stop-color:#A4672A"/>
			<stop  offset="0.3399" style="stop-color:#8E5A2A"/>
			<stop  offset="0.4805" style="stop-color:#7F5229"/>
			<stop  offset="0.6587" style="stop-color:#774E29"/>
			<stop  offset="1" style="stop-color:#754C29"/>
		</linearGradient>
		<path fill="url(#SVGID_26_)" d="M226.2,149.6c0.3,0,0.5,0.1,0.7,0.2c0.2,0.1,0.3,0.3,0.4,0.5c0.1,0.2,0.1,0.4,0.1,0.6
			c0,0.2-0.1,0.5-0.2,0.7c0,0-0.1,0.1-0.1,0c0,0-0.1,0-0.1-0.1c0-0.3-0.2-0.5-0.4-0.8c-0.2-0.2-0.6-0.3-1.1-0.3
			c-0.6,0-1.1,0.1-1.6,0.4c-0.5,0.3-1,0.8-1.5,1.5c-0.5,0.7-1,1.7-1.6,3c-0.5,1.2-1.1,2.8-1.7,4.7c0.3,0,0.7,0,1.1,0
			c0.4,0,0.8,0,1.1,0c0.1,0,0.1,0.1,0.1,0.1c0,0-0.1,0.1-0.2,0.1c-0.4,0-0.7,0-1.1,0c-0.4,0-0.7,0-1.1,0.1c0,0.2-0.1,0.3-0.2,0.4
			c-0.6,1.9-1.2,3.5-1.8,4.8c-0.6,1.3-1.3,2.3-1.9,3.1c-0.7,0.8-1.3,1.3-2,1.7c-0.7,0.3-1.4,0.5-2.1,0.5c-0.5,0-0.8-0.1-1.1-0.3
			c-0.2-0.2-0.3-0.5-0.3-0.8c0-0.1,0-0.3,0.1-0.4c0.1-0.2,0.1-0.3,0.2-0.4c0,0,0.1-0.1,0.1,0c0,0,0.1,0.1,0.1,0.1
			c-0.1,0.1-0.1,0.2-0.1,0.4c0,0.2,0.1,0.3,0.2,0.4c0.1,0.1,0.3,0.3,0.5,0.4c0.2,0.1,0.5,0.1,0.8,0.1c0.3,0,0.7,0,1-0.1
			c0.3-0.1,0.7-0.3,1-0.5c0.3-0.2,0.7-0.6,1-1c0.3-0.4,0.7-1,1.1-1.7c0.4-0.7,0.7-1.6,1.1-2.6c0.4-1,0.8-2.2,1.2-3.6
			c0-0.1,0-0.1,0.1-0.2c0-0.1,0-0.1,0.1-0.2c-0.2,0-0.5,0.1-0.7,0.1c-0.2,0-0.5,0.1-0.7,0.1c-0.1,0-0.1-0.1-0.1-0.1
			c0-0.1,0.1-0.1,0.2-0.2c0.1-0.1,0.2-0.1,0.3-0.2c0.1-0.1,0.3-0.1,0.4-0.1c0.1,0,0.2,0,0.4,0c0.1,0,0.3,0,0.4,0
			c0.5-1.6,1.1-3,1.7-4.3c0.6-1.3,1.2-2.4,1.9-3.3c0.7-0.9,1.4-1.6,2.1-2.1C224.7,149.9,225.4,149.6,226.2,149.6z"/>
		<linearGradient id="SVGID_27_" gradientUnits="userSpaceOnUse" x1="228.2497" y1="165.5078" x2="228.2497" y2="149.2666">
			<stop  offset="0" style="stop-color:#F7941E"/>
			<stop  offset="1.313370e-002" style="stop-color:#EC8E20"/>
			<stop  offset="0.1109" style="stop-color:#C37727"/>
			<stop  offset="0.2191" style="stop-color:#A4672A"/>
			<stop  offset="0.3399" style="stop-color:#8E5A2A"/>
			<stop  offset="0.4805" style="stop-color:#7F5229"/>
			<stop  offset="0.6587" style="stop-color:#774E29"/>
			<stop  offset="1" style="stop-color:#754C29"/>
		</linearGradient>
		<path fill="url(#SVGID_27_)" d="M232.4,149.3c0.4,0,0.6,0.2,0.7,0.5c0.1,0.3,0.1,0.7-0.1,1.1c0,0-0.1,0-0.1,0c0,0-0.1-0.1-0.1-0.1
			c0-0.2,0-0.3-0.2-0.4c-0.2-0.1-0.4-0.2-0.7-0.2c-0.6,0-1.2,0.3-1.9,0.8c-0.6,0.5-1.2,1.2-1.8,2c-0.6,0.8-1.1,1.8-1.6,2.8
			c-0.5,1-0.9,2.1-1.3,3.1c-0.4,1-0.6,2-0.8,2.9c-0.2,0.9-0.3,1.7-0.3,2.2c0,0.4,0.1,0.7,0.4,0.7c0.2,0,0.3-0.1,0.5-0.2
			c0.2-0.1,0.4-0.4,0.6-0.7c0,0,0.1,0,0.1,0c0,0,0,0.1,0,0.1c-0.3,0.5-0.6,0.8-1,1.1c-0.4,0.3-0.6,0.4-0.9,0.4
			c-0.2,0-0.3-0.1-0.5-0.2c-0.1-0.2-0.2-0.4-0.2-0.6c0-0.4,0.1-0.9,0.2-1.6c0.1-0.6,0.3-1.4,0.6-2.2c0.3-0.8,0.6-1.6,1-2.5
			c0.4-0.9,0.8-1.8,1.2-2.6c0.4-0.9,0.9-1.7,1.4-2.5c0.5-0.8,1-1.5,1.5-2.1c0.5-0.6,1-1.1,1.6-1.4
			C231.3,149.4,231.8,149.3,232.4,149.3z"/>
		<linearGradient id="SVGID_28_" gradientUnits="userSpaceOnUse" x1="228.3556" y1="165.5078" x2="228.3556" y2="156.6937">
			<stop  offset="0" style="stop-color:#F7941E"/>
			<stop  offset="1.313370e-002" style="stop-color:#EC8E20"/>
			<stop  offset="0.1109" style="stop-color:#C37727"/>
			<stop  offset="0.2191" style="stop-color:#A4672A"/>
			<stop  offset="0.3399" style="stop-color:#8E5A2A"/>
			<stop  offset="0.4805" style="stop-color:#7F5229"/>
			<stop  offset="0.6587" style="stop-color:#774E29"/>
			<stop  offset="1" style="stop-color:#754C29"/>
		</linearGradient>
		<path fill="url(#SVGID_28_)" d="M226.8,161.4c0,0-0.1,0-0.1,0c0,0,0-0.1,0-0.1c0.2-0.2,0.5-0.4,0.8-0.7c0.3-0.3,0.7-0.5,1-0.7
			c0.1,0,0.2,0.1,0.2,0.2c-0.2,0.3-0.4,0.7-0.6,1.1c-0.2,0.4-0.3,0.8-0.5,1.2c-0.1,0.4-0.3,0.8-0.3,1.1c-0.1,0.4-0.1,0.7-0.1,0.9
			c0,0.3,0.1,0.5,0.3,0.5c0.2,0,0.3-0.1,0.5-0.2c0.2-0.1,0.3-0.3,0.5-0.6c0,0,0.1,0,0.1,0c0,0,0,0.1,0,0.2c-0.3,0.3-0.5,0.6-0.8,0.9
			c-0.3,0.3-0.6,0.4-0.8,0.4c-0.4,0-0.6-0.2-0.6-0.7c0-0.3,0-0.6,0.1-1c0.1-0.4,0.2-0.8,0.4-1.2c0.1-0.4,0.3-0.8,0.5-1.1
			c0.2-0.4,0.4-0.7,0.5-0.9c-0.2,0.1-0.4,0.3-0.6,0.4C227.1,161.2,226.9,161.3,226.8,161.4z M228.7,159c0,0-0.1,0-0.1,0
			c0,0-0.1-0.1-0.1-0.2c0-0.1,0-0.1,0-0.2c0-0.1,0-0.2,0.1-0.2c0.4-0.5,0.9-1.1,1.6-1.7c0,0,0.1,0,0.1,0c0,0,0.1,0.1,0,0.1
			c-0.3,0.3-0.6,0.6-0.9,1C229.2,158.2,228.9,158.6,228.7,159z"/>
		<linearGradient id="SVGID_29_" gradientUnits="userSpaceOnUse" x1="231.4077" y1="170.8203" x2="231.4077" y2="149.6191">
			<stop  offset="0" style="stop-color:#F7941E"/>
			<stop  offset="1.313370e-002" style="stop-color:#EC8E20"/>
			<stop  offset="0.1109" style="stop-color:#C37727"/>
			<stop  offset="0.2191" style="stop-color:#A4672A"/>
			<stop  offset="0.3399" style="stop-color:#8E5A2A"/>
			<stop  offset="0.4805" style="stop-color:#7F5229"/>
			<stop  offset="0.6587" style="stop-color:#774E29"/>
			<stop  offset="1" style="stop-color:#754C29"/>
		</linearGradient>
		<path fill="url(#SVGID_29_)" d="M239,149.6c0.3,0,0.5,0.1,0.7,0.2c0.2,0.1,0.3,0.3,0.4,0.5c0.1,0.2,0.1,0.4,0.1,0.6
			c0,0.2,0,0.5-0.2,0.7c0,0-0.1,0.1-0.1,0c0,0-0.1,0-0.1-0.1c0-0.3-0.2-0.5-0.4-0.8c-0.2-0.2-0.6-0.3-1.1-0.3
			c-0.6,0-1.1,0.1-1.6,0.4c-0.5,0.3-1,0.8-1.5,1.5c-0.5,0.7-1,1.7-1.6,3c-0.5,1.2-1.1,2.8-1.7,4.7c0.3,0,0.7,0,1.1,0
			c0.4,0,0.8,0,1.1,0c0.1,0,0.1,0.1,0.1,0.1c0,0-0.1,0.1-0.2,0.1c-0.4,0-0.7,0-1.1,0c-0.4,0-0.7,0-1.1,0.1c0,0.2-0.1,0.3-0.2,0.4
			c-0.6,1.9-1.2,3.5-1.8,4.8c-0.6,1.3-1.3,2.3-1.9,3.1c-0.7,0.8-1.3,1.3-2,1.7c-0.7,0.3-1.4,0.5-2.1,0.5c-0.5,0-0.8-0.1-1.1-0.3
			c-0.2-0.2-0.3-0.5-0.3-0.8c0-0.1,0-0.3,0.1-0.4c0.1-0.2,0.1-0.3,0.2-0.4c0,0,0.1-0.1,0.1,0c0,0,0.1,0.1,0.1,0.1
			c-0.1,0.1-0.1,0.2-0.1,0.4c0,0.2,0.1,0.3,0.2,0.4c0.1,0.1,0.3,0.3,0.5,0.4c0.2,0.1,0.5,0.1,0.8,0.1c0.3,0,0.7,0,1-0.1
			c0.3-0.1,0.7-0.3,1-0.5c0.3-0.2,0.7-0.6,1-1c0.3-0.4,0.7-1,1.1-1.7c0.4-0.7,0.7-1.6,1.1-2.6c0.4-1,0.8-2.2,1.2-3.6
			c0-0.1,0-0.1,0.1-0.2c0-0.1,0-0.1,0.1-0.2c-0.2,0-0.5,0.1-0.7,0.1c-0.2,0-0.5,0.1-0.7,0.1c-0.1,0-0.1-0.1-0.1-0.1
			c0-0.1,0.1-0.1,0.2-0.2c0.1-0.1,0.2-0.1,0.3-0.2c0.1-0.1,0.3-0.1,0.4-0.1c0.1,0,0.2,0,0.4,0c0.1,0,0.3,0,0.4,0
			c0.5-1.6,1.1-3,1.7-4.3c0.6-1.3,1.2-2.4,1.9-3.3c0.7-0.9,1.4-1.6,2.1-2.1C237.6,149.9,238.3,149.6,239,149.6z"/>
		<linearGradient id="SVGID_30_" gradientUnits="userSpaceOnUse" x1="234.8716" y1="165.5078" x2="234.8716" y2="159.9121">
			<stop  offset="0" style="stop-color:#F7941E"/>
			<stop  offset="1.313370e-002" style="stop-color:#EC8E20"/>
			<stop  offset="0.1109" style="stop-color:#C37727"/>
			<stop  offset="0.2191" style="stop-color:#A4672A"/>
			<stop  offset="0.3399" style="stop-color:#8E5A2A"/>
			<stop  offset="0.4805" style="stop-color:#7F5229"/>
			<stop  offset="0.6587" style="stop-color:#774E29"/>
			<stop  offset="1" style="stop-color:#754C29"/>
		</linearGradient>
		<path fill="url(#SVGID_30_)" d="M236.8,160.9c0,0.2-0.1,0.4-0.2,0.6c-0.2,0.2-0.4,0.3-0.7,0.5c-0.3,0.1-0.6,0.3-1,0.4
			c-0.4,0.1-0.7,0.2-1.1,0.3c0,0.2,0,0.3,0,0.5c0,0.2,0,0.3,0,0.5c0,0.4,0.1,0.7,0.2,0.9c0.2,0.2,0.4,0.4,0.7,0.4
			c0.3,0,0.6-0.1,0.8-0.2c0.3-0.1,0.5-0.3,0.7-0.6c0.1,0,0.1,0,0.1,0c0,0,0,0.1,0,0.2c-0.2,0.3-0.6,0.6-0.9,0.9
			c-0.4,0.2-0.8,0.4-1.2,0.4c-0.4,0-0.7-0.1-0.9-0.4c-0.2-0.2-0.4-0.6-0.4-1.1c0-0.4,0.1-0.9,0.2-1.4c0.2-0.5,0.4-0.9,0.6-1.3
			c0.3-0.4,0.6-0.7,0.9-1c0.3-0.3,0.7-0.4,1.1-0.4c0.3,0,0.5,0.1,0.7,0.3C236.7,160.4,236.8,160.6,236.8,160.9z M235.4,160.5
			c-0.3,0-0.6,0.1-0.9,0.4c-0.3,0.3-0.5,0.8-0.6,1.4c0.7-0.1,1.2-0.2,1.5-0.4c0.3-0.2,0.5-0.4,0.5-0.7c0-0.2-0.1-0.4-0.2-0.5
			C235.7,160.5,235.5,160.5,235.4,160.5z"/>
	</g>
	
		<linearGradient id="SVGID_31_" gradientUnits="userSpaceOnUse" x1="-8.0176" y1="169.9043" x2="-8.0176" y2="117.0859" gradientTransform="matrix(-1 0 0 1 250.4121 0)">
		<stop  offset="0" style="stop-color:#F7941E"/>
		<stop  offset="0.3414" style="stop-color:#BD7428"/>
		<stop  offset="0.7791" style="stop-color:#87572A"/>
		<stop  offset="1" style="stop-color:#754C29"/>
	</linearGradient>
	<path fill="url(#SVGID_31_)" d="M268.3,118.5c0,0-0.1,1.1,0,0.2c0,0.4,0,0.1,0,0.9c-0.1,1.6-0.2,4-0.5,6.8
		c-0.3,2.8-0.7,6.1-1.4,9.5c-0.3,1.7-0.7,3.5-1.2,5.3c-0.2,0.9-0.5,1.8-0.7,2.7c-0.3,0.9-0.5,1.8-0.8,2.7c-0.3,0.9-0.6,1.8-0.9,2.6
		c-0.2,0.4-0.3,0.9-0.5,1.3c-0.2,0.4-0.4,0.9-0.5,1.3c-0.7,1.7-1.5,3.3-2.4,4.9c-0.4,0.8-0.9,1.5-1.3,2.2c-0.5,0.7-1,1.4-1.4,2
		c-0.5,0.6-1,1.2-1.5,1.8c-0.5,0.6-1,1.1-1.5,1.6c-0.5,0.5-1,1-1.5,1.4c-0.5,0.4-1,0.8-1.4,1.2c-0.2,0.2-0.4,0.4-0.6,0.5
		c-0.2,0.2-0.4,0.3-0.6,0.4c-0.4,0.3-0.8,0.5-1.1,0.8c-0.7,0.4-1.3,0.7-1.7,0.9c-0.4,0.2-0.6,0.3-0.6,0.3s0.2-0.1,0.6-0.3
		c0.4-0.2,1-0.5,1.7-0.9c0.4-0.2,0.7-0.5,1.2-0.7c0.2-0.1,0.4-0.3,0.7-0.4c0.2-0.2,0.4-0.3,0.7-0.5c0.5-0.4,1-0.7,1.5-1.1
		c0.5-0.4,1-0.9,1.5-1.4c0.5-0.5,1-1,1.6-1.6c0.5-0.6,1-1.2,1.6-1.8c0.5-0.7,1-1.3,1.5-2c0.5-0.7,1-1.4,1.5-2.2
		c0.9-1.5,1.8-3.1,2.7-4.8c0.2-0.4,0.4-0.8,0.6-1.3c0.2-0.4,0.4-0.9,0.6-1.3c0.4-0.9,0.7-1.8,1.1-2.6c0.4-0.9,0.6-1.8,1-2.7
		c0.3-0.9,0.6-1.8,0.9-2.7c0.5-1.8,1-3.6,1.4-5.3c0.8-3.5,1.4-6.8,1.8-9.6c0.4-2.8,0.7-5.2,0.8-6.9c0.1-0.8,0.1-1.5,0.1-1.9
		c0-0.5,0-0.7,0-0.7L268.3,118.5z"/>
</g>
</svg>
