<?xml version="1.0" encoding="utf-8"?>
<!-- Generator: Adobe Illustrator 18.0.0, SVG Export Plug-In . SVG Version: 6.00 Build 0)  -->
<!DOCTYPE svg PUBLIC "-//W3C//DTD SVG 1.1//EN" "http://www.w3.org/Graphics/SVG/1.1/DTD/svg11.dtd">
<svg version="1.1" id="Layer_1" xmlns="http://www.w3.org/2000/svg" xmlns:xlink="http://www.w3.org/1999/xlink" x="0px" y="0px"
	 viewBox="0 0 560 560" enable-background="new 0 0 560 560" xml:space="preserve">
<g>
	<g>
		<path fill="#86604E" d="M202.2,263.2H350c0,0-22.1,145.3-73.9,131.3S202.2,263.2,202.2,263.2z"/>
		<g>
			<g>
				<g>
					<g opacity="0.8">
						<g opacity="0.8">
							<path fill="#EEE8E6" d="M226.5,332.1c5.6,12.3,11.5,24.6,19,35.6c7.6,10.6,17.6,19.6,28,22.4c1.1,0.3,2.2,0.6,3.4,0.8
								c1.1,0,2.2,0.3,3.4,0.3l-3.4-0.8c-6.4-2-12.3-6.2-17.6-10.9c-5.3-5-10.1-10.9-14.3-17.1c-8.4-12.6-15.1-26.9-20.7-40.9
								c-7.3-17.4-14.3-35.3-18.5-56c-0.6-2.2-1.4-2.5-2-2.5c-0.3,2.2-0.3,3.9-0.6,5.6c4.2,16.8,9.8,32.8,15.7,49.3
								C221.5,323.7,225.1,329,226.5,332.1z"/>
							<polygon fill="#E6DEDB" points="203.6,268 203.6,268.2 204.4,270.8 							"/>
							<path fill="#ECE6E3" d="M216.2,308c2,5.3,3.9,10.6,5.9,16c1.7,3.4,3.6,6.2,4.5,8.1c5.6,12.3,11.5,24.6,19,35.6
								c7.6,10.6,17.6,19.6,28,22.4c1.1,0.3,2.2,0.6,3.4,0.8c1.1,0,2.2,0.3,3.4,0.3c-1.1-0.3-2.5-0.6-3.6-0.8
								c-4.5-1.4-8.7-3.9-12.6-6.7c-3.9-2.8-7.6-6.7-10.9-10.4c-0.3-0.3-0.8-0.8-1.1-1.1c-4.2-3.9-6.7-9-9.8-13.7
								c-9-13.4-14-26.3-20.2-41.4c-2.2-5.3-5-10.9-7-17.6c-0.8-2.2-1.4-4.5-2-6.7c-2.8-8.7-5.6-17.6-7.3-27.2
								c-0.6-2.2-1.4-2.5-1.7-2.5c0,1.1-0.3,2.2-0.3,3.1c1.4,7.8,3.4,15.4,5.6,23.2c2.2,6.7,4.5,13.4,6.7,20.2
								C216.2,308.8,216.2,308.6,216.2,308z"/>
							<path fill="#E6DEDB" d="M215,309.1c0.3,0.8,1.4,2,1.1,0c-2.5-6.7-4.8-13.4-6.7-20.2C211.4,295.7,213.1,302.1,215,309.1z"/>
							<path fill="#F4F0EE" d="M212,309.1c4.2,13.4,10.1,25.5,14.6,36.4c2.2,5.3,4.5,10.9,6.7,16.2c1.1,1.7,2,3.4,3.4,5
								c3.4,5,7.3,9.8,11.8,14.3c4.2,4.5,9.2,8.7,14.6,11.8c5.6,3.1,11.5,5.6,18.5,6.2s13.7-2,19-5.6s9.8-8.4,13.4-13.2
								c3.9-4.8,7-10.1,9.8-15.4c5.6-10.6,10.4-21.6,14.3-32.8c3.9-11.2,6.7-22.4,9-33.6c1.1-5.6,2.2-11.2,3.1-17.1
								c0.6-2.8,0.8-5.9,1.4-8.7c0.6-3.6,1.1-7.6,1.4-11.5v-0.6c0-0.3,0-0.3,0-0.3H352h-2c-1.1,0-2.5,0-3.6,0c-2,0-3.9,0-5.9,0
								c-3.4,0-6.4-0.3-9.8-0.3c-6.4-0.3-12.6-0.6-19.6-1.1c-34.7-1.7-64.7,2-100,3.1c-9.5,0.3-10.9,3.9-8.4,3.9
								c29.7-0.8,58.5-0.6,87.4-0.6c14.3,0,28.8,0,43.4,0c3.6,0,7,0,10.6,0h2.8c0.3,0,0.3,0.3,0.3,0.6v0.6l-0.3,1.4l-0.8,4.8
								L345,278c-0.8,3.6-1.4,7.3-2.2,10.9c-4.8,22.4-10.9,44-19.9,63.6c-2.2,4.8-4.8,9.8-7.6,14.3c-1.4,2.2-2.8,4.5-4.5,6.7
								c-1.7,2-3.1,4.2-5,6.2c-6.7,7.8-16.2,13.2-25.2,11.5c-1.1,0-2.2-0.3-3.4-0.3c-1.1-0.3-2.2-0.6-3.4-0.8
								c-10.6-2.8-20.4-11.5-28-22.4c-7.6-10.6-13.7-23.2-19-35.6c-1.4-3.1-5-8.7-7-14c-6.2-16.5-11.5-32.8-15.7-49.3
								c-0.6,3.6-1.1,6.7-1.1,10.4C205.5,289.2,208.9,299.3,212,309.1z"/>
							<path fill="#E5DDD9" d="M212,309.1c-2.8-9.8-6.2-19.9-9.2-30c0,1.7,0,3.9,0.3,6.2c4.8,25.5,15.7,53.2,30.2,76.7
								c-2.2-5.3-4.5-10.9-6.7-16.2C222,334.6,215.9,322.6,212,309.1z"/>
							<path fill="#ECE6E3" d="M212,309.1c-2.8-9.5-5.9-19-9-28.6c0.6,3.4,1.4,6.7,2.2,10.1c4.5,17.1,10.6,34.2,17.1,50.4
								c-7.8-17.4-14-35.3-19-53.8c5,24.9,15.7,51.8,30,74.5c-2.2-5.3-4.5-10.9-6.7-16.2C222,334.6,215.9,322.6,212,309.1z"/>
							<path fill="#E3DAD6" d="M222.6,335.7c-8.1-19.6-14-40-19.9-60.8c0,0.8-0.3,2-0.3,3.1c0.3,0.8,0.3,1.7,0.6,2.5
								c3.1,9.8,6.2,19.3,9,28.6c4.2,13.4,10.1,25.5,14.6,36.4c2.2,5.3,4.5,10.9,6.7,16.2c1.1,1.7,2,3.1,3.1,4.8
								c3.4,5,7.6,10.1,11.8,14.6c4.5,4.5,9.2,8.7,15.1,12c5.6,3.1,11.8,5.6,19,5.9c7,0.3,14-2.5,19.3-6.2
								c9-7.3,15.1-16.8,20.7-26.6c5.3-10.1,9.8-20.4,14-30.8c-3.4,9.8-7.3,19.6-12.3,29.1c5.6-10.4,10.1-21.3,14-32.2
								c3.4-9.5,5.9-19,7.8-28.6c-0.3-2.2-0.3-5.3,0.8-10.6c0.8-4.2,1.7-8.1,2.2-12.3c0.3-2,0.8-4.2,1.1-6.2c0-1.1,0.3-2,0.3-3.1
								c0-1.1,0.3-2.2,0.3-3.4c0.3-1.4,0.8-1.4,1.4-4.5c-0.3,2.2-0.8,4.2-1.1,6.4c-0.3,1.4-0.3,2.8-0.6,4.2
								c-0.3,2.8-0.6,5.3-0.6,7.6c0.6-2.8,0.8-5.9,1.4-8.7c0.6-3.6,1.1-7.6,1.4-11.2v-0.8V261v-0.3h-1.4c-0.8,0-2,0-2.8,0
								c-2,0-3.6,0-5.3,0c-2.5,0-5,0-7.6-0.3c-5-0.3-10.1-0.6-15.1-0.8H317c-5.6,0-11.2,0.6-16.8,0.8c2.2,0,4.5,0,7,0
								c-3.6,0.3-8.4,0.3-11.8,0.3c1.7,0,3.4-0.3,5-0.3c-5.3,0-10.6,0-16.5-0.3c7,0,14.3-0.3,20.2-0.6c-12.9,0-24.9,0.3-37.5-0.3
								c0.3,0,0.6,0,0.8,0c-18.2,0.8-36.1,2.2-55.7,3.1c-9.5,0.3-10.9,3.9-8.4,3.9c41.4-1.1,81.2-0.6,121.8-0.6
								c-4.5-0.6-9.2-0.8-13.7-1.4c-2,0-3.9-0.3-5.9-0.6c2,0.3,3.9,0.3,5.9,0.6c5.3,0.3,11.5,0.3,17.4,0.6c1.1,0.3,4.5,0.3,6.2-0.3
								c2,0,4.2,0.3,6.2,0.3c1.7,0,3.6,0,5.3,0h1.1h0.6h0.3v0.3c0,0.8-0.3,1.4-0.3,2.2c-0.3,0.8-0.3,1.4-0.6,2.2
								c-0.3,1.1-0.6,2-0.8,3.1c0,0.6-0.6,1.1-0.8,2c-0.8,5-2,10.1-2.8,15.1c-3.1,14-6.4,27.7-10.9,40.6c-2.2,6.4-4.5,12.9-7.3,19
								c-2.8,6.2-5.6,12.3-9.2,17.9c3.6-5.3,6.7-10.6,9.8-15.7c4.2-6.7,9.2-23,12.6-36.7c0.8-3.6,2-5.3,3.1-8.7
								c-1.4,12.6-7.3,27.4-12.3,40.9c-3.4,8.7-8.7,19-15.4,28.3c-3.4,4.8-7.3,9-11.5,12.6c-4.2,3.6-9.2,6.2-14.3,7
								c-1.1,0.3-2,0.3-3.1,0.3c-1.1,0-2,0.3-3.1,0c-2-0.6-3.9-0.6-5.9-1.4l-2.8-1.1c-0.8-0.3-1.7-0.8-2.5-1.4
								c-0.8-0.6-1.4-0.8-2.2-1.4c-0.6-0.6-1.4-1.1-2-1.7c1.1,0.6,2.8,1.4,4.2,2c1.7,0.8,3.1,1.4,4.2,1.7c1.1,0.3,2.5,0.8,3.6,1.1
								l3.6,0.8c1.1,0,2.5,0,3.6,0c1.4,0,2.5-0.3,3.6-0.6c5-1.1,9.5-3.6,13.4-7c3.9-3.4,7.3-7.6,10.4-11.8c2.8-4.5,5.6-9,7.8-13.7
								c-5.3,9.5-11.5,18.8-19.6,25.2c-3.9,3.4-8.7,5.6-13.7,6.4c-5,0.8-9.8-0.3-14.6-2.5c5.6,2.2,11.5,3.4,17.1,2
								c5.6-1.4,10.6-5,14.3-9.5c-0.8,0.6-1.7,1.1-2.5,1.7c-1.4,1.4-3.1,2.2-4.8,3.6l-2.5,1.4c-0.6,0.3-0.8,0.6-1.4,0.6l-1.4,0.6
								c-3.4,1.4-7.3,1.4-10.6,1.1c-1.1,0-2.2-0.3-3.4-0.3c-1.1-0.3-2.2-0.6-3.4-0.8c-10.6-2.8-20.4-11.5-28-22.4
								c-7.6-10.6-13.7-23.2-19-35.6c-0.8-2-2.8-5-4.5-8.1c3.1,8.1,6.4,16.2,10.4,23.8c-1.4-3.1-2.5-6.4-3.4-9.2
								c3.6,7.3,5.9,13.7,10.4,20.7c-1.4-1.7-2.5-3.6-3.6-5.6s-2.2-3.9-3.1-5.6c2,4.8,4.8,9.8,7.6,14.6c-6.4-8.7-9.2-18.2-14.8-27.7
								c0.8,2,2,4.2,2.8,6.2c-0.8-2.2-2-4.2-2.8-6.4l0,0c-2.8-6.4-5.6-12.9-8.4-18.8c4.2,11.5,7.6,21.8,13.2,32.5
								c0.8,1.7,2,3.6,2.8,5c-1.1-1.7-2-3.4-2.8-5c-6.4-12-11.5-24.9-15.7-38.1c-4.2-13.2-7.6-26.3-10.4-39.8l-0.6-2.5
								c0,0.8-0.3,1.7-0.3,2.5C208,292.9,214.5,315,222.6,335.7z"/>
						</g>
					</g>
				</g>
			</g>
		</g>
	</g>
	<g>
		<circle fill="#DFCEC4" cx="280.8" cy="265.2" r="233.2"/>
		<g>
			<g>
				<g>
					<g opacity="0.8">
						<g opacity="0.8">
							<path fill="#FAF8F7" d="M402.4,79.8c-8.4-5.6-17.6-10.4-26.6-14.8c-9.2-4.5-18.8-8.4-28.3-11.8
								c-19.6-6.4-39.8-10.6-59.9-11.5c-40.9-2.5-80.4,8.4-108.9,28.3c-6.4,4.2-12.6,9-18.5,14c3.4-2,6.7-3.9,10.1-5.6
								c9.8-5,20.2-9.5,30.5-13.2c5.3-2,10.6-3.4,16-5c5.3-1.4,10.9-2.8,16.5-3.6c22.1-4.2,44.8-5,67.2-2.5
								c45.1,4.8,87.6,24.1,121.2,52.4c21.3,17.1,40.3,38.1,54.3,63.3c14.3,25.2,23.5,54.6,24.1,85.7c0,7,3.6,7.8,5.3,8.4
								c1.1-3.1,2.2-6.2,3.4-9c1.1-2.8,2.2-5.6,3.1-8.1c-1.4-13.4-4.2-26.6-8.1-39.2c-3.9-12.9-9-25.2-14.8-37
								c-12-23.8-27.7-45.6-46.8-64.7c-3.1-3.4-6.7-6.2-10.4-9c-3.9-2.5-7.6-5-11.2-7c-3.6-2-7.3-3.9-10.4-5.6
								C407.4,82.6,404.6,81.2,402.4,79.8z"/>
							<path fill="#F8F5F3" d="M512.1,248.9c0.3-0.3,0.3-0.6,0.3-1.1c-0.3-2.8-0.6-5.3-1.1-8.1C511.8,242.8,511.8,245.8,512.1,248.9
								z"/>
							<path fill="#FAF7F6" d="M463.1,130.5c-11.2-13.4-23.2-25.8-36.1-37c-2.2-1.7-4.8-2.8-7-4.2c-2.2-1.1-4.5-2.5-6.7-3.6
								c-4.5-2.2-8.1-4.2-10.9-5.9c-8.4-5.6-17.6-10.4-26.6-14.8c-9.2-4.5-18.8-8.4-28.3-11.8c-19.6-6.4-39.8-10.6-59.9-11.5
								c-40.9-2.5-80.4,8.4-108.9,28.3c-6.4,4.2-12.3,9-18.2,14c3.6-2,7.3-4.2,10.9-5.9c27.2-13.7,57.7-22.7,88.8-24.6
								c1.7-0.3,3.4-0.6,5-0.8c8.7-2,17.1-1.7,25.5-0.8c4.2,0.6,8.4,1.1,12.3,1.7c4.2,0.8,8.1,1.4,12.3,2.2
								c11.8,1.4,23,4.2,33.6,7.6s20.7,7.8,30.2,13.2c19.3,10.4,37,23.2,54.6,39.8c3.1,3.1,6.4,5.9,9.5,9c3.4,3.1,6.4,6.2,9.8,9.5
								c6.4,6.7,12.9,14.3,17.6,23.5c2,3.1,3.4,6.2,4.8,9.2c1.7,3.1,2.8,6.2,3.9,9.2c12.3,24.1,20.4,51.5,21,80.6
								c0,7,3.6,7.8,5.3,8.4c1.1-3.4,2.2-6.4,3.4-9.2c-0.3-12.3-1.4-24.6-3.9-36.7c-2.5-12-5.9-24.1-10.1-35.8
								c-8.7-20.2-20.2-38.9-33.6-56C462,128,462.6,129.1,463.1,130.5z"/>
							<path fill="#F8F5F3" d="M465.9,125.4c-2-2.5-6.2-3.9-4.5,1.7c13.7,17.1,25.2,35.8,33.6,56c-3.6-10.1-8.1-19.6-12.9-29.4
								C477.7,144.2,472.1,135,465.9,125.4z"/>
							<path fill="#FCFAF9" d="M478,121c-12.9-19-29.4-34.7-46.5-47.6s-35-22.7-51.5-31.9c-17.4-9.5-35.6-17.4-52.4-24.1
								c-3.4-0.6-6.4-1.1-9.5-1.7c-3.1-0.3-6.4-0.8-9.5-1.1c-20.2-1.7-40-0.8-59.9,2c-19.6,2.8-39.2,7.8-57.7,15.4
								C154,46.5,121,70,94.6,99.4c-13.2,14.8-24.6,31.1-33.9,48.4S44,183.7,38.9,202.7s-7.8,38.6-8.7,58.2
								c-0.8,19.6,0.8,39.5,4.8,58.8s10.6,38.1,19.6,55.2c9,17.1,19.9,33,32.5,47c12.6,14.3,27.2,26.6,42.8,37.5
								s32.8,19.9,51.2,26.9c5.3,2.5,10.6,4.2,15.7,6.4c2.5,0.8,5.3,2,7.8,2.8c1.4,0.6,2.5,0.8,3.9,1.4c1.4,0.3,2.5,0.8,3.9,1.1
								c2.5,0.8,5,1.7,7.6,2.5c2.5,0.8,5,1.4,7.6,2c5,1.4,10.1,2.5,15.4,3.6c20.4,4.2,41.4,6.7,64.7,5.6
								c29.1-1.4,56.8-9.2,81.5-21.6c24.6-12.6,46.5-29.7,64.4-49.8c35.8-40.3,57.1-92.1,61-148.1c1.1-15.1-3.1-23.8-6.4-27.4
								c-3.6-3.9-7.3-2.8-7.3,0.6c1.4,44-11.5,87.9-35.8,124c-24.1,36.1-59.4,64.7-99.1,80.9c-10.1,4.2-20.2,7.3-30.8,10.1
								c-10.4,2.5-21,4.2-31.9,5.6c-10.6,0.8-21.6,1.4-32.5,0.8c-10.9-0.6-21.6-1.7-32.2-3.6c-42.6-8.1-83.2-28.6-115.6-59.4
								c-12.6-11.8-23.5-25.2-32.8-39.8c-9.2-14.3-16.8-29.7-22.4-45.6c-11.2-31.9-14.6-66.1-10.4-98.8s16-64.1,33.9-91
								s41.4-49.3,68.6-65c5.9-5,12-9.8,18.5-14c28.3-19.9,68-30.8,108.6-28.3c20.2,0.8,40.6,5,59.9,11.5
								c9.8,3.4,19.3,7.3,28.3,11.8c9.2,4.5,18.2,9.2,26.6,14.8c2.2,1.4,5,3.1,8.1,4.8c3.4,1.7,6.7,3.4,10.4,5.6
								c3.9,2,7.6,4.5,11.2,7c3.6,2.8,7.3,5.6,10.4,9c19,19,34.7,40.9,46.8,64.7c5.9,11.8,10.9,24.4,14.8,37
								c3.9,12.9,6.4,26,8.1,39.2c4.5-11.2,8.1-21,9.5-33.3C512.7,179.8,496.4,149,478,121z"/>
							<path fill="#F8F4F2" d="M478,121c18.5,28,34.4,58.5,44,92.4c0.3-3.1,0.6-6.2,0.3-9.5c0-3.4-0.6-7-1.1-10.6
								c-0.6-2.8-1.1-5.3-1.7-8.1c-0.6-2.5-1.4-5.3-2.2-8.1c-1.7-5.3-3.4-10.6-5.3-16c-3.9-10.6-9.2-20.7-14.8-30.8
								c-5.9-10.1-12.6-19.3-20.2-28.6c-7.6-9-15.7-17.4-24.4-25.5c-9-7.8-18.2-15.1-28-21.6s-20.2-12.3-30.8-17.1
								c-10.6-4.8-21.6-9.2-32.5-12.6c-5.6-2-11.2-3.1-16.5-4.8c-2.8-0.6-5.6-1.1-8.4-1.7c-2.8-0.6-5.6-1.1-8.4-1.7
								c16.8,6.7,34.7,14.6,52.4,24.1c16.5,9.2,34.2,19,51.5,31.9C448.6,86.2,465.1,101.9,478,121z"/>
							<path fill="#FAF7F6" d="M478,121c17.6,26.6,33,55.7,42.6,87.9c-0.8-5.6-2.2-11.2-3.4-16.5c-0.8-2.8-1.7-5.6-2.5-8.1l-1.4-4.2
								l-1.4-3.9c-10.1-27.4-25.8-53.2-44.8-75.3c-19.3-22.1-42-41.2-66.9-56.6c27.7,15.1,52.6,35.6,72.8,59.6
								c20.4,24.1,36.4,52.1,46.8,82.3c-9.8-41.7-35.6-82-70.3-111.7c-8.7-7.6-17.9-14.3-27.4-20.4c-9.8-6.2-19.6-11.5-30-16.2
								c-10.4-4.5-21-9-31.6-12c-5.3-1.7-10.6-3.1-16.2-4.5c-2.8-0.6-5.3-1.1-8.1-1.7c-2.8-0.6-5.3-1.1-8.1-1.7
								c16.5,6.4,34.7,14.6,52.1,24.1c16.5,9.2,34.2,19,51.5,31.9C448.6,86.2,465.1,101.9,478,121z"/>
							<path fill="#F8F4F1" d="M408.8,59.6c28.6,19,53.2,43.7,72,72.2c18.8,28.6,32.2,61,38.9,95.2c0.8-3.1,1.4-6.2,2-9.8
								c-0.3-3.1-0.8-5.9-1.1-8.7c-9.5-31.9-24.9-61.3-42.6-87.9c-12.9-19-29.4-34.7-46.5-47.6s-35-22.7-51.5-31.9
								c-17.4-9.5-35.6-17.4-52.1-24.1c-3.1-0.6-6.2-1.1-9-1.4c-3.1-0.3-6.2-0.8-9-1.1c-20.4-1.7-41.2-0.8-61.3,2
								c-10.1,1.4-20.2,3.6-30,6.2c-9.8,2.8-19.6,5.9-28.8,9.8c-9.5,3.6-18.5,8.1-27.4,12.9c-8.7,5-17.4,10.4-25.5,16.2
								c-8.4,5.9-16,12.3-23.5,19c-7.3,7-14.6,14-21,21.8c-10.6,14-20.2,29.1-28.6,45.1c-8.1,16-14.8,33-19.9,50.7s-8.4,35.8-9.8,54
								c-1.4,18.5-0.8,37,1.4,55.2c-5.6-34.2-4.5-69.2,3.4-103.3c-9.8,37.2-11.2,76.7-3.9,114.5c6.7,33,21,63.3,40.6,89
								c3.4,1.7,6.7,4.5,11.2,8.1c4.5,3.6,9.5,8.4,15.7,14.6c9.8,9.5,19.9,18.5,30.8,26.3c10.9,7.8,23,14.8,35.6,19.9
								c3.4,1.7,1.4,3.9,8.1,7.3c-19-9.5-34.4-17.6-48.4-25.2c15.7,10.9,33,20.2,51.2,27.4c16.8,7.3,32.8,12.6,48.7,17.1
								c16,4.2,31.9,7.3,49,8.7c3.6,0,7.3-0.3,10.9-0.3c18.2-1.1,36.7-5,53.8-11.5c-3.6,0.8-7.3,1.7-10.9,2.5
								c-3.6,0.8-7.6,1.4-11.5,2c11.5-3.4,26.3-7,37.2-10.4c-4.8,2.2-9.8,4.2-14.8,6.2c17.4-4.2,33.3-10.1,50.4-18.8
								c-20.4,10.4-42.6,19.3-61.9,24.6c21-4.8,40.3-11.8,58.8-21c18.2-9.2,35.6-20.2,52.4-33c-0.8,0.8-1.4,1.7-2.2,2.5
								c21.8-20.7,39.5-45.4,52.1-72.8c12.6-27.2,20.2-57.1,22.7-88.2c0.3-3.6,0.3-7.3,0-10.1c-0.3-3.1-0.6-5.6-1.4-7.8
								c-1.4-4.5-3.1-7.6-5-9.5c-3.6-3.9-7.3-2.8-7.3,0.6c0.8,30.8-5.3,61.6-17.4,89.3c-12,28-30.2,53.2-52.6,73.6
								c-22.4,20.4-49,36.1-77.3,45.6c-28.6,9.8-59.1,13.4-89,11.2c13.4,2.8,27.4,4.5,41.7,4.8c3.1-0.3,6.2-0.3,9.2-0.3
								c3.1,0,5.9-0.3,8.7-0.3c-3.1,0.3-5.9,0.3-9,0.6c-3.1,0-5.9,0-9,0c-16.8,0.8-35.3,0.8-52.9-2.8c-1.7-0.8-5-1.4-8.7-1.7
								c-3.6-0.6-7.3-0.6-9.8,0.3c-11.8-3.6-24.6-7.3-37.2-12.3c-12.6-5-24.6-10.9-34.4-18.2c-1.1-0.8-2.8-2.8-4.8-5
								c-12.9-8.1-25.2-17.6-36.4-28.3c-31.4-30-52.9-68.9-61.6-110c-9-41.2-5.6-84.3,9-122.4c-8.1,17.9-13.7,36.4-17.6,54.3
								c-3.1,12-3.6,31.4,0,52.9c3.6,21.3,11.5,44.2,21.3,63.8c2.5,4.8,4.2,9,5.6,13.2c0.8,2,1.7,4.2,2.5,6.2c0.8,2.2,2,4.5,3.4,6.7
								c-0.8-0.8-1.7-1.7-2.5-2.8c-0.8-0.8-1.7-2-2.2-2.8c-1.7-2-3.1-3.9-4.8-6.2c-2.8-4.5-5.9-9-8.1-13.7
								c-5-9.8-9.2-20.4-12.3-31.6c-3.1-11.2-5.3-22.7-6.4-34.4c-1.4-11.5-1.7-23.2-2-34.2c0-14.8,2-31.4,6.2-47.9
								s10.6-33.6,18.8-49.6c8.4-16,18.2-31.1,29.4-45.1c10.9-13.7,23-26,34.7-37.2c9.8-9.2,20.7-16.2,31.9-21.3
								c11.2-5,22.1-8.7,32.5-10.9c-6.7,4.2-19.9,9.8-26.3,13.2c-28.8,14.6-54.6,35.8-74.8,61.3c-19.6,25.8-33.9,56-41.2,87.9
								c4.8-16.2,10.9-31.9,18.5-46.8c7.8-14.8,16.8-28.6,27.4-41.4c21-25.5,47.6-46.2,78.1-58.8l-6.4,3.4l-6.4,3.6l-3.1,1.4l-3.1,2
								l-6.2,3.6l-5.9,3.9l-3.1,2l-2.8,2.2l-5.9,4.2l-5.6,4.5c-14.6,12-27.2,26.3-35.8,42.3c2.2-2,4.5-4.2,6.7-6.4
								c16-19.6,35.3-36.1,56.6-48.7c5.9-5,11.8-9.8,18.2-14c28.3-19.9,68-30.8,108.6-28.3c20.2,0.8,40.6,5,59.9,11.5
								c9.8,3.4,19.3,7.3,28.3,11.8c9.2,4.5,18.2,9.2,26.6,14.8c2.8,1.7,6.4,3.9,10.9,5.9c2.2,1.1,4.5,2.2,6.7,3.6
								c2.2,1.1,4.8,2.5,7,4.2c-20.2-17.4-42.6-32.2-68-41.4c9.8,4.8,18.8,9.8,26,16c-10.9-5.6-21-10.6-31.6-15.1
								c-5.3-2.2-10.6-4.2-16-6.2c-5.6-1.7-11.5-3.1-17.6-4.2c13.4,1.4,26.6,4.8,39.2,9.2C343.8,44.8,327,40,310,37
								c16.8,0.6,32.5,5.6,47,11.8c14.8,6.2,28.8,13.7,44.2,20.7c-6.2-3.6-12.3-7.3-18.5-10.6c6.4,3.4,12.6,7,18.8,10.9
								c0,0-0.3,0-0.3-0.3c9.2,5.6,18.2,11.8,26.9,18.2c8.7,6.4,16.5,13.2,24.1,19.9c-12.9-14-26.3-26.3-40.6-37.5
								c-14.6-10.9-30.5-20.2-48.2-26.9c-2.8-1.1-5.9-2-9-2.8l-4.5-1.4l-4.5-1.1c1.7,0.3,3.1,0.8,4.5,1.1c1.4,0.6,3.1,0.8,4.5,1.4
								c3.1,1.1,5.9,1.7,9,3.1c41.2,14.6,77,42.3,102.8,77c25.8,34.7,40.9,76.7,44.5,119c0.6,2.5,0.6,5.3,1.1,8.1
								c1.1-2.5,2-5,2.8-7.3c-3.4-35.6-14.3-71.1-33-102.2c-9.2-15.7-20.2-30.2-32.5-43.4C437.4,81.8,423.6,69.7,408.8,59.6z"/>
						</g>
					</g>
				</g>
			</g>
		</g>
	</g>
	<g>
		<path fill="#A2D2EA" d="M357.3,221.2H188.2c0,0-6.7,43.7,8.7,60.2c11.8,12.9,41.7-6.2,76.2-6.7c37.8-0.6,69.4,14,76.7-0.3
			C365.1,244.2,357.3,221.2,357.3,221.2z"/>
		<g>
			<g>
				<g>
					<g opacity="0.8">
						<g opacity="0.8">
							<path fill="#EEE8E6" d="M337.1,282.8c-7,0.6-13.4-0.6-20.2-1.7c-6.4-1.1-12.9-2.2-19.3-3.1c-12.6-1.7-24.9-2.2-35.6,0
								c-2.2,0.6-4.8,1.1-7,1.7l3.6-0.3c13.7-1.4,28.3,0,43.1,2.2c7.3,1.1,14.8,2.2,22.4,3.1c3.9,0.3,7.8,0.8,12,0.6
								c2.2,0,4.2-0.3,6.7-0.8c2.2-0.6,4.8-1.7,7-3.4c1.4-1.1,2.5-2.5,3.4-3.9l0.6-1.1l0.3-0.8l0.8-1.7l1.4-3.4l1.1-3.4
								c1.7-4.5,2.8-9.2,3.6-14.3c1.7-9.8,2-19.9,0-30.5c-0.6-2.2-1.4-2.5-2-2.5c0,2.2-0.3,3.9-0.6,5.6c2.8,16.2,0,33.3-7.8,48.7
								c-1.4,2.8-3.9,5.6-6.7,6.7C341.6,282.2,339.1,282.8,337.1,282.8z"/>
							<path fill="#E6DEDB" d="M359,224.6v0.3c0.3,0.8,0.3,1.7,0.3,2.5C359.2,226.5,359,225.4,359,224.6z"/>
							<path fill="#ECE6E3" d="M355.3,264.6c-0.6,1.4-0.8,2.5-1.4,3.9c-0.6,1.4-1.1,2.5-1.7,3.9l-0.8,2c-0.3,0.6-0.8,1.4-1.1,2
								c-0.8,1.4-2.2,2.2-3.6,3.1c-3.4,2.5-7,3.4-9.2,3.4c-7,0.6-13.4-0.6-20.2-1.7c-6.4-1.1-12.9-2.2-19.3-3.1
								c-12.6-1.7-24.9-2.2-35.6,0c-2.2,0.6-4.8,1.1-7,1.7c1.4-0.3,2.5-0.3,3.9-0.6c4.8-0.6,9.5-0.6,14.6-0.6s10.1,0.6,15.1,1.1
								c0.6,0,1.1,0,1.7,0c5.6,0,10.9,1.4,16.2,2.2c7.8,0.8,15.1,2,22.7,2.8c3.9,0.3,7.8,0.6,12.3-0.6c2.2-0.6,4.8-1.4,7-2.8
								c1.1-0.8,2.2-1.7,3.1-2.8c0.6-0.6,0.8-1.1,1.1-1.7l0.6-0.8l0.3-0.8c2.5-5.3,3.9-11.5,5.9-18.2c0.6-2.2,1.1-4.5,1.7-6.7
								c1.4-9.2,1.4-18.5-0.6-28.6c-0.6-2.2-1.4-2.5-2-2.5c0,1.4,0,2.2,0,3.4c1.4,7.6,1.4,15.4,0.3,23.2c-0.8,6.7-2.2,13.4-4.8,20.2
								C355,265.4,355,265.2,355.3,264.6z"/>
							<path fill="#E6DEDB" d="M353.9,264.9c-0.3,0.8-0.3,2.2,0.8,0.8c2.5-6.4,4.2-13.2,4.8-20.2C358.7,252,356.7,258.7,353.9,264.9
								z"/>
							<path fill="#F4F0EE" d="M351.4,262.6c-0.6,1.4-1.4,3.1-2,4.5s-1.4,2.8-2,4.2c-0.3,0.8-0.6,1.1-0.8,1.7s-0.8,0.8-1.1,1.4
								c-0.8,0.8-2,1.4-3.1,2c-5,1.7-11.2,1.1-16.5,0.3c-5.6-0.8-10.9-2.5-16-3.9c-2-0.3-3.6-0.6-5.6-0.8c-11.2-1.4-23-2.2-34.4-1.7
								c-11.8,0.6-23,3.1-33.9,5.9c-5.6,1.4-10.9,2.8-16.2,3.9c-5.3,1.1-10.6,1.7-15.1,0.8c-2.2-0.6-3.6-1.4-5-2.8l-2-2.8l-1.7-3.4
								c-2-4.5-3.1-9.8-3.6-14.8c-1.4-10.6-1.4-21-0.8-31.6V224v-0.3h0.3h0.6c0.3,0,0.3,0,0.8,0h2l4.2-0.3
								c5.6-0.3,11.2-0.6,16.8-0.8c13.4-0.3,24.4,0.8,37.8,1.4c33,1.7,61.6-2,95.5-3.1c9-0.3,10.4-3.9,8.1-3.9
								c-28.3,0.8-55.7,0.6-83.2,0.6c-13.7,0-27.4,0-41.2,0c-7,0-13.7,0-20.7,0c-7.3,0-14.6,0.3-22.1,0.3h-2.8h-0.8
								c-0.3,0,0,0.3-0.3,0.6l-0.3,1.4l-0.3,2.8c0,0.8-0.3,2-0.3,2.5c-0.3,2.8-0.3,5.6-0.6,8.1c-0.3,5.6-0.3,10.9,0,16.2
								c0.3,5.3,1.1,10.9,2.2,16c1.1,5.3,3.4,10.6,6.7,15.1c1.4,2.2,4.2,4.5,7,5.3c2.8,1.1,5.6,1.4,8.4,1.4c5.6,0,10.6-1.1,16-2
								c10.1-2,20.2-4.5,30-5.6c2.2-0.6,4.8-1.1,7-1.7c10.6-2.2,23-1.7,35.6,0c6.4,0.8,12.6,2,19.3,3.1c6.4,0.8,13.2,2,20.2,1.7
								c1.7,0,4.5-0.6,7.3-2c2.8-1.4,5.3-3.9,6.7-6.7c7.8-15.4,10.6-32.5,7.8-48.7c-0.8,3.4-2,6.2-2.8,9.2
								C356.7,244.2,355,254,351.4,262.6z"/>
							<path fill="#E5DDD9" d="M351.4,262.6c3.6-8.7,5.3-18.5,4.8-28c-0.6,1.7-0.8,3.4-1.4,5.3c-0.8,5.6-2.2,11.5-4.2,17.1
								c-0.8,2.8-2,5.6-3.4,8.4c-1.4,2.5-2.8,6.2-3.6,6.7c-0.8,1.1-3.1,2-5.9,2.2c-2.8,0.3-5.9,0.3-9,0c-6.2-0.3-12.6-1.1-19-2
								c4.8,1.7,10.4,3.1,16,3.9c5.3,0.8,11.2,1.4,16.5-0.3c1.1-0.6,2.2-1.1,3.1-2c0.6-0.3,0.8-0.8,1.1-1.4c0.3-0.6,0.6-0.8,0.8-1.7
								c0.6-1.4,1.4-2.8,2-4.2C350,265.7,350.8,264.3,351.4,262.6z"/>
							<path fill="#ECE6E3" d="M351.4,262.6c1.7-4.2,3.1-8.7,3.9-13.2c0.8-4.5,1.1-9.2,0.8-13.7c-0.3,3.1-0.6,6.2-1.1,9.2
								c-1.1,7.8-3.6,15.7-7,23c-0.8,1.7-2,3.9-2.5,4.8c-0.8,0.8-2,1.7-3.4,2.2c-3.1,0.8-7,0.8-10.6,0.3c4.2,0.3,8.4,0,11.2-1.1
								c1.4-0.6,2.2-1.4,3.1-2.5c0.3-0.3,0.3-0.6,0.6-1.1l0.6-1.4l1.4-2.8c3.4-7.8,5.6-16,6.4-24.4c-0.8,5.6-2.5,11.2-4.5,16.8
								c-0.6,1.4-0.8,2.8-1.7,4.2c-0.6,1.4-1.1,2.8-1.7,4.2l-2,4.2c-0.6,0.8-0.8,1.4-1.4,2c-1.1,0.8-3.6,1.7-6.2,2
								c-2.8,0.3-5.6,0.3-8.7,0c-6.2-0.3-12.3-1.1-18.5-2c4.8,1.4,10.4,3.1,15.7,3.9c5.3,0.8,11.2,1.4,16.5-0.3
								c1.1-0.6,2.2-1.1,3.1-2c0.6-0.3,0.8-0.8,1.1-1.4c0.3-0.6,0.6-0.8,0.8-1.7c0.6-1.4,1.4-2.8,2-4.2
								C350,265.7,350.8,264.3,351.4,262.6z"/>
							<path fill="#E3DAD6" d="M335.4,277.8c4.8,0,9.5-0.8,12-4.2c0.6-0.8,1.1-2,1.7-3.1l1.7-3.4c0.8-2.2,2-4.5,2.8-7
								c3.4-9.2,4.8-19.3,3.6-29.4c-0.3,0.8-0.6,1.7-0.8,2.5c0,0.8,0,1.7-0.3,2.5c0.3,4.5,0,9.2-0.8,13.7c-0.8,4.5-2,9-3.9,13.2
								c-0.6,1.4-1.4,3.1-2,4.5s-1.4,2.8-2,4.2c-0.3,0.8-0.6,1.1-0.8,1.7s-0.8,0.8-1.1,1.4c-0.8,0.8-2,1.4-3.1,2
								c-5,1.7-11.2,1.1-16.5,0.3c-5.6-0.8-10.9-2.5-15.7-3.9c-1.7-0.3-3.4-0.6-5-0.6c-11.5-1.4-23.2-2.2-35.3-1.7
								c-12,0.6-23.5,3.4-34.7,5.9c-4.8,1.4-9.5,2.8-14.6,3.9c-4.8,1.1-10.1,2-14.6,1.4c-2.2-0.3-4.2-1.1-5.6-2.2
								c-0.3-0.3-0.8-0.6-1.1-1.1c-0.3-0.3-0.6-0.8-1.1-1.4c-0.6-0.8-1.4-1.7-2-2.8c-2.2-4.2-3.6-9-4.2-14c0.8,4.5,2.2,9,4.2,12.9
								c0.8,2,2.2,3.6,3.6,5c1.1,1.1,2.8,2,4.5,2.2c-2-0.6-3.6-1.4-4.8-2.8l-2-2.8l-1.7-2.8c-2-4.5-3.1-9.5-3.6-14.6
								c-1.1-9-1.4-17.9-1.1-26.9c-0.6-1.7-1.1-5.9-1.1-7.8c0-0.3,0.3-0.3,0.6-0.3h0.8h2c2,0,3.9,0,5.9-0.3c3.9,0,7.8-0.3,12-0.6
								c1.1,0,0.8,0.6,3.1,0.8c-6.2,0-11.5,0.3-16,1.1c5.6-0.3,11.2-0.6,16.8-0.8c10.6-0.3,19.6,0.3,29.4,0.8h3.1
								c5.3,0,10.6-0.6,16-0.8c-2.2,0-4.5,0-6.7,0c3.6-0.3,7.8-0.3,11.2-0.3c-1.7,0-3.1,0.3-4.8,0.3c5.3,0,10.1,0,15.7,0.3
								c-6.7,0-13.4,0.3-19.3,0.6c12.3,0,23.8-0.3,35.8,0.3h-0.8c17.4-0.8,34.4-2.2,53.2-3.1c9-0.3,10.4-3.9,8.1-3.9
								c-39.5,1.1-77.6,0.6-115.9,0.6c4.5,0.6,8.7,0.8,13.2,1.4c2,0,3.6,0.3,5.6,0.6c-2-0.3-3.6-0.3-5.6-0.6
								c-5.3-0.3-10.9-0.3-16.5-0.6c-1.1-0.3-4.5-0.3-5.6,0.3c-7.6-0.6-16.8,0-24.6-0.6c-0.6,0-1.1-0.3-2.2-0.6
								c-5.3,0-10.4,0.3-15.7,0.3H187h-0.8h-0.6v0.3l-0.6,3.6l-0.3,1.7l-0.3,1.7l-0.3,2.5c-0.3,3.4-0.3,6.7-0.6,10.4
								c0,6.7,0.3,13.7,1.1,20.4c1.1,6.7,2.5,13.4,6.2,19.6c0.8,1.7,2,2.8,3.1,4.2c1.1,1.4,2.8,2.5,4.5,3.6c3.4,1.7,7,2.2,10.6,2.2
								c-3.4,0-6.7-0.6-9.8-2.2c-1.4-0.8-2.8-2-3.9-3.1c-1.1-1.1-1.7-2.5-2.5-3.6c-1.7-3.4-4.2-9-5.6-15.4c-1.7-6.4-2.5-14-2.5-20.7
								c-0.3-3.4,0.6-5.6,0.8-9c0.6,5.9,0.8,12.6,1.4,19.6s1.7,14.3,4.5,20.2c1.1,2,2.2,4.2,3.6,5.9c1.4,2,3.4,3.6,5.9,4.5
								c4.8,2,10.6,1.4,16,0.6c10.9-1.7,21.6-5,31.1-7.3c7.8-2.2,15.4-2.5,21.8-2c-2.2,0.6-6.7,0.8-9,1.1
								c-9.8,1.1-19.6,3.4-29.4,5.6c-5,1.1-9.8,2.2-14.8,3.1s-10.4,1.4-15.4-0.3c5.3,2,10.9,1.4,16,0.6c5.3-0.8,10.4-2,15.4-3.1
								c10.1-2.2,20.2-4.5,30.2-5c-12,1.4-23.8,3.4-34.7,7c0.8,0,2-0.3,3.1-0.3c7.8-1.7,15.7-3.4,23.5-4.2c2.2-0.6,4.8-1.1,7-1.7
								c10.6-2.2,23-1.7,35.6,0c6.4,0.8,12.6,2,19.3,3.1c6.4,0.8,13.2,2,20.2,1.7c2.2-0.3,5.9-1.1,9.2-3.4c-4.5,2.2-9,2.5-13.2,2.2
								c-4.2-0.3-8.4-0.8-12.6-1.1c3.4,0.6,6.4,1.4,9.5,2c-8.1-0.6-14.3-2.5-22.1-3.4c4.2,0.3,8.4,0.8,12.6,1.4
								c-5-0.8-10.4-2-15.4-2.8c5,0.3,10.1,1.4,14.8,2.2c4.8,0.8,9.8,1.7,15.1,1.1c-2.2,0-4.5,0-6.7-0.3c2.2,0.3,4.5,0.3,6.7,0.3
								l0,0c3.4,0,7-0.6,10.1-2.2c1.4-0.8,2.8-2,3.6-3.4s1.4-2.8,2-4.2c-0.6,1.4-1.1,2.5-2,3.9c-0.8,1.1-2,2.2-3.1,2.8
								c-2.5,1.4-5,2-7.8,2c-5.3,0.3-10.9-0.6-16.5-1.4c-2-0.3-3.6-0.6-5.6-0.6c2,0.3,3.6,0.6,5.6,0.6c6.4,0.6,12.9,1.4,19.3,0.3
								c3.1-0.6,5.9-2,7.6-4.5c0.8-1.1,1.4-2.8,2.2-4.2s1.4-2.8,2-4.5c5-11.8,7.8-24.9,6.4-38.1c0-0.8-0.3-1.7-0.3-2.5
								c-0.3,0.8-0.3,1.4-0.6,2.2c1.1,10.6-0.3,21.6-3.9,31.6c-1.7,5-3.9,9.8-6.4,14.3C345.5,277.2,340.2,277.8,335.4,277.8z"/>
						</g>
					</g>
				</g>
			</g>
		</g>
	</g>
	<g>
		<g>
			<g>
				<g>
					<g opacity="0.8">
						<g opacity="0.8">
							<path fill="#FFFFFF" d="M362.3,406.3c-14,0.6-28.8-3.6-40.6,0.6c-1.4,0.3-2.8,0.8-3.9,1.4c0.6,0,1.4,0.3,2,0.3
								c15.4,2.5,32.5,3.4,48.4,2.2c9.8-1.4,19.9-4.2,30.8-3.9c1.1,0,1.4-1.7,1.4-2.5c-1.1-1.1-2-2.2-2.8-3.6
								c-9,0.8-17.6,2.5-26.9,2.5C367.6,403.5,364.3,406.3,362.3,406.3z"/>
							<path fill="#FFFFFF" d="M397.6,401.2C397.6,401.2,397.6,401,397.6,401.2c-0.6-0.3-1.1-0.3-1.4,0
								C396.8,401.2,397.3,401.2,397.6,401.2z"/>
							<path fill="#FFFFFF" d="M376,403.8c-3.1,0.6-5.9,0.6-8.7,0.6c-2,0.8-3.6,2-4.8,2c-14,0.6-28.8-3.6-40.6,0.6
								c-1.4,0.3-2.5,0.8-3.9,1.4c0.8,0,1.4,0.3,2.2,0.3c5.3,0.8,10.9,1.7,16.5,2c0.3,0,0.6-0.3,0.8-0.3c3.1-1.1,6.2,0.3,9,0.6
								c8.7-0.8,15.7,0.3,24.4-0.6c3.1-0.3,6.2-2.2,9.8-2.2c1.1,0,2.5,0,3.6,0.3c4.8-0.8,9.5-1.4,14.6-1.1c1.1,0,1.4-1.7,1.4-2.5
								c-0.6-0.6-1.1-1.1-1.7-2c-4.2-0.3-8.1-0.3-12.3-0.3c-3.6,0.6-7.3,0.8-10.9,1.1C375.5,403.5,375.8,403.8,376,403.8z"/>
							<path fill="#FFFFFF" d="M375.8,401.2c-0.6,0-1.1,1.1-0.3,2.2c3.6-0.3,7.3-0.6,10.9-1.1C382.8,402.1,379.4,402.1,375.8,401.2z
								"/>
							<path fill="#FFFFFF" d="M376.3,395.1c-7.3-0.8-14,1.4-19.9,0c-3.1-0.8-6.2-2-9-3.6c-1.1,0-2,0-3.1,0c-24.4,1.4-48.7,2-72.8,0
								c-12-0.6-23.2,2.5-35.6,4.5c-7.3,0.6-13.2-1.4-20.4-2.8c-17.9-3.6-33.3,3.9-51.5,6.4c-5,0.6-5.6,7.6-4.5,7.8
								c30.5-2.8,59.4,0.3,89.9-1.7c23.8-1.4,45.9-0.3,68,3.1c1.4-0.6,2.8-0.8,3.9-1.4c12-4.2,26.6,0,40.6-0.6c1.7,0,5-2.8,8.1-2.8
								c9.2,0,17.9-1.7,26.9-2.5c-1.7-2.5-3.4-5.3-5-7C387,394.8,381.4,395.9,376.3,395.1z"/>
							<path fill="#FFFFFF" d="M376.3,395.1c5.3,0.8,10.6,0,16.2-1.1c-0.8-0.8-2-1.7-3.1-2.2c-13.2-3.9-28-1.1-42-0.6
								c2.8,1.7,5.6,3.1,9,3.6C362,396.5,369,394.2,376.3,395.1z"/>
							<path fill="#FFFFFF" d="M376.3,395.1c5,0.8,10.1,0,15.4-1.1c-1.7-0.3-3.6-0.6-5.3-0.8c-9-0.6-18.2,0-27.2-1.7
								c9.5,0,19.3,0.3,28.8-0.3c-12.9-3.4-27.4-0.6-40.6,0c2.8,1.7,5.6,3.1,8.7,3.6C362,396.5,369,394.2,376.3,395.1z"/>
							<path fill="#FFFFFF" d="M361.5,395.9c10.9,0.8,21.8,1.4,32.8,0.3c-0.6-0.6-0.8-1.4-1.4-2c-0.6,0-0.8-0.3-1.4-0.3
								c-5,0.8-10.4,1.7-15.4,1.1c-7.3-0.8-14,1.4-19.9,0c-3.1-0.8-6.2-2-8.7-3.6c-0.8,0-2,0-2.8,0c-12.6,0.8-24.9,1.1-37.2,1.4
								c-10.6,2.2-22.4,1.7-33.9,0c5.3,0,10.6,0,16-0.3c-5.9-0.3-11.8-0.6-17.6-1.1c-5-0.3-10.1,0.3-15.1,0.8
								c-1.1,1.7-2.5,3.1-5.3,3.4c-4.2,0.6-8.4,0.6-12.9,2c-0.6,0-0.6-1.4-1.7-1.4c3.4,0.3,6.2-0.8,8.7-2.2
								c-3.1,0.6-5.9,1.1-9.2,1.7c-5.9,0.3-10.6-0.8-16-2c-0.6,0-1.1,0-1.7,0.3c-2.8,0.3-5.6,0.8-8.7,1.7c1.1,0,2.2,0,3.6,0.3
								c-2,0.8-4.2,0.6-6.2,0.6c0.8-0.3,1.7-0.6,2.5-0.8c-2.8,0-5.6-0.3-8.4-0.3c3.6,0.3,7.3-0.6,10.4-1.1c-6.7,0-12.9,0.6-19.3-0.6
								c0.3,0,0.3-0.3,0.6-0.3c-9.2,1.7-18.5,4.5-28.8,5.9c-5,0.6-5.6,7.6-4.5,7.8c21.3-2,42-1.1,62.7-1.1c-2.2-0.8-4.8-2-7-2.8
								c-1.1-0.3-2-0.6-3.1-1.1c1.1,0.3,2,0.8,3.1,1.1c2.8,0.6,5.9,0.6,9,1.4c0.6,0.6,2.2,0.6,3.1-0.8c4.2,1.1,9.2,0,13.2,1.1
								c0.3,0,0.6,0.3,1.1,0.8c2.5,0,5.3-0.3,7.8-0.3c14.8-0.8,29.1-0.8,43.1,0.3c-3.4-0.8-6.7-1.7-9.5-3.1
								c-4.2-2-12.6-0.3-20.2,0.3c-2,0.3-2.8-1.1-4.8-1.1c6.4-3.6,14.6-1.1,22.1-1.7c9.8-0.3,23.5,2.8,33.9,0.3
								c4.5-1.1,8.4,0.3,12,2c-1.4,0.8-3.6,0.8-5,0.6c-10.9-0.6-21.8-1.1-32.8-0.8c11.5,2,22.4,1.1,33.6,3.4c-6.7,0-13.2-2-19.3,0
								c0.6,0.3,1.1,0.6,1.7,0.8c4.5,0.6,8.7,1.1,13.2,1.7c1.4-0.6,2.8-0.8,3.9-1.4c12-4.2,26.6,0,40.6-0.6c1.1,0,2.8-1.1,4.8-2
								c-4.5-0.3-9-0.8-13.4-0.8c1.7,0.6,3.6,1.1,5,2c-4.2,0.3-7.8-1.7-12-1.4c2.2-0.3,4.5-0.6,6.7-0.6c-2.8-0.6-5.6-0.8-8.4-1.4
								c5.6-1.4,10.6,2.2,16.2,0c-1.1,0-2.2,0-3.6-0.3c1.1,0,2.5,0,3.6,0.3l0,0c3.6,0,7.3-0.8,10.6-1.7c-6.2,0-12-1.7-17.9-1.7
								c-1.1,0-2,0-3.1,0.3c1.1,0,2-0.3,3.1-0.3c14-0.8,28.3,1.4,42.3,2.2c0.6,0,0.8,0,1.4-0.3c-0.3-0.6-0.8-1.1-1.1-1.7
								C384.7,398.7,373,397.6,361.5,395.9z"/>
						</g>
					</g>
				</g>
			</g>
		</g>
	</g>
	<g>
		<path fill="#86604E" d="M194.6,277.2h161.3c0,0-24.1,128.5-80.6,115.9C218.7,380.5,194.6,277.2,194.6,277.2z"/>
		<g>
			<g>
				<g>
					<g opacity="0.8">
						<g opacity="0.8">
							<path fill="#EEE8E6" d="M223.7,344.4c6.7,11.5,14.3,23,23.8,31.6c4.8,4.5,9.8,8.1,15.4,10.9c5.3,2.8,11.2,4.5,16.5,4.5
								c1.1,0.3,2.2,0,3.4,0c1.1-0.3,2.2,0,3.4-0.6c-1.1,0.3-2.2,0-3.4,0c-6.4-0.3-13.4-2.8-19.3-6.4c-6.2-3.6-11.8-8.1-17.1-13.7
								c-10.4-10.6-18.5-23.8-25.5-37c-8.7-16.2-17.1-33.6-22.1-53.5c-0.6-2.2-1.4-2.2-2-2.2c0,2.2-0.3,3.9-0.3,5.6
								c5,16.2,11.5,31.9,19,47.6C217.8,336.6,222,341.6,223.7,344.4z"/>
							<polygon fill="#E6DEDB" points="196.3,283.1 196.3,283.6 196.8,285.9 							"/>
							<path fill="#ECE6E3" d="M211.1,322c2.5,5,5,10.1,7.3,15.1c2,3.1,4.2,5.6,5.3,7.6c6.7,11.5,14.3,23,23.8,31.6
								c4.8,4.5,9.8,8.1,15.4,10.9c5.3,2.8,11.2,4.5,16.5,4.5c1.1,0.3,2.2,0,3.4,0c1.1-0.3,2.2,0,3.4-0.6c-1.1,0.3-2.5,0-3.6,0h-1.7
								l-1.7-0.3c-1.1-0.3-2.2-0.3-3.4-0.8l-3.4-1.1c-1.1-0.3-2.2-0.8-3.4-1.4c-4.5-2-8.7-4.5-12.6-7.6c-0.6-0.3-0.8-0.6-1.4-0.8
								c-4.8-3.1-8.1-7.3-11.8-11.5c-5.3-5.6-9.5-11.8-13.4-17.9c-3.9-6.2-7.3-12.9-10.9-19.9c-2.5-5-5.9-10.4-8.4-16.8
								c-0.8-2.2-1.7-4.2-2.2-6.4c-3.4-8.4-6.7-17.1-9-26.3c-0.6-2.2-1.4-2.2-2-2.2c0,1.1,0,2-0.3,3.1c2,7.6,4.2,15.1,6.7,22.7
								c2.5,6.4,5.3,12.9,8.1,19.3C211.4,322.8,211.4,322.3,211.1,322z"/>
							<path fill="#E6DEDB" d="M210.3,323.1c0.3,0.8,1.4,1.7,1.1,0c-2.8-6.4-5.6-12.9-8.1-19.3C205.5,310,207.8,316.4,210.3,323.1z"
								/>
							<path fill="#F4F0EE" d="M206.9,323.4c5,13.2,12.6,24.4,18.2,34.4c3.1,5.3,6.2,10.4,9,15.1c1.1,1.4,2.8,2.8,3.9,4.5
								c4.5,4.2,9,8.4,14.3,11.8c5.3,3.4,10.9,6.2,16.8,8.1s12.6,2.8,19,1.7c6.4-1.1,12.6-3.9,17.6-7.3
								c10.4-7.6,17.6-17.4,23.8-27.4c6.2-10.4,11.2-21,15.4-31.9c4.2-10.9,7.3-21.8,9.8-33c0.6-2.8,1.1-5.6,1.7-8.4
								c0.6-3.6,1.4-7,2-10.6l0.6-3.1v-0.8v-0.3h-0.6h-1.7c-2.2,0-4.5,0-6.7,0.3c-3.1,0-6.2,0.3-9.2,0.3c-14,0.3-25.5-0.8-39.2-1.4
								c-34.4-1.7-64.1,2-99.1,3.1c-9.5,0.3-10.6,3.9-8.4,3.9c29.4-0.8,58-0.6,86.5-0.6c14.3,0,28.6,0,42.8,0c7.3,0,14.3,0,21.6,0
								h4.5h1.4c0.3,0,1.4-0.3,0.8,0.6l-0.6,2.8l-1.1,5c-5,22.1-11.8,43.1-21.6,62.2c-5,9.5-10.6,18.5-17.9,25.8
								c-1.7,2-3.6,3.6-5.6,5.3c-2,1.4-3.9,3.1-6.2,4.2c-4.2,2.5-9,4.2-13.4,4.2c-1.1,0.3-2.2,0.3-3.4,0.6c-1.1,0-2.2,0.3-3.4,0
								c-5.3,0-10.9-1.7-16.5-4.5c-5.3-2.8-10.6-6.4-15.4-10.9c-9.5-9-17.1-20.4-23.8-31.6c-1.7-3.1-5.9-7.8-8.4-13.2
								c-7.6-15.7-14-31.4-19-47.6c-0.3,3.6-0.8,6.7-0.6,10.4C199.4,304.1,203.3,313.9,206.9,323.4z"/>
							<path fill="#E5DDD9" d="M206.9,323.4c-3.6-9.5-7.6-19.3-11.2-29.1c0,1.7,0.3,3.6,0.8,5.9c6.4,24.9,19.6,51.8,37.8,72.5
								c-2.8-4.5-5.9-9.8-9-15.1C219.5,347.8,212.2,336.3,206.9,323.4z"/>
							<path fill="#ECE6E3" d="M206.9,323.4c-3.4-9-7.3-18.2-10.9-27.7c0.8,3.4,1.7,6.4,2.8,9.8c5.6,16.8,13.2,32.8,21.6,48.4
								c-9.8-16.2-17.4-33.6-23.8-51.2c6.7,24.4,19.6,50.1,37.2,70.3c-2.8-4.5-5.9-9.8-9-15.1C219.5,347.8,212.2,336.3,206.9,323.4z
								"/>
							<path fill="#E3DAD6" d="M220.1,348.6c-10.1-18.5-17.6-38.1-24.6-58.5c0,0.8,0,2,0,3.1c0.3,0.8,0.6,1.7,0.6,2.5
								c3.6,9.5,7.3,18.8,10.9,27.7c5,13.2,12.6,24.4,18.2,34.4c3.1,5.3,6.2,10.4,9,15.1c1.1,1.4,2.5,2.8,3.6,4.2
								c4.5,4.5,9.2,8.7,14.6,12c5.3,3.4,11.2,6.4,17.4,8.1c5.9,2,13.2,2.5,19.6,1.4c6.7-1.1,12.6-4.2,17.6-8.1
								c8.7-7,15.4-16.2,21.3-25.8c5.6-9.5,10.6-19.6,15.1-29.7c-3.9,9.5-8.1,19-13.2,28.3c5.9-10.1,10.9-20.4,15.1-31.1
								c3.6-9.2,6.4-18.5,8.7-28c-0.3-2.2,0-5.3,1.1-10.6c0.8-4.2,1.7-7.6,2.8-13.7l0.3-2l0.3-1.1v-0.6c0,0-0.3,0-0.6,0
								c-1.4,0-2.8,0-4.2,0s-2.8,0-4.2,0.3c-1.1,0-2.2,0.3-3.1,0.3c-1.1,0-0.8-0.6-3.4-0.8c1.7,0,3.1,0,4.8,0c2,0,3.6,0,5.3-0.3
								c2,0,3.9-0.3,5.9-0.3c0.3,0,0.3,0.3,0.3,0.3v0.6v1.4l-0.3,2.5l0.6-3.4l0.3-1.7c0,0,0.3-0.3,0-0.3h-0.6h-0.8
								c-2.2,0-4.5,0-6.7,0.3c-3.1,0-6.4,0.3-9.5,0.3c-11.2,0.3-20.4-0.3-30.5-0.8h-3.4c-5.6,0-10.9,0.6-16.5,0.8c2.2,0,4.5,0,7,0
								c-3.6,0.3-8.4,0.3-11.8,0.3c1.7,0,3.4-0.3,4.8-0.3c-5.3,0-10.6,0-16.2-0.3c7,0,14-0.3,20.2-0.6c-12.9,0-24.6,0.3-37.2-0.3
								c0.3,0,0.6,0,0.8,0c-17.9,0.8-35.8,2.2-55.2,3.1c-9.5,0.3-10.6,3.9-8.4,3.9c41.2-1.1,80.4-0.6,120.4-0.6
								c-4.5-0.6-9-0.8-13.7-1.4c-2,0-3.9-0.3-5.6-0.6c2,0.3,3.9,0.3,5.6,0.6c5.3,0.3,11.5,0.3,17.1,0.6c1.1,0.3,4.5,0.3,5.9-0.3
								c3.9,0.3,8.4,0.3,12.6,0.3c2.2,0,4.5,0,6.4,0c1.1,0,2.2,0,3.1,0h1.4h0.8c0.3,0,0.8,0.3,1.1,0.6h1.1h0.6c0.3,0,0,0.3,0,0.3
								l-0.3,2l-0.6,2.8l-0.8,3.6c-3.1,13.7-7,27.2-11.8,39.8c-4.8,12.6-10.6,24.9-17.9,35.8c3.9-5,7.3-10.4,10.4-15.1
								c2.2-3.4,4.8-8.7,7.3-15.1c2.5-6.4,4.8-13.7,6.7-20.4c0.8-3.4,2.2-5.3,3.1-8.7c-1.7,12.3-8.1,27.2-13.7,40
								c-3.9,8.7-9.5,18.5-16.5,27.4s-16,16.8-25.5,20.2c-3.9,1.7-8.1,1.7-12,1.4c-2-0.3-3.6-0.8-5.6-1.1c-1.7-0.6-3.4-1.4-4.8-2
								c1.1,0,2.8,0.6,4.5,0.8c1.7,0.3,3.4,0.6,4.5,0.8c5,0.6,10.1,0,14.8-1.7c4.8-1.7,9.2-4.5,13.2-7.8c7.8-6.7,14-15.4,19-24.4
								c-5.9,9.2-12,17.9-20.2,24.4c-3.9,3.4-8.7,5.9-13.4,7.3c-1.1,0.3-2.5,0.8-3.6,0.8l-3.6,0.6c-2.5,0-5,0-7.6-0.8
								c5.9,0.8,11.8,0.3,17.4-1.7c5.3-2.2,10.4-5.6,14-10.1c-0.8,0.6-1.7,1.1-2.5,1.7c-6.2,5.3-13.4,8.7-20.7,9.2
								c-1.1,0.3-2.2,0.3-3.4,0.6c-1.1,0-2.2,0.3-3.4,0c-5.3,0-10.9-1.7-16.5-4.5c-5.3-2.8-10.6-6.4-15.4-10.9
								c-9.5-9-17.1-20.4-23.8-31.6c-1.1-2-3.1-4.5-5.3-7.6c3.9,7.6,8.1,15.1,12.9,22.1c-2-2.8-3.4-5.9-4.5-8.7
								c4.5,6.7,7.6,12.6,12.9,18.8c-3.1-3.1-5.9-6.4-8.1-10.1c2.8,4.5,6.2,8.7,9.5,12.9c-7.8-7.3-11.8-16.5-18.2-25.2
								c1.1,2,2.2,3.9,3.4,5.9c-1.1-2-2.2-3.9-3.6-5.9l0,0c-3.6-5.9-7-12-10.1-17.6c5,10.9,9.5,21,16.5,30.5
								c1.1,1.7,2.2,3.1,3.6,4.8c-1.4-1.4-2.5-3.1-3.6-4.8c-8.1-10.9-14.3-23.2-19.3-35.6c-5-12.6-9.2-25.5-12.9-38.4l-0.8-2.5
								c0,0.8-0.3,1.7-0.3,2.5C201.9,307.4,209.7,329,220.1,348.6z"/>
						</g>
					</g>
				</g>
			</g>
		</g>
	</g>
	<g>
		<path fill="#FFFFFF" d="M317.2,418h-82.9c-4.5,0-8.4-3.6-8.4-8.4V401c0-4.8,3.9-8.4,8.4-8.4h83.2c4.5,0,8.4,3.6,8.4,8.4v8.7
			C325.6,414.4,322,418,317.2,418z"/>
		<g>
			<g>
				<g>
					<g opacity="0.8">
						<g opacity="0.8">
							<path fill="#FFFFFF" d="M315,395.6c-13.7,0.3-28.3-1.7-40,0.3c-1.4,0.3-2.5,0.6-3.9,0.6l2,0.3c7.6,0.6,15.7,1.1,23.5,1.1
								c3.9,0,8.1,0.3,12,0c2,0,3.9,0,5.9,0h2.8c0.3,0,0.8,0,1.1,0.3c0.8,0.3,1.7,0.8,2.2,1.7c0,0.3,0.3,0.6,0.3,0.8s0,0.3,0,0.6
								v0.8l0.3,3.6l0.3,3.6c0,0.8,0,1.4-0.3,2.2c-0.6,1.4-2,2.5-3.4,2.8c-0.6,0-0.8,0.8-0.8,1.4c0.8,0.6,1.7,1.1,2.8,1.4
								c2-0.8,3.4-2.5,4.2-4.2c0.3-0.8,0.6-2,0.6-2.8l-0.3-3.4c0-2.2-0.3-4.2-0.3-6.4c-0.3-1.7-1.1-3.4-2.5-4.8
								c-0.8-0.8-2.2-1.1-3.4-0.8C317.5,395.4,315.8,395.6,315,395.6z"/>
							<path fill="#FFFFFF" d="M319.8,417.2L319.8,417.2c0.6,0,0.8-0.3,1.4-0.6C320.6,416.9,320.3,417.2,319.8,417.2z"/>
							<path fill="#FFFFFF" d="M323.7,399.6c-0.8-2.2-2.5-3.9-4.5-4.5c-0.8,0-1.4,0.3-2,0.3c-0.8,0.3-1.4,0.3-2,0.3
								c-13.7,0.3-28.3-1.7-40,0.3c-1.4,0.3-2.5,0.6-3.9,0.6l2.2,0.3c5.3,0.6,10.6,0.8,16.2,1.1c0.3,0,0.6,0,0.8,0
								c3.1-0.6,5.9,0.3,9,0.3c4.2-0.3,8.1-0.3,12-0.3c2,0,3.9,0,5.9,0c0.8,0,1.7,0.3,2.5,0.6c0.6,0.3,1.1,0.8,1.7,1.4
								c0.3,0.3,0.6,0.8,0.6,1.1c0,0.8,0,1.7,0,2.5c0,1.1,0,2.5,0,3.6l0.3,3.1c0,0.6-0.3,1.4-0.6,2c-0.6,1.4-2,2.2-3.4,2.5
								c-0.6,0-0.8,0.8-0.8,1.4c0.3,0.3,0.8,0.6,1.4,0.8c3.6-0.6,6.4-3.9,6.2-7.6l-0.3-5.3v-2.8c0-0.8-0.3-1.4-0.6-2.2
								C324,399,323.7,399.3,323.7,399.6z"/>
							<path fill="#FFFFFF" d="M325.1,398.7c-0.3-0.6-0.8-0.8-1.1,0.3c0.3,0.8,0.3,1.4,0.6,2.2v2.8l0.3,5.3c0-1.7,0-3.4,0.3-5.3
								C325.1,402.1,325.4,400.4,325.1,398.7z"/>
							<path fill="#FFFFFF" d="M328.2,398.7c-0.8-4.8-5.3-8.1-9.5-8.4c-1.1,0-2,0-2.8,0c-0.8,0-1.7,0-2.2,0c-1.7,0-3.1,0-4.5-0.3
								c-3.1-0.3-6.2-1.1-8.7-2c-0.8,0-2,0-2.8,0c-12,0.3-23.8,0.6-35.8,0.6c-5.9,0-11.8,0-17.9,0l-9-0.3h-0.6h-0.8
								c-0.6,0-1.1,0-1.7,0.3c-1.1,0.3-2.2,0.6-3.4,1.1c-2,0.8-3.9,2.5-5,4.2c-1.4,2-2,4.2-2.2,6.4v0.8v0.6v1.1v2.2
								c0,1.4,0.3,2.8,0.3,4.2v1.4c0,0.6,0.3,1.1,0.3,1.7c0.3,1.1,0.6,2,1.1,3.1c2,3.6,6.2,6.2,10.1,6.2c1.1,0,1.7,0,2.5-0.3
								l2.2-0.3c1.4,0,3.1-0.3,4.5-0.3c7.3-0.3,12.9,0.8,19.9,1.4c17.6,1.7,32.8-2,50.7-3.1c4.8-0.3,5.3-3.9,4.2-3.9
								c-15.1,0.8-29.7,0.6-44.2,0.6c-7.3,0-14.6,0-21.8,0c-3.6,0-7.3,0-10.9,0c-2,0-3.6,0-5.6,0c-1.4,0-2.8-0.3-3.9-1.1
								c-0.8-0.6-1.7-1.4-2-2.2c-0.3-0.6-0.3-0.8-0.6-1.4c0-0.6,0-0.8,0-1.7c0-2.8,0-5.9,0-8.4c0-2.2,1.4-4.2,3.4-5
								c0.8-0.6,2-0.8,3.1-0.6h4.2c11.2,0.3,21.8,0.8,32.8,1.7c1.4-0.3,2.8-0.6,3.9-0.6c11.8-2.2,26,0,40-0.3c0.8,0,2.2-0.3,3.1-0.6
								c1.1-0.3,2.5,0,3.4,0.8c1.4,1.1,2.5,2.8,2.5,4.8c0,2.2,0.3,4.2,0.3,6.4l0.3,3.4c0,0.8-0.3,2-0.6,2.8c-0.8,2-2.2,3.4-4.2,4.2
								c2,0.6,4.5,0.6,6.7-0.8c1.1-1.7,1.7-3.4,1.7-5c0-2,0-3.1,0-4.5c0-1.4,0-2.5,0-3.9v-2C328.4,400.4,328.2,399.6,328.2,398.7z"
								/>
							<path fill="#FFFFFF" d="M328.2,398.7c0.3,0.8,0.3,1.7,0.3,2.5v2c0,1.4,0,2.5,0,3.9s0.3,2.5,0,4.5c-0.3,1.7-0.8,3.6-1.7,5
								c1.1-0.8,2.2-1.7,2.8-3.4c0.6-1.1,0.6-2.5,0.8-3.6c0-0.8,0.3-1.7,0.3-2.5c0.3-1.7,0.3-3.4,0.3-5c0-0.6,0-2.2-0.3-3.6
								c-0.3-1.4-0.8-2.8-1.4-3.9c-1.4-2.5-3.6-4.5-6.2-5.6c-1.4-0.6-2.8-1.1-4.2-1.1c-0.6,0-1.4,0-2,0h-1.4l-5.3,0.3
								c-3.4,0.3-7,0.3-10.4,0.3c2.5,0.8,5.6,1.4,8.7,2c1.4,0.3,3.1,0.3,4.5,0.3c0.8,0,1.7,0,2.2,0c0.8,0,1.7,0,2.8,0
								C322.8,390.6,327.3,394,328.2,398.7z"/>
							<path fill="#FFFFFF" d="M328.2,398.7c0.3,0.8,0.3,1.7,0.3,2.5v2c0,1.1,0,2.5,0,3.6c0,0.6,0,1.1,0,2c0,0.6,0,1.1,0,2.2
								c0,1.7-0.6,3.4-1.4,5c0.6-0.8,1.1-2,1.7-3.4c0.3-0.6,0.3-1.1,0.3-1.7v-0.8v-0.6v-6.7c0-0.6,0-0.8,0-2c0-0.8,0-1.7-0.3-2.5
								c-0.3-1.7-1.1-3.1-2-4.5c-2-2.5-4.8-4.5-8.1-5c-2-0.3-2.8-0.3-3.9-0.3c-1.1,0-2.2-0.3-3.4-0.3h3.6h1.7c0.8,0,1.7,0,2.5,0.3
								c3.6,0.8,6.7,3.1,8.7,6.2c0.8,1.7,1.4,3.4,1.7,5v1.4v0.8v1.7v3.6c0,1.4,0,2,0,4.2c0.3-0.6,0.3-1.1,0.3-1.7v-1.1
								c0-0.8,0.3-1.7,0.3-2.5c0-1.7,0.3-3.4,0.3-5c0.3-5.6-3.4-10.9-8.7-12.9c-1.4-0.6-2.8-0.8-3.9-0.8h-1.1h-0.6h-1.4l-5,0.3
								c-3.4,0-6.7,0.3-10.1,0.3c2.5,0.8,5.6,1.4,8.7,2c1.4,0.3,3.1,0.3,4.5,0.3c0.8,0,1.7,0,2.2,0c0.8,0,1.7,0,2.8,0
								C322.8,390.6,327.3,394,328.2,398.7z"/>
							<path fill="#FFFFFF" d="M314.2,390.6h2h1.1h1.1c1.7,0.3,3.1,0.8,4.5,1.7c2.8,2,4.5,5,4.5,8.1c0,2.8,0,5.3,0,8.1
								c0,0.6,0,1.4,0,2.2c0,0.8-0.3,1.7-0.6,2.5c-0.6,1.7-1.4,3.1-2.8,4.2c0.6,0,1.4-0.3,2-0.6c0.6-0.6,0.8-0.8,1.1-1.4
								c0.8-1.7,1.1-3.4,1.4-5c0-0.8,0-1.4,0-2.2c0-0.6,0-1.4,0-2c0-1.1,0-2.5,0-3.6v-2c0-0.8,0-1.7-0.3-2.5
								c-0.8-4.8-5.3-8.1-9.5-8.4c-1.1,0-2,0-2.8,0c-0.8,0-1.7,0-2.2,0c-1.7,0-3.1,0-4.5-0.3c-3.1-0.3-6.2-1.1-8.7-2
								c-0.8,0-2,0-2.8,0c-12.3,0.3-24.4,0.6-36.7,0.6c-5.3,0.6-10.9,0.8-16.5,0.8c-2.8,0-5.6,0-8.4-0.3h-2.2c-1.1,0-2,0-3.1,0.3
								c-2,0.6-3.9,1.4-5.3,2.8c1.4-1.4,3.1-2.2,4.8-2.8c0.8-0.3,2-0.6,2.8-0.6h0.8h0.6h1.1c2.5,0,5.3,0,7.8-0.3l-8.7-0.3
								c-0.6,0-2,0-3.1,0.3c-1.1,0.3-2.2,0.6-3.1,0.8c-2,0.8-3.9,2.2-5,4.2c-1.1,1.7-2,3.4-2.2,5.3c0,0.6-0.3,0.8-0.3,1.4v0.8v0.6v2
								c0,1.1,0,2.5,0.3,3.6v2v0.8c0,0.6,0,0.8,0.3,1.4c1.1,1.4,2,3.4,4.5,5.9c2,2,4.5,3.1,7.3,3.1c2.5,0,4.2-0.3,6.4-0.6
								c0.6,0,0.6,0.6,1.7,0.8c-1.7,0-3.1,0-4.5,0.3c-0.6,0-1.4,0.3-2,0.3c-0.3,0-0.6,0.3-0.8,0.3c-0.3,0-0.8,0-1.1,0.3
								c0.6,0,1.1,0,1.4,0h1.1l2.2-0.3c1.4,0,3.1-0.3,4.5-0.3c5.6-0.3,10.4,0.3,15.7,0.8h1.7c2.8,0,5.6-0.6,8.4-0.8
								c-1.1,0-2.2,0-3.6,0c2-0.3,4.2-0.3,5.9-0.3c-0.8,0-1.7,0.3-2.5,0.3c2.8,0,5.3,0,8.4,0.3c-3.6,0-7.3,0.3-10.4,0.6
								c6.4,0,12.6-0.3,19,0.3h-0.6c9.2-0.8,18.2-2.2,28.3-3.1c4.8-0.3,5.6-3.9,4.2-3.9c-21,1.1-41.2,0.6-61.6,0.6
								c2.2,0.6,4.8,0.8,7,1.4c1.1,0,2,0.3,2.8,0.6c-0.8-0.3-2-0.3-2.8-0.6c-2.8-0.3-5.9-0.3-8.7-0.6c-0.6-0.3-2.2-0.3-3.1,0.3
								c-4.2-0.6-9,0-12.9-0.6c-0.3,0-0.6-0.3-1.1-0.6h-2c-0.6,0-0.8,0-1.4,0c-0.8,0-1.7-0.6-2.5-1.1c-1.1-0.8-2-2-2.2-3.1
								c-0.3-0.6-0.3-1.1-0.3-2v-2.8c0-1.7,0-3.6,0-5.3c0-1.4,0.3-2.8,1.1-3.9c0.8-1.1,2-2,3.1-2.2c0.6-0.3,1.1-0.3,2-0.3h2.5
								c3.4,0,7,0.3,10.4,0.3c-3.4-0.6-6.4-0.8-9.5-1.4c-2-0.3-5.3-1.1-7.8,1.1c-1.4,1.1-2.2,2.5-2.5,4.2c-0.3,0.8-0.3,1.7,0,2.5
								c0,0.8,0,2,0,2.8c0.3,1.7-0.6,2.8-0.6,4.8c-0.6-1.7-0.8-3.4-0.8-5c0-1.7-0.3-3.6,0.3-5.6s2-3.4,3.6-4.5
								c1.7-1.1,3.6-1.4,5.3-1.4c9.5-0.3,23,1.4,33.3,0.3c4.2-0.6,8.4,0.3,11.8,0.8c-1.4,0.3-3.6,0.3-4.8,0.3
								c-10.6-0.3-21.3-0.6-32.2-0.3c11.2,0.8,21.8,0.6,33,1.7c-6.4,0-12.9-1.1-19,0c0.6,0.3,1.1,0.3,1.7,0.6
								c4.2,0.3,8.7,0.6,12.9,0.8c1.4-0.3,2.5-0.6,3.9-0.6c11.8-2.2,26,0,40-0.3c0.6,0,1.4,0,2-0.3c0.6-0.3,1.1-0.3,2-0.3
								c-0.8-0.3-1.4-0.3-2.8-0.3h-3.4c-2.2,0-4.5-0.3-6.7-0.3c1.7,0.3,3.4,0.6,5,1.1c-4.2,0-7.6-0.8-11.8-0.8
								c2.2-0.3,4.5-0.3,6.7-0.3c-2.8-0.3-5.6-0.6-8.4-0.6c5.6-0.8,10.4,1.1,16,0c-1.1,0-2.2,0-3.4,0h3.6l0,0c1.7,0,3.6-0.3,5,0
								c1.7,0.3,3.1,1.1,4.2,2c-1.1-1.1-2.2-2-3.6-2.5c-1.4-0.6-2.8-0.6-4.5-0.8c-2.8-0.3-5.9-0.6-8.7-0.6h-3.1c1.1,0,2,0,3.1,0
								c3.4,0,7,0,10.4,0c3.9,0,7.3,2.5,8.4,6.2c0.6,1.7,0.3,3.6,0.3,5.3l-0.3,5c0.3,3.4-1.7,7-4.8,8.4c-0.3,0.3-0.8,0.3-1.1,0.6
								c0.6,0.3,0.8,0.3,1.4,0.3c2.8-1.4,4.8-4.2,5-7.3c0-2.8,0.3-5.9,0.3-8.7c0.3-3.1-0.8-6.7-3.6-8.7c-1.4-1.1-2.8-2-4.5-2.2
								c-0.6,0-0.8,0-1.4-0.3h-1.1L314.2,390.6z"/>
						</g>
					</g>
				</g>
			</g>
		</g>
	</g>
	<g>
		<g>
			<g>
				<g>
					<g opacity="0.8">
						<g opacity="0.8">
							<path fill="#FFFFFF" d="M303.2,122.9c12-0.3,24.1,0,36.1,0.3c6.2,0,12,0.3,18.2,0.3c7,0,14,0.3,20.7,0.3c2,0,4.2,0,6.2,0.3
								h0.8h0.3v0.3v1.7l-0.3,3.1c-0.3,4.2-0.6,8.1-0.8,12c-0.6,5.9-0.8,11.5-1.4,17.1c-0.8,11.2-1.4,22.1-1.4,32.2
								c0,4.5-0.3,9.2-0.3,14c0.3-2.2,0.8-4.8,1.1-7c2.2-13.2,4.2-26.6,5.9-40.3c0.3-3.4,0.8-7,1.1-10.4l0.6-5.3l0.8-9.5l0.6-10.1
								l0.3-2.5c0-0.3,0-0.8,0-1.4h-1.1h-5c-3.4,0-6.7-0.3-10.1-0.3h-8.4c-28-0.3-56-0.3-82.9,0c-33.6,1.4-67.8,4.2-105,3.9
								c-4.2,0-4.8,1.7-5,2.5c3.6,1.1,6.7,2.2,9.8,3.6c30.2-0.8,60.5-2.5,91.6-2.5C285.9,125.7,297.1,122.9,303.2,122.9z"/>
							<path fill="#FFFFFF" d="M182.8,128l0.6,0.3c1.4,0,3.1,0,4.5-0.3C186.2,128,184.5,128,182.8,128z"/>
							<path fill="#FFFFFF" d="M257,125.4c10.1-0.6,20.2-0.6,30-0.6c6.4-0.8,12.6-2,16.5-2c12-0.3,24.1,0,36.1,0.3
								c6.2,0,12,0.3,18.2,0.3c7,0,14,0.3,20.7,0.3c2,0,4.2,0,6.2,0.3h0.8h0.3v0.3v1.7l-0.3,3.1c-0.3,4.2-0.6,8.1-0.8,12
								c-0.6,5.9-0.8,11.5-1.4,17.1c-0.8,11.2-1.4,22.1-1.4,32.2c0,4.5-0.3,9.2-0.3,13.7c0.3-2.5,0.8-5,1.1-7.6
								c1.4-9.2,2.8-18.2,4.2-27.7c0.6-4.8,1.1-9.5,2-14.3l0.8-7.3l0.3-3.6l0.6-4.5c0-2,0-3.9,0-5.6c0-5,0-9.8,0.3-14.6v-0.6
								c0,0-0.3,0-0.6,0h-0.8h-1.7h-3.6c-2.2,0-4.8,0-7-0.3l-7.3-0.3l-4.2-0.3c-2.5-0.3-5-0.3-7.6-0.3c-29.4,0.8-53.8-0.3-83.2,0.6
								c-10.4,0.3-21.6,2.2-33.9,2.2c-4.2,0-8.4,0-12.3-0.3c-16.2,0.8-32.8,1.4-50.1,1.1c-4.2,0-4.8,1.7-5,2.5c2,0.6,3.6,1.1,5.3,2
								c14,0.3,28,0.3,42.3,0.3c12.3-0.6,24.9-0.8,37.5-1.1C258.4,125.7,257.9,125.4,257,125.4z"/>
							<path fill="#FFFFFF" d="M258.2,128c1.7,0,3.9-1.1,0.8-2.2c-12.6,0.3-25.2,0.6-37.5,1.1C233.5,127.1,245.6,127.1,258.2,128z"
								/>
							<path fill="#FFFFFF" d="M256.2,134.1c24.6,0.8,48.2-1.4,68.3,0c10.6,0.8,21,2,30.2,3.6c3.4,0,6.7,0,10.1,0h3.9
								c0.6,0,0.3,0,0.6,0h0.3h0.3h1.4c0,0.3,0,0.8,0,1.4v0.3v0.6l-0.3,3.4c-0.6,10.4-1.4,20.7-2.5,30.8c-2,20.7-4.2,41.2-7,61.6
								c-3.1,20.4-6.7,40.3-12,59.9c-5.3,19.3-12.3,38.6-22.1,55.2c-9.8,16.5-21.8,30.5-38.1,36.1l-1.4,0.6l-1.7,0.3l-3.1,0.8
								c-2.2,0.6-4.2,0.6-6.4,0.8c-4.2,0.3-8.7,0-12.9-0.8c-8.7-2-16.8-7-24.1-14c-8.4-8.4-13.7-18.2-18.2-28
								c-4.5-10.1-7.6-20.4-10.9-31.9c-7.8-28.8-14.3-56-20.4-83.7c-5.9-27.7-11.5-56-14.3-87.1c-1.4-16.5-8.4-18.8-8.4-14.6
								c1.7,26.3,4.2,52.1,7.3,77.6c3.4,25.5,7.3,50.7,13.2,75.6c5.9,24.9,13.4,49.8,25.8,73.1c6.4,11.5,14,22.7,24.6,31.9
								c5.3,4.5,11.5,8.4,17.9,10.9c6.7,2.5,14,3.6,21,3.4c10.9-0.3,21.6-3.6,30.8-9.5c9-5.6,16.5-13.2,22.7-21.6
								c12-16.5,19.6-35.3,26-53.8c6.2-18.5,10.6-37.2,14.8-56c3.9-18.8,7.3-37.5,10.4-56.3c0-4.8,0.3-9.2,0.3-14
								c0-10.4,0.6-21,1.4-32.2c0.6-5.6,0.8-11.2,1.4-17.1c0.3-3.9,0.6-8.1,0.8-12l0.3-3.1v-1.7v-0.3c0-0.3-0.3,0-0.3,0H385
								c-2,0-4.2,0-6.2-0.3c-6.7,0-13.7-0.3-20.7-0.3c-5.9,0-12-0.3-18.2-0.3c-12-0.3-24.4-0.3-36.1-0.3c-6.2,0-17.4,2.8-27.7,2.8
								c-31.1,0-61.3,1.7-91.6,2.5c6.2,2.5,10.9,5.3,17.4,7C219.8,134.4,238.3,133.3,256.2,134.1z"/>
							<path fill="#FFFFFF" d="M256.2,134.1c-17.9-0.8-36.4,0-54.9,1.1c3.1,0.8,6.4,1.7,10.4,2.2c45.1,3.9,96,1.1,143.1,0.6
								c-9.2-1.7-19.6-3.1-30.2-3.6C304.4,132.7,280.8,135,256.2,134.1z"/>
							<path fill="#FFFFFF" d="M256.2,134.1c-17.1-0.8-34.7,0-52.4,1.1c5.9,0.3,12,0.6,18.2,0.8c31.1,0.6,62.2,0,92.7,1.7
								c-33,0-65.8-0.3-99.1,0.3c44.2,3.4,93.5,0.6,139.2,0c-9.2-1.7-19.6-3.1-30.2-3.6C304.4,132.7,280.8,135,256.2,134.1z"/>
							<path fill="#FFFFFF" d="M306.3,133.3c-37.2-0.8-74.5-1.4-112.3-0.3c1.7,0.6,3.1,1.4,5,2c1.7,0,3.1,0.3,4.8,0.3
								c17.6-0.8,35.3-1.7,52.4-1.1c24.6,0.8,48.2-1.4,68.3,0c10.6,0.8,21,2,30.2,3.6c3.1,0,6.4,0,9.5,0h3.9h0.8h0.3h0.3h1.4
								c0.3,0.3,0,0.8,0.3,1.4v0.3v0.6l-0.3,3.4c-0.6,10.6-1.7,21-2.5,31.6c-2,21-4.2,42-7.3,63c-1.7,18.2-4.8,37-9.5,55.7
								c-4.8,18.5-11.2,37-20.4,52.9c8.1-15.4,13.4-32.5,17.9-49.8c-5.3,19-12,37.5-21.6,53.8c-8.4,14-17.9,26.3-30.8,33.3
								c-0.6,0.6-1.1,1.4-2,2.2c-0.8,0.8-1.7,1.7-2.8,2.2c-1.1,0.6-2.5,1.4-4.2,2s-3.6,1.1-5.6,1.4c-13.4,2.5-26.6-1.7-38.4-10.1
								c-1.4-1.4-0.3-2-3.1-4.8c7.6,7.8,16.2,11.5,23.5,12c-8.7-2-17.1-6.7-24.4-13.7c-6.4-6.4-11.5-14-15.4-21.6
								c-3.9-7.6-7-15.7-9.8-24.1c-0.8-1.7-1.4-3.4-2.2-5.3c-3.6-8.7-7.3-17.9-10.6-26.9c1.1,3.9,2,7.6,3.4,11.8
								c-2.8-5.9-4.8-13.7-6.2-19.6c1.1,2.8,2,5.3,3.1,8.1c-2.5-9.2-4.5-17.9-6.4-28c2.5,12,6.2,24.1,9.8,33.9
								c-6.4-21.6-11.2-41.7-13.7-63.8c0.3,0.6,0.3,1.1,0.6,1.7c-7-30.8-13.2-61.9-16.5-96.3c-1.4-16.5-8.4-18.8-8.4-14.6
								c2.5,36.7,6.2,72.5,11.8,107.8c2.8,17.6,6.2,35.3,10.6,52.6c4.5,17.4,9.8,34.7,17.1,51.2c-2.5-7.8-4.5-16-6.2-24.1
								c-0.8-3.4-1.7-6.7-2-10.1c0.6,3.4,1.4,6.7,2,10.1c2.5,9.5,6.4,19.3,10.4,29.1c0.3,1.1,1.1,2.8,2,4.8c1.1,2,2.5,3.6,3.6,4.5
								c6.2,13.2,17.4,26.9,29.7,36.1c0.8,0.6,1.7,1.7,3.1,2.8c8.7,4.8,18.8,7,28.6,6.4l5-0.3c1.7-0.3,3.4-0.6,5-0.8l2.5-0.6
								l2.5-0.8c1.7-0.6,3.4-1.1,4.8-1.7c6.2-2.5,12-6.2,17.1-10.1c10.4-8.4,17.9-19,24.1-30c6.2-10.9,10.9-22.4,15.1-33.9
								c4.2-11.5,7.6-23.2,10.6-35c-3.4,11.2-7.3,21.8-11.8,31.1c-3.1,6.4-6.7,16.5-12,27.7c-5,11.2-12,23.2-21,32.8
								c-4.5,4.8-8.4,6.2-13.7,9.5c8.7-7.3,16.8-16.5,24.1-27.2c7.3-10.6,13.2-22.7,17.4-34.4c5.6-15.7,11.5-34.7,16-54.6
								c4.5-19.9,7.6-40.3,8.7-58.5c0.8-14.8,3.6-28.6,6.4-40.3c0.3,4.5-0.6,12.6-1.1,16.8c-4.8,37-10.1,73.9-19.3,110.3
								c11.8-37.2,16-75,22.4-113.1c-2.2,22.7-7.3,44.5-9,66.1c0.6-1.7,1.1-3.4,1.7-5.3c2.8-14.8,5.6-29.7,7.8-44.5
								c0-4.5,0.3-9.2,0.3-13.7c0-10.4,0.6-21,1.4-32.2c0.6-5.6,0.8-11.2,1.4-17.1c0.3-3.9,0.6-8.1,0.8-12l0.3-3.1v-1.7v-0.3
								c0-0.3-0.3,0-0.3,0h-0.8c-2,0-4.2,0-6.2-0.3c-6.7,0-13.7-0.3-20.7-0.3c-5.9,0-12-0.3-18.2-0.3c-12-0.3-24.4-0.3-36.1-0.3
								c-3.9,0-9.8,1.1-16.5,2c15.4,0.3,30.8,0.8,46.2,0.8c-6.2-0.6-12-1.1-17.6-2c14.6-0.3,26.3,1.7,40.9,1.4
								c-7.8,0.3-15.7,0.6-23.2,0.6c9.2,0.6,19,0.8,29.1,1.4c-19,1.4-36.4-2.2-55.7,0c3.9,0,8.1,0,12,0.3c-4.2,0-8.4,0-12.3-0.3h0.3
								c-12.3,0-24.9,0.8-36.1,1.7c21.6,0,40.6,1.7,61.6,1.7c3.4,0,7-0.3,10.4-0.3c-3.6,0-7,0.3-10.4,0.3
								c-48.2,0.8-96.3-1.4-144.2-2.2c-1.4,0-3.1,0-4.5,0.3c1.4,0.6,2.8,1.1,3.9,1.7C227.1,130.5,267.4,131.6,306.3,133.3z"/>
						</g>
					</g>
				</g>
			</g>
		</g>
	</g>
	<g>
		<g>
			<g>
				<g>
					<g opacity="0.8">
						<g opacity="0.8">
							<path fill="#FFFFFF" d="M385,203.3c0,0.8-0.6,2-1.1,3.4s-1.4,2.8-2,4.5v0.3c0,0,0,0,0.3,0h0.3c0.3,0,0.6,0,0.8-0.3
								c0.6,0,1.1-0.3,2-0.8c1.4-0.6,2.8-1.7,3.9-3.4c0.6-0.6,0.8-1.4,1.1-2l-0.3-0.3c-0.8-1.1-0.3-2.2,0.6-3.1c0.6-0.6,0.3,0,0-0.3
								c-0.3,0-0.3,0-0.6-0.3l0,0v-0.6v-1.4c0-1.7,0-3.4,0-5c0-3.4,0.3-7,1.7-10.4c0.3-0.8-1.4-1.4-2.2-1.7
								c-1.4,0.3-2.5,0.6-3.9,0.8c-0.3,2.8-0.6,5.9-0.8,9c-0.3,1.4-0.3,3.1-0.6,4.5c-0.3,1.4-0.6,3.1-0.8,3.9
								c-0.3,0.6,0.3,1.4,0.8,2C384.4,203,385,203,385,203.3z"/>
							<polygon fill="#FFFFFF" points="385.3,183.1 385,183.1 385,184.2 							"/>
							<path fill="#FFFFFF" d="M383.9,197.7c0,0.6,0,1.1,0,1.4c0,0.3,0,0.8-0.3,1.1c0,0.6-0.3,1.1-0.6,1.7c0.6,0.8,1.7,0.8,1.7,1.4
								c0,0.8-0.6,2-1.1,3.4s-1.4,2.8-2,4.5v0.3c0,0,0,0,0.3,0h0.3c0.3,0,0.6,0,0.8-0.3c0.6,0,1.1-0.3,2-0.8
								c1.4-0.6,2.8-1.7,3.9-3.4c0.6-0.6,0.8-1.4,1.1-2l-0.3-0.3c-0.6-0.8-0.3-1.7,0-2.2l-0.3,0.6c-2,2,0.3-0.6,0.6-0.8
								c-0.6,0.3-0.3,0-0.3-0.3c0.3-0.3,0.3-0.3,0-0.6c0,0,0,0-0.3,0c0,0-0.3,0-0.3-0.3c0-0.6-0.3-1.1-0.3-1.7
								c-0.3-1.1-0.3-2.5,0-3.6c0.3-0.8,0.6-1.4,0.8-2.2c0-3.1,0.6-6.4,1.7-9.5c0.3-0.8-1.4-1.4-2.2-1.7c-0.6,0.3-1.4,0.3-2,0.6
								c-1.1,2.5-1.7,5-2.5,7.8c-0.3,2.5-0.6,4.8-0.8,7.3C383.6,198,383.9,197.7,383.9,197.7z"/>
							<path fill="#FFFFFF" d="M381.4,197.1c0,0.3,1.1,1.1,2.2,0.8c0.6-2.5,0.6-4.8,0.8-7.3C383.6,192.9,382.8,195.2,381.4,197.1z"
								/>
							<path fill="#FFFFFF" d="M375.5,195.2c-0.8,1.7-1.7,5.9-2.2,8.7c-0.6,3.1-1.1,5.9-2.8,9c-1.4,3.1-3.6,7-6.4,11.8
								c-0.3,1.1-0.3,2-0.6,3.1l-0.3,2.2c0,0.6-0.6,2,0.8,1.1l5-1.7c3.1-1.1,6.4-2,9.5-3.1c3.1-1.1,6.4-2.2,9.5-3.4
								c3.1-1.1,6.4-2.5,9.2-3.9c1.7-0.8,2.5-1.1,3.4-1.7c0.8-0.6,2-0.8,2.8-1.4c2-0.8,3.9-2,5.9-3.1c2-1.1,3.9-2.2,5.9-3.9
								c1.1-0.8,2.2-1.7,3.1-2.5l2.8-2.8c3.4-3.9,4.8-9,5.3-13.7c0.3-4.8-0.3-9.8-2.2-14.6c-0.8-2.8-1.4-5.6-2.8-8.4
								c-0.6-1.4-1.4-2.8-2.5-4.2c-0.6-0.6-1.1-1.4-1.7-2c-0.6-0.6-1.4-1.1-2-1.7c-3.6-2.8-7.8-3.6-11.5-3.6
								c-3.9,0-8.1,1.4-11.2,3.9s-5,5.9-6.4,9c-1.1,3.1-1.7,6.4-2.2,9.5c-0.6,3.6,6.7,5,6.7,4.5c0-1.7,0.6-3.9,1.1-5.6
								c0.8-2,1.7-3.4,3.1-4.8c1.1-1.1,2.5-2.2,4.2-2.5c1.7-0.3,3.1-0.6,5.3-0.3c3.9,0.3,6.4,2,8.1,4.2c1.4,2.5,2.2,6.4,2,10.6
								c-0.6,6.7-4.2,13.2-9.5,16.2c-2.8,1.7-5.9,3.4-9.2,4.2c-3.9,1.4-5,1.1-5.9,0.3c-0.3,0.6-0.8,1.4-1.1,2
								c-1.1,1.7-2.8,2.8-3.9,3.4c-0.6,0.3-1.4,0.6-2,0.8c-0.3,0-0.6,0-0.8,0.3h-0.3c0,0,0,0-0.3,0v-0.3c0.6-1.7,1.4-3.1,2-4.5
								c0.6-1.4,1.1-2.2,1.1-3.4c0-0.3-0.6-0.6-1.1-0.8c-0.6-0.6-1.1-1.1-0.8-2c0.3-0.8,0.6-2.5,0.8-3.9c0.3-1.4,0.3-3.1,0.6-4.5
								c0.3-3.1,0.6-5.9,0.8-9c-2.8,0.6-5.6,0.6-7.8,1.4C377.4,188.4,377.2,192.1,375.5,195.2z"/>
							<path fill="#FFFFFF" d="M375.5,195.2c1.7-3.1,1.7-6.7,1.7-10.4c-1.1,0.3-2,0.8-2.8,1.4c-1.4,2-2.8,3.9-3.6,5.9
								c-0.6,1.1-0.8,2.2-1.1,3.4l-0.8,2.5c-0.3,1.1-0.6,2.2-0.8,3.4c-1.1,4.5-2,9-2.8,12.9c0,0.6-0.3,1.1-0.3,1.4v1.4
								c0,0.8-0.3,1.7-0.3,2.5c-0.3,1.7-0.3,3.4-0.6,5c2.8-4.8,4.8-8.4,6.4-11.8c1.7-3.4,2.2-5.9,2.8-9
								C373.8,201,374.6,196.8,375.5,195.2z"/>
							<path fill="#FFFFFF" d="M375.5,195.2c1.7-3.1,1.7-6.4,1.7-10.1c-0.6,1.1-1.1,2-1.7,3.1c-1.1,2.8-1.7,5.6-2.8,8.4
								c-1.4,4.8-3.1,9.5-5.6,15.1l4.5-16.2c0.8-3.1,1.7-6.2,2.2-9.2c-1.4,1.7-2.5,3.9-3.1,5.9c-0.3,1.1-0.8,2.2-1.1,3.1l-0.8,3.1
								c-0.3,1.1-0.6,2.2-0.8,3.4c-1.1,4.2-2,8.4-2.8,12.6c-0.3,1.1-0.3,2-0.3,2.8s-0.3,1.7-0.3,2.5c-0.3,1.7-0.3,3.4-0.6,5
								c2.8-4.5,4.8-8.4,6.4-11.8c1.7-3.4,2.2-5.9,2.8-9C373.8,201,374.6,196.8,375.5,195.2z"/>
							<path fill="#FFFFFF" d="M373.2,207.5c2-4.8,3.6-10.1,4.5-12.9c1.1-3.4,1.7-7,2.2-10.6c-0.8,0-1.4,0.3-2,0.3
								c-0.3,0.3-0.3,0.6-0.6,0.8c0,3.6,0,7-1.7,10.1c-0.8,1.7-1.7,5.9-2.2,8.7c-0.6,3.1-1.1,5.9-2.8,9c-1.4,3.1-3.6,7-6.4,11.8
								c-0.3,0.8-0.3,2-0.6,2.8l-0.3,2.2l-0.3,1.1v0.3v0.3l0.6-0.3l5-1.7c3.4-1.1,6.4-2,9.8-3.1c3.1-1.1,6.4-2.2,9.8-3.4
								c3.4-1.4,6.4-2.5,9.5-3.9l0.8-0.6l0.6-0.6c0.3-0.3,0.8-0.6,1.1-0.8c0.8-0.6,1.7-1.1,2.5-1.7c1.7-1.1,3.4-2.2,5-3.4
								c1.7-1.1,3.6-2.2,5.3-3.4c2-1.4,3.9-2.8,5.6-4.5c-1.4,1.7-3.1,3.4-4.8,5c-1.7,1.4-3.1,2.5-4.8,3.9c2-1.1,3.6-2.2,5.9-3.6
								c1.1-0.8,2.2-1.7,3.1-2.5l2.8-2.8c2.8-3.4,4.5-7.3,5-11.5c-1.1-1.4-2.2-3.1-2.2-5c0-3.4,0.6-6.7-1.4-9.8
								c0-0.6,1.4-0.6,1.4-1.4c0,1.4,0.3,2.5,0.8,3.6c0.3,1.1,0.8,2.2,1.4,3.1c-0.3-1.1-0.6-2.5-0.8-3.6l-1.1-3.6
								c-1.1-4.5-2-9-5.3-13.2l-1.4-0.8c-2.5-1.4-5.3-1.7-7.8-1.4c0.8,0.3,2,0.6,2.8,1.1c-1.7,0.3-3.6-0.3-5-0.8
								c0.6-0.3,1.4-0.3,2.2-0.3c-1.1-0.3-2.2-0.8-3.4-0.8c-1.1-0.3-2.2-0.3-3.4-0.6c1.4,0.3,2.8,0.3,4.2,0c1.4,0,3.1,0,4.5,0
								c-1.4-0.3-2.8-0.8-4.2-0.8c-1.4,0-2.5,0-3.9-0.3c-1.4,0-2.8,0-4.2,0c-1.4,0.3-3.1,0.3-4.5,0.6l0.3-0.3
								c-3.9,2.2-6.7,5.9-8.1,9.5c-1.4,3.6-2.2,7-2.8,10.6c-0.3,1.7,1.4,3.1,3.1,3.9c0.8,0.3,1.7,0.6,2.5,0.6c0.6,0,1.1,0,1.1,0
								c0-2.5,1.1-5.6,2.2-7.8c1.4-2.2,3.1-3.9,5.3-4.8c2-0.8,4.5-0.8,7.3-0.6c2.5,0.6,4.5,1.4,5.9,2.8c0-1.1-0.3-2.8-1.1-4.2
								c-0.3-0.6-0.8-1.1-1.1-1.7c0.6,0.6,0.8,1.1,1.1,1.7c0.6,0.6,1.1,1.1,1.7,1.7c0.6,0.6,1.1,1.1,1.1,2c-0.3,0.6,0.3,1.1,1.4,0.8
								c0,1.1,0.6,2.2,0.6,3.4c0.3,1.1,0.3,2.5,0,3.6c0,0-0.3,0.3-0.8,0.6v2v2.2c-0.3,4.2-2,8.1-4.5,11.5c-0.6,0.8-1.4,1.4-2,2.2
								c-0.8,0.6-1.4,1.1-2.2,2c-1.7,1.1-3.6,2.2-5.6,3.1c2.2-0.3,4.5-0.6,6.7-0.8c0.8,0,1.7-0.3,2.2-0.8c0.8-0.6,1.4-1.4,2-2.2
								c0.3-0.6,0.6-0.8,0.8-1.4c0.3-0.6,0.6-1.1,0.8-1.7c0.6-1.1,0.8-2.2,1.1-3.4c0.3-1.1,1.7-1.1,2.2-2.2c0.6,1.4,0.6,2.5,0.3,3.6
								c-0.3,1.1-0.8,2.2-1.7,3.4c-0.8,1.1-1.7,2-2.5,2.8c-0.8,0.8-2,1.7-2.8,2.5c-2.2,2.2-5.9,3.9-9.5,5.3
								c-1.7,0.8-3.6,1.4-5.3,2.2c-1.7,0.8-3.1,1.7-4.8,3.1c-1.4,1.1-2.8,1.7-3.9,1.7c-1.1,0-2-0.6-2.2-1.4c1.1-1.4,2.2-1.7,2.8-1.7
								c2.5-0.6,5-1.4,8.1-2.8c3.4-1.4,6.4-3.1,9.2-5c-3.6,1.1-6.7,2.8-10.1,3.9c-2.8,0.8-5,1.4-6.4,0.6c2-0.8,4.2,0.6,7-3.1
								c-0.6-0.3-0.8-0.3-1.4-0.3c-2.5,0.6-3.1,0.3-3.9-0.3c-0.3,0.6-0.8,1.4-1.1,2c-1.1,1.7-2.8,2.8-3.9,3.4
								c-0.6,0.3-1.4,0.6-2,0.8c-0.3,0-0.6,0-0.8,0.3h-0.3c0,0,0,0-0.3,0v-0.3c0.6-1.7,1.4-3.1,2-4.5c0.6-1.4,1.1-2.2,1.1-3.4
								c0.3-0.3-1.1-0.6-1.7-1.4c-0.6,1.7-2,3.9-2.5,6.2c0.8-1.1,1.7-2.2,3.1-3.4c0,0.6-0.8,1.4-1.4,2.5c-0.8,1.1-1.7,2.2-1.7,3.1
								c-0.3-0.6-0.3-1.4,0-2.2c-1.1,1.7-2,3.4-2.8,5.6c-0.6-0.6,0.6-2.8,1.4-4.5c0.8-1.7,1.7-3.1,0.8-3.9c-0.3,0.6-0.3,1.1-0.8,2
								l0.8-2l0,0c0.6-2,0-3.6-0.3-5.9c-0.6,2-1.4,3.6-2.5,5.9c-1.1,2-2.2,4.5-2.8,6.7l-0.3,2c0-0.6,0-1.1,0.3-2
								c0.8-4.8,2.8-10.6,4.5-14.8c1.7-4.2,3.6-8.7,5.3-12.9v-0.8c-0.6,0-1.1,0.3-2,0.3c-1.4,3.6-2.8,7.3-4.2,10.6
								C377.2,198.5,375.2,203,373.2,207.5z"/>
						</g>
					</g>
				</g>
			</g>
		</g>
	</g>
	<g>
		<rect x="140" y="429.2" fill="none" width="991.2" height="138.6"/>
		<g enable-background="new    ">
			<path fill="#86604E" d="M232.8,444.9c0.1,0.1,0.2,0.3,0.2,0.5c0,0.2-0.2,0.5-0.5,0.9c-2,2.2-3.9,4.8-5.5,7.6
				c-1.6,2.9-3,6-4.1,9.4c-1.1,3.4-2,7-2.6,10.7c-0.6,3.8-0.9,7.6-0.9,11.5c0,3,0.4,5.3,1.1,6.9c0.7,1.6,2,2.4,3.8,2.4
				c2.4,0,4.7-1.7,7-5.2c0.2-0.1,0.4-0.1,0.6,0c0.2,0.1,0.2,0.3,0.1,0.6c-0.6,1-1.3,2.1-2.2,3.1c-0.8,1-1.7,1.9-2.6,2.8
				c-0.9,0.8-1.8,1.5-2.7,2c-0.9,0.5-1.7,0.8-2.4,0.8c-2,0-3.6-1-4.7-3.1c-1.1-2.1-1.6-4.7-1.6-7.9c0-4.9,0.6-9.9,1.7-15.1
				c-2.9,0-5.7,0-8.5,0.1c-2.8,0.1-5.6,0.2-8.3,0.3c-2,2.2-4,4.2-5.9,6.1c-1.9,1.9-3.7,3.7-5.5,5.3c-4.9,4.5-10,8-15.2,10.5
				c-5.2,2.5-10.9,3.8-17.1,3.8c-3.1,0-5.7-0.8-7.6-2.3c-1.9-1.5-3.3-3.4-4-5.7c-0.7-2.3-0.8-4.8-0.2-7.5c0.6-2.7,1.9-5.3,3.9-7.7
				c0.2-0.1,0.4-0.1,0.6,0c0.2,0.2,0.3,0.4,0.3,0.9c-1.5,1.6-2.4,3.5-2.6,5.5c-0.3,2.1,0,4.1,1,6c0.9,1.9,2.5,3.5,4.7,4.8
				c2.2,1.3,5.1,1.9,8.7,1.9c4.7,0,9.4-1.1,14.2-3.3c4.8-2.2,9.3-5.3,13.5-9.3c1.4-1.2,2.8-2.6,4.2-4.1c1.4-1.5,3-3.1,4.6-4.9
				c-4.3,0.3-8.1,0.7-11.5,1.1c-0.3-0.1-0.4-0.2-0.2-0.5c0.2-0.2,0.5-0.5,0.9-0.8c0.4-0.3,0.9-0.5,1.4-0.7c0.5-0.2,1-0.4,1.5-0.4
				c0.7-0.1,2-0.1,3.6-0.1c1.7,0,3.6-0.1,5.8-0.1c3.5-3.7,7.4-7.7,11.8-11.9c4.3-4.3,9.4-8.6,15.1-13.1c-4.1-1.4-8.4-2.5-12.8-3.4
				c-4.4-0.9-8.6-1.3-12.7-1.3c-4.6,0-8.5,1.3-11.5,4c-3,2.7-4.9,6.8-5.7,12.2c-0.1,0.3-0.3,0.4-0.5,0.4c-0.2-0.1-0.4-0.2-0.4-0.6
				c0.7-6,3-10.7,6.7-13.9c3.8-3.2,8.6-4.8,14.6-4.8c2.5,0,5.1,0.2,7.7,0.5c2.6,0.3,5.1,0.8,7.6,1.3c2.5,0.5,4.8,1.1,7.1,1.8
				C228.9,443.7,230.9,444.3,232.8,444.9z M217.6,471.7c1-4.5,2.5-8.9,4.3-13.2c1.8-4.3,4.1-8.2,6.7-11.7
				c-5.4,4.4-10.3,8.7-14.6,12.9c-4.3,4.2-8.3,8.2-12,12.1c3-0.1,5.9-0.1,8.8-0.1C213.7,471.7,216,471.7,217.6,471.7z"/>
			<path fill="#86604E" d="M264.9,479.6c0-1.3-0.5-1.9-1.4-1.9c-0.9,0-1.9,0.5-3,1.4c-1.1,0.9-2.3,2.2-3.5,4
				c-1.2,1.7-2.4,3.8-3.6,6.3c-1.2,2.5-2.4,5.3-3.5,8.5c-0.1,0.4-0.4,0.7-1,0.9c-0.5,0.2-1,0.3-1.5,0.3c-0.7,0-1-0.3-0.8-0.8
				c0.4-1.1,0.9-2.5,1.5-4.2c0.6-1.7,1.3-3.4,1.8-5.1c0.6-1.8,1.1-3.4,1.5-4.9c0.4-1.5,0.6-2.7,0.6-3.6c0-1.7-0.5-2.6-1.6-2.6
				c-1.6,0-3.6,1.7-6.1,5.2c-2.5,3.5-4.8,8.4-7,14.9c-0.1,0.4-0.4,0.7-0.8,0.9c-0.4,0.2-0.9,0.3-1.4,0.3c-0.3,0-0.6-0.1-0.7-0.2
				c-0.2-0.1-0.2-0.3-0.1-0.6c0.5-1.4,1-2.8,1.6-4.5c0.6-1.6,1.1-3.3,1.7-4.9c0.6-1.7,1.1-3.3,1.5-4.9c0.5-1.6,0.8-3.1,1.2-4.5
				c0.3-1.1,0.2-1.7-0.5-1.7c-0.5,0-1.1,0.3-1.8,1c-0.7,0.7-1.4,1.5-2,2.4c-0.2,0.1-0.4,0.1-0.6,0c-0.2-0.2-0.2-0.3-0.1-0.5
				c0.9-1.3,2-2.5,3.1-3.6c1.1-1.1,2.3-1.6,3.5-1.6c0.8,0,1.3,0.3,1.5,0.9c0.2,0.6,0.2,1.4,0,2.2c-0.3,1.4-0.6,2.6-0.9,3.7
				c-0.3,1.1-0.6,2.3-1.1,3.5c1.6-3.1,3.4-5.6,5.3-7.5c1.9-1.9,3.9-2.9,5.8-2.9c0.7,0,1.3,0.3,1.8,0.8c0.5,0.6,0.7,1.3,0.7,2.3
				c0,1.3-0.1,2.6-0.4,3.9c-0.2,1.3-0.6,2.6-1.1,4c1.8-3.5,3.8-6.2,6-8.1c2.1-1.9,4.2-2.9,6.3-2.9c0.7,0,1.2,0.2,1.7,0.7
				c0.4,0.5,0.6,1.1,0.6,1.9c0,1.1-0.2,2.3-0.7,3.6c-0.5,1.3-1,2.7-1.5,4.1c-0.6,1.4-1.1,2.8-1.5,4.2c-0.5,1.4-0.7,2.7-0.7,3.9
				c0,1.5,0.5,2.3,1.4,2.3c1,0,2.3-1,4.1-3c0.1-0.1,0.3-0.1,0.4,0.1c0.2,0.2,0.2,0.4,0,0.6c-0.4,0.5-0.8,1-1.4,1.6
				c-0.6,0.6-1.1,1.1-1.7,1.7c-0.6,0.5-1.2,1-1.9,1.3c-0.7,0.3-1.3,0.5-1.9,0.5c-1.4,0-2.1-1.2-2.1-3.5c0-1.5,0.2-3,0.6-4.5
				c0.4-1.5,0.9-3,1.4-4.3c0.5-1.4,1-2.7,1.4-3.9C264.7,481.5,264.9,480.4,264.9,479.6z"/>
			<path fill="#86604E" d="M289.2,479.4c0,0.9-0.3,1.7-1,2.4s-1.6,1.4-2.8,2c-1.2,0.6-2.5,1.1-4,1.6c-1.5,0.5-3.1,1-4.8,1.4
				c-0.1,0.7-0.1,1.4-0.1,2c0,0.7,0,1.4,0,2.2c0,1.5,0.3,2.8,1,3.9c0.7,1,1.6,1.6,2.9,1.6s2.4-0.3,3.5-0.9c1.1-0.6,2-1.4,2.9-2.5
				c0.2-0.1,0.4-0.1,0.6,0.1s0.1,0.4,0,0.6c-1,1.4-2.4,2.6-3.9,3.7s-3.2,1.5-4.9,1.5c-1.6,0-2.9-0.5-3.9-1.6c-1-1-1.5-2.6-1.5-4.6
				c0-1.8,0.3-3.8,1-5.9c0.7-2.1,1.6-4,2.7-5.7c1.1-1.7,2.4-3.1,3.8-4.3c1.4-1.1,3-1.7,4.6-1.7c1.2,0,2.2,0.4,3,1.2
				C288.8,477.4,289.2,478.3,289.2,479.4z M283.1,477.7c-1.4,0-2.7,0.6-3.8,1.8c-1.1,1.2-1.9,3.2-2.4,5.8c3-0.4,5.1-1.1,6.5-1.9
				c1.4-0.8,2.1-1.8,2.1-2.8c0-0.9-0.2-1.6-0.6-2.1C284.4,478,283.9,477.7,283.1,477.7z"/>
			<path fill="#86604E" d="M300.4,477.9c0,0.9-0.1,2-0.3,3.2c-0.2,1.2-0.4,2.5-0.7,3.7c1.2-3,2.6-5.3,4.1-7c1.5-1.7,3.1-2.5,4.8-2.5
				c0.7,0,1.3,0.2,1.8,0.6c0.6,0.4,0.8,0.9,0.8,1.6c0,0.5-0.2,1.1-0.6,1.9c-0.4,0.8-0.7,1.3-1.1,1.7c-0.4,0.2-0.6,0.2-0.6-0.3
				c0-1-0.7-1.6-2.1-1.6c-2.2,0-4.1,1.6-5.8,4.9c-1.7,3.2-3.4,7.7-4.9,13.4c-0.1,0.6-0.5,1-1.2,1.2c-0.7,0.2-1.3,0.3-1.8,0.3
				c-0.7,0-0.8-0.3-0.5-1c0.6-1.3,1.1-2.7,1.6-4.2c0.5-1.5,1-3,1.4-4.6c0.5-1.5,0.8-3,1.2-4.5c0.3-1.5,0.6-2.8,0.7-4.1
				c0.2-1.8-0.1-2.8-0.9-2.8c-0.5,0-1.1,0.3-1.7,0.8s-1.2,1.2-1.8,1.9c-0.2,0.1-0.5,0.1-0.6,0c-0.2-0.2-0.2-0.4-0.1-0.6
				c0.9-1.2,2-2.2,3.1-3.2c1.1-1,2.2-1.4,3.2-1.4C299.7,475.3,300.4,476.2,300.4,477.9z"/>
			<path fill="#86604E" d="M312,481.8c-0.2,0.1-0.4,0.1-0.5-0.1c-0.2-0.2-0.2-0.4,0-0.6c0.9-0.9,2-1.8,3.5-3c1.5-1.1,3-2,4.4-2.8
				c0.5,0,0.7,0.3,0.7,0.8c-0.8,1.4-1.6,3-2.4,4.6c-0.8,1.7-1.4,3.3-2,4.9c-0.6,1.6-1.1,3.2-1.4,4.7c-0.4,1.5-0.6,2.8-0.6,3.7
				c0,1.3,0.4,1.9,1.3,1.9c0.7,0,1.3-0.3,2-0.9c0.6-0.6,1.4-1.4,2.3-2.4c0.1-0.1,0.3-0.1,0.5,0.1s0.2,0.4,0.1,0.6
				c-1.1,1.4-2.3,2.6-3.6,3.7c-1.3,1.1-2.4,1.7-3.6,1.7c-1.6,0-2.4-1-2.4-3c0-1.2,0.2-2.6,0.6-4.2c0.4-1.6,0.9-3.3,1.5-4.9
				c0.6-1.7,1.3-3.3,2.1-4.8c0.8-1.5,1.5-2.9,2.3-4c-0.7,0.5-1.5,1.1-2.5,1.9C313.3,480.6,312.5,481.3,312,481.8z M320.4,471.3
				c-0.2,0.2-0.4,0.2-0.5,0c-0.2-0.2-0.3-0.4-0.3-0.6c-0.1-0.3-0.1-0.6-0.1-1c0-0.4,0.1-0.7,0.3-0.9c1.6-2.2,3.8-4.6,6.7-7.1
				c0.2-0.1,0.4,0,0.6,0.1c0.2,0.2,0.2,0.3,0.1,0.4c-1.3,1.2-2.5,2.6-3.7,4.2C322.2,468.1,321.2,469.7,320.4,471.3z"/>
			<path fill="#86604E" d="M337.5,482.8c-0.3,0-0.5-0.2-0.5-0.5c0.5-1.2,0.5-2.3,0-3.2s-1.4-1.4-2.8-1.4c-1,0-1.9,0.4-2.8,1.1
				c-0.9,0.7-1.6,1.7-2.2,3c-0.6,1.3-1.1,2.7-1.5,4.4c-0.4,1.7-0.6,3.5-0.6,5.5c0,3,1,4.5,3.1,4.5c2.4,0,4.8-1.4,7.2-4.3
				c0.2-0.1,0.5-0.1,0.6,0c0.2,0.2,0.2,0.4,0.1,0.7c-1.4,1.8-3,3.3-4.7,4.6c-1.7,1.3-3.4,1.9-5.1,1.9c-1.4,0-2.5-0.5-3.4-1.5
				c-0.9-1-1.3-2.3-1.3-4.1c0-2.2,0.4-4.3,1.1-6.5c0.7-2.2,1.6-4.1,2.8-5.8c1.1-1.7,2.4-3.1,3.9-4.2c1.5-1.1,3-1.6,4.5-1.6
				c1.3,0,2.3,0.3,3,0.9c0.7,0.6,1.1,1.4,1.1,2.2c0,0.3-0.1,0.7-0.3,1.1c-0.2,0.4-0.4,0.9-0.7,1.3c-0.3,0.4-0.6,0.8-0.9,1.2
				C338,482.4,337.7,482.7,337.5,482.8z"/>
			<path fill="#86604E" d="M364.7,493.1c0.1-0.1,0.3-0.1,0.5,0c0.2,0.1,0.2,0.3,0.2,0.6c-1.3,1.8-2.6,3.1-3.8,4
				c-1.3,0.9-2.3,1.3-3.2,1.3c-0.6,0-1-0.3-1.3-0.8c-0.3-0.6-0.6-1.3-0.6-2.3c-0.1-1-0.1-2,0.1-3.2c0.2-1.2,0.4-2.4,0.8-3.7
				c-1.7,2.6-3.4,4.8-5.3,6.7c-1.8,1.9-3.6,3-5.4,3.4c-1.1,0-2-0.5-2.8-1.6c-0.8-1.1-1.2-2.8-1.2-5c0-2,0.4-4,1.2-6.1
				c0.8-2,2-3.8,3.4-5.5c1.4-1.6,3-2.9,4.9-3.9c1.8-1,3.8-1.5,5.8-1.5c1.1,0,2.1,0.1,2.9,0.4c0.8,0.2,1.5,0.6,2.2,1.1
				c0.4-0.3,0.9-0.6,1.5-0.9c0.6-0.3,1.2-0.4,1.8-0.4c0.3,0,0.4,0.2,0.3,0.5c-1.4,1.7-2.6,3.6-3.7,5.7c-1,2.1-1.8,4.1-2.4,6.1
				c-0.6,2-0.9,3.7-1.1,5.2c-0.2,1.5,0,2.5,0.3,3.1c0.3,0.4,0.9,0.4,1.7,0C362.4,495.8,363.4,494.8,364.7,493.1z M348.6,495.8
				c0.7,0,1.6-0.5,2.6-1.4c1.1-1,2.2-2.2,3.4-3.7c1.2-1.5,2.3-3.3,3.5-5.2c1.1-1.9,2.1-3.9,3-5.9c-0.2-0.8-0.8-1.4-1.7-1.9
				c-0.9-0.5-1.9-0.7-3.1-0.7c-1.4,0-2.6,0.4-3.8,1.1c-1.2,0.7-2.3,1.7-3.2,3c-0.9,1.3-1.7,2.8-2.2,4.5c-0.6,1.7-0.8,3.6-0.8,5.7
				c0,1.4,0.2,2.5,0.7,3.4C347.4,495.4,348,495.8,348.6,495.8z"/>
			<path fill="#86604E" d="M393,493c0.2-0.1,0.4-0.1,0.6,0c0.2,0.1,0.2,0.3,0.2,0.6c-1,1.4-2.2,2.7-3.5,3.7
				c-1.3,1.1-2.4,1.6-3.6,1.6c-1.9,0-2.9-1.2-2.9-3.7c0-2.1,0.4-4.4,1.1-7c0.7-2.6,1.8-5.1,3-7.7c0.2-0.4,0.4-0.9,0.4-1.3
				c0-0.7-0.3-1-0.9-1c-2.3,0-4.8,1.6-7.5,4.7c-2.7,3.1-5.3,8.1-7.6,14.8c-0.1,0.4-0.5,0.7-1,0.9c-0.6,0.2-1.1,0.3-1.6,0.3
				c-0.7,0-0.9-0.3-0.7-0.8c1-2.6,2.1-5.6,3.3-9c1.1-3.3,2.1-6.6,3-9.9c0.2-1.2,0-1.8-0.6-1.8c-0.6,0-1.2,0.3-1.8,0.9
				c-0.6,0.6-1.3,1.4-1.9,2.4c-0.1,0.1-0.3,0.1-0.4-0.1c-0.2-0.2-0.2-0.4-0.1-0.6c0.7-1,1.6-2.1,2.8-3.2c1.2-1.1,2.4-1.7,3.8-1.7
				c1.5,0,2.1,1,1.6,3.1c-0.2,1.4-0.6,2.8-1,4.3c-0.4,1.5-0.9,3-1.4,4.5c0.9-1.7,1.9-3.2,3-4.7c1.2-1.5,2.4-2.7,3.6-3.8
				c1.3-1,2.5-1.9,3.8-2.5c1.3-0.6,2.4-0.9,3.6-0.9c0.7,0,1.3,0.2,1.7,0.6c0.4,0.4,0.6,0.8,0.6,1.3c0,0.8-0.2,1.6-0.6,2.4
				c-1.3,2.3-2.4,4.8-3.3,7.3c-0.9,2.6-1.3,4.9-1.3,7.1c0,1.5,0.5,2.3,1.5,2.3C389.9,496.3,391.4,495.2,393,493z"/>
			<path fill="#86604E" d="M408.8,475.3c1.7,0,2.9,0.6,3.7,1.7c0.8,1.1,1.2,2.6,1.2,4.3c0,2.1-0.4,4.2-1.2,6.3c-0.8,2.1-1.8,4-3,5.7
				c-1.2,1.7-2.6,3.1-4,4.1c-1.4,1-2.8,1.6-4,1.6c-1.5,0-2.6-0.6-3.5-1.8c-0.9-1.2-1.3-2.8-1.3-5c0-1.7,0.3-3.6,1-5.5
				c0.7-2,1.6-3.8,2.7-5.5c1.1-1.7,2.4-3.1,3.9-4.2S407.2,475.3,408.8,475.3z M403.2,496.1c0.9,0,1.8-0.3,2.7-1
				c0.9-0.6,1.7-1.5,2.4-2.6c0.7-1.1,1.2-2.3,1.6-3.7c0.4-1.4,0.6-2.9,0.6-4.4c0-1.8-0.3-3.3-0.9-4.4c-0.6-1.1-1.6-1.6-3-1.6
				c-0.9,0-1.8,0.3-2.7,1c-0.9,0.6-1.6,1.5-2.3,2.6c-0.6,1.1-1.2,2.3-1.5,3.8c-0.4,1.4-0.6,3-0.6,4.6
				C399.5,494.2,400.8,496.1,403.2,496.1z"/>
		</g>
	</g>
</g>
</svg>
