<?xml version="1.0" encoding="utf-8"?>
<!-- Generator: Adobe Illustrator 18.0.0, SVG Export Plug-In . SVG Version: 6.00 Build 0)  -->
<!DOCTYPE svg PUBLIC "-//W3C//DTD SVG 1.1//EN" "http://www.w3.org/Graphics/SVG/1.1/DTD/svg11.dtd">
<svg version="1.1" id="Layer_1" xmlns="http://www.w3.org/2000/svg" xmlns:xlink="http://www.w3.org/1999/xlink" x="0px" y="0px"
	 viewBox="0 0 560 560" enable-background="new 0 0 560 560" xml:space="preserve">
<g>
	<circle fill="#DFCEC4" cx="281.4" cy="270.2" r="197.4"/>
	<g>
		<g>
			<g>
				<g opacity="0.8">
					<g opacity="0.8">
						<path fill="#FAF8F7" d="M383,114.8c-7-4.8-14.6-8.7-22.4-12.6c-7.6-3.6-15.7-7-23.8-9.8c-16.2-5.6-33.3-9.2-50.4-10.1
							c-33.6-2-67.2,7.3-90.4,24.6c-5.3,3.6-10.4,7.8-15.1,12c2.8-1.4,5.6-3.4,8.7-4.5c8.1-4.2,16.8-7.6,25.5-10.6
							c4.5-1.7,9-2.8,13.4-3.9c4.5-1.1,9-2.2,13.7-2.8c18.2-3.4,37.2-3.9,56-1.7c37.2,3.9,72.8,19.9,100.8,43.4
							c17.6,14,33.9,31.4,45.9,52.1c12,20.7,20.2,45.4,20.4,71.7c0,5.9,3.6,6.4,5.3,7c2.2-5.3,4.5-10.1,6.4-14.6
							c-1.4-11.2-3.6-22.4-7-33c-3.4-10.6-7.6-21.3-12.9-31.1c-10.4-19.9-23.5-38.4-39.8-54.3c-2.5-2.8-5.6-5-8.7-7.3
							c-3.4-2-6.4-4.2-9.5-5.6c-3.1-1.7-6.2-3.1-9-4.5C387.2,117.3,385,115.9,383,114.8z"/>
						<path fill="#F8F5F3" d="M476.6,256.5c0.3-0.3,0.3-0.6,0.6-0.8c-0.3-2.2-0.6-4.5-0.8-6.7C476.6,251.4,476.6,254,476.6,256.5z"
							/>
						<path fill="#FAF7F6" d="M434.6,156.8c-9.5-11.2-19.6-21.6-30.5-31.1c-8.1-4.8-16.5-7.8-21-10.9c-7-4.8-14.6-8.7-22.4-12.6
							c-7.6-3.6-15.7-7-23.8-9.8c-16.2-5.6-33.3-9.2-50.4-10.1c-33.6-2-67.2,7.3-90.4,24.6c-5.3,3.6-10.4,7.8-15.1,12
							c3.1-1.7,6.2-3.4,9.2-5c23-11.2,48.2-18.5,73.9-19.9c1.4-0.3,2.8-0.6,4.2-0.8c7.3-1.7,14.3-1.7,21.3-0.8
							c3.4,0.3,7,1.1,10.4,1.7c3.4,0.8,6.7,1.4,10.1,2c9.8,1.1,19,3.4,28,6.2c9,2.8,17.4,6.4,25.2,10.9c16,8.7,30.8,19.6,45.4,33
							c2.5,2.5,5.3,4.8,8.1,7.3c2.8,2.5,5.6,5,8.4,7.8c5.3,5.6,10.9,11.8,14.8,19.3c1.7,2.5,2.8,5,3.9,7.6c1.4,2.5,2.2,5,3.4,7.8
							c10.6,19.9,17.4,42.8,17.9,67.2c0,5.9,3.6,6.4,5.3,7c1.1-2.8,2.2-5.3,3.6-7.8c0-10.4-1.1-20.7-3.1-30.8
							c-2-10.1-5-20.4-8.7-30.2c-7.3-16.8-17.1-32.8-28.6-47C433.7,154.8,434.3,155.7,434.6,156.8z"/>
						<path fill="#F8F5F3" d="M437.9,152.3c-1.7-2.2-5.6-3.1-4.2,2c11.5,14.3,21.3,30.2,28.6,47
							C456.1,184.5,447.7,168.3,437.9,152.3z"/>
						<path fill="#FCFAF9" d="M449.4,147.3c-10.9-16.2-25.2-29.7-39.8-40.3C395.1,96,380,87.6,366,79.8
							c-14.8-8.4-30.2-15.4-44.5-21.6c-2.8-0.6-5.6-0.8-8.4-1.4c-2.8-0.3-5.6-0.6-8.1-1.1c-17.1-1.7-34.2-0.8-51.2,1.4
							c-16.8,2.5-33.6,6.7-49.3,13.2c-31.6,12.6-59.9,32.8-82.3,58c-11.2,12.6-21,26.6-28.8,41.4S79,200.2,74.5,216.4
							s-7,33-7.6,49.8c-0.6,16.8,0.6,33.9,3.6,50.4c3.4,16.8,9.2,32.5,16.8,47.3c7.6,14.6,17.4,28,28.3,40.3
							c10.9,12,23.5,22.7,37,31.9c13.4,9.2,28.3,16.8,44,22.7c4.5,2,9,3.6,13.4,5.3c2.2,0.8,4.5,1.7,6.7,2.2
							c2.2,0.8,4.5,1.7,6.4,2.2c2.2,0.8,4.5,1.4,6.4,2c2.2,0.6,4.5,1.1,6.4,2c4.2,1.4,8.7,2.2,12.9,3.4c17.4,3.9,35.3,6.2,55.4,5.3
							c24.9-0.8,48.7-7.6,70-18.2c21-10.9,39.8-25.5,54.9-42.8c30.2-35,47.6-79.2,50.7-126.8c0.8-12.9-3.4-20.2-6.7-23.2
							c-3.6-3.4-7.3-2.5-7.3,0.6c1.4,37-9.2,73.9-29.7,104.2c-20.2,30.5-49.6,54.3-83.2,68c-8.4,3.4-17.1,6.2-25.8,8.4
							c-8.7,2.2-17.6,3.6-26.6,4.5s-18.2,1.1-27.2,0.6s-18.2-1.4-27.2-3.1c-35.8-6.7-69.7-23.8-97.2-49.6
							c-21-19.9-37.2-44.8-46.5-71.7c-9.5-26.9-12.3-55.7-8.7-83.2c3.6-27.4,13.7-53.8,28.8-76.2s35.3-40.9,58-54
							c4.8-4.2,9.8-8.4,15.1-12c23.2-17.4,56.8-26.3,90.7-24.4c17.1,0.8,34.2,4.5,50.4,10.1c8.1,2.8,16,6.2,23.8,9.8
							c7.6,3.9,15.1,7.8,22.4,12.6c2,1.1,4.2,2.5,7,3.6c2.8,1.1,5.9,2.8,9,4.5c3.4,1.7,6.4,3.6,9.5,5.6c3.1,2.2,6.2,4.5,8.7,7.3
							c16,16,29.4,34.4,39.8,54.3c5,10.1,9.5,20.4,12.9,31.1c3.4,10.6,5.6,21.8,7,33c4.5-9.5,8.4-17.9,10.4-28.6
							C479.1,197.4,465.1,171.4,449.4,147.3z"/>
						<path fill="#F8F4F2" d="M449.4,147.3c15.4,23.8,29.4,49.8,37.8,78.7c0.3-2.5,0.6-5.3,0.8-8.1c0-2.8-0.3-5.9-0.6-9.2
							c-0.8-4.5-2-9.2-3.1-13.7c-1.4-4.5-2.8-9.2-4.5-13.7c-3.4-9-7.6-17.9-12.6-26.6s-10.9-16.8-17.1-24.6
							c-6.4-7.8-13.4-15.1-21-21.8c-7.6-6.7-15.7-12.9-24.1-18.5c-8.7-5.3-17.4-10.4-26.6-14.6c-9.2-4.2-18.5-7.8-28-10.6
							c-4.8-1.7-9.5-2.5-14.3-3.9c-2.5-0.6-4.8-1.1-7.3-1.7c-2.5-0.6-4.8-1.1-7.3-1.4c14.3,6.2,29.7,13.4,44.5,21.6
							c14,8.1,29.1,16.2,43.7,27.2C424.5,117.6,438.5,131,449.4,147.3z"/>
						<path fill="#FAF7F6" d="M449.4,147.3c14.8,23,28.3,47.6,36.7,74.8c-0.6-4.8-1.7-9.5-2.8-14.3c-0.6-2.2-1.4-4.8-2-7
							c-0.6-2.2-1.4-4.8-2.2-7c-8.7-23.5-21.8-45.4-38.4-64.4c-16.5-19-35.8-35.3-57.1-48.7c47.6,25.8,84.8,70,102.5,121.5
							c-8.1-35.6-30-70.6-59.9-95.8c-7.3-6.4-15.4-12-23.8-17.4c-8.4-5.3-17.1-9.8-25.8-14c-9-3.9-17.9-7.6-27.2-10.1
							c-4.5-1.4-9.2-2.5-13.7-3.9c-4.8-0.8-9.2-2.2-14-2.8c14.3,6.2,29.4,13.4,44.2,21.6c14,8.1,29.1,16.2,43.7,27.2
							C424.5,117.6,438.5,131,449.4,147.3z"/>
						<path fill="#F8F4F1" d="M390.3,95.2c24.4,16.2,45.1,37.5,61,61.6c16,24.4,27.4,51.8,33.3,80.9c0.8-2.8,1.7-5.3,2.2-8.4
							c-0.3-2.5-0.6-5-0.8-7.6c-8.4-27.2-21.8-52.1-36.7-74.8c-10.9-16.2-25.2-29.7-39.8-40.3C395.1,95.8,380,87.4,366,79.5
							c-14.8-8.4-30.2-15.4-44.2-21.6c-2.5-0.6-5-0.8-7.8-1.4c-2.5-0.3-5-0.6-7.8-0.8c-17.4-1.7-35-1.1-52.4,1.4
							c-8.7,1.1-17.1,3.1-25.5,5.3c-8.4,2.5-16.8,5-24.6,8.4c-16,6.4-31.4,14.8-45.4,25.2c-7,5-13.7,10.6-20.2,16.2
							c-6.2,5.9-12.3,12-17.9,18.5c-9,12-17.1,24.9-24.1,38.6S83.4,197.7,79,212.5c-8.7,30-11.5,62.2-7.6,93.5
							c-4.8-29.1-3.9-59.4,2.8-88.5c-8.4,31.9-9.8,65.5-3.6,98.3c5.6,28.3,17.9,54.3,35,76.2c3.1,1.4,6.2,3.6,10.1,6.4
							c3.9,3.1,8.4,7,13.7,12.3c8.4,8.1,17.1,15.7,26.6,22.4c9.5,6.7,19.6,12.3,30.5,16.5c2.8,1.4,1.1,3.6,6.7,6.7
							c-16.2-8.1-29.4-14.8-41.7-21c13.7,9.2,28.3,17.1,44,23c14.3,6.2,27.7,10.9,41.4,14.6c13.7,3.6,27.2,6.4,41.7,7.8
							c3.1,0,6.2-0.3,9.5-0.3c15.7-0.8,31.1-4.5,45.9-10.1c-6.2,1.4-12.3,2.8-19,3.6c9.8-3.1,22.4-6.2,31.6-9
							c-4.2,2-8.4,3.6-12.6,5.3c14.8-3.6,28.6-8.7,43.1-15.7c-17.6,9-36.1,16.5-52.6,21.6c17.9-3.9,34.4-10.1,50.1-17.9
							c15.7-7.8,30.2-17.1,44.8-28c-0.6,0.8-1.1,1.4-1.7,2.2c18.5-17.9,33.3-39.2,43.7-62.7c10.4-23.2,16.5-48.7,18.5-75
							c0.3-3.1,0.3-6.2-0.3-8.7c-0.3-2.5-0.8-4.8-1.4-6.7c-1.4-3.9-3.4-6.4-5-8.1c-3.6-3.1-7.3-2.5-7.3,0.6
							c0.8,25.8-4.2,51.5-14.3,75s-25.2,44.5-44,61.6c-18.8,17.1-40.9,30.2-65,38.4c-23.8,8.1-49.6,11.2-74.8,9.5
							c11.2,2.8,23,4.5,35,5c2.5,0,5-0.3,7.6,0c2.5,0,5,0,7.3,0c-2.5,0-5,0.3-7.6,0.3c-2.5,0-5,0-7.6-0.3c-14,0.3-29.7,0.6-44.5-2.8
							c-1.4-0.6-4.2-1.1-7.3-1.7c-3.1-0.3-6.2-0.3-8.1,0.6c-9.8-3.1-20.7-6.4-31.1-10.4c-10.4-4.2-20.7-9.2-28.8-15.4
							c-1.1-0.6-2.2-2.5-3.9-4.5c-10.9-6.7-21-14.8-30.5-23.8c-26.3-24.9-44.5-57.7-51.8-92.4c-7.6-34.4-4.8-70.8,7.8-102.8
							c-7,15.1-12.3,30.5-15.7,45.4c-2.8,10.1-3.4,26.6-0.3,44.5c3.1,17.9,10.1,37.2,18.2,53.8c2.2,4.2,3.6,7.6,4.8,11.2
							c1.4,3.4,2.2,7,4.8,10.9c-3.1-2.8-5.6-6.4-8.4-9.8c-2.5-3.6-5-7.6-7-11.5c-4.5-8.1-7.8-17.4-10.4-26.6
							c-2.8-9.5-4.2-19.3-5.3-29.1c-1.1-9.8-1.4-19.6-1.7-29.1c0-12.6,1.7-26.6,5.3-40.6c3.6-14,9-28.3,16-42
							c7-13.4,15.7-26.3,24.9-37.8c9.2-11.8,19.3-22.1,29.1-31.6c8.1-7.8,17.4-14,26.9-18.2c9.5-4.2,19-7,27.7-8.7
							c-5.6,3.6-16.5,8.4-22.1,11.5c-24.4,12.3-46.2,30-63.3,51.5c-17.1,21.6-29.4,47-35.3,74.2c4.2-13.7,9.5-26.9,16-39.5
							c6.4-12.3,14.3-24.1,23.2-34.7c17.6-21.3,40.3-38.6,66.1-49c-7.3,3.6-14.3,7.6-21.3,11.8c-6.7,4.5-13.4,8.7-19.6,14
							c-12.3,10.1-23,22.1-30,35.6c2-1.7,3.9-3.4,5.9-5.3c13.4-16.2,30-30,47.9-40.3c4.8-4.2,9.8-8.4,15.1-12
							c23.2-17.4,56.8-26.3,90.7-24.4c17.1,0.8,34.2,4.5,50.4,10.1c8.1,2.8,16,6.2,23.8,9.8c7.6,3.9,15.1,7.8,22.4,12.6
							c4.5,3.1,12.9,6.2,21,10.9c-16.8-14.6-35.8-27.2-57.1-35c8.1,3.9,15.7,8.7,21.6,14c-9.2-4.8-17.6-9-26.3-12.9
							s-17.9-7.3-28.3-8.7c11.5,1.1,22.4,3.9,33,7.6c-12.3-5.9-26.3-9.8-40.6-12.6c14.3,0.3,27.4,4.8,39.8,10.1s24.1,11.8,37.5,17.4
							c-5-3.1-10.4-6.2-15.4-9.2c5.3,2.8,10.6,5.9,15.7,9.2c0,0-0.3,0-0.3-0.3c7.8,4.8,15.4,9.8,23,15.1
							c7.3,5.3,14.3,10.9,20.4,16.5c-10.9-11.8-22.1-22.4-34.2-31.9c-12.3-9.2-25.8-17.4-40.6-23c-2.5-0.8-5-1.7-7.6-2.5
							c-2.5-0.8-5-1.4-7.6-2.2c2.5,0.6,5.3,1.1,7.8,2c2.5,0.8,5,1.4,7.6,2.5c35,12,65.5,35.8,87.1,65.5
							c21.6,29.7,34.4,65,37.2,100.8c0.3,2.2,0.6,4.5,0.8,6.7c1.1-2.2,2-4.2,3.1-6.2c-2.8-30.2-12-60.2-27.7-86.8
							c-7.8-13.2-16.8-25.8-27.4-37C414.7,114.2,402.9,104.2,390.3,95.2z"/>
					</g>
				</g>
			</g>
		</g>
	</g>
</g>
<g>
	<path fill="#86604E" d="M204.4,280h140c0,0-21,54-70,49C225.4,323.7,204.4,280,204.4,280z"/>
	<g>
		<g>
			<g>
				<g opacity="0.8">
					<g opacity="0.8">
						<path fill="#EEE8E6" d="M240,312.5c7.8,4.5,16.2,8.7,24.9,10.9c2.2,0.6,4.5,0.8,6.4,1.4c1.1,0.3,2.2,0.3,3.4,0.6
							c1.1,0,2.2,0,3.1,0.3c4.2,0,8.1-0.3,11.8-1.4c1.7-0.3,3.1-1.1,4.8-1.7l-2.5,0.3c-4.8,0.6-9.5,0.8-14.6,0.3
							c-2.5-0.3-5-0.8-7.6-1.1c-1.1-0.3-2.5-0.6-3.6-0.8l-3.6-1.1c-9.8-2.8-19-7.3-27.2-13.2c-5-3.4-10.1-7.3-14.8-11.8
							c-4.8-4.5-9-9.8-12.3-16c-0.6-1.4-1.7-1.1-2-1.1c0,1.4,0.3,2.8,0.3,4.2c6.4,9.8,14.8,18.2,24.1,25.8c1.4,1.4,3.4,2.2,5,3.1
							C237.4,311.4,239.1,311.9,240,312.5z"/>
						<path fill="#E6DEDB" d="M206.4,281.4L206.4,281.4c0.3,0.8,0.6,1.1,1.1,1.7C207.2,282.8,206.9,282.2,206.4,281.4z"/>
						<path fill="#ECE6E3" d="M225.4,303c1.4,1.4,3.1,2.5,4.5,3.6l2.2,1.7l2.2,1.7c2.2,1.1,4.5,2,5.6,2.8
							c7.8,4.5,16.2,8.7,24.9,10.9c2.2,0.6,4.5,0.8,6.4,1.4c1.1,0.3,2.2,0.3,3.4,0.6c1.1,0,2.2,0,3.1,0.3c4.2,0,8.1-0.3,11.8-1.4
							c1.7-0.3,3.1-1.1,4.8-1.7l-2.8,0.6c-6.7,0.8-13.4,0.6-20.2-0.8c-0.3,0-0.8,0-1.1,0c-3.9,0-7.3-1.7-10.9-2.8
							c-10.4-2.8-18.2-7.8-26.9-14.3c-3.1-2.2-6.7-4.2-10.1-7.8c-1.1-1.1-2.2-2.2-3.1-3.4c-4.2-4.2-8.1-9.2-11.2-15.1
							c-0.6-1.4-1.4-1.1-2-1.1c0,0.8,0,1.4,0,2.2c2.5,4.8,5.6,9.2,9,13.4c3.1,3.6,6.7,7,10.4,10.1
							C225.7,303.2,225.7,303.2,225.4,303z"/>
						<path fill="#E6DEDB" d="M224.8,304.1c0.6,0.6,1.4,0.6,0.8-0.6c-3.6-3.4-7-6.4-10.4-10.1c0.8,0.8,1.4,1.7,2.2,2.8
							c0.8,0.8,1.7,1.7,2.2,2.8C221.5,300.7,223.2,302.4,224.8,304.1z"/>
						<path fill="#F4F0EE" d="M222,306c7,7,15.4,11.5,22.4,15.7c3.6,2.2,7.3,4.2,10.6,6.4c1.4,0.6,2.8,0.8,3.9,1.1
							c2,0.6,4.2,1.1,6.2,1.4l6.4,0.8c4.2,0.6,8.7,0.6,12.9,0.3c8.7-0.6,17.1-3.1,24.9-7.3c7.6-3.9,14.3-9.5,20.2-15.7
							c5.9-6.2,10.6-12.9,15.1-20.2c1.7-2.8,3.4-6.4,4.5-9.5l2-4.8c0.3-0.3,0-0.3-0.3-0.3h-0.6h-1.1h-2.5h-2.5h-2.8H336
							c-2,0-3.9,0.3-5.9,0.3c-7.8,0.6-15.7,1.1-23.8,1.7c-9.8,0.3-17.6-0.8-27.2-1.4c-23.8-1.7-44.2,2-68.6,3.1
							c-6.4,0.3-7.3,3.9-5.9,3.9c40.6-1.4,79.2,0,119.8-0.8c3.9,0,7.8,0,11.8-0.3h3.6h0.8h0.6h0.3c0,0,0,0,0,0.3l-0.8,1.7
							c-0.6,1.1-1.1,2-1.7,3.4c-0.8,1.4-1.7,3.1-2.8,4.8c-2,3.1-4.2,6.2-6.4,9c-4.5,5.6-10.1,10.6-16,14.6c-3.1,2-6.2,3.6-9.2,5
							c-3.1,1.4-6.4,2.2-9.8,3.1c-1.7,0.6-3.1,1.4-4.8,1.7c-3.6,1.1-7.6,1.7-11.8,1.4c-1.1,0-2.2,0-3.1-0.3
							c-1.1-0.3-2.2-0.3-3.4-0.6c-2.2-0.3-4.5-0.6-6.4-1.4c-8.7-2.2-17.1-6.2-24.9-10.9c-1.1-0.6-2.5-1.1-4.2-2s-3.6-1.7-5-3.1
							c-9.2-7.6-17.6-15.7-24.1-25.8c0,2.8,0,5,0.8,7.6C212,295.4,217.3,300.7,222,306z"/>
						<path fill="#E5DDD9" d="M222,306c-5-5.3-10.1-10.4-14.8-16.2c0.3,1.4,0.8,2.5,1.7,3.9c4.8,7.8,11.5,15.1,19.6,21
							c8.1,5.9,17.4,10.4,26.6,13.2c-3.4-2.2-7-4.2-10.6-6.4C237.7,317.2,229,313,222,306z"/>
						<path fill="#ECE6E3" d="M222,306c-4.8-5-9.8-10.1-14.3-15.4c1.4,2,2.5,4.2,4.2,5.9c7.6,9.8,17.6,17.9,28,24.9
							c-11.8-6.7-21.8-15.7-30.5-26c4.8,7.6,11.8,14.6,19.6,20.2c7.8,5.6,16.8,10.1,25.8,12.6c-3.4-2.2-7-4.2-10.6-6.4
							C237.7,317.2,229,313,222,306z"/>
						<path fill="#E3DAD6" d="M238.3,317.5c-3.1-2-6.2-4.2-9-6.4c-2.8-2.5-5.6-4.8-8.1-7.6c-5.3-5.3-10.1-10.9-14.6-17.1
							c0,0.8,0.3,1.4,0.3,2.2c0.3,0.6,0.6,1.1,0.8,1.7c4.5,5.6,9.5,10.6,14.3,15.4c7,7,15.4,11.5,22.4,15.7
							c3.6,2.2,7.3,4.2,10.6,6.4c1.1,0.6,2.5,0.6,3.6,1.1c2.2,0.6,4.2,1.1,6.4,1.4l6.4,0.8c4.2,0.6,8.7,0.6,13.2,0.3
							c9-0.6,17.6-3.4,25.2-7.6c12.9-8.1,24.1-20.4,32.5-33.3c-3.6,6.4-7.8,12.3-12.9,17.9c5.6-5.9,10.4-12.6,14.6-19.6
							c0.6-1.1,1.4-2.5,2-3.9c0.6-1.4,1.4-2.8,2-4.2s1.1-2.8,1.7-3.9l0.8-2l0.3-0.6c0-0.3,0.3-0.3,0-0.3h-1.1
							c-2.8,0-5.6-0.3-8.7-0.3h-4.5h-2.8c-1.4,0.8-3.4,1.4-7.3,1.7c-5.6,0.3-11.5,0.3-17.1,1.1c-0.8,0-0.6-0.6-2.2-0.8
							c4.5,0,8.1-0.3,11.5-1.1c-3.9,0.3-8.1,0.6-12,0.8c-7.6,0.3-14.3-0.3-21.3-0.8h-2.2c-3.9,0-7.6,0.6-11.5,0.8c1.7,0,3.1,0,4.8,0
							c-2.5,0.3-5.6,0.3-8.1,0.3c1.1,0,2.2-0.3,3.4-0.3c-3.6,0-7.3,0-11.2-0.3c4.8,0,9.8-0.3,14-0.6c-9,0-17.1,0.3-25.8-0.3h0.6
							c-12.3,0.8-24.6,2.2-38.4,3.1c-6.4,0.3-7.3,3.9-5.9,3.9c28.6-1.1,55.7-0.6,83.4-0.6l-9.5-1.4c-1.4,0-2.8-0.3-3.9-0.6l3.9,0.6
							c3.6,0.3,7.8,0.3,12,0.6c0.8,0.3,3.1,0.3,4.2-0.3c5.6,0.6,12,0,17.6,0.6c0.3,0,0.8,0.3,1.4,0.6c3.4,0,7,0,10.6-0.3
							c4.5,0,9-0.3,13.2-0.3h2.2h0.6h0.3l0,0l0,0l-0.6,1.1c-0.6,1.4-1.1,2.5-2,4.2c-4.5,8.1-10.1,15.7-16.8,21.8
							c3.4-2.8,6.4-5.6,9.5-8.4c2-2,4.5-5.3,6.7-9.5c0.6-1.1,1.1-2.2,1.7-3.4c0.6-1.1,0.8-2,1.4-2.8c0.3-0.8,0.8-2,1.1-2.8l0.3-0.6
							v-0.3v-0.3c-0.6,0-1.1,0-1.7,0c-2,0.3-2.8-0.6-5-0.6c2-0.6,4.5-0.8,7.3-0.8h1.1h0.6h0.3v0.3c-0.3,0.6-0.6,1.1-0.8,1.7
							c-0.6,1.1-1.1,2.5-1.7,3.6c-1.4,2.5-2.5,4.8-3.9,6.7c-1.4,2.2-2.8,4.2-4.2,6.2c-3.6,5.3-9,11.2-15.1,16
							c-6.2,5-13.2,9-19.6,11.8c-5.3,2.5-10.9,2.5-15.7,2c0.8-0.3,2-0.6,3.1-0.6c1.1-0.3,2.2-0.3,3.1-0.6c14-2,26.9-10.1,36.4-21
							c-5.3,5.3-10.9,9.8-17.4,13.4c-6.2,3.6-13.2,5.9-20.4,6.4c8.4-1.1,16.5-3.6,22.7-9c-0.6,0.3-1.4,0.6-2,0.8
							c-4.8,2.8-10.1,4.8-15.4,5.6c-1.7,0.6-3.1,1.4-4.8,1.7c-3.6,1.1-7.6,1.7-11.8,1.4c-1.1,0-2.2,0-3.1-0.3
							c-1.1-0.3-2.2-0.3-3.4-0.6c-2.2-0.3-4.5-0.6-6.4-1.4c-8.7-2.2-17.1-6.2-24.9-10.9c-1.4-0.8-3.4-1.4-5.6-2.8
							c4.8,3.6,9.8,6.7,15.1,9.2c-2-1.1-3.9-2.5-5.6-3.9c2.5,1.1,4.8,2.5,6.7,3.6c2.2,1.1,4.5,2.2,7.3,3.1c-2.8-0.8-5.6-1.7-8.4-3.1
							c1.4,0.8,3.4,1.7,5,2.2c1.7,0.8,3.4,1.7,5.3,2c-2-0.3-3.6-0.8-5-1.7c-1.7-0.8-3.4-1.4-4.8-2.2c-3.1-1.7-6.2-3.4-9.5-4.8
							c1.4,0.8,2.5,1.7,3.9,2.5c-1.4-0.6-2.8-1.7-4.2-2.5l0,0l-3.1-1.7l-3.1-2c-1.1-0.6-2-1.1-3.1-1.7c-0.8-0.6-2-1.4-2.8-2
							c1.7,1.4,3.1,2.8,4.8,3.9c1.7,1.1,3.1,2.5,4.8,3.6c1.7,1.1,3.4,2.2,5,3.4c1.7,0.8,3.6,2,5.3,2.8c1.1,0.6,2.5,1.1,3.9,1.4
							c-1.4-0.6-2.5-0.8-3.9-1.4c-8.7-3.6-16.5-9.2-23.2-15.7c-6.7-6.7-12.6-14-17.4-22.1c-0.3-0.6-0.6-0.8-0.8-1.4
							c0,0.6,0,1.1,0,1.7C214.5,296.8,225.4,308.8,238.3,317.5z"/>
					</g>
				</g>
			</g>
		</g>
	</g>
</g>
<g>
	<path fill="#86604E" d="M195.4,252H350c0,0-23.2,84.6-77.3,76.2C218.7,320,195.4,252,195.4,252z"/>
	<g>
		<g>
			<g>
				<g opacity="0.8">
					<g opacity="0.8">
						<path fill="#EEE8E6" d="M229.3,300.4c7.8,7.8,16.5,14.8,26.3,19.3c4.8,2.2,10.1,3.9,15.1,4.8c2.5,0.6,5,0.6,7.3,0.6
							c2.5-0.3,4.8-0.3,7-0.8c2-0.3,3.9-1.1,5.6-1.7l-3.1,0.6c-5.6,0.8-11.5,0.3-17.1-1.1c-5.9-1.4-11.5-3.6-16.8-6.4
							c-10.9-5.6-20.4-14-28.3-23.2c-10.1-11.2-19.6-24.1-25.8-40c-0.6-1.7-1.4-1.7-2-1.7c0,1.7,0,3.4,0,4.8
							c5.9,12.9,13.4,24.9,22.4,36.1C222.9,295.7,227.4,298.5,229.3,300.4z"/>
						<polygon fill="#E6DEDB" points="197.4,255.1 197.1,255.4 198.2,257.3 						"/>
						<path fill="#ECE6E3" d="M214.8,284.8c2.8,3.6,5.6,7.3,8.7,10.9c2.2,2,4.5,3.6,5.9,5c7.8,7.8,16.5,14.8,26.3,19.3
							c4.8,2.2,10.1,3.9,15.1,4.8c2.5,0.6,5,0.6,7.3,0.6c2.5-0.3,4.8-0.3,7-0.8c2-0.3,3.9-1.1,5.6-1.7l-3.1,0.6
							c-3.9,0.3-7.8,0.6-11.8-0.3c-3.9-0.6-8.1-1.7-12-3.1c-0.6,0-0.8-0.3-1.4-0.3c-4.8-0.8-8.4-3.4-12.3-5.9
							c-5.6-3.1-10.4-6.7-14.8-10.6c-4.5-4.2-8.4-8.4-12.9-13.7c-3.1-3.6-6.7-7.3-9.8-12c-1.1-1.7-2-3.4-2.8-4.8
							c-3.9-6.2-7.6-13.2-10.4-20.4c-0.6-1.7-1.4-1.7-2-1.7v2.5c2.2,6.2,5,12,8.1,17.9c3.1,5,6.2,9.8,9.5,14.6
							C215,285.3,215,285,214.8,284.8z"/>
						<path fill="#E6DEDB" d="M213.9,285.9c0.6,0.6,1.7,1.1,1.1-0.3c-3.4-4.8-6.7-9.5-9.5-14.6C208,276.1,211.1,280.8,213.9,285.9z"
							/>
						<path fill="#F4F0EE" d="M211.1,287c6.4,10.1,14.8,17.6,21.8,24.4c3.6,3.6,7.6,7,10.9,10.1c1.4,0.8,2.8,1.7,4.5,2.5
							c9.2,4.5,19.3,7.6,30,8.1c10.6,0.3,21.3-3.1,30-8.7s16-13.2,21.8-21.3s10.9-16.8,15.4-25.5c2.2-4.5,3.9-9,5.6-13.7l1.4-3.9
							c0.6-1.7,1.1-3.6,1.7-5.9l1.4-5.6v-0.3h-0.3h-0.8h-1.4H350c-2,0-4.2,0-6.2,0.3h-2.2h-1.7c-2.2,0-4.8,0.3-7,0.3
							c-4.8,0.3-9.5,0.6-14.6,0.8c-11.8,0.3-21.3-0.8-32.8-1.4c-28.6-1.7-53.5,2-82.6,3.1c-7.8,0.3-9,3.9-7,3.9
							c49-1.4,95.5,0,144.5-0.8c1.7,0,3.6,0,5.3,0h1.1c0.3,0,0.8-0.3,0.6,0.3l-0.6,2l-0.6,2.2l-1.1,3.1c-0.8,2.2-1.7,4.2-2.5,6.4
							c-3.4,8.4-7.6,16.5-12.3,24.1c-4.8,7.6-10.4,14.3-17.1,19.9c-3.4,2.8-6.7,5-10.4,7.3c-3.6,2-7.6,3.4-11.5,4.2
							c-2,0.6-3.6,1.4-5.6,1.7c-2.2,0.6-4.5,0.8-7,0.8c-2.5,0-4.8,0-7.3-0.6c-5-0.8-10.1-2.2-15.1-4.8c-9.8-4.5-18.5-11.8-26.3-19.3
							c-2-2-6.4-5-9.5-8.7c-9-11.5-16.5-23.2-22.4-36.1c0,3.1-0.3,5.9,0,9C201.6,272.2,206.4,279.7,211.1,287z"/>
						<path fill="#E5DDD9" d="M211.1,287c-4.5-7.3-9.2-14.8-13.4-22.4c0.3,1.4,0.6,3.1,1.1,5c8.1,20.2,24.6,40.3,45.1,52.1
							c-3.4-3.1-7.3-6.4-10.9-10.1C226,304.6,217.3,297.1,211.1,287z"/>
						<path fill="#ECE6E3" d="M211.1,287c-4.2-7-9-14-12.9-21.6c1.1,2.5,2.2,5.3,3.6,7.8c7,13.2,16,25.2,26.3,36.1
							c-11.8-11.2-21-24.4-28.6-38.4c8.4,19.6,24.6,38.9,44.2,50.4c-3.4-3.1-7.3-6.4-10.9-10.1C226,304.6,217.3,297.1,211.1,287z"/>
						<path fill="#E3DAD6" d="M226.5,305.2c-12.3-12.9-21.6-28-29.7-44.2c0,0.8,0,1.7,0,2.5c0.3,0.8,0.6,1.4,0.8,2.2
							c4.2,7.3,8.7,14.6,12.9,21.6c6.4,10.1,14.8,17.6,21.8,24.4c3.6,3.6,7.6,7,10.9,10.1c1.4,0.8,2.8,1.4,4.2,2.2
							c9.5,4.8,19.9,7.8,30.5,8.1c10.9,0.3,21.8-3.4,30.5-9.2c14.8-11.2,25.8-27.4,34.4-43.7c-3.9,7.8-8.1,15.4-13.2,22.7
							c5.9-7.8,10.6-16.2,15.1-24.9c1.7-3.9,3.4-7.6,4.8-11.5l1.1-2.8l1.1-3.4l0.8-2.2l0.8-2.5c0.6-1.7,0.8-3.4,1.4-4.8v-0.8v-0.6
							c0,0,0.3-0.6-0.3-0.3c-1.1,0.3-2.2,0.3-3.4,0.3c-2.5,0.3-5,0.6-8.4,0.6c-7,0.3-13.7,0.3-20.7,1.1c-0.8,0-0.8-0.6-2.8-0.8
							c5.3,0,9.8-0.3,13.7-1.1c-4.8,0.3-9.8,0.6-14.6,0.8c-9.2,0.3-17.1-0.3-25.5-0.8h-2.8c-4.5,0-9.2,0.6-13.7,0.8c2,0,3.6,0,5.9,0
							c-3.6,0.3-7.6,0.3-10.4,0.3c1.4,0,2.8-0.3,3.9-0.3c-4.5,0-9,0-13.7-0.3c5.9,0,11.8-0.3,16.8-0.6c-10.6,0-20.4,0.3-31.1-0.3
							h0.8c-14.8,0.8-30,2.2-46.2,3.1c-7.8,0.3-9,3.9-7,3.9c34.4-1.1,67.2-0.6,100.5-0.6c-3.9-0.6-7.6-0.8-11.5-1.4
							c-1.7,0-3.4-0.3-4.8-0.6l4.8,0.6c4.5,0.3,9.5,0.3,14.3,0.6c0.8,0.3,3.9,0.3,5-0.3c6.7,0.6,14.6,0,21.3,0.6
							c0.3,0,1.1,0.3,2,0.6c4.2,0,8.4,0,12.6-0.3c2,0,4.2,0,6.2-0.3h0.3h0.3l-0.3,0.6l-0.3,1.1l-0.8,2.8c-2,5.3-3.9,10.6-6.4,16
							c-4.8,10.4-10.6,19.9-17.6,28.3c3.6-3.9,7-7.8,10.1-11.5c4.2-5,10.1-17.9,13.7-28.8c0.6-1.4,0.8-2.5,1.4-3.4
							c0.6-0.8,1.1-2,1.4-3.1c-0.3,2-0.8,5-1.7,7.6c-0.8,2.8-2,5.6-3.4,8.4c-2.5,5.6-5.6,10.9-8.4,16.2c-3.9,6.7-9.2,14.6-16,21.3
							c-6.7,6.7-14.6,12.6-22.1,16c-6.4,3.1-13.4,3.1-18.8,2.2c1.1-0.3,2.5-0.3,3.9-0.3s2.8-0.3,3.6-0.3c4.2-0.6,8.4-1.4,12.3-3.1
							c3.9-1.7,7.8-3.6,11.2-6.4c3.4-2.5,6.7-5.3,9.5-8.7c3.1-3.1,5.6-6.7,8.1-10.1c-5.6,7-11.8,13.7-18.8,18.8
							c-7,5-15.4,8.4-24.1,8.4c10.1-0.8,19.9-4.8,26.6-11.8c-0.8,0.3-1.4,0.8-2.2,1.1c-5.6,3.9-11.5,6.7-17.6,8.1
							c-2,0.6-3.6,1.4-5.6,1.7c-2.2,0.6-4.5,0.8-7,0.8c-2.5,0-4.8,0-7.3-0.6c-5-0.8-10.1-2.2-15.1-4.8c-9.8-4.5-18.5-11.8-26.3-19.3
							c-1.1-1.4-3.6-2.8-5.9-5c4.5,5.3,9.5,10.6,15.1,15.1c-2.2-2-3.9-3.9-5.6-5.9c5,4.5,8.7,8.4,14.6,11.8c-3.4-1.7-6.2-3.6-9-5.9
							c3.4,2.8,7,5.6,10.9,7.8c-4.2-1.7-7.6-4.5-10.6-7c-3.1-2.8-6.4-5.6-9.8-8.4c1.4,1.4,2.8,2.5,3.9,3.9c-1.4-1.4-2.8-2.5-4.2-3.9
							l0,0c-4.2-3.9-8.1-8.1-11.8-12c6.2,7.8,11.8,15.1,19.6,21.3c1.4,1.1,2.8,2,3.9,2.8c-1.4-0.8-2.8-2-3.9-2.8
							c-9.2-6.7-16.8-15.7-23-24.9c-6.4-9.5-11.5-19.6-15.7-30l-0.8-2c0,0.6,0,1.4,0,2C204.4,274.7,213.9,291.2,226.5,305.2z"/>
					</g>
				</g>
			</g>
		</g>
	</g>
</g>
<g>
	<g>
		<g>
			<g>
				<g opacity="0.8">
					<g opacity="0.8">
						<path fill="#FFFFFF" d="M264.6,206.9c29.4-0.6,60.5,3.6,85.4-0.6l1.1-0.3c0.3,0,1.1,0,1.7-0.3l3.6-0.3c2.2-0.3,5-0.6,7.6-0.6
							c-2.2-0.3-4.8-0.3-7.3-0.3c-9-0.6-17.9-1.1-27.2-1.7c-8.4-0.3-17.1-0.8-25.5-0.8c-17.1-0.3-34.4-0.3-51,0
							c-20.7,1.4-41.7,4.2-64.4,3.9c-2.5,0-2.8,1.7-3.1,2.5c2.2,1.1,4.2,2.2,5.9,3.6c18.5-0.8,37.2-2.5,56.3-2.5
							C253.7,209.7,260.7,206.9,264.6,206.9z"/>
						<polygon fill="#FFFFFF" points="190.4,212 190.7,212.2 193.5,212 						"/>
						<path fill="#FFFFFF" d="M236,209.4c6.2-0.6,12.3-0.6,18.5-0.6c3.9-0.8,7.6-2,10.1-2c29.4-0.6,60.5,3.6,85.4-0.6l1.1-0.3
							c0.3,0,1.1,0,1.7-0.3l3.4-0.3c2.2-0.3,5-0.6,7.3-0.6c-2.5-0.3-5.3-0.3-7.8-0.3l-3.6-0.3l-2.5-0.3l-4.2-0.3
							c-2.8-0.3-5.9-0.3-8.7-0.6c-5.9-0.3-11.8-0.6-17.6-0.8c-0.6,0-1.4,0.3-2,0.3c-6.7,1.1-12.6-0.3-19-0.6
							c-17.9,0.8-33-0.3-51,0.6c-6.4,0.3-13.2,2.2-20.7,2.2c-2.5,0-5,0-7.6-0.3c-10.1,0.8-20.2,1.4-30.8,1.1c-2.5,0-2.8,1.7-3.1,2.5
							c1.1,0.6,2.2,1.1,3.4,2c8.7,0.3,17.4,0.3,26,0.3c7.6-0.6,15.4-0.8,23-1.1C236.9,209.7,236.6,209.4,236,209.4z"/>
						<path fill="#FFFFFF" d="M236.9,212c1.1,0,2.5-1.1,0.6-2.2c-7.8,0.3-15.4,0.6-23,1.1C221.5,211.1,229,211.1,236.9,212z"/>
						<path fill="#FFFFFF" d="M235.5,218.1c15.1,0.8,29.7-1.4,42,0c6.4,0.8,12.9,2,18.5,3.6c2,0,4.2,0,6.2,0
							c12.9-0.3,25.8-0.6,38.4-0.8l9.5-0.3h1.1h0.3h0.6h1.4h0.6c0.3,0,0.6,0,0.6,0.3v1.1l-0.3,1.4l-0.6,2.8c-2.5,12.3-5,24.6-9,36.1
							c-3.9,11.5-9,22.4-16.2,31.1c-7,9-14.6,16.5-24.1,21.8c-4.8,2.8-9.8,5-15.4,6.4c-5.6,1.7-11.5,2.5-17.6,3.1
							c-7.3,0.3-13.7-1.4-19.6-3.9c-5.9-2.2-11.2-5.9-16.2-10.4c-12.6-10.9-22.1-24.1-30.2-38.9c-7.8-14.3-14.8-30.8-18.2-49.6
							c-1.7-10.1-8.7-11.2-8.7-8.7c0.8,8.4,2.2,16.5,4.2,24.4c1.7,7.8,3.9,15.7,6.4,23.5c5,15.4,11.8,30.2,22.1,43.4
							c5,6.4,11.2,12.3,17.9,17.1c7,4.8,14.6,8.4,23,10.6c8.1,2.2,16.8,2.8,24.9,2.5c8.4-0.3,16.8-1.7,24.6-4.8
							c12.6-4.5,23.5-12,32.2-21.6s14.6-20.4,19.6-31.6c4.8-11.2,8.1-23,11.5-34.2l2.2-8.4l1.1-4.2l0.6-2.2l0.3-1.1l0.3-1.7
							c1.1-4.5,2-9.2,2.5-14l0.6-3.6c0-0.6,0.3-1.4,0.3-1.7l-1.7-0.3l-6.7-0.6c-2.5,0-5,0.6-7.6,0.6l-3.6,0.3c-0.6,0-1.4,0-1.7,0.3
							l-1.1,0.3c-24.9,4.2-56,0-85.4,0.6c-3.9,0-10.6,2.8-17.1,2.8c-19,0-37.8,1.7-56.3,2.5c3.6,2.5,6.7,5.3,10.6,7
							C213.1,218.4,224.6,217.3,235.5,218.1z"/>
						<path fill="#FFFFFF" d="M235.5,218.1c-10.9-0.8-22.4,0-33.9,1.1c2,0.8,3.9,1.7,6.4,2.2c27.7,3.9,59.1,1.1,87.9,0.6
							c-5.6-1.7-12-3.1-18.5-3.6C265.2,216.7,250.9,219,235.5,218.1z"/>
						<path fill="#FFFFFF" d="M235.5,218.1c-10.6-0.8-21.3,0-32.2,1.1c3.6,0.3,7.3,0.6,11.2,0.8c19,0.6,38.4,0,57.1,1.7
							c-20.2,0-40.6-0.3-60.8,0.3c27.2,3.4,57.4,0.6,85.7,0c-5.6-1.7-12-3.1-18.5-3.6C265.2,216.7,250.9,219,235.5,218.1z"/>
						<path fill="#FFFFFF" d="M266.3,217.3c-22.7-1.1-45.6-1.7-68.9-0.3c1.1,0.6,2,1.4,3.1,2c0.8,0,2,0.3,2.8,0.3
							c10.9-0.8,21.8-1.7,32.2-1.1c15.1,0.8,29.7-1.4,42,0c6.4,0.8,12.9,2,18.5,3.6c2,0,3.9,0,5.9,0c13.2-0.3,26-0.6,39.2-0.8
							l9.8-0.3h2.8c1.4-0.6,0.8,0.8,0.8,1.7c-0.3,1.1,0,0.8-0.8,4.8c-1.1,11.2-3.1,22.7-6.7,33.6c-3.4,10.9-8.4,21.6-15.1,30.2
							c5.6-8.4,9.8-18.5,12.9-28.6c-3.9,11.2-9,21.8-15.7,30.5c-5.9,7.8-12,14.3-19.6,19.3c-0.3,1.1-1.1,2.5-2.2,3.6
							c-1.4,1.1-3.1,2.5-5.3,3.6c-7.6,3.6-16,5-24.9,6.7c-1.1,0-1.1-1.4-3.4-1.4c6.7,0,12.3-1.4,16.5-3.6
							c-5.6,1.7-11.5,2.8-17.6,3.1c-11.5,0.3-20.7-3.4-29.4-8.7l-2.8-1.4c-2.5-1.1-4.8-2.8-7.3-3.9c-2.2-1.7-4.8-3.1-7-4.8
							c1.7,1.7,3.4,3.4,5.3,4.8c-3.4-1.7-7-5-9.2-7.8c1.4,1.1,2.8,2.2,3.9,3.1c-3.9-3.9-7.3-8.1-10.4-13.2
							c3.9,6.2,9.5,11.2,14.3,14.6c-9.5-8.4-17.1-18.5-21.6-30.8l0.6,0.8c-9.5-16-17.4-34.2-21.6-54.9c-0.8-5-3.1-7.8-5-9
							c-2-1.1-3.6-0.8-3.6,0.6c1.4,11.8,3.6,22.7,6.4,33.9c2.8,10.9,6.4,21.6,11.2,31.9c4.8,10.4,10.6,20.2,18.2,28.8
							c7.6,8.7,17.1,16,28,20.7c-2.2-1.7-4.5-3.1-6.4-4.8l-3.6-2.2l-2.8-2.8c-1.7-1.4-3.1-3.1-4.5-4.8c1.4,1.7,2.8,3.4,4.5,4.8
							c4.5,4.2,10.9,7.3,16.8,10.1c1.1,0.8,4.8,2.2,6.7,1.4c8.7,3.4,19.9,2.8,28.8,3.1c0.6,0,1.4,0.3,2.5,0.6
							c5.9-0.8,11.5-2,17.1-4.2c7.8-2.8,15.1-6.7,21.6-11.8c6.4-5,11.8-10.9,16.5-17.4c9.2-12.9,15.1-27.2,19.6-41.4
							c-2.8,6.7-5.9,13.2-9.5,18.5c-2.5,3.6-5.3,9.8-9.2,16.2c-3.9,6.7-8.7,13.7-14.6,19c-2.8,2.8-5.6,3.4-8.7,5.3
							c4.8-5.3,10.1-10.4,15.1-16.5c5-5.9,9.8-12.9,12.9-19.9c4.2-9.2,8.7-20.7,12-32.8c1.7-6.2,3.1-12,4.5-18.2
							c1.1-5.9,2-12.6,2-17.6v-0.8v-0.3h-0.3c-0.6,0-1.1,0-1.7,0c-1.1,0-2.2,0-3.4,0c-2.2,0-4.2-0.3-6.2-0.3
							c-4.2-0.6-8.1-1.1-11.8-2c2.8-0.8,7.8-0.8,10.4-0.6c3.1,0,7,0,10.1,0.3l5,0.3h0.6c0.3,0,0,0.3,0,0.6l-0.3,1.4l-0.3,2.5
							c-0.6,3.4-1.1,6.7-1.7,10.1c-0.6,3.1-1.1,5.6-2,8.7c-2.5,11.2-5,22.4-8.7,33.6c4.8-11.2,7.6-22.7,10.4-34.2l1.1-4.2l0.6-2.2
							l0.6-2.8c0.8-3.9,1.4-7.8,2-11.8l0.6-3.1c-0.8-0.3-2-0.3-2.8-0.3c-2-0.3-3.9-0.3-5.9-0.6c-2,0-4.2-0.3-6.2-0.3h-1.7h-1.4
							l-2.2-0.3c2.2,0,4.2,0,6.4,0c2.5,0,5,0,7.6,0.3l3.6,0.3h1.7h0.8h0.6h0.3c0,0,0,0,0,0.3c-0.3,2.5-0.6,4.8-1.1,7.3
							c-0.3,2.2-0.8,4.8-1.1,7c-0.3,2-0.8,3.9-1.1,6.2c-0.6,3.4-1.1,6.7-1.4,10.1c0.6-1.1,1.1-2,1.7-3.1l1.7-6.7l0.6-1.7l0.6-2.5
							l1.1-5.6c0.6-3.6,1.1-7.3,1.7-11.2l0.3-1.4v-0.8h-0.6l-2.5-0.3L364,205c-2.5,0-5,0.6-7.3,0.6l-3.4,0.3c-0.6,0-1.4,0-1.7,0.3
							l-1.1,0.3c-24.9,4.2-56,0-85.4,0.6c-2.5,0-6.2,1.1-10.1,2c9.5,0.3,19,0.8,28.6,0.8c-3.9-0.6-7.6-1.1-10.9-2
							c9-0.3,16.2,1.7,25.2,1.4c-4.8,0.3-9.5,0.6-14.3,0.6c5.6,0.6,11.8,0.8,17.9,1.4c-11.8,1.4-22.4-2.2-34.2,0c2.5,0,5,0,7.6,0.3
							c-2.5,0-5,0-7.6-0.3h0.3c-7.6,0-15.1,0.8-22.1,1.7c13.2,0,24.9,1.7,37.8,1.7c2.2,0,4.2-0.3,6.4-0.3c-2.2,0-4.2,0.3-6.4,0.3
							c-29.7,0.8-59.1-1.4-88.8-2.2l-2.8,0.3c0.8,0.6,1.7,1.1,2.5,1.7C217.6,214.5,242.5,215.6,266.3,217.3z"/>
					</g>
				</g>
			</g>
		</g>
	</g>
</g>
<g>
	<g>
		<g>
			<g>
				<g opacity="0.8">
					<g opacity="0.8">
						<path fill="#FFFFFF" d="M362.3,339.1c-14,0.6-28.8-3.6-40.6,0.6c-1.4,0.3-2.8,0.8-3.9,1.4c0.6,0,1.4,0.3,2,0.3
							c15.4,2.5,32.5,3.4,48.4,2.2c9.8-1.4,19.9-4.2,30.8-3.9c1.1,0,1.4-1.7,1.4-2.5c-1.1-1.1-2-2.2-2.8-3.6
							c-9,0.8-17.6,2.5-26.9,2.5C367.6,336.3,364.3,339.1,362.3,339.1z"/>
						<path fill="#FFFFFF" d="M397.6,334C397.6,334,397.6,333.8,397.6,334c-0.6-0.3-1.1-0.3-1.4,0C396.8,334,397.3,334,397.6,334z"
							/>
						<path fill="#FFFFFF" d="M376,336.6c-3.1,0.6-5.9,0.6-8.7,0.6c-2,0.8-3.6,2-4.8,2c-14,0.6-28.8-3.6-40.6,0.6
							c-1.4,0.3-2.5,0.8-3.9,1.4c0.8,0,1.4,0.3,2.2,0.3c5.3,0.8,10.9,1.7,16.5,2c0.3,0,0.6-0.3,0.8-0.3c3.1-1.1,6.2,0.3,9,0.6
							c8.7-0.8,15.7,0.3,24.4-0.6c3.1-0.3,6.2-2.2,9.8-2.2c1.1,0,2.5,0,3.6,0.3c4.8-0.8,9.5-1.4,14.6-1.1c1.1,0,1.4-1.7,1.4-2.5
							c-0.6-0.6-1.1-1.1-1.7-2c-4.2-0.3-8.1-0.3-12.3-0.3c-3.6,0.6-7.3,0.8-10.9,1.1C375.5,336.3,375.8,336.6,376,336.6z"/>
						<path fill="#FFFFFF" d="M375.8,334c-0.6,0-1.1,1.1-0.3,2.2c3.6-0.3,7.3-0.6,10.9-1.1C382.8,334.9,379.4,334.9,375.8,334z"/>
						<path fill="#FFFFFF" d="M376.3,327.9c-7.3-0.8-14,1.4-19.9,0c-3.1-0.8-6.2-2-9-3.6c-1.1,0-2,0-3.1,0c-24.4,1.4-48.7,2-72.8,0
							c-12-0.6-23.2,2.5-35.6,4.5c-7.3,0.6-13.2-1.4-20.4-2.8c-17.9-3.6-33.3,3.9-51.5,6.4c-5,0.6-5.6,7.6-4.5,7.8
							c30.5-2.8,59.4,0.3,89.9-1.7c23.8-1.4,45.9-0.3,68,3.1c1.4-0.6,2.8-0.8,3.9-1.4c12-4.2,26.6,0,40.6-0.6c1.7,0,5-2.8,8.1-2.8
							c9.2,0,17.9-1.7,26.9-2.5c-1.7-2.5-3.4-5.3-5-7C387,327.6,381.4,328.7,376.3,327.9z"/>
						<path fill="#FFFFFF" d="M376.3,327.9c5.3,0.8,10.6,0,16.2-1.1c-0.8-0.8-2-1.7-3.1-2.2c-13.2-3.9-28-1.1-42-0.6
							c2.8,1.7,5.6,3.1,9,3.6C362,329.3,369,327,376.3,327.9z"/>
						<path fill="#FFFFFF" d="M376.3,327.9c5,0.8,10.1,0,15.4-1.1c-1.7-0.3-3.6-0.6-5.3-0.8c-9-0.6-18.2,0-27.2-1.7
							c9.5,0,19.3,0.3,28.8-0.3c-12.9-3.4-27.4-0.6-40.6,0c2.8,1.7,5.6,3.1,8.7,3.6C362,329.3,369,327,376.3,327.9z"/>
						<path fill="#FFFFFF" d="M361.5,328.7c10.9,0.8,21.8,1.4,32.8,0.3c-0.6-0.6-0.8-1.4-1.4-2c-0.6,0-0.8-0.3-1.4-0.3
							c-5,0.8-10.4,1.7-15.4,1.1c-7.3-0.8-14,1.4-19.9,0c-3.1-0.8-6.2-2-8.7-3.6c-0.8,0-2,0-2.8,0c-12.6,0.8-24.9,1.1-37.2,1.4
							c-10.6,2.2-22.4,1.7-33.9,0c5.3,0,10.6,0,16-0.3c-5.9-0.3-11.8-0.6-17.6-1.1c-5-0.3-10.1,0.3-15.1,0.8
							c-1.1,1.7-2.5,3.1-5.3,3.4c-4.2,0.6-8.4,0.6-12.9,2c-0.6,0-0.6-1.4-1.7-1.4c3.4,0.3,6.2-0.8,8.7-2.2c-3.1,0.6-5.9,1.1-9.2,1.7
							c-5.9,0.3-10.6-0.8-16-2c-0.6,0-1.1,0-1.7,0.3c-2.8,0.3-5.6,0.8-8.7,1.7c1.1,0,2.2,0,3.6,0.3c-2,0.8-4.2,0.6-6.2,0.6
							c0.8-0.3,1.7-0.6,2.5-0.8c-2.8,0-5.6-0.3-8.4-0.3c3.6,0.3,7.3-0.6,10.4-1.1c-6.7,0-12.9,0.6-19.3-0.6c0.3,0,0.3-0.3,0.6-0.3
							c-9.2,1.7-18.5,4.5-28.8,5.9c-5,0.6-5.6,7.6-4.5,7.8c21.3-2,42-1.1,62.7-1.1c-2.2-0.8-4.8-2-7-2.8c-1.1-0.3-2-0.6-3.1-1.1
							c1.1,0.3,2,0.8,3.1,1.1c2.8,0.6,5.9,0.6,9,1.4c0.6,0.6,2.2,0.6,3.1-0.8c4.2,1.1,9.2,0,13.2,1.1c0.3,0,0.6,0.3,1.1,0.8
							c2.5,0,5.3-0.3,7.8-0.3c14.8-0.8,29.1-0.8,43.1,0.3c-3.4-0.8-6.7-1.7-9.5-3.1c-4.2-2-12.6-0.3-20.2,0.3
							c-2,0.3-2.8-1.1-4.8-1.1c6.4-3.6,14.6-1.1,22.1-1.7c9.8-0.3,23.5,2.8,33.9,0.3c4.5-1.1,8.4,0.3,12,2c-1.4,0.8-3.6,0.8-5,0.6
							c-10.9-0.6-21.8-1.1-32.8-0.8c11.5,2,22.4,1.1,33.6,3.4c-6.7,0-13.2-2-19.3,0c0.6,0.3,1.1,0.6,1.7,0.8
							c4.5,0.6,8.7,1.1,13.2,1.7c1.4-0.6,2.8-0.8,3.9-1.4c12-4.2,26.6,0,40.6-0.6c1.1,0,2.8-1.1,4.8-2c-4.5-0.3-9-0.8-13.4-0.8
							c1.7,0.6,3.6,1.1,5,2c-4.2,0.3-7.8-1.7-12-1.4c2.2-0.3,4.5-0.6,6.7-0.6c-2.8-0.6-5.6-0.8-8.4-1.4c5.6-1.4,10.6,2.2,16.2,0
							c-1.1,0-2.2,0-3.6-0.3c1.1,0,2.5,0,3.6,0.3l0,0c3.6,0,7.3-0.8,10.6-1.7c-6.2,0-12-1.7-17.9-1.7c-1.1,0-2,0-3.1,0.3
							c1.1,0,2-0.3,3.1-0.3c14-0.8,28.3,1.4,42.3,2.2c0.6,0,0.8,0,1.4-0.3c-0.3-0.6-0.8-1.1-1.1-1.7
							C384.7,331.5,373,330.4,361.5,328.7z"/>
					</g>
				</g>
			</g>
		</g>
	</g>
</g>
<g>
	<path fill="#FFFFFF" d="M317.2,350.8h-82.9c-4.5,0-8.4-3.9-8.4-8.4v-8.7c0-4.5,3.9-8.4,8.4-8.4h83.2c4.5,0,8.4,3.9,8.4,8.4v8.7
		C325.6,347.2,322,350.8,317.2,350.8z"/>
	<g>
		<g>
			<g>
				<g opacity="0.8">
					<g opacity="0.8">
						<path fill="#FFFFFF" d="M315,328.4c-13.7,0.3-28.3-1.7-40,0.3c-1.4,0.3-2.5,0.6-3.9,0.6l2,0.3c7.6,0.6,15.7,1.1,23.5,1.1
							c3.9,0,8.1,0.3,12,0c2,0,3.9,0,5.9,0h2.8c0.3,0,0.8,0,1.1,0.3c0.8,0.3,1.7,0.8,2.2,1.7c0,0.3,0.3,0.6,0.3,0.8s0,0.3,0,0.6v0.8
							l0.3,3.6l0.3,3.6c0,0.8,0,1.4-0.3,2.2c-0.6,1.4-2,2.5-3.4,2.8c-0.6,0-0.8,0.8-0.8,1.4c0.8,0.6,1.7,1.1,2.8,1.4
							c2-0.8,3.4-2.5,4.2-4.2c0.3-0.8,0.6-2,0.6-2.8l-0.3-3.4c0-2.2-0.3-4.2-0.3-6.4c-0.3-1.7-1.1-3.4-2.5-4.8
							c-0.8-0.8-2.2-1.1-3.4-0.8C317.5,328.2,315.8,328.4,315,328.4z"/>
						<path fill="#FFFFFF" d="M319.8,350L319.8,350c0.6,0,0.8-0.3,1.4-0.6C320.6,349.7,320.3,350,319.8,350z"/>
						<path fill="#FFFFFF" d="M323.7,332.4c-0.8-2.2-2.5-3.9-4.5-4.5c-0.8,0-1.4,0.3-2,0.3c-0.8,0.3-1.4,0.3-2,0.3
							c-13.7,0.3-28.3-1.7-40,0.3c-1.4,0.3-2.5,0.6-3.9,0.6l2.2,0.3c5.3,0.6,10.6,0.8,16.2,1.1c0.3,0,0.6,0,0.8,0
							c3.1-0.6,5.9,0.3,9,0.3c4.2-0.3,8.1-0.3,12-0.3c2,0,3.9,0,5.9,0c0.8,0,1.7,0.3,2.5,0.6c0.6,0.3,1.1,0.8,1.7,1.4
							c0.3,0.3,0.6,0.8,0.6,1.1c0,0.8,0,1.7,0,2.5c0,1.1,0,2.5,0,3.6l0.3,3.1c0,0.6-0.3,1.4-0.6,2c-0.6,1.4-2,2.2-3.4,2.5
							c-0.6,0-0.8,0.8-0.8,1.4c0.3,0.3,0.8,0.6,1.4,0.8c3.6-0.6,6.4-3.9,6.2-7.6l-0.3-5.3V334c0-0.8-0.3-1.4-0.6-2.2
							C324,331.8,323.7,332.1,323.7,332.4z"/>
						<path fill="#FFFFFF" d="M325.1,331.5c-0.3-0.6-0.8-0.8-1.1,0.3c0.3,0.8,0.3,1.4,0.6,2.2v2.8l0.3,5.3c0-1.7,0-3.4,0.3-5.3
							C325.1,334.9,325.4,333.2,325.1,331.5z"/>
						<path fill="#FFFFFF" d="M328.2,331.5c-0.8-4.8-5.3-8.1-9.5-8.4c-1.1,0-2,0-2.8,0c-0.8,0-1.7,0-2.2,0c-1.7,0-3.1,0-4.5-0.3
							c-3.1-0.3-6.2-1.1-8.7-2c-0.8,0-2,0-2.8,0c-12,0.3-23.8,0.6-35.8,0.6c-5.9,0-11.8,0-17.9,0l-9-0.3h-0.6h-0.8
							c-0.6,0-1.1,0-1.7,0.3c-1.1,0.3-2.2,0.6-3.4,1.1c-2,0.8-3.9,2.5-5,4.2c-1.4,2-2,4.2-2.2,6.4v0.8v0.6v1.1v2.2
							c0,1.4,0.3,2.8,0.3,4.2v1.4c0,0.6,0.3,1.1,0.3,1.7c0.3,1.1,0.6,2,1.1,3.1c2,3.6,6.2,6.2,10.1,6.2c1.1,0,1.7,0,2.5-0.3l2.2-0.3
							c1.4,0,3.1-0.3,4.5-0.3c7.3-0.3,12.9,0.8,19.9,1.4c17.6,1.7,32.8-2,50.7-3.1c4.8-0.3,5.3-3.9,4.2-3.9
							c-15.1,0.8-29.7,0.6-44.2,0.6c-7.3,0-14.6,0-21.8,0c-3.6,0-7.3,0-10.9,0c-2,0-3.6,0-5.6,0c-1.4,0-2.8-0.3-3.9-1.1
							c-0.8-0.6-1.7-1.4-2-2.2c-0.3-0.6-0.3-0.8-0.6-1.4c0-0.6,0-0.8,0-1.7c0-2.8,0-5.9,0-8.4c0-2.2,1.4-4.2,3.4-5
							c0.8-0.6,2-0.8,3.1-0.6h4.2c11.2,0.3,21.8,0.8,32.8,1.7c1.4-0.3,2.8-0.6,3.9-0.6c11.8-2.2,26,0,40-0.3c0.8,0,2.2-0.3,3.1-0.6
							c1.1-0.3,2.5,0,3.4,0.8c1.4,1.1,2.5,2.8,2.5,4.8c0,2.2,0.3,4.2,0.3,6.4l0.3,3.4c0,0.8-0.3,2-0.6,2.8c-0.8,2-2.2,3.4-4.2,4.2
							c2,0.6,4.5,0.6,6.7-0.8c1.1-1.7,1.7-3.4,1.7-5c0-2,0-3.1,0-4.5s0-2.5,0-3.9v-2C328.4,333.2,328.2,332.4,328.2,331.5z"/>
						<path fill="#FFFFFF" d="M328.2,331.5c0.3,0.8,0.3,1.7,0.3,2.5v2c0,1.4,0,2.5,0,3.9c0,1.4,0.3,2.5,0,4.5
							c-0.3,1.7-0.8,3.6-1.7,5c1.1-0.8,2.2-1.7,2.8-3.4c0.6-1.1,0.6-2.5,0.8-3.6c0-0.8,0.3-1.7,0.3-2.5c0.3-1.7,0.3-3.4,0.3-5
							c0-0.6,0-2.2-0.3-3.6s-0.8-2.8-1.4-3.9c-1.4-2.5-3.6-4.5-6.2-5.6c-1.4-0.6-2.8-1.1-4.2-1.1c-0.6,0-1.4,0-2,0h-1.4l-5.3,0.3
							c-3.4,0.3-7,0.3-10.4,0.3c2.5,0.8,5.6,1.4,8.7,2c1.4,0.3,3.1,0.3,4.5,0.3c0.8,0,1.7,0,2.2,0c0.8,0,1.7,0,2.8,0
							C322.8,323.4,327.3,326.8,328.2,331.5z"/>
						<path fill="#FFFFFF" d="M328.2,331.5c0.3,0.8,0.3,1.7,0.3,2.5v2c0,1.1,0,2.5,0,3.6c0,0.6,0,1.1,0,2c0,0.6,0,1.1,0,2.2
							c0,1.7-0.6,3.4-1.4,5c0.6-0.8,1.1-2,1.7-3.4c0.3-0.6,0.3-1.1,0.3-1.7V343v-0.6v-6.7c0-0.6,0-0.8,0-2c0-0.8,0-1.7-0.3-2.5
							c-0.3-1.7-1.1-3.1-2-4.5c-2-2.5-4.8-4.5-8.1-5c-2-0.3-2.8-0.3-3.9-0.3c-1.1,0-2.2-0.3-3.4-0.3h3.6h1.7c0.8,0,1.7,0,2.5,0.3
							c3.6,0.8,6.7,3.1,8.7,6.2c0.8,1.7,1.4,3.4,1.7,5v1.4v0.8v1.7v3.6c0,1.4,0,2,0,4.2c0.3-0.6,0.3-1.1,0.3-1.7v-1.1
							c0-0.8,0.3-1.7,0.3-2.5c0-1.7,0.3-3.4,0.3-5c0.3-5.6-3.4-10.9-8.7-12.9c-1.4-0.6-2.8-0.8-3.9-0.8h-1.1h-0.6h-1.4l-5,0.3
							c-3.4,0-6.7,0.3-10.1,0.3c2.5,0.8,5.6,1.4,8.7,2c1.4,0.3,3.1,0.3,4.5,0.3c0.8,0,1.7,0,2.2,0c0.8,0,1.7,0,2.8,0
							C322.8,323.4,327.3,326.8,328.2,331.5z"/>
						<path fill="#FFFFFF" d="M314.2,323.4h2h1.1h1.1c1.7,0.3,3.1,0.8,4.5,1.7c2.8,2,4.5,5,4.5,8.1c0,2.8,0,5.3,0,8.1
							c0,0.6,0,1.4,0,2.2c0,0.8-0.3,1.7-0.6,2.5c-0.6,1.7-1.4,3.1-2.8,4.2c0.6,0,1.4-0.3,2-0.6c0.6-0.6,0.8-0.8,1.1-1.4
							c0.8-1.7,1.1-3.4,1.4-5c0-0.8,0-1.4,0-2.2c0-0.6,0-1.4,0-2c0-1.1,0-2.5,0-3.6v-2c0-0.8,0-1.7-0.3-2.5
							c-0.8-4.8-5.3-8.1-9.5-8.4c-1.1,0-2,0-2.8,0c-0.8,0-1.7,0-2.2,0c-1.7,0-3.1,0-4.5-0.3c-3.1-0.3-6.2-1.1-8.7-2
							c-0.8,0-2,0-2.8,0c-12.3,0.3-24.4,0.6-36.7,0.6c-5.3,0.6-10.9,0.8-16.5,0.8c-2.8,0-5.6,0-8.4-0.3h-2.2c-1.1,0-2,0-3.1,0.3
							c-2,0.6-3.9,1.4-5.3,2.8c1.4-1.4,3.1-2.2,4.8-2.8c0.8-0.3,2-0.6,2.8-0.6h0.8h0.6h1.1c2.5,0,5.3,0,7.8-0.3l-8.7-0.3
							c-0.6,0-2,0-3.1,0.3c-1.1,0.3-2.2,0.6-3.1,0.8c-2,0.8-3.9,2.2-5,4.2c-1.1,1.7-2,3.4-2.2,5.3c0,0.6-0.3,0.8-0.3,1.4v0.8v0.6v2
							c0,1.1,0,2.5,0.3,3.6v2v0.8c0,0.6,0,0.8,0.3,1.4c1.1,1.4,2,3.4,4.5,5.9c2,2,4.5,3.1,7.3,3.1c2.5,0,4.2-0.3,6.4-0.6
							c0.6,0,0.6,0.6,1.7,0.8c-1.7,0-3.1,0-4.5,0.3c-0.6,0-1.4,0.3-2,0.3c-0.3,0-0.6,0.3-0.8,0.3c-0.3,0-0.8,0-1.1,0.3
							c0.6,0,1.1,0,1.4,0h1.1l2.2-0.3c1.4,0,3.1-0.3,4.5-0.3c5.6-0.3,10.4,0.3,15.7,0.8h1.7c2.8,0,5.6-0.6,8.4-0.8
							c-1.1,0-2.2,0-3.6,0c2-0.3,4.2-0.3,5.9-0.3c-0.8,0-1.7,0.3-2.5,0.3c2.8,0,5.3,0,8.4,0.3c-3.6,0-7.3,0.3-10.4,0.6
							c6.4,0,12.6-0.3,19,0.3h-0.6c9.2-0.8,18.2-2.2,28.3-3.1c4.8-0.3,5.6-3.9,4.2-3.9c-21,1.1-41.2,0.6-61.6,0.6
							c2.2,0.6,4.8,0.8,7,1.4c1.1,0,2,0.3,2.8,0.6c-0.8-0.3-2-0.3-2.8-0.6c-2.8-0.3-5.9-0.3-8.7-0.6c-0.6-0.3-2.2-0.3-3.1,0.3
							c-4.2-0.6-9,0-12.9-0.6c-0.3,0-0.6-0.3-1.1-0.6h-2c-0.6,0-0.8,0-1.4,0c-0.8,0-1.7-0.6-2.5-1.1c-1.1-0.8-2-2-2.2-3.1
							c-0.3-0.6-0.3-1.1-0.3-2v-2.8c0-1.7,0-3.6,0-5.3c0-1.4,0.3-2.8,1.1-3.9c0.8-1.1,2-2,3.1-2.2c0.6-0.3,1.1-0.3,2-0.3h2.5
							c3.4,0,7,0.3,10.4,0.3c-3.4-0.6-6.4-0.8-9.5-1.4c-2-0.3-5.3-1.1-7.8,1.1c-1.4,1.1-2.2,2.5-2.5,4.2c-0.3,0.8-0.3,1.7,0,2.5
							c0,0.8,0,2,0,2.8c0.3,1.7-0.6,2.8-0.6,4.8c-0.6-1.7-0.8-3.4-0.8-5c0-1.7-0.3-3.6,0.3-5.6s2-3.4,3.6-4.5
							c1.7-1.1,3.6-1.4,5.3-1.4c9.5-0.3,23,1.4,33.3,0.3c4.2-0.6,8.4,0.3,11.8,0.8c-1.4,0.3-3.6,0.3-4.8,0.3
							c-10.6-0.3-21.3-0.6-32.2-0.3c11.2,0.8,21.8,0.6,33,1.7c-6.4,0-12.9-1.1-19,0c0.6,0.3,1.1,0.3,1.7,0.6
							c4.2,0.3,8.7,0.6,12.9,0.8c1.4-0.3,2.5-0.6,3.9-0.6c11.8-2.2,26,0,40-0.3c0.6,0,1.4,0,2-0.3c0.6-0.3,1.1-0.3,2-0.3
							c-0.8-0.3-1.4-0.3-2.8-0.3h-3.4c-2.2,0-4.5-0.3-6.7-0.3c1.7,0.3,3.4,0.6,5,1.1c-4.2,0-7.6-0.8-11.8-0.8
							c2.2-0.3,4.5-0.3,6.7-0.3c-2.8-0.3-5.6-0.6-8.4-0.6c5.6-0.8,10.4,1.1,16,0c-1.1,0-2.2,0-3.4,0h3.6l0,0c1.7,0,3.6-0.3,5,0
							c1.7,0.3,3.1,1.1,4.2,2c-1.1-1.1-2.2-2-3.6-2.5c-1.4-0.6-2.8-0.6-4.5-0.8c-2.8-0.3-5.9-0.6-8.7-0.6h-3.1c1.1,0,2,0,3.1,0
							c3.4,0,7,0,10.4,0c3.9,0,7.3,2.5,8.4,6.2c0.6,1.7,0.3,3.6,0.3,5.3l-0.3,5c0.3,3.4-1.7,7-4.8,8.4c-0.3,0.3-0.8,0.3-1.1,0.6
							c0.6,0.3,0.8,0.3,1.4,0.3c2.8-1.4,4.8-4.2,5-7.3c0-2.8,0.3-5.9,0.3-8.7c0.3-3.1-0.8-6.7-3.6-8.7c-1.4-1.1-2.8-2-4.5-2.2
							c-0.6,0-0.8,0-1.4-0.3h-1.1L314.2,323.4z"/>
					</g>
				</g>
			</g>
		</g>
	</g>
</g>
<g>
	<g>
		<g>
			<g>
				<g opacity="0.8">
					<g opacity="0.8">
						<path fill="#FFFFFF" d="M359.8,270.5c0,0.8-0.6,2-1.1,3.4c-0.6,1.4-1.4,2.8-2,4.5v0.3c0,0,0,0,0.3,0h0.3c0.3,0,0.6,0,0.8-0.3
							c0.6,0,1.1-0.3,2-0.8c1.4-0.6,2.8-1.7,3.9-3.4c0.6-0.6,0.8-1.4,1.1-2l-0.3-0.3c-0.8-1.1-0.3-2.2,0.6-3.1c0.6-0.6,0.3,0,0-0.3
							c-0.3,0-0.3,0-0.6-0.3l0,0v-0.6v-1.4c0-1.7,0-3.4,0-5c0-3.4,0.3-7,1.7-10.4c0.3-0.8-1.4-1.4-2.2-1.7c-1.4,0.3-2.5,0.6-3.9,0.8
							c-0.3,2.8-0.6,5.9-0.8,9c-0.3,1.4-0.3,3.1-0.6,4.5c-0.3,1.4-0.6,3.1-0.8,3.9c-0.3,0.6,0.3,1.4,0.8,2
							C359.2,270.2,359.8,270.2,359.8,270.5z"/>
						<polygon fill="#FFFFFF" points="360.1,250.3 359.8,250.3 359.8,251.4 						"/>
						<path fill="#FFFFFF" d="M358.7,264.9c0,0.6,0,1.1,0,1.4s0,0.8-0.3,1.1c0,0.6-0.3,1.1-0.6,1.7c0.6,0.8,1.7,0.8,1.7,1.4
							c0,0.8-0.6,2-1.1,3.4c-0.6,1.4-1.4,2.8-2,4.5v0.3c0,0,0,0,0.3,0h0.3c0.3,0,0.6,0,0.8-0.3c0.6,0,1.1-0.3,2-0.8
							c1.4-0.6,2.8-1.7,3.9-3.4c0.6-0.6,0.8-1.4,1.1-2l-0.3-0.3c-0.6-0.8-0.3-1.7,0-2.2l-0.3,0.6c-2,2,0.3-0.6,0.6-0.8
							c-0.6,0.3-0.3,0-0.3-0.3c0.3-0.3,0.3-0.3,0-0.6c0,0,0,0-0.3,0c0,0-0.3,0-0.3-0.3c0-0.6-0.3-1.1-0.3-1.7
							c-0.3-1.1-0.3-2.5,0-3.6c0.3-0.8,0.6-1.4,0.8-2.2c0-3.1,0.6-6.4,1.7-9.5c0.3-0.8-1.4-1.4-2.2-1.7c-0.6,0.3-1.4,0.3-2,0.6
							c-1.1,2.5-1.7,5-2.5,7.8c-0.3,2.5-0.6,4.8-0.8,7.3C358.4,265.2,358.7,264.9,358.7,264.9z"/>
						<path fill="#FFFFFF" d="M356.2,264.3c0,0.3,1.1,1.1,2.2,0.8c0.6-2.5,0.6-4.8,0.8-7.3C358.4,260.1,357.6,262.4,356.2,264.3z"/>
						<path fill="#FFFFFF" d="M350.3,262.4c-0.8,1.7-1.7,5.9-2.2,8.7c-0.6,3.1-1.1,5.9-2.8,9c-1.4,3.1-3.6,7-6.4,11.8
							c-0.3,1.1-0.3,2-0.6,3.1l-0.3,2.2c0,0.6-0.6,2,0.8,1.1l5-1.7c3.1-1.1,6.4-2,9.5-3.1c3.1-1.1,6.4-2.2,9.5-3.4s6.4-2.5,9.2-3.9
							c1.7-0.8,2.5-1.1,3.4-1.7c0.8-0.6,2-0.8,2.8-1.4c2-0.8,3.9-2,5.9-3.1c2-1.1,3.9-2.2,5.9-3.9c1.1-0.8,2.2-1.7,3.1-2.5l2.8-2.8
							c3.4-3.9,4.8-9,5.3-13.7c0.3-4.8-0.3-9.8-2.2-14.6c-0.8-2.8-1.4-5.6-2.8-8.4c-0.6-1.4-1.4-2.8-2.5-4.2c-0.6-0.6-1.1-1.4-1.7-2
							c-0.6-0.6-1.4-1.1-2-1.7c-3.6-2.8-7.8-3.6-11.5-3.6c-3.9,0-8.1,1.4-11.2,3.9s-5,5.9-6.4,9c-1.1,3.1-1.7,6.4-2.2,9.5
							c-0.6,3.6,6.7,5,6.7,4.5c0-1.7,0.6-3.9,1.1-5.6c0.8-2,1.7-3.4,3.1-4.8c1.1-1.1,2.5-2.2,4.2-2.5c1.7-0.3,3.1-0.6,5.3-0.3
							c3.9,0.3,6.4,2,8.1,4.2c1.4,2.5,2.2,6.4,2,10.6c-0.6,6.7-4.2,13.2-9.5,16.2c-2.8,1.7-5.9,3.4-9.2,4.2c-3.9,1.4-5,1.1-5.9,0.3
							c-0.3,0.6-0.8,1.4-1.1,2c-1.1,1.7-2.8,2.8-3.9,3.4c-0.6,0.3-1.4,0.6-2,0.8c-0.3,0-0.6,0-0.8,0.3h-0.3c0,0,0,0-0.3,0V278
							c0.6-1.7,1.4-3.1,2-4.5c0.6-1.4,1.1-2.2,1.1-3.4c0-0.3-0.6-0.6-1.1-0.8c-0.6-0.6-1.1-1.1-0.8-2c0.3-0.8,0.6-2.5,0.8-3.9
							c0.3-1.4,0.3-3.1,0.6-4.5c0.3-3.1,0.6-5.9,0.8-9c-2.8,0.6-5.6,0.6-7.8,1.4C352.2,255.6,352,259.3,350.3,262.4z"/>
						<path fill="#FFFFFF" d="M350.3,262.4c1.7-3.1,1.7-6.7,1.7-10.4c-1.1,0.3-2,0.8-2.8,1.4c-1.4,2-2.8,3.9-3.6,5.9
							c-0.6,1.1-0.8,2.2-1.1,3.4l-0.8,2.5c-0.3,1.1-0.6,2.2-0.8,3.4c-1.1,4.5-2,9-2.8,12.9c0,0.6-0.3,1.1-0.3,1.4v1.4
							c0,0.8-0.3,1.7-0.3,2.5c-0.3,1.7-0.3,3.4-0.6,5c2.8-4.8,4.8-8.4,6.4-11.8c1.7-3.4,2.2-5.9,2.8-9
							C348.6,268.2,349.4,264,350.3,262.4z"/>
						<path fill="#FFFFFF" d="M350.3,262.4c1.7-3.1,1.7-6.4,1.7-10.1c-0.6,1.1-1.1,2-1.7,3.1c-1.1,2.8-1.7,5.6-2.8,8.4
							c-1.4,4.8-3.1,9.5-5.6,15.1l4.5-16.2c0.8-3.1,1.7-6.2,2.2-9.2c-1.4,1.7-2.5,3.9-3.1,5.9c-0.3,1.1-0.8,2.2-1.1,3.1l-0.8,3.1
							c-0.3,1.1-0.6,2.2-0.8,3.4c-1.1,4.2-2,8.4-2.8,12.6c-0.3,1.1-0.3,2-0.3,2.8s-0.3,1.7-0.3,2.5c-0.3,1.7-0.3,3.4-0.6,5
							c2.8-4.5,4.8-8.4,6.4-11.8c1.7-3.4,2.2-5.9,2.8-9C348.6,268.2,349.4,264,350.3,262.4z"/>
						<path fill="#FFFFFF" d="M348,274.7c2-4.8,3.6-10.1,4.5-12.9c1.1-3.4,1.7-7,2.2-10.6c-0.8,0-1.4,0.3-2,0.3
							c-0.3,0.3-0.3,0.6-0.6,0.8c0,3.6,0,7-1.7,10.1c-0.8,1.7-1.7,5.9-2.2,8.7c-0.6,3.1-1.1,5.9-2.8,9c-1.4,3.1-3.6,7-6.4,11.8
							c-0.3,0.8-0.3,2-0.6,2.8l-0.3,2.2l-0.3,1.1v0.3v0.3l0.6-0.3l5-1.7c3.4-1.1,6.4-2,9.8-3.1c3.1-1.1,6.4-2.2,9.8-3.4
							c3.4-1.4,6.4-2.5,9.5-3.9l0.8-0.6l0.6-0.6c0.3-0.3,0.8-0.6,1.1-0.8c0.8-0.6,1.7-1.1,2.5-1.7c1.7-1.1,3.4-2.2,5-3.4
							s3.6-2.2,5.3-3.4c2-1.4,3.9-2.8,5.6-4.5c-1.4,1.7-3.1,3.4-4.8,5c-1.7,1.4-3.1,2.5-4.8,3.9c2-1.1,3.6-2.2,5.9-3.6
							c1.1-0.8,2.2-1.7,3.1-2.5l2.8-2.8c2.8-3.4,4.5-7.3,5-11.5c-1.1-1.4-2.2-3.1-2.2-5c0-3.4,0.6-6.7-1.4-9.8
							c0-0.6,1.4-0.6,1.4-1.4c0,1.4,0.3,2.5,0.8,3.6c0.3,1.1,0.8,2.2,1.4,3.1c-0.3-1.1-0.6-2.5-0.8-3.6L399,243
							c-1.1-4.5-2-9-5.3-13.2l-1.4-0.8c-2.5-1.4-5.3-1.7-7.8-1.4c0.8,0.3,2,0.6,2.8,1.1c-1.7,0.3-3.6-0.3-5-0.8
							c0.6-0.3,1.4-0.3,2.2-0.3c-1.1-0.3-2.2-0.8-3.4-0.8c-1.1-0.3-2.2-0.3-3.4-0.6c1.4,0.3,2.8,0.3,4.2,0c1.4,0,3.1,0,4.5,0
							c-1.4-0.3-2.8-0.8-4.2-0.8s-2.5,0-3.9-0.3c-1.4,0-2.8,0-4.2,0c-1.4,0.3-3.1,0.3-4.5,0.6l0.3-0.3c-3.9,2.2-6.7,5.9-8.1,9.5
							c-1.4,3.6-2.2,7-2.8,10.6c-0.3,1.7,1.4,3.1,3.1,3.9c0.8,0.3,1.7,0.6,2.5,0.6c0.6,0,1.1,0,1.1,0c0-2.5,1.1-5.6,2.2-7.8
							c1.4-2.2,3.1-3.9,5.3-4.8c2-0.8,4.5-0.8,7.3-0.6c2.5,0.6,4.5,1.4,5.9,2.8c0-1.1-0.3-2.8-1.1-4.2c-0.3-0.6-0.8-1.1-1.1-1.7
							c0.6,0.6,0.8,1.1,1.1,1.7c0.6,0.6,1.1,1.1,1.7,1.7c0.6,0.6,1.1,1.1,1.1,2c-0.3,0.6,0.3,1.1,1.4,0.8c0,1.1,0.6,2.2,0.6,3.4
							c0.3,1.1,0.3,2.5,0,3.6c0,0-0.3,0.3-0.8,0.6v2v2.2c-0.3,4.2-2,8.1-4.5,11.5c-0.6,0.8-1.4,1.4-2,2.2c-0.8,0.6-1.4,1.1-2.2,2
							c-1.7,1.1-3.6,2.2-5.6,3.1c2.2-0.3,4.5-0.6,6.7-0.8c0.8,0,1.7-0.3,2.2-0.8c0.8-0.6,1.4-1.4,2-2.2c0.3-0.6,0.6-0.8,0.8-1.4
							c0.3-0.6,0.6-1.1,0.8-1.7c0.6-1.1,0.8-2.2,1.1-3.4c0.3-1.1,1.7-1.1,2.2-2.2c0.6,1.4,0.6,2.5,0.3,3.6c-0.3,1.1-0.8,2.2-1.7,3.4
							c-0.8,1.1-1.7,2-2.5,2.8c-0.8,0.8-2,1.7-2.8,2.5c-2.2,2.2-5.9,3.9-9.5,5.3c-1.7,0.8-3.6,1.4-5.3,2.2c-1.7,0.8-3.1,1.7-4.8,3.1
							c-1.4,1.1-2.8,1.7-3.9,1.7c-1.1,0-2-0.6-2.2-1.4c1.1-1.4,2.2-1.7,2.8-1.7c2.5-0.6,5-1.4,8.1-2.8c3.4-1.4,6.4-3.1,9.2-5
							c-3.6,1.1-6.7,2.8-10.1,3.9c-2.8,0.8-5,1.4-6.4,0.6c2-0.8,4.2,0.6,7-3.1c-0.6-0.3-0.8-0.3-1.4-0.3c-2.5,0.6-3.1,0.3-3.9-0.3
							c-0.3,0.6-0.8,1.4-1.1,2c-1.1,1.7-2.8,2.8-3.9,3.4c-0.6,0.3-1.4,0.6-2,0.8c-0.3,0-0.6,0-0.8,0.3h-0.3c0,0,0,0-0.3,0v-0.3
							c0.6-1.7,1.4-3.1,2-4.5c0.6-1.4,1.1-2.2,1.1-3.4c0.3-0.3-1.1-0.6-1.7-1.4c-0.6,1.7-2,3.9-2.5,6.2c0.8-1.1,1.7-2.2,3.1-3.4
							c0,0.6-0.8,1.4-1.4,2.5c-0.8,1.1-1.7,2.2-1.7,3.1c-0.3-0.6-0.3-1.4,0-2.2c-1.1,1.7-2,3.4-2.8,5.6c-0.6-0.6,0.6-2.8,1.4-4.5
							c0.8-1.7,1.7-3.1,0.8-3.9c-0.3,0.6-0.3,1.1-0.8,2l0.8-2l0,0c0.6-2,0-3.6-0.3-5.9c-0.6,2-1.4,3.6-2.5,5.9
							c-1.1,2-2.2,4.5-2.8,6.7l-0.3,2c0-0.6,0-1.1,0.3-2c0.8-4.8,2.8-10.6,4.5-14.8s3.6-8.7,5.3-12.9v-0.8c-0.6,0-1.1,0.3-2,0.3
							c-1.4,3.6-2.8,7.3-4.2,10.6C352,265.7,350,270.2,348,274.7z"/>
					</g>
				</g>
			</g>
		</g>
	</g>
</g>
<g>
	<rect x="113.4" y="389.2" fill="none" width="730.8" height="96.6"/>
	<g enable-background="new    ">
		<path fill="#86604E" d="M167.3,404.5c3,1.8,5.7,3.9,8.1,6.4s4.4,5.1,6.1,7.9c1.7,2.8,3,5.6,3.9,8.5c0.9,2.9,1.3,5.6,1.3,8.2
			c0,3.5-0.6,6.6-1.7,9.5c-1.1,2.9-2.7,5.4-4.9,7.5c-2.2,2.1-4.8,3.8-7.9,4.9c-3.1,1.2-6.7,1.8-10.7,1.8c-2.3,0-4.5-0.2-6.6-0.5
			c-2-0.3-4-0.7-5.8-1.2c-1.8-0.5-3.6-1-5.2-1.5s-3.3-1.1-5-1.7c-2.4,1.7-5,2.9-7.9,3.6c-2.9,0.8-6.1,1.2-9.6,1.2
			c-2,0-3.4-0.2-4.2-0.7c-0.8-0.5-1.2-1.1-1.2-1.9c0-0.8,0.3-1.6,0.8-2.5c0.6-0.9,1.3-1.7,2.3-2.4c1-0.7,2.2-1.3,3.6-1.8
			c1.4-0.5,3-0.7,4.8-0.7c2.3,0,4.5,0.2,6.6,0.6c2,0.4,4,1,5.9,1.6c2.3-2.4,4.4-5.7,6.4-10c2-4.3,4.1-9.8,6.3-16.6
			c1.3-3.9,2.7-7.5,4.3-10.5c1.5-3.1,3.3-5.7,5.3-7.9c-2.4-1.2-5-2.2-7.7-3c-2.7-0.7-5.5-1.1-8.5-1.1c-2.4,0-4.6,0.4-6.6,1.2
			c-2,0.8-3.8,1.8-5.3,3.2c-1.5,1.4-2.8,3-3.8,4.9c-1,1.9-1.7,4-2,6.4c-0.4,0.4-0.6,0.2-0.7-0.4c0.2-2.6,0.9-5,2-7.2
			c1.1-2.2,2.6-4.1,4.5-5.7c1.9-1.6,4.1-2.8,6.7-3.7c2.6-0.9,5.6-1.3,8.8-1.3c2.8,0,5.5,0.3,8.1,1c2.6,0.7,5.1,1.6,7.4,2.9
			c3.3-2.7,7.3-4.5,11.8-5.5c0.2,0,0.3,0.1,0.3,0.3c0,0.2,0,0.4-0.2,0.5c-2,0.5-3.8,1.2-5.4,2.2
			C170.2,401.9,168.7,403.1,167.3,404.5z M124.7,457.4c2.6,0,4.9-0.3,7-0.8c2.1-0.5,4-1.5,5.8-2.8c-2-0.6-4.1-1.1-6.3-1.6
			c-2.2-0.4-4.5-0.6-7.1-0.6c-1.7,0-2.9,0.3-3.7,0.8c-0.8,0.6-1.3,1.2-1.4,2c-0.1,0.9,0.2,1.6,1,2.1
			C120.8,457.1,122.3,457.4,124.7,457.4z M165.7,456.6c5.9,0,10.2-1.6,13.2-4.9c2.9-3.3,4.4-7.7,4.4-13.3c0-2.9-0.4-5.8-1.3-8.7
			c-0.9-2.9-2.1-5.8-3.7-8.5c-1.6-2.7-3.6-5.3-5.9-7.6c-2.3-2.3-4.8-4.4-7.7-6.1c-1.6,2-3,4.2-4.3,6.8c-1.2,2.6-2.4,5.4-3.4,8.5
			c-2.3,7.1-4.6,13-7,17.7c-2.4,4.7-5.1,8.5-8.1,11.4c1.5,0.6,3.1,1.1,4.8,1.7s3.4,1.1,5.3,1.5c1.9,0.5,3.9,0.8,6.2,1.1
			C160.5,456.4,163,456.6,165.7,456.6z"/>
		<path fill="#86604E" d="M193.3,459.1c-0.8,0-1.5-0.4-2.1-1.2c-0.6-0.8-0.9-1.8-0.9-3c0-1,0.1-2.1,0.4-3.5c0.3-1.3,0.6-2.7,1.1-4.2
			s1-3,1.7-4.4c0.7-1.5,1.4-2.9,2.3-4.2c-0.7,0.5-1.4,1-2.1,1.6c-0.7,0.6-1.4,1.1-1.8,1.6c-0.2,0.1-0.3,0.1-0.5-0.1
			c-0.1-0.2-0.2-0.4-0.1-0.6c0.4-0.4,1-0.9,1.7-1.5c0.7-0.6,1.4-1.1,2.2-1.7c0.8-0.6,1.6-1.1,2.4-1.6c0.8-0.5,1.6-1,2.4-1.3
			c0.2-0.1,0.4,0,0.6,0.2c0.2,0.2,0.2,0.4,0.1,0.6c-2,2.5-3.6,5.3-4.8,8.4c-1.2,3-1.8,6-1.8,8.7c0,1.8,0.5,2.7,1.6,2.7
			c0.8,0,1.8-0.5,3-1.6c1.2-1.1,2.4-2.5,3.7-4.3c1.3-1.8,2.6-3.7,3.9-6c1.3-2.2,2.5-4.5,3.6-6.7c0.2-0.4,0.5-0.8,1.1-1.2
			c0.5-0.3,1.1-0.5,1.7-0.5c0.8,0,1.1,0.2,0.8,0.7c-0.9,1.6-1.6,3.1-2.3,4.5c-0.7,1.4-1.2,2.8-1.7,4.1c-0.4,1.4-0.8,2.7-1,4.2
			c-0.2,1.4-0.3,3-0.3,4.6c0,2,0.6,3,1.7,3c0.5,0,1-0.3,1.7-0.8c0.6-0.5,1.2-1.2,1.8-2.1c0.2-0.1,0.4-0.1,0.6,0
			c0.2,0.1,0.2,0.3,0.1,0.6c-0.9,1.3-1.9,2.4-3,3.4c-1.1,1-2.2,1.4-3.3,1.4c-0.8,0-1.5-0.4-2-1.2c-0.6-0.8-0.8-1.9-0.8-3.2
			c0-1.5,0.1-3.1,0.4-4.8c0.3-1.7,0.7-3.4,1.3-5.1c-1.2,2.3-2.4,4.3-3.7,6.1c-1.3,1.8-2.5,3.3-3.7,4.5c-1.2,1.2-2.3,2.2-3.4,2.8
			C194.8,458.7,193.9,459.1,193.3,459.1z"/>
		<path fill="#86604E" d="M258.4,389.2c2,0,3.4,0.8,4.3,2.3c0.9,1.5,1.1,3.3,0.6,5.4c-0.4,0.4-0.7,0.3-0.9-0.1
			c-0.1-1.2-0.7-2.3-1.6-3.2c-1-0.9-2.4-1.3-4.4-1.3c-2.8,0-5.6,0.8-8.5,2.5c-2.9,1.7-5.7,4.4-8.5,8.3c-2.8,3.9-5.5,9-8.2,15.4
			c-2.7,6.4-5.3,14.3-7.7,23.7c0.6-0.8,1.2-1.6,1.9-2.4c0.7-0.8,1.5-1.5,2.4-2.1c0.9-0.6,1.8-1.2,2.7-1.6c0.9-0.4,1.8-0.6,2.8-0.6
			c1.4,0,2.4,0.6,3,1.8c0.6,1.2,0.9,2.5,0.9,4.1c0,2-0.5,4-1.5,6.1c-1,2.1-2.2,4.1-3.7,5.8c-1.5,1.7-3.2,3.1-4.9,4.3
			c-1.8,1.1-3.5,1.7-5,1.7c-1.1,0-2-0.3-2.7-1c-0.7-0.6-1.1-1.8-1.1-3.4c0-1.4,0.2-3.1,0.6-5.4c0.4-2.2,1-4.7,1.8-7.3
			s1.6-5.5,2.7-8.5c1-3,2.2-5.9,3.4-8.8c5.2-12.2,10.4-21.2,15.6-27C247.4,392.1,252.8,389.2,258.4,389.2z M231.1,438.5
			c-0.9,0-1.9,0.3-3,0.9c-1,0.6-2,1.5-3,2.6c-0.9,1.2-1.7,2.6-2.4,4.4c-0.6,1.8-1.1,3.9-1.2,6.2c-0.1,1.4,0,2.3,0.5,2.9
			c0.5,0.6,1.2,0.8,2.1,0.8c1.2,0,2.3-0.4,3.5-1.2c1.2-0.8,2.2-1.8,3.1-3c0.9-1.2,1.7-2.6,2.3-4.2c0.6-1.5,0.9-3.1,0.9-4.6
			c0-1.8-0.3-3-0.8-3.8C232.6,438.9,231.9,438.5,231.1,438.5z"/>
		<path fill="#86604E" d="M278.5,390.4c1.6,0,2.6,0.7,3.1,2.2c0.5,1.5,0.3,3-0.6,4.7c-0.1,0.1-0.3,0.1-0.5,0
			c-0.2-0.1-0.3-0.3-0.4-0.5c0.1-0.7-0.1-1.4-0.8-1.8c-0.6-0.5-1.6-0.7-3-0.7c-2.6,0-5.3,1.1-7.9,3.3c-2.6,2.2-5.1,5.1-7.5,8.6
			c-2.4,3.5-4.6,7.5-6.7,11.9c-2.1,4.4-3.9,8.7-5.4,13.1c-1.5,4.3-2.7,8.4-3.6,12.3c-0.9,3.9-1.3,7-1.3,9.4c0,1.8,0.5,2.8,1.6,2.8
			c0.7,0,1.5-0.3,2.2-0.9c0.7-0.6,1.5-1.5,2.4-2.8c0.2-0.1,0.4-0.1,0.5,0c0.2,0.2,0.2,0.4,0.1,0.6c-1.2,1.9-2.6,3.5-4.1,4.7
			c-1.5,1.2-2.7,1.8-3.8,1.8c-0.8,0-1.4-0.3-1.9-1c-0.5-0.6-0.7-1.5-0.7-2.6c0-1.7,0.3-4,0.9-6.7c0.6-2.7,1.5-5.8,2.6-9.2
			s2.4-6.9,4-10.7c1.6-3.7,3.3-7.4,5.1-11c1.8-3.6,3.8-7.1,5.9-10.4c2.1-3.3,4.2-6.3,6.4-8.8c2.2-2.5,4.4-4.5,6.6-6
			C274.2,391.1,276.4,390.4,278.5,390.4z"/>
		<path fill="#86604E" d="M269.1,439.5c0,0.9-0.3,1.7-1,2.4c-0.7,0.7-1.6,1.4-2.8,2c-1.2,0.6-2.5,1.1-4,1.6c-1.5,0.5-3.1,1-4.8,1.4
			c-0.1,0.7-0.1,1.4-0.1,2c0,0.7,0,1.4,0,2.2c0,1.5,0.3,2.8,1,3.9c0.7,1,1.6,1.6,2.9,1.6c1.2,0,2.4-0.3,3.5-0.9
			c1.1-0.6,2-1.4,2.9-2.5c0.2-0.1,0.4-0.1,0.6,0.1c0.1,0.2,0.1,0.4,0,0.6c-1,1.4-2.4,2.6-3.9,3.7s-3.2,1.5-4.9,1.5
			c-1.6,0-2.9-0.5-3.9-1.6c-1-1-1.5-2.6-1.5-4.6c0-1.8,0.3-3.8,1-5.9c0.7-2.1,1.6-4,2.7-5.7c1.1-1.7,2.4-3.1,3.8-4.3
			c1.4-1.1,3-1.7,4.6-1.7c1.2,0,2.2,0.4,3,1.2C268.7,437.5,269.1,438.4,269.1,439.5z M263,437.8c-1.4,0-2.7,0.6-3.8,1.8
			c-1.1,1.2-1.9,3.2-2.4,5.8c3-0.4,5.1-1.1,6.5-1.9c1.4-0.8,2.1-1.8,2.1-2.8c0-0.9-0.2-1.6-0.6-2.1
			C264.3,438.1,263.8,437.8,263,437.8z"/>
		<path fill="#86604E" d="M302,439.5c0,0.9-0.3,1.7-1,2.4s-1.6,1.4-2.8,2c-1.2,0.6-2.5,1.1-4,1.6c-1.5,0.5-3.1,1-4.8,1.4
			c-0.1,0.7-0.1,1.4-0.1,2c0,0.7,0,1.4,0,2.2c0,1.5,0.3,2.8,1,3.9c0.7,1,1.6,1.6,2.9,1.6c1.2,0,2.4-0.3,3.5-0.9
			c1.1-0.6,2-1.4,2.9-2.5c0.2-0.1,0.4-0.1,0.6,0.1c0.1,0.2,0.1,0.4,0,0.6c-1,1.4-2.4,2.6-3.9,3.7c-1.6,1-3.2,1.5-4.9,1.5
			c-1.6,0-2.9-0.5-3.9-1.6c-1-1-1.5-2.6-1.5-4.6c0-1.8,0.3-3.8,1-5.9c0.7-2.1,1.6-4,2.7-5.7c1.1-1.7,2.4-3.1,3.8-4.3
			c1.4-1.1,3-1.7,4.6-1.7c1.2,0,2.2,0.4,3,1.2C301.6,437.5,302,438.4,302,439.5z M295.9,437.8c-1.4,0-2.7,0.6-3.8,1.8
			c-1.1,1.2-1.9,3.2-2.4,5.8c3-0.4,5.1-1.1,6.5-1.9c1.4-0.8,2.1-1.8,2.1-2.8c0-0.9-0.2-1.6-0.6-2.1
			C297.2,438.1,296.6,437.8,295.9,437.8z"/>
		<path fill="#86604E" d="M314.8,435.4c1.2,0,2.3,0.2,3.1,0.6c0.8,0.4,1.2,0.8,1.2,1.3c0,0.7-0.1,1.4-0.4,2.3
			c-0.3,0.9-0.6,1.6-0.9,2.1c-0.1,0.1-0.3,0.1-0.5,0c-0.2-0.1-0.3-0.2-0.2-0.4c0.2-0.4,0.3-0.9,0.4-1.5c0.1-0.6,0-1-0.1-1.5
			c-0.3-1.2-1.2-1.8-2.6-1.8c-1,0-1.9,0.3-2.5,0.9c-0.6,0.6-1,1.5-1,2.8c0,1,0.3,1.9,0.8,2.8c0.5,0.9,1.1,1.8,1.8,2.7
			c0.6,0.9,1.2,1.8,1.8,2.9c0.5,1,0.8,2.1,0.8,3.4c0,2-0.7,3.6-2.1,5c-1.4,1.4-3.5,2-6.2,2c-1.9,0-3.5-0.3-4.7-1
			c-1.2-0.7-1.8-1.4-1.8-2.1c0-0.6,0.3-1.4,1-2.5c0.7-1.1,1.4-2,2.3-2.7c0.2-0.1,0.4-0.1,0.5,0.1c0.2,0.2,0.2,0.4,0,0.6
			c-0.5,0.5-0.9,1.1-1.1,1.7s-0.3,1.2-0.2,1.7c0.2,1,0.7,1.8,1.4,2.4c0.8,0.5,1.7,0.8,2.7,0.8c1.6,0,2.8-0.4,3.7-1.3
			c0.9-0.9,1.3-2,1.3-3.3c0-1.2-0.3-2.3-0.8-3.3c-0.6-1-1.2-2-1.8-3c-0.6-1-1.2-1.9-1.8-2.9c-0.5-1-0.8-2-0.8-3.1
			c0-1.6,0.6-3,1.8-4.1S312.8,435.4,314.8,435.4z"/>
		<path fill="#86604E" d="M338.5,435.5c1.2,0,2.2,0.6,3,1.7c0.7,1.1,1.1,2.5,1.1,4.3c0,2.4-0.4,4.7-1.2,6.8c-0.8,2.1-2,4-3.4,5.6
			c-1.4,1.6-3.2,2.9-5.1,3.9c-2,1-4.1,1.4-6.5,1.4c-1,0-1.9-0.2-2.6-0.6c-1,3.1-2,6.4-2.9,9.8c-0.9,3.5-1.3,6.7-1.3,9.7
			c0,1.4,0.7,1.9,2.1,1.8c0.9-0.2,1.8-0.6,2.8-1.1c0.2-0.1,0.3,0,0.3,0.3c0,0.3,0,0.5-0.1,0.7c-0.7,0.4-1.8,0.9-3,1.3
			c-1.3,0.4-2.5,0.6-3.7,0.6c-0.5,0-0.9-0.1-1.2-0.3c-0.3-0.2-0.5-0.6-0.5-1.2c0-3.1,0.5-6.8,1.5-10.9c1-4.1,2.3-8.4,3.9-12.8
			c-0.1-0.2-0.2-0.4-0.3-0.6c-0.1-0.2-0.2-0.4-0.2-0.7c-0.1-0.2,0.4-0.5,1.4-0.8c0.8-2.2,1.7-4.4,2.6-6.7c0.9-2.2,1.8-4.4,2.8-6.5
			c1.2-2.6,1.7-4.2,1.6-4.8c-0.1-0.6-0.5-0.7-1.2-0.3c-0.4,0.2-0.9,0.6-1.5,1c-0.6,0.4-1.1,0.9-1.6,1.5c-0.1,0.1-0.3,0.1-0.4-0.1
			c-0.2-0.2-0.2-0.4-0.1-0.5c0.4-0.4,0.9-0.9,1.5-1.5c0.6-0.6,1.2-1.1,1.9-1.6c0.6-0.5,1.3-1,1.9-1.3c0.6-0.4,1.2-0.6,1.7-0.6
			c0.5,0,0.8,0.3,1,0.8c0.2,0.5,0,1.2-0.3,2.1c-0.4,1-0.8,2.3-1.4,3.6c-0.6,1.4-1.2,2.8-1.9,4.1c1.7-2.6,3.4-4.6,5.1-6
			C335.7,436.2,337.2,435.5,338.5,435.5z M328.6,457.3c1.5,0,3-0.3,4.3-1c1.3-0.7,2.5-1.6,3.4-2.8s1.7-2.6,2.2-4.3
			c0.5-1.6,0.8-3.4,0.8-5.4c0-1.5-0.3-2.7-0.8-3.6c-0.5-1-1.3-1.4-2.4-1.4c-1.4,0-3.1,1.3-5.1,3.8c-2,2.5-3.8,6.1-5.5,10.7
			c-0.1,0.3-0.2,0.6-0.3,0.9c-0.1,0.3-0.2,0.6-0.3,0.9c0.3,0.7,0.8,1.2,1.3,1.6C326.8,457.1,327.6,457.3,328.6,457.3z"/>
		<path fill="#86604E" d="M354.7,438c0,0.9-0.1,2-0.3,3.2c-0.2,1.2-0.4,2.5-0.7,3.7c1.2-3,2.6-5.3,4.1-7c1.5-1.7,3.1-2.5,4.8-2.5
			c0.7,0,1.3,0.2,1.8,0.6c0.6,0.4,0.8,0.9,0.8,1.6c0,0.5-0.2,1.1-0.6,1.9c-0.4,0.8-0.7,1.3-1.1,1.7c-0.4,0.2-0.6,0.2-0.6-0.3
			c0-1-0.7-1.6-2.1-1.6c-2.2,0-4.1,1.6-5.8,4.9c-1.7,3.2-3.4,7.7-4.9,13.4c-0.1,0.6-0.5,1-1.2,1.2c-0.7,0.2-1.3,0.3-1.8,0.3
			c-0.7,0-0.8-0.3-0.5-1c0.6-1.3,1.1-2.7,1.6-4.2c0.5-1.5,1-3,1.4-4.6c0.5-1.5,0.8-3,1.2-4.5c0.3-1.5,0.6-2.8,0.7-4.1
			c0.2-1.8-0.1-2.8-0.9-2.8c-0.5,0-1.1,0.3-1.7,0.8s-1.2,1.2-1.8,1.9c-0.2,0.1-0.5,0.1-0.6,0c-0.2-0.2-0.2-0.4-0.1-0.6
			c0.9-1.2,2-2.2,3.1-3.2c1.1-1,2.2-1.4,3.2-1.4C354,435.4,354.7,436.3,354.7,438z"/>
		<path fill="#86604E" d="M380.5,439.5c0,0.9-0.3,1.7-1,2.4s-1.6,1.4-2.8,2c-1.2,0.6-2.5,1.1-4,1.6c-1.5,0.5-3.1,1-4.8,1.4
			c-0.1,0.7-0.1,1.4-0.1,2c0,0.7,0,1.4,0,2.2c0,1.5,0.3,2.8,1,3.9c0.7,1,1.6,1.6,2.9,1.6c1.2,0,2.4-0.3,3.5-0.9
			c1.1-0.6,2-1.4,2.9-2.5c0.2-0.1,0.4-0.1,0.6,0.1c0.1,0.2,0.1,0.4,0,0.6c-1,1.4-2.4,2.6-3.9,3.7c-1.6,1-3.2,1.5-4.9,1.5
			c-1.6,0-2.9-0.5-3.9-1.6c-1-1-1.5-2.6-1.5-4.6c0-1.8,0.3-3.8,1-5.9c0.7-2.1,1.6-4,2.7-5.7c1.1-1.7,2.4-3.1,3.8-4.3
			c1.4-1.1,3-1.7,4.6-1.7c1.2,0,2.2,0.4,3,1.2C380.1,437.5,380.5,438.4,380.5,439.5z M374.4,437.8c-1.4,0-2.7,0.6-3.8,1.8
			c-1.1,1.2-1.9,3.2-2.4,5.8c3-0.4,5.1-1.1,6.5-1.9c1.4-0.8,2.1-1.8,2.1-2.8c0-0.9-0.2-1.6-0.6-2.1
			C375.8,438.1,375.2,437.8,374.4,437.8z"/>
		<path fill="#86604E" d="M393.4,435.4c1.2,0,2.3,0.2,3.1,0.6c0.8,0.4,1.2,0.8,1.2,1.3c0,0.7-0.1,1.4-0.4,2.3
			c-0.3,0.9-0.6,1.6-0.9,2.1c-0.1,0.1-0.3,0.1-0.5,0c-0.2-0.1-0.3-0.2-0.2-0.4c0.2-0.4,0.3-0.9,0.4-1.5c0.1-0.6,0-1-0.1-1.5
			c-0.3-1.2-1.2-1.8-2.6-1.8c-1,0-1.9,0.3-2.5,0.9c-0.6,0.6-1,1.5-1,2.8c0,1,0.3,1.9,0.8,2.8c0.5,0.9,1.1,1.8,1.8,2.7
			c0.6,0.9,1.2,1.8,1.8,2.9c0.5,1,0.8,2.1,0.8,3.4c0,2-0.7,3.6-2.1,5c-1.4,1.4-3.5,2-6.2,2c-1.9,0-3.5-0.3-4.7-1
			c-1.2-0.7-1.8-1.4-1.8-2.1c0-0.6,0.3-1.4,1-2.5c0.7-1.1,1.4-2,2.3-2.7c0.2-0.1,0.4-0.1,0.5,0.1c0.2,0.2,0.2,0.4,0,0.6
			c-0.5,0.5-0.9,1.1-1.1,1.7s-0.3,1.2-0.2,1.7c0.2,1,0.7,1.8,1.4,2.4c0.8,0.5,1.7,0.8,2.7,0.8c1.6,0,2.8-0.4,3.7-1.3
			c0.9-0.9,1.3-2,1.3-3.3c0-1.2-0.3-2.3-0.8-3.3c-0.6-1-1.2-2-1.8-3c-0.6-1-1.2-1.9-1.8-2.9c-0.5-1-0.8-2-0.8-3.1
			c0-1.6,0.6-3,1.8-4.1S391.3,435.4,393.4,435.4z"/>
		<path fill="#86604E" d="M410.8,435.4c1.2,0,2.3,0.2,3.1,0.6c0.8,0.4,1.2,0.8,1.2,1.3c0,0.7-0.1,1.4-0.4,2.3
			c-0.3,0.9-0.6,1.6-0.9,2.1c-0.1,0.1-0.3,0.1-0.5,0c-0.2-0.1-0.3-0.2-0.2-0.4c0.2-0.4,0.3-0.9,0.4-1.5c0.1-0.6,0-1-0.1-1.5
			c-0.3-1.2-1.2-1.8-2.6-1.8c-1,0-1.9,0.3-2.5,0.9c-0.6,0.6-1,1.5-1,2.8c0,1,0.3,1.9,0.8,2.8c0.5,0.9,1.1,1.8,1.8,2.7
			c0.6,0.9,1.2,1.8,1.8,2.9c0.5,1,0.8,2.1,0.8,3.4c0,2-0.7,3.6-2.1,5c-1.4,1.4-3.5,2-6.2,2c-1.9,0-3.5-0.3-4.7-1
			c-1.2-0.7-1.8-1.4-1.8-2.1c0-0.6,0.3-1.4,1-2.5c0.7-1.1,1.4-2,2.3-2.7c0.2-0.1,0.4-0.1,0.5,0.1c0.2,0.2,0.2,0.4,0,0.6
			c-0.5,0.5-0.9,1.1-1.1,1.7s-0.3,1.2-0.2,1.7c0.2,1,0.7,1.8,1.4,2.4c0.8,0.5,1.7,0.8,2.7,0.8c1.6,0,2.8-0.4,3.7-1.3
			c0.9-0.9,1.3-2,1.3-3.3c0-1.2-0.3-2.3-0.8-3.3c-0.6-1-1.2-2-1.8-3c-0.6-1-1.2-1.9-1.8-2.9c-0.5-1-0.8-2-0.8-3.1
			c0-1.6,0.6-3,1.8-4.1S408.7,435.4,410.8,435.4z"/>
		<path fill="#86604E" d="M430.2,435.4c1.7,0,2.9,0.6,3.7,1.7c0.8,1.1,1.2,2.6,1.2,4.3c0,2.1-0.4,4.2-1.2,6.3c-0.8,2.1-1.8,4-3,5.7
			c-1.2,1.7-2.6,3.1-4,4.1c-1.4,1-2.8,1.6-4,1.6c-1.5,0-2.6-0.6-3.5-1.8c-0.9-1.2-1.3-2.8-1.3-5c0-1.7,0.3-3.6,1-5.5
			c0.7-2,1.6-3.8,2.7-5.5c1.1-1.7,2.4-3.1,3.9-4.2S428.6,435.4,430.2,435.4z M424.7,456.2c0.9,0,1.8-0.3,2.7-1
			c0.9-0.6,1.7-1.5,2.4-2.6c0.7-1.1,1.2-2.3,1.6-3.7c0.4-1.4,0.6-2.9,0.6-4.4c0-1.8-0.3-3.3-0.9-4.4c-0.6-1.1-1.6-1.6-3-1.6
			c-0.9,0-1.8,0.3-2.7,1c-0.9,0.6-1.6,1.5-2.3,2.6c-0.6,1.1-1.2,2.3-1.5,3.8c-0.4,1.4-0.6,3-0.6,4.6
			C421,454.3,422.2,456.2,424.7,456.2z"/>
	</g>
</g>
</svg>
