<?xml version="1.0" encoding="utf-8"?>
<!-- Generator: Adobe Illustrator 18.0.0, SVG Export Plug-In . SVG Version: 6.00 Build 0)  -->
<!DOCTYPE svg PUBLIC "-//W3C//DTD SVG 1.1//EN" "http://www.w3.org/Graphics/SVG/1.1/DTD/svg11.dtd">
<svg version="1.1" id="Layer_1" xmlns="http://www.w3.org/2000/svg" xmlns:xlink="http://www.w3.org/1999/xlink" x="0px" y="0px"
	 viewBox="0 0 200 200" enable-background="new 0 0 200 200" xml:space="preserve">
<g>
	<g>
		<circle fill="#DFCEC4" cx="99.7" cy="94.3" r="83"/>
		<g>
			<g>
				<g>
					<g opacity="0.8">
						<g opacity="0.8">
							<path fill="#FAF8F7" d="M142.8,28.4c-3-2-6.2-3.7-9.5-5.3c-3.3-1.6-6.7-3-10.1-4.2c-6.9-2.3-14.1-3.8-21.3-4.1
								c-14.4-0.8-28.5,3-38.6,10.1c-2.3,1.5-4.5,3.2-6.6,5c1.2-0.7,2.4-1.4,3.6-2c3.5-1.8,7.1-3.3,10.8-4.6
								c1.9-0.7,3.8-1.2,5.7-1.8c1.9-0.5,3.9-1,5.8-1.3c7.8-1.5,15.9-1.8,23.9-0.9c16,1.7,31.2,8.5,43.1,18.6
								c7.5,6.1,14.3,13.5,19.4,22.5c5.1,8.9,8.3,19.4,8.6,30.5c0,2.5,1.3,2.8,1.9,3c0.4-1.1,0.8-2.2,1.2-3.2c0.4-1,0.8-2,1.1-2.9
								c-0.5-4.7-1.5-9.4-2.9-14c-1.4-4.5-3.2-8.9-5.3-13.2c-4.3-8.4-9.9-16.2-16.7-23c-1.1-1.1-2.4-2.2-3.7-3.1
								c-1.3-0.9-2.7-1.8-4-2.5c-1.3-0.7-2.6-1.4-3.7-2C144.6,29.5,143.6,28.9,142.8,28.4z"/>
							<path fill="#F8F5F3" d="M181.9,88.6c0.1-0.1,0.1-0.2,0.1-0.4c-0.1-1-0.2-1.9-0.4-2.9C181.8,86.4,181.8,87.5,181.9,88.6z"/>
							<path fill="#FAF7F6" d="M164.4,46.4c-4-4.8-8.2-9.2-12.8-13.2c-0.8-0.6-1.7-1-2.5-1.5c-0.8-0.4-1.6-0.9-2.4-1.3
								c-1.6-0.7-2.8-1.5-3.9-2.1c-3-2-6.2-3.7-9.5-5.3c-3.3-1.6-6.7-3-10.1-4.2c-6.9-2.3-14.1-3.8-21.3-4.1
								c-14.4-0.8-28.5,3-38.6,10.1c-2.3,1.5-4.4,3.2-6.5,4.9c1.3-0.7,2.6-1.5,3.9-2.1c9.7-4.9,20.5-8,31.5-8.7
								c0.6-0.1,1.2-0.2,1.8-0.3c3.1-0.7,6.1-0.6,9.1-0.3c1.5,0.2,2.9,0.4,4.4,0.6c1.4,0.3,2.9,0.5,4.4,0.8
								c4.2,0.5,8.2,1.5,11.9,2.7c3.8,1.2,7.4,2.8,10.8,4.6c6.9,3.7,13.2,8.3,19.4,14.1c1.1,1.1,2.3,2.1,3.4,3.2
								c1.2,1.1,2.3,2.2,3.5,3.4c2.3,2.4,4.5,5.1,6.3,8.3c0.7,1.1,1.2,2.2,1.7,3.3c0.6,1.1,1,2.2,1.4,3.3c4.4,8.5,7.2,18.3,7.4,28.7
								c0,2.5,1.3,2.8,1.9,3c0.4-1.2,0.8-2.3,1.2-3.3c-0.1-4.4-0.5-8.7-1.4-13c-0.9-4.3-2.1-8.6-3.6-12.8c-3.1-7.1-7.1-13.8-12-19.9
								C164,45.6,164.2,46,164.4,46.4z"/>
							<path fill="#F8F5F3" d="M165.5,44.7c-0.7-0.9-2.2-1.4-1.6,0.6c4.9,6.1,8.9,12.8,12,19.9c-1.3-3.5-2.9-7-4.6-10.4
								C169.6,51.4,167.6,48,165.5,44.7z"/>
							<path fill="#FCFAF9" d="M169.8,43.1c-4.6-6.8-10.5-12.4-16.6-16.9c-6.1-4.6-12.4-8.1-18.3-11.3c-6.2-3.4-12.7-6.2-18.6-8.6
								c-1.1-0.2-2.3-0.4-3.4-0.6c-1.1-0.1-2.3-0.3-3.4-0.4c-7.1-0.7-14.2-0.4-21.3,0.6c-7,1-13.9,2.8-20.5,5.5
								c-13.1,5.2-24.9,13.6-34.2,24.1c-4.6,5.3-8.7,11-12,17.2c-3.3,6.2-5.9,12.7-7.8,19.5c-1.8,6.8-2.8,13.8-3.1,20.8
								c-0.3,7,0.3,14.1,1.6,21c1.4,6.9,3.8,13.5,6.9,19.6c3.2,6.1,7.1,11.7,11.6,16.8c4.5,5.1,9.7,9.5,15.3,13.4
								c5.6,3.9,11.7,7.1,18.2,9.6c1.9,0.8,3.8,1.5,5.6,2.3c0.9,0.3,1.9,0.7,2.8,1c0.5,0.2,0.9,0.3,1.4,0.5c0.5,0.1,0.9,0.3,1.4,0.4
								c0.9,0.3,1.8,0.6,2.7,0.9c0.9,0.2,1.8,0.5,2.7,0.7c1.8,0.5,3.6,0.9,5.4,1.3c7.3,1.5,14.8,2.4,23,2c10.3-0.5,20.2-3.3,29-7.7
								c8.8-4.5,16.5-10.5,22.9-17.7c12.8-14.4,20.3-32.8,21.7-52.7c0.4-5.4-1.1-8.5-2.3-9.8c-1.3-1.4-2.6-1-2.6,0.2
								c0.5,15.7-4.1,31.3-12.7,44.1c-8.6,12.9-21.1,23-35.3,28.8c-3.5,1.5-7.2,2.6-10.9,3.6c-3.7,0.9-7.5,1.5-11.3,2
								c-3.8,0.3-7.7,0.5-11.5,0.3c-3.8-0.2-7.7-0.6-11.5-1.3c-15.2-2.8-29.6-10.2-41.1-21.1c-4.5-4.2-8.4-9-11.7-14.1
								c-3.3-5.1-6-10.6-8-16.3c-4-11.4-5.2-23.5-3.7-35.2c1.5-11.7,5.7-22.8,12-32.3c6.4-9.5,14.8-17.5,24.4-23.1
								c2.1-1.8,4.3-3.5,6.6-5c10.1-7.1,24.2-10.9,38.6-10.1c7.2,0.3,14.4,1.8,21.3,4.1c3.4,1.2,6.8,2.6,10.1,4.2
								c3.2,1.6,6.5,3.3,9.5,5.3c0.8,0.5,1.8,1.1,2.9,1.6c1.2,0.6,2.4,1.2,3.7,2c1.4,0.7,2.7,1.6,4,2.5c1.3,1,2.6,2,3.7,3.1
								c6.8,6.8,12.4,14.6,16.7,23c2.1,4.2,3.9,8.6,5.3,13.2c1.4,4.5,2.3,9.2,2.9,14c1.6-4,2.9-7.4,3.4-11.8
								C182.1,63.9,176.3,53,169.8,43.1z"/>
							<path fill="#F8F4F2" d="M169.8,43.1c6.5,9.9,12.3,20.9,15.6,32.9c0.1-1.1,0.2-2.2,0.1-3.4c0-1.2-0.2-2.5-0.4-3.8
								c-0.2-1-0.4-1.9-0.6-2.8c-0.2-0.9-0.5-1.9-0.8-2.8c-0.6-1.9-1.2-3.8-1.9-5.6c-1.4-3.7-3.2-7.4-5.3-10.9
								c-2.1-3.6-4.5-6.9-7.1-10.1c-2.7-3.2-5.6-6.2-8.7-9c-3.2-2.8-6.5-5.3-10-7.6c-3.5-2.3-7.2-4.4-11-6.1
								c-3.8-1.7-7.6-3.3-11.6-4.5c-1.9-0.7-3.9-1.1-5.9-1.6c-1-0.2-2-0.4-3-0.6c-1-0.2-2-0.4-3-0.6c5.9,2.4,12.4,5.2,18.6,8.6
								c5.9,3.3,12.2,6.7,18.3,11.3C159.3,30.7,165.2,36.3,169.8,43.1z"/>
							<path fill="#FAF7F6" d="M169.8,43.1c6.3,9.5,11.8,19.9,15.1,31.2c-0.3-2-0.8-3.9-1.2-5.9c-0.3-1-0.6-1.9-0.9-2.9l-0.5-1.5
								l-0.5-1.4c-3.6-9.8-9.1-18.9-16-26.8c-6.8-7.9-15-14.6-23.8-20.2c9.9,5.4,18.7,12.6,26,21.2c7.2,8.6,12.9,18.6,16.6,29.3
								c-3.5-14.8-12.6-29.1-25-39.7c-3.1-2.7-6.4-5-9.8-7.3c-3.4-2.2-7-4.1-10.7-5.8c-3.7-1.6-7.4-3.1-11.3-4.3
								C126,8.4,124,8,122.1,7.5c-1-0.2-1.9-0.4-2.9-0.6c-1-0.2-1.9-0.4-2.9-0.6c5.9,2.3,12.4,5.2,18.6,8.6
								c5.9,3.3,12.2,6.7,18.3,11.3C159.3,30.7,165.2,36.3,169.8,43.1z"/>
							<path fill="#F8F4F1" d="M145.2,21.2c10.2,6.8,18.9,15.6,25.6,25.7c6.7,10.2,11.4,21.7,13.8,33.9c0.3-1.1,0.5-2.2,0.7-3.4
								c-0.1-1-0.3-2.1-0.4-3.1c-3.4-11.4-8.9-21.8-15.1-31.2c-4.6-6.8-10.5-12.4-16.6-16.9c-6.1-4.6-12.4-8.1-18.3-11.3
								c-6.2-3.4-12.6-6.2-18.6-8.6c-1.1-0.2-2.1-0.4-3.2-0.5c-1.1-0.1-2.1-0.3-3.2-0.4c-7.2-0.7-14.5-0.5-21.7,0.5
								c-3.6,0.5-7.1,1.3-10.6,2.2c-3.5,1-6.9,2.1-10.3,3.5c-3.4,1.3-6.6,2.9-9.8,4.6c-3.1,1.8-6.2,3.6-9.1,5.8
								c-2.9,2.1-5.7,4.4-8.4,6.8c-2.6,2.5-5.2,5-7.5,7.7c-3.8,5-7.2,10.3-10.1,16c-2.9,5.7-5.3,11.7-7.1,18
								c-1.8,6.3-3,12.7-3.5,19.3c-0.5,6.5-0.3,13.1,0.5,19.6c-2-12.1-1.6-24.6,1.2-36.7c-3.4,13.3-4,27.3-1.4,40.8
								c2.4,11.7,7.5,22.5,14.4,31.7c1.2,0.6,2.4,1.6,4,2.9c1.6,1.3,3.4,3,5.6,5.2c3.5,3.4,7.1,6.6,11,9.4c3.9,2.8,8.1,5.2,12.7,7
								c1.2,0.6,0.5,1.4,2.9,2.6c-6.8-3.4-12.3-6.3-17.2-8.9c5.6,3.9,11.7,7.2,18.2,9.8c6,2.6,11.6,4.5,17.3,6.1
								c5.7,1.5,11.4,2.6,17.5,3.1c1.3,0,2.6-0.1,3.9-0.1c6.5-0.4,13-1.8,19.2-4c-1.3,0.3-2.6,0.6-3.9,0.9c-1.3,0.3-2.7,0.5-4,0.7
								c4.1-1.2,9.4-2.5,13.2-3.7c-1.7,0.8-3.5,1.5-5.3,2.2c6.1-1.5,11.9-3.6,17.9-6.6c-7.3,3.7-15.1,6.8-22,8.8
								c7.5-1.7,14.4-4.2,20.9-7.4c6.5-3.3,12.6-7.1,18.6-11.7c-0.3,0.3-0.5,0.6-0.8,0.9c7.8-7.4,14-16.2,18.5-25.9
								c4.5-9.7,7.2-20.3,8.1-31.3c0.1-1.3,0.1-2.5,0-3.6c-0.1-1.1-0.2-2-0.5-2.8c-0.5-1.6-1.1-2.7-1.8-3.4c-1.3-1.4-2.6-1-2.6,0.2
								c0.3,10.9-1.9,21.9-6.2,31.8c-4.3,9.9-10.8,18.9-18.7,26.1c-7.9,7.3-17.4,12.8-27.5,16.3c-10.1,3.5-21,4.8-31.7,4
								c4.8,1,9.7,1.6,14.8,1.7c1.1-0.1,2.2-0.1,3.2-0.1c1.1,0,2.1-0.1,3.1-0.1c-1.1,0.1-2.1,0.1-3.2,0.2c-1.1,0-2.1,0-3.2,0
								c-5.9,0.2-12.5,0.3-18.8-1c-0.6-0.3-1.8-0.5-3.1-0.6c-1.3-0.2-2.6-0.2-3.5,0.1c-4.2-1.3-8.8-2.6-13.2-4.4
								c-4.4-1.7-8.7-3.9-12.2-6.5c-0.4-0.3-1-1-1.7-1.8c-4.6-2.9-8.9-6.3-12.9-10.1c-11.1-10.6-18.8-24.5-21.9-39.1
								c-3.1-14.6-2-30,3.2-43.5c-2.9,6.4-4.9,13-6.3,19.3c-1.1,4.2-1.3,11.2,0,18.8c1.3,7.6,4.1,15.7,7.6,22.7
								c0.9,1.7,1.5,3.2,2,4.7c0.3,0.7,0.6,1.5,0.9,2.2c0.3,0.8,0.7,1.6,1.2,2.4c-0.3-0.3-0.6-0.6-0.9-1c-0.3-0.3-0.6-0.7-0.8-1
								c-0.6-0.7-1.1-1.4-1.7-2.2c-1-1.6-2.1-3.2-2.9-4.9c-1.8-3.4-3.3-7.3-4.4-11.2c-1.1-4-1.8-8.1-2.3-12.2
								c-0.5-4.1-0.6-8.2-0.7-12.2c0-5.3,0.7-11.1,2.2-17c1.5-5.9,3.7-11.9,6.6-17.6c2.9-5.7,6.5-11.1,10.4-16
								c3.9-4.9,8.2-9.3,12.3-13.2c3.4-3.3,7.3-5.8,11.3-7.6c4-1.8,7.9-3.1,11.6-3.9c-2.4,1.5-7,3.5-9.3,4.7
								C51.3,27.8,42.2,35.4,35,44.5c-7.2,9.1-12.4,19.9-14.9,31.3c1.7-5.8,3.9-11.4,6.6-16.7c2.7-5.3,6-10.2,9.7-14.7
								c7.4-9.1,17-16.4,27.8-21l-2.3,1.2l-2.3,1.3l-1.1,0.6l-1.1,0.7l-2.2,1.3l-2.1,1.4l-1.1,0.7l-1,0.8L49,32.8l-2,1.6
								c-5.2,4.3-9.6,9.4-12.8,15.1c0.8-0.7,1.6-1.5,2.4-2.3c5.7-7,12.6-12.8,20.2-17.3c2.1-1.8,4.2-3.4,6.5-4.9
								c10.1-7.1,24.2-10.9,38.6-10.1c7.2,0.3,14.4,1.8,21.3,4.1c3.4,1.2,6.8,2.6,10.1,4.2c3.2,1.6,6.5,3.3,9.5,5.3
								c1,0.6,2.3,1.4,3.9,2.1c0.8,0.4,1.6,0.8,2.4,1.3c0.8,0.4,1.7,0.9,2.5,1.5c-7.1-6.2-15.2-11.4-24.2-14.7
								c3.5,1.7,6.6,3.5,9.2,5.7c-3.9-2-7.5-3.8-11.2-5.4c-1.8-0.8-3.7-1.5-5.7-2.2c-2-0.6-4.1-1.1-6.3-1.4
								c4.8,0.5,9.5,1.7,13.9,3.3c-5.2-2.4-11.2-4.1-17.2-5.1c6,0.2,11.5,2,16.7,4.2c5.3,2.2,10.2,4.9,15.8,7.4
								c-2.2-1.3-4.3-2.6-6.5-3.8c2.3,1.2,4.5,2.5,6.7,3.9c0,0-0.1,0-0.1-0.1c3.3,2,6.5,4.2,9.6,6.4c3.1,2.3,5.9,4.7,8.6,7
								c-4.6-5-9.3-9.4-14.5-13.3c-5.2-3.9-10.8-7.2-17.1-9.5c-1-0.4-2.1-0.7-3.2-1l-1.6-0.5l-1.6-0.4c0.5,0.1,1.1,0.3,1.6,0.4
								c0.5,0.2,1.1,0.3,1.6,0.5c1.1,0.3,2.1,0.6,3.1,1.1c14.6,5.1,27.4,15,36.5,27.4c9.1,12.4,14.6,27.3,15.8,42.3
								c0.2,0.9,0.2,1.9,0.4,2.9c0.4-0.9,0.7-1.8,1-2.6c-1.2-12.7-5.1-25.3-11.7-36.3c-3.3-5.5-7.2-10.7-11.6-15.4
								C155.4,29.1,150.5,24.9,145.2,21.2z"/>
						</g>
					</g>
				</g>
			</g>
		</g>
	</g>
	<g opacity="0.76">
		<path fill="#FFFFFF" d="M81.1,127.8l-8.5-31.7c0-0.9,1.3-1.6,2.8-1.6H125c1.5,0,2.8,0.7,2.8,1.6l-8.5,31.7c0,0.9-1.3,1.6-2.8,1.6
			H84C82.4,129.4,81.1,128.7,81.1,127.8z"/>
		<g>
			<g>
				<g>
					<g opacity="0.8">
						<g opacity="0.8">
							<path fill="#EEE8E6" d="M106,128.3c2.3,0,4.7,0,7.1,0c1.2,0,2.4,0,3.5,0.1c0.5,0,1-0.1,1.4-0.2c0.3-0.1,0.6-0.3,0.6-0.7
								c1.3-4.5,2.4-8.8,3.1-12.8c0.2-0.9,0.3-1.8,0.5-2.7l-0.4,1.3c-1.4,4.5-2.8,9.2-4.1,13.9c0,0,0,0,0,0l0,0c0,0-0.1,0.1-0.2,0.1
								c-0.2,0-0.4,0.1-0.6,0.1l-1.1,0c-1.5,0-3,0-4.5,0c-3,0-6,0-8.9,0.1c-3.3,0.1-6.6,0.3-10,0.5c-1.7,0.1-3.4,0.1-5.2,0.2
								c-0.9,0-1.8,0-2.7,0c-0.2,0-0.4,0-0.6,0c-0.2,0-0.3,0-0.5-0.1c-0.3-0.1-0.6-0.2-0.8-0.3c-0.1-0.1-0.1-0.1-0.3,0
								c0,0-0.2,0-0.3,0.1c-0.1,0.1-0.1,0.3,0.1,0.6c0.1,0.2,0.3,0.5,0.6,0.6c0.7,0.2,1.4,0.2,2.2,0.2l2.2-0.1c1.5,0,3-0.1,4.5-0.1
								c3-0.1,6-0.2,9.1-0.2C102.5,128.8,104.7,128.3,106,128.3z"/>
							<path fill="#E6DEDB" d="M82.3,128.9L82.3,128.9c0.4,0.2,0.6,0.2,0.9,0.3C83,129.1,82.6,129.1,82.3,128.9z"/>
							<path fill="#ECE6E3" d="M96.8,128.8c2-0.1,3.9-0.1,5.9-0.1c1.3-0.1,2.5-0.4,3.2-0.3c2.3,0,4.7,0,7.1,0c1.2,0,2.4,0,3.5,0.1
								c0.5,0,1-0.1,1.4-0.2c0.3-0.1,0.6-0.3,0.6-0.7c1.3-4.5,2.4-8.8,3.1-12.8c0.2-0.9,0.3-1.8,0.5-2.7l-0.4,1.4
								c-1.1,3.5-2.2,7-3.2,10.6c0,0.2-0.1,0.4-0.1,0.6c-0.1,0.9-0.4,1.8-0.6,2.6c0,0.1-0.1,0.1-0.2,0.1c-0.2,0.1-0.6,0.1-0.9,0.1
								c-5.7,0.2-10.6-0.1-16.3,0.1c-2.1,0.1-4.2,0.4-6.7,0.4c-0.8,0-1.6,0-2.4,0c-1.6,0.1-3.2,0.1-4.9,0.2c-0.8,0-1.6,0-2.5,0
								c-0.6,0-1.3-0.2-1.6-0.4c-0.1,0,0-0.1-0.1,0c0,0-0.1,0-0.1,0.1c0,0,0,0-0.1,0l0,0c-0.1,0-0.1,0-0.1,0c-0.1,0-0.1,0.3,0,0.6
								c0.4,0.4,1.1,0.6,1.7,0.6c0.6,0,1.4,0,2,0c1.4,0,2.8,0,4.2,0c2.4-0.1,4.9-0.2,7.4-0.2C97.1,128.8,97,128.8,96.8,128.8z"/>
							<path fill="#E6DEDB" d="M97.1,129.2c0.3,0,0.8-0.2,0.1-0.4c-2.5,0-4.9,0.1-7.4,0.2C92.2,129.1,94.6,129.1,97.1,129.2z"/>
							<path fill="#F4F0EE" d="M96.7,130.3c4.8,0.1,9.5-0.3,13.4,0c2.1,0.1,4.1,0.4,5.9,0.7l0.5,0c0.2,0,0.4,0,0.7,0
								c0.4,0,0.9-0.1,1.3-0.3c0.4-0.1,1.1-0.5,1.5-0.9c0.5-0.4,0.8-1,0.9-1.6c1.9-7.7,3.9-15.2,5.9-22.8l1.5-5.7l0.9-3.2
								c0.2-0.8-0.1-1.6-0.6-2.2c-0.5-0.6-1.4-1-2.1-1.1c-0.3-0.1-0.6-0.1-0.9-0.1c-0.2,0-0.3,0-0.5,0l-0.4,0l-1.5,0l-2.9,0
								l-5.8-0.1c-8.1-0.1-15.6,0.4-23.9,0.8c-4.9,0.1-8.9-0.3-13.7-0.5c-0.4,0-0.8,0-1.1-0.1c-0.2,0-0.4,0-0.7,0
								c-0.2,0-0.5,0-0.7,0.1c-0.1,0-0.2,0-0.4,0.1c-0.1,0-0.3,0.1-0.5,0.1c-0.3,0.1-0.6,0.2-0.9,0.4c-0.5,0.3-1,0.8-1.3,1.3
								c-0.3,0.6-0.3,1.2-0.1,1.8l0.3,1.3c0.2,0.7,0.4,1.4,0.6,2.1c0.8,2.7,1.6,5.4,2.5,8.1c1.7,5.4,3.6,10.7,5.4,16.6
								c1,3.2,2.3,3.3,2.1,2.5c-2.9-9.9-5.5-19.5-8-29.2l-0.4-1.6c0-0.2-0.1-0.3,0-0.5c0.1-0.1,0.2-0.3,0.3-0.3
								c0.1-0.1,0.3-0.1,0.4-0.2c0.2-0.1,0.5-0.1,0.7-0.1c0.2,0,0.6,0,0.9,0l0.9,0c2.5,0,5,0,7.5,0c5,0,10.1,0,15.2-0.1
								c8-0.1,15.7-0.1,23.3-0.1l1.4,0l0.7,0c0.2,0,0.4,0,0.6,0.1c0.4,0.1,0.6,0.2,0.8,0.3c0.2,0.1,0.4,0.4,0.4,0.6
								c-0.5,1.7-1,3.3-1.5,5c-1.1,3.6-2.1,7.1-3.2,10.7c-0.2,0.9-0.3,1.8-0.5,2.7c-0.7,4-1.8,8.3-3.1,12.8c0,0.3-0.3,0.6-0.6,0.7
								c-0.4,0.2-0.9,0.2-1.4,0.2c-1.2,0-2.4,0-3.5-0.1c-2.4,0-4.8-0.1-7.1,0c-1.2,0-3.4,0.5-5.5,0.5c-3.1,0-6.1,0.1-9.1,0.2
								c-1.5,0-3,0.1-4.5,0.1l-2.2,0.1c-0.7,0-1.5,0.1-2.2-0.2c0.5,0.4,1.1,0.7,1.6,0.9c0.5,0.2,1.1,0.4,1.7,0.6
								C89.5,130.4,93.2,130.2,96.7,130.3z"/>
							<path fill="#E5DDD9" d="M96.7,130.3c-3.5-0.1-7.2,0-10.8,0.2c0.6,0.2,1.3,0.3,2,0.4c8.9,0.7,18.9,0.2,28.2,0.1
								c-1.8-0.3-3.9-0.5-5.9-0.7C106.2,130.1,101.5,130.5,96.7,130.3z"/>
							<path fill="#ECE6E3" d="M96.7,130.3c-3.4-0.1-6.8,0-10.3,0.2c1.2,0.1,2.4,0.1,3.6,0.1c6.1,0.1,12.2,0,18.2,0.3
								c-6.5,0-13,0-19.5,0c8.7,0.6,18.4,0.1,27.4,0c-1.8-0.3-3.8-0.5-5.9-0.7C106.2,130.1,101.5,130.5,96.7,130.3z"/>
							<path fill="#E3DAD6" d="M106.5,130.2c-7.3-0.2-14.6-0.3-22.1,0c0.3,0.1,0.6,0.2,1,0.3c0.3,0,0.6,0,0.9,0.1
								c3.5-0.2,6.9-0.3,10.3-0.2c4.8,0.1,9.5-0.3,13.4,0c2.1,0.1,4.1,0.4,5.9,0.7l0.5,0c0.2,0,0.4,0,0.6,0c0.4,0,0.8-0.1,1.3-0.2
								c0.4-0.1,1.1-0.4,1.6-0.9c0.5-0.4,0.9-1,1-1.7c1.9-7.4,3.8-14.8,5.7-22.2c0.4-1.8,0.8-3.6,1.2-5.4c0.2-0.9,0.5-1.8,0.7-2.7
								l0.2-0.8c0.1-0.4,0.2-0.7,0.2-1.1c0-0.7-0.5-1.4-1.1-1.8c-1.3-0.9-2.7-0.8-3.6-0.8l-2.9-0.1c-1.9-0.1-3.8-0.1-5.7-0.2
								c1.8,0,3.6,0,5.4,0l2.7,0l1.4,0c0.3,0,0.6,0,0.9,0.1c0.3,0,0.6,0.1,1,0.2c-0.5-0.2-0.7-0.2-1.1-0.3c-0.3-0.1-0.7-0.1-0.9-0.1
								l-1.5,0l-3,0l-5.9-0.1c-3.4,0-6.8,0-10.1,0.1c-0.7,0.3-1.8,0.5-3.6,0.6c-2.9,0.1-5.7,0.1-8.7,0.4c-0.4,0-0.3-0.2-1.1-0.3
								c2.3,0,4.1-0.1,5.8-0.4c-2,0.1-4.1,0.2-6.1,0.3c-3.9,0.1-7.1-0.1-10.7-0.3l-1.2,0c-1,0-1.9,0.1-2.9,0.1
								c-0.4,0-1.1,0.1-1.7,0.2c-0.6,0.2-1.3,0.5-1.8,1c0.4-0.4,0.9-0.6,1.5-0.8c0.5-0.1,1-0.2,1.5-0.2c-0.4,0-0.8,0.1-1.2,0.2
								c-0.4,0.1-0.9,0.3-1.3,0.6c-0.4,0.3-0.7,0.6-0.9,1.1c-0.2,0.4,0,0.8,0.1,1.3c-0.1-0.4-0.3-0.7-0.2-1.1c0.1-0.4,0.3-0.7,0.5-1
								c-0.5,0.4-0.8,1.1-0.6,1.7c0.1,0.3,0.2,0.7,0.2,0.9l0.2,0.7c0.2,0.9,0.5,1.8,0.7,2.8c-0.3-1.2-0.6-2.4-1-3.5
								c-0.1-0.4-0.3-0.8-0.3-1.3c0-0.4,0.1-0.8,0.3-1.2c0.5-0.7,1.2-1.1,2-1.4c-0.9,0.2-1.7,0.7-2.1,1.4c-0.2,0.3-0.4,0.8-0.3,1.2
								c0,0.4,0.2,0.8,0.3,1.2c0.3,1.1,0.6,2.1,0.9,3.1c0.6,2.1,1.1,4.1,1.5,6.3l-0.1-0.3c1.9,6,4,11.9,6,18.4
								c1,3.2,2.3,3.3,2.1,2.5c-2-6.9-3.9-13.7-5.7-20.4c-0.9-3.4-1.8-6.7-2.7-10.1c0-0.2-0.2-0.4-0.1-0.6c0.1-0.2,0.3-0.3,0.5-0.4
								c0.1,0,0.2-0.1,0.3-0.1c0.2,0,0.3-0.1,0.5-0.1c0.3,0,0.8,0,1.2,0c1.7,0,3.5,0,5.2,0c-1.6-0.2-3.2-0.3-4.8-0.5
								c-0.7,0-1.4-0.1-1.9-0.1c0.6,0,1.3,0.1,1.9,0.1c1.9,0.1,4,0.1,6,0.2c0.4,0.1,1.6,0.1,2.1-0.1c2.8,0.2,6.1,0,8.9,0.2
								c0.2,0,0.4,0.1,0.8,0.2c1.8,0,3.5,0,5.3-0.1c5-0.1,9.9-0.1,14.7-0.1c2.4,0,4.8,0,7.2,0c1.2,0,2.3,0,3.5,0.1
								c0.2,0,0.5,0.1,0.7,0.1c0.2,0.1,0.3,0.1,0.5,0.2c0.3,0.1,0.6,0.4,0.4,0.8c0.2-0.3-0.1-0.6-0.3-0.8c-0.1-0.1-0.3-0.2-0.4-0.2
								c-0.2-0.1-0.4-0.1-0.7-0.2c-1-0.1-2.1-0.2-3.1-0.3c-2.7-0.4-8.6,0-13.5,0.1c-1.2,0.1-2-0.2-3.2-0.2c4.3-0.7,9.9-0.2,14.8-0.3
								c1.6,0,3.4,0,5.3,0.1c0.5,0.1,0.9,0.2,1.3,0.5c0.4,0.2,0.8,0.7,0.7,1.2c-0.3,0.9-0.5,1.9-0.8,2.8c-1.1,3.8-2.2,7.8-2.9,11.2
								c-0.6,2.9-1.5,5.5-2.4,7.7c0.1-0.9,0.5-2.4,0.7-3.2c1-3.5,2-7,2.9-10.6c0.5-1.8,1-3.5,1.4-5.3l0.7-2.5c0.1-0.4-0.2-0.8-0.5-1
								c-0.3-0.2-0.7-0.3-1.1-0.4c0.4,0.1,0.8,0.3,1.1,0.5c0.3,0.2,0.5,0.6,0.3,1c-0.3,0.9-0.5,1.7-0.8,2.6c-0.5,1.8-1,3.6-1.5,5.4
								c-1,3.6-2.1,7.2-3.2,10.8c1.1-4.3,2.6-8.5,3.4-12.6c-0.1,0.3-0.3,0.7-0.4,1c-0.9,2.8-1.7,5.6-2.6,8.4
								c-0.2,0.9-0.3,1.8-0.5,2.7c-0.7,4-1.8,8.3-3.1,12.8c0,0.3-0.3,0.6-0.6,0.7c-0.4,0.2-0.9,0.2-1.4,0.2c-1.2,0-2.4,0-3.5-0.1
								c-2.4,0-4.8-0.1-7.1,0c-0.8,0-2,0.2-3.2,0.3c3,0,6.1,0.1,9.1,0.1c-1.2-0.1-2.4-0.2-3.5-0.4c2.9,0,5.2,0.3,8.1,0.3
								c-1.5,0.1-3.1,0.1-4.6,0.1c0.9,0.1,1.9,0.1,2.8,0.1c0.5,0,1,0,1.4,0c0.5,0,0.9,0,1.4,0c-0.8,0.2-1.8,0.1-2.7,0.1
								c-0.9,0-1.8-0.1-2.7-0.1c-1.8-0.1-3.6-0.1-5.5,0.1c0.8,0,1.6,0,2.4,0c-0.8,0-1.6,0-2.4,0l0,0c-2.4,0-4.9,0.2-7.1,0.3
								c4.2,0,8,0.3,12.1,0.3c0.7,0,1.4,0,2,0c-0.7,0-1.4,0-2,0c-9.5,0.1-19-0.2-28.3-0.5c-0.3,0-0.6-0.1-0.9-0.2
								c0.2,0.2,0.4,0.4,0.7,0.5c0.5,0.1,1,0.1,1.5,0.1l1.5,0l2.9,0l5.9,0.1C98.8,129.9,102.7,130,106.5,130.2z"/>
						</g>
					</g>
				</g>
			</g>
		</g>
	</g>
	<g>
		<path fill="#86604E" d="M84.1,147.9L78.9,125c0-0.6-0.9-1.1,0.4-1.1h38c1.3,0,2.4,0.5,2.4,1.1l-3.2,22.8c0,0.6-1.1,1.1-2.4,1.1
			H86.5C85.2,149,84.1,148.5,84.1,147.9z"/>
		<g>
			<g>
				<g>
					<g opacity="0.8">
						<g opacity="0.8">
							<path fill="#EEE8E6" d="M103,148c2.4,0,4.8,0,7.3,0.1c1.2,0,2.4,0.1,3.6,0.1c0.3,0,0.6,0,0.8,0c0.1,0,0.2,0,0.4,0
								c0.1,0,0.2,0,0.2-0.1c0.3-0.1,0.6-0.3,0.6-0.7c0.1-0.5,0.1-1,0.2-1.5c0.1-0.5,0.1-1.1,0.2-1.6c0.1-1.1,0.2-2.1,0.2-3.1
								c0-0.7,0-1.4,0-2.1l-0.2,1c-0.2,1.2-0.5,2.4-0.7,3.6c-0.2,1.1-0.4,2.3-0.6,3.4c0,0.1-0.1,0.1-0.1,0c-0.2,0-0.4,0-0.7,0
								l-1.1,0c-1.4,0-2.9,0-4.3-0.1c-2.9,0-5.8,0-8.6,0.1c-2.5,0.1-5,0.3-7.6,0.5c-1.3,0.1-2.6,0.1-3.9,0.2c-0.7,0-1.3,0-2,0
								c-0.5,0-1.1-0.1-1.3-0.3c0,0,0,0-0.2,0.1c-0.1,0.1-0.2,0.1-0.3,0.2c-0.1,0-0.1,0-0.1,0c0,0,0.1-0.1,0.1,0c0,0,0,0,0,0.1
								c0,0.1,0,0.2,0.1,0.3c0.1,0.2,0.3,0.4,0.4,0.5c0.5,0.1,1.1,0.1,1.6,0.1l1.7-0.1l3.4-0.1c2.3-0.1,4.5-0.2,6.9-0.2
								C100.4,148.5,102,147.9,103,148z"/>
							<path fill="#E6DEDB" d="M85.1,148.6L85.1,148.6c0.3,0.1,0.5,0.2,0.7,0.2C85.6,148.8,85.3,148.7,85.1,148.6z"/>
							<path fill="#ECE6E3" d="M96.1,148.4c1.5-0.1,3-0.1,4.5-0.1c1-0.1,1.9-0.4,2.4-0.3c2.4,0,4.8,0,7.3,0.1c1.2,0,2.4,0.1,3.6,0.1
								c0.3,0,0.6,0,0.8,0c0.1,0,0.2,0,0.4,0c0.1,0,0.2,0,0.2-0.1c0.3-0.1,0.6-0.3,0.6-0.7c0.1-0.5,0.1-1,0.2-1.5
								c0.1-0.5,0.1-1.1,0.2-1.6c0.1-1.1,0.2-2.1,0.2-3.1c0-0.7,0-1.3,0-2l-0.2,1.1c-0.2,1.2-0.4,2.3-0.7,3.5
								c-0.2,1.1-0.4,2.2-0.6,3.3c0,0,0,0-0.1,0c0,0,0,0,0,0.1c0,0,0,0.1,0,0.1c-0.1,0-0.2,0.1-0.4,0.1c-0.2,0-0.7,0-1,0
								c-0.8,0-1.5-0.1-2.3-0.1c-4.4,0.2-8-0.1-12.4,0.1c-1.6,0.1-3.2,0.4-5,0.4c-0.6,0-1.2,0-1.8,0c-1.2,0.1-2.4,0.1-3.7,0.2
								c-0.6,0-1.3,0-1.8,0c-0.5,0-1-0.2-1.1-0.3c0-0.1-0.2,0.2-0.3,0.2c-0.1,0.1-0.2,0.1-0.2,0.1c-0.1,0,0,0-0.1,0c0,0,0,0,0.1,0
								c0,0,0,0,0,0.1c0,0.1,0,0.2,0,0.3c0.3,0.2,0.8,0.4,1.3,0.4c0.5,0,1,0,1.5,0c1.1,0,2.1,0,3.2,0c1.9-0.1,3.7-0.2,5.6-0.2
								C96.3,148.4,96.2,148.4,96.1,148.4z"/>
							<path fill="#E6DEDB" d="M96.2,148.9c0.3,0,0.6-0.2,0.1-0.4c-1.9,0-3.7,0.1-5.6,0.2C92.5,148.7,94.4,148.7,96.2,148.9z"/>
							<path fill="#F4F0EE" d="M95.9,150c3.7,0.1,7.2-0.3,10.2,0c1.6,0.1,3.1,0.4,4.5,0.7c0.5,0,1,0,1.5,0l1.3,0l0.6,0
								c0.2,0,0.6,0,0.8-0.1c0.3,0,0.6-0.1,1-0.2c0.4-0.1,0.7-0.3,1-0.5c0.6-0.4,1.1-1.1,1.2-1.8c0.3-2.7,0.7-5.5,1-8.2
								c0.4-2.6,0.7-5.3,1.1-7.9l0.6-3.9l0.3-2.2c0.1-0.6,0.1-1.1-0.1-1.6c-0.2-0.5-0.6-0.9-1.1-1.2c-0.5-0.3-1-0.5-1.6-0.6
								c-0.3-0.1-0.5-0.1-0.7-0.1l-0.6,0l-2,0l-4-0.1c-6.1-0.1-11.8,0.4-18.1,0.8c-3.7,0.1-6.7-0.3-10.4-0.5c-0.5,0-1-0.1-1.5-0.1
								c-0.7,0-1.7-0.1-2.4,0c-0.4,0.1-0.7,0.2-0.9,0.3c-0.1,0.1-0.2,0.2-0.4,0.3c-0.1,0.1-0.2,0.3-0.2,0.4
								c-0.1,0.2-0.1,0.4-0.1,0.8c0,0.4,0.2,0.8,0.3,1.2l0.4,1.7l0.3,1.2c0.2,0.8,0.4,1.6,0.7,2.4c0.5,1.6,1,3.2,1.5,4.8
								c1,3.2,2.1,6.5,3,10c0.7,2.4,2,2.5,1.8,1.9c-1-3.7-1.9-7.4-2.7-11.1c-0.8-3.6-1.6-7.1-2.4-10.7c-0.1-0.2-0.1-0.5-0.2-0.7
								c-0.1-0.1,0.1-0.2,0.2-0.2c0.1,0,0.2,0,0.4,0l2.2,0c1.9,0,3.8,0,5.7,0c3.8,0,7.7,0,11.6-0.1c6-0.1,11.9-0.1,17.6,0
								c0.3,0,0.5,0.1,0.7,0.1c0.2,0.1,0.4,0.2,0.5,0.3c0.2,0.2,0.1,0.4,0,0.6l-0.1,0.8c-0.2,1.4-0.5,2.8-0.7,4.2
								c-0.5,2.8-1,5.6-1.5,8.3c0,0.7,0,1.4,0,2.1c0,1-0.1,2-0.2,3.1c-0.1,0.5-0.1,1.1-0.2,1.6c-0.1,0.5-0.1,1-0.2,1.5
								c0,0.4-0.3,0.6-0.6,0.7c-0.1,0-0.2,0-0.2,0.1c-0.1,0-0.2,0-0.4,0c-0.2,0-0.5,0-0.8,0c-1.2,0-2.4-0.1-3.6-0.1
								c-2.4-0.1-4.9-0.1-7.3-0.1c-0.9,0-2.6,0.5-4.1,0.5c-2.3,0-4.6,0.1-6.9,0.2l-3.4,0.1l-1.7,0.1c-0.6,0-1.1,0-1.6-0.1
								c0.4,0.3,0.8,0.6,1.2,0.9c0.4,0.2,0.8,0.4,1.3,0.6C90.5,150,93.3,149.8,95.9,150z"/>
							<path fill="#E5DDD9" d="M95.9,150c-2.7-0.1-5.4,0-8.2,0.2c0.5,0.2,1,0.3,1.6,0.4c6.7,0.7,14.3,0.2,21.3,0.1
								c-1.4-0.3-2.9-0.5-4.5-0.7C103.1,149.7,99.6,150.1,95.9,150z"/>
							<path fill="#ECE6E3" d="M95.9,150c-2.6-0.1-5.2,0-7.8,0.2c0.9,0.1,1.8,0.1,2.7,0.1c4.6,0.1,9.3,0,13.8,0.3
								c-4.9,0-9.8,0-14.7,0c6.6,0.6,13.9,0.1,20.7,0c-1.4-0.3-2.9-0.5-4.5-0.7C103.1,149.7,99.6,150.1,95.9,150z"/>
							<path fill="#E3DAD6" d="M103.4,149.8c-5.5-0.2-11.1-0.3-16.7,0c0.2,0.1,0.5,0.2,0.7,0.3c0.2,0,0.5,0,0.7,0.1
								c2.6-0.2,5.3-0.3,7.8-0.2c3.7,0.1,7.2-0.3,10.2,0c1.6,0.1,3.1,0.4,4.5,0.7c0.5,0,0.9,0,1.4,0l1.3,0l0.7,0c0.2,0,0.6,0,0.8,0
								c0.5,0,1.4-0.3,2.1-0.7c0.7-0.4,1.1-1.1,1.2-1.9c0.3-2.3,0.6-4.7,0.9-7c0.3-2.3,0.6-4.5,0.9-6.8c0.1-1.4,0.2-2.8,0.4-4.2
								c0.1-0.7,0.2-1.4,0.3-2.1c0.1-0.8,0.2-1.6,0.3-2.4c0.1-0.6,0-1.1-0.3-1.5c-0.3-0.4-0.8-0.7-1.4-0.9c-0.5-0.2-1.2-0.3-1.6-0.3
								l-1.1,0l-4.3-0.2c1.4,0,2.7,0,4.1,0l1,0c0.1,0,0.4,0,0.6,0c0.1,0,0.2,0,0.3,0c0.2,0,0.3,0,0.4,0.1c1.1,0.2,2.3,0.8,2.6,1.9
								c-0.3-1.2-1.6-1.9-2.9-2.1c-0.3,0-0.5-0.1-0.8-0.1l-0.6,0l-1.1,0c-1.5,0-3-0.1-4.5-0.1c-2.6,0-5.1,0-7.6,0.1
								c-0.5,0.3-1.3,0.5-2.7,0.6c-2.2,0.1-4.3,0.1-6.6,0.4c-0.3,0-0.2-0.2-0.9-0.3c1.7,0,3.1-0.1,4.4-0.4c-1.5,0.1-3.1,0.2-4.6,0.3
								c-2.9,0.1-5.4-0.1-8.1-0.3l-0.9,0c-1.5,0.1-2.6,0.1-5,0.4c0.4,0,0.8,0,1.3,0c0.4,0,0.7,0,1.1,0c-0.4,0.1-1.3,0.1-2,0.1
								c-0.4,0-0.7,0.1-1,0.1c-0.1,0-0.3,0.1-0.4,0.1c-0.1,0.1-0.2,0.2-0.2,0.3c0-0.1,0.1-0.3,0.2-0.3c0.1-0.1,0.2-0.1,0.3-0.2
								c0.2-0.1,0.4-0.2,0.7-0.2c-0.3,0-0.6,0.1-0.8,0.2c-0.1,0-0.2,0.1-0.3,0.2c-0.1,0.1-0.1,0.3-0.1,0.3c0,0.2,0,0.4,0,0.7
								c0,0.3,0.1,0.7,0.2,1l0.4,1.8l-0.2-0.7l-0.2-1c0-0.1-0.1-0.2-0.1-0.4c-0.1-0.1-0.1-0.3-0.1-0.4c-0.1-0.2,0-0.5-0.1-0.7
								c0-0.2,0-0.3,0-0.5c0-0.2,0.2-0.4,0.3-0.4c0.3-0.2,0.6-0.3,1.1-0.4c0.4-0.1,0.9-0.1,1.3-0.1c-0.5,0-1.1,0-1.5,0.1
								c-0.5,0.1-0.8,0.2-1.1,0.4c-0.2,0.1-0.3,0.3-0.3,0.5c0,0.1,0,0.3,0,0.5c0,0.2,0,0.4,0,0.7c0,0.1,0,0.2,0.2,0.4
								c0,0,0,0.1,0,0.1c0,0,0,0.1,0.1,0.1c0,0.1,0.1,0.1,0,0.2c0.1,0.6,0.3,1.2,0.4,1.8l0.3,1.5c0.2,1,0.4,2,0.6,3l-0.1-0.2
								c1.3,4.6,2.9,9,4.3,14c0.7,2.4,2,2.5,1.8,1.9c-1-3.7-1.9-7.4-2.7-11.1c-0.8-3.6-1.6-7.1-2.4-10.6c-0.1-0.2,0-0.4-0.1-0.6
								c0-0.1-0.1-0.2-0.1-0.3c0.1-0.1,0.2-0.1,0.3-0.1l1.4,0c1.5,0,3.1,0,4.6,0c-1.2-0.2-2.4-0.3-3.6-0.5c-0.5,0-1-0.1-1.5-0.2
								l1.5,0.2c1.4,0.1,3,0.1,4.6,0.2c0.3,0.1,1.2,0.1,1.6-0.1c2.1,0.2,4.6,0,6.7,0.2c0.1,0,0.3,0.1,0.6,0.2c1.3,0,2.7,0,4-0.1
								c3.8-0.1,7.5-0.1,11.1-0.1c1.8,0,3.6,0,5.4,0c0.5,0,0.9,0,1.2,0.1c0.3,0,0.5,0.1,0.7,0.3c0.1,0.1,0.2,0.2,0.3,0.3
								c0,0.1,0,0.3,0,0.4l-0.2,1l0.1-0.6l0.1-0.4c0-0.1,0.1-0.3,0.1-0.4c0-0.1-0.1-0.3-0.2-0.4c-0.4-0.4-0.9-0.6-1.7-0.7
								c-2.1-0.4-6.5,0-10.2,0.1c-0.9,0.1-1.5-0.2-2.4-0.2c3.3-0.7,7.5-0.2,11.2-0.3c0.6,0,1.3,0,1.9,0c0.7,0.1,1.4,0.2,2,0.7
								c0.1,0.1,0.2,0.3,0.2,0.5l-0.1,0.5c-0.1,0.4-0.1,0.7-0.2,1.1c-0.1,0.7-0.2,1.5-0.4,2.2c-0.5,3-1,6-1.1,8.7
								c-0.1,2.2-0.7,4.3-1.2,6c-0.1-0.7,0.1-1.9,0.2-2.5l1.3-8.2l0.6-4.1l0.3-2.1l0.1-1c0-0.3,0.2-0.6,0-0.8c0.1,0.1,0.1,0.3,0,0.4
								l-0.1,0.4l-0.2,1c-0.1,0.7-0.2,1.4-0.4,2.1c-0.2,1.4-0.5,2.8-0.7,4.2c-0.4,2.8-0.9,5.6-1.5,8.4c0.4-3.4,1.3-6.6,1.4-9.8
								c-0.1,0.3-0.2,0.5-0.3,0.8c-0.4,2.2-0.8,4.4-1.2,6.6c0,0.7,0,1.4,0,2c0,1-0.1,2-0.2,3.1c-0.1,0.5-0.1,1.1-0.2,1.6
								c-0.1,0.5-0.1,1-0.2,1.5c0,0.4-0.3,0.6-0.6,0.7c-0.1,0-0.2,0-0.2,0.1c-0.1,0-0.2,0-0.4,0c-0.2,0-0.5,0-0.8,0
								c-1.2,0-2.4-0.1-3.6-0.1c-2.4-0.1-4.9-0.1-7.3-0.1c-0.6,0-1.5,0.2-2.4,0.3c2.3,0,4.6,0.1,6.9,0.1c-0.9-0.1-1.8-0.2-2.6-0.4
								c2.2,0,3.9,0.3,6.1,0.3c-1.2,0.1-2.3,0.1-3.5,0.1c1.4,0.1,2.9,0.2,4.3,0.2c-2.8,0.3-5.4-0.4-8.3,0c0.6,0,1.2,0,1.8,0l-1.8,0
								l0,0c-1.8,0-3.7,0.2-5.4,0.3c3.2,0,6.1,0.3,9.2,0.3l1.5,0c-0.5,0-1,0-1.5,0c-7.2,0.1-14.3-0.2-21.4-0.5
								c-0.2,0-0.4-0.1-0.6-0.1c0.2,0.2,0.3,0.3,0.5,0.4c0.8,0.1,1.5,0.1,2.3,0.1l2.2,0l4.5,0.1C97.6,149.5,100.5,149.6,103.4,149.8
								z"/>
						</g>
					</g>
				</g>
			</g>
		</g>
	</g>
	<g opacity="0.81">
		<g>
			<g>
				<g>
					<g opacity="0.8">
						<g opacity="0.8">
							<path fill="#FFFFFF" d="M115.3,148.9l1.7,0c0.3,0,0.6,0,0.8-0.1c0.5-0.2,0.8-0.8,0.9-1.4c1.8-11.2,4.2-22.6,4.3-32.3
								c0-1.3,0-2.6,0.1-4l-0.4,2c-1.1,5.5-2.1,11.1-3.1,16.8c-0.5,2.9-1,5.7-1.4,8.6l-0.7,4.3c-0.2,1.4-0.4,2.8-0.6,4.2
								c0,0,0,0,0,0c0,0,0,0,0,0l0,0l-0.7,0c-2.1,0-4.3,0.1-6.4,0.1c-4.8,0.2-9.7,0.6-14.7,0.9c-2.5,0.2-5,0.3-7.6,0.4
								c-1.3,0-2.6,0.1-3.9,0.1l-0.5,0l-0.1,0l-0.1,0l0,0l0,0c0.1,0-0.1,0,0.1,0l0,0l-0.2,0c-0.1,0,0.1,0,0,0c0,0,0,0-0.1,0
								c-0.1-0.1-0.2-0.2-0.3-0.3c-0.1-0.2-0.7-0.3-1-0.3c-0.4,0.6-0.5,1.5-0.1,2.3c0.4,0.3,0.9,0.5,1.4,0.5c0.5,0,1.1,0,1.6-0.1
								l3.3-0.1c2.2-0.1,4.3-0.2,6.5-0.3c4.4-0.2,8.8-0.3,13.2-0.3C110.3,149.9,113.6,148.9,115.3,148.9z"/>
							<path fill="#FFFFFF" d="M81.2,150c0,0.1,0,0.1,0,0.2c0.3,0.3,0.7,0.4,1.1,0.5C81.9,150.5,81.5,150.3,81.2,150z"/>
							<path fill="#FFFFFF" d="M102,149.8c2.9-0.2,5.8-0.2,8.6-0.2c1.9-0.3,3.6-0.7,4.7-0.7l1.7,0c0.3,0,0.6,0,0.8-0.1
								c0.5-0.2,0.8-0.8,0.9-1.4c1.8-11.2,4.2-22.6,4.3-32.3c0-1.3,0-2.6,0.1-3.9c-0.1,0.7-0.3,1.4-0.4,2.1c-1,5.2-2,10.5-3,15.9
								c0,0.3,0,0.6,0,0.9c0,3.1-0.9,5.8-1.4,8.8c-0.1,1.5-0.3,2.9-0.5,4.2c-0.2,1.4-0.4,2.7-0.5,4c0,0.1-0.1,0.2-0.2,0.2
								c0,0-0.1,0-0.1,0c-0.6,0-1.2,0-1.8,0c-2.5,0-5.1,0-7.9,0.1c-3,0.1-6.2,0.8-9.7,0.8c-1.2,0-2.4,0-3.5-0.1
								c-2.3,0.1-4.7,0.3-7.1,0.3c-1.2,0-2.4,0.1-3.6,0.1l-0.2,0l0,0l0,0c0.3,0,0.1,0,0.1,0l0,0l0,0l-0.1,0l-0.1,0l-0.1,0l0,0
								c0,0,0.1,0,0,0c0,0-0.1,0-0.1-0.1c-0.1-0.1-0.2-0.2-0.3-0.3c-0.1-0.2-0.7-0.3-1-0.4c-0.2,0.3-0.4,0.7-0.4,1.1
								c0.3,0.7,1,1.2,1.7,1.3c0.9,0,2,0,3,0c2,0,4.1,0,6.1,0c3.6-0.2,7.2-0.3,10.8-0.4C102.4,149.9,102.3,149.8,102,149.8z"/>
							<path fill="#FFFFFF" d="M102.4,150.7c0.5,0,1.1-0.4,0.2-0.8c-3.6,0.1-7.2,0.2-10.8,0.4C95.3,150.4,98.8,150.4,102.4,150.7z"
								/>
							<path fill="#FFFFFF" d="M101.8,152.9c3.5,0.1,7,0,10.3-0.1c1.7,0,3.2-0.1,4.8-0.1c0.6,0,1.1,0,1.7-0.1
								c0.5-0.1,1.1-0.3,1.5-0.6c0.9-0.5,1.7-1.4,2.1-2.3c0.3-0.5,0.4-1.1,0.5-1.7c0.6-2.7,1.4-5.1,2.3-7.3c0.1-1,0.3-1.9,0.4-2.9
								c1.4-11.9,2.9-23.7,4.5-35.5c0.4-2.9,0.8-5.9,1.3-8.8c0.5-3.1,0.9-6.2,1.4-9.4c0.2-2.5-1.3-5.1-3.6-6
								c-0.6-0.3-1.2-0.4-1.8-0.5c-0.3,0-0.6,0-1,0l-0.8,0l-2.2,0c-3-0.1-5.9-0.2-8.9-0.2c-11.8-0.2-22.8,0.9-34.9,1.6
								c-0.9,0-1.8,0-2.6,0c-1,0-1.9,0-2.8,0c-2.4-0.1-4.5,1.8-4.9,4.2c-0.1,0.6-0.1,1.2,0,1.8l0,0.5l0,0.3l0,0.6
								c0.1,0.8,0.1,1.6,0.2,2.4c0.1,1.6,0.2,3.3,0.3,5.1c1.2,17.5,5.9,32.1,9.3,49.7c0.9,4.7,3.5,5,3.3,3.8
								c-2.6-14.8-4.6-29.2-6.6-43.6c-0.5-3.6-1-7.2-1.5-10.8c-0.2-1.8-0.5-3.6-0.7-5.4l-0.4-2.7c0-0.2-0.1-0.4-0.1-0.7
								c0-0.2,0.1-0.5,0.2-0.7c0.2-0.4,0.6-0.7,1-0.8c0.2,0,0.5,0,0.7,0l1.3,0c1.8,0,3.7,0,5.5,0c3.7,0,7.4-0.1,11.1-0.2
								c5.8-0.1,11.5-0.2,17.2-0.2c2.8,0,5.6,0,8.4,0c1.4,0,2.8,0,4.2,0l2.1,0l1.6,0c0.8,0,1.5,0.7,1.6,1.5c0,0.2,0,0.4,0,0.6
								l-0.1,0.6l-0.3,2c-0.5,2.7-0.9,5.4-1.4,8.1c-1,5.4-2,10.7-3,16c0,1.3,0,2.7-0.1,4c-0.1,9.7-2.5,21.1-4.3,32.3
								c0,0.6-0.3,1.1-0.9,1.4c-0.3,0.1-0.5,0.1-0.8,0.1l-1.7,0c-1.8,0-5,1-8,1c-4.5,0-8.9,0.2-13.2,0.3c-2.2,0.1-4.4,0.2-6.5,0.3
								l-3.3,0.1c-0.5,0-1.1,0.1-1.6,0.1c-0.5,0-1-0.2-1.4-0.5c0.2,0.4,0.5,0.8,0.9,1.2c0.1,0.1,0.2,0.2,0.4,0.2l0.3,0.2
								c0.3,0.1,0.4,0.2,0.6,0.3c0.8,0.4,1.6,0.8,2.5,1.2C91.4,153,96.7,152.6,101.8,152.9z"/>
							<path fill="#FFFFFF" d="M101.8,152.9c-5.2-0.3-10.5,0-15.8,0.4c0.9,0.3,1.8,0.6,3,0.8c5.3,0.6,10.9,0.7,16.5,0.7
								c2.8,0,5.7-0.1,8.5-0.1l2.1-0.1l1.5,0c0.7,0,1.3-0.1,2-0.4c2.5-0.9,4.3-3.3,4.5-6c0.3-2.5,0.6-5,0.9-7.5
								c-0.8,2.2-1.6,4.6-2.3,7.3c-0.1,0.6-0.2,1.2-0.5,1.7c-0.5,1-1.2,1.8-2.1,2.3c-0.5,0.3-1,0.5-1.5,0.6
								c-0.5,0.1-1.1,0.1-1.7,0.1c-1.6,0-3.2,0-4.8,0.1C108.8,152.9,105.4,153.1,101.8,152.9z"/>
							<path fill="#FFFFFF" d="M101.8,152.9c-4.9-0.3-10,0-15,0.4c1.7,0.1,3.4,0.2,5.2,0.3c4.4,0,8.9,0.1,13.3,0.1
								c2.2,0,4.4,0.1,6.7,0.2l3.3,0.1l1.7,0.1c1,0.1,2,0,2.9-0.3c-0.5,0.2-1,0.3-1.5,0.4c-0.3,0-0.5,0-0.8,0l-0.7,0l-1.8,0l-3.5,0
								l-7.1,0c-4.7,0-9.5,0-14.2,0.1c5.2,0.5,10.6,0.6,16,0.6c2.7,0,5.5-0.1,8.2-0.1l2.1-0.1l0.6,0c0.3,0,0.7,0,1,0
								c0.7,0,1.3-0.2,1.9-0.4c2.4-0.9,4.1-3.3,4.2-5.9c0.3-2.5,0.6-5,0.9-7.5c-0.8,2.2-1.6,4.6-2.3,7.2c-0.1,0.6-0.2,1.2-0.5,1.7
								c-0.5,1-1.2,1.8-2.1,2.3c-0.5,0.3-1,0.5-1.5,0.6c-0.5,0.1-1.1,0.1-1.7,0.1c-1.6,0-3.2,0-4.8,0.1
								C108.8,152.9,105.4,153.1,101.8,152.9z"/>
							<path fill="#FFFFFF" d="M116.2,152.6c-10.6-0.3-21.3-0.5-32.2-0.1c0.5,0.2,0.9,0.5,1.4,0.7c0.5,0,0.9,0.1,1.3,0.1
								c5.1-0.3,10.1-0.6,15-0.4c3.5,0.1,7,0,10.3-0.1c1.7,0,3.2-0.1,4.8-0.1c0.6,0,1.1,0,1.7-0.1c0.5-0.1,1.1-0.3,1.5-0.6
								c0.9-0.5,1.7-1.4,2.1-2.3c0.3-0.5,0.4-1.1,0.5-1.7c0.6-2.6,1.4-5,2.3-7.2c0.1-0.9,0.2-1.8,0.4-2.7c1.4-12.1,3-24.2,4.6-36.3
								c0.3-5.3,1-10.8,1.8-16.3l0.1-0.8c0-0.3,0.1-0.6,0.1-0.8c0-0.5,0-1.1-0.2-1.6c-0.3-1-0.9-2-1.7-2.7c-0.8-0.7-1.8-1.2-2.9-1.3
								c-0.5-0.1-1.2-0.1-1.6-0.1l-1.1,0c-2.8-0.1-5.6-0.2-8.4-0.3c2.6,0,5.2,0,7.8,0l2.2,0c1.1,0,2.2,0.1,3.2,0.6
								c1.9,1,3.2,3.1,3.2,5.3c0.1-2.5-1.5-4.9-3.8-5.8c-0.6-0.2-1.2-0.4-1.8-0.4c-0.6,0-1.4,0-1.7,0l-2.2,0l-8.7-0.2
								c-5-0.1-9.9,0.1-14.7,0.3c-1,0.6-2.6,1.1-5.3,1.2c-4.2,0.2-8.4,0.2-12.7,0.7c-0.6,0-0.5-0.5-1.7-0.5c3.3,0.1,6-0.3,8.4-0.8
								c-2.9,0.2-5.9,0.4-8.9,0.6c-1.4,0-2.8,0-4.1,0c-0.4,0-0.8,0-1.2,0c-0.5,0-0.9,0-1.4,0.1c-0.9,0.2-1.7,0.6-2.4,1.2
								c-0.7,0.6-1.1,1.4-1.4,2.3c-0.3,0.9-0.2,1.8-0.1,2.8c0.1,1.3,0.2,2.5,0.2,3.8l0.3,1.7c0.5,2.7,1.1,5.5,1.8,8.3
								c-0.1-1.1-0.3-2.3-0.4-3.5c0.5,1.8,0.8,4.2,1,5.9c-0.2-0.8-0.4-1.6-0.6-2.4c0.3,2.7,0.7,5.4,1,8.3c-0.4-3.5-1.2-7.1-1.9-10.1
								c1,6.5,2,12.4,2.5,18.8c-0.1-0.2-0.1-0.3-0.2-0.5c1.9,9,4.2,17.8,6,27.6c0.9,4.7,3.5,5,3.3,3.8c-3.6-20.6-6.1-40.6-8.9-60.8
								c0,2.3,0,4.7,0,7c0.1,1,0.1,2,0,2.9c0-1,0-2,0-2.9c-0.1-1.4-0.2-2.8-0.4-4.3c-0.1-0.7-0.1-1.5-0.2-2.2l-0.1-1.1l0-0.6l0-0.3
								l0-0.2c0.1-0.2,0-0.5,0-0.9c0-0.4,0.1-0.8,0-1.1c0.5-0.5,1.2-0.8,2-0.7c0.5,0,1,0,1.4,0c0.6,0,1.1,0,1.7,0
								c2.2,0,4.5,0,6.5,0.2c0.2,0,0.7,0.1,1.1,0.3c2.6,0,5.2-0.1,7.8-0.1c7.3-0.2,14.4-0.2,21.4-0.2c3.5,0,7,0.1,10.5,0.1l1.1,0
								c0.3,0,0.5,0,0.8,0.1c0.5,0.2,0.9,0.5,1.1,1c0.1,0.2,0.2,0.5,0.2,0.7c0,0.2-0.1,0.5-0.1,0.7l-0.4,2.5
								c0.2-0.8,0.4-1.6,0.6-2.4l0.2-0.7c0-0.3,0-0.5,0-0.8c-0.1-0.5-0.4-1.1-0.8-1.4c-0.4-0.4-1-0.4-1.6-0.5
								c-3.9-0.7-12.5-0.1-19.6,0.1c-1.8,0.1-2.9-0.4-4.7-0.4c6.3-1.3,14.4-0.4,21.6-0.6c1.2,0,2.4,0,3.8,0c1.4,0,2.6,1.2,2.8,2.5
								c0.2,0.7-0.1,1.4-0.2,2.1c-0.1,0.7-0.2,1.4-0.4,2.1c-0.2,1.4-0.5,2.8-0.7,4.3c-1,5.8-1.9,11.6-2.1,16.8
								c-0.2,4.3-1.3,8.2-2.3,11.5c-0.1-1.3,0.3-3.6,0.4-4.8c0.8-5.3,1.6-10.5,2.5-15.8c0.4-2.6,0.8-5.3,1.2-7.9l0.6-4l0.3-2
								l0.1-0.9c0-0.3,0.1-0.6,0-0.8c0,0.3-0.1,0.6-0.1,0.9l-0.2,0.9c-0.1,0.7-0.3,1.4-0.4,2c-0.2,1.4-0.5,2.7-0.7,4.1
								c-0.4,2.7-0.9,5.4-1.3,8.1c-0.9,5.4-1.8,10.8-3,16.2c0.9-6.5,2.5-12.7,2.7-18.8c-0.2,0.5-0.4,1-0.5,1.5
								c-0.8,4.2-1.6,8.4-2.4,12.6c0,1.3,0,2.6-0.1,3.9c-0.1,9.7-2.5,21.1-4.3,32.3c0,0.6-0.3,1.1-0.9,1.4c-0.3,0.1-0.5,0.1-0.8,0.1
								l-1.7,0c-1.1,0-2.8,0.4-4.7,0.7c2,0,4,0.1,6,0.1l0.6,0c0.2,0,0.3,0,0.5,0c0.3,0,0.7-0.2,0.9-0.4c0.6-0.4,0.9-1.1,0.9-1.8
								c0.1-0.4,0.1-0.8,0.2-1.2c-0.1,0.4-0.2,0.8-0.3,1.2c-0.1,0.9-0.9,1.5-1.6,1.5c0.6-0.3,1-0.9,1.1-1.6c0.5-2.5,1.2-5,1.5-7.8
								c-0.2,2.3-0.4,4.5-0.7,6.7c0.6-2.6,1.1-5.4,1.6-8.2c-0.1,3.3-0.9,6.4-1.5,9.4c-0.1,0.8-0.4,1.6-1.1,2.1
								c-0.3,0.2-0.7,0.4-1.1,0.5c-0.5,0.1-0.9,0.1-1.4,0.2l1.6,0c0.5,0,1-0.2,1.4-0.5c-0.4,0.3-0.9,0.5-1.4,0.5c-0.2,0-0.5,0-0.7,0
								l-0.9,0c0,0,0,0,0.1,0c-3.6,0-7.1,0.3-10.3,0.6c2.9,0,5.7,0.1,8.4,0.3l2.1,0.1c0.7,0,1.5,0.1,2.2,0c1.5-0.3,2.6-1.9,2.7-3.5
								c0-0.3,0.1-0.6,0.1-0.9c0.1-1,0.2-2,0.3-3c-0.1,1-0.2,2-0.3,3l-0.1,1c0,1-0.4,1.9-1,2.6c-0.6,0.7-1.6,1.1-2.6,1.1l-2.6,0
								l-2.5,0c-3.4,0-6.7-0.1-10.1-0.2L92.3,151l-5-0.2l-2.5-0.1l-1.3,0c-0.4,0-0.8,0-1.2-0.1c-0.4-0.1-0.8-0.3-1.1-0.5
								c0.1,0.4,0.4,0.8,0.7,1.1c0.9,0.3,1.5,0.2,2.3,0.2l2.1,0l4.3,0.1c2.9,0.1,5.7,0.2,8.6,0.2C104.9,152,110.6,152.3,116.2,152.6
								z"/>
						</g>
					</g>
				</g>
			</g>
		</g>
	</g>
	<g>
		<g>
			<g>
				<g>
					<g opacity="0.8">
						<g opacity="0.8">
							<path fill="#FAF8F7" d="M100.3,87.7c-2.2,0-4.4-0.2-6.3-0.3c-1.9-0.1-3.8,0-5.4,0.3c-0.8,0.1-1.6,0.4-2.3,0.6
								c-0.3,0.1-0.7,0.3-0.9,0.4l-0.2,0.1c-0.1,0-0.1,0-0.2,0.1l-0.3,0.2l-0.2,0.1l-0.1,0.1l0,0l0,0c0,0-0.1,0.1,0.1-0.1l0,0
								c0,0,0,0,0,0l0,0l-0.2-0.2l-0.4-0.3c-0.4-0.4-0.7-0.6-1-0.8c-0.2-0.2-0.4-0.2-0.5-0.2c0,0,0,0-0.1,0l0,0c0-0.1,0,0,0,0l0,0
								c0,0,0.1,0,0.2,0c0.2,0,0.4-0.1,0.8-0.2c0.2-0.1,0.4-0.1,0.6-0.2c0.1-0.1,0.3-0.1,0.4-0.2c0.1,0,0.2-0.1,0.2-0.1c0,0,0,0,0,0
								c0,0,0,0.1,0,0.1c0.1,0.2,0.4,0.5,0.8,0.7c0.2,0.1,0.5,0.2,0.7,0.2l0.3,0.1l0.4,0c-0.2,0-0.1,0-0.1,0l0,0l0,0l0,0l0.1,0
								l0.1,0c0.6,0,1.2-0.2,1.9-0.5c1.3-0.6,2.9-1.9,3.4-2.8c0.1-0.2,0.2-0.4,0.3-0.6c0,0,0-0.1,0-0.1c0,0,0,0,0,0l0,0l0-0.1l0-0.2
								l0,0l0,0c-0.1,0.2,0,0.1,0,0.1l0,0l0,0l0-0.1c0-0.2-0.1-0.4-0.1-0.7l-0.1-0.5c-0.1-0.2-0.1-0.4-0.2-0.5
								c-0.4-0.9-1-1.6-1.8-1.8c-0.7-0.2-1.4,0.1-1.9,0.4c0.2,0.1,0.4,0.2,0.6,0.3c0.5,0.4,0.6,1.1,0.5,1.5c0,0.1,0,0.1,0,0.2
								c0,0,0,0.3,0,0.5c0,0.2,0,0.3,0,0.4c0,0,0,0,0,0.1c0.3,0,0.8,0,1.1,0c0.3,0,0.6,0.1,0.8,0.1l0.1,0l0,0c0,0,0-0.3,0-0.2l0,0
								l0,0.1L91.3,84c-0.1,0-0.1-0.2-0.2-0.2l-0.2-0.1l-0.2-0.1c-0.3-0.1-0.7-0.3-1.1-0.6l-0.1-0.1l0,0c0,0,0,0,0,0l0,0
								c0,0,0,0-0.1,0l-0.6,0.4c-0.3,0.2-0.6,0.4-0.9,0.5c-0.6,0.3-1,0.4-1.2,0.4c0,0-0.1,0-0.1,0c0,0,0,0,0,0c0,0,0,0,0,0.1l0,0
								c-0.1-0.3,0.5,2.3,0.3,1.2l0,0l-0.1,0l-0.1,0c-0.1,0-0.2-0.1-0.2-0.1c0,0,0.1-0.1,0.1-0.1c0.1,0,0.1-0.1,0.1-0.1c0,0,0,0,0,0
								c0,0.1-0.1,0.4-0.3,0.8c-0.2,0.3-0.5,0.6-0.7,0.8c-0.1,0.1-0.2,0.1-0.2,0.1c-0.7,0.4-0.2,0.1-0.4,0.2l-0.1,0l-0.2,0
								c-0.1,0-0.2,0.1-0.3,0.1c-0.2,0.1-0.3,0.1-0.5,0.2c-0.3,0.1-0.5,0.2-0.7,0.2c-0.4,0.1-0.6,0.1-0.8,0.1l-0.1,0c0,0,0,0,0,0
								l0-0.1c0,0,0,0,0.1,0l0.1,0c0.2,0.1,0.4,0.2,0.8,0.5c0.2,0.2,0.4,0.3,0.7,0.6l0.5,0.5l0.8,0.8l1.2,1.3l0.2,0.2
								c0,0.3,0.2-0.3,0.1,0.6l0,0l0,0l0.2-0.1l0.4-0.3l0.1-0.1c0,0,0,0,0,0l0,0c0,0,0,0,0,0l0.1-0.1c0.1,0,0.2-0.1,0.3-0.1
								c0.1-0.1,0.2-0.1,0.3-0.1c1-0.4,2.6-0.6,4.5-0.7c1,0,1.9,0,3.1,0.1c1.2,0.1,2.5,0.1,3.7,0.2c1.3,0,2.8,0.1,4.3,0
								c0.8,0,1.5-0.1,2.3-0.2c0.4,0,0.8-0.1,1.2-0.2c0.2,0,0.4-0.1,0.6-0.1l0.3-0.1c0,0,0,0,0,0c0-0.1,0.1-0.3,0.3-0.5
								c0.2-0.2,0.4-0.2,0.6-0.1c0.2,0.1,0.5,0.2,0.6,0.5c0.1,0.3-0.1,0.6-0.4,0.7c-0.6,0.2-1.7,0.5-3,0.7c-0.3,0-0.7-0.1-0.8-0.3
								c0,0,0-0.1-0.1-0.1c0,0,0,0,0-0.1l0-0.1l0,0l0,0c2.4-0.6-3.3,0.8-2.7,0.7l0.1,0c0.1,0,0.2,0,0.3,0c0.1,0,0.2,0,0.3,0
								c0.5,0,0.9,0.2,1.1,0.2c0.2,0.1,0.1,0.1-0.1-0.1c-0.1-0.1-0.3-0.2-0.4-0.4l0,0c0.4,0.6-1-1.4,0.9,1.4l0,0l0,0l0.1,0l0.1-0.1
								c0,0,0,0,0,0c0.2-0.1,0.8-0.4,1.7-0.8c0.8-0.4,1.3-1,1.4-1.6c0.1-0.6-0.1-1-0.2-1.3c-1,0.3-1.9,0.2-2.6,0.1
								c-0.7-0.1-1.4-0.3-2-0.5c-0.3,0.2-0.5,0.4-0.8,0.5c-0.3,0.2-0.4,0.4-0.6,0.6c-0.3,0.5-0.6,1-0.6,1.6c0,0.3,0,0.5,0.1,0.7
								c0.1,0.3,0.2,0.6,0.5,0.8c0.5,0.4,1.1,0.5,1.8,0.5c1.2-0.1,2.4-0.4,3.5-0.6c1.1-0.2,2.2-0.4,3.2-0.6c1-0.2,2-0.6,2.6-1.4
								c0.6-0.8,0.7-1.9,0.4-2.8c-0.3-1-0.8-1.8-1.4-2.6c-0.3-0.4-0.6-0.8-1.1-0.9c-0.5-0.2-1,0-1.4,0.2c-0.6,0.2-1.3,0.5-1.9,0.8
								c-0.2,0.1-0.2,0.1-0.5,0.2l-0.7,0.3c-0.5,0.2-1,0.4-1.5,0.5C103.2,87.4,101.5,87.8,100.3,87.7z"/>
							<path fill="#F8F5F3" d="M104,88.8c-0.1,0-0.2,0-0.3-0.1c-0.5,0.3-0.9,0.6-1.2,0.9C102.9,89.3,103.4,89.1,104,88.8z"/>
							<path fill="#FAF7F6" d="M112.9,87.3c-0.3-0.5-0.7-0.9-1.1-1.4c-0.4-0.4-0.8-0.9-1.5-0.7c-0.6,0.1-1.1,0.4-1.6,0.6
								c-0.3,0.1-0.5,0.1-0.8,0.2l-0.5,0.1c-0.3,0-0.5,0.1-0.7,0.1c-2.5,0.9-4.9,1.7-6.4,1.6c-2.2,0-4.4-0.2-6.3-0.3
								c-1.9-0.1-3.8,0-5.4,0.3c-0.8,0.1-1.6,0.4-2.3,0.6c-0.3,0.1-0.7,0.3-0.9,0.4l-0.2,0.1c-0.1,0-0.1,0-0.2,0.1l-0.3,0.2
								l-0.2,0.1l-0.1,0.1l0,0l0,0c0,0-0.1,0.1,0.1-0.1l0,0c0,0,0,0,0,0l0,0l-0.2-0.2l-0.4-0.3c-0.4-0.4-0.7-0.6-1-0.8
								c-0.2-0.2-0.4-0.2-0.5-0.2c0,0,0,0-0.1,0l0,0c0-0.1,0,0,0,0l0,0c0,0,0.1,0,0.2,0c0.2,0,0.4-0.1,0.8-0.2
								c0.2-0.1,0.4-0.1,0.6-0.2c0.1-0.1,0.3-0.1,0.4-0.2c0.1,0,0.2-0.1,0.2-0.1c0,0,0,0,0,0c0,0,0,0.1,0,0.1
								c0.1,0.2,0.4,0.5,0.8,0.7c0.2,0.1,0.5,0.2,0.7,0.2l0.3,0.1l0.4,0c-0.2,0-0.1,0-0.1,0l0,0l0,0l0,0l0.1,0l0.1,0
								c0.6,0,1.2-0.2,1.9-0.5c1.3-0.6,2.9-1.9,3.4-2.8c0.1-0.2,0.2-0.4,0.3-0.6c0,0,0-0.1,0-0.1c0,0,0,0,0,0l0,0l0-0.1l0-0.2l0,0
								l0,0c-0.1,0.2,0,0.1,0,0.1l0,0l0,0l0-0.1c0-0.2-0.1-0.4-0.1-0.7l-0.1-0.5c-0.1-0.2-0.1-0.4-0.2-0.5c-0.4-0.9-1-1.6-1.8-1.8
								c-0.7-0.2-1.4,0-1.9,0.4c0.2,0.1,0.5,0.2,0.6,0.3c0.3,0.3,0.5,0.7,0.5,1.1c0,0.2,0,0.4-0.1,0.5c0,0,0,0.1,0,0.1l0,0.4
								c0,0.2,0,0.4,0,0.4l0,0l0.4,0c0.3,0,0.5,0,0.7,0c0.2,0,0.4,0,0.5,0.1l0.2,0l0.1,0l0,0l0,0c0-0.1,0,0.2,0-0.2l0,0l0,0
								l-0.1,0.1c0,0-0.1,0.1-0.1,0.1c-0.1-0.1-0.1-0.2-0.1-0.2c-0.1,0-0.2-0.1-0.2-0.1c-0.1,0-0.2-0.1-0.3-0.1
								c-0.1-0.1-0.2-0.1-0.4-0.2c-0.1-0.1-0.3-0.2-0.4-0.2L89.6,83l-0.1-0.1l0,0c0,0,0,0,0,0c0,0-0.1,0.1-0.3,0.2
								c-0.2,0.2-0.7,0.5-1.1,0.7c-0.4,0.2-0.8,0.4-1,0.5c-0.1,0.1-0.2,0.2-0.2,0.3c-0.1,0.1-0.1,0.2-0.2,0.3c0,0,0,0,0,0l0,0l0,0
								l0,0c0.1,0.3-0.2-0.6,0.2,0.6l0,0l0,0l0,0l-0.1,0l-0.2-0.1c0,0-0.2-0.1-0.1-0.1c0.1,0,0.1-0.1,0.2-0.1c0.1-0.2,0,0.1-0.2,0.5
								c-0.3,0.5-0.7,0.9-0.9,1l0,0l0,0L85.1,87l-0.1,0l-0.1,0c-0.1,0-0.2,0-0.3,0.1c-0.3,0.2-0.5,0.3-0.7,0.3
								c-0.8,0.3-1.2,0.3-1.5,0.3c-0.1,0-0.1,0-0.1,0c0,0,0-0.1,0-0.1c0,0,0,0,0,0.1c0.1,0,0.2,0.1,0.4,0.2c0.2,0.1,0.4,0.3,0.8,0.6
								c0.3,0.3,0.7,0.7,1.5,1.5l1.2,1.3l0.4,0.4l0.2,0.2c-0.5,0.4-0.1,0.1-0.2,0.2l0,0l0,0l0.2-0.2l0.4-0.3l0.1-0.1l0,0l0,0l0,0
								c0.2-0.1,0.4-0.3,0.6-0.4c0.5-0.3,1.2-0.5,1.9-0.6c1.5-0.3,3.5-0.3,5.5-0.2c2.2,0.1,4.7,0.4,7.7,0.4c1.5,0,3.1-0.1,4.8-0.5
								c0.6-0.1,0.4-0.1,0.5-0.1l0.1-0.1l0.2-0.2c0.2-0.2,0.6-0.5,1.1-0.4c0.2,0,0.5,0.2,0.6,0.4c0.1,0.2,0.1,0.6-0.1,0.8
								c-0.3,0.4-0.8,0.5-1.2,0.5c-0.4,0.1-0.8,0.2-1.3,0.3c-0.5,0.1-1.1,0.3-1.7,0.2c-0.1,0-0.3-0.1-0.4-0.2
								c-0.1,0-0.1-0.1-0.1-0.2c0,0,0,0,0-0.1l0-0.1l0,0l0,0l0,0c0.6-0.2-5.1,1.3-2.7,0.7l0.1,0l0.1,0c0.4-0.1,0.9,0,1.2,0.1
								c0.3,0.1,0.5,0.2,0.5,0.2c0,0-0.3-0.2-0.6-0.5l0-0.1l0,0l0,0l0,0c0.4,0.6-1-1.4,1,1.4l0,0l0.1-0.1l0.1-0.1c0,0,0,0,0,0
								c0,0,0,0,0.1-0.1c0.3-0.2,1-0.5,1.8-0.9c0.9-0.4,1.4-1.1,1.4-1.7c0.1-0.6-0.1-1-0.3-1.3c-1.1,0.4-2,0.3-2.8,0.2
								c-1.2,0.5-2.2,0.9-2.8,1.5c-0.3,0.3-0.5,0.6-0.6,1c-0.1,0.2-0.1,0.3-0.1,0.4c0,0,0,0.1,0,0.1l0,0c0,0,0,0.1,0,0.1
								c0,0.1,0.1,0.2,0.2,0.3c0.3,0.4,0.8,0.7,1.3,0.7c0.5,0,1,0,1.5-0.1c1-0.2,2-0.3,3.1-0.5c0.9-0.2,1.8-0.3,2.6-0.5
								c0.8-0.2,1.6-0.5,2.2-1.1c0.6-0.6,0.8-1.5,0.7-2.3c-0.1-0.8-0.4-1.6-0.8-2.3C112.9,86.8,112.9,87,112.9,87.3z"/>
							<path fill="#F8F5F3" d="M114.3,85.6c-0.1-0.3-0.5-0.4-0.8-0.2c-0.3,0.2-0.5,0.6-0.6,1.2c0.4,0.7,0.7,1.5,0.8,2.3
								c0.1,0.8-0.1,1.7-0.7,2.3c-0.6,0.6-1.4,0.9-2.2,1.1c-0.8,0.2-1.7,0.3-2.6,0.5c0.9-0.1,1.8-0.3,2.6-0.4
								c0.9-0.2,1.8-0.5,2.6-1.1c0.7-0.6,1.2-1.6,1.3-2.6C114.9,87.7,114.7,86.6,114.3,85.6z"/>
							<path fill="#FCFAF9" d="M118.2,83.4c-0.7-1.4-1.6-2.8-2.6-3.8c-0.5-0.5-1.1-1-1.9-1.2c-0.7-0.3-1.4-0.3-2.1-0.2
								c-1.4,0.1-2.9,0.6-4.4,1.1c-0.9,0.2-1.1,0.3-1.6,0.4c-0.4,0.1-0.8,0.1-1.3,0.2c-1.7,0.2-3.6,0.2-5.5,0.1
								c-1-0.1-1.9-0.2-2.9-0.3c-1-0.1-2-0.3-3-0.4c-2.1-0.2-4.3-0.4-6.7-0.3c-1.2,0.1-2.4,0.2-3.7,0.5c-1.3,0.3-2.4,0.6-3.9,1.3
								l-0.7,0.6l-0.3,0.2l-0.1,0.1l-0.2,0.2c-0.1,0.1-0.3,0.3-0.4,0.4c-0.3,0.3-0.7,0.8-1.1,1.4c-0.2,0.3-0.4,0.7-0.6,1.1
								c-0.1,0.2-0.2,0.4-0.2,0.6c-0.1,0.2-0.2,0.7-0.2,0.9l0,0.1l-0.1,0.3l0,0.2c0,0.2-0.1,0.5-0.1,0.7c0,0.5,0,0.9,0.1,1.3
								c0.1,0.8,0.3,1.4,0.5,1.9l0.1,0.3l0.1,0.3c0.1,0.1,0.2,0.3,0.2,0.5c1.1,2.1,2.7,3.6,4.4,4.5c1.7,1,3.5,1.5,5.3,1.6
								c3.8,0.3,6.8-1,9.1-2.4c1.2-0.7,2.1-1.5,3.1-2.3c1-0.9,2-2,3-3.5c0.2-0.4,0.4-0.8,0.6-1.2c0.1-0.2,0.2-0.4,0.3-0.7
								c0.1-0.2,0.2-0.4,0.3-0.8c0.3-0.9,0.4-2,0.4-2.9c0-0.9-0.1-1.7-0.2-2.3c0-0.3-0.1-0.6-0.2-0.9c0-0.3-0.1-0.8-0.2-1.1
								c-0.7-3.2-2.2-6.1-4.8-8c-2.5-1.9-5.7-2.6-8.9-2.3c-1.6,0.1-3.2,0.5-4.6,1.1c-1.4,0.5-2.8,1.3-4.1,2.5
								c-0.2,0.1-0.3,0.3-0.5,0.5l-0.2,0.2l-0.3,0.3L78,74.5l-0.1,0.2l-0.1,0.1L77.6,75l-0.1,0.2c-0.6,0.9-1,1.8-1.3,2.7
								c-0.5,1.9-0.6,3.9,0,6.1c0.2,0.5,0.4,1.1,0.7,1.6c0.2,0.3,0.3,0.5,0.5,0.8c0.2,0.3,0.5,0.7,0.8,1l0.2,0.2l0.2,0.2l0,0
								l0.1,0.1l0.2,0.2l0.4,0.3c0.5,0.4,1.1,0.7,1.7,1c2.3,1,4.7,1.1,6.9,0.2c0.6-0.2,1.1-0.5,1.7-0.8l0.2-0.1l0.3-0.2
								c0.2-0.1,0.3-0.3,0.5-0.4l0.3-0.2l0.1-0.1l0,0l0.3-0.3l0-0.1l0.2-0.2l0.3-0.4c0.2-0.3,0.4-0.6,0.6-0.9
								c0.3-0.6,0.6-1.2,0.8-1.8c0.4-1.2,0.5-2.4,0.3-3.7c-0.1-1.2-0.5-2.5-1.4-3.8c-0.2-0.3-0.4-0.6-0.7-0.9
								c-0.1-0.2-0.3-0.3-0.4-0.4c-0.2-0.2-0.4-0.4-0.7-0.5l-0.3-0.2l-0.2-0.1l-0.1-0.1l-0.1,0l0,0c-0.8-0.4-0.3-0.1-0.4-0.2
								l-0.1-0.1c-0.2-0.1-0.4-0.2-0.6-0.2c-1.5-0.6-3.2-0.6-4.6-0.3c-1.4,0.3-2.5,0.9-3.4,1.5c-0.9,0.7-1.7,1.5-2.3,2.4
								c-0.2,0.2-0.3,0.5-0.4,0.7c-0.1,0.1-0.2,0.3-0.2,0.5l-0.2,0.5l-0.1,0.3l-0.1,0.2l0,0.1L77,80l0,0.1l-0.1,0.4
								c-0.2,1-0.3,1.9-0.3,2.8c0,1.7,0.4,3.1,0.7,4.3c0.4,1.2,0.7,2,1.1,3.2l0.4,0.8c0.2,0.4,0.4,0.7,0.5,1.1
								c0.4,0.7,0.8,1.4,1.3,2c1.9,2.6,4.8,4.4,8,4.9c1.6,0.2,3.2,0.2,4.9-0.1c1.5-0.3,2.3-0.4,3.3-0.7c1.1-0.3,2.9-0.7,4.9-2.3
								c0.1-0.1,0.3-0.3,0.5-0.4l0.3-0.3l0.1-0.1l0,0l0.2-0.3c0.1-0.2,0.3-0.3,0.4-0.5c0.5-0.7,0.9-1.3,1.2-2
								c0.6-1.4,0.9-2.9,0.7-4.7c-0.1-0.9-0.4-2-1-3c-0.6-1-1.4-2-2.4-2.7l-6.7-4.8l-3.3,7.5c-0.8,1.9-0.9,3.8-0.5,5.5
								c0.4,1.7,1.3,3.4,2.8,4.7l2.1,1.9l2.8-0.2c1.6-0.1,3.5-0.3,5.6-0.7c2-0.4,4.3-1.2,6.5-2.5c1.6-1,2.7-2.1,3.8-3.8
								c0.5-0.9,1-1.9,1.2-3.3c0.1-0.4,0.1-0.7,0.1-1.1c0-0.4,0-0.8-0.1-1.2c-0.1-0.4-0.2-0.8-0.3-1.3c-0.2-0.5-0.5-1.2-0.7-1.6
								l-0.2-0.2l0,0c-0.5-0.8-0.2-0.3-0.3-0.5l-0.1-0.1l-0.1-0.1l-0.2-0.3c-0.2-0.2-0.3-0.4-0.5-0.5c-0.7-0.7-1.6-1.2-2.5-1.5
								c-1.8-0.7-3.4-0.5-4.6-0.2c-1.3,0.3-2.4,0.9-3.3,1.8c-0.5,0.4-0.9,0.9-1.3,1.5c-0.2,0.3-0.4,0.6-0.6,0.9
								c-0.1,0.2-0.2,0.3-0.2,0.5c-0.1,0.3-0.2,0.5-0.3,0.8c-0.8,2.7,0.2,5.4,1.6,7c1.4,1.6,3.1,2.5,5,2.9l0.4,0.1l0.5,0.1l0.5,0
								l0.2,0l0.2,0l0.3,0l0,0l0.1,0l0.2,0c0.2,0,0.4,0,0.7-0.1l0.3-0.1l0.1,0c0,0,0,0,0,0l0-0.1l0-0.3l-0.1-1.2l-0.2-2.3l0-0.6
								l0-0.3c0-0.1,0,0,0,0l0,0.1l0.4,1.1l0.7,2.2l0.4,1l0.1,0c0.2-0.1,0.3-0.1,0.5-0.2c1.2-0.5,2.3-1.3,3.3-2.2
								c1.9-1.8,3.3-4.2,3.8-6.7c0.3-1.3,0.3-2.6,0-3.8c-0.1-0.3-0.2-0.6-0.2-0.9L119,79l0-0.1l0-0.1l0,0c0.6-0.1,0.2,0,0.3-0.1l0,0
								l0,0.2l0.2,1.9l0,0c0.1-0.8,0.1-1.6,0-2.3l-0.1-0.3c0-0.1-0.1-0.1-0.2-0.1l-0.3-0.1l-0.6-0.1L118,78l0.3-0.3l0.7-0.6
								c0-0.1-0.1-0.2-0.1-0.3l-0.3-0.6c-0.9-1.6-2.2-2.8-3.8-3.6l-0.6-0.3c-0.3-0.1-0.5-0.2-0.8-0.3l-0.5-0.1l-0.2,0l-0.4,0l-0.2,0
								c-0.8-0.1-1.7-0.1-2.5,0.1c-1.6,0.2-3,0.8-4.3,1.6c-1.2,0.8-2.3,1.7-3.3,2.7c-0.5,0.5-1,1.2-1.5,2.3
								c-0.2,0.6-0.5,1.2-0.5,2.1l0,0.3l0,0.4l0,0.3l0,0.1l0,0l0,0.2l0,0.1l0,0.2c0,0.1,0.1,0.3,0.1,0.4c0.1,0.3,0.2,0.5,0.3,0.8
								c0.4,1,1,1.8,1.8,2.4c0.8,0.6,1.9,1.2,3.4,1.3c0.4,0,0.8,0,1.2-0.1l0.3-0.1c0.1,0,0.3-0.1,0.4-0.1c0.3-0.1,0.6-0.2,0.9-0.3
								l0.1,0l0,0l0.4-0.2l0.1,0l0.1-0.1c0.3-0.2,0.6-0.4,0.9-0.7c0.6-0.6,1-1.2,1.3-1.9c0.3-0.6,0.4-1.2,0.5-1.7
								c0.1-1,0.1-1.7,0-2.4c0-0.3-0.1-0.6-0.2-0.9l-0.1-0.4l-0.1-0.2l0-0.1c-0.1-0.5-0.3-1.1-0.5-1.6c-0.2-0.6-0.3-1.2-0.5-1.8
								c-0.1-0.3-0.2-0.6-0.4-1.1c-0.2-0.5-0.4-1-0.8-1.7c-0.6-1-1.3-1.8-2.1-2.4c-0.8-0.5-1.4-0.8-2.1-1l-0.3-0.1
								c-0.1,0-0.1,0-0.2,0l-0.2,0.1l-1,0.4l-2,0.8c-1.3,0.6-2.6,1.1-3.9,1.6c-2.6,1.1-5.2,2.2-7.8,3.3L88,75.5
								c-0.4,0.1-0.4,0.4-0.6,0.6c-0.1,0.2-0.2,0.4-0.3,0.7c-0.4,0.9-0.6,2.1-0.5,3.3c0.1,1.2,0.5,2.4,0.9,3.5
								c0.4,1.1,0.8,2.2,1.4,3.2c1.1,1.9,2.6,3.4,4.4,4.3c0.9,0.5,1.8,0.8,2.8,0.9c0.5,0.1,1,0.1,1.5,0.1l0.4,0c0.2,0,0.4,0,0.6,0
								c0.4,0,0.7-0.1,1.1-0.2l4.4-1l-0.4-4.1c-0.2-2.6-1.4-4.7-2.9-6.4c-0.8-0.8-1.7-1.5-2.7-2.1c-0.5-0.3-1-0.5-1.7-0.8
								c-0.4-0.1-0.5-0.1-0.7-0.2l-0.1,0l0,0l-0.2-0.1l-0.1,0l-0.1,0l-0.4-0.1c-2.3-0.4-4.5,0.1-6.3,1.2c-0.9,0.5-1.7,1.2-2.5,1.9
								c-0.3,0.3-0.9,1.1-0.9,1.2c-0.3,0.5-0.6,1-0.8,1.6c-0.2,0.6-0.4,1.2-0.4,2c0,0.4,0,0.8,0.1,1.2c0.1,0.3,0.2,0.6,0.2,0.6
								l0,0.1l0,0c0,0,0.1,0.2,0,0.1l0,0l0,0.1l0.2,0.3c0.5,0.8,1.3,1.4,2.1,1.7c0.8,0.3,1.5,0.3,2.2,0.2c0.7-0.1,1.3-0.3,1.9-0.7
								c0.3-0.2,0.6-0.4,0.8-0.7c0.1-0.1,0.2-0.3,0.4-0.4c0.1-0.2,0.3-0.4,0.4-0.6c0.1-0.1,0.1-0.2,0.1-0.3l0,0l0,0l0.1-0.2l0,0
								l0-0.1l0.1-0.2c0.1-0.3,0.1-0.7,0.1-1c0-0.6-0.2-1.2-0.4-1.7c-0.5-1-1.3-1.8-2.2-2.3c-0.2-0.1-0.5-0.2-0.8-0.3
								c-0.2-0.1-0.2-0.1-0.3-0.1l-0.2-0.1l-0.2,0c-0.5-0.1-1-0.1-1.4,0c-0.9,0.1-1.8,0.4-2.5,0.8c-0.4,0.2-0.7,0.4-1.1,0.7
								c-0.3,0.2-0.7,0.5-1,0.9c-0.2,0.2-0.3,0.5-0.4,0.8C82,84,82,84.3,82,84.6c0.1,0.5,0.3,0.8,0.5,1c0.4,0.5,0.8,0.8,1.2,1.2
								c0.8,0.6,1.7,0.9,2.5,1c1.5,0.2,2.6-0.5,2.3-1.2l-1.1-2.2l-0.3-0.6l-0.1-0.2l0,0l0,0l0,0l0,0l-0.1,0l-0.7,0.2
								c-0.7,0.3-1.2,0.4-1.5,0.5c-0.3,0.1-0.5,0.1-0.7,0.1c-0.2,0-0.2,0-0.3,0c0-0.1,0.1,0,0.2,0.1c0.2,0.1,0.5,0.3,1.1,0.9
								l0.2,0.2l0.3,0.3l0.6,0.7c0,0,0,0,0,0l0,0c0,0,0.1-0.1-0.1,0l0,0l0,0l0.1,0l0.2-0.2c0.1-0.1,0.1-0.1,0.2-0.1
								c0.3-0.2,0.5-0.2,0.5-0.3c0,0.1,0-0.2,0-0.2l0-0.1l0,0l0,0c0.2-1.9,0.1-0.5,0.1-0.9l0,0l0,0l0.1,0.1c0.3,0.2-0.2,0.2-0.1,0.3
								c-0.1,0.1-0.1,0.2-0.1,0.2c-0.1,0.1,0,0,0.2-0.1c0.2-0.1,0.5-0.2,0.7-0.2c0.1,0,0.2,0,0.2,0c0,0,0.1,0,0,0l0,0l0.6,0.1l0,0
								l0,0.1l-0.1,0.1c0,0.1,0,0,0-0.1c0-0.1,0-0.1-0.1-0.2c-0.1-0.1-0.2-0.2-0.2-0.3c-0.1-0.2-0.1-0.3-0.1-0.1
								c0,0.2-0.1,0.6-0.2,0.8c-0.1,0.2-0.2,0.2,0.2-0.1c0.1,0.1,0.2,0,0.4,0c0.2,0,0.5,0.1,0.8,0.2c0.1,0,0.3,0.1,0.4,0.2l0.2,0.1
								c0.1,0,0,0,0,0c0,0,0,0,0-0.1l0,0c-0.2,0.3-0.1,0.1-0.1,0.1l0,0l0,0l0,0l0.1-0.1c0.1-0.1,0.1-0.2,0.2-0.2c0,0,0,0,0,0
								c0.4-0.4,1.1-0.8,1.8-0.8c0.2,0,0.3,0,0.5,0c0.1,0,0.2,0,0.5,0.2c0,0,0.2,0.1,0.3,0.2c0.1,0.1,0.3,0.2,0.4,0.3
								c0.5,0.5,0.8,1.2,0.8,1.8c1-1.1,2.1-2.1,3.1-3.2c0,0,0,0,0-0.1l0-0.1l0-0.1l0-0.4l0,0c-0.2,0-0.3,0-0.4-0.1
								c-0.3-0.1-0.5-0.2-0.8-0.4c-0.5-0.4-0.8-0.9-1-1.4c-0.2-0.5-0.4-1.1-0.5-1.7c-0.1-0.3-0.1-0.6,0.1-0.8
								c0.2-0.2,0.5-0.3,0.7-0.5l3.1-1.4c0.5-0.2,1-0.6,1.6-0.5c0.3,0.1,0.5,0.3,0.6,0.5c0,0,0.2,0.3,0.3,0.8l1.2,3.1
								c0.1,0.3,0.2,0.5,0.2,0.5l0,0l0,0l0.2,0c0.4-0.1,0.8-0.1,1.2-0.1c0.7,0,1.2,0.1,1.4,0.2c0.1,0,0.1,0.1,0,0l0,0l0,0
								c-0.1-0.1,0.2,0.1,0.1,0.1l0,0l-0.1,0.1c0,0,0.1,0,0,0c0-0.1,0-0.4,0.2-0.6c0.1-0.2,0.1-0.1,0,0c-0.1,0-0.2,0.1-0.2,0.1
								c-0.1,0,1.2,0,0.6,0l0,0l0,0l0-0.1l0-0.1c0,0,0,0,0,0c0,0,0,0,0.1,0.1l0.1,0c0.2,0,0.7,0.1,1.3,0.3c0.2,0.1,0.3,0.1,0.5,0.2
								c0,0,0,0,0,0l0.1-0.1c0-0.1,0.2-0.2,0.3-0.4c0.2-0.3,0.5-0.5,0.7-0.7c0.5-0.5,1-0.8,1.4-0.9c0.2-0.1,0.4-0.1,0.5-0.1
								c0,0,0.1,0,0.1,0l0.1,0l0,0l0,0c-0.5-0.1-0.1,0-0.2,0c0,0,0,0,0.1,0l0.1,0l0.2,0l0.1,0c0,0,0,0,0,0c-0.1,0-0.1,0-0.1,0
								c0.1,0,0.4,0.3,0.5,0.4c0,0.1,0,0,0.1,0.1c0,0.1,0.1,0.3,0.1,0.4c0,0.3,0,0.6-0.1,0.8h0l-0.2-0.5l0-0.1c0,0,0-0.1,0,0
								c0,0.1,0.1,0.2,0.1,0.2c0.1,0.3,0.1,0.7,0.1,1.1c-0.1,0.7-0.4,1.4-0.8,2c-0.4,0.6-1,1.1-1.7,1.5c-0.2,0.1-0.4,0.1-0.4,0.2
								c0,0-0.1,0-0.1,0l0,0l0,0l0,0c-0.1-0.4,0.2,0.5,0.2,0.4l0,0l-0.1,0l-0.1-0.1c0,0-0.1-0.1-0.1-0.1c0,0,0-0.1,0.1-0.1
								c0.2-0.1,0.1-0.1,0.1-0.1c0,0,0,0,0,0c0,0-0.1,0-0.1,0c0,0,0,0,0,0c0,0-0.1,0.1-0.2,0.1c-0.1,0.1-0.3,0.2-0.4,0.2
								c-0.1,0-0.1,0-0.2,0.1l-0.1,0c0,0,0,0,0,0l0,0l-0.6,0.1l0,0l0,0l0-0.2c0.1,0.1,0.4,0.3,0.6,0.5c0.2,0.2,0,0.1,0-0.2
								c-0.1-0.4,0.1-0.8,0.1-0.8l0,0c0,0,0,0-0.1,0.1l0,0l0,0c0.4-0.1-0.5,0.1-0.4,0.1l0,0l0,0l0,0l0.2,0.1l0.1,0c0,0,0,0,0,0
								c0,0,0-0.1,0-0.1c0-0.1-0.1,0-0.1,0c-0.1,0-0.3,0-0.6-0.1c-0.1,0-0.3-0.1-0.4-0.1c-0.2-0.1-0.1-0.1-0.2-0.1
								c0,0-0.1,0.2-0.2,0.3c-0.1,0.1-0.3,0.3-0.4,0.4l0,0l0,0c-0.1,0,0.1,0,0.1,0l0,0l0,0l0,0l-0.2,0.1l-0.3,0.2l-0.4,0.2
								c-0.6,0.3-1.4,0.5-2.1,0.7c-1.5,0.4-3.2,0.5-5.1,0.6c0.5,0.5,1,1,1.5,1.5c0.1-0.1,0.3-0.2,0.3-0.2c0,0-0.2,0-0.4-0.1
								c-0.9,0.2-1.9,0.3-2.8,0.5c0.1-0.1,0,0-0.2,0.1c-0.2,0.1-0.5,0.1-0.7,0.1c-0.2,0-0.3-0.1-0.2,0c0.1,0,0.2,0.1,0.4,0.3l0,0
								c-0.9-1.1-0.2-0.3-0.4-0.5l0,0l0,0l-0.1,0.1c0,0,0,0,0,0l-0.1,0.1c-0.1,0-0.2,0.1-0.3,0.2c-0.3,0.1-0.8,0.3-1.3,0.4
								c-0.6,0.1-1.1,0.3-1.6,0.4c-0.5,0.1-0.8,0.1-1.2,0.2c-0.7,0-1.5-0.1-2.1-0.4c-0.6-0.3-1.1-0.9-1.5-1.5
								c-0.2-0.3-0.3-0.6-0.5-1c-0.2-0.4-0.4-0.9-0.5-1.4c-0.4-1.1-0.6-2-0.7-2.7c0-0.3,0-0.6,0.1-0.8c0,0,0-0.1,0-0.1l0,0l0,0
								c0.3-0.1-0.4,0.1-0.3,0.1l0,0l0.1,0l0.2-0.2c0.1-0.1,0.1,0.1,0.1,0.1c0,0,0,0.1,0,0.1c0,0,0,0,0,0c0,0,0.1,0,0.1,0
								c0,0,0.1,0.1-0.1-0.2c-0.2-0.4-0.3-1-0.3-1.1c0,0,0,0,0,0c0,0,0,0,0,0l0,0l0,0c0,0-0.1-0.4-0.1-0.2l0,0l0.1,0.1
								c0.2,0.1,0,0.1,0,0c-0.1,0-0.1,0.1-0.2,0.1c-0.3,0.2-0.8,0.3-0.9,0.3c-0.1,0,0.2,0,0.5,0.2c0.1,0,0.1,0.1,0.2,0.1l0,0l0,0
								l0,0c-0.3-0.8-0.1-0.2-0.2-0.4l0,0L85,81.7c-0.1,0,0.1-0.2,0-0.2c0,0-0.1-0.1-0.1-0.2c-0.1-0.2-0.1-0.4-0.1-0.3
								c0,0.1-0.1,0.4-0.2,0.5c0,0.1,0,0.1-0.1,0.1l0,0c0.1,0-0.3,0.1,0.3-0.1l0,0l0,0l-0.1-0.1c0,0-0.1-0.1-0.1-0.1
								c0,0,0.1,0,0.1,0c0,0,0.1,0,0.1,0c0.1,0,0.1-0.1,0.2-0.1c0.3-0.1,0.7-0.2,1-0.2c0.1,0,0.1,0,0.2,0c0,0-0.2-0.1-0.3-0.2
								l-0.1-0.1l0,0l0,0c0.2,0.2-0.4-0.5,0.4,0.5l0,0l0.1-0.1l0.1-0.2c0,0,0,0,0,0.1c0,0.1,0,0,0,0l0.1,0l0.2-0.1
								c0.2,0,0.4-0.1,0.7-0.2c0.5-0.1,0.8,0,1.1,0.1c0.5-0.4,1.2-0.6,1.9-0.4c0.8,0.2,1.4,0.9,1.8,1.8c0,0.1,0.1,0.3,0.2,0.5
								l0.1,0.5c0.1,0.3,0.1,0.6,0.1,0.7l0,0.1l0,0l0,0c0-0.1,0,0.1,0-0.1l0,0l0,0l0,0.2l0,0.1l0,0c0,0,0,0,0,0c0,0,0,0.1,0,0.1
								c0,0.2-0.1,0.4-0.3,0.6c-0.6,0.9-2.2,2.2-3.4,2.8c-0.7,0.3-1.3,0.5-1.9,0.5l-0.1,0l-0.1,0l0,0l0,0l0,0c0,0-0.1,0,0.1,0
								l-0.4,0l-0.3-0.1c-0.2-0.1-0.5-0.1-0.7-0.2c-0.4-0.2-0.7-0.5-0.8-0.7c0,0,0-0.1,0-0.1c0,0,0,0,0,0c-0.1,0-0.2,0.1-0.2,0.1
								c-0.2,0.1-0.3,0.1-0.4,0.2c-0.3,0.1-0.5,0.2-0.6,0.2c-0.4,0.1-0.6,0.1-0.8,0.2c-0.1,0-0.2,0-0.2,0l0,0c0,0,0,0,0,0l0,0
								c0,0,0-0.1,0.1,0c0.1,0.1,0.2,0.1,0.5,0.2c0.2,0.1,0.5,0.4,1,0.8l0.4,0.3l0.2,0.2l0,0c0,0,0,0,0,0l0,0
								c-0.2,0.2-0.1,0.1-0.1,0.1l0,0l0,0l0.1-0.1l0.2-0.1L85,89c0.1-0.1,0.2-0.1,0.2-0.1l0.2-0.1c0.2-0.1,0.6-0.3,0.9-0.4
								c0.7-0.3,1.4-0.5,2.3-0.6c1.6-0.3,3.5-0.3,5.4-0.3c1.9,0.1,4.1,0.3,6.3,0.3c1.2,0.1,2.9-0.4,4.8-1c0.5-0.2,1-0.3,1.5-0.5
								l0.7-0.3c0.3-0.1,0.3-0.2,0.5-0.2c0.6-0.3,1.3-0.6,1.9-0.8c0.4-0.2,0.9-0.4,1.4-0.2c0.5,0.2,0.8,0.6,1.1,0.9
								c0.6,0.8,1.1,1.6,1.4,2.6c0.3,0.9,0.2,2-0.4,2.8c-0.6,0.8-1.6,1.2-2.6,1.4c-1,0.2-2.1,0.4-3.2,0.6c-1.1,0.2-2.3,0.5-3.5,0.6
								c-0.6,0-1.3-0.1-1.8-0.5c-0.2-0.2-0.4-0.5-0.5-0.8c-0.1-0.2-0.1-0.5-0.1-0.7c0-0.5,0.3-1.1,0.6-1.6c0.2-0.2,0.3-0.4,0.6-0.6
								c0.2-0.2,0.5-0.4,0.8-0.5c-0.7-0.2-1.4-0.3-2.1-0.2c-0.8,0.1-1.6,0.4-2.3,0.9c-0.7,0.5-1.4,1.2-1.8,2.4
								c-0.1,0.3-0.2,0.6-0.2,1c0,0.2,0,0.4,0,0.5c-0.1,0-0.1,0.1-0.1,0.2c-0.1,0.4-0.1,0.9,0,1.3c0.7,1.1,1.6,1.5,2.4,1.8l0.7,0.2
								c0.4,0,1-0.1,1.4-0.1l2.8-0.2c1.8-0.1,3.6-0.2,5.4-0.4l2.6-0.2c0.8,0.1,1.8-0.4,2.4-0.8c1.4-0.8,2.2-1.5,2.9-2.3
								c0.7-0.8,1.2-1.7,1.6-2.8c0.3-1.1,0.4-2.3,0.2-3.4C119,85.6,118.6,84.5,118.2,83.4z"/>
							<path fill="#F8F4F2" d="M118.2,83.4c0.5,1.1,0.8,2.2,1,3.4c0.1,1.2,0.1,2.3-0.2,3.4c-0.3,1.1-0.8,2-1.6,2.8
								c-0.7,0.8-1.5,1.5-2.9,2.3c-0.7,0.4-1.6,0.9-2.4,0.8l-2.6,0.2c-1.8,0.1-3.6,0.2-5.4,0.4l-2.8,0.2c-0.5,0-1,0.1-1.4,0.1
								l-0.7-0.2c-0.8-0.3-1.7-0.7-2.4-1.8c0.1,0.8,0.3,1.5,0.6,2.1c0.1,0.3,0.3,0.5,0.5,0.8l0.1,0.2l0.1,0.1c0,0,0,0,0.1,0l0.2,0
								c0.4,0,0.9,0.1,1.3,0.1c2.8,0.1,5.7,0.2,8.5,0.3c1.5,0,3.1,0.1,4.6,0.1l2.4,0.1c0.8-0.3,1.6-0.7,2.3-1.1
								c1.3-0.8,2.2-1.6,2.9-2.3c0.7-0.8,1.2-1.5,1.6-2.4c0.8-1.6,1.2-3.6,1.1-5.6c-0.2-4.1-2.3-8-5.1-10.6
								c-0.7-0.7-1.5-1.2-2.3-1.6c-0.9-0.4-1.8-0.7-2.6-0.8c-0.4-0.1-0.8-0.1-1.3-0.1l-1.4,0.1c-1,0.2-2.1,0.5-3.1,0.9
								c-0.5,0.2-1.1,0.4-1.5,0.5c-0.2,0-0.3,0.1-0.5,0.1c-0.3,0.1-0.7,0.1-1.1,0.2c-0.8,0.1-1.6,0.1-2.5,0.2
								c-1.9,0-3.9-0.1-6.4-0.1c-2.5,0-5.1,0.1-7.9,0.7c-1.4,0.3-2.8,0.7-4.3,1.3c-0.7,0.3-1.4,0.7-2.2,1.1
								c-0.4,0.2-0.7,0.4-1.1,0.7c-0.4,0.3-0.8,0.6-1.2,0.9c1.5-0.8,2.7-1.1,3.9-1.3c1.2-0.3,2.5-0.4,3.7-0.5
								c2.4-0.1,4.6,0.1,6.7,0.3c1,0.1,2,0.3,3,0.4c1,0.1,1.9,0.2,2.9,0.3c1.9,0.1,3.8,0.2,5.5-0.1c0.4,0,0.9-0.1,1.3-0.2
								c0.5-0.1,0.7-0.1,1.6-0.4c1.5-0.6,3.1-1,4.4-1.1c0.7-0.1,1.4-0.1,2.1,0.2c0.7,0.3,1.3,0.7,1.9,1.2
								C116.6,80.7,117.5,82,118.2,83.4z"/>
							<path fill="#FAF7F6" d="M118.2,83.4c0.9,2,1.3,4.4,0.8,6.5c-0.3,1-0.7,2-1.4,2.8c-0.6,0.8-1.4,1.5-2.5,2.2
								c-0.6,0.4-1.2,0.8-2.1,1.1c-0.2,0.1-0.4,0.1-0.6,0.1l-0.6,0l-1.2,0.1c-1.7,0.1-3.4,0.2-5,0.3c-1.8,0.1-3.6,0.2-5.3,0.4
								l-0.3,0c-0.1,0-0.1,0-0.2,0l-0.3-0.1c-0.2-0.1-0.4-0.1-0.6-0.2c-0.4-0.2-0.8-0.4-1.2-0.7c0.4,0.5,0.8,0.8,1.2,1.1l0.3,0.2
								l0.2,0.1c0.1,0,0.3,0,0.4,0l1.9,0c2.6,0,5.2,0,7.8-0.1l2.6,0c0.9,0,1.7,0.1,2.6-0.4c1.6-0.8,2.7-1.6,3.4-2.4
								c0.8-0.8,1.4-1.6,1.8-2.6c0.4-0.9,0.7-2,0.8-3.1c0.1-2.2-0.5-4.5-1.6-6.5c-1.1-1.9-2.4-3.7-4.2-4.8c-0.5-0.3-1-0.5-1.5-0.6
								c-0.5-0.1-1-0.2-1.4-0.2c-0.5,0-1,0-1.5,0.1c-0.3,0-0.5,0-0.8,0.1l-0.8,0.2c-0.6,0.1-1.1,0.3-1.7,0.5
								c-0.5,0.2-1.3,0.3-1.4,0.3c-0.5,0-1,0.1-1.5,0.1c-2.2,0-4.6-0.4-7.4-0.9c3,0.2,5.7,0.4,7.8,0.2c0.3,0,0.5,0,0.8-0.1
								c0.1,0,0.3,0,0.4-0.1l0.3-0.1l0.5-0.1c0.6-0.2,1.3-0.5,1.9-0.6c0.6-0.1,1.3-0.4,1.9-0.4c1.3-0.2,2.2-0.1,3.3,0.1
								c1.2,0.3,2.2,0.9,3.1,1.7c1.8,1.6,3.2,3.8,4.1,6.2c0.9,2.4,1.1,5.2,0.4,7.5c-0.4,1.2-0.9,2.2-1.7,3.2c-0.8,1-1.8,2.1-3.7,3.1
								c-0.2,0.1-0.5,0.3-0.8,0.4c-0.3,0.1-0.5,0.3-0.8,0.2l-1.6,0l-3.2,0.1l-6.4,0.1c2.9,0.1,5.8,0.2,8.7,0.2l2.3,0.1
								c0.4,0,0.8,0.1,1.2-0.2c0.4-0.2,0.8-0.3,1.1-0.5c1.4-0.7,2.4-1.5,3.1-2.3c1.5-1.5,2.3-3,2.8-4.8c0.2-0.9,0.4-1.8,0.4-2.8
								c0-1-0.1-2-0.3-2.9c-0.4-1.9-1.2-3.8-2.3-5.4c-1-1.6-2.3-3.1-3.8-4.1c-0.8-0.5-1.6-0.9-2.5-1.2c-0.9-0.2-1.6-0.4-2.5-0.4
								l-1.4,0.1c-0.5,0-1,0.2-1.5,0.3c-1,0.2-2,0.8-3,1c-2.6,0.7-6.2,0.4-11,0.4c-2.4,0-5,0.2-7.7,0.8c-1.4,0.3-2.8,0.7-4.2,1.3
								c-0.7,0.3-1.4,0.6-2.1,1c-0.3,0.2-0.7,0.4-1,0.6c-0.4,0.3-0.8,0.6-1.2,0.8c1.5-0.7,2.7-1,3.9-1.3c1.2-0.3,2.5-0.4,3.6-0.5
								c2.4-0.1,4.6,0.1,6.7,0.3c1,0.1,2,0.3,3,0.4c1,0.1,1.9,0.2,2.9,0.3c1.9,0.1,3.8,0.2,5.5-0.1c0.4,0,0.9-0.1,1.3-0.2
								c0.5-0.1,0.7-0.1,1.6-0.4c1.5-0.6,3.1-1,4.4-1.1c0.7-0.1,1.4-0.1,2.1,0.2c0.7,0.3,1.3,0.7,1.9,1.2
								C116.6,80.7,117.5,82,118.2,83.4z"/>
							<path fill="#F8F4F1" d="M99.6,80.4c1.6,0.2,3.1,0.3,4.6,0.3c0.7,0,1.5,0,2.2-0.1c0.1,0,0.4-0.1,0.7-0.1
								c0.3-0.1,0.5-0.1,0.8-0.2c0.5-0.2,1.1-0.3,1.6-0.4c1.1-0.2,2-0.4,2.9-0.3c1,0.1,1.9,0.9,2.5,1.7c1.4,1.6,2.4,3.5,2.8,5.6
								c0.2,1.1,0.2,2.2-0.1,3.2c-0.3,1-0.8,1.9-1.6,2.6c-0.7,0.7-1.5,1.3-2.7,1.8c-0.3,0.1-0.6,0.3-0.9,0.4
								c-0.2,0.1-0.4,0.1-0.5,0.2c-0.2,0.1-0.4,0-0.5,0.1l-2.1,0.2l-4.3,0.3l-2.2,0.2l-1.1,0.1c-0.3,0-0.4-0.1-0.7-0.1
								c-0.8-0.1-1.7-0.4-2.4-1.3c-0.2-0.2-0.3-0.5-0.4-0.7l-0.1-0.4l0,0l0-0.2c0-0.1-0.1-0.2-0.1-0.4c-0.1-0.9,0-1.8,0.1-2.5
								c-0.4,0.4-0.7,0.9-1,1.6c-0.1,0.3-0.2,0.7-0.3,1.1l0,0.3l0,0.2l0,0.1l0,0l0,0l0,0.1l0,0.2c0.2,0.9,0.6,1.6,1,2.1
								c0.4,0.3,0.8,0.5,1.2,0.7c0.2,0.1,0.4,0.2,0.6,0.2l0.3,0.1c0.1,0,0.1,0,0.2,0l0.3,0c1.8-0.1,3.6-0.2,5.3-0.4
								c1.7-0.1,3.4-0.2,5-0.3l1.2-0.1l0.6,0c0.2,0,0.4,0,0.6-0.1c0.8-0.3,1.5-0.7,2.1-1.1c1.1-0.8,1.8-1.5,2.5-2.2
								c0.6-0.8,1.1-1.7,1.4-2.8c0.5-2.1,0.1-4.5-0.8-6.5c-0.7-1.4-1.6-2.8-2.6-3.8c-0.5-0.5-1.1-1-1.9-1.2
								c-0.7-0.3-1.4-0.3-2.1-0.2c-1.4,0.1-2.9,0.6-4.4,1.1c-0.9,0.2-1.1,0.3-1.6,0.4c-0.4,0.1-0.8,0.1-1.3,0.2
								c-1.7,0.2-3.6,0.2-5.5,0.1c-1-0.1-1.9-0.2-2.9-0.3c-1-0.1-2-0.3-3-0.4c-2.1-0.2-4.3-0.4-6.7-0.3c-1.2,0.1-2.4,0.2-3.6,0.5
								c-1.3,0.3-2.4,0.6-3.9,1.3c-0.1,0.1-0.2,0.1-0.2,0.2l-0.2,0.1L78,81.3l-0.1,0.1l-0.3,0.3l-0.4,0.4c-0.3,0.3-0.6,0.6-0.9,1.1
								c-0.7,0.9-1.5,2.6-1.6,4.5c0,0.9,0.1,1.6,0.3,2.2c0.2,0.6,0.3,1,0.5,1.5c1,2.1,2.6,3.8,4.3,4.8c1.7,1.1,3.5,1.6,5.4,1.8
								c3.9,0.4,7-1,9.3-2.4c0.6-0.4,1.1-0.7,1.6-1.1c0.5-0.4,1-0.8,1.5-1.2c1-0.9,2.1-2,3-3.6c0.2-0.4,0.4-0.8,0.6-1.3
								c0.1-0.2,0.2-0.5,0.3-0.7c0.1-0.2,0.2-0.6,0.3-0.9l0.1-0.3l0-0.2l0.1-0.4l0-0.2l0.1-0.4c0.1-0.5,0.1-1,0.1-1.4
								c0-0.9-0.1-1.7-0.2-2.3l-0.2-0.9c-0.1-0.4-0.2-0.8-0.3-1.2c-0.8-3.2-2.5-6.2-5.1-8c-2.6-1.8-6-2.3-9.2-1.9
								c-1.6,0.2-3.2,0.7-4.6,1.3c-1.4,0.7-2.8,1.6-4.1,3l-0.3,0.3L78,74.6L77.6,75c-0.3,0.4-0.6,0.9-0.8,1.4
								c-0.4,0.9-0.7,1.9-0.9,2.9c-0.3,2-0.1,4.2,1,6.4c0.1,0.2,0.3,0.5,0.4,0.7c0.2,0.3,0.4,0.6,0.7,0.8l0.2,0.2l0.1,0l0.1,0.1
								l0.1,0l0,0l0.2,0.2l0,0l0.3,0.3c0.9,0.7,2,1.2,3,1.5c2,0.5,4.1,0.4,6-0.5c0.5-0.2,0.9-0.5,1.4-0.8c0.3-0.2,0.6-0.4,0.8-0.7
								l0.1-0.1l0,0l0.1-0.1l0.1-0.1l0,0l0.2-0.2l0,0l0.1-0.2l0.3-0.4c0.2-0.2,0.3-0.5,0.5-0.7c0.3-0.5,0.5-1,0.7-1.5
								c0.6-2.1,0.6-4.1-0.5-6.2c-0.3-0.5-0.6-1-1.1-1.5c-0.2-0.2-0.4-0.4-0.8-0.8c-0.3-0.3-0.9-0.6-0.8-0.6l-0.1-0.1l0,0l-0.3-0.2
								l-0.1,0l-0.2-0.1c-0.3-0.1-0.6-0.2-0.9-0.3c-0.6-0.2-1.3-0.3-1.9-0.2c-1.3,0-2.4,0.4-3.3,0.8c-0.9,0.5-1.7,1-2.3,1.7
								c-0.3,0.3-0.6,0.7-0.9,1.1c-0.1,0.2-0.3,0.4-0.4,0.6c-0.1,0.2-0.2,0.4-0.4,0.7l-0.2,0.4l-0.1,0.2l0,0.1l-0.1,0.2l0,0.1
								l-0.1,0.3l0,0.1c-0.1,0.4-0.2,0.8-0.2,1.2c-0.2,1.6,0,3,0.3,4.2c0.3,1.2,0.6,2.2,0.9,3.1c0.2,0.5,0.3,0.9,0.5,1.4
								c0.1,0.2,0.2,0.5,0.3,0.8c0.1,0.3,0.3,0.6,0.5,0.9c1.3,2.5,3.2,4.6,5.8,5.7c1.3,0.5,2.7,0.8,4.1,0.9c0.7,0,1.4,0,2.1-0.1
								c0.4,0,0.7-0.1,1.1-0.1l0.9-0.1l1.5-0.3c0.4-0.1,0.9-0.2,1.6-0.3c0.6-0.2,1.3-0.4,2.1-0.8c0.4-0.2,0.8-0.4,1.2-0.7
								c0.2-0.2,0.4-0.3,0.7-0.5l0.5-0.4c0,0-0.8,0.7-1.1,0.9c-0.4,0.3-0.8,0.5-1.2,0.8c-0.8,0.4-1.4,0.7-2,0.9
								c-1.2,0.4-1.9,0.5-2.8,0.8C94,98.7,92.4,99,91,99.1c-1.4,0.1-2.8,0-4.1-0.4c-2.7-0.7-5-2.5-6.6-4.7c-0.4-0.6-0.8-1.2-1.1-1.8
								c-0.2-0.3-0.4-0.7-0.5-0.9l-0.3-0.7c-0.4-1-0.8-1.7-1.1-2.7c0.2,0.6,0.3,1,0.5,1.5c0.2,0.5,0.4,1,0.6,1.6
								c0.2,0.5,0.6,1.3,0.9,1.9c0.4,0.7,0.8,1.3,1.3,2c1.9,2.5,4.7,4.3,7.8,4.7c1.6,0.2,3.2,0.2,4.8-0.1l1-0.2l0.8-0.2l1.5-0.3
								c1-0.3,2.7-0.6,4.6-2l0.4-0.3c0.1-0.1,0.3-0.3,0.5-0.4l0.3-0.3l0.1-0.1l0,0l0.2-0.2c0.6-0.6,1-1.3,1.4-2
								c0.7-1.4,1.1-2.8,1.1-4.4c0-1-0.2-2.2-0.8-3.4c-0.5-1.2-1.5-2.4-2.7-3.2l-6.7-4.8l-3.3,7.5c-0.8,1.9-0.9,3.8-0.5,5.5
								c0.4,1.7,1.2,3.4,2.8,4.7l2.1,1.9l2.8-0.2c2.3-0.2,5.1-0.4,8.2-1.5c0.8-0.3,1.5-0.6,2.4-1c0.2-0.1,0.5-0.2,0.6-0.3l0.4-0.2
								c0.6-0.3,1.1-0.7,1.6-1.1c1-0.8,1.8-1.7,2.5-2.9c0.4-0.6,0.7-1.3,1-2.2c0.3-0.9,0.5-1.9,0.4-3.1c-0.1-0.3-0.2-0.6-0.3-1
								l-0.2-0.5l-0.3-0.6c-0.1-0.2-0.2-0.4-0.4-0.7l-0.2-0.3c0,0-0.1-0.1-0.1-0.1l0,0l-0.2-0.1l-0.1,0l0,0l0,0l0,0
								c-0.1-0.2,0.2,0.4-0.2-0.4l0,0l0,0l0,0c-0.3-0.3-0.7-0.6-1-0.9c-0.4-0.3-0.8-0.5-1.3-0.7c-0.9-0.4-1.9-0.5-2.7-0.5
								c-0.9,0-1.7,0.3-2.4,0.6c-0.7,0.3-1.4,0.7-2,1.3c-0.6,0.6-1.2,1.3-1.6,2.3c-0.1,0.3-0.2,0.7-0.3,1l-0.1,0.3l0,0.1l0,0.1
								l0,0.1l0,0.3l0,0l0,0.1l0,0.4c0,0.3,0,0.5,0.1,0.8c0.3,1.6,1.2,2.8,2.1,3.6c1,0.8,2.1,1.4,3.3,1.6c0.8,0.1,1.2,0.1,1.9,0.1
								c0.1,0,0.3,0,0.4-0.1l0.2,0c0,0,0-0.1,0-0.2l0-0.3l0-0.6l-0.1-1.2c0-0.3-0.1-1.2,0.1-0.5l0.8,2.3l0.1,0.3c0,0.1,0,0,0,0
								l0.1,0l0.2-0.1c0.1,0,0.2-0.1,0.3-0.1c0.2-0.1,0.4-0.2,0.6-0.3c0.4-0.2,0.8-0.4,1.2-0.7c1.5-1.1,2.7-2.5,3.4-4.2
								c0.8-1.6,1.1-3.5,0.7-5.2c0-0.5,0.2-0.7,0.4-1c0.1-0.2,0.2-0.4,0.2-0.7c0-0.1,0-0.1,0-0.2l0-0.1l0-0.1c0.1,0-0.3,0.1,0.3-0.1
								l0,0l0,0l0,0l0,0l0,0l0,0c0.1,0.2,0.1,0.4,0.2,0.7l-0.1-0.5l0-0.1l0-0.1l0,0c0.3-0.1-0.3,0.1-0.3,0.1l0,0l0,0l0,0l0.1,0.3
								c0.1,0.3,0.2,0.7,0.3,1c0.1,0.7,0.2,1.4,0.1,2c-0.1,1.3-0.4,2.6-0.8,3.8c-0.9,2.4-2.4,4.4-4.2,6c2.4-1.6,4.3-4.1,5.2-6.8
								c0.4-1.4,0.6-2.8,0.5-4.2c-0.1-0.7-0.2-1.4-0.5-2l-0.1-0.2l0,0l0,0l0,0c-0.3,0.1,0.4-0.1,0.3-0.1l0,0l0,0.1l0,0.1l0,0.5
								l0.1,1c0,0.1,0,0.2,0,0.3h0c0.1-0.6,0.2-1.2,0.1-1.8c0-0.2,0-0.3-0.1-0.4c0-0.1,0-0.3-0.1-0.4l-0.9-0.2l-0.2,0l-0.1,0
								c0,0-0.1,0,0-0.1l0.5-0.4l0.3-0.2c0.1-0.1,0.2-0.2,0.2-0.2l-0.1-0.3l-0.2-0.5c-0.2-0.3-0.4-0.6-0.5-0.9
								c-0.4-0.6-0.8-1.1-1.3-1.5c-0.5-0.5-1.1-0.8-1.7-1.2c-0.3-0.2-0.6-0.3-1-0.4c-0.2-0.1-0.4-0.1-0.6-0.2l-0.3-0.1l-0.2,0
								c-1.2-0.3-2.6-0.3-3.8,0c-2.5,0.5-4.4,1.7-6,3.2c-0.8,0.8-1.5,1.4-2.4,2.9c-0.2,0.4-0.4,0.8-0.5,1.4
								c-0.1,0.3-0.1,0.6-0.2,0.9c0,0.2,0,0.3,0,0.5c0,0.1,0,0.4,0,0.6l0,0.2l0,0l0,0.1l0,0l0,0.3l0.1,0.3c0.1,0.4,0.2,0.9,0.4,1.2
								c0.3,0.8,0.8,1.4,1.4,1.9c0.5,0.5,1.1,0.9,1.9,1.1c0.8,0.3,1.7,0.5,2.8,0.4L107,87c0.1,0,0.3-0.1,0.5-0.1
								c0.2-0.1,0.4-0.1,0.6-0.2l0.3-0.1l0.2-0.1l0.1-0.1l0.4-0.2l0,0l0.1-0.1l0.1-0.1l0.3-0.2c0.8-0.6,1.4-1.5,1.7-2.3
								c0.4-1,0.4-1.8,0.4-2.5c0-0.6-0.1-1.1-0.2-1.6c-0.1-0.2-0.1-0.4-0.2-0.6l-0.1-0.3l-0.1-0.2l0-0.1l-0.1-0.2l-0.1-0.1l-0.1-0.3
								c-0.4-0.8-0.8-1.6-1.2-2.3l-0.8-1.4c-0.3-0.5-0.9-1.3-1.3-1.7c-0.5-0.5-1-0.8-1.6-1c-0.6-0.2-1.1-0.2-1.6-0.2
								c0.7,0,1.6,0.3,2.4,1c0.4,0.4,0.7,0.7,1,1.3c0.3,0.6,0.5,1.1,0.7,1.5c-0.2-0.3-0.4-0.7-0.7-1.1c-0.1-0.2-0.3-0.4-0.5-0.6
								c-0.1-0.2-0.3-0.3-0.4-0.5c-0.6-0.6-1.5-1-2.2-1.1c-0.4,0-0.7,0-1,0l-0.5,0c-0.2,0.1-0.5,0.2-0.7,0.3
								c-0.9,0.4-1.8,0.8-2.6,1.1l2.4-1.3l0.6-0.3l0.3-0.2l0.2-0.1c0,0,0.1,0,0.1,0c0.3-0.1,0.6-0.1,0.9-0.1
								c-0.7-0.3-2.3,0.6-3.6,1.1c-1.4,0.6-2.7,1.2-4.1,1.7c-1.4,0.6-2.8,1.2-4.3,1.8c-0.4,0.2-0.7,0.3-1.1,0.5l-0.6,0.2l-0.3,0.1
								c-0.1,0-0.1,0.1-0.2,0.2c-0.4,0.5-0.8,0.9-1,1.6c0.1-0.4,0.3-0.7,0.5-1l0.3-0.4l0.2-0.2c0.1-0.1,0.2-0.1,0.3-0.2l2.7-1.2
								c1.8-0.8,3.7-1.7,5.5-2.5c0.9-0.4,1.9-0.9,2.8-1.3c0.5-0.2,0.9-0.4,1.4-0.7c0.5-0.2,1-0.5,1.2-0.5c0.6,0,1.2,0,1.8,0.2
								c0.6,0.2,1.3,0.6,1.8,1.1c-0.5-0.6-1.2-1-1.8-1.2c-0.6-0.2-1.1-0.3-1.7-0.3l-0.2,0c-0.1,0-0.2,0.1-0.3,0.1l-0.7,0.3l-1.4,0.6
								c-0.9,0.4-1.8,0.8-2.7,1.2c-1.8,0.8-3.6,1.6-5.4,2.3l-2.6,1.2l-1.3,0.6l-0.2,0.1l-0.1,0.1l-0.2,0.2l-0.3,0.4
								c-0.4,0.6-0.7,1.3-0.7,2.2c-0.1,0.9,0.1,1.7,0.3,2.6c0.4,1.7,0.9,3.4,1.7,4.8c0.8,1.5,1.8,2.7,3.1,3.6
								c1.3,0.9,2.8,1.6,4.4,1.8c-0.3,0-0.7,0.1-1,0.1c0.4,0,0.8,0.1,1.2,0c0.6,0,1.2-0.1,1.8-0.2l4.3-1l-0.4-4
								c-0.2-2.5-1.3-4.7-2.9-6.3c-0.8-0.8-1.7-1.5-2.6-2.1c-0.2-0.1-0.5-0.3-0.8-0.4l-0.4-0.2l-0.5-0.2c-0.2-0.1-0.3-0.1-0.5-0.2
								l-0.3-0.1l-0.1,0l-0.1,0l0,0l-0.2-0.1l0,0l-0.1,0l-0.4-0.1c-2.3-0.4-4.5,0.1-6.3,1.1c-1.8,1-3.3,2.5-4.2,4.6
								c-0.2,0.5-0.4,1.2-0.4,1.9c0,0.4,0,0.8,0.1,1.1l0.1,0.3c0,0.1,0.1,0.3,0.1,0.4c0.1,0.2,0.1,0.1,0.1,0.2l0,0.1l0,0l0,0.1l0,0
								l0,0.1c0.4,0.8,1.1,1.5,1.9,1.9c0.8,0.3,1.5,0.4,2.2,0.4c1.3-0.2,2.5-0.7,3.4-2c0.8-1.2,0.7-2.6,0.3-3.7
								c-0.9-2.1-2.9-3.2-4.9-3.1c-0.9,0.1-1.8,0.3-2.5,0.7c-0.4,0.2-0.7,0.4-1.1,0.7c-0.2,0.1-0.3,0.3-0.5,0.4
								c-0.2,0.1-0.3,0.3-0.5,0.5c-0.2,0.2-0.3,0.4-0.5,0.7c-0.1,0.1-0.1,0.3-0.1,0.4c0,0,0,0,0,0.1c0,0,0,0,0,0.1l0,0.1
								c0,0.1,0,0.1,0,0.2c0,0.6,0.3,0.9,0.5,1.2c0.4,0.5,0.8,0.9,1.2,1.2c0.8,0.6,1.7,0.9,2.5,1c1.5,0.2,2.6-0.5,2.3-1.2l-1.1-2.2
								l-0.3-0.5c-0.1-0.1,0-0.1-0.1-0.1c-1,0.4-1.5,0.5-1.9,0.7c-0.8,0.2-1.1,0.2-1.2,0.2c-0.1,0,0-0.1,0.1,0
								c0.1,0,0.2,0.1,0.3,0.2c0.3,0.2,0.7,0.6,1.5,1.5l0.3,0.4c0.1,0.1,0,0,0,0c0,0,0.1-0.1,0,0l0.2-0.2c0,0,0.1-0.1,0.1-0.1
								l0.2-0.1c0.3-0.2,0.4-0.2,0.4-0.2c0-0.1,0-0.1,0-0.2c0,0,0-0.1,0-0.1l0,0l0,0l0,0l0,0l0,0c-0.1,0.8,0.1-1.1,0.1-0.9l0.2,0.3
								c-0.1,0-0.1,0.1-0.2,0.1l-0.1,0.1c0,0.1-0.1,0.1-0.1,0.1c0,0,0.1-0.1,0.3-0.2c0.2-0.1,0.5-0.2,0.7-0.2c0.1,0,0.2,0,0.2,0
								c0,0,0,0,0,0l0.6,0.1l0,0l0,0.1l-0.1,0.1c0-0.2-0.3-0.3-0.4-0.6c-0.1-0.2-0.1-0.2-0.1,0c0,0.2-0.1,0.7-0.2,0.8
								c0,0.1-0.1,0.1,0,0.1c0,0,0,0,0.1,0l0,0l0,0c0.5,0,0.1,0,0.2,0l0,0l0,0c-0.1-0.2,0-0.1,0.1,0c0.2,0,0.8,0,1.3,0.2
								c0.1,0.1,0.3,0.1,0.4,0.2l0.1,0l0,0l0,0c0,0,0,0,0,0l0,0l0,0l0,0l0,0c0,0.1,0.1-0.1-0.1,0.1l0,0l0.2-0.2l0.1-0.1c0,0,0,0,0,0
								c0,0,0,0,0.1-0.1c0.4-0.4,1.2-0.7,1.8-0.7c0.2,0,0.3,0,0.4,0c0,0,0.1,0,0.1,0l0.1,0l0,0l0,0l0,0c-0.3-0.1-0.1,0-0.1,0l0,0
								l0.3,0.1l0.1,0l0,0c0,0,0,0,0,0l0.1,0.1c0.1,0,0.1,0.1,0.2,0.1c0.1,0.1,0.3,0.2,0.4,0.3c0.5,0.5,0.8,1.2,0.8,1.8
								c1-1.1,2.1-2.1,3.1-3.2l0,0c0,0,0-0.1,0-0.1l0-0.1l0,0l0,0c0-0.7,0-0.2,0-0.4l0,0l0,0c-0.1,0-0.1,0-0.2,0
								c-0.2,0-0.4-0.1-0.6-0.2c-0.4-0.2-0.7-0.4-0.9-0.8c-0.5-0.6-0.7-1.4-0.9-2.2c-0.1-0.4-0.3-0.8,0-1.2c0.3-0.3,0.7-0.4,1-0.6
								l2.2-1l1.1-0.5c0.3-0.2,0.7-0.3,1.1-0.3c0.2,0,0.4,0.1,0.5,0.3c0.1,0.1,0.1,0.2,0.2,0.2l0.1,0.1c0.1,0.2,0.4,1.1,0.7,1.8
								l0.8,2.2l0.1,0.2c0,0,0,0,0,0c0,0,0,0,0,0l0.3-0.1l0.4-0.1c1.1-0.2,2,0,2.1,0.2c0,0,0,0,0,0l0,0l0,0l0,0c0,0,0.3,0.2,0.1,0.1
								l0,0l-0.1,0.1c0.1,0,0.1,0,0.1-0.1c0-0.1,0-0.1,0-0.2c0-0.2,0.1-0.3,0.2-0.4c0.1-0.1,0,0,0,0c0,0-0.1,0.1-0.2,0.1l-0.1,0l0,0
								l0,0l0,0c-0.1,0,1.2,0,0.6,0l0-0.1l0-0.1c0,0,0,0,0,0c0,0,0,0.1,0.1,0c0.1,0,0.2,0,0.3,0c0.2,0,0.6,0.1,1,0.3
								c0.1,0,0.2,0.1,0.3,0.1l0.2,0.1l0,0l0,0c0,0-0.1,0-0.1,0c0,0,0,0,0,0l-0.3-0.1c-0.4-0.2-0.7-0.3-1-0.3
								c-0.2-0.1-0.4,0-0.5-0.1c0,0-0.1-0.1-0.1,0l0,0.1l0,0c0.6,0-0.8,0-0.6,0l0,0l0,0l0,0l0,0c0.1,0,0.1,0,0.2,0
								c0.2-0.1,0.2-0.2,0.1,0.1c-0.1,0.1-0.1,0.3-0.1,0.4c0,0.1,0,0.1,0,0.1c0,0-0.1,0.1,0,0l0-0.1l0,0l0,0l0,0
								c0.1,0.1-0.2-0.1-0.2-0.1l0,0l0,0c0.2,0.2,0-0.1-0.8-0.1c-0.2,0-0.4,0-0.6,0c-0.1,0,0,0,0,0c0,0,0.1-0.1,0.1-0.2
								c0-0.1,0-0.1,0-0.1c0,0,0-0.2,0-0.2l-0.1-0.5l-0.2-1.1c-0.2-0.6-0.3-1.2-0.4-1.8c-0.1-0.6-0.1-1.1-0.2-1.6
								c0.2,0.9,0.4,2.2,0.6,3.4c0.2,0.8,0.6,1.9,0.5,2.1c0,0,0,0.1,0,0.1c0,0,0,0,0,0c0.1,0,0.3,0,0.4,0c0.5,0,0.7,0.2,0.8,0.2
								c0,0,0,0,0-0.1l0,0l0,0c-0.1-0.1,0.2,0.1,0.2,0.1l0,0l0,0l0,0l-0.1,0.1c0,0,0,0,0.1,0c0,0,0-0.3,0.1-0.4
								c0.1-0.2,0.2-0.3,0.1-0.2c0,0-0.2,0.1-0.3,0.1l0,0l0,0l0,0c0.3,0-0.6,0,0.6,0l0,0l0,0l0-0.1l0,0l0,0l0,0c0.1,0,0.2,0,0.3,0
								l0.2,0c0,0,0,0,0,0c0,0,0,0,0.1-0.1c0.1-0.1,0.3-0.3,0.5-0.6c0.2-0.2,0.5-0.5,0.8-0.6c0.3-0.1,0.7-0.3,1.1-0.6
								c0.4-0.3,0.7-0.7,0.8-1.2c0.5-0.1,1,0,1.4,0.1c-0.2,0,0.4,0.1,0.3,0.1c0,0,0,0,0,0l0.1,0.1c0.2,0.1,0.3,0.2,0.5,0.3
								c0.3,0.3,0.6,0.6,0.7,0.9c0.2,0.5,0.2,1.1,0,1.6h0c-0.1-0.3-0.2-0.6-0.3-0.8c0.1,0.3,0.2,0.6,0.2,0.9c0,0.6-0.2,1.2-0.5,1.7
								c-0.1,0.2-0.4,0.3-0.9,0.4c-0.4,0.7-1,1.4-1.8,1.8c-0.2,0.1-0.4,0.2-0.6,0.2c-0.1,0-0.1,0-0.1,0l0,0l0,0l0,0l0,0l0,0
								c0.1,0.2-0.2-0.4,0.2,0.4l0,0l-0.1,0l-0.1-0.1c-0.1,0-0.1-0.1-0.1-0.1c0-0.1,0.1-0.1,0.2-0.1c0,0,0,0,0,0c0,0,0,0,0,0
								c0,0-0.1,0-0.1,0c-0.1,0.1-0.5,0.4-0.7,0.4c-0.1,0-0.2,0-0.2,0l0,0l0,0l-0.6,0.1l0,0l0-0.1l0-0.2c0-0.1,0,0,0.1,0.1
								c0,0,0,0.1,0,0.1c0,0,0.1,0,0.1,0c0,0,0.1,0.1,0.2,0.1c0.1,0.1,0.2,0.2,0.3,0.3c0.1,0.2-0.1,0-0.1-0.4
								c-0.1-0.4,0.2-0.8,0.1-0.7c0,0,0,0-0.1,0.1l0,0l0,0l0,0c0.1,0-0.8,0.1-0.4,0.1l0,0l0,0l0.2,0.1c0.1,0,0.2,0.1,0.1,0
								c0-0.2,0-0.1-0.2-0.1c-0.1,0-0.4,0-0.7-0.1c-0.1,0-0.3-0.1-0.4-0.2c0,0,0,0,0,0c0,0.1-0.1,0.2-0.3,0.4
								c-0.1,0.1-0.1,0.1-0.2,0.2l-0.1,0.1l-0.1,0l0,0l0,0l0,0l0,0c-0.1,0,0.1,0,0.1,0l0,0c-0.2,0.1-0.4,0.2-0.6,0.3
								c-0.1,0.1-0.2,0.1-0.4,0.2c-0.6,0.3-1.3,0.5-2.1,0.7c-1.5,0.3-3.2,0.5-5,0.6c0.5,0.5,1,1,1.5,1.5c0.1-0.1,0.3-0.2,0.3-0.2
								c0,0-0.2,0-0.4-0.1c-0.9,0.2-1.9,0.3-2.8,0.5c0.1-0.1,0,0-0.2,0.1c-0.2,0.1-0.5,0.1-0.7,0.1c-0.2,0-0.3,0-0.3,0
								c0,0,0.1,0.1,0.3,0.2c0,0,0.1,0.1,0.1,0.1l0,0c0.4,0.5-0.5-0.7-0.4-0.5l0,0l0,0l0,0l-0.1,0.1c0,0,0,0,0,0c0,0,0,0,0,0
								c-0.1,0-0.1,0.1-0.3,0.1c-0.2,0.1-0.6,0.2-1.1,0.4c-2.4,0.6-3.4,0.9-4.8,0.4c-0.6-0.2-1.2-0.7-1.6-1.2
								c-0.2-0.3-0.4-0.6-0.5-0.8c-0.2-0.3-0.3-0.5-0.5-1c-0.3-0.9-0.7-2-0.9-2.8c-0.2-0.8-0.2-1.5-0.1-1.8
								c-0.2,0.3-0.3,0.8-0.3,1.6c0,0.7,0.2,1.7,0.4,2.6c0.1,0.4,0.2,0.9,0.3,1.3c0.1,0.3,0.1,0.7,0.3,1.1c0.2,0.7,0.5,1.4,1,2.1
								c0.4,0.6,1.2,1.2,2.1,1.4c1,0.2,2.1,0.1,3.3-0.2c1.2-0.3,2.8-0.7,3.7-1.4c0.1-0.1,0.2-0.2,0.3-0.3c0,0,0.1-0.1,0.2-0.2l0-0.1
								c0,0,0,0,0,0l0-0.1c0.1-0.2,0.2-0.4,0.3-0.7c0.1-0.5-0.1-0.9-0.3-1c0.6-0.2,1.1-0.3,1.7-0.5c-0.1,0.4,0.1,1,0.4,1.1l-1-0.3
								c2-0.3,3.9-0.5,5.6-1c1-0.4,1.8-0.5,2.5-0.6c0.2,0,0.4-0.1,0.6-0.1c0.2,0,0.4-0.1,0.5-0.1c0.4-0.1,0.7-0.4,1-0.7
								c-0.2,0.8-0.8,1.5-1.5,2.1c-0.7,0.6-1.6,1-2.6,1.4c-1.9,0.7-4,0.9-6,1l-0.2,0L98,90.9c-0.9-0.8-1.1-2.1-0.7-3.2l0.3-0.6
								l0.5,0.4c0.6,0.4,0.8,1.1,0.8,1.7c0,0.6-0.1,1.2-0.4,1.7c-0.6,1-1.7,1.5-2.7,1.8c-1,0.3-2,0.5-3,0.7c-1,0.2-2,0.4-3.1,0.3
								c-0.8,0-1.5-0.2-2.3-0.5c-0.7-0.3-1.4-0.9-1.9-1.5c-1.1-1.3-1.8-2.9-2.3-4.5c-0.5-1.6-1-3.4-0.7-5.1c0.1-0.9,0.6-1.6,1.2-2.2
								c0.6-0.5,1.4-0.9,2.2-0.8c1.6,0.2,2,2.3,1.2,3.5c-0.7,1.2-2.7,1.5-3.8,0.7c-1.2-0.8-1.5-2.5-1.1-4c0.4-1.5,1.6-2.7,3-3.5
								c2.3-1.4,5.4-1.6,7.4-0.1c1,0.7,1.6,1.8,1.9,2.9c0.3,1.1,0.3,2.2,0.2,3.1c-0.4-0.6-0.7-1.4-1.1-2.1c-0.4-0.8-0.9-1.4-1.4-1.8
								c-1-0.8-2.3-1.1-3.6-1.1c-0.6,0-1.3,0.1-1.9,0.3c-0.6,0.2-1.3,0.4-1.9,0.8c-0.3,0.2-0.5,0.4-0.8,0.6
								c-0.1,0.1-0.2,0.2-0.3,0.3c-0.1,0.1-0.3,0.4-0.3,0.4c-0.3,0.4-0.5,1-0.6,1.6c-0.1,1.2,0.4,2.2,1.4,2.5
								c0.5,0.2,1.1,0.1,1.6-0.1c0.3-0.1,0.4-0.2,0.6-0.4c0.1-0.2,0.3-0.4,0.4-0.6c0.2-0.5,0.1-1.1-0.1-1.5c0-0.1-0.1-0.2-0.2-0.3
								c0,0-0.1-0.1-0.1-0.1c0,0,0,0-0.1-0.1c-0.2-0.1-0.4-0.2-0.6-0.2c-0.4,0-1,0.2-1.4,0.6c-0.4,0.4-0.7,0.9-0.8,1.5
								c-0.2,1.3,0.2,2.7,0.8,4.2c-0.4-1.6-0.7-3.2-0.3-4.2l0.1-0.2l0,0l0,0c0,0,0,0.2,0,0.1l0,0l0-0.1l0.1-0.1
								c0.1-0.1,0.1-0.1,0.2-0.2c0.1-0.2,0.3-0.3,0.5-0.5c0.4-0.3,0.8-0.3,0.8-0.2c0,0,0,0,0.1,0l0,0l0,0c-0.3-0.1-0.1,0-0.1-0.1
								l0,0l0,0l0.1,0.1c0.2,0.1,0,0,0,0c-0.1,0,0,0.1,0,0.2c0.1,0.2,0,0.6-0.1,0.8c0,0-0.1,0.1-0.1,0.1l0,0l0,0l0,0
								c0,0-0.1,0.1,0.1-0.1l0,0l-0.1,0.1l-0.1,0.1l-0.1,0l0,0c0,0,0,0-0.1,0c-0.1,0-0.1,0-0.2,0.1c-0.3,0.1-0.7,0-0.8-0.1
								c0,0-0.1-0.1-0.1-0.1c0,0,0,0,0,0l0,0l0,0c0,0,0.2,0.2,0.1,0.1l0,0L84.2,82l-0.1-0.1c-0.1-0.1,0,0,0-0.1c0,0,0,0,0,0
								c0-0.1,0-0.1-0.1-0.2c-0.1-0.3-0.1-0.7,0-1.1c0.2-0.8,0.9-1.3,1.9-1.8c0.3-0.1,0.5-0.2,0.8-0.3c0.3-0.1,0.5-0.1,0.8-0.1
								c0.5,0,1,0,1.5,0.1c1,0.2,1.9,0.7,2.3,1.6c-0.7-0.8-1.8-1.2-2.8-1.2c-0.5,0-1.1,0-1.6,0.2c-0.6,0.2-1.2,0.4-1.6,0.7
								c-0.1,0.1-0.2,0.2-0.3,0.2c0,0,0,0-0.1,0.1L84.9,80l-0.1,0.1l0,0l0,0c0.1-0.2,0,0,0.1-0.1l0,0l0,0c-0.1,0.1-0.2,0.2-0.2,0.4
								c-0.1,0.3-0.1,0.7,0,0.9c0,0,0,0.1,0.1,0.1c0,0,0,0,0-0.1c0,0-0.1-0.1,0,0l0.1,0.1l0.1,0.1l0,0l0,0c0.1,0-0.6,0.1-0.3,0.1
								l0,0l0,0l0,0l0.1-0.1c0-0.1,0.1-0.2,0.1-0.2c0,0,0.1-0.1,0.1-0.2c0,0,0-0.1,0-0.1c0,0.1,0,0.2,0.1,0.2
								c-0.1-0.2-0.1-0.5-0.1-0.3c0,0.1-0.1,0.5-0.2,0.6l0,0l0,0l0,0l0,0c-0.3,0.1,0.4-0.1,0.3-0.1l0,0l0,0l-0.2-0.2
								c-0.1-0.1,0,0,0.1,0c0,0,0.1,0.1,0.1,0c0.1-0.1,0.3-0.2,0.5-0.2C85.6,81,85.8,81,86,81c0.2,0,0.2,0,0.2,0c0,0,0.1,0,0.1,0
								c0,0-0.2-0.1-0.3-0.2l-0.1,0l0,0l0,0l0,0l0,0l0,0c0.8,1,0.2,0.3,0.4,0.5l0.2-0.2l0.1-0.1l0,0c0,0,0,0.1,0,0.1l0.2-0.1
								c0.1-0.1,0.4-0.1,0.6-0.2c0.3-0.1,0.5-0.1,0.7,0c0.2,0,0.4,0.1,0.6,0.1c0.5-0.4,1.2-0.6,1.9-0.4c0.8,0.2,1.4,0.9,1.8,1.8
								c0,0.1,0.1,0.3,0.2,0.5l0.1,0.5c0.1,0.3,0.1,0.6,0.1,0.7l0,0.1l0,0l0,0c0-0.1,0,0.1,0-0.1l0,0l0,0l0,0.2l0,0.1l0,0
								c0,0,0,0,0,0c0,0,0,0.1,0,0.1c0,0.2-0.1,0.4-0.3,0.6c-0.6,0.9-2.2,2.2-3.4,2.8c-0.7,0.3-1.3,0.5-1.9,0.5l-0.1,0l-0.1,0l0,0
								l0,0l0,0c0,0-0.1,0,0.1,0l-0.4,0l-0.3-0.1c-0.2-0.1-0.5-0.1-0.7-0.2c-0.4-0.2-0.7-0.5-0.8-0.7c0,0,0-0.1,0-0.1c0,0,0,0,0,0
								c-0.1,0-0.2,0.1-0.2,0.1c-0.2,0.1-0.3,0.1-0.4,0.2c-0.3,0.1-0.5,0.2-0.6,0.2c-0.4,0.1-0.6,0.1-0.8,0.2c-0.1,0-0.2,0-0.2,0
								l0,0c0,0,0,0,0,0l0,0c0,0,0-0.1,0.1,0c0.1,0.1,0.2,0.1,0.5,0.2c0.2,0.1,0.5,0.4,1,0.8l0.4,0.3l0.2,0.2l0,0c0,0,0,0,0,0l0,0
								c-0.2,0.2-0.1,0.1-0.1,0.1l0,0l0,0l0.1-0.1l0.2-0.1L85,89c0.1-0.1,0.2-0.1,0.2-0.1l0.2-0.1c0.2-0.1,0.6-0.3,0.9-0.4
								c0.7-0.3,1.4-0.5,2.3-0.6c1.6-0.3,3.5-0.3,5.4-0.3c1.9,0.1,4.1,0.3,6.3,0.3c1.5,0.1,3.9-0.6,6.4-1.6
								c-6.2,0.7-11.6-1.2-16.5-0.5c2,0.1,4,0.6,5.8,1.4c-2.5-0.1-4.5-0.3-6.5-0.3c-2,0-3.9,0.4-5.4,1.7c1.5-1.6,3.7-2.5,6.2-2.7
								c-1.5-0.1-3,0.1-4.4,0.6c-0.7,0.2-1.4,0.6-2,0.9l-0.5,0.4l-0.1,0.1l-0.1,0l0,0c0.1-0.1,0,0,0,0l-0.2,0.1
								c-0.1,0.1-0.2,0.1-0.2,0.1c0,0-0.1-0.1-0.1-0.1c0,0-0.1-0.1-0.1,0c-0.1,0,0.2,0,0.2,0c0,0-0.2,0-0.2,0c0-0.1,0.1,0,0.1,0
								c0.1,0,0,0,0,0c0,0,0-0.1,0.1-0.2c0-0.1,0.1-0.1,0.1-0.2l0,0c-0.1,0,0,0,0,0l0.1-0.1l0.5-0.4c0.6-0.4,1.2-0.8,1.9-1.1
								c1.4-0.6,2.9-0.7,4.4-0.8c3-0.1,6.1,0.4,9.6-0.2c-1.5-0.1-2.9-0.2-4.3-0.4c1.4,0.1,2.9,0.3,4.4,0.4c0,0-0.1,0-0.1,0
								c2.2,0.1,4.5,0,6.7-0.5c1.2-0.3,2-0.6,3-1c0.5-0.2,0.9-0.5,1.4-0.7c0.5-0.3,1-0.5,1.5-0.5c-0.5-0.1-0.9,0-1.4,0.2
								c-0.4,0.2-0.9,0.3-1.3,0.4c-0.9,0.2-1.8,0.4-2.7,0.5c-1.8,0.2-3.6,0-5.4-0.2c-1.8-0.2-3.5-0.5-5.4-0.7
								c-1.8-0.2-3.7-0.3-5.7-0.1c-1.3,0.2-2.6,0.4-3.8,0.9c1.2-0.5,2.5-0.7,3.8-0.9c2.2-0.3,4.4-0.3,6.6-0.1
								c2.1,0.1,4.2,0.3,6.3,0.3c1,0,2.1,0,3.1-0.1c0.3,0,0.5-0.1,0.8-0.1c0.3,0,0.6-0.1,0.9-0.2l1.7-0.4c0.6-0.1,1.1-0.3,1.6-0.4
								c0.5-0.1,1.2-0.1,1.7,0.2c0.5,0.3,0.9,0.8,1.2,1.2c0.4,0.5,0.7,1,1,1.5c0.6,1,1,2.1,1.1,3.3c0.1,1.1-0.1,2.4-0.7,3.3
								c-0.6,1-1.7,1.5-2.8,1.9c-1.1,0.3-2.3,0.5-3.4,0.6c-1.1,0.1-2.2,0.3-3.2,0.4c-1,0.1-2,0.4-3,0.3c-0.5,0-1-0.2-1.4-0.5
								c-0.4-0.3-0.5-0.9-0.5-1.3c0-0.9,0.6-1.8,1.3-2.4c0.4-0.3,0.8-0.6,1.2-0.9c-0.6-0.2-1.2-0.3-1.9-0.3
								c-0.9,0.6-1.5,1.6-1.8,2.6c-0.1,0.5-0.2,1.2,0,1.7c0.1,0.5,0.4,0.9,0.7,1.2c0.7,0.6,1.6,0.6,2.4,0.6l3.4-0.3l3.6-0.3l0.9-0.1
								c0.3-0.1,0.6-0.2,0.9-0.2c0.6-0.2,1.1-0.4,1.6-0.6c1-0.4,1.8-1,2.5-1.8c0.6-0.8,1.1-1.8,1.1-2.9c0.2-2.2-0.7-4.3-1.9-6.1
								c-0.6-0.9-1.3-1.8-2.2-2.3c-0.5-0.3-1-0.3-1.5-0.3c-0.5,0-1,0.1-1.5,0.2c-1,0.1-2.2,0.5-3.3,0.7c-0.3,0-0.4,0.1-0.6,0.1
								l-0.6,0c-0.4,0-0.8,0-1.2,0C102.9,80.8,101.3,80.6,99.6,80.4z"/>
						</g>
					</g>
				</g>
			</g>
		</g>
	</g>
	<g>
		<g>
			<g>
				<g>
					<g opacity="0.8">
						<g opacity="0.8">
							<path fill="#FAF8F7" d="M124.8,56.5c-3.9-3.6-8.6-6.6-13.6-8.3c-5-1.7-10.3-2-14.7-1.2c-1,0.2-2,0.5-3,0.7l1.5-0.2
								c2.9-0.4,5.9-0.2,8.9,0c3,0.5,5.9,1.1,8.7,2.3c1.4,0.5,2.7,1.3,4.1,1.9c0.7,0.4,1.3,0.8,1.9,1.2l1,0.6
								c0.3,0.2,0.6,0.4,0.9,0.7l1.8,1.3L124,57l0.8,0.7l0.8,0.8c0.5,0.5,1,1.1,1.5,1.6c2.4,2.8,4.5,5.9,6,9.4
								c0.3,0.9,0.8,1.8,1.1,2.7c0.3,0.9,0.5,1.9,0.8,2.8c0.2,1,0.3,2,0.5,3c0.1,0.5,0.1,1,0.1,1.5c0,0.5,0,1,0.1,1.5
								c0,0.9,0.4,1,0.5,1.1c0.2-0.8,0.3-1.5,0.5-2.2l-0.1-1.3c-0.1-0.4-0.1-0.9-0.2-1.3c-0.2-0.8-0.3-1.7-0.5-2.5
								c-0.5-1.7-0.9-3.3-1.6-4.9c-0.6-1.6-1.4-3.1-2.2-4.7c-0.4-0.7-0.9-1.5-1.4-2.2c-0.4-0.8-1-1.5-1.5-2.1
								c-0.3-0.5-0.7-0.9-1.1-1.4c-0.4-0.4-0.9-0.8-1.3-1.2C126.1,57.6,125.4,57,124.8,56.5z"/>
							<path fill="#F8F5F3" d="M136.7,80.2l0-0.1l-0.1-1C136.7,79.5,136.7,79.8,136.7,80.2z"/>
							<path fill="#FAF7F6" d="M131.6,64.4c-1.2-1.9-2.5-3.7-4-5.4c-1.1-1-2.1-1.9-2.8-2.4c-3.9-3.6-8.6-6.6-13.6-8.3
								c-5-1.7-10.3-2-14.7-1.2c-1,0.2-1.9,0.5-2.9,0.7l1.7-0.2c4-0.4,8.2-0.2,12.3,0.7c0.2,0,0.4,0.1,0.7,0.1
								c2.3,0.3,4.3,1.3,6.4,2.2c5.9,2.5,10.1,6.1,14,11.2c0.3,0.5,0.8,0.9,1.1,1.4c0.3,0.5,0.7,1,1.1,1.5c0.8,1,1.3,2.1,1.9,3.4
								c0.5,0.8,0.7,1.7,1,2.5c1.3,3.3,2.2,7,2.2,10.8c0,0.9,0.4,1,0.5,1.1c0.1-0.4,0.2-0.8,0.3-1.2l-0.1-2.4
								c-0.1-0.8-0.2-1.6-0.3-2.4l-0.2-1.2c-0.1-0.4-0.2-0.8-0.3-1.2c-0.2-0.8-0.4-1.6-0.6-2.4c-0.2-0.7-0.5-1.3-0.8-2
								c-0.3-0.6-0.5-1.3-0.8-2c-0.7-1.3-1.2-2.6-2-3.7C131.5,64.1,131.5,64.2,131.6,64.4z"/>
							<path fill="#F8F5F3" d="M131.8,63.9c-0.2-0.4-0.7-0.7-0.4,0.1c0.8,1.2,1.4,2.5,2,3.7c0.4,0.6,0.6,1.3,0.8,2
								c0.3,0.7,0.5,1.3,0.8,2c-0.5-1.3-0.9-2.6-1.4-3.9c-0.3-0.6-0.6-1.3-0.9-1.9c-0.1-0.3-0.3-0.7-0.4-1
								C132.2,64.5,132,64.2,131.8,63.9z"/>
							<path fill="#FCFAF9" d="M133,63.8c-0.7-1.2-1.4-2.5-2.3-3.6c-0.4-0.6-0.9-1.1-1.3-1.7c-0.5-0.5-0.9-1-1.4-1.5
								c-0.5-0.5-0.9-1-1.4-1.4c-0.5-0.4-1-0.9-1.4-1.3c-0.9-0.9-1.9-1.6-2.8-2.4c-0.9-0.8-2-1.5-2.9-2.2c-0.9-0.8-2-1.3-2.9-2
								c-0.7-0.3-1.5-0.7-2.2-1c-9.3-3.6-20-3.3-29,0.6c-9.1,3.9-16.5,11.3-20.4,20.4c-0.4,1.2-0.9,2.3-1.3,3.5
								c-0.3,1.2-0.6,2.4-0.9,3.5l-0.5,3.6c0,0.6,0,1.2-0.1,1.8l-0.1,2.9l0,0.7c0,0,0,0.1,0,0.1l0.1,0l0.2,0l0.4,0l1.5,0l1.4,0
								l0.9,0c1.1,0,2.3-0.1,3.5-0.1c2.3-0.1,4.7-0.2,7.1-0.3c5.7-0.1,10.3,0.3,15.9,0.5c14,0.6,26.1-0.7,40.4-1.1
								c3.8-0.1,4.4-1.4,3.4-1.4c-24,0.5-46.5,0-70.4,0.3l-1.3,0l-0.5,0l-0.1,0c0,0,0-0.1,0-0.1l0-0.2l0-1.1c0-0.6,0-1.1,0.1-1.7
								c0.2-1.1,0.3-2.2,0.5-3.3c0.3-1.1,0.5-2.2,0.8-3.2c1.3-4.2,3.4-8.1,6.1-11.5c5.4-6.8,13.2-11.2,21.4-12.6c1-0.2,2-0.5,3-0.7
								c4.5-0.9,9.7-0.5,14.7,1.2c5,1.7,9.7,4.7,13.6,8.3c0.5,0.4,1.3,1.1,2.1,1.8c0.4,0.4,0.9,0.7,1.3,1.2c0.4,0.4,0.8,0.9,1.1,1.4
								c0.5,0.7,1.1,1.4,1.5,2.1c0.5,0.7,0.9,1.5,1.4,2.2c0.8,1.6,1.6,3.1,2.2,4.7c0.7,1.6,1.1,3.3,1.6,4.9c0.2,0.8,0.3,1.7,0.5,2.5
								c0.1,0.4,0.2,0.8,0.2,1.3l0.1,1.3c0.4-1.4,0.7-2.6,0.8-4.1C136.6,71.5,135,67.5,133,63.8z"/>
							<path fill="#F8F4F2" d="M133,63.8c1.9,3.7,3.6,7.8,4.5,12.1c0-0.4,0-0.8,0-1.2c0-0.4-0.1-0.8-0.2-1.3
								c-0.9-5.3-3.4-10.8-7.2-15.3c-3.7-4.5-8.6-8-13.7-10.4c0.9,0.6,1.9,1.2,2.9,2c1,0.7,2,1.4,2.9,2.2c0.9,0.8,1.9,1.5,2.8,2.4
								c0.5,0.4,1,0.9,1.4,1.3c0.5,0.4,0.9,1,1.4,1.4c0.5,0.5,0.9,1,1.4,1.5c0.4,0.5,0.8,1.1,1.3,1.7
								C131.6,61.2,132.3,62.5,133,63.8z"/>
							<path fill="#FAF7F6" d="M133,63.8c1.9,3.6,3.4,7.4,4.4,11.5c-0.2-1.4-0.6-2.8-0.9-4.2c-1.1-3.5-2.7-6.9-4.7-9.9
								c-2.1-3-4.5-5.8-7.2-8.3c3,2.5,5.6,5.5,7.8,8.8c2.2,3.3,3.7,7,4.8,10.8c-1.1-5.2-3.6-10.4-7.3-14.7c-3.7-4.3-8.4-7.7-13.4-10
								c0.9,0.6,1.9,1.2,2.9,2c1,0.7,2,1.4,2.9,2.2c0.9,0.8,1.9,1.5,2.8,2.4c0.5,0.4,1,0.9,1.4,1.3c0.5,0.4,0.9,1,1.4,1.4
								c0.5,0.5,0.9,1,1.4,1.5c0.4,0.5,0.8,1.1,1.3,1.7C131.6,61.2,132.3,62.5,133,63.8z"/>
							<path fill="#F8F4F1" d="M125.6,54.7c6.3,6,10.5,14,11.8,22.8c0.1-0.4,0.1-0.8,0.2-1.2c0-0.4-0.1-0.7-0.1-1.1
								c-1-4.1-2.6-7.9-4.4-11.5c-0.7-1.2-1.4-2.5-2.3-3.6c-0.4-0.6-0.9-1.1-1.3-1.7c-0.5-0.5-0.9-1-1.4-1.5c-0.5-0.5-0.9-1-1.4-1.4
								c-0.5-0.4-1-0.9-1.4-1.3c-0.9-0.9-1.9-1.6-2.8-2.4c-0.9-0.8-2-1.5-2.9-2.2c-0.9-0.8-2-1.3-2.9-2c-0.7-0.3-1.4-0.7-2.1-0.9
								c-9.5-3.7-20.4-3.4-29.6,0.8C77,51.3,69.8,58.2,65.8,66.4c1.8-3.9,4.2-7.6,7.3-10.7c-3.4,3.4-6.1,7.4-8.1,11.9
								c-1.6,3.9-2.5,7.9-2.7,11.9c0.1,0.2,0.1,0.4,0.2,0.7c0,0.4,0.1,0.9,0.1,1.4c0,0.3,0,0.5,0,0.8c0,0.1,0,0.3,0,0.4l0,0.2l0,0.1
								c0,0,0,0.1,0,0.1c0.7,0,1.4-0.1,2.2-0.1c1.8,0,3.5-0.1,5.3-0.1c1.7,0,3.4-0.1,5.1-0.2c0.5,0,0.4,0.2,1.3,0.3
								c-2.6,0-4.8,0.1-6.7,0.4c2.3-0.1,4.7-0.2,7.1-0.3c4.5-0.1,8.3,0.1,12.5,0.3l1.3,0c2.2,0,4.5-0.2,6.8-0.3c-0.9,0-1.8,0-2.8,0
								c1.5-0.1,3.4-0.1,4.8-0.1c-0.7,0-1.3,0.1-2,0.1c2.2,0,4.3,0,6.6,0.1c-2.8,0-5.7,0.1-8.2,0.2c5.2,0,10-0.1,15.2,0.1
								c-0.1,0-0.3,0-0.4,0c7.3-0.3,14.6-0.8,22.5-1.1c3.8-0.1,4.4-1.4,3.4-1.4c-16.7,0.4-32.8,0.2-49.1,0.2
								c1.8,0.2,3.7,0.3,5.6,0.5c0.8,0,1.6,0.1,2.3,0.2c-0.8-0.1-1.6-0.1-2.3-0.2c-2.2-0.1-4.6-0.1-7-0.2c-0.4-0.1-1.9-0.1-2.4,0.1
								c-3.2-0.2-7.1,0-10.4-0.2c-0.2,0-0.5-0.1-0.9-0.2c-2.1,0-4.1,0-6.2,0.1l-1.5,0c-0.1,0-0.2,0-0.3,0l0-0.3l0-0.6l0.1-2l0.3-2.1
								c0.4-2.8,1.2-5.4,2.2-8c2.1-5.1,5.5-9.5,9.5-13c-0.5,0.4-1,0.8-1.5,1.2c-0.5,0.4-0.9,0.9-1.4,1.3c-0.5,0.4-0.9,0.8-1.3,1.3
								c-0.4,0.4-0.8,0.9-1.2,1.3C70.7,61.2,70,62,69.5,63c-0.3,0.5-0.6,1-1,1.6c-0.4,0.5-0.6,1.2-0.9,1.8c-0.3,0.6-0.6,1.3-0.9,2
								c-0.2,0.7-0.5,1.4-0.7,2.1l-0.4,1.1l-0.3,1.1c-0.2,0.7-0.3,1.4-0.5,2.1c-0.2,1.4-0.5,2.2-0.8,3.6c0-0.6,0-1.3,0.1-1.9
								c0.1-0.7,0.1-1.4,0.3-2c0.3-1.4,0.6-2.8,1.2-4.2c0.3-0.7,0.5-1.4,0.8-2.1l1-2c0.6-1.4,1.5-2.6,2.2-3.8
								c2.1-3.2,5.3-6.6,9.1-9.3c3.8-2.7,8.1-4.6,12-5.9c0.8-0.2,1.6-0.5,2.4-0.7c0.8-0.1,1.6-0.2,2.4-0.3c0.4,0,0.8-0.1,1.2-0.1
								c0.4,0,0.8,0,1.1,0c0.7,0,1.4,0.1,2.1,0.1c-1,0.2-2.9,0.2-3.8,0.4c-8.4,0.8-16.4,4.8-22.2,11c3.2-3.1,6.7-5.6,10.6-7.4
								c3.9-1.8,8.1-3,12.4-3.2c-5.1,0.5-10,1.7-14,4.3c0.4-0.2,0.8-0.3,1.2-0.4l2.3-1c0.8-0.3,1.6-0.5,2.4-0.8
								c0.4-0.1,0.8-0.3,1.2-0.4l1.2-0.3c0.8-0.2,1.6-0.4,2.4-0.5c1-0.2,2-0.5,2.9-0.7c4.5-0.9,9.7-0.5,14.7,1.2
								c5,1.7,9.7,4.7,13.6,8.3c0.7,0.6,1.7,1.4,2.8,2.4l-1.7-1.9c-0.6-0.6-1.3-1.2-1.9-1.8c-0.6-0.6-1.3-1.1-2-1.7
								c-0.7-0.5-1.4-1.1-2.1-1.5c0.6,0.4,1.1,0.8,1.6,1.3c0.5,0.4,1,0.9,1.4,1.3c-1.3-0.9-2.4-2-3.7-2.7c-0.6-0.4-1.2-0.8-1.9-1.2
								c-0.7-0.4-1.4-0.7-2.1-1.1c0.8,0.4,1.6,0.7,2.4,1.1c0.8,0.4,1.5,0.9,2.2,1.3c-0.9-0.6-1.7-1.2-2.7-1.8c-1-0.5-2-1-3-1.5
								c1,0.4,2,0.8,2.9,1.3c0.9,0.5,1.8,1.1,2.6,1.7c0.9,0.5,1.7,1.2,2.5,1.9c0.4,0.3,0.9,0.6,1.3,0.9c0.4,0.3,0.8,0.7,1.3,1
								c-0.7-0.6-1.3-1.3-2.1-1.8c0.8,0.5,1.4,1.2,2.1,1.9l0,0c2.1,1.9,4,4,5.6,6c-2.8-4-5.8-7.4-9.9-10.1c-0.7-0.4-1.4-0.8-2.1-1.2
								c0.7,0.4,1.4,0.8,2.1,1.2c9.4,6,15.4,16.7,16.1,27.6l0.1,1c0.1-0.3,0.2-0.6,0.3-0.9c-0.3-4.6-1.5-9.1-3.5-13.3
								C131.6,61.7,128.8,57.9,125.6,54.7z"/>
						</g>
					</g>
				</g>
			</g>
		</g>
	</g>
	<g>
		<g>
			<g>
				<g>
					<g opacity="0.8">
						<g opacity="0.8">
							<path fill="#FFFFFF" d="M101.7,126.9c-0.7-6.7-0.7-13.9-2-19.5c-0.1-0.6-0.3-1.3-0.4-1.9c0,0.3,0,0.7,0,1
								c0.3,7.5,0.9,15.6,1.8,23.3c0.7,4.7,1.7,9.4,2.1,14.7c0,0.6,0.4,0.6,0.5,0.7c0.2-0.5,0.3-1,0.5-1.4
								c-0.6-4.2-1.2-8.4-1.7-12.8C102.4,129.3,101.8,127.8,101.7,126.9z"/>
							<path fill="#FFFFFF" d="M104.2,143.8C104.2,143.8,104.2,143.7,104.2,143.8c0-0.3,0-0.5-0.1-0.7
								C104.2,143.3,104.2,143.6,104.2,143.8z"/>
							<path fill="#FFFFFF" d="M102.7,133.4c-0.2-1.4-0.4-2.8-0.5-4.2c-0.2-0.9-0.5-1.7-0.6-2.3c-0.7-6.7-0.7-13.9-2-19.5
								c-0.1-0.6-0.3-1.3-0.4-1.9c0,0.4,0,0.7,0,1.1c0.1,2.6,0.2,5.3,0.4,8c0,0.1,0.1,0.3,0.1,0.4c0.4,1.5,0.2,2.9,0.3,4.4
								c0.5,4.1,0.7,7.6,1.2,11.7c0.2,1.5,0.7,3,0.8,4.7c0.1,0.6,0.1,1.2,0.1,1.7c0.4,2.3,0.7,4.6,0.9,7c0,0.6,0.4,0.6,0.5,0.7
								c0.1-0.3,0.2-0.5,0.3-0.8c-0.1-2-0.3-4-0.5-6c-0.2-1.7-0.5-3.5-0.7-5.3C102.8,133.2,102.8,133.3,102.7,133.4z"/>
							<path fill="#FFFFFF" d="M103.2,133.2c0-0.3-0.3-0.5-0.4-0.1c0.2,1.8,0.4,3.5,0.7,5.3C103.3,136.7,103.2,135,103.2,133.2z"/>
							<path fill="#FFFFFF" d="M104.3,133.4c-0.2-3.5-0.9-6.7-0.9-9.6c0-1.5,0.1-3,0.3-4.3c-0.1-0.5-0.1-0.9-0.1-1.4
								c-1.4-11.7-2.6-23.4-3.3-35c-0.4-5.8-1.5-11.1-2.4-17c-0.4-3.5-0.3-6.4-0.4-9.8c-0.2-8.6-2.2-15.9-3.5-24.7
								c-0.3-2.3-1.6-2.5-1.6-2c1.9,14.7,2.6,28.6,4.4,43.2c1.3,11.3,2.2,22.1,2.5,32.7c0.1,0.6,0.3,1.3,0.4,1.9
								c1.3,5.7,1.2,12.8,2,19.5c0.1,0.9,0.7,2.4,0.8,3.9c0.4,4.4,1.1,8.6,1.7,12.8c0.4-0.9,0.8-1.6,1-2.5
								C104.8,138.5,104.4,135.9,104.3,133.4z"/>
							<path fill="#FFFFFF" d="M104.3,133.4c0.1,2.5,0.5,5.1,0.9,7.7c0.1-0.4,0.2-0.9,0.3-1.5c0.1-6.4-1.1-13.5-1.8-20.1
								c-0.2,1.3-0.3,2.8-0.3,4.3C103.4,126.6,104.1,129.9,104.3,133.4z"/>
							<path fill="#FFFFFF" d="M104.3,133.4c0.1,2.4,0.5,4.9,0.9,7.4c0-0.8,0-1.7-0.1-2.6c-0.3-4.4-0.8-8.7-0.9-13.1
								c0.4,4.6,0.8,9.3,1.4,13.9c0-6.3-1.1-13.2-1.8-19.6c-0.2,1.3-0.3,2.8-0.3,4.3C103.4,126.6,104.1,129.9,104.3,133.4z"/>
							<path fill="#FFFFFF" d="M103.5,126.3c0.3,5.2,0.7,10.5,1.5,15.8c0.1-0.2,0.2-0.5,0.3-0.7c0-0.2,0-0.4,0-0.7
								c-0.4-2.5-0.8-4.9-0.9-7.4c-0.2-3.5-0.9-6.7-0.9-9.6c0-1.5,0.1-3,0.3-4.3c0-0.4-0.1-0.9-0.1-1.3c-0.7-6-1.4-11.9-1.9-17.9
								c-0.9-5.1-1.3-10.8-1.5-16.2c0.2,2.6,0.5,5.1,0.8,7.7c-0.2-2.8-0.4-5.7-0.6-8.5c-0.2-2.5-0.5-4.8-0.8-7.2
								c-0.3-0.5-0.7-1.2-0.9-2.5c-0.3-2.1-0.5-4.1-0.9-6.2c0-0.3,0.2-0.3,0.2-0.8c0.1,1.6,0.4,2.9,0.8,4.1
								c-0.2-1.4-0.5-2.9-0.7-4.4c-0.3-2.8-0.3-5.1-0.4-7.7c0-0.3-0.1-0.5-0.1-0.8c-0.2-1.4-0.4-2.7-0.7-4.1c0,0.6,0.1,1.1,0.1,1.7
								c-0.2-0.9-0.3-2.1-0.4-2.9c0.1,0.4,0.2,0.8,0.2,1.2c-0.1-1.4-0.2-2.6-0.3-4.1c0.1,1.7,0.4,3.5,0.7,5
								c-0.3-3.2-0.7-6.1-0.8-9.3c0,0.1,0,0.2,0.1,0.2c-0.7-4.4-1.7-8.9-2.4-13.7c-0.3-2.4-1.6-2.5-1.6-2c1.3,10.2,2.1,20.1,3,30.1
								c0.1-1.1,0.1-2.3,0.2-3.5c0-0.5,0-1,0.1-1.4c0,0.5,0,1-0.1,1.4c0,1.4,0.2,2.9,0.2,4.3c-0.1,0.3,0,1.2,0.3,1.5
								c0,2,0.4,4.4,0.4,6.4c0,0.1,0,0.3-0.1,0.6c0.1,1.3,0.3,2.5,0.4,3.8c0.8,7.1,1.5,13.9,1.9,20.7c0-1.6,0-3.2,0.1-4.7
								c0.2-2-0.5-6.1-1-9.6c-0.1-0.9,0-1.4,0-2.3c0.9,3,0.9,7,1.3,10.5c0.5,4.7,0.5,11.3,1.5,16.3c0.4,2.1,0.3,4.1,0.2,5.8
								c-0.2-0.6-0.3-1.8-0.3-2.4c-0.4-5.2-0.8-10.5-1.4-15.7c0.2,5.5,0.8,10.8,0.9,16.2c-0.3-3.2-0.2-6.4-0.9-9.3
								c0,0.3-0.1,0.5-0.1,0.8c0.1,2.1,0.2,4.2,0.3,6.3c0.1,0.6,0.3,1.3,0.4,1.9c1.3,5.7,1.2,12.8,2,19.5c0,0.6,0.3,1.4,0.6,2.3
								c-0.2-2.2-0.3-4.3-0.5-6.5c0,0.9,0,1.7-0.1,2.5c-0.2-2,0-3.7-0.3-5.8c0.2,1.1,0.3,2.2,0.4,3.3c0-1.3-0.1-2.7-0.2-4.1
								c0.5,2.7,0.1,5.2,0.7,7.8c-0.1-0.6-0.1-1.1-0.1-1.7c0,0.6,0.1,1.2,0.1,1.7c0,0,0,0,0,0c0.2,1.7,0.5,3.5,0.8,5
								c-0.3-3-0.2-5.8-0.5-8.7c-0.1-0.5-0.1-1-0.2-1.5c0.1,0.5,0.1,1,0.2,1.5c0.8,6.8,1,13.6,1.5,20.3c0,0.2,0.1,0.4,0.1,0.6
								c0.1-0.2,0.2-0.4,0.3-0.6C104,137.5,103.7,131.8,103.5,126.3z"/>
						</g>
					</g>
				</g>
			</g>
		</g>
	</g>
	<g>
		<rect x="51" y="153.6" fill="none" width="354" height="49.5"/>
		<text transform="matrix(1 0 0 1 51.0001 178.5325)" fill="#86604E" font-family="'Tangerine'" font-size="33">Frappucino</text>
	</g>
</g>
</svg>
