<?xml version="1.0" encoding="utf-8"?>
<!-- Generator: Adobe Illustrator 18.0.0, SVG Export Plug-In . SVG Version: 6.00 Build 0)  -->
<!DOCTYPE svg PUBLIC "-//W3C//DTD SVG 1.1//EN" "http://www.w3.org/Graphics/SVG/1.1/DTD/svg11.dtd">
<svg version="1.1" id="Layer_1" xmlns="http://www.w3.org/2000/svg" xmlns:xlink="http://www.w3.org/1999/xlink" x="0px" y="0px"
	 viewBox="0 0 560 560" enable-background="new 0 0 560 560" xml:space="preserve">
<g>
	<g>
		<path fill="#86604E" d="M205,274.4h147.8c0,0-22.1,145.3-73.9,131.3S205,274.4,205,274.4z"/>
		<g>
			<g>
				<g>
					<g opacity="0.8">
						<g opacity="0.8">
							<path fill="#EEE8E6" d="M229.3,343.3c5.6,12.3,11.5,24.6,19,35.6c7.6,10.6,17.6,19.6,28,22.4c1.1,0.3,2.2,0.6,3.4,0.8
								c1.1,0,2.2,0.3,3.4,0.3l-3.4-0.8c-6.4-2-12.3-6.2-17.6-10.9c-5.3-5-10.1-10.9-14.3-17.1c-8.4-12.6-15.1-26.9-20.7-40.9
								c-7.3-17.4-14.3-35.3-18.5-56c-0.6-2.2-1.4-2.5-2-2.5c-0.3,2.2-0.3,3.9-0.6,5.6c4.2,16.8,9.8,32.8,15.7,49.3
								C224.3,334.9,227.9,340.2,229.3,343.3z"/>
							<polygon fill="#E6DEDB" points="206.4,279.2 206.4,279.4 207.2,282 							"/>
							<path fill="#ECE6E3" d="M219,319.2c2,5.3,3.9,10.6,5.9,16c1.7,3.4,3.6,6.2,4.5,8.1c5.6,12.3,11.5,24.6,19,35.6
								c7.6,10.6,17.6,19.6,28,22.4c1.1,0.3,2.2,0.6,3.4,0.8c1.1,0,2.2,0.3,3.4,0.3c-1.1-0.3-2.5-0.6-3.6-0.8
								c-4.5-1.4-8.7-3.9-12.6-6.7c-3.9-2.8-7.6-6.7-10.9-10.4c-0.3-0.3-0.8-0.8-1.1-1.1c-4.2-3.9-6.7-9-9.8-13.7
								c-9-13.4-14-26.3-20.2-41.4c-2.2-5.3-5-10.9-7-17.6c-0.8-2.2-1.4-4.5-2-6.7c-2.8-8.7-5.6-17.6-7.3-27.2
								c-0.6-2.2-1.4-2.5-1.7-2.5c0,1.1-0.3,2.2-0.3,3.1c1.4,7.8,3.4,15.4,5.6,23.2c2.2,6.7,4.5,13.4,6.7,20.2
								C219,320,219,319.8,219,319.2z"/>
							<path fill="#E6DEDB" d="M217.8,320.3c0.3,0.8,1.4,2,1.1,0c-2.5-6.7-4.8-13.4-6.7-20.2C214.2,306.9,215.9,313.3,217.8,320.3z"
								/>
							<path fill="#F4F0EE" d="M214.8,320.3c4.2,13.4,10.1,25.5,14.6,36.4c2.2,5.3,4.5,10.9,6.7,16.2c1.1,1.7,2,3.4,3.4,5
								c3.4,5,7.3,9.8,11.8,14.3c4.2,4.5,9.2,8.7,14.6,11.8c5.6,3.1,11.5,5.6,18.5,6.2c7,0.6,13.7-2,19-5.6
								c5.3-3.6,9.8-8.4,13.4-13.2c3.9-4.8,7-10.1,9.8-15.4c5.6-10.6,10.4-21.6,14.3-32.8c3.9-11.2,6.7-22.4,9-33.6
								c1.1-5.6,2.2-11.2,3.1-17.1c0.6-2.8,0.8-5.9,1.4-8.7c0.6-3.6,1.1-7.6,1.4-11.5v-0.6c0-0.3,0-0.3,0-0.3h-0.8h-2
								c-1.1,0-2.5,0-3.6,0c-2,0-3.9,0-5.9,0c-3.4,0-6.4-0.3-9.8-0.3c-6.4-0.3-12.6-0.6-19.6-1.1c-34.7-1.7-64.7,2-100,3.1
								c-9.5,0.3-10.9,3.9-8.4,3.9c29.7-0.8,58.5-0.6,87.4-0.6c14.3,0,28.8,0,43.4,0c3.6,0,7,0,10.6,0h2.8c0.3,0,0.3,0.3,0.3,0.6
								v0.6l-0.3,1.4l-0.8,4.8l-1.1,5.3c-0.8,3.6-1.4,7.3-2.2,10.9c-4.8,22.4-10.9,44-19.9,63.6c-2.2,4.8-4.8,9.8-7.6,14.3
								c-1.4,2.2-2.8,4.5-4.5,6.7c-1.7,2-3.1,4.2-5,6.2c-6.7,7.8-16.2,13.2-25.2,11.5c-1.1,0-2.2-0.3-3.4-0.3
								c-1.1-0.3-2.2-0.6-3.4-0.8c-10.6-2.8-20.4-11.5-28-22.4c-7.6-10.6-13.7-23.2-19-35.6c-1.4-3.1-5-8.7-7-14
								c-6.2-16.5-11.5-32.8-15.7-49.3c-0.6,3.6-1.1,6.7-1.1,10.4C208.3,300.4,211.7,310.5,214.8,320.3z"/>
							<path fill="#E5DDD9" d="M214.8,320.3c-2.8-9.8-6.2-19.9-9.2-30c0,1.7,0,3.9,0.3,6.2c4.8,25.5,15.7,53.2,30.2,76.7
								c-2.2-5.3-4.5-10.9-6.7-16.2C224.8,345.8,218.7,333.8,214.8,320.3z"/>
							<path fill="#ECE6E3" d="M214.8,320.3c-2.8-9.5-5.9-19-9-28.6c0.6,3.4,1.4,6.7,2.2,10.1c4.5,17.1,10.6,34.2,17.1,50.4
								c-7.8-17.4-14-35.3-19-53.8c5,24.9,15.7,51.8,30,74.5c-2.2-5.3-4.5-10.9-6.7-16.2C224.8,345.8,218.7,333.8,214.8,320.3z"/>
							<path fill="#E3DAD6" d="M225.4,346.9c-8.1-19.6-14-40-19.9-60.8c0,0.8-0.3,2-0.3,3.1c0.3,0.8,0.3,1.7,0.6,2.5
								c3.1,9.8,6.2,19.3,9,28.6c4.2,13.4,10.1,25.5,14.6,36.4c2.2,5.3,4.5,10.9,6.7,16.2c1.1,1.7,2,3.1,3.1,4.8
								c3.4,5,7.6,10.1,11.8,14.6c4.5,4.5,9.2,8.7,15.1,12c5.6,3.1,11.8,5.6,19,5.9c7,0.3,14-2.5,19.3-6.2
								c9-7.3,15.1-16.8,20.7-26.6c5.3-10.1,9.8-20.4,14-30.8c-3.4,9.8-7.3,19.6-12.3,29.1c5.6-10.4,10.1-21.3,14-32.2
								c3.4-9.5,5.9-19,7.8-28.6c-0.3-2.2-0.3-5.3,0.8-10.6c0.8-4.2,1.7-8.1,2.2-12.3c0.3-2,0.8-4.2,1.1-6.2c0-1.1,0.3-2,0.3-3.1
								c0-1.1,0.3-2.2,0.3-3.4c0.3-1.4,0.8-1.4,1.4-4.5c-0.3,2.2-0.8,4.2-1.1,6.4c-0.3,1.4-0.3,2.8-0.6,4.2
								c-0.3,2.8-0.6,5.3-0.6,7.6c0.6-2.8,0.8-5.9,1.4-8.7c0.6-3.6,1.1-7.6,1.4-11.2v-0.8v-0.3v-0.3h-1.4c-0.8,0-2,0-2.8,0
								c-2,0-3.6,0-5.3,0c-2.5,0-5,0-7.6-0.3c-5-0.3-10.1-0.6-15.1-0.8h-3.4c-5.6,0-11.2,0.6-16.8,0.8c2.2,0,4.5,0,7,0
								c-3.6,0.3-8.4,0.3-11.8,0.3c1.7,0,3.4-0.3,5-0.3c-5.3,0-10.6,0-16.5-0.3c7,0,14.3-0.3,20.2-0.6c-12.9,0-24.9,0.3-37.5-0.3
								c0.3,0,0.6,0,0.8,0c-18.2,0.8-36.1,2.2-55.7,3.1c-9.5,0.3-10.9,3.9-8.4,3.9c41.4-1.1,81.2-0.6,121.8-0.6
								c-4.5-0.6-9.2-0.8-13.7-1.4c-2,0-3.9-0.3-5.9-0.6c2,0.3,3.9,0.3,5.9,0.6c5.3,0.3,11.5,0.3,17.4,0.6c1.1,0.3,4.5,0.3,6.2-0.3
								c2,0,4.2,0.3,6.2,0.3c1.7,0,3.6,0,5.3,0h1.1h0.6h0.3v0.3c0,0.8-0.3,1.4-0.3,2.2c-0.3,0.8-0.3,1.4-0.6,2.2
								c-0.3,1.1-0.6,2-0.8,3.1c0,0.6-0.6,1.1-0.8,2c-0.8,5-2,10.1-2.8,15.1c-3.1,14-6.4,27.7-10.9,40.6c-2.2,6.4-4.5,12.9-7.3,19
								c-2.8,6.2-5.6,12.3-9.2,17.9c3.6-5.3,6.7-10.6,9.8-15.7c4.2-6.7,9.2-23,12.6-36.7c0.8-3.6,2-5.3,3.1-8.7
								c-1.4,12.6-7.3,27.4-12.3,40.9c-3.4,8.7-8.7,19-15.4,28.3c-3.4,4.8-7.3,9-11.5,12.6s-9.2,6.2-14.3,7c-1.1,0.3-2,0.3-3.1,0.3
								c-1.1,0-2,0.3-3.1,0c-2-0.6-3.9-0.6-5.9-1.4l-2.8-1.1c-0.8-0.3-1.7-0.8-2.5-1.4c-0.8-0.6-1.4-0.8-2.2-1.4
								c-0.6-0.6-1.4-1.1-2-1.7c1.1,0.6,2.8,1.4,4.2,2c1.7,0.8,3.1,1.4,4.2,1.7c1.1,0.3,2.5,0.8,3.6,1.1l3.6,0.8c1.1,0,2.5,0,3.6,0
								c1.4,0,2.5-0.3,3.6-0.6c5-1.1,9.5-3.6,13.4-7c3.9-3.4,7.3-7.6,10.4-11.8c2.8-4.5,5.6-9,7.8-13.7
								c-5.3,9.5-11.5,18.8-19.6,25.2c-3.9,3.4-8.7,5.6-13.7,6.4c-5,0.8-9.8-0.3-14.6-2.5c5.6,2.2,11.5,3.4,17.1,2
								c5.6-1.4,10.6-5,14.3-9.5c-0.8,0.6-1.7,1.1-2.5,1.7c-1.4,1.4-3.1,2.2-4.8,3.6l-2.5,1.4c-0.6,0.3-0.8,0.6-1.4,0.6l-1.4,0.6
								c-3.4,1.4-7.3,1.4-10.6,1.1c-1.1,0-2.2-0.3-3.4-0.3c-1.1-0.3-2.2-0.6-3.4-0.8c-10.6-2.8-20.4-11.5-28-22.4
								c-7.6-10.6-13.7-23.2-19-35.6c-0.8-2-2.8-5-4.5-8.1c3.1,8.1,6.4,16.2,10.4,23.8c-1.4-3.1-2.5-6.4-3.4-9.2
								c3.6,7.3,5.9,13.7,10.4,20.7c-1.4-1.7-2.5-3.6-3.6-5.6c-1.1-2-2.2-3.9-3.1-5.6c2,4.8,4.8,9.8,7.6,14.6
								c-6.4-8.7-9.2-18.2-14.8-27.7c0.8,2,2,4.2,2.8,6.2c-0.8-2.2-2-4.2-2.8-6.4l0,0c-2.8-6.4-5.6-12.9-8.4-18.8
								c4.2,11.5,7.6,21.8,13.2,32.5c0.8,1.7,2,3.6,2.8,5c-1.1-1.7-2-3.4-2.8-5c-6.4-12-11.5-24.9-15.7-38.1
								c-4.2-13.2-7.6-26.3-10.4-39.8l-0.6-2.5c0,0.8-0.3,1.7-0.3,2.5C210.8,304.1,217.3,326.2,225.4,346.9z"/>
						</g>
					</g>
				</g>
			</g>
		</g>
	</g>
	<g>
		<circle fill="#DFCEC4" cx="283.6" cy="276.4" r="233.2"/>
		<g>
			<g>
				<g>
					<g opacity="0.8">
						<g opacity="0.8">
							<path fill="#FAF8F7" d="M405.2,91c-8.4-5.6-17.6-10.4-26.6-14.8c-9.2-4.5-18.8-8.4-28.3-11.8c-19.6-6.4-39.8-10.6-59.9-11.5
								c-40.9-2.5-80.4,8.4-108.9,28.3c-6.4,4.2-12.6,9-18.5,14c3.4-2,6.7-3.9,10.1-5.6c9.8-5,20.2-9.5,30.5-13.2
								c5.3-2,10.6-3.4,16-5c5.3-1.4,10.9-2.8,16.5-3.6c22.1-4.2,44.8-5,67.2-2.5c45.1,4.8,87.6,24.1,121.2,52.4
								c21.3,17.1,40.3,38.1,54.3,63.3c14.3,25.2,23.5,54.6,24.1,85.7c0,7,3.6,7.8,5.3,8.4c1.1-3.1,2.2-6.2,3.4-9
								c1.1-2.8,2.2-5.6,3.1-8.1c-1.4-13.4-4.2-26.6-8.1-39.2c-3.9-12.9-9-25.2-14.8-37c-12-23.8-27.7-45.6-46.8-64.7
								c-3.1-3.4-6.7-6.2-10.4-9c-3.9-2.5-7.6-5-11.2-7c-3.6-2-7.3-3.9-10.4-5.6C410.2,93.8,407.4,92.4,405.2,91z"/>
							<path fill="#F8F5F3" d="M514.9,260.1c0.3-0.3,0.3-0.6,0.3-1.1c-0.3-2.8-0.6-5.3-1.1-8.1C514.6,254,514.6,257,514.9,260.1z"/>
							<path fill="#FAF7F6" d="M465.9,141.7c-11.2-13.4-23.2-25.8-36.1-37c-2.2-1.7-4.8-2.8-7-4.2c-2.2-1.1-4.5-2.5-6.7-3.6
								c-4.5-2.2-8.1-4.2-10.9-5.9c-8.4-5.6-17.6-10.4-26.6-14.8c-9.2-4.5-18.8-8.4-28.3-11.8c-19.6-6.4-39.8-10.6-59.9-11.5
								c-40.9-2.5-80.4,8.4-108.9,28.3c-6.4,4.2-12.3,9-18.2,14c3.6-2,7.3-4.2,10.9-5.9c27.2-13.7,57.7-22.7,88.8-24.6
								c1.7-0.3,3.4-0.6,5-0.8c8.7-2,17.1-1.7,25.5-0.8c4.2,0.6,8.4,1.1,12.3,1.7c4.2,0.8,8.1,1.4,12.3,2.2
								c11.8,1.4,23,4.2,33.6,7.6c10.6,3.4,20.7,7.8,30.2,13.2c19.3,10.4,37,23.2,54.6,39.8c3.1,3.1,6.4,5.9,9.5,9
								c3.4,3.1,6.4,6.2,9.8,9.5c6.4,6.7,12.9,14.3,17.6,23.5c2,3.1,3.4,6.2,4.8,9.2c1.7,3.1,2.8,6.2,3.9,9.2
								c12.3,24.1,20.4,51.5,21,80.6c0,7,3.6,7.8,5.3,8.4c1.1-3.4,2.2-6.4,3.4-9.2c-0.3-12.3-1.4-24.6-3.9-36.7
								c-2.5-12-5.9-24.1-10.1-35.8c-8.7-20.2-20.2-38.9-33.6-56C464.8,139.2,465.4,140.3,465.9,141.7z"/>
							<path fill="#F8F5F3" d="M468.7,136.6c-2-2.5-6.2-3.9-4.5,1.7c13.7,17.1,25.2,35.8,33.6,56c-3.6-10.1-8.1-19.6-12.9-29.4
								C480.5,155.4,474.9,146.2,468.7,136.6z"/>
							<path fill="#FCFAF9" d="M480.8,132.2c-12.9-19-29.4-34.7-46.5-47.6c-17.1-12.9-35-22.7-51.5-31.9
								c-17.4-9.5-35.6-17.4-52.4-24.1c-3.4-0.6-6.4-1.1-9.5-1.7c-3.1-0.3-6.4-0.8-9.5-1.1c-20.2-1.7-40-0.8-59.9,2
								c-19.6,2.8-39.2,7.8-57.7,15.4c-37,14.6-70,38.1-96.3,67.5c-13.2,14.8-24.6,31.1-33.9,48.4s-16.8,35.8-21.8,54.9
								s-7.8,38.6-8.7,58.2c-0.8,19.6,0.8,39.5,4.8,58.8s10.6,38.1,19.6,55.2c9,17.1,19.9,33,32.5,47c12.6,14.3,27.2,26.6,42.8,37.5
								s32.8,19.9,51.2,26.9c5.3,2.5,10.6,4.2,15.7,6.4c2.5,0.8,5.3,2,7.8,2.8c1.4,0.6,2.5,0.8,3.9,1.4c1.4,0.3,2.5,0.8,3.9,1.1
								c2.5,0.8,5,1.7,7.6,2.5c2.5,0.8,5,1.4,7.6,2c5,1.4,10.1,2.5,15.4,3.6c20.4,4.2,41.4,6.7,64.7,5.6
								c29.1-1.4,56.8-9.2,81.5-21.6c24.6-12.6,46.5-29.7,64.4-49.8c35.8-40.3,57.1-92.1,61-148.1c1.1-15.1-3.1-23.8-6.4-27.4
								c-3.6-3.9-7.3-2.8-7.3,0.6c1.4,44-11.5,87.9-35.8,124c-24.1,36.1-59.4,64.7-99.1,80.9c-10.1,4.2-20.2,7.3-30.8,10.1
								c-10.4,2.5-21,4.2-31.9,5.6c-10.6,0.8-21.6,1.4-32.5,0.8c-10.9-0.6-21.6-1.7-32.2-3.6c-42.6-8.1-83.2-28.6-115.6-59.4
								c-12.6-11.8-23.5-25.2-32.8-39.8c-9.2-14.3-16.8-29.7-22.4-45.6c-11.2-31.9-14.6-66.1-10.4-98.8s16-64.1,33.9-91
								s41.4-49.3,68.6-65c5.9-5,12-9.8,18.5-14c28.3-19.9,68-30.8,108.6-28.3c20.2,0.8,40.6,5,59.9,11.5
								c9.8,3.4,19.3,7.3,28.3,11.8c9.2,4.5,18.2,9.2,26.6,14.8c2.2,1.4,5,3.1,8.1,4.8c3.4,1.7,6.7,3.4,10.4,5.6
								c3.9,2,7.6,4.5,11.2,7c3.6,2.8,7.3,5.6,10.4,9c19,19,34.7,40.9,46.8,64.7c5.9,11.8,10.9,24.4,14.8,37
								c3.9,12.9,6.4,26,8.1,39.2c4.5-11.2,8.1-21,9.5-33.3C515.5,191,499.2,160.2,480.8,132.2z"/>
							<path fill="#F8F4F2" d="M480.8,132.2c18.5,28,34.4,58.5,44,92.4c0.3-3.1,0.6-6.2,0.3-9.5c0-3.4-0.6-7-1.1-10.6
								c-0.6-2.8-1.1-5.3-1.7-8.1c-0.6-2.5-1.4-5.3-2.2-8.1c-1.7-5.3-3.4-10.6-5.3-16c-3.9-10.6-9.2-20.7-14.8-30.8
								c-5.9-10.1-12.6-19.3-20.2-28.6c-7.6-9-15.7-17.4-24.4-25.5c-9-7.8-18.2-15.1-28-21.6c-9.8-6.4-20.2-12.3-30.8-17.1
								s-21.6-9.2-32.5-12.6c-5.6-2-11.2-3.1-16.5-4.8c-2.8-0.6-5.6-1.1-8.4-1.7c-2.8-0.6-5.6-1.1-8.4-1.7
								c16.8,6.7,34.7,14.6,52.4,24.1c16.5,9.2,34.2,19,51.5,31.9C451.4,97.4,467.9,113.1,480.8,132.2z"/>
							<path fill="#FAF7F6" d="M480.8,132.2c17.6,26.6,33,55.7,42.6,87.9c-0.8-5.6-2.2-11.2-3.4-16.5c-0.8-2.8-1.7-5.6-2.5-8.1
								l-1.4-4.2l-1.4-3.9c-10.1-27.4-25.8-53.2-44.8-75.3c-19.3-22.1-42-41.2-66.9-56.6c27.7,15.1,52.6,35.6,72.8,59.6
								c20.4,24.1,36.4,52.1,46.8,82.3c-9.8-41.7-35.6-82-70.3-111.7c-8.7-7.6-17.9-14.3-27.4-20.4c-9.8-6.2-19.6-11.5-30-16.2
								c-10.4-4.5-21-9-31.6-12c-5.3-1.7-10.6-3.1-16.2-4.5c-2.8-0.6-5.3-1.1-8.1-1.7c-2.8-0.6-5.3-1.1-8.1-1.7
								c16.5,6.4,34.7,14.6,52.1,24.1c16.5,9.2,34.2,19,51.5,31.9C451.4,97.4,467.9,113.1,480.8,132.2z"/>
							<path fill="#F8F4F1" d="M411.6,70.8c28.6,19,53.2,43.7,72,72.2c18.8,28.6,32.2,61,38.9,95.2c0.8-3.1,1.4-6.2,2-9.8
								c-0.3-3.1-0.8-5.9-1.1-8.7c-9.5-31.9-24.9-61.3-42.6-87.9c-12.9-19-29.4-34.7-46.5-47.6s-35-22.7-51.5-31.9
								c-17.4-9.5-35.6-17.4-52.1-24.1c-3.1-0.6-6.2-1.1-9-1.4c-3.1-0.3-6.2-0.8-9-1.1c-20.4-1.7-41.2-0.8-61.3,2
								c-10.1,1.4-20.2,3.6-30,6.2c-9.8,2.8-19.6,5.9-28.8,9.8c-9.5,3.6-18.5,8.1-27.4,12.9c-8.7,5-17.4,10.4-25.5,16.2
								c-8.4,5.9-16,12.3-23.5,19c-7.3,7-14.6,14-21,21.8c-10.6,14-20.2,29.1-28.6,45.1c-8.1,16-14.8,33-19.9,50.7
								c-5,17.6-8.4,35.8-9.8,54c-1.4,18.5-0.8,37,1.4,55.2c-5.6-34.2-4.5-69.2,3.4-103.3c-9.8,37.2-11.2,76.7-3.9,114.5
								c6.7,33,21,63.3,40.6,89c3.4,1.7,6.7,4.5,11.2,8.1c4.5,3.6,9.5,8.4,15.7,14.6c9.8,9.5,19.9,18.5,30.8,26.3
								c10.9,7.8,23,14.8,35.6,19.9c3.4,1.7,1.4,3.9,8.1,7.3c-19-9.5-34.4-17.6-48.4-25.2c15.7,10.9,33,20.2,51.2,27.4
								c16.8,7.3,32.8,12.6,48.7,17.1c16,4.2,31.9,7.3,49,8.7c3.6,0,7.3-0.3,10.9-0.3c18.2-1.1,36.7-5,53.8-11.5
								c-3.6,0.8-7.3,1.7-10.9,2.5c-3.6,0.8-7.6,1.4-11.5,2c11.5-3.4,26.3-7,37.2-10.4c-4.8,2.2-9.8,4.2-14.8,6.2
								c17.4-4.2,33.3-10.1,50.4-18.8c-20.4,10.4-42.6,19.3-61.9,24.6c21-4.8,40.3-11.8,58.8-21c18.2-9.2,35.6-20.2,52.4-33
								c-0.8,0.8-1.4,1.7-2.2,2.5c21.8-20.7,39.5-45.4,52.1-72.8c12.6-27.2,20.2-57.1,22.7-88.2c0.3-3.6,0.3-7.3,0-10.1
								c-0.3-3.1-0.6-5.6-1.4-7.8c-1.4-4.5-3.1-7.6-5-9.5c-3.6-3.9-7.3-2.8-7.3,0.6c0.8,30.8-5.3,61.6-17.4,89.3
								c-12,28-30.2,53.2-52.6,73.6s-49,36.1-77.3,45.6c-28.6,9.8-59.1,13.4-89,11.2c13.4,2.8,27.4,4.5,41.7,4.8
								c3.1-0.3,6.2-0.3,9.2-0.3c3.1,0,5.9-0.3,8.7-0.3c-3.1,0.3-5.9,0.3-9,0.6c-3.1,0-5.9,0-9,0c-16.8,0.8-35.3,0.8-52.9-2.8
								c-1.7-0.8-5-1.4-8.7-1.7c-3.6-0.6-7.3-0.6-9.8,0.3c-11.8-3.6-24.6-7.3-37.2-12.3c-12.6-5-24.6-10.9-34.4-18.2
								c-1.1-0.8-2.8-2.8-4.8-5c-12.9-8.1-25.2-17.6-36.4-28.3c-31.4-30-52.9-68.9-61.6-110c-9-41.2-5.6-84.3,9-122.4
								c-8.1,17.9-13.7,36.4-17.6,54.3c-3.1,12-3.6,31.4,0,52.9c3.6,21.3,11.5,44.2,21.3,63.8c2.5,4.8,4.2,9,5.6,13.2
								c0.8,2,1.7,4.2,2.5,6.2c0.8,2.2,2,4.5,3.4,6.7c-0.8-0.8-1.7-1.7-2.5-2.8c-0.8-0.8-1.7-2-2.2-2.8c-1.7-2-3.1-3.9-4.8-6.2
								c-2.8-4.5-5.9-9-8.1-13.7c-5-9.8-9.2-20.4-12.3-31.6c-3.1-11.2-5.3-22.7-6.4-34.4c-1.4-11.5-1.7-23.2-2-34.2
								c0-14.8,2-31.4,6.2-47.9s10.6-33.6,18.8-49.6C82,160.2,91.8,145,103,131c10.9-13.7,23-26,34.7-37.2
								c9.8-9.2,20.7-16.2,31.9-21.3s22.1-8.7,32.5-10.9c-6.7,4.2-19.9,9.8-26.3,13.2c-28.8,14.6-54.6,35.8-74.8,61.3
								c-19.6,25.8-33.9,56-41.2,87.9c4.8-16.2,10.9-31.9,18.5-46.8c7.8-14.8,16.8-28.6,27.4-41.4c21-25.5,47.6-46.2,78.1-58.8
								l-6.4,3.4l-6.4,3.6l-3.1,1.4l-3.1,2l-6.2,3.6l-5.9,3.9l-3.1,2l-2.8,2.2l-5.9,4.2l-5.6,4.5c-14.6,12-27.2,26.3-35.8,42.3
								c2.2-2,4.5-4.2,6.7-6.4c16-19.6,35.3-36.1,56.6-48.7c5.9-5,11.8-9.8,18.2-14c28.3-19.9,68-30.8,108.6-28.3
								c20.2,0.8,40.6,5,59.9,11.5c9.8,3.4,19.3,7.3,28.3,11.8c9.2,4.5,18.2,9.2,26.6,14.8c2.8,1.7,6.4,3.9,10.9,5.9
								c2.2,1.1,4.5,2.2,6.7,3.6c2.2,1.1,4.8,2.5,7,4.2c-20.2-17.4-42.6-32.2-68-41.4c9.8,4.8,18.8,9.8,26,16
								c-10.9-5.6-21-10.6-31.6-15.1c-5.3-2.2-10.6-4.2-16-6.2c-5.6-1.7-11.5-3.1-17.6-4.2c13.4,1.4,26.6,4.8,39.2,9.2
								c-14.6-6.7-31.4-11.5-48.4-14.6c16.8,0.6,32.5,5.6,47,11.8c14.8,6.2,28.8,13.7,44.2,20.7c-6.2-3.6-12.3-7.3-18.5-10.6
								c6.4,3.4,12.6,7,18.8,10.9c0,0-0.3,0-0.3-0.3c9.2,5.6,18.2,11.8,26.9,18.2s16.5,13.2,24.1,19.9c-12.9-14-26.3-26.3-40.6-37.5
								c-14.6-10.9-30.5-20.2-48.2-26.9c-2.8-1.1-5.9-2-9-2.8l-4.5-1.4l-4.5-1.1c1.7,0.3,3.1,0.8,4.5,1.1c1.4,0.6,3.1,0.8,4.5,1.4
								c3.1,1.1,5.9,1.7,9,3.1c41.2,14.6,77,42.3,102.8,77c25.8,34.7,40.9,76.7,44.5,119c0.6,2.5,0.6,5.3,1.1,8.1
								c1.1-2.5,2-5,2.8-7.3c-3.4-35.6-14.3-71.1-33-102.2c-9.2-15.7-20.2-30.2-32.5-43.4C440.2,93,426.4,80.9,411.6,70.8z"/>
						</g>
					</g>
				</g>
			</g>
		</g>
	</g>
	<g>
		<g>
			<g>
				<g>
					<g opacity="0.8">
						<g opacity="0.8">
							<path fill="#FFFFFF" d="M365.1,417.5c-14,0.6-28.8-3.6-40.6,0.6c-1.4,0.3-2.8,0.8-3.9,1.4c0.6,0,1.4,0.3,2,0.3
								c15.4,2.5,32.5,3.4,48.4,2.2c9.8-1.4,19.9-4.2,30.8-3.9c1.1,0,1.4-1.7,1.4-2.5c-1.1-1.1-2-2.2-2.8-3.6
								c-9,0.8-17.6,2.5-26.9,2.5C370.4,414.7,367.1,417.5,365.1,417.5z"/>
							<path fill="#FFFFFF" d="M400.4,412.4C400.4,412.4,400.4,412.2,400.4,412.4c-0.6-0.3-1.1-0.3-1.4,0
								C399.6,412.4,400.1,412.4,400.4,412.4z"/>
							<path fill="#FFFFFF" d="M378.8,415c-3.1,0.6-5.9,0.6-8.7,0.6c-2,0.8-3.6,2-4.8,2c-14,0.6-28.8-3.6-40.6,0.6
								c-1.4,0.3-2.5,0.8-3.9,1.4c0.8,0,1.4,0.3,2.2,0.3c5.3,0.8,10.9,1.7,16.5,2c0.3,0,0.6-0.3,0.8-0.3c3.1-1.1,6.2,0.3,9,0.6
								c8.7-0.8,15.7,0.3,24.4-0.6c3.1-0.3,6.2-2.2,9.8-2.2c1.1,0,2.5,0,3.6,0.3c4.8-0.8,9.5-1.4,14.6-1.1c1.1,0,1.4-1.7,1.4-2.5
								c-0.6-0.6-1.1-1.1-1.7-2c-4.2-0.3-8.1-0.3-12.3-0.3c-3.6,0.6-7.3,0.8-10.9,1.1C378.3,414.7,378.6,415,378.8,415z"/>
							<path fill="#FFFFFF" d="M378.6,412.4c-0.6,0-1.1,1.1-0.3,2.2c3.6-0.3,7.3-0.6,10.9-1.1C385.6,413.3,382.2,413.3,378.6,412.4z
								"/>
							<path fill="#FFFFFF" d="M379.1,406.3c-7.3-0.8-14,1.4-19.9,0c-3.1-0.8-6.2-2-9-3.6c-1.1,0-2,0-3.1,0c-24.4,1.4-48.7,2-72.8,0
								c-12-0.6-23.2,2.5-35.6,4.5c-7.3,0.6-13.2-1.4-20.4-2.8c-17.9-3.6-33.3,3.9-51.5,6.4c-5,0.6-5.6,7.6-4.5,7.8
								c30.5-2.8,59.4,0.3,89.9-1.7c23.8-1.4,45.9-0.3,68,3.1c1.4-0.6,2.8-0.8,3.9-1.4c12-4.2,26.6,0,40.6-0.6c1.7,0,5-2.8,8.1-2.8
								c9.2,0,17.9-1.7,26.9-2.5c-1.7-2.5-3.4-5.3-5-7C389.8,406,384.2,407.1,379.1,406.3z"/>
							<path fill="#FFFFFF" d="M379.1,406.3c5.3,0.8,10.6,0,16.2-1.1c-0.8-0.8-2-1.7-3.1-2.2c-13.2-3.9-28-1.1-42-0.6
								c2.8,1.7,5.6,3.1,9,3.6C364.8,407.7,371.8,405.4,379.1,406.3z"/>
							<path fill="#FFFFFF" d="M379.1,406.3c5,0.8,10.1,0,15.4-1.1c-1.7-0.3-3.6-0.6-5.3-0.8c-9-0.6-18.2,0-27.2-1.7
								c9.5,0,19.3,0.3,28.8-0.3c-12.9-3.4-27.4-0.6-40.6,0c2.8,1.7,5.6,3.1,8.7,3.6C364.8,407.7,371.8,405.4,379.1,406.3z"/>
							<path fill="#FFFFFF" d="M364.3,407.1c10.9,0.8,21.8,1.4,32.8,0.3c-0.6-0.6-0.8-1.4-1.4-2c-0.6,0-0.8-0.3-1.4-0.3
								c-5,0.8-10.4,1.7-15.4,1.1c-7.3-0.8-14,1.4-19.9,0c-3.1-0.8-6.2-2-8.7-3.6c-0.8,0-2,0-2.8,0c-12.6,0.8-24.9,1.1-37.2,1.4
								c-10.6,2.2-22.4,1.7-33.9,0c5.3,0,10.6,0,16-0.3c-5.9-0.3-11.8-0.6-17.6-1.1c-5-0.3-10.1,0.3-15.1,0.8
								c-1.1,1.7-2.5,3.1-5.3,3.4c-4.2,0.6-8.4,0.6-12.9,2c-0.6,0-0.6-1.4-1.7-1.4c3.4,0.3,6.2-0.8,8.7-2.2
								c-3.1,0.6-5.9,1.1-9.2,1.7c-5.9,0.3-10.6-0.8-16-2c-0.6,0-1.1,0-1.7,0.3c-2.8,0.3-5.6,0.8-8.7,1.7c1.1,0,2.2,0,3.6,0.3
								c-2,0.8-4.2,0.6-6.2,0.6c0.8-0.3,1.7-0.6,2.5-0.8c-2.8,0-5.6-0.3-8.4-0.3c3.6,0.3,7.3-0.6,10.4-1.1c-6.7,0-12.9,0.6-19.3-0.6
								c0.3,0,0.3-0.3,0.6-0.3c-9.2,1.7-18.5,4.5-28.8,5.9c-5,0.6-5.6,7.6-4.5,7.8c21.3-2,42-1.1,62.7-1.1c-2.2-0.8-4.8-2-7-2.8
								c-1.1-0.3-2-0.6-3.1-1.1c1.1,0.3,2,0.8,3.1,1.1c2.8,0.6,5.9,0.6,9,1.4c0.6,0.6,2.2,0.6,3.1-0.8c4.2,1.1,9.2,0,13.2,1.1
								c0.3,0,0.6,0.3,1.1,0.8c2.5,0,5.3-0.3,7.8-0.3c14.8-0.8,29.1-0.8,43.1,0.3c-3.4-0.8-6.7-1.7-9.5-3.1
								c-4.2-2-12.6-0.3-20.2,0.3c-2,0.3-2.8-1.1-4.8-1.1c6.4-3.6,14.6-1.1,22.1-1.7c9.8-0.3,23.5,2.8,33.9,0.3
								c4.5-1.1,8.4,0.3,12,2c-1.4,0.8-3.6,0.8-5,0.6c-10.9-0.6-21.8-1.1-32.8-0.8c11.5,2,22.4,1.1,33.6,3.4c-6.7,0-13.2-2-19.3,0
								c0.6,0.3,1.1,0.6,1.7,0.8c4.5,0.6,8.7,1.1,13.2,1.7c1.4-0.6,2.8-0.8,3.9-1.4c12-4.2,26.6,0,40.6-0.6c1.1,0,2.8-1.1,4.8-2
								c-4.5-0.3-9-0.8-13.4-0.8c1.7,0.6,3.6,1.1,5,2c-4.2,0.3-7.8-1.7-12-1.4c2.2-0.3,4.5-0.6,6.7-0.6c-2.8-0.6-5.6-0.8-8.4-1.4
								c5.6-1.4,10.6,2.2,16.2,0c-1.1,0-2.2,0-3.6-0.3c1.1,0,2.5,0,3.6,0.3l0,0c3.6,0,7.3-0.8,10.6-1.7c-6.2,0-12-1.7-17.9-1.7
								c-1.1,0-2,0-3.1,0.3c1.1,0,2-0.3,3.1-0.3c14-0.8,28.3,1.4,42.3,2.2c0.6,0,0.8,0,1.4-0.3c-0.3-0.6-0.8-1.1-1.1-1.7
								C387.5,409.9,375.8,408.8,364.3,407.1z"/>
						</g>
					</g>
				</g>
			</g>
		</g>
	</g>
	<g>
		<path fill="#C69C6D" d="M196.3,260.4h170.5c0,0,6.7-40-8.7-55.2c-12-11.8-42,5.6-76.7,6.2c-38.1,0.6-70-12.9-77.3,0.3
			C188.4,239.1,196.3,260.4,196.3,260.4z"/>
		<g>
			<g>
				<g>
					<g opacity="0.8">
						<g opacity="0.8">
							<path fill="#EEE8E6" d="M220.1,203.3c6.7,0,13.2,1.1,19.6,2s12.6,2,19,2.8c12.3,1.4,24.6,1.7,35-0.6c2.2-0.6,4.8-1.1,7-1.7
								l-3.6,0.3c-13.7,1.4-28,0.3-42.6-1.7c-7.3-0.8-14.6-2-22.1-2.8c-3.6-0.3-7.6-0.8-11.5-0.8c-3.9,0-8.1,0-12.6,1.7
								c-2.8,1.1-5.9,3.1-7.6,6.2l-0.6,1.1l-0.3,0.8l-1.1,1.7l-1.4,3.4c-1.7,4.5-3.4,9-4.5,13.7c-2.2,9.5-2.8,19.6-0.6,30.2
								c0.6,2.2,1.4,2.5,2,2.5c0-2.2,0.3-3.9,0.6-5.6c-1.7-7.8-1.1-16.2,0.3-24.4c0.8-3.9,2-8.1,3.6-11.8c0.8-2,1.7-3.9,2.5-5.6
								l1.4-2.8c0.6-1.1,1.4-2,2.2-2.8c2.5-2.2,5.3-3.4,8.1-4.2C215.9,203.6,218.4,203.3,220.1,203.3z"/>
							<path fill="#E6DEDB" d="M194.9,256.8v-0.3c-0.3-0.8-0.3-1.7-0.6-2.5C194.6,255.1,194.6,255.9,194.9,256.8z"/>
							<path fill="#ECE6E3" d="M199.6,217.6c0.6-1.4,1.1-2.5,1.7-3.6c0.6-1.4,1.1-2.2,2-3.6c2-2.8,4.8-4.2,7.6-4.8
								c3.6-1.4,7-2,9.2-2c6.7,0,13.2,1.1,19.6,2c6.4,0.8,12.6,2,19,2.8c12.3,1.4,24.6,1.7,35-0.6c2.2-0.6,4.8-1.1,7-1.7l-3.9,0.3
								c-4.8,0.6-9.5,0.6-14.3,0.6c-4.8,0-9.8-0.3-14.8-0.8c-0.6,0-1.1,0-1.7,0c-5.6,0.3-10.6-1.1-16.2-2
								c-7.8-0.8-14.8-1.7-22.1-2.5c-3.6-0.3-7.6-0.6-11.5-0.3c-2,0.3-4.2,0.6-6.4,1.1c-2.5,0.8-5.3,2-7.3,4.2
								c-0.8,0.8-1.4,1.7-2,2.5l-0.3,0.6l-0.3,0.6l-0.6,1.1c-0.6,1.4-1.1,2.8-1.7,4.2c-1.1,3.1-2.2,6.2-3.4,9.2
								c-0.8,2.2-1.4,4.5-2,6.7c-1.7,9-2,18.5,0,28.3c0.6,2.2,1.7,2.5,2,2.5c0-1.4,0-2.2,0-3.1c-1.4-7.6-1.4-15.1,0-23
								c0.8-6.7,2.8-13.2,5.9-19.3C199.9,217,199.9,217.3,199.6,217.6z"/>
							<path fill="#E6DEDB" d="M201,217.6c0.3-0.8,0.3-2.2-0.8-0.8c-2.8,6.2-4.8,12.9-5.9,19.3C195.7,229.9,197.7,223.4,201,217.6z"
								/>
							<path fill="#F4F0EE" d="M203.6,219.8c0.6-1.4,1.4-2.8,2.2-4.2l1.1-2c0.3-0.6,0.6-0.8,1.1-1.4c1.4-1.7,4.2-2.5,6.7-3.1
								c5.6-0.8,11.5-0.3,16.5,0.6c5.6,1.1,10.9,2.5,15.7,3.9c1.7,0.3,3.6,0.3,5.3,0.6c11.2,1.1,22.4,1.7,33.9,1.1
								c11.5-0.6,22.7-3.1,33.3-5.3c5.3-1.1,10.6-2.5,16-3.4c5.3-0.8,10.6-1.4,14.8-0.6c2.2,0.6,3.9,1.4,5,2.8
								c0.6,0.8,1.4,1.7,2,2.5l1.7,3.1c2,4.2,3.1,9.5,3.6,14.6c0.6,5,0.8,10.4,0.8,15.4c0,2.5,0,5-0.3,7.8l-0.3,3.9v1.1v0.3h-0.3
								H362c-0.3,0-0.3,0-0.8,0h-2c-2.8,0-5.3,0.3-8.1,0.3c-5.3,0.3-10.9,0.6-16.5,0.8c-13.4,0.3-24.1-0.8-37-1.4
								c-32.5-1.7-60.5,2-93.8,3.1c-9,0.3-10.1,3.9-7.8,3.9c55.7-1.4,108.1,0,163.5-0.8h5h2.8h0.6c0,0,0,0,0.3,0v-0.3v-0.3l0.3-1.4
								l0.3-2.8l0.8-1.1v-1.1l0.3-3.9c0.3-5.3,0.6-10.6,0.3-16c-0.3-5.3-0.8-10.6-2.2-16s-3.4-10.4-7-14.8c-1.4-2.2-4.2-4.2-7-5.3
								c-2.8-1.1-5.6-1.4-8.4-1.4c-5.3,0-10.6,0.8-15.7,1.7c-10.1,2-19.9,3.9-29.7,5c-2.2,0.6-4.8,1.1-7,1.7
								c-10.4,2.2-22.4,2-35,0.6c-6.2-0.8-12.6-1.7-19-2.8c-6.4-0.8-12.9-2-19.6-2c-1.7,0-4.2,0.3-7,1.1s-5.9,2-8.1,4.2
								c-0.8,0.8-1.7,1.7-2.2,2.8l-1.4,2.8c-1.1,2-1.7,3.6-2.5,5.6c-1.7,3.9-2.8,7.8-3.6,11.8c-1.7,8.1-2,16.2-0.3,24.4
								c0.8-3.4,2-6.2,2.8-9.2C197.1,237.7,199.1,227.9,203.6,219.8z"/>
							<path fill="#E5DDD9" d="M203.6,219.8c-4.2,8.1-6.2,17.9-5.9,27.2c0.6-1.4,0.8-3.1,1.4-5c1.1-5.6,2.5-11.2,4.8-16.5
								c1.1-2.8,2.2-5.3,3.6-8.1l1.1-2l0.3-0.6l0.3-0.3c0-0.3,0.3-0.3,0.3-0.3c0.6-0.6,1.1-1.1,2-1.4c2-0.8,4.5-1.1,7.6-1.4
								c2.8,0,5.9,0,9.2,0.3c6.2,0.6,12.6,1.1,18.8,2c-4.8-1.4-10.1-2.8-15.7-3.9c-5.3-0.8-10.9-1.4-16.5-0.6
								c-2.8,0.6-5.3,1.4-6.7,3.1c-0.3,0.3-0.6,0.8-1.1,1.4l-1.4,2C205,217,204.1,218.4,203.6,219.8z"/>
							<path fill="#ECE6E3" d="M203.6,219.8c-2,3.9-3.4,8.1-4.5,12.6c-0.8,4.5-1.4,9-1.4,13.4c0.3-3.1,0.8-5.9,1.4-9
								c1.7-7.6,4.2-15.1,8.1-21.8l0.3-0.6c0-0.3,0.3-0.3,0.3-0.3c0.3-0.3,0.3-0.6,0.6-0.8c0.3-0.6,0.8-0.8,1.4-1.1
								c1.1-0.6,2.8-1.1,4.5-1.1c3.6-0.3,7.3,0,11.2,0.6c-4.2-0.3-8.4-0.6-12,0c-1.7,0.3-3.4,0.8-4.2,1.7c-0.6,0.3-0.8,0.8-1.1,1.4
								c0,0.3-0.3,0.3-0.3,0.3l-0.3,0.6l-0.8,1.4c-3.9,7.3-6.7,15.4-7.6,23.5c1.1-5.3,2.8-10.6,5-16l1.7-3.9c0.6-1.4,1.4-2.5,2-3.9
								c0.8-1.7,1.1-2,1.4-2.2c0.6-0.6,1.1-0.8,2.2-1.1c2-0.8,4.8-1.1,7.6-1.1c2.8,0,5.9,0,9,0.3c6.2,0.6,12.3,1.1,18.2,2
								c-4.8-1.4-10.1-2.8-15.7-3.9c-5.3-0.8-10.9-1.4-16.5-0.6c-2.8,0.6-5.3,1.4-6.7,3.1c-0.3,0.3-0.6,0.8-1.1,1.4l-0.6,1.1
								C205,217,204.1,218.4,203.6,219.8z"/>
							<path fill="#E3DAD6" d="M221.8,208.6c-4.8-0.3-9.8-0.3-13.2,2c-0.8,0.6-1.7,1.1-2.2,2c-0.6,0.8-1.1,2-1.7,3.1
								c-1.1,2.2-2.2,4.5-3.1,6.4c-3.6,9-5.6,18.8-4.8,28.6c0.3-0.8,0.6-1.7,0.8-2.5c0-0.8,0-1.7,0.3-2.2c0-4.5,0.3-9,1.4-13.4
								c1.1-4.5,2.5-8.7,4.5-12.6c0.6-1.4,1.4-2.8,2.2-4.2l1.1-2c0.3-0.6,0.6-0.8,1.1-1.4c1.4-1.7,4.2-2.5,6.7-3.1
								c5.6-0.8,11.5-0.3,16.5,0.6c5.6,1.1,10.9,2.5,15.7,3.9c1.7,0.3,3.4,0.3,5,0.6c11.5,1.1,23,2,34.7,1.1
								c11.8-0.8,23-3.1,34.2-5.6c4.8-1.4,9.5-2.8,14.3-3.6c4.8-1.1,9.8-1.7,14.3-1.1c2.2,0.3,4.2,1.1,5.6,2.2
								c0.3,0.3,0.8,0.6,1.1,0.8l1.1,1.4l1.1,1.4l0.8,1.4c2.2,3.9,3.6,8.7,4.2,13.4c-0.8-4.5-2.2-8.7-4.2-12.6
								c-0.6-0.8-1.1-2-1.7-2.5c-0.6-0.8-1.4-1.7-2-2.2c-1.1-1.1-2.8-2-4.5-2.2c2,0.6,3.6,1.4,4.8,2.8c0.6,0.8,1.4,1.7,2,2.5
								c0.6,1.1,1.1,2,1.7,3.1c2,4.2,3.1,9.2,3.6,14.3c1.1,8.7,1.1,17.4,0.6,26.3c0.3,0.3,0.3,1.1,0.6,1.4c0.3,0.3,0.3,0.6,0.3,1.1
								c0,0.3,0.3,1.1,0,1.4c-0.3,0-0.8,0.3-1.7,0.3h-0.8h-1.4h-2.8c-2,0-3.9,0-5.9,0.3c-3.9,0-7.8,0.3-11.8,0.6
								c-1.1,0-0.8-0.6-3.1-0.8c6.2,0,11.2-0.3,15.7-1.1c-5.3,0.3-10.9,0.6-16.5,0.8c-10.4,0.3-19.3-0.3-28.8-0.8h-3.1
								c-5,0-10.4,0.6-15.7,0.8c2.2,0,4.2,0,6.4,0c-3.4,0.3-7.8,0.3-11.2,0.3c1.4,0,3.1-0.3,4.5-0.3c-5,0-10.1,0-15.4-0.3
								c6.7,0,13.4-0.3,19-0.6c-12,0-23.2,0.3-35.3-0.3h0.8c-17.1,0.8-33.9,2.2-52.4,3.1c-9,0.3-10.1,3.9-7.8,3.9
								c38.9-1.1,76.2-0.6,114-0.6c-4.2-0.6-8.7-0.8-12.9-1.4c-2,0-3.6-0.3-5.3-0.6c1.7,0.3,3.6,0.3,5.3,0.6
								c5,0.3,10.6,0.3,16.2,0.6c1.1,0.3,4.2,0.3,5.6-0.3c7.6,0.6,16.5,0,24.1,0.6c0.6,0,1.1,0.3,2,0.6c4.8,0,9.5,0,14.3-0.3
								c2.2,0,4.2,0,6.4,0h1.7l0.3-1.7l0.6-3.4l0.3-3.1l0.3-2.5c0.3-1.7,0.3-3.4,0.3-5c0.3-6.7,0-13.4-0.8-20.2
								c-0.8-6.7-2.5-13.2-6.2-19.3l-0.6-1.1l-0.8-1.1l-1.7-2c-1.1-1.4-2.8-2.5-4.5-3.4c-3.4-1.7-7-2-10.4-2
								c3.4,0.3,6.7,0.8,9.5,2.2c1.4,0.8,2.8,1.7,3.9,2.8c1.1,1.1,1.7,2.5,2.5,3.6c2,3.4,4.2,8.7,5.9,15.1
								c1.4,6.4,2.2,13.7,2.2,20.4c0,3.4-0.6,5.3-0.8,8.7c-0.6-5.9-0.6-12.6-0.8-19.3c-0.6-6.7-1.7-14-4.5-19.9
								c-1.1-2-2.2-3.9-3.6-5.9c-1.4-2-3.4-3.4-5.9-4.5c-4.8-2-10.4-1.4-15.7-0.8c-10.6,1.4-21.3,4.5-30.8,6.7
								c-7.6,2-15.4,2.2-21.6,1.7c2.2-0.6,6.7-0.8,8.7-1.1c9.8-1.1,19.3-3.1,29.1-5c4.8-1.1,9.8-2.2,14.6-2.8
								c5-0.6,10.1-1.1,15.1,0.3c-5.3-1.7-10.6-1.4-15.7-0.8c-5,0.6-10.1,1.7-15.1,2.8c-9.8,2-19.9,4.2-30,4.5
								c11.8-1.4,23.5-3.1,34.4-6.4c-0.8,0-2,0-3.1,0.3c-7.8,1.4-15.7,3.1-23.2,3.9c-2.2,0.6-4.5,1.1-7,1.7c-10.4,2.2-22.4,2-35,0.6
								c-6.2-0.8-12.6-1.7-19-2.8c-6.4-0.8-12.9-2-19.6-2c-2.2,0-5.6,0.6-9.2,2c4.5-1.1,8.7-0.8,12.9-0.6c4.2,0.3,8.1,0.8,12.3,1.4
								c-3.4-0.6-6.4-1.4-9.2-2c7.8,0.6,14,2.5,21.6,3.4c-4.2-0.3-8.4-0.8-12.3-1.4c4.8,0.8,10.1,1.7,15.1,2.5
								c-10.1-0.3-19-3.9-29.7-3.4c2.2,0,4.5,0.3,6.4,0.6c-2.2-0.3-4.5-0.6-6.7-0.6l0,0c-3.4,0-6.7,0-10.1,1.1
								c-3.1,0.8-6.2,2.8-7.6,5.6c1.4-2.5,4.2-3.9,6.7-4.8c2.8-0.6,5.3-0.8,8.1-0.6c5.3,0.3,10.6,1.1,16.2,1.7
								c2,0.3,3.6,0.3,5.6,0.6c-2-0.3-3.6-0.3-5.6-0.6c-6.4-0.6-12.6-1.4-19-1.1c-3.1,0.3-6.2,0.8-8.7,2.5c-2.5,1.7-3.6,4.8-5.3,7.6
								c-5.9,11.2-9.2,24.1-7.8,37c0,0.8,0.3,1.7,0.6,2.5c0.3-0.8,0.3-1.4,0.6-2.2c-1.1-10.4,0.8-21,4.8-30.8
								c0.6-1.1,1.1-2.2,1.7-3.6c0.6-1.1,1.1-2.2,1.7-3.4l2-3.4c0.6-1.1,1.4-2,2.2-2.5C211.4,208,216.7,208,221.8,208.6z"/>
						</g>
					</g>
				</g>
			</g>
		</g>
	</g>
	<g>
		<g>
			<g>
				<g>
					<g opacity="0.8">
						<g opacity="0.8">
							<path fill="#FAF8F7" d="M294.8,180.6c-10.6,0-21.3-0.8-31.1-1.4c-9.8-0.3-19.6,0-28.8,1.4c-9.2,1.4-17.9,4.2-24.9,9l-2.5,2
								c-0.6,0.3-0.8,0.6-1.1,0.8l-0.3,0.3l0,0l0,0l0,0l-0.3-0.3c-1.4-1.1-2.5-1.7-3.4-2c-0.3,0-0.3,0-0.6-0.3l-0.3-0.3h0
								c0,0.3,0-0.3,0-0.3l0,0l0,0h0.3c0.6,0,1.4,0,2.8-0.3l1.1-0.3l0.6-0.3l0,0c0,0,0,0,0,0.3c0.8,2.2,3.1,4.5,5.9,6.2
								c3.1,1.7,6.7,2.8,10.4,2.8c1.7,0,3.6,0,5.6-0.3c0.8-0.3,2-0.3,2.8-0.6c0.8-0.3,2.2-0.6,2.8-0.8c5.3-2,10.4-5.3,14-9
								c1.7-2,3.4-4.2,3.6-6.4c0.6-2.5,0-4.8-0.8-7c-1.7-4.2-4.8-7.3-8.7-7.6c-3.4-0.6-7.3,0.8-9.8,3.4c1.1,0.6,2,1.4,2.5,2.2
								c2.2,2.5,2,6.2,1.4,8.7c-0.3,1.1-0.6,2.2-1.4,3.1c-0.6,0.8-1.7,1.4-2.2,1.7c-0.8,0.3-1.4,0.6-2,0.6c-0.3,0-0.6,0-0.8,0l0,0
								l0,0.3l-1.1,0.3c-0.8,0.3-1.7,0.3-2.2,0.3c-1.7,0.3-2.8,0-3.9,0c-1.1-0.3-2.2-0.6-3.4-0.8c-0.8-0.3-1.7-0.8-2-1.1
								c0-0.3-0.3-0.3-0.3-0.3c-0.6,0.3-1.1,0.8-1.4,0.8l0,0l0,0c-3.1,2-1.1,0.6-2,1.1c-0.6,0.3-1.1,0.3-1.7,0.6l-1.4,0.8l-1.1,0.6
								c-1.4,0.6-2.5,1.1-3.6,1.4c-2,0.6-3.1,0.6-3.6,0.6h-0.3l0,0l0,0c0,0.3,0,0,0,0.3l0.3-0.3c0.3,0,0.3,0.3,0.3,0.3
								c0.3,0,0.3,0.3,0.6,0.3c0.8,0.6,2.2,1.4,4.2,3.1c1.1,0.8,2.2,2,3.6,3.6l1.4,1.4l1.4,1.4l0.6,0.6c0.3,0.3,0,0,0,0l0,0l0,0
								l0.8-0.6c0.8-0.6,1.4-1.1,2.2-1.7c3.1-2,7-3.6,10.9-5c8.4-2.5,18.5-3.6,29.1-3.6s22.4,0.8,34.7,1.1c12.6,0.3,26,0,40-3.1
								l5.3-1.4l5.3-1.7c0.6-0.3,0.8-0.6,1.1-0.6l0.3-0.3c0.6-0.6,1.1-0.6,2-0.3c0.3,0,0.3,0.3,0.6,0.3c0.6,0.6,1.1,1.4,1.4,2.2
								c0.6,0.8,0.8,1.4,1.1,2.2c0.3,0.3,0.3,0.6,0.6,0.8c0.6,1.1,0.8,2.5,0,3.6c-0.3,0.6-0.6,0.8-0.8,1.1s-0.3,0.3-0.6,0.6
								c0,0-0.3,0-0.3,0.3c0,0-0.6,0.3-0.8,0.3c-2.8,1.1-6.4,2-10.6,2.8c-8.7,2-17.4,3.6-26,5.3c-2.2,0.6-3.9,0.8-5,0.8h-1.1l0,0
								l0,0v0.3l-0.3,0.6l-0.3,1.1l-0.3,0.8l-0.3,0.6l-0.3,0.3l0,0l0,0l0,0l0,0c-0.6-0.3,0.8,0.6,0.6,0.6h-0.6h-1.1h-0.3l0,0
								c0,0,0,0,0,0.3v0.3l0,0l0,0h0.3h0.3c0.3,0,0.6-0.3,0.6-0.3c0.3,0,1.1-0.3,1.7-0.3c0.6,0,1.4,0,2,0h0.6h0.3l0,0l0,0
								c0-0.3,0.3-0.8,0.6-1.4c0.3-0.3,0.3-0.6,0.6-0.8c0,0,0.3,0,0.3-0.3l0,0l0,0c0.3-0.3-0.3,0.3-0.3,0.3l0,0l0,0l0.3-0.3l0.8-0.6
								l0.6-0.3l1.1-0.6c0.8-0.3,1.7-0.8,2.5-1.1c2-0.8,4.2-2,6.2-2.8c3.6-1.7,5.6-3.9,6.4-5.6c0.8-1.7,0.3-3.1,0-3.9
								c-3.9,1.4-7.6,2-10.6,2c-3.1,0.3-5.9,0-8.7,0c-3.6,2-7,4.2-9,7.3c-2,3.1-3.1,7-2.2,10.1c2.2,7,10.9,4.5,18.8,2.8
								c8.1-1.7,16.2-3.4,24.4-5c3.9-0.8,7.8-1.7,11.5-2.8c3.1-1.1,5.9-2.8,8.1-5c2.5-2.8,3.6-6.4,3.6-10.1c0-1.7-0.6-3.6-1.1-5.3
								s-1.4-3.6-2.5-5.6l-0.8-1.4l-0.8-1.1c-0.6-0.8-1.1-1.4-1.4-2.2c-1.1-1.4-2.2-2.8-3.4-3.9c-1.1-1.1-2.8-2.2-4.8-2.2
								c-1.7,0-3.4,0.6-5,1.1c-1.7,0.6-3.4,1.4-5.3,2l-3.4,1.1l-3.4,1.1c-4.8,1.4-9.2,2.8-13.7,3.9
								C308.6,179.5,300.4,180.9,294.8,180.6z"/>
							<path fill="#F8F5F3" d="M310,192.1c-0.3,0-0.8,0-1.1,0c-2.2,1.1-4.5,2.5-6.4,4.2C304.6,194.6,307.2,193.5,310,192.1z"/>
							<path fill="#FAF7F6" d="M359.5,181.2c-0.3-0.8-0.8-1.7-1.4-2.2c-0.6-0.8-1.1-1.7-1.4-2c-0.8-1.1-1.7-2.2-2.8-3.4
								c-0.8-1.1-2-2-3.1-2.8c-1.1-0.8-2.5-1.1-3.9-1.1c-1.4,0.3-2.8,0.6-3.9,1.1c-0.6,0.3-1.4,0.6-2.2,0.8l-1.1,0.3
								c-0.3,0-1.1,0.3-1.7,0.6c-4.5,1.4-9,2.2-13.7,2.8c-11.8,3.4-22.7,5.6-29.7,5.3c-10.6,0-21.3-0.8-31.1-1.4
								c-9.8-0.3-19.6,0-28.8,1.4c-9,1.4-17.6,4.2-24.6,9l-2.5,2c-0.6,0.3-0.8,0.6-1.1,0.8l-0.3,0.3l0,0l0,0l0,0l-0.3-0.3
								c-1.4-1.1-2.5-1.7-3.4-2c-0.3,0-0.3,0-0.6-0.3l-0.3-0.3h0c0,0.3,0-0.3,0-0.3l0,0l0,0h0.3c0.6,0,1.4,0,2.8-0.3l1.1-0.3
								l0.6-0.3l0,0c0,0,0,0,0,0.3c0.8,2.2,3.1,4.5,5.9,6.2c3.1,1.7,6.7,2.8,10.4,2.8c1.7,0,3.6,0,5.6-0.3c0.8-0.3,2-0.3,2.8-0.6
								c0.8-0.3,2.2-0.6,2.8-0.8c5.3-2,10.4-5.3,14-9c1.7-2,3.4-4.2,3.6-6.4c0.6-2.5,0-4.8-0.8-7c-1.7-4.2-4.8-7.3-8.7-7.6
								c-3.4-0.6-7.3,0.8-9.8,3.1c1.1,0.6,2,1.4,2.8,2.5c1.4,1.7,1.7,4.2,1.7,6.2c-0.3,2-0.6,3.6-1.4,5c-0.8,1.4-2.2,2-3.1,2.2
								c-0.6,0.3-0.8,0.3-1.4,0.3c-0.3,0-0.3,0-0.6,0h-0.3l0,0l0,0h-0.6c-0.8,0.6-2,0.8-2.8,1.1c-2.5,1.1-4.5,1.4-6.4,1.1
								c-2-0.3-3.6-1.4-4.5-2.2c0,0,0-0.3,0-0.6v-0.3h-0.3l0,0l0,0l0,0c-3.1,2-0.8,0.6-1.7,0.8h-0.3l-0.6,0.3
								c-0.3,0-0.8,0.3-1.1,0.3l-0.8,0.6c-2.5,1.1-3.9,1.7-5.3,2c-1.4,0.3-2.2,0.6-2.8,0.6c-0.3,0-0.6,0-0.8,0l0,0l0,0l0,0l0,0l0,0
								c0,0.3,0,0,0,0.3l0.3-0.3l0.3,0.3c0.3,0,0.3,0,0.3,0.3c0.3,0,0.6,0.3,1.1,0.6c0.8,0.6,2,1.4,3.4,2.5c1.4,1.4,3.4,3.1,6.2,6.2
								c0.3,0.3,0.3,0,0.6-0.3c0.6-0.3,1.1-0.8,1.7-1.1c6.2-5,15.1-8.1,24.6-9.5c9.8-1.4,20.2-1.4,31.4-0.6
								c11.2,0.6,23.2,1.7,36.7,1.1c6.7-0.3,13.4-0.8,20.7-2.2c3.6-0.6,7.3-1.4,10.9-2.5l2.8-0.8h0.3l0,0h0.3l0.3-0.3l0.6-0.3
								c0,0,0.3,0,0.3-0.3c0.3-0.3,1.1-0.8,1.7-0.8c0.3,0,0.8,0,1.1,0.3c0.3,0,0.6,0.3,0.6,0.3c0.3,0,0,0,0.3,0.3
								c0.3,0.3,0.6,0.6,0.8,0.8c0.8,1.1,1.7,2.5,2.2,3.4c0.3,0.6,0.8,1.1,0.8,2c0.6,1.4,0,3.1-1.1,4.2h-0.3
								c-0.8,0.8-1.7,1.1-2.8,1.4c-2,0.6-4.8,1.1-7.8,1.4c-3.4,0.8-6.7,1.4-10.1,2.2s-7,1.4-10.4,2.2s-7,1.4-10.4,2.2
								c-1.7,0.3-3.1,0.6-3.9,0.6c-0.6,0-0.8,0-1.1,0h-0.3l0,0c0,0.6,0,0.8-0.3,1.1c-0.3,1.4-0.8,2.5-0.8,2.8v0.3l0,0l0,0l0,0l0,0
								c0.3,0.3-0.6-0.3,0.6,0.6H303h-0.8c-0.3,0-0.8,0-0.6,0c0.3,0.3,0.3,0.6,0.3,0.6s0,0,0.3,0s0.3,0,0.6-0.3
								c0.3,0,0.6-0.3,1.1-0.3s0.8,0,1.4,0c0.6,0,1.1,0,1.7,0h0.6l0,0c0,0,0,0,0-0.3s0.3-0.8,0.6-1.1c0.3-0.6,0.6-0.8,0.8-1.1
								c1.1-0.8,1.7-1.1,2.8-1.7c2.5-1.4,5.6-2.5,9.5-4.5c3.6-1.7,5.9-4.2,6.4-5.9c0.8-2,0.3-3.1,0-4.2c-4.2,1.7-7.8,2.2-11.2,2.2
								c-5.9,2.5-11.2,4.5-14.8,7.8c-1.7,1.7-3.1,3.6-3.6,5.9c-0.6,2.2-0.6,4.2,0.3,5.3c0,0.3,0.3,0.3,0.3,0.3s0,0,0,0.3l0.6,0.3
								l0.6,0.3l0.3,0.3l0,0l0,0c0,0,0.3,0.3-0.3-0.3l0,0l0,0c0.3,0,0.3,0.3,0.6,0.3c0.8,0.3,1.7,0.6,3.1,0.8c2.2,0.3,5-0.3,8.1-0.6
								c6.2-0.8,12-2,18.2-2.8c5.6-1.1,11.5-2.2,16.5-3.6c2.5-0.6,5.3-1.4,7-2.5c2-1.1,3.9-2.2,5.3-3.9c2.5-2.8,3.9-6.7,3.6-10.4
								c-0.3-2-0.6-3.6-1.1-5.6s-1.7-3.9-2.8-5.9C359.2,179.2,359.2,180,359.5,181.2z"/>
							<path fill="#F8F5F3" d="M363.7,177.2c-0.6-1.4-2-2.5-3.1-2.5c-1.1,0-1.7,0.8-1.4,3.4c1.1,2,2,3.9,2.8,5.9
								c0.6,1.7,1.1,3.6,1.1,5.6c0.3,3.6-0.8,7.6-3.6,10.4c-1.4,1.7-3.4,2.8-5.3,3.9c-2,0.8-4.5,1.7-7,2.5
								c-5.3,1.4-11.2,2.2-16.5,3.6c5.6-0.8,11.5-1.7,16.8-2.5c2.8-0.6,5.3-1.1,7.6-2c2.2-0.8,4.5-2.2,6.4-3.9c3.1-2.8,5-6.7,5-11.2
								C366.5,185.9,365.4,181.7,363.7,177.2z"/>
							<path fill="#FCFAF9" d="M376.3,175.6c-0.6-1.7-1.1-3.1-2-4.5c-0.8-1.4-1.4-2.8-2.5-4.8c-2.2-3.4-4.5-6.4-7.3-9.2
								c-2.8-2.8-5.9-5-9.5-6.2c-3.6-1.1-7.6-0.8-11.2,0c-3.6,0.8-7.3,2.5-10.4,3.4c-2.2,0.6-4.2,1.4-6.4,2c-4.5,1.1-9,1.7-13.4,2.2
								c-9.2,0.8-18.5,0.8-27.7,0.3c-9.2-0.6-18.5-1.4-27.7-2.2c-9.5-0.8-19.6-1.1-29.7-0.3c-9.5,0.6-19.9,2.5-29.7,6.2
								c-1.7,1.1-3.4,2-4.8,3.1c-1.7,1.1-3.1,2.2-4.8,3.6c-1.4,1.1-3.6,3.1-6.4,6.7c-0.6,0.8-1.4,2-2,3.1c-0.3,0.6-0.6,1.1-0.8,2
								l-0.3,1.1c-0.3,0.6-0.3,1.1-0.6,1.7l-0.3,1.1v0.3l-0.3,0.8v0.3v0.6v1.1c0,1.7,0,3.1,0,4.5c0.3,3.1,1.1,5.6,2,7.3l0.6,1.4
								l0.3,0.6l0.3,0.6l1.1,2c1.7,2.8,3.4,5,5.6,7.3c4.2,4.2,8.7,7.3,13.4,9.5c4.8,2.2,9.5,3.4,14.6,3.9c4.8,0.6,10.1,0.6,14.6-0.3
								c2.2-0.3,4.5-0.8,6.7-1.4c1.1-0.3,2.2-0.6,3.1-0.8l1.7-0.6c0.6-0.3,1.4-0.6,2-0.8c5.6-2,10.6-4.8,15.4-7.8
								c9.5-6.2,17.4-13.4,22.1-21c4.8-7.6,7-15.7,6.7-24.4c-0.6-8.7-2.5-17.4-5.6-25.2c-3.4-7.8-8.1-14.6-14.8-19.6
								c-6.7-5-14.8-7.8-23.2-8.4c-8.4-0.8-16.8,0-24.9,2.2s-16,5.6-22.7,11.2c-3.4,2.5-6.2,5.9-8.4,9.2c-2.2,3.4-3.9,7.3-4.8,10.9
								c-0.8,3.6-1.1,7.3-0.8,10.1c0.3,1.4,0.6,2.5,0.8,3.1c0.3,0.6,0.8,0.8,1.1,0.6c0.6-0.6,0.8-1.7,1.7-3.4c0.8-2,2-5,3.9-9
								c2.2-4.2,6.2-8.7,11.2-12.9c5.3-3.9,11.5-6.7,16.5-8.7c5-1.7,8.4-2.5,10.9-3.1c2.2-0.6,3.1-1.1,3.4-1.7
								c0.3-0.8-1.7-1.7-5.3-2c-3.6-0.3-8.7,0.3-13.7,1.7c-5,1.4-9.8,3.6-14.3,6.7c-4.2,3.1-8.1,6.7-10.9,11.2
								c-0.6,1.1-1.4,2.2-2,3.4l-0.6,0.8v0.3c9.2,8.4,2.5,2.5,4.5,4.2l0,0l-0.3,0.3l-0.8,1.4c-0.8,2-1.7,3.9-2.2,6.2
								c-1.7,6.4-2,13.7-0.3,21.6c0.8,3.9,2,7.8,3.6,12c0.8,2,1.4,3.9,2.2,5.9c0.3,1.1,0.8,2,1.4,3.1c0.6,0.8,0.8,2,1.1,2.8
								c2.5,5.3,5.9,11.2,10.9,16.5c2.5,2.5,5.3,5.3,8.7,7.3c3.4,2.2,7,3.9,10.6,5c7.6,2.5,14.8,2.5,21.3,2.2
								c6.4-0.6,12-1.7,17.1-2.8c2.5-0.6,4.8-1.1,7.8-2c2.8-0.8,6.2-1.7,9.8-3.6c2-0.8,3.6-2,5.6-3.4l1.4-1.1
								c0.6-0.6,1.1-0.8,1.7-1.4l0.8-0.8l0.3-0.3l0,0l0.6-0.6l0.8-0.8c4.2-4.8,6.7-10.1,7.8-16.2c0.6-4.2,0.6-8.7-1.4-13.7
								c-1.7-4.8-5.3-9.8-10.1-12.9l-17.1-11.8l-9.2,19c-2.8,6.2-3.4,12.6-2,18.8c1.4,5.9,4.8,11.5,9.8,15.7l5.9,4.8l7.3-0.6
								c7.8-0.6,16.2-1.4,24.9-3.1c8.7-1.7,17.9-4.2,26.9-9l1.7-0.8l2-1.1c1.4-0.8,2.8-1.7,3.9-2.8c2.5-2,4.8-4.2,6.7-6.7
								c2.2-2.5,4.2-5.6,5.6-9.8c1.4-3.9,2.5-9.8,1.1-15.7c-0.3-1.1-1.1-3.4-2-5l-0.6-1.4c-0.3-0.3-0.3-0.3-0.3-0.3v-0.3l-0.3-0.6
								l-0.3-0.3l0,0l-0.8-1.1l0,0l-0.3-0.6c-0.6-0.6-1.1-1.1-1.7-1.7c-1.1-1.1-2.2-2-3.6-3.1c-5.3-3.4-10.9-4.2-15.4-3.9
								c-4.5,0.3-8.4,1.7-12,3.6c-3.6,2-6.7,4.8-9.5,8.7c-0.6,1.1-1.4,2.2-2,3.4c-0.6,1.4-1.4,3.4-1.7,5c0,0.6,0,0.6-0.3,0.8v0.3
								v0.8v0.3c0-0.3-0.3,2.8-0.3,1.4l0,0v0.3v0.8v1.7c0.3,4.8,2,9.2,4.2,12.6c4.5,7,10.6,10.6,17.1,12.6c1.7,0.6,3.4,0.8,5,1.1
								c1.1,0,2.2,0.3,3.1,0.3h1.4h0.3h0.6l0,0h0.3h0.6h1.1c0.8,0,1.4-0.3,2.2-0.3c1.4-0.3,3.1-0.6,4.5-1.1
								c5.6-1.7,10.6-4.5,14.6-7.8c4.2-3.4,7.3-6.7,10.4-10.9c3.1-3.9,5.3-8.4,7.3-13.4c0.8-2.5,1.7-5,2-7.8
								c0.3-1.4,0.3-2.8,0.3-4.2c0-0.6,0-1.1-0.3-1.7c-0.3-1.1-0.6-2.2-1.1-3.4l-0.3-0.8c0,0,0,0.3,0.3,0.6l0.6,1.4
								c0.3,0.3,0.3,0.8,0.6,1.1l0,0c0.3-0.8,0.6-1.1,0.8-2.2c0.3-1.4,0.6-2.5,0.6-3.9c0.3-2.5,0-5.3-0.6-7.6
								c-1.1-4.8-3.4-9-6.2-12.3c-5.6-6.7-13.2-10.9-21.8-12c-9.2-1.1-17.9,1.1-25.2,4.8c-7.6,3.6-13.7,8.7-19.3,15.1
								c-1.4,1.7-2.8,3.6-4.2,6.4c-0.6,1.4-1.4,2.8-1.7,4.8c-0.3,0.8-0.6,2-0.6,2.8l-0.3,1.4c0,0.6,0,1.4,0,2v1.1v0.3l0,0v0.8
								l0.3,1.1c0.3,1.4,0.8,2.8,1.1,3.9c1.1,2.5,2.5,4.5,4.2,6.2c1.7,1.7,3.6,3.1,5.9,4.2c2.2,1.1,5,2,8.1,2c0.8,0,1.7,0,2.5,0
								c0.8,0,1.4-0.3,2.8-0.6c0.6-0.3,1.1-0.3,1.7-0.6l1.1-0.6h0.3h0.3l0,0l0,0l1.1-0.6c2.5-1.4,5.3-3.9,7-6.7s2.5-5.9,2.8-8.1
								c0.3-2.2,0.3-4.2,0-6.2c-0.3-1.7-0.6-3.4-0.8-4.8c-0.3-0.8-0.3-1.4-0.6-2l-0.6-1.7c-0.6-1.7-1.1-3.4-1.7-5l-1.4-4.5l-0.3-1.1
								l-0.6-1.7l-1.4-3.6c-2-5-4.2-9.5-7.3-13.2c-3.1-3.6-7.3-6.4-12-7.8c-4.8-1.4-9.5-1.4-14.3-0.3c-4.8,1.1-9.8,3.6-14.6,5.6
								c-2.8,1.1-5.3,2.2-8.1,3.6c-6.2,2.8-12,5.3-17.9,8.1c-9.8,4.2-17.9,9.5-20.2,19c-0.6,2.2-0.6,4.5-0.6,6.7
								c0.3,2.2,0.6,4.8,1.1,7.3c1.4,4.8,2.8,9.8,4.8,14.3c1.4,3.4,3.4,7,5.9,10.6c1.1,1.7,2.8,3.6,4.5,5c1.7,1.7,3.4,3.1,5.3,4.5
								c3.6,2.5,8.1,4.8,12.9,5.9c4.8,1.1,10.1,1.4,15.1,0l12-2.8l-0.8-11.2c-0.8-10.4-5.3-19.3-12-25.8
								c-6.4-6.4-15.1-10.9-24.1-12.3c-9-1.1-17.6,0.6-25.2,4.2c-1.1,0.6-1.4,0.8-1.7,1.1c-0.3,0.3-0.8,0.6-1.1,0.8
								c-0.8,0.6-1.7,1.4-2.2,2.2c-1.4,1.7-3.1,3.4-4.2,5.9c-1.1,2.2-1.7,5-0.6,7.6s3.6,3.9,5.9,4.2c2.5,0.3,5,0,6.7-1.7
								c1.7-1.7,2-4.2,1.1-6.2c-0.8-2.2-2.8-3.9-5-5.3c-1.1-0.6-2.5-1.1-3.9-1.1c-0.6,0-1.4-0.3-2-0.3c-1.1,0-2,0-3.1,0
								c-3.9,0.3-7.8,1.4-11.5,3.1c-1.7,0.8-3.4,1.7-5,2.8c-1.7,1.1-3.1,2-4.8,3.6c-1.7,1.4-2.8,3.9-2.8,6.2c0.3,2.2,1.1,3.9,2,5
								c1.7,2.5,3.4,4.5,4.8,6.2c3.1,3.4,6.2,5.3,8.7,6.2c4.8,2,7.8-0.3,6.4-3.6c-1.7-3.6-3.6-7.3-5.3-10.6c-0.8-1.7-2-4.2-2.2-3.9
								c-8.4,2.8-8.1,0-5,2.5c0.8,0.6,1.7,1.4,2.8,2.5l0.8,0.8l0,0l0,0c0.3-0.3,0.8-0.6,1.4-1.1c1.1-0.8,2.2-1.4,3.6-2
								c2.2-1.1,4.8-1.7,6.7-2c0.3,0,0.6,0,0.8,0h0.3l0,0l0,0c0,0.6,0-1.1,0.3-2l0.8-6.4c0.3-1.4,0.3-1.4,0.3-1.4l0,0l0,0h0.3h0.3
								c0.6,0,1.1,0,1.7,0c0.6,0,1.1,0,1.4,0.3c2,0.3,3.6,1.1,5.3,2.2l0.6,0.3h0.3l0,0l0.3,0.6l0.8,2l2,4.2l0.6,1.1l0.3,0.6l0,0h0.3
								c0.6,0,1.1,0.3,1.4,0.6c0.8,0.6,0.8,1.7,0.8,2.8c0,0.6-0.3,1.1-0.6,2c0,0.6-0.6,0.3-0.8,0c-0.6-0.3-0.6,0.3-0.8,0.8
								c-0.8,1.7-2.5,3.1-4.2,3.9c-3.4,1.7-7.8,2-11.2,0c-1.7-0.8-3.1-2.8-3.4-4.5c-0.6-2-0.3-3.9,0.6-5.9c1.4-3.6,3.9-6.7,7-9.2
								c0.3-0.3,0.8-0.8,1.1-0.8l1.1-0.3c0.8-0.3,2-0.3,2.8-0.3c0,0,0,0,0.3,0l0.3,0.6l0.8,1.1l1.7,2.2l1.7,2.2l0.8,1.1
								c0.3,0,0.3-0.3,0.6-0.3c0.6-0.3,1.4-0.6,1.7-0.8s0.6-0.3,0.8-0.3c2.5-0.8,5.3-1.7,7.8-1.7c2.8,0,5.3,0.3,7.6,1.1
								c2.2,0.8,4.5,2.2,6.4,3.9c2,1.7,3.6,3.9,4.8,6.2c1.1,2.2,1.7,4.5,1.7,6.7c2.8-3.4,5.6-7,8.4-10.4c-1.7,0.3-3.9,0-6.4-1.4
								c-1.1-0.6-2.2-1.4-3.4-2.5c-0.6-0.6-0.8-1.1-1.4-1.4c-0.6-0.6-0.8-1.1-1.4-2c-0.8-1.4-1.7-2.8-2.2-4.8
								c-0.6-1.1-0.8-2.2-1.1-3.4s-0.6-2.2-0.8-3.4c-0.3-1.1-0.3-2.5,0.3-3.4c0.8-0.8,2-1.4,2.8-2l3.4-1.4l11.5-5l12.3-5.3
								c2.2-0.8,4.2-2.2,6.7-2.2c1.1,0,2.2,0.3,3.4,0.8c0.8,0.6,1.7,1.7,2.2,2.8c0.6,1.1,0.8,2.2,1.4,3.1l2,4.8l2.5,6.4l0.6,1.7
								c0,0.3,0.3,0.6,0.3,0.8c0.3,0.6,0.3,1.1,0.3,1.1l0,0c0.8,0,1.4,0,2,0c1.1,0,2,0.3,2.8,0.6c1.4,0.3,1.4,0.8,0.8,0v-0.3l0,0
								c-0.3,0,1.4,1.1,0.8,0.6l0,0l-0.3,0.3h-0.3l0,0c0,0,0,0,0.3,0c0-0.3,0-0.3,0-0.8c0-0.8,0.6-1.7,0.6-2
								c0.3-0.3-0.3,0.3-0.8,0.6c-0.3,0-0.3,0.3-0.6,0.3h-0.3l0,0l0,0l0,0c-2.5,0,3.4,0,2.8,0v-0.6c0-0.3,0-0.3,0-0.3
								c0.3,0,0.3,0.3,0.6,0.3s1.1,0,2,0.3c0.3,0,0,0,0.3,0c0-0.3,0.3-0.6,0.6-1.1c0.6-1.1,2-2.5,3.1-3.9c1.1-1.4,2.5-2.5,3.9-3.6
								c5.6-4.5,12-7.3,17.6-6.7c3.1,0.3,6.4,2,8.4,4.5c1.1,1.1,1.7,2.5,2,3.6c0,0.6,0,0.8,0,1.4c0,0.3,0,0.3,0,0.6l5,3.9l0,0
								l-2-5.6l-0.6-1.4v-0.3l0.6,0.6l1.4,1.1l1.4,1.1l0.6,0.6c0.3,0.3,0.6,0.6,0.6,0.6l-0.6,0.8c-0.3,0.6-1.1,1.4-1.7,2.2
								c-0.3,0.3-0.8,0.8-1.4,1.4l-0.6,0.6c-0.3,0.3-0.3,0.3-0.8,0.6l-2.5,1.4c-0.3,0.3-0.8,0.6-1.1,0.8v0.3c0,0.6,0,1.1-0.3,1.4
								c-0.6,4.2-3.4,9-7,12.9c-3.6,4.2-8.1,7.3-12.3,8.4c-1.1,0.3-2,0.6-3.1,0.6l0,0l0,0c-0.3,0,0.6,0,0.6,0l0,0h-0.3h-0.3h-0.6
								c-0.6,0-0.6,0-0.6,0s-0.6,0-1.1-0.3c-1.7-0.3-3.4-1.4-4.2-2.2c-0.6-0.6-0.8-1.1-0.8-1.4c0,0,0,0,0-0.3l0,0l0,0l0,0
								c-0.6,0.3,1.4-0.6-1.7,0.6l0,0l0,0l0.3-0.8c0.3-0.8,0.6,0,0.8,0.3v0.3h0.3l0,0c0-0.3,0.6-0.8,1.4-1.1
								c0.8-0.3,1.7-0.6,1.7-0.6l0,0l0,0v-0.3c0.3-0.6,0.3-0.6,0.3-1.1c0.3-0.3,0-0.3,0.3-0.3c0,0,0,0-0.3,0.3l0,0l0,0l0,0
								c1.4-0.3-2,0.3-1.4,0.3l0,0l0,0c0,0.3,0.6,0.3,0.8,0.6l0.6,0.3c0.3,0,0,0,0,0c0-0.3,0-0.8,0-0.6c0,0,0,0-0.3,0
								c-0.3,0-0.3,0-0.6,0s-0.3,0-0.3,0l0,0c0,0.3-0.3,1.4-1.1,2.2c-0.8,1.1-1.7,2.2-3.1,3.1c-0.6,0.6-1.1,0.8-2,1.4l-1.1,0.6
								l-1.4,0.6c-1.7,0.8-3.4,1.7-5.3,2.2c-3.6,1.4-7.6,2.5-11.5,3.4c-8.1,1.7-16.5,2.2-25.2,3.1c2,0.6,3.9,1.1,5.9,2
								c-0.6-0.3-0.8-1.7-0.6-2c-3.9,1.1-7.8,2-11.8,3.1c0.3-0.6,0.6-0.3-0.3,0c0,0-0.6,0.3-0.3,0.3l0,0v0.3c0,0.6-0.3,1.7-0.8,2.2
								c-0.6,0.8-2,1.7-3.6,2.5c-1.7,0.8-3.6,1.4-6.2,2.2c-10.1,2.5-20.2,5-27.7,3.6c-3.9-0.6-7-2.2-9.8-4.8
								c-2.8-2.5-5.3-6.2-7.3-10.1c-1.1-2.2-1.7-3.4-2.2-4.8c-0.6-1.4-1.1-2.8-1.4-4.2c-0.8-2.8-1.4-5.6-1.4-8.4
								c0.3-1.7,0.6-3.4,1.7-4.8c0.8-1.4,2.2-2.5,3.9-3.4c1.4-0.8,3.4-1.1,5-0.8c1.7,0.3,3.4,1.1,4.2,2.8c2,3.1,1.4,7-0.8,9.2
								c-2.2,2.2-5.3,2.8-7.8,2.2s-3.9-3.1-3.6-5.3c0.3-2.2,1.7-4.2,3.6-5.3c2-1.1,4.2-1.4,6.4-1.1s3.9,0.8,5.6,1.7
								c2.5-2.2,6.4-3.9,9.8-3.4c3.9,0.3,7,3.4,8.7,7.6c0.8,2,1.4,4.5,0.8,7c-0.6,2.5-2,4.5-3.6,6.4c-3.6,3.9-8.7,7.3-14,9
								c-0.6,0.3-1.7,0.6-2.8,0.8c-0.8,0.3-2,0.6-2.8,0.6c-2,0.3-3.9,0.6-5.6,0.3c-3.6,0-7.6-1.1-10.4-2.8c-3.1-1.7-5-3.9-5.9-6.2
								v-0.3l0,0l-0.6,0.3l-1.1,0.3c-1.4,0.3-2.2,0.3-2.8,0.3h-0.3l0,0l0,0v0.3l0.3-0.3c0-0.3,0.3,0,0.3,0.3c0,0,0.3,0,0.6,0.3
								c0.8,0.3,1.7,0.8,3.4,2l0.3,0.3l0,0l0,0l0,0l0.3-0.3c0.3-0.3,0.6-0.6,1.1-0.8l2.5-2c7-4.5,15.7-7.3,24.9-9
								c9.2-1.4,19-1.7,28.8-1.4c9.8,0.3,20.4,1.1,31.1,1.4c5.6,0.3,13.4-1.1,22.4-3.4c4.5-1.1,9-2.5,13.7-3.9l3.4-1.1l3.4-1.1
								c1.7-0.6,3.4-1.4,5.3-2c1.7-0.6,3.4-1.4,5-1.1c1.7,0,3.4,1.1,4.8,2.2c1.4,1.1,2.5,2.5,3.4,3.9c0.6,0.8,1.1,1.4,1.4,2.2
								l0.8,1.1l0.8,1.4c1.1,1.7,2,3.9,2.5,5.6s0.8,3.4,1.1,5.3c0.3,3.6-1.1,7.3-3.6,10.1c-2.2,2.2-5,3.9-8.1,5
								c-3.4,1.1-7.3,2-11.5,2.8c-8.1,1.7-16.2,3.4-24.4,5c-8.1,1.7-16.5,4.2-18.8-2.8c-0.8-3.1,0.3-7,2.2-10.1c2-3.1,5.3-5.3,9-7.3
								c-2.8,0-5.9,0-8.7,0.8c-3.1,0.8-5.9,2.2-8.7,4.5c-2.5,2.2-5,5.3-6.4,9.8c-0.3,1.1-0.6,2.5-0.6,3.6c0,1.4,0,2.8,0.3,4.5
								c0.3,1.4,0.8,3.1,1.4,4.8c0.3,0.6,1.1,1.7,1.7,2.5s1.7,2,1.7,2l0.8,0.6l0.8,0.8l0,0l0.3,0.3l0.6,0.3c0.3,0.3,0.8,0.6,1.1,0.6
								c1.4,0.8,3.1,1.4,4.5,1.7c3.1,0.8,5.6,0.8,7.8,0.8c4.5-0.3,7.8-1.1,10.6-1.7c5.6-1.1,11.5-2.5,17.1-3.6
								c5.9-1.1,11.2-2.2,17.6-3.6c1.7-0.3,3.4-0.8,5-1.4c1.7-0.6,3.9-1.4,5.6-2.2c3.9-1.7,7.3-4.2,10.1-7.3
								c4.5-4.5,7-10.4,7.8-16.5c0.3-3.1,0.3-6.2-0.3-9.2c-0.3-1.7-0.6-3.1-0.8-4.8C377.2,178.1,376.9,177,376.3,175.6z"/>
							<path fill="#F8F4F2" d="M376.3,175.6c0.6,1.4,0.8,2.5,1.1,4.2c0.3,1.4,0.8,3.1,0.8,4.8c0.6,3.1,0.6,6.2,0.3,9.2
								c-0.8,6.2-3.4,12-7.8,16.5c-2.8,3.1-6.4,5.3-10.1,7.3c-2,0.8-4.2,1.7-5.6,2.2c-1.7,0.6-3.4,1.1-5,1.4
								c-6.4,1.4-11.8,2.5-17.6,3.6c-5.6,1.1-11.5,2.5-17.1,3.6c-2.8,0.6-6.2,1.4-10.6,1.7c-2.2,0-4.8,0-7.8-0.8
								c-1.4-0.3-3.1-0.8-4.5-1.7c-0.3-0.3-0.8-0.3-1.1-0.6l-0.6-0.3l-0.3-0.3l0,0l-0.8-0.8l-0.8-0.6l0.6,0.8l0,0l0,0l0,0l0.8,0.6
								l0,0l0,0l0,0l0.6,0.3l1.1,0.8c1.4,0.8,2.8,2,4.2,2.5c2.8,1.4,5.9,2,8.4,2.5c5,0.8,9.2,0.6,12.6,0.6c8.4-0.6,16.8-1.1,25.5-2
								c4.2-0.3,9.2-0.8,15.4-2.5c0.8-0.3,1.4-0.3,2.5-0.8c1.1-0.3,2-0.6,3.1-1.1c2-0.8,3.9-1.7,5.9-2.5c3.6-2,7-4.5,10.1-7.6
								c1.1-1.4,2.5-2.8,3.6-4.5c1.1-1.7,2.2-3.4,3.1-5c1.7-3.4,3.1-7.3,3.6-11.2c0.6-3.9,0.6-7.8,0.3-11.8c-0.3-2-0.6-3.9-1.1-5.9
								c-0.6-2-1.1-3.9-1.7-5.3c-1.1-3.1-2.2-5.9-3.6-8.4c-0.8-1.4-1.4-2.2-2.5-4.5c-1.1-1.7-2.2-3.4-3.4-5
								c-1.1-1.7-2.5-3.1-3.9-4.8c-1.4-1.4-2.8-2.8-4.2-4.2c-3.1-2.5-6.2-4.5-9.8-5.9c-7.3-2.5-15.1-2.2-22.7,0.6l-5,2
								c-1.1,0.3-1.1,0.3-1.7,0.6l-1.1,0.3c-1.4,0.6-3.1,0.8-4.5,1.1c-6.2,1.4-13.2,2.2-20.4,2.2c-14.8,0.6-31.4-0.8-49.6,0
								c-9,0.6-18.2,1.4-27.7,3.6c-9.5,2-19,5.6-28,10.9c9.8-3.6,20.2-5.6,30.2-6.2c10.1-0.6,19.9-0.3,29.7,0.3
								c9.2,0.8,18.5,1.7,27.7,2.2c9.2,0.6,18.5,0.6,27.7-0.3c4.5-0.6,9-1.1,13.4-2.2c2.2-0.6,4.2-1.1,6.4-2
								c3.1-1.1,6.4-2.5,10.4-3.4c3.6-0.8,7.6-1.1,11.2,0c3.6,1.1,6.7,3.4,9.5,6.2c2.8,2.8,5,5.9,7.3,9.2c1.1,2,2,3.1,2.5,4.8
								C375.2,172.5,375.8,173.9,376.3,175.6z"/>
							<path fill="#FAF7F6" d="M376.3,175.6c0.6,1.4,0.8,2.5,1.1,4.2c0.3,1.4,0.8,3.1,0.8,4.8c0.6,3.1,0.6,6.2,0.3,9.2
								c-0.8,6.2-3.4,12-7.8,16.5c-2.8,2.8-5.9,5-9.5,6.7c-1.7,0.8-3.6,1.7-5.3,2.2c-1.7,0.6-3.1,1.1-4.8,1.4
								c-3.1,0.8-5.9,1.4-8.7,2l-7.8,1.7c-5.3,1.1-10.6,2.2-16,3.4c-2.8,0.6-5,1.1-8.4,1.7c-3.4,0.6-7.6,1.1-13.2,0
								c5.3,1.7,9.2,1.4,12.6,1.1c3.4-0.3,5.6-0.6,8.4-0.8c5-0.6,10.4-1.1,15.7-2c5.6-0.8,10.6-1.4,17.6-2.8c1.7-0.3,3.4-0.8,5-1.4
								l1.4-0.6l1.7-0.6c1.1-0.3,2.2-0.8,3.4-1.4c4.2-2,8.1-4.5,11.5-7.8c2.8-3.4,5.3-7,7-10.9c1.4-4.2,2.2-8.4,2-12.9
								c0-4.2-1.1-9-2.5-12.9c-1.1-3.6-2.8-6.7-4.5-9.8c-2-3.6-4.8-7.3-7.8-10.6c-2.8-3.4-6.2-6.2-10.1-7.8c-3.9-2-8.1-2.5-12.3-2
								c-2,0.3-4.2,0.6-6.4,1.4c-2,0.6-3.9,1.4-5.9,2l-1.4,0.6c-0.6,0.3-0.6,0.3-0.8,0.3l-1.7,0.3c-1.1,0.3-2.2,0.6-3.1,0.8
								c-2.2,0.6-4.2,0.8-6.4,1.1c-4.5,0.6-9.2,0.6-14,0.6c-9.5-0.3-19.6-1.4-30-2.5c10.6,0.6,20.7,1.1,30.2,1.1
								c4.8,0,9.2-0.3,13.7-1.1c2.2-0.3,4.2-0.6,6.4-1.1c1.1-0.3,2-0.6,3.1-0.8c1.1-0.3,1.7-0.3,3.9-1.4c2-0.8,3.9-1.4,6.2-2.2
								c2.2-0.6,4.5-1.1,6.7-1.4c4.5-0.3,9,0.3,13.2,2.2c8.1,3.6,14.3,12,19,19.6c1.7,3.1,3.4,6.4,4.8,10.4
								c1.4,4.2,2.5,9.2,2.5,13.7c0,4.8-0.6,9.5-2.2,14c-1.4,4.5-4.2,8.4-7.3,12c-4.5,4.8-10.4,8.4-16.8,10.6
								c-1.7,0.6-2.8,0.8-3.9,1.4c-1.1,0.3-2.5,0.6-3.6,0.8c-2.2,0.6-4.5,0.8-6.4,1.4c-7.3,1.4-14.8,2.5-22.1,3.9
								c7.3-0.6,14.6-1.1,22.1-2c2-0.3,4.2-0.6,6.7-0.8c1.1-0.3,2.5-0.6,3.6-0.8c1.4-0.3,2.5-0.6,4.2-1.1c7-2.2,13.4-5.9,18.5-11.2
								c1.1-1.4,2.5-2.8,3.6-4.5c1.1-1.7,2.2-3.4,3.1-5c1.7-3.4,3.1-7.3,3.6-11.2c0.6-3.9,0.6-7.8,0.3-11.8c-0.3-2-0.6-3.9-1.1-5.9
								c-0.6-2-1.1-3.9-1.7-5.3c-1.1-3.1-2.2-5.9-3.6-8.4c-0.8-1.4-1.4-2.2-2.5-4.5c-1.1-1.7-2.2-3.4-3.4-5
								c-1.1-1.7-2.5-3.1-3.9-4.8c-1.4-1.4-2.8-2.8-4.2-4.2c-3.1-2.5-6.2-4.5-9.8-5.9c-7.3-2.5-15.1-2.2-22.4,0.6l-5,2l-0.6,0.3H331
								l0,0l-0.6,0.3l-1.1,0.3c-1.4,0.6-3.1,0.8-4.5,1.1c-6.2,1.4-13.2,2.2-20.4,2.2c-14.8,0.6-31.1-0.8-49.6,0
								c-9,0.6-18.2,1.4-27.7,3.4c-9.2,2-19,5.6-28,10.9c9.8-3.6,20.2-5.6,30-6.2c10.1-0.6,19.9-0.3,29.4,0.3
								c9.2,0.8,18.5,1.7,27.7,2.2c9.2,0.6,18.5,0.6,27.7-0.3c4.5-0.6,9-1.1,13.4-2.2c2.2-0.6,4.2-1.1,6.4-2
								c3.1-1.1,6.4-2.5,10.4-3.4c3.6-0.8,7.6-1.1,11.2,0c3.6,1.1,6.7,3.4,9.5,6.2c2.8,2.8,5,5.9,7.3,9.2c1.1,2,2,3.1,2.5,4.8
								C375.2,172.5,375.8,173.9,376.3,175.6z"/>
							<path fill="#F8F4F1" d="M290.4,159.9c9.2,0.6,18.2,1.1,26.9,0.3c4.5-0.3,8.7-0.8,12.9-1.7c1.1-0.3,2-0.6,3.1-0.8l1.7-0.3
								c0.6,0,1.4-0.6,2-0.6l4.2-1.4c1.4-0.6,2.8-0.8,4.5-1.1c2.8-0.6,5.9-0.6,9,0.3c2.8,1.1,5.3,3.1,7.3,5c2,2.2,4.2,4.5,5.9,7.3
								c0.6,0.6,0.8,1.4,1.4,2l0.6,2c0.6,1.1,1.4,2.2,2,3.6c2.2,4.8,4.2,11.2,3.9,17.1c0,6.2-2.5,12-7,16.5c-3.1,3.1-7,5.6-11.2,7
								c-2.2,0.8-3.9,1.4-5.9,2c-2,0.6-3.6,0.8-5.3,1.1c-6.7,1.1-13.4,2.5-20.2,3.6l-10.1,2c-3.4,0.6-6.7,1.4-11.5,1.4
								c-2.2,0-5-0.3-7.8-1.4c-0.6-0.3-1.4-0.6-2-0.8l-1.1-0.6l-1.1-0.8l-0.6-0.3c0,0,0,0-0.3-0.3l-0.6-0.6c-0.8-0.8-1.7-1.7-2-2.2
								c-2-2.8-3.1-6.2-3.1-9.2c0-3.1,0.3-5.6,1.1-8.1c-1.4,1.7-2.5,3.6-3.4,6.4c-0.8,2.5-1.1,5.9-0.3,9.5c0.6,1.7,1.4,3.1,2.2,4.5
								c0.6,0.8,1.4,1.7,2.2,2.5l1.4,1.1c2.2,2.2,5.3,3.6,7.8,4.5c5.6,1.4,9.8,0.6,13.2,0c3.4-0.6,5.6-1.1,8.4-1.7
								c5.3-1.1,10.6-2.2,16-3.4l7.8-1.7c2.8-0.6,5.6-1.1,8.7-2c1.4-0.3,3.1-0.8,4.8-1.4c1.7-0.6,3.6-1.4,5.3-2.2
								c3.6-1.7,6.7-3.9,9.5-6.7c4.5-4.5,7-10.4,7.8-16.5c0.3-3.1,0.3-6.2-0.3-9.2c-0.3-1.7-0.6-3.1-0.8-4.8s-0.8-2.8-1.1-4.2
								c-0.6-1.7-1.1-3.1-2-4.5c-0.8-1.4-1.4-2.8-2.5-4.8c-2.2-3.4-4.5-6.4-7.3-9.2s-5.9-5-9.5-6.2c-3.6-1.1-7.6-0.8-11.2,0
								s-7.3,2.5-10.4,3.4c-2.2,0.6-4.2,1.4-6.4,2c-4.5,1.1-9,1.7-13.4,2.2c-9.2,0.8-18.5,0.8-27.7,0.3c-9.2-0.6-18.5-1.4-27.7-2.2
								c-9.5-0.8-19.6-1.1-29.4-0.3c-10.1,0.6-20.2,2.5-30,6.2c-3.1,2-6.2,3.9-9,6.2c-1.4,1.1-3.1,2.5-5.3,5
								c-1.1,1.4-2.5,3.1-3.6,5.3c-0.3,0.6-0.6,1.1-0.8,2c-0.3,0.6-0.6,1.1-0.8,2.2l-0.3,1.4v0.3l-0.3,0.8v0.6l-0.3,1.1
								c-0.6,5.3,0.8,9.2,1.7,12c0.3,0.6,0.6,1.1,0.8,2l0.3,0.6l0.3,0.8c0.6,0.8,1.1,2,1.7,2.8c2.2,3.6,5.3,6.7,8.4,9.2
								c6.2,5,13.2,7.8,19.9,9.2c3.4,0.8,6.7,1.1,10.4,1.1s7-0.3,10.1-0.8c3.1-0.6,6.2-1.4,9.2-2.2c0.6-0.3,1.7-0.6,2.8-0.8l2.8-1.1
								c2-0.8,3.6-1.7,5.6-2.5c7.3-3.6,13.7-8.4,19-13.4c5.6-5,9.5-10.4,12.3-15.7c2.8-5.3,4.2-11.2,4.5-17.1
								c0.3-6.2-0.8-12.3-2.2-18.2c-2.8-11.8-8.7-22.7-17.9-29.7c-4.8-3.6-10.1-5.9-16-7.3c-5.6-1.4-11.8-1.7-17.6-1.4
								c-11.8,0.8-23.8,3.9-33.6,10.6c-5,3.4-9.2,7.6-12.6,12.3c-3.1,4.8-5,10.4-5.3,15.4c0,4.2,0.8,7.8,2,9.2
								c0.6,0.6,1.4,0.6,2.2-0.3c0.8-0.8,1.7-2.8,3.4-5.9c1.7-3.1,4.5-7.8,9.8-12.6c1.4-1.1,2.8-2.2,4.2-3.4l4.5-2.8
								c1.7-0.8,3.1-1.4,4.8-2.2c1.7-0.8,3.1-1.1,4.5-1.7c5.6-2,9.5-2.8,11.8-3.4c2.2-0.6,2.8-1.1,2.5-2c-0.3-1.1-3.9-2.2-9-2.2
								c-5,0-11.2,1.4-16.5,4.2c-5.3,2.8-10.1,6.4-13.4,11.2c-0.8,1.1-1.7,2.2-2.5,3.6c-0.3,0.6-0.8,1.4-1.1,2l-0.6,0.8l0,0l0,0l0,0
								c-0.8-0.8,7,6.4,3.6,3.4v0.3l0.3,0.3c-1.1,2.2-2,4.8-2.5,7.3c-1.1,5.6-1.1,11.5,0,17.9c1.1,6.4,3.6,13.2,6.4,19.6
								c1.7,3.6,2.5,5.6,3.9,8.1c1.4,2.5,2.8,4.8,4.5,7.3c3.4,4.8,8.1,9.2,14,12.6c5.9,3.4,12.6,5,18.5,5.6c6.2,0.6,11.5,0,16.8-0.8
								c5-0.8,9.8-1.7,14.3-2.8c4.8-1.1,10.6-2.5,17.4-6.7c-5.9,3.9-11.2,5.6-15.4,6.7l-6.2,1.7c-2,0.6-4.2,1.1-6.2,1.4
								c-4.2,0.8-9,1.7-14.3,2c-5,0.3-10.9,0-16.8-1.7c-5.9-1.7-11.5-4.8-16.2-8.4c-4.8-3.9-8.1-8.1-10.9-12.6
								c-1.4-2.2-2.5-4.2-3.6-6.4c-0.6-0.8-1.4-2.5-2-4.2c-0.8-1.7-1.4-3.1-2-4.8c-2.5-6.4-4.8-12.9-5.9-19c0.8,6.7,3.4,14,6.2,21
								c0.6,1.7,1.4,3.6,2.2,5.3c0.8,1.4,1.1,2.5,2,3.6c1.1,2.5,2.8,4.8,4.5,7.3s3.6,4.8,5.9,7.3c2.2,2.2,4.8,4.5,7.8,6.4
								c5.9,3.9,12.9,6.2,19.3,7c6.4,0.8,12.3,0.6,17.6-0.3c5.3-0.8,10.1-1.7,14.6-2.8c4.2-1.1,9.5-2,16.2-5.3
								c1.7-0.8,3.4-1.7,5-3.1l1.4-0.8l1.7-1.4l1.1-0.8l0.3-0.3h0.3l0.8-0.8c3.9-4.2,6.4-8.7,7.8-14c1.1-4.5,1.4-9.2-0.3-14.8
								c-1.4-5.3-5.6-11.2-10.6-14.6l-18.8-10.9l-9.2,19c-2.8,6.2-3.4,12.6-2,18.8c1.4,5.9,4.8,11.5,9.8,15.7l5.9,4.8l7.3-0.6
								c10.9-0.8,23-2,35.3-5.6c3.1-0.8,6.2-2,9.5-3.4c1.7-0.6,3.1-1.4,4.8-2c0.8-0.3,1.7-0.8,2.2-1.1c0.8-0.6,1.4-0.8,2.5-1.4
								c3.9-2.2,7.3-5,10.4-8.4s5.9-7.3,7.8-13.4c0.3-3.6,0.3-8.7-1.7-14c-0.3-0.6-0.6-1.7-1.1-2.2c-0.6-0.8-0.8-1.7-1.4-2.5
								l-0.3-0.3l0,0h-0.3l-0.3-0.3l-0.3-0.3l-0.3-0.3l0,0l0,0l0,0l0,0c-1.4-2-0.3-0.6-0.6-1.1l0,0c-2.2-2.2-5-4.5-8.4-5.3
								c-3.1-1.1-6.4-1.4-9.2-1.1c-3.1,0.3-5.6,1.1-8.4,2.5c-2.5,1.1-5,3.1-7.6,5.3c-0.6,0.6-1.1,1.4-1.7,2
								c-0.6,0.8-1.1,1.4-1.7,2.5l-0.8,1.4c-0.3,0.6-0.6,1.1-0.8,2c-0.3,0.6-0.6,1.4-0.6,2c0,0.6,0,0.3,0,0.6v0.3
								c-1.1,6.4,1.4,12.6,4.8,16.5c3.4,3.9,7.6,6.7,11.8,8.1c2.2,0.8,4.2,1.4,7.3,1.4c0.3,0,0.6,0,0.8,0h0.6h0.6h0.6l0,0h0.3h0.3
								c1.1,0,2.2-0.3,3.4-0.3c4.2-0.6,8.4-2.2,11.8-4.2c7-3.9,12.3-9.2,16.2-15.4c2-3.1,3.6-6.4,5-10.4c0.6-2,1.1-3.6,1.4-5.6
								c0-1.1,0.3-2,0.3-3.1v-1.4v-0.8c0-0.3,0-0.3,0-0.6c0-1.4,0.6-1.7,1.4-2.2c0.6-0.6,1.1-1.4,0.3-3.4c0.6,1.4,0.8,2.8,1.1,4.2
								c0,0.3,0,0.8,0,1.1v0.6c0,0.3,0,0.3,0,0.8c0,1.7-0.3,3.1-0.6,4.5c-1.1,5.9-3.4,10.9-5.9,15.4c-2.5,4.5-5.6,8.4-8.7,12
								c-3.4,3.6-7,6.7-11.2,9.5c5.6-2.8,10.1-6.4,14-10.6c3.9-3.9,7.3-8.7,9.8-14c1.1-2.5,2.2-5.3,3.1-8.4c0.3-1.4,0.8-3.1,0.8-4.5
								c0-0.8,0.3-1.7,0.3-2.2v-1.1v-0.6V161l0,0c0-1.4-0.3-2.5-0.8-3.6c-0.3-0.6-0.6-1.1-0.8-2l0,0v0.3v0.3l0.3,0.8
								c0.3,0.6,0.6,1.1,0.6,1.7l0,0c0.3-0.8,0.6-1.1,0.8-2.2c0.3-1.4,0.6-2.5,0.6-3.9c0.3-2.5,0-5.3-0.6-7.6
								c-1.1-4.8-3.4-9-6.2-12.3c-5.6-6.7-13.2-10.9-22.1-12c-6.2-0.6-12,0-17.6,1.7c-5.6,1.7-10.4,4.2-14.8,7.3
								c-4.5,3.1-8.4,6.7-12.3,11.2c-2,2.2-3.9,5-5.6,9.8c-0.3,1.1-0.6,2.2-0.8,3.6c0,0.6-0.3,1.4-0.3,2c0,0.8,0,2,0,2.5v0.6v0.3
								v0.8v0.3c0.3,0.8,0.3,2,0.6,2.8c0.6,1.7,1.4,3.4,2.2,4.8c2.8,3.9,6.4,6.7,11.5,8.1c2.5,0.6,5.6,0.8,8.7,0.3
								c1.1-0.3,2.2-0.6,3.1-1.1c0.6-0.3,0.6-0.3,0.6-0.3l0.3-0.3h0.3l0,0l0.8-0.6l0,0l0.3-0.3l0.8-0.6c0.6-0.6,1.1-0.8,1.7-1.4
								c2.8-2.5,4.8-6.4,5.3-9.5s0.6-5.6,0.3-7.6c-0.3-2-0.8-3.9-1.4-5.3c-0.6-1.7-1.4-3.1-1.7-3.9c-2-4.2-3.9-8.4-5.9-12.6
								c-2.8-5.9-5.9-11.5-10.4-15.1c-2.2-2-5-3.1-7.8-3.6c-2.8-0.6-5.9-0.3-8.7,0.3c4.5-0.8,9.5,0,13.4,2.8c3.9,2.8,6.7,6.7,9,11.2
								c-2-3.4-4.2-6.4-7.6-9c-3.1-2.5-7.3-3.9-11.2-3.9s-7.8,1.4-11.8,2.8c-3.4,1.4-6.7,2.8-9.5,4.2l3.4-2l4.8-2.5
								c3.1-1.7,6.4-3.1,9.5-3.9c-2.8,0.3-5.3,1.4-8.1,2.2c-1.4,0.6-2.8,1.1-4.2,1.7l-3.9,1.7c-3.6,1.7-7.6,3.1-11.2,4.8
								c-3.9,1.7-8.1,3.4-12,5.3c-5.6,2.5-11.8,4.8-15.7,9c2.5-2.5,5.6-4.5,9.2-6.2c3.4-1.7,6.7-3.1,10.1-4.8
								c4.8-2.2,9.5-4.5,14.3-7c2.5-1.4,5-2.5,7.6-3.9c3.4-1.7,7-3.6,10.4-4.8s7-1.7,10.4-1.4c3.4,0.3,7,1.4,9.8,3.4
								c-2.8-2.2-6.4-3.6-10.1-3.9c-3.6-0.3-7,0-10.6,1.1c-3.6,1.1-7,2.8-10.4,4.2c-2.5,1.1-4.8,2.2-7.3,3.4
								c-4.2,2-8.7,3.9-12.9,5.9l-8.1,3.6c-3.4,1.4-6.7,3.1-9.5,5c-2.8,2-5.3,4.2-6.7,7.3c-1.7,3.1-2,6.4-1.7,9.8s1.1,7,2,10.6
								c0.6,1.7,0.8,3.6,1.4,5.3c0.6,1.7,1.1,3.6,1.7,4.8c1.1,2.8,2.5,5.6,4.2,8.4c1.7,2.8,3.9,5.9,6.7,8.1c5.3,4.8,12,8.7,20.4,9.8
								c-1.7,0-3.4,0-5-0.3c4.5,0.8,9.2,0.8,14,0l11.8-2.8l-0.8-11.2c-0.8-10.4-5.3-19-11.8-25.8c-6.4-6.4-14.8-10.9-23.8-12.3
								c-9-1.4-17.6,0.3-25.2,3.9l-1.4,0.8l0,1.1l-1.1,0.8c-0.8,0.6-1.7,1.4-2.5,2c-1.4,1.7-3.1,3.4-4.2,5.6c-1.1,2.2-2,5-1.1,7.6
								c0.8,2.8,3.4,4.2,5.6,4.8c2.5,0.6,5,0,7-1.4c2-1.4,2.2-3.9,1.7-6.2c-0.6-2.2-2.5-4.2-4.8-5.6c-1.1-0.6-2.5-1.1-3.6-1.4
								c-0.6,0-1.4-0.3-2.2-0.3h-0.6h-0.6c-0.6,0-1.1,0-1.4,0c-8.1,0.3-15.1,3.9-21,8.7c-1.4,1.4-3.1,3.1-3.6,5.3
								c-0.6,2.5,0.3,4.2,1.1,5.6c1.7,2.5,3.4,4.5,4.8,6.2c3.1,3.4,6.2,5.3,8.7,6.2c4.8,2,7.8-0.3,6.4-3.6l-5.3-10.6l-1.1-2.5
								l-0.3-0.6l0,0l-1.7,0.6c-1.1,0.3-1.7,0.6-2.5,0.6c-2.5,0.6-3.6,0.3-3.4,0.3c0.6,0.3,1.7,0.8,3.6,2.8c0.6,0.6,1.1,1.1,1.7,1.7
								c0.3,0.3,0,0.3,0.3,0.3l0,0l0,0l0.3-0.3c0.6-0.3,1.1-0.8,1.7-1.1c1.1-0.8,2.2-1.4,3.6-2c2.2-1.1,4.8-1.7,6.4-1.7h0.3h0.3l0,0
								l0.6-5.3l0.3-3.1c0.3-1.4,0.3-1.4,0.3-1.4l0,0c0.6,0,1.1-0.3,1.7-0.3h1.4l1.4,0.3c2,0.6,3.6,1.4,5,2.5h0.3l0.6,1.1l0.8,2
								l1.7,4.2l0.6,1.1c0,0.3,0,0.3,0,0.3l0,0h0.3h0.3c0.6,0.3,0.8,0.6,1.1,0.8c0.6,0.8,0.8,1.7,0.6,2.8c0,0.3-0.3,0.6-0.3,0.8
								l-0.3,0.6v0.3l0,0l0,0l-0.6-0.3c-0.3,0-0.3-0.3-0.6,0c-0.3,0.6-0.3,0.8-0.8,1.4c-1.1,1.7-2.8,2.8-4.5,3.6
								c-3.6,1.4-7.8,1.7-11.2-0.6c-1.7-1.1-2.8-2.8-3.1-4.8s0-3.9,0.8-5.6c1.4-3.6,4.2-6.7,7-9.2l0.6-0.6c0.3,0,0.3,0,0.6-0.3
								l1.1-0.3c0.3,0,0.8,0,1.4-0.3h0.8c0.3,0,0.3-0.3,1.1,0.6l3.4,4.2l1.7,2c0.3-0.3,0.6-0.3,0.8-0.6c0.8-0.3,1.1-0.6,1.4-0.6
								c0.3-0.3,0.6-0.3,0.8-0.3c2.5-0.8,5.3-1.4,7.8-1.7c2.8,0,5.3,0.3,7.6,1.1s4.5,2.2,6.4,3.9c2,1.7,3.4,3.9,4.5,6.2
								c1.1,2.2,1.7,4.5,1.7,6.7c2.8-3.4,5.6-7,8.4-10.4c-1.4,0.3-3.1,0-5-0.8s-3.9-2.2-5.3-3.9c-1.4-1.7-2.8-4.2-3.9-7
								c-0.8-2.2-1.4-3.9-1.7-5.9c-0.3-0.8-0.6-2-0.6-2.8c0-1.1,0.3-2,1.1-2.5c1.4-1.4,3.4-1.7,5.3-2.8l19.3-8.4l7.6-3.4
								c1.7-0.8,3.6-1.7,5.6-1.1c2,0.3,3.4,2.2,4.2,3.9c0.6,0.8,0.8,1.7,1.1,2.5l1.4,3.4l4.2,10.1c0.3,0.6,0.3,0.8,0.3,1.4
								c0,0.3,0,0.3,0,0.3l0,0h1.4c2,0,3.4,0.6,4.2,0.8c0.6,0.3,0.3,0.3,0-0.6l0,0c-0.3,0,1.4,1.1,0.8,0.6l0,0h-0.3l-0.3,0.3
								c-0.3,0,0-0.3,0.3,0c0,0,0-0.3,0-0.6c0-0.6,0.3-1.4,0.6-1.7c0.3-0.6,0.3-0.3,0,0c-0.3,0.3-1.1,0.6-1.7,0.8h-0.3l0,0
								c-0.6,0,5.3-0.3,2.8,0l0,0v-0.3V156c0-0.3,0,0,0.3,0c0,0,0.3,0.3,0.6,0.3h0.6l0.8,0.3c0.3,0,0.8,0.3,0.6,0c0,0,0,0,0-0.3
								c0.3-0.3,0.6-1.4,1.4-2.5c-0.8,0.8-1.7,1.4-2,2c-0.3,0.3-0.3,0.3-0.6,0.3c0,0,0,0-0.3,0h-0.6c-0.3,0-0.3,0-0.6,0l-0.3-0.3
								v0.3v0.3l0,0l0,0l0,0l0,0c0.6,0-5.3,0.3-2.8,0c0.3,0,0.3,0,0.3,0c0.3,0,0.6-0.3,0.8-0.3c0.6-0.3,0.8-0.6,0.8-0.6
								s-0.3,0.3-0.6,0.8c-0.3,0.6-0.3,1.4-0.3,1.7v0.3l-0.3,0.3l0.6-0.3l0,0l0,0c0.3,0-1.4-1.1-0.8-0.6l0,0l0,0l0,0l0.3,0.3
								c0.3,0.6,0.3,0.3-0.3,0c-0.3,0-0.8-0.3-1.4-0.3c-0.3,0,0,0-0.3,0l0,0l0,0c0-0.3,0.3-0.6,0.3-1.1c0-0.6,0-1.1,0-1.7
								c0-0.3,0-0.6-0.3-1.1l-0.3-1.1l-1.4-5c-0.6-1.4-0.8-2.8-1.4-4.5c-0.3-0.8-0.3-1.4-0.6-2l-0.6-1.7c-0.6-2.2-1.1-4.8-2-7.3
								c1.1,2.5,1.7,5,2.2,7.3l0.6,1.7c0,0.6,0.3,1.1,0.6,2l1.1,4.2c0.6,2,1.4,3.9,2,5.9c0.6,1.7,0.8,3.4,0.8,4.2c0,0.3,0,0.3,0,0.6
								l0,0c0.3,0,0.6,0.3,0.8,0.3l0.3,0.3l0,0c0,0,0,0-0.3-0.3c0,0,0-0.3-0.3-0.3l0,0l0,0c-0.3,0,1.4,1.1,0.8,0.6l0,0l0,0H320
								l-0.3,0.3c-0.3,0,0,0,0,0s0,0,0.3,0c0,0,0,0,0-0.3s0-0.6,0-0.8s0-0.6,0.3-0.6l0,0c0,0,0,0,0-0.3c0,0,0,0,0-0.3l0,0l0,0H320
								c-0.3,0-0.3,0.3-0.6,0.3h-0.3l0,0l0,0l0,0l0,0c2.8,0.3,0.8,0,1.4,0l0,0c0-0.3,0-0.8,0-0.6l0,0c0-0.6,0.6-1.7,1.4-2.8
								c0.8-1.4,2.2-2.8,3.6-4.2c1.4-1.4,2.8-2.5,4.5-3.6c1.4-0.6,3.9-2,6.2-3.6c2.5-1.7,5-3.1,6.2-4.8c2.8-0.3,5.3-0.6,7.8,0
								c3.9,0.6,8.1,2.8,10.6,6.2c1.4,1.7,2.2,3.4,2.5,5c0.3,0.8,0.3,1.7,0.3,2.2c0,0.3-0.3,0.8-0.3,1.1l3.1,3.4l0,0l-1.4-4.2
								l-0.8-2l-0.3-0.6c0-0.3-0.3-0.6,0.3,0l1.7,1.4l1.7,1.4c0,0.3,0,0.6-0.3,0.8c0,0.6-0.3,1.1-0.6,1.7s-0.6,1.1-1.1,1.7l-0.8,0.8
								l-0.3,0.6l-0.6,0.6l-1.4,1.1c-0.3,0.3-1.1,0.8-1.1,0.8l-0.3,1.4c-0.3,0.8-0.6,1.7-0.8,2.5c-0.6,1.7-1.7,3.4-2.8,5
								c-0.6,0.8-2.2,2.2-4.2,3.4c-3.6,4.8-8.7,9-13.2,10.4c-1.1,0.3-2.2,0.6-3.4,0.6h-0.3l0,0l0,0c0.8,0,0.3,0,0.6,0l0,0l0,0h-0.3
								h-0.3c-0.6,0-1.1,0-1.1,0s-0.6,0-1.1-0.3c-2-0.3-3.6-1.7-4.5-2.5c-0.6-0.6-0.6-0.8-0.6-1.1l0,0l0,0l0,0l0,0
								c-3.1,1.1-0.8,0.3-1.7,0.6l0,0v-0.3l0.3-0.8c0,0,0-0.3,0.3-0.3l0.3,0.3c0,0.3,0.3,0.3,0.3,0.6s0.6,0.3,0.3,0.3l0,0
								c0.3-0.3,0.8-0.8,1.4-1.1c0.8-0.3,1.4-0.3,1.4-0.3c0.3-1.4,1.4-2.5-0.3-0.6l0.6,0.3c0,0,0.3,0,0,0l0,0c0-0.3,0-0.3,0-0.6
								c0-0.3,0,0,0,0s0,0-0.3,0c-0.3,0-0.3,0-0.6,0H331l0,0c0,0,0,0,0,0.3c0,0.6-0.6,1.4-1.4,2.5c-0.8,1.1-2,2.2-3.1,3.1
								c-2,1.7-5.9,3.4-9.5,4.8c-3.6,1.4-7.6,2.2-11.5,3.1c-7.8,1.7-16.2,2.2-24.9,3.1c2,0.6,3.9,1.1,5.9,2c-0.6-0.3-0.8-1.7-0.6-2
								c-3.9,1.1-7.8,2-11.8,3.1c0.3-0.6,0.6-0.3-0.3,0c0,0-0.6,0.3-0.3,0.3l0,0v0.3c0,0.6-0.3,1.7-0.8,2.2c-0.6,0.8-2,1.7-3.6,2.5
								c-1.7,0.8-3.6,1.4-6.2,2.2c-10.1,2.5-20.2,5-27.7,3.6c-3.9-0.6-7-2.2-9.8-4.8c-2.8-2.5-5.3-6.2-7.3-10.1
								c-1.1-2.2-1.7-3.4-2.2-4.8c-0.6-1.4-1.1-2.8-1.4-4.2c-0.8-2.8-1.4-5.6-1.4-8.4c0-1.4,0.6-2.8,1.1-4.2
								c-0.8,1.1-1.4,2.2-1.7,3.6c-1.1,4.5,0,9.2,1.4,14.6c0.3,1.4,0.6,2.5,1.4,4.5c0.6,1.7,1.4,3.4,2.2,5c1.4,3.1,3.4,6.2,5.6,8.7
								c2.5,2.8,6.4,5.3,11.5,6.4c5.3,1.1,11.5,0.6,17.9-0.8c3.4-0.6,6.7-1.7,10.1-2.5c3.4-0.8,6.7-2,9.8-3.6c0.8-0.6,1.4-0.8,2-1.4
								c0.6-0.6,1.1-0.8,2-1.7c0.8-1.1,1.7-2.5,2-3.9s0.6-3.1,0-4.2c-0.3-1.4-1.1-2.2-2-2.8c1.7-0.6,3.1-0.8,4.8-1.4
								c-1.1,2.5,0,6.2,2.2,7.6l-2.8-0.8c9-1.1,17.6-2,25.8-3.9c5-1.4,9-2,13.2-2.8c2-0.3,3.9-0.8,6.2-1.7c2-0.6,3.9-1.7,5.9-3.4
								c-2.2,3.1-5.9,5.6-9.5,7.6c-3.9,2-8.1,3.6-12.6,5c-9,2.5-18.5,3.6-28.3,4.2h-0.6l-0.6-0.3c-3.9-3.4-5.3-9.2-3.1-13.7l0.8-1.4
								l1.4,0.8c2.5,1.7,3.9,5,3.9,7.8c0,3.1-1.1,5.9-2.8,8.1c-3.6,4.5-9,6.4-14,7.8c-10.1,2.5-20.2,5.3-30.5,4.8
								c-5-0.3-10.1-2-14.6-5.3c-4.5-3.1-7.8-7.6-10.6-12.3c-2.8-4.8-4.8-10.4-6.7-15.7c-1.7-5.3-3.4-10.9-3.1-16.5
								c0.3-2.8,0.8-5.3,2-7.8c1.4-2.5,3.1-4.5,5.3-6.2c2.2-1.7,4.8-2.8,7.6-3.1c2.8-0.3,5.6,0,8.1,1.4c2.5,1.4,4.2,3.9,4.8,6.4
								c0.8,2.8,0.6,5.6,0,8.1c-1.7,5.3-6.7,8.7-11.8,9.5c-5,0.8-10.6-0.8-14.3-4.8c-3.6-3.9-4.5-9.8-3.6-14.8
								c0.8-5.3,3.6-10.1,7.3-13.7c3.6-3.6,8.1-7,12.9-9.2c6.2-2.5,12.6-3.6,18.8-3.4s12.3,2,17.1,5.6c1.1,0.8,2.2,2,3.1,3.4
								c0.8,1.4,1.7,2.5,2.2,3.9c1.1,2.8,2,5.9,2.5,8.7c0.8,5.9,0.3,11.5-0.6,16.5c-2-2.2-3.4-6.2-5-9.8c-1.7-3.6-3.9-7.3-5.9-9.2
								c-3.9-4.2-9.5-6.2-15.4-6.7c-5.6-0.6-11.5,0.3-17.1,2c-5.6,1.7-10.9,4.8-14.3,9.8c-3.4,4.8-4.2,11.8-0.8,16.8
								c1.4,2.5,4.2,4.5,7,5.3c2.8,0.8,6.2,0.8,9,0s5.6-2.5,7.3-5.3c1.7-2.5,2.2-5.9,1.7-9c-0.6-3.1-2.5-5.9-5.6-7
								c-2.8-1.4-6.2-0.8-9,0.3c-2.8,1.4-5.3,3.4-7,5.9c-1.7,2.5-2.5,5.9-2.5,9c0,4.8,1.4,9.2,2.8,13.4c-1.1-4.2-2-8.7-1.7-12.6
								c0.3-2.8,1.1-5.9,3.1-8.1c2-2.2,4.2-3.9,7-4.8c2.8-0.8,5.9-0.8,8.4,0.8c2.5,1.4,3.9,4.5,4.2,7.3c0.3,2.8-0.6,5.9-2.2,7.8
								c-1.7,2.2-4.2,3.4-7,3.9c-2.5,0.6-5.3,0.3-7.6-0.8c-2.2-1.1-4.2-3.1-5-5.3c-1.7-4.8,0-10.1,3.4-13.4
								c3.6-3.4,8.4-5.3,12.9-5.9c4.8-0.6,9.2-0.3,13.4,1.4c4.2,1.7,7.6,5,9,9.5c-1.4-2-3.4-3.9-5.6-5s-4.8-2-7.3-2.2
								c-5-0.8-10.6-0.6-15.7,1.7c-2.5,1.1-4.8,2.8-6.4,5.3c-1.4,2.2-2.2,5.3-1.7,8.1c0.6,2.8,2.2,5.6,4.8,7c2.5,1.4,5.6,2,8.4,1.7
								c-1.1,0.6-2.2,0.8-3.1,0.8c-2.5-0.6-4.2-3.1-3.9-5.3c0.3-2.2,1.7-4.5,3.6-5.6c2-1.1,4.5-1.4,6.4-1.4c2.2,0.3,4.2,0.8,5.6,1.7
								c2.5-2.2,6.4-3.9,9.8-3.1c3.9,0.3,7,3.4,8.7,7.6c0.8,2,1.4,4.5,0.8,7c-0.6,2.5-2,4.5-3.6,6.4c-3.6,3.9-8.7,7.3-14,9
								c-0.6,0.3-1.7,0.6-2.8,0.8c-0.8,0.3-2,0.6-2.8,0.6c-2,0.3-3.9,0.6-5.6,0.3c-3.6,0-7.6-1.1-10.4-2.8c-3.1-1.7-5-3.9-5.9-6.2
								v-0.3l0,0l-0.6,0.3l-1.1,0.3c-1.4,0.3-2.2,0.3-2.8,0.3h-0.3l0,0l0,0v0.3l0.3-0.3c0-0.3,0.3,0,0.3,0.3c0,0,0.3,0,0.6,0.3
								c0.8,0.3,1.7,0.8,3.4,2l0.3,0.3l0,0l0,0l0,0l0.3-0.3c0.3-0.3,0.6-0.6,1.1-0.8l2.5-2c7-4.5,15.7-7.3,24.9-9
								c9.2-1.4,19-1.7,28.8-1.4c9.8,0.3,20.4,1.1,31.1,1.4c7,0.3,18.2-2,29.7-5.3c-28.6,3.9-54.9-3.4-80.4-0.8
								c10.4,0,20.2,1.4,29.4,3.9c-12.3-0.3-23-1.4-33.6-0.8c-10.4,0.6-21,2.5-30.2,8.7c9.5-7.3,21.8-10.6,34.4-11.8
								c-7.6,0-15.4,1.1-23,3.1c-3.6,1.1-7.3,2.5-10.9,4.5c-1.7,1.1-3.4,2-5,3.1c-1.7,1.1-3.4,2.2-4.2,3.4c0.6-1.1,2.2-2.5,3.6-3.6
								c1.4-1.4,3.1-2.2,4.5-3.4c3.4-2,6.7-3.6,10.4-4.8c7.3-2.5,14.8-3.4,22.4-3.9c7.6-0.3,15.4,0,23.2,0c7.8,0.3,16,0.3,24.4-0.6
								c-7-0.3-14-0.8-21-1.4c7,0.6,14.3,0.8,21.3,1.4c0,0-0.3,0-0.6,0c10.9,0.3,21.8,0,32.2-2c5.3-1.1,10.4-2.5,15.1-4.2
								c2.2-0.8,4.5-2,6.7-3.1c2.2-1.1,4.8-2,7-1.7c-2.2-0.6-4.5,0-6.7,0.8s-4.2,1.4-6.4,2.2c-4.2,1.4-8.7,2.2-13.2,2.8
								c-8.7,1.1-17.6,0.8-26.3,0.3c-17.4-1.1-34.7-4.2-53.2-2.5c-6.2,0.6-12.3,1.7-18.2,3.1c6.2-1.7,12-2.8,18.2-3.1
								c13.2-1.4,26.6-0.6,39.5,0.3c12.9,0.6,25.8,1.1,38.4-0.6l4.8-0.8c1.4-0.3,3.1-0.6,4.8-1.1s3.1-0.8,4.8-1.4l5-1.7
								c3.4-1.1,7-2,10.6-0.6c3.4,1.4,5.6,4.5,8.1,7c2.2,2.8,4.2,5.9,5.6,9c1.4,3.1,2.5,6.4,3.4,9.8c0.6,3.4,0.6,7-0.3,10.4
								c-0.8,3.4-2.8,6.4-5.3,8.7c-3.1,2.8-6.7,4.5-10.6,5.9c-3.9,1.1-7.6,1.7-11.5,2.2l-23,3.1c-3.9,0.6-7.6,1.1-11.5,1.4
								c-3.6,0.3-7.8,0-10.4-2.5c-2.5-2.2-2.8-6.4-1.7-9.5c1.1-3.4,3.4-6.4,6.4-8.4c2-1.7,4.2-2.8,6.4-4.2c-2.5,0-5,0-7.8,0.6
								c-3.6,2.2-6.7,5.9-8.1,10.1c-0.8,2-1.4,4.5-1.1,6.7c0.3,2.5,0.8,5,3.1,7c0.6,0.6,0.8,0.8,1.1,1.1l0.3,0.3l0.3,0.3l0,0h0.3
								c0.3,0.3,0.6,0.3,0.8,0.6c1.1,0.6,2.2,1.1,3.4,1.4c2.2,0.6,4.5,0.6,6.7,0.6c4.2-0.3,7.8-1.1,11.8-1.4l23.2-3.1
								c3.9-0.6,7.8-1.1,12-2.5c4.5-1.4,8.7-3.4,12-6.7c3.9-3.9,6.4-9.5,6.7-15.1c0.3-5.6-1.4-11.8-3.4-16.2
								c-0.6-1.1-1.1-2.5-1.7-3.6c-0.6-1.1-1.4-2.5-2.2-3.6c-1.7-2.5-3.4-4.8-5.3-7c-2-2.2-4.2-3.9-7-5c-2.8-1.1-5.9-0.8-8.7-0.3
								c-1.4,0.3-2.8,0.6-4.2,1.1l-4.2,1.4c-1.4,0.6-2.2,0.6-3.4,0.8s-2,0.6-3.1,0.6c-4.2,0.8-8.7,1.4-12.9,1.4
								C308.3,161.3,299.3,160.7,290.4,159.9z"/>
						</g>
					</g>
				</g>
			</g>
		</g>
	</g>
	<g>
		<path fill="#86604E" d="M197.4,257.6h161.3c0,0-24.1,162.1-80.6,146.4C221.5,388.4,197.4,257.6,197.4,257.6z"/>
		<g>
			<g>
				<g>
					<g opacity="0.8">
						<g opacity="0.8">
							<path fill="#EEE8E6" d="M223.4,335.4c5.9,13.7,12.3,27.4,20.7,39.5c4.2,6.2,8.7,11.5,14,16c5,4.5,10.9,7.8,16.5,9.5
								c2.5,0.6,5,1.4,7.6,1.4c-0.6,0-1.1-0.3-2-0.6c-0.6-0.3-1.1-0.3-2-0.6c-7-2.5-13.7-7-19.6-12.6c-5.9-5.6-10.9-12.3-15.4-19.3
								c-9-14.3-16.2-30-22.4-45.6c-7.8-19.3-15.4-39.2-19.9-61.9c-0.6-2.5-1.4-2.8-2-2.8c0,2.2-0.3,4.5-0.6,6.2
								c4.5,18.5,10.4,36.4,16.8,54.6C217.8,325.9,222,331.8,223.4,335.4z"/>
							<polygon fill="#E6DEDB" points="198.8,264.3 198.8,264.6 199.6,267.4 							"/>
							<path fill="#ECE6E3" d="M212.2,308.6c2.2,5.9,4.2,11.8,6.4,17.6c2,3.6,3.6,7,4.8,9.2c5.9,13.7,12.3,27.4,20.7,39.5
								c4.2,6.2,8.7,11.5,14,16c5,4.5,10.9,7.8,16.5,9.5c2.5,0.6,5,1.4,7.6,1.4c-0.6,0-1.4-0.3-2-0.6c-0.6-0.3-1.4-0.3-2-0.6
								c-9.8-3.6-18.5-10.9-25.8-19.9c-0.6-0.6-0.8-0.8-1.4-1.4c-4.5-4.5-7.3-10.1-10.6-15.4c-4.8-7.6-8.4-14.8-11.8-22.4
								c-3.4-7.6-6.4-15.4-9.8-23.8c-2.2-6.2-5.3-12.3-7.6-19.6c-0.8-2.5-1.4-5-2-7.3c-3.1-9.5-5.9-19.6-7.8-30.2
								c-0.6-2.5-1.4-2.8-2-2.8c0,1.1-0.3,2.2-0.3,3.4c1.7,8.7,3.6,17.1,5.9,25.8c2.2,7.6,4.8,14.8,7.3,22.4
								C212.5,309.7,212.2,309.1,212.2,308.6z"/>
							<path fill="#E6DEDB" d="M211.1,310c0.3,1.1,1.4,2.2,1.1,0c-2.5-7.6-5-14.8-7.3-22.4C207.2,294.8,209.2,302.1,211.1,310z"/>
							<path fill="#F4F0EE" d="M208,309.7c4.5,14.8,10.9,28.3,15.7,40.3c2.5,5.9,5,12,7.3,17.9c1.1,2,2.2,3.6,3.4,5.6
								c7.6,11.2,16.2,21.8,28.3,29.4c2.8,2,6.2,3.4,9.5,4.8c1.7,0.6,3.4,1.1,5,1.7l2.8,0.6l2.8,0.3c7.6,0.8,15.1-1.7,21-5.6
								c5.9-3.9,10.9-9,14.8-14.6c4.2-5.3,7.6-11.2,10.6-17.1c6.2-11.8,11.2-24.1,15.4-36.4c4.2-12.3,7.3-24.6,9.8-37
								c1.1-6.2,2.2-12.3,3.4-18.8c0.6-3.1,0.8-6.4,1.4-9.5c0.6-3.9,1.1-7.6,1.7-11.5l0.3-2l0.3-1.1c0-0.3,0-0.3,0-0.6h-0.6
								c-1.4,0-2.8,0-3.9,0c-2.2,0-4.8,0-7,0c-3.6,0-7.3-0.3-10.6-0.3c-7-0.3-14-0.6-21.6-1.1c-38.4-1.7-71.4,2-110.6,3.1
								c-10.6,0.3-12,3.9-9.2,3.9c32.8-0.8,64.7-0.6,96.3-0.6c16,0,31.9,0,47.9,0c3.6,0,7.3,0,11.2,0h1.4h0.8c0,0.3,0,0.6,0,0.8
								l-0.6,3.6c-1.4,7.8-2.8,16-4.5,23.8c-5.3,24.6-11.8,48.4-21.8,70.3c-5,10.9-10.9,21.3-18.5,30c-3.9,4.2-8.1,7.8-12.9,10.4
								c-4.8,2.2-10.1,3.1-15.1,2.2c-2.5,0-5-0.8-7.6-1.4c-5.6-1.7-11.5-5-16.5-9.5c-5-4.5-9.8-9.8-14-16c-8.4-12-14.8-26-20.7-39.5
								c-1.4-3.6-5.3-9.5-7.6-15.7c-6.4-18.2-12.3-36.4-16.8-54.6c-0.6,3.9-1.1,7.3-1.1,11.5C201.3,287.6,204.7,298.8,208,309.7z"/>
							<path fill="#E5DDD9" d="M208,309.7c-3.1-10.9-6.7-22.1-10.1-33.3c0,2,0,4.2,0.6,6.7c2.5,14,7,28.8,12.3,43.1
								c5.6,14.6,12.3,28.6,20.2,41.4c-2.5-5.9-5-12-7.3-17.9C219,338,212.2,324.5,208,309.7z"/>
							<path fill="#ECE6E3" d="M208,309.7c-3.1-10.4-6.4-21-9.5-31.6c0.8,3.6,1.7,7.6,2.5,11.2c5,19,11.5,37.5,18.5,55.7
								c-8.4-19.3-14.8-39.2-20.4-59.4c5.6,27.4,17.1,57.1,32.2,82.3c-2.5-5.9-4.8-12-7.3-17.9C219,338,212.2,324.5,208,309.7z"/>
							<path fill="#E3DAD6" d="M219.5,339.1c-8.7-21.8-15.1-44.2-21.3-67.2c0,1.1-0.3,2.2-0.3,3.4c0.3,0.8,0.3,2,0.6,2.8
								c3.1,10.6,6.4,21.3,9.5,31.6c4.5,14.8,10.9,28.3,15.7,40.3c2.5,5.9,5,12,7.3,17.9c1.1,1.7,2.2,3.4,3.4,5.3
								c7.6,11.5,16.5,22.4,28.8,30c1.4,0.8,3.1,2,4.8,2.5c1.7,0.8,3.1,1.7,5,2.2c1.7,0.6,3.4,1.1,5.3,1.7c2,0.6,3.6,0.8,5.6,0.8
								c7.6,0.6,15.4-2.2,21.3-6.4c5-3.9,9.2-8.7,12.9-13.7c3.6-5,7-10.4,9.8-16c5.9-10.9,10.9-22.4,15.1-33.9
								c-3.9,10.9-8.1,21.6-13.2,32.2c6.2-11.5,10.9-23.5,15.1-35.6c3.6-10.6,6.4-21,8.7-31.4c-0.3-2.2,0-5.9,1.1-11.8
								c1.7-9.2,3.6-17.9,4.5-27.4c0-0.6,0.3-0.8,0.6-1.1c0.3-0.6,0.6-1.4,0.8-3.1c-0.3,2-0.6,4.2-1.1,6.2c-0.3,1.7-0.6,3.1-0.6,4.8
								c-0.3,3.1-0.6,5.9-0.8,8.4c0.6-3.1,0.8-6.4,1.4-9.5c0.6-3.6,1.1-7.6,1.7-11.2c0.3-1.1,0.3-2.2,0.6-3.1V257
								c0-0.3,0-0.3-0.3-0.3h-0.3h-1.7c-2.2,0-4.2,0-6.2,0c-1.4,0-3.1,0-4.5,0c-1.4,0-2.8,0-4.2,0c-5.6-0.3-10.9-0.6-16.8-0.8h-3.6
								c-6.2,0-12.3,0.6-18.5,0.8c2.5,0,5,0,7.8,0c-3.9,0.3-9.2,0.3-13.2,0.3c1.7,0,3.6-0.3,5.3-0.3c-6.2,0-11.8,0-18.2-0.3
								c7.8,0,15.7-0.3,22.4-0.6c-14.3,0-27.4,0.3-41.4-0.3c0.3,0,0.8,0,1.1,0c-19.9,0.8-39.8,2.2-61.6,3.1
								c-10.6,0.3-12,3.9-9.2,3.9c45.9-1.1,89.6-0.6,134.4-0.6c-5-0.6-10.1-0.8-15.1-1.4c-2.2,0-4.5-0.3-6.4-0.6
								c2.2,0.3,4.2,0.3,6.4,0.6c5.9,0.3,12.6,0.3,19.3,0.6c1.1,0.3,5,0.3,6.7-0.3c2.2,0,4.5,0.3,7,0.3c1.7,0,3.6,0,5.6,0h0.6h0.3
								v0.3l-0.3,1.1c-0.3,0.8-0.3,1.7-0.6,2.2c-0.3,1.1-0.6,2.2-0.6,3.4c-0.3,1.1-0.6,2.2-0.8,3.4c0,0.6-0.6,1.4-0.8,2.2
								c-1.1,5.6-2,10.9-3.4,16.5c-3.4,15.4-7,30.5-12,45.1c-4.8,14.6-10.6,28.6-18.2,41.2c3.9-5.9,7.3-12,10.4-17.6
								c2.2-3.9,4.8-10.1,7.3-17.4c2.5-7.3,4.8-15.4,6.7-23.2c0.8-3.9,2.2-5.9,3.1-9.8c-1.7,13.7-8.1,30.5-13.7,45.1
								c-3.9,9.8-9.2,21-16.8,31.4c-3.6,5-7.8,10.1-12.9,14c-4.8,3.9-10.4,6.7-16,7.6c-4.8,0.8-9.2,0-13.2-2c-2-0.8-3.9-1.7-5.6-2.8
								c-1.7-0.8-3.4-2.2-4.8-3.4c2.5,1.1,7,3.6,9.2,4.5c5.3,2.2,10.9,3.1,16.5,2.2c5.6-1.1,10.6-3.9,14.8-7.6
								c8.7-7.6,14.8-17.6,20.2-28c-5.9,10.4-12.3,20.7-21.3,28c-4.5,3.6-9.8,6.4-15.1,7c-2.8,0.3-5.6,0.3-8.1-0.6
								c-1.4-0.3-2.8-0.8-3.9-1.4c-1.4-0.6-2.8-0.8-3.9-1.7c3.1,1.4,6.2,2.5,9.5,3.1c3.1,0.6,6.4,0.3,9.5-0.3
								c6.2-1.4,11.8-5.6,15.7-10.4c-0.8,0.6-1.7,1.4-2.5,2c-3.4,2.8-7,5-10.9,6.4s-8.1,1.7-12,0.8c-2.5,0-5-0.8-7.6-1.4
								c-5.6-1.7-11.5-5-16.5-9.5c-5-4.5-9.8-9.8-14-16c-8.4-12-14.8-26-20.7-39.5c-0.8-2.2-2.8-5.6-4.8-9.2c3.4,9,7,17.9,11.2,26.6
								c-1.4-3.6-2.8-7-3.9-10.4c3.9,8.1,6.4,15.1,10.9,23c-2.8-4.2-5-8.4-7.3-12.6c2.2,5.3,5.3,10.6,8.4,16
								c-7-9.8-10.1-20.4-16-30.8c1.1,2.2,2,4.8,3.1,7c-1.1-2.2-2-4.8-3.1-7l0,0c-3.1-7-6.2-14.3-9-20.7c4.5,12.6,8.1,24.4,14,36.1
								c1.1,2,2,3.9,3.1,5.9c-1.1-2-2.2-3.9-3.1-5.9c-7-13.4-12.3-27.7-16.8-42c-4.5-14.6-8.1-29.1-11.2-43.7l-0.6-2.8
								c0,0.8-0.3,1.7-0.3,2.5C203.8,291.8,210.6,316.1,219.5,339.1z"/>
						</g>
					</g>
				</g>
			</g>
		</g>
	</g>
	<g>
		<path fill="#FFFFFF" d="M320,429.2h-82.9c-4.5,0-8.4-3.6-8.4-8.4v-8.7c0-4.8,3.9-8.4,8.4-8.4h83.2c4.5,0,8.4,3.6,8.4,8.4v8.7
			C328.4,425.6,324.8,429.2,320,429.2z"/>
		<g>
			<g>
				<g>
					<g opacity="0.8">
						<g opacity="0.8">
							<path fill="#FFFFFF" d="M317.8,406.8c-13.7,0.3-28.3-1.7-40,0.3c-1.4,0.3-2.5,0.6-3.9,0.6l2,0.3c7.6,0.6,15.7,1.1,23.5,1.1
								c3.9,0,8.1,0.3,12,0c2,0,3.9,0,5.9,0h2.8c0.3,0,0.8,0,1.1,0.3c0.8,0.3,1.7,0.8,2.2,1.7c0,0.3,0.3,0.6,0.3,0.8
								c0,0.3,0,0.3,0,0.6v0.8l0.3,3.6l0.3,3.6c0,0.8,0,1.4-0.3,2.2c-0.6,1.4-2,2.5-3.4,2.8c-0.6,0-0.8,0.8-0.8,1.4
								c0.8,0.6,1.7,1.1,2.8,1.4c2-0.8,3.4-2.5,4.2-4.2c0.3-0.8,0.6-2,0.6-2.8L327,418c0-2.2-0.3-4.2-0.3-6.4
								c-0.3-1.7-1.1-3.4-2.5-4.8c-0.8-0.8-2.2-1.1-3.4-0.8C320.3,406.6,318.6,406.8,317.8,406.8z"/>
							<path fill="#FFFFFF" d="M322.6,428.4L322.6,428.4c0.6,0,0.8-0.3,1.4-0.6C323.4,428.1,323.1,428.4,322.6,428.4z"/>
							<path fill="#FFFFFF" d="M326.5,410.8c-0.8-2.2-2.5-3.9-4.5-4.5c-0.8,0-1.4,0.3-2,0.3c-0.8,0.3-1.4,0.3-2,0.3
								c-13.7,0.3-28.3-1.7-40,0.3c-1.4,0.3-2.5,0.6-3.9,0.6l2.2,0.3c5.3,0.6,10.6,0.8,16.2,1.1c0.3,0,0.6,0,0.8,0
								c3.1-0.6,5.9,0.3,9,0.3c4.2-0.3,8.1-0.3,12-0.3c2,0,3.9,0,5.9,0c0.8,0,1.7,0.3,2.5,0.6c0.6,0.3,1.1,0.8,1.7,1.4
								c0.3,0.3,0.6,0.8,0.6,1.1c0,0.8,0,1.7,0,2.5c0,1.1,0,2.5,0,3.6l0.3,3.1c0,0.6-0.3,1.4-0.6,2c-0.6,1.4-2,2.2-3.4,2.5
								c-0.6,0-0.8,0.8-0.8,1.4c0.3,0.3,0.8,0.6,1.4,0.8c3.6-0.6,6.4-3.9,6.2-7.6l-0.3-5.3v-2.8c0-0.8-0.3-1.4-0.6-2.2
								C326.8,410.2,326.5,410.5,326.5,410.8z"/>
							<path fill="#FFFFFF" d="M327.9,409.9c-0.3-0.6-0.8-0.8-1.1,0.3c0.3,0.8,0.3,1.4,0.6,2.2v2.8l0.3,5.3c0-1.7,0-3.4,0.3-5.3
								C327.9,413.3,328.2,411.6,327.9,409.9z"/>
							<path fill="#FFFFFF" d="M331,409.9c-0.8-4.8-5.3-8.1-9.5-8.4c-1.1,0-2,0-2.8,0s-1.7,0-2.2,0c-1.7,0-3.1,0-4.5-0.3
								c-3.1-0.3-6.2-1.1-8.7-2c-0.8,0-2,0-2.8,0c-12,0.3-23.8,0.6-35.8,0.6c-5.9,0-11.8,0-17.9,0l-9-0.3h-0.6h-0.8
								c-0.6,0-1.1,0-1.7,0.3c-1.1,0.3-2.2,0.6-3.4,1.1c-2,0.8-3.9,2.5-5,4.2c-1.4,2-2,4.2-2.2,6.4v0.8v0.6v1.1v2.2
								c0,1.4,0.3,2.8,0.3,4.2v1.4c0,0.6,0.3,1.1,0.3,1.7c0.3,1.1,0.6,2,1.1,3.1c2,3.6,6.2,6.2,10.1,6.2c1.1,0,1.7,0,2.5-0.3
								l2.2-0.3c1.4,0,3.1-0.3,4.5-0.3c7.3-0.3,12.9,0.8,19.9,1.4c17.6,1.7,32.8-2,50.7-3.1c4.8-0.3,5.3-3.9,4.2-3.9
								c-15.1,0.8-29.7,0.6-44.2,0.6c-7.3,0-14.6,0-21.8,0c-3.6,0-7.3,0-10.9,0c-2,0-3.6,0-5.6,0c-1.4,0-2.8-0.3-3.9-1.1
								c-0.8-0.6-1.7-1.4-2-2.2c-0.3-0.6-0.3-0.8-0.6-1.4c0-0.6,0-0.8,0-1.7c0-2.8,0-5.9,0-8.4c0-2.2,1.4-4.2,3.4-5
								c0.8-0.6,2-0.8,3.1-0.6h4.2c11.2,0.3,21.8,0.8,32.8,1.7c1.4-0.3,2.8-0.6,3.9-0.6c11.8-2.2,26,0,40-0.3c0.8,0,2.2-0.3,3.1-0.6
								c1.1-0.3,2.5,0,3.4,0.8c1.4,1.1,2.5,2.8,2.5,4.8c0,2.2,0.3,4.2,0.3,6.4l0.3,3.4c0,0.8-0.3,2-0.6,2.8c-0.8,2-2.2,3.4-4.2,4.2
								c2,0.6,4.5,0.6,6.7-0.8c1.1-1.7,1.7-3.4,1.7-5c0-2,0-3.1,0-4.5s0-2.5,0-3.9v-2C331.2,411.6,331,410.8,331,409.9z"/>
							<path fill="#FFFFFF" d="M331,409.9c0.3,0.8,0.3,1.7,0.3,2.5v2c0,1.4,0,2.5,0,3.9c0,1.4,0.3,2.5,0,4.5c-0.3,1.7-0.8,3.6-1.7,5
								c1.1-0.8,2.2-1.7,2.8-3.4c0.6-1.1,0.6-2.5,0.8-3.6c0-0.8,0.3-1.7,0.3-2.5c0.3-1.7,0.3-3.4,0.3-5c0-0.6,0-2.2-0.3-3.6
								s-0.8-2.8-1.4-3.9c-1.4-2.5-3.6-4.5-6.2-5.6c-1.4-0.6-2.8-1.1-4.2-1.1c-0.6,0-1.4,0-2,0h-1.4l-5.3,0.3
								c-3.4,0.3-7,0.3-10.4,0.3c2.5,0.8,5.6,1.4,8.7,2c1.4,0.3,3.1,0.3,4.5,0.3c0.8,0,1.7,0,2.2,0c0.8,0,1.7,0,2.8,0
								C325.6,401.8,330.1,405.2,331,409.9z"/>
							<path fill="#FFFFFF" d="M331,409.9c0.3,0.8,0.3,1.7,0.3,2.5v2c0,1.1,0,2.5,0,3.6c0,0.6,0,1.1,0,2c0,0.6,0,1.1,0,2.2
								c0,1.7-0.6,3.4-1.4,5c0.6-0.8,1.1-2,1.7-3.4c0.3-0.6,0.3-1.1,0.3-1.7v-0.8v-0.6v-6.7c0-0.6,0-0.8,0-2c0-0.8,0-1.7-0.3-2.5
								c-0.3-1.7-1.1-3.1-2-4.5c-2-2.5-4.8-4.5-8.1-5c-2-0.3-2.8-0.3-3.9-0.3c-1.1,0-2.2-0.3-3.4-0.3h3.6h1.7c0.8,0,1.7,0,2.5,0.3
								c3.6,0.8,6.7,3.1,8.7,6.2c0.8,1.7,1.4,3.4,1.7,5v1.4v0.8v1.7v3.6c0,1.4,0,2,0,4.2c0.3-0.6,0.3-1.1,0.3-1.7V420
								c0-0.8,0.3-1.7,0.3-2.5c0-1.7,0.3-3.4,0.3-5c0.3-5.6-3.4-10.9-8.7-12.9c-1.4-0.6-2.8-0.8-3.9-0.8h-1.1h-0.6h-1.4l-5,0.3
								c-3.4,0-6.7,0.3-10.1,0.3c2.5,0.8,5.6,1.4,8.7,2c1.4,0.3,3.1,0.3,4.5,0.3c0.8,0,1.7,0,2.2,0c0.8,0,1.7,0,2.8,0
								C325.6,401.8,330.1,405.2,331,409.9z"/>
							<path fill="#FFFFFF" d="M317,401.8h2h1.1h1.1c1.7,0.3,3.1,0.8,4.5,1.7c2.8,2,4.5,5,4.5,8.1c0,2.8,0,5.3,0,8.1
								c0,0.6,0,1.4,0,2.2c0,0.8-0.3,1.7-0.6,2.5c-0.6,1.7-1.4,3.1-2.8,4.2c0.6,0,1.4-0.3,2-0.6c0.6-0.6,0.8-0.8,1.1-1.4
								c0.8-1.7,1.1-3.4,1.4-5c0-0.8,0-1.4,0-2.2c0-0.6,0-1.4,0-2c0-1.1,0-2.5,0-3.6v-2c0-0.8,0-1.7-0.3-2.5
								c-0.8-4.8-5.3-8.1-9.5-8.4c-1.1,0-2,0-2.8,0s-1.7,0-2.2,0c-1.7,0-3.1,0-4.5-0.3c-3.1-0.3-6.2-1.1-8.7-2c-0.8,0-2,0-2.8,0
								c-12.3,0.3-24.4,0.6-36.7,0.6c-5.3,0.6-10.9,0.8-16.5,0.8c-2.8,0-5.6,0-8.4-0.3h-2.2c-1.1,0-2,0-3.1,0.3
								c-2,0.6-3.9,1.4-5.3,2.8c1.4-1.4,3.1-2.2,4.8-2.8c0.8-0.3,2-0.6,2.8-0.6h0.8h0.6h1.1c2.5,0,5.3,0,7.8-0.3l-8.7-0.3
								c-0.6,0-2,0-3.1,0.3c-1.1,0.3-2.2,0.6-3.1,0.8c-2,0.8-3.9,2.2-5,4.2c-1.1,1.7-2,3.4-2.2,5.3c0,0.6-0.3,0.8-0.3,1.4v0.8v0.6v2
								c0,1.1,0,2.5,0.3,3.6v2v0.8c0,0.6,0,0.8,0.3,1.4c1.1,1.4,2,3.4,4.5,5.9c2,2,4.5,3.1,7.3,3.1c2.5,0,4.2-0.3,6.4-0.6
								c0.6,0,0.6,0.6,1.7,0.8c-1.7,0-3.1,0-4.5,0.3c-0.6,0-1.4,0.3-2,0.3c-0.3,0-0.6,0.3-0.8,0.3c-0.3,0-0.8,0-1.1,0.3
								c0.6,0,1.1,0,1.4,0h1.1l2.2-0.3c1.4,0,3.1-0.3,4.5-0.3c5.6-0.3,10.4,0.3,15.7,0.8h1.7c2.8,0,5.6-0.6,8.4-0.8
								c-1.1,0-2.2,0-3.6,0c2-0.3,4.2-0.3,5.9-0.3c-0.8,0-1.7,0.3-2.5,0.3c2.8,0,5.3,0,8.4,0.3c-3.6,0-7.3,0.3-10.4,0.6
								c6.4,0,12.6-0.3,19,0.3H287c9.2-0.8,18.2-2.2,28.3-3.1c4.8-0.3,5.6-3.9,4.2-3.9c-21,1.1-41.2,0.6-61.6,0.6
								c2.2,0.6,4.8,0.8,7,1.4c1.1,0,2,0.3,2.8,0.6c-0.8-0.3-2-0.3-2.8-0.6c-2.8-0.3-5.9-0.3-8.7-0.6c-0.6-0.3-2.2-0.3-3.1,0.3
								c-4.2-0.6-9,0-12.9-0.6c-0.3,0-0.6-0.3-1.1-0.6h-2c-0.6,0-0.8,0-1.4,0c-0.8,0-1.7-0.6-2.5-1.1c-1.1-0.8-2-2-2.2-3.1
								c-0.3-0.6-0.3-1.1-0.3-2v-2.8c0-1.7,0-3.6,0-5.3c0-1.4,0.3-2.8,1.1-3.9c0.8-1.1,2-2,3.1-2.2c0.6-0.3,1.1-0.3,2-0.3h2.5
								c3.4,0,7,0.3,10.4,0.3c-3.4-0.6-6.4-0.8-9.5-1.4c-2-0.3-5.3-1.1-7.8,1.1c-1.4,1.1-2.2,2.5-2.5,4.2c-0.3,0.8-0.3,1.7,0,2.5
								c0,0.8,0,2,0,2.8c0.3,1.7-0.6,2.8-0.6,4.8c-0.6-1.7-0.8-3.4-0.8-5s-0.3-3.6,0.3-5.6c0.6-2,2-3.4,3.6-4.5
								c1.7-1.1,3.6-1.4,5.3-1.4c9.5-0.3,23,1.4,33.3,0.3c4.2-0.6,8.4,0.3,11.8,0.8c-1.4,0.3-3.6,0.3-4.8,0.3
								c-10.6-0.3-21.3-0.6-32.2-0.3c11.2,0.8,21.8,0.6,33,1.7c-6.4,0-12.9-1.1-19,0c0.6,0.3,1.1,0.3,1.7,0.6
								c4.2,0.3,8.7,0.6,12.9,0.8c1.4-0.3,2.5-0.6,3.9-0.6c11.8-2.2,26,0,40-0.3c0.6,0,1.4,0,2-0.3c0.6-0.3,1.1-0.3,2-0.3
								c-0.8-0.3-1.4-0.3-2.8-0.3h-3.4c-2.2,0-4.5-0.3-6.7-0.3c1.7,0.3,3.4,0.6,5,1.1c-4.2,0-7.6-0.8-11.8-0.8
								c2.2-0.3,4.5-0.3,6.7-0.3c-2.8-0.3-5.6-0.6-8.4-0.6c5.6-0.8,10.4,1.1,16,0c-1.1,0-2.2,0-3.4,0h3.6l0,0c1.7,0,3.6-0.3,5,0
								c1.7,0.3,3.1,1.1,4.2,2c-1.1-1.1-2.2-2-3.6-2.5c-1.4-0.6-2.8-0.6-4.5-0.8c-2.8-0.3-5.9-0.6-8.7-0.6h-3.1c1.1,0,2,0,3.1,0
								c3.4,0,7,0,10.4,0c3.9,0,7.3,2.5,8.4,6.2c0.6,1.7,0.3,3.6,0.3,5.3l-0.3,5c0.3,3.4-1.7,7-4.8,8.4c-0.3,0.3-0.8,0.3-1.1,0.6
								c0.6,0.3,0.8,0.3,1.4,0.3c2.8-1.4,4.8-4.2,5-7.3c0-2.8,0.3-5.9,0.3-8.7c0.3-3.1-0.8-6.7-3.6-8.7c-1.4-1.1-2.8-2-4.5-2.2
								c-0.6,0-0.8,0-1.4-0.3h-1.1L317,401.8z"/>
						</g>
					</g>
				</g>
			</g>
		</g>
	</g>
	<g>
		<g>
			<g>
				<g>
					<g opacity="0.8">
						<g opacity="0.8">
							<path fill="#FFFFFF" d="M306,134.1c12-0.3,24.1,0,36.1,0.3c6.2,0,12,0.3,18.2,0.3c7,0,14,0.3,20.7,0.3c2,0,4.2,0,6.2,0.3h0.8
								h0.3v0.3v1.7l-0.3,3.1c-0.3,4.2-0.6,8.1-0.8,12c-0.6,5.9-0.8,11.5-1.4,17.1c-0.8,11.2-1.4,22.1-1.4,32.2
								c0,4.5-0.3,9.2-0.3,14c0.3-2.2,0.8-4.8,1.1-7c2.2-13.2,4.2-26.6,5.9-40.3c0.3-3.4,0.8-7,1.1-10.4l0.6-5.3l0.8-9.5l0.6-10.1
								l0.3-2.5c0-0.3,0-0.8,0-1.4h-1.1h-5c-3.4,0-6.7-0.3-10.1-0.3h-8.4c-28-0.3-56-0.3-82.9,0c-33.6,1.4-67.8,4.2-105,3.9
								c-4.2,0-4.8,1.7-5,2.5c3.6,1.1,6.7,2.2,9.8,3.6c30.2-0.8,60.5-2.5,91.6-2.5C288.7,136.9,299.9,134.1,306,134.1z"/>
							<path fill="#FFFFFF" d="M185.6,139.2l0.6,0.3c1.4,0,3.1,0,4.5-0.3C189,139.2,187.3,139.2,185.6,139.2z"/>
							<path fill="#FFFFFF" d="M259.8,136.6c10.1-0.6,20.2-0.6,30-0.6c6.4-0.8,12.6-2,16.5-2c12-0.3,24.1,0,36.1,0.3
								c6.2,0,12,0.3,18.2,0.3c7,0,14,0.3,20.7,0.3c2,0,4.2,0,6.2,0.3h0.8h0.3v0.3v1.7l-0.3,3.1c-0.3,4.2-0.6,8.1-0.8,12
								c-0.6,5.9-0.8,11.5-1.4,17.1c-0.8,11.2-1.4,22.1-1.4,32.2c0,4.5-0.3,9.2-0.3,13.7c0.3-2.5,0.8-5,1.1-7.6
								c1.4-9.2,2.8-18.2,4.2-27.7c0.6-4.8,1.1-9.5,2-14.3l0.8-7.3l0.3-3.6l0.6-4.5c0-2,0-3.9,0-5.6c0-5,0-9.8,0.3-14.6v-0.6
								c0,0-0.3,0-0.6,0h-0.8h-1.7H387c-2.2,0-4.8,0-7-0.3l-7.3-0.3l-4.2-0.3c-2.5-0.3-5-0.3-7.6-0.3c-29.4,0.8-53.8-0.3-83.2,0.6
								c-10.4,0.3-21.6,2.2-33.9,2.2c-4.2,0-8.4,0-12.3-0.3c-16.2,0.8-32.8,1.4-50.1,1.1c-4.2,0-4.8,1.7-5,2.5c2,0.6,3.6,1.1,5.3,2
								c14,0.3,28,0.3,42.3,0.3c12.3-0.6,24.9-0.8,37.5-1.1C261.2,136.9,260.7,136.6,259.8,136.6z"/>
							<path fill="#FFFFFF" d="M261,139.2c1.7,0,3.9-1.1,0.8-2.2c-12.6,0.3-25.2,0.6-37.5,1.1C236.3,138.3,248.4,138.3,261,139.2z"
								/>
							<path fill="#FFFFFF" d="M259,145.3c24.6,0.8,48.2-1.4,68.3,0c10.6,0.8,21,2,30.2,3.6c3.4,0,6.7,0,10.1,0h3.9
								c0.6,0,0.3,0,0.6,0h0.3h0.3h1.4c0,0.3,0,0.8,0,1.4v0.3v0.6l-0.3,3.4c-0.6,10.4-1.4,20.7-2.5,30.8c-2,20.7-4.2,41.2-7,61.6
								c-3.1,20.4-6.7,40.3-12,59.9c-5.3,19.3-12.3,38.6-22.1,55.2c-9.8,16.5-21.8,30.5-38.1,36.1l-1.4,0.6L289,399l-3.1,0.8
								c-2.2,0.6-4.2,0.6-6.4,0.8c-4.2,0.3-8.7,0-12.9-0.8c-8.7-2-16.8-7-24.1-14c-8.4-8.4-13.7-18.2-18.2-28
								c-4.5-10.1-7.6-20.4-10.9-31.9c-7.8-28.8-14.3-56-20.4-83.7c-5.9-27.7-11.5-56-14.3-87.1c-1.4-16.5-8.4-18.8-8.4-14.6
								c1.7,26.3,4.2,52.1,7.3,77.6c3.4,25.5,7.3,50.7,13.2,75.6s13.4,49.8,25.8,73.1c6.4,11.5,14,22.7,24.6,31.9
								c5.3,4.5,11.5,8.4,17.9,10.9c6.7,2.5,14,3.6,21,3.4c10.9-0.3,21.6-3.6,30.8-9.5c9-5.6,16.5-13.2,22.7-21.6
								c12-16.5,19.6-35.3,26-53.8c6.2-18.5,10.6-37.2,14.8-56c3.9-18.8,7.3-37.5,10.4-56.3c0-4.8,0.3-9.2,0.3-14
								c0-10.4,0.6-21,1.4-32.2c0.6-5.6,0.8-11.2,1.4-17.1c0.3-3.9,0.6-8.1,0.8-12l0.3-3.1v-1.7v-0.3c0-0.3-0.3,0-0.3,0h-0.8
								c-2,0-4.2,0-6.2-0.3c-6.7,0-13.7-0.3-20.7-0.3c-5.9,0-12-0.3-18.2-0.3c-12-0.3-24.4-0.3-36.1-0.3c-6.2,0-17.4,2.8-27.7,2.8
								c-31.1,0-61.3,1.7-91.6,2.5c6.2,2.5,10.9,5.3,17.4,7C222.6,145.6,241.1,144.5,259,145.3z"/>
							<path fill="#FFFFFF" d="M259,145.3c-17.9-0.8-36.4,0-54.9,1.1c3.1,0.8,6.4,1.7,10.4,2.2c45.1,3.9,96,1.1,143.1,0.6
								c-9.2-1.7-19.6-3.1-30.2-3.6C307.2,143.9,283.6,146.2,259,145.3z"/>
							<path fill="#FFFFFF" d="M259,145.3c-17.1-0.8-34.7,0-52.4,1.1c5.9,0.3,12,0.6,18.2,0.8c31.1,0.6,62.2,0,92.7,1.7
								c-33,0-65.8-0.3-99.1,0.3c44.2,3.4,93.5,0.6,139.2,0c-9.2-1.7-19.6-3.1-30.2-3.6C307.2,143.9,283.6,146.2,259,145.3z"/>
							<path fill="#FFFFFF" d="M309.1,144.5c-37.2-0.8-74.5-1.4-112.3-0.3c1.7,0.6,3.1,1.4,5,2c1.7,0,3.1,0.3,4.8,0.3
								c17.6-0.8,35.3-1.7,52.4-1.1c24.6,0.8,48.2-1.4,68.3,0c10.6,0.8,21,2,30.2,3.6c3.1,0,6.4,0,9.5,0h3.9h0.8h0.3h0.3h1.4
								c0.3,0.3,0,0.8,0.3,1.4v0.3v0.6l-0.3,3.4c-0.6,10.6-1.7,21-2.5,31.6c-2,21-4.2,42-7.3,63c-1.7,18.2-4.8,37-9.5,55.7
								c-4.8,18.5-11.2,37-20.4,52.9c8.1-15.4,13.4-32.5,17.9-49.8c-5.3,19-12,37.5-21.6,53.8c-8.4,14-17.9,26.3-30.8,33.3
								c-0.6,0.6-1.1,1.4-2,2.2s-1.7,1.7-2.8,2.2c-1.1,0.6-2.5,1.4-4.2,2c-1.7,0.6-3.6,1.1-5.6,1.4c-13.4,2.5-26.6-1.7-38.4-10.1
								c-1.4-1.4-0.3-2-3.1-4.8c7.6,7.8,16.2,11.5,23.5,12c-8.7-2-17.1-6.7-24.4-13.7c-6.4-6.4-11.5-14-15.4-21.6
								c-3.9-7.6-7-15.7-9.8-24.1c-0.8-1.7-1.4-3.4-2.2-5.3c-3.6-8.7-7.3-17.9-10.6-26.9c1.1,3.9,2,7.6,3.4,11.8
								c-2.8-5.9-4.8-13.7-6.2-19.6c1.1,2.8,2,5.3,3.1,8.1c-2.5-9.2-4.5-17.9-6.4-28c2.5,12,6.2,24.1,9.8,33.9
								c-6.4-21.6-11.2-41.7-13.7-63.8c0.3,0.6,0.3,1.1,0.6,1.7c-7-30.8-13.2-61.9-16.5-96.3c-1.4-16.5-8.4-18.8-8.4-14.6
								c2.5,36.7,6.2,72.5,11.8,107.8c2.8,17.6,6.2,35.3,10.6,52.6c4.5,17.4,9.8,34.7,17.1,51.2c-2.5-7.8-4.5-16-6.2-24.1
								c-0.8-3.4-1.7-6.7-2-10.1c0.6,3.4,1.4,6.7,2,10.1c2.5,9.5,6.4,19.3,10.4,29.1c0.3,1.1,1.1,2.8,2,4.8c1.1,2,2.5,3.6,3.6,4.5
								c6.2,13.2,17.4,26.9,29.7,36.1c0.8,0.6,1.7,1.7,3.1,2.8c8.7,4.8,18.8,7,28.6,6.4l5-0.3c1.7-0.3,3.4-0.6,5-0.8l2.5-0.6
								l2.5-0.8c1.7-0.6,3.4-1.1,4.8-1.7c6.2-2.5,12-6.2,17.1-10.1c10.4-8.4,17.9-19,24.1-30c6.2-10.9,10.9-22.4,15.1-33.9
								c4.2-11.5,7.6-23.2,10.6-35c-3.4,11.2-7.3,21.8-11.8,31.1c-3.1,6.4-6.7,16.5-12,27.7c-5,11.2-12,23.2-21,32.8
								c-4.5,4.8-8.4,6.2-13.7,9.5c8.7-7.3,16.8-16.5,24.1-27.2c7.3-10.6,13.2-22.7,17.4-34.4c5.6-15.7,11.5-34.7,16-54.6
								c4.5-19.9,7.6-40.3,8.7-58.5c0.8-14.8,3.6-28.6,6.4-40.3c0.3,4.5-0.6,12.6-1.1,16.8c-4.8,37-10.1,73.9-19.3,110.3
								c11.8-37.2,16-75,22.4-113.1c-2.2,22.7-7.3,44.5-9,66.1c0.6-1.7,1.1-3.4,1.7-5.3c2.8-14.8,5.6-29.7,7.8-44.5
								c0-4.5,0.3-9.2,0.3-13.7c0-10.4,0.6-21,1.4-32.2c0.6-5.6,0.8-11.2,1.4-17.1c0.3-3.9,0.6-8.1,0.8-12l0.3-3.1v-1.7v-0.3
								c0-0.3-0.3,0-0.3,0h-0.8c-2,0-4.2,0-6.2-0.3c-6.7,0-13.7-0.3-20.7-0.3c-5.9,0-12-0.3-18.2-0.3c-12-0.3-24.4-0.3-36.1-0.3
								c-3.9,0-9.8,1.1-16.5,2c15.4,0.3,30.8,0.8,46.2,0.8c-6.2-0.6-12-1.1-17.6-2c14.6-0.3,26.3,1.7,40.9,1.4
								c-7.8,0.3-15.7,0.6-23.2,0.6c9.2,0.6,19,0.8,29.1,1.4c-19,1.4-36.4-2.2-55.7,0c3.9,0,8.1,0,12,0.3c-4.2,0-8.4,0-12.3-0.3h0.3
								c-12.3,0-24.9,0.8-36.1,1.7c21.6,0,40.6,1.7,61.6,1.7c3.4,0,7-0.3,10.4-0.3c-3.6,0-7,0.3-10.4,0.3
								c-48.2,0.8-96.3-1.4-144.2-2.2c-1.4,0-3.1,0-4.5,0.3c1.4,0.6,2.8,1.1,3.9,1.7C229.9,141.7,270.2,142.8,309.1,144.5z"/>
						</g>
					</g>
				</g>
			</g>
		</g>
	</g>
	<g>
		<g>
			<g>
				<g>
					<g opacity="0.8">
						<g opacity="0.8">
							<path fill="#FFFFFF" d="M387.8,214.5c0,0.8-0.6,2-1.1,3.4c-0.6,1.4-1.4,2.8-2,4.5v0.3c0,0,0,0,0.3,0h0.3c0.3,0,0.6,0,0.8-0.3
								c0.6,0,1.1-0.3,2-0.8c1.4-0.6,2.8-1.7,3.9-3.4c0.6-0.6,0.8-1.4,1.1-2l-0.3-0.3c-0.8-1.1-0.3-2.2,0.6-3.1c0.6-0.6,0.3,0,0-0.3
								c-0.3,0-0.3,0-0.6-0.3l0,0v-0.6v-1.4c0-1.7,0-3.4,0-5c0-3.4,0.3-7,1.7-10.4c0.3-0.8-1.4-1.4-2.2-1.7
								c-1.4,0.3-2.5,0.6-3.9,0.8c-0.3,2.8-0.6,5.9-0.8,9c-0.3,1.4-0.3,3.1-0.6,4.5c-0.3,1.4-0.6,3.1-0.8,3.9
								c-0.3,0.6,0.3,1.4,0.8,2C387.2,214.2,387.8,214.2,387.8,214.5z"/>
							<polygon fill="#FFFFFF" points="388.1,194.3 387.8,194.3 387.8,195.4 							"/>
							<path fill="#FFFFFF" d="M386.7,208.9c0,0.6,0,1.1,0,1.4c0,0.3,0,0.8-0.3,1.1c0,0.6-0.3,1.1-0.6,1.7c0.6,0.8,1.7,0.8,1.7,1.4
								c0,0.8-0.6,2-1.1,3.4c-0.6,1.4-1.4,2.8-2,4.5v0.3c0,0,0,0,0.3,0h0.3c0.3,0,0.6,0,0.8-0.3c0.6,0,1.1-0.3,2-0.8
								c1.4-0.6,2.8-1.7,3.9-3.4c0.6-0.6,0.8-1.4,1.1-2l-0.3-0.3c-0.6-0.8-0.3-1.7,0-2.2l-0.3,0.6c-2,2,0.3-0.6,0.6-0.8
								c-0.6,0.3-0.3,0-0.3-0.3c0.3-0.3,0.3-0.3,0-0.6c0,0,0,0-0.3,0c0,0-0.3,0-0.3-0.3c0-0.6-0.3-1.1-0.3-1.7
								c-0.3-1.1-0.3-2.5,0-3.6c0.3-0.8,0.6-1.4,0.8-2.2c0-3.1,0.6-6.4,1.7-9.5c0.3-0.8-1.4-1.4-2.2-1.7c-0.6,0.3-1.4,0.3-2,0.6
								c-1.1,2.5-1.7,5-2.5,7.8c-0.3,2.5-0.6,4.8-0.8,7.3C386.4,209.2,386.7,208.9,386.7,208.9z"/>
							<path fill="#FFFFFF" d="M384.2,208.3c0,0.3,1.1,1.1,2.2,0.8c0.6-2.5,0.6-4.8,0.8-7.3C386.4,204.1,385.6,206.4,384.2,208.3z"
								/>
							<path fill="#FFFFFF" d="M378.3,206.4c-0.8,1.7-1.7,5.9-2.2,8.7c-0.6,3.1-1.1,5.9-2.8,9c-1.4,3.1-3.6,7-6.4,11.8
								c-0.3,1.1-0.3,2-0.6,3.1l-0.3,2.2c0,0.6-0.6,2,0.8,1.1l5-1.7c3.1-1.1,6.4-2,9.5-3.1c3.1-1.1,6.4-2.2,9.5-3.4
								c3.1-1.1,6.4-2.5,9.2-3.9c1.7-0.8,2.5-1.1,3.4-1.7c0.8-0.6,2-0.8,2.8-1.4c2-0.8,3.9-2,5.9-3.1c2-1.1,3.9-2.2,5.9-3.9
								c1.1-0.8,2.2-1.7,3.1-2.5l2.8-2.8c3.4-3.9,4.8-9,5.3-13.7c0.3-4.8-0.3-9.8-2.2-14.6c-0.8-2.8-1.4-5.6-2.8-8.4
								c-0.6-1.4-1.4-2.8-2.5-4.2c-0.6-0.6-1.1-1.4-1.7-2c-0.6-0.6-1.4-1.1-2-1.7c-3.6-2.8-7.8-3.6-11.5-3.6
								c-3.9,0-8.1,1.4-11.2,3.9s-5,5.9-6.4,9c-1.1,3.1-1.7,6.4-2.2,9.5c-0.6,3.6,6.7,5,6.7,4.5c0-1.7,0.6-3.9,1.1-5.6
								c0.8-2,1.7-3.4,3.1-4.8c1.1-1.1,2.5-2.2,4.2-2.5c1.7-0.3,3.1-0.6,5.3-0.3c3.9,0.3,6.4,2,8.1,4.2c1.4,2.5,2.2,6.4,2,10.6
								c-0.6,6.7-4.2,13.2-9.5,16.2c-2.8,1.7-5.9,3.4-9.2,4.2c-3.9,1.4-5,1.1-5.9,0.3c-0.3,0.6-0.8,1.4-1.1,2
								c-1.1,1.7-2.8,2.8-3.9,3.4c-0.6,0.3-1.4,0.6-2,0.8c-0.3,0-0.6,0-0.8,0.3h-0.3c0,0,0,0-0.3,0V222c0.6-1.7,1.4-3.1,2-4.5
								c0.6-1.4,1.1-2.2,1.1-3.4c0-0.3-0.6-0.6-1.1-0.8c-0.6-0.6-1.1-1.1-0.8-2c0.3-0.8,0.6-2.5,0.8-3.9c0.3-1.4,0.3-3.1,0.6-4.5
								c0.3-3.1,0.6-5.9,0.8-9c-2.8,0.6-5.6,0.6-7.8,1.4C380.2,199.6,380,203.3,378.3,206.4z"/>
							<path fill="#FFFFFF" d="M378.3,206.4c1.7-3.1,1.7-6.7,1.7-10.4c-1.1,0.3-2,0.8-2.8,1.4c-1.4,2-2.8,3.9-3.6,5.9
								c-0.6,1.1-0.8,2.2-1.1,3.4l-0.8,2.5c-0.3,1.1-0.6,2.2-0.8,3.4c-1.1,4.5-2,9-2.8,12.9c0,0.6-0.3,1.1-0.3,1.4v1.4
								c0,0.8-0.3,1.7-0.3,2.5c-0.3,1.7-0.3,3.4-0.6,5c2.8-4.8,4.8-8.4,6.4-11.8c1.7-3.4,2.2-5.9,2.8-9
								C376.6,212.2,377.4,208,378.3,206.4z"/>
							<path fill="#FFFFFF" d="M378.3,206.4c1.7-3.1,1.7-6.4,1.7-10.1c-0.6,1.1-1.1,2-1.7,3.1c-1.1,2.8-1.7,5.6-2.8,8.4
								c-1.4,4.8-3.1,9.5-5.6,15.1l4.5-16.2c0.8-3.1,1.7-6.2,2.2-9.2c-1.4,1.7-2.5,3.9-3.1,5.9c-0.3,1.1-0.8,2.2-1.1,3.1l-0.8,3.1
								c-0.3,1.1-0.6,2.2-0.8,3.4c-1.1,4.2-2,8.4-2.8,12.6c-0.3,1.1-0.3,2-0.3,2.8s-0.3,1.7-0.3,2.5c-0.3,1.7-0.3,3.4-0.6,5
								c2.8-4.5,4.8-8.4,6.4-11.8c1.7-3.4,2.2-5.9,2.8-9C376.6,212.2,377.4,208,378.3,206.4z"/>
							<path fill="#FFFFFF" d="M376,218.7c2-4.8,3.6-10.1,4.5-12.9c1.1-3.4,1.7-7,2.2-10.6c-0.8,0-1.4,0.3-2,0.3
								c-0.3,0.3-0.3,0.6-0.6,0.8c0,3.6,0,7-1.7,10.1c-0.8,1.7-1.7,5.9-2.2,8.7c-0.6,3.1-1.1,5.9-2.8,9c-1.4,3.1-3.6,7-6.4,11.8
								c-0.3,0.8-0.3,2-0.6,2.8l-0.3,2.2l-0.3,1.1v0.3v0.3l0.6-0.3l5-1.7c3.4-1.1,6.4-2,9.8-3.1c3.1-1.1,6.4-2.2,9.8-3.4
								c3.4-1.4,6.4-2.5,9.5-3.9l0.8-0.6l0.6-0.6c0.3-0.3,0.8-0.6,1.1-0.8c0.8-0.6,1.7-1.1,2.5-1.7c1.7-1.1,3.4-2.2,5-3.4
								s3.6-2.2,5.3-3.4c2-1.4,3.9-2.8,5.6-4.5c-1.4,1.7-3.1,3.4-4.8,5c-1.7,1.4-3.1,2.5-4.8,3.9c2-1.1,3.6-2.2,5.9-3.6
								c1.1-0.8,2.2-1.7,3.1-2.5l2.8-2.8c2.8-3.4,4.5-7.3,5-11.5c-1.1-1.4-2.2-3.1-2.2-5c0-3.4,0.6-6.7-1.4-9.8
								c0-0.6,1.4-0.6,1.4-1.4c0,1.4,0.3,2.5,0.8,3.6c0.3,1.1,0.8,2.2,1.4,3.1c-0.3-1.1-0.6-2.5-0.8-3.6L427,187
								c-1.1-4.5-2-9-5.3-13.2l-1.4-0.8c-2.5-1.4-5.3-1.7-7.8-1.4c0.8,0.3,2,0.6,2.8,1.1c-1.7,0.3-3.6-0.3-5-0.8
								c0.6-0.3,1.4-0.3,2.2-0.3c-1.1-0.3-2.2-0.8-3.4-0.8c-1.1-0.3-2.2-0.3-3.4-0.6c1.4,0.3,2.8,0.3,4.2,0c1.4,0,3.1,0,4.5,0
								c-1.4-0.3-2.8-0.8-4.2-0.8s-2.5,0-3.9-0.3c-1.4,0-2.8,0-4.2,0c-1.4,0.3-3.1,0.3-4.5,0.6l0.3-0.3c-3.9,2.2-6.7,5.9-8.1,9.5
								s-2.2,7-2.8,10.6c-0.3,1.7,1.4,3.1,3.1,3.9c0.8,0.3,1.7,0.6,2.5,0.6c0.6,0,1.1,0,1.1,0c0-2.5,1.1-5.6,2.2-7.8
								c1.4-2.2,3.1-3.9,5.3-4.8c2-0.8,4.5-0.8,7.3-0.6c2.5,0.6,4.5,1.4,5.9,2.8c0-1.1-0.3-2.8-1.1-4.2c-0.3-0.6-0.8-1.1-1.1-1.7
								c0.6,0.6,0.8,1.1,1.1,1.7c0.6,0.6,1.1,1.1,1.7,1.7c0.6,0.6,1.1,1.1,1.1,2c-0.3,0.6,0.3,1.1,1.4,0.8c0,1.1,0.6,2.2,0.6,3.4
								c0.3,1.1,0.3,2.5,0,3.6c0,0-0.3,0.3-0.8,0.6v2v2.2c-0.3,4.2-2,8.1-4.5,11.5c-0.6,0.8-1.4,1.4-2,2.2c-0.8,0.6-1.4,1.1-2.2,2
								c-1.7,1.1-3.6,2.2-5.6,3.1c2.2-0.3,4.5-0.6,6.7-0.8c0.8,0,1.7-0.3,2.2-0.8c0.8-0.6,1.4-1.4,2-2.2c0.3-0.6,0.6-0.8,0.8-1.4
								s0.6-1.1,0.8-1.7c0.6-1.1,0.8-2.2,1.1-3.4c0.3-1.1,1.7-1.1,2.2-2.2c0.6,1.4,0.6,2.5,0.3,3.6c-0.3,1.1-0.8,2.2-1.7,3.4
								c-0.8,1.1-1.7,2-2.5,2.8c-0.8,0.8-2,1.7-2.8,2.5c-2.2,2.2-5.9,3.9-9.5,5.3c-1.7,0.8-3.6,1.4-5.3,2.2
								c-1.7,0.8-3.1,1.7-4.8,3.1c-1.4,1.1-2.8,1.7-3.9,1.7c-1.1,0-2-0.6-2.2-1.4c1.1-1.4,2.2-1.7,2.8-1.7c2.5-0.6,5-1.4,8.1-2.8
								c3.4-1.4,6.4-3.1,9.2-5c-3.6,1.1-6.7,2.8-10.1,3.9c-2.8,0.8-5,1.4-6.4,0.6c2-0.8,4.2,0.6,7-3.1c-0.6-0.3-0.8-0.3-1.4-0.3
								c-2.5,0.6-3.1,0.3-3.9-0.3c-0.3,0.6-0.8,1.4-1.1,2c-1.1,1.7-2.8,2.8-3.9,3.4c-0.6,0.3-1.4,0.6-2,0.8c-0.3,0-0.6,0-0.8,0.3
								h-0.3c0,0,0,0-0.3,0v-0.3c0.6-1.7,1.4-3.1,2-4.5c0.6-1.4,1.1-2.2,1.1-3.4c0.3-0.3-1.1-0.6-1.7-1.4c-0.6,1.7-2,3.9-2.5,6.2
								c0.8-1.1,1.7-2.2,3.1-3.4c0,0.6-0.8,1.4-1.4,2.5c-0.8,1.1-1.7,2.2-1.7,3.1c-0.3-0.6-0.3-1.4,0-2.2c-1.1,1.7-2,3.4-2.8,5.6
								c-0.6-0.6,0.6-2.8,1.4-4.5c0.8-1.7,1.7-3.1,0.8-3.9c-0.3,0.6-0.3,1.1-0.8,2l0.8-2l0,0c0.6-2,0-3.6-0.3-5.9
								c-0.6,2-1.4,3.6-2.5,5.9c-1.1,2-2.2,4.5-2.8,6.7l-0.3,2c0-0.6,0-1.1,0.3-2c0.8-4.8,2.8-10.6,4.5-14.8
								c1.7-4.2,3.6-8.7,5.3-12.9v-0.8c-0.6,0-1.1,0.3-2,0.3c-1.4,3.6-2.8,7.3-4.2,10.6C380,209.7,378,214.2,376,218.7z"/>
						</g>
					</g>
				</g>
			</g>
		</g>
	</g>
	<g>
		<rect x="176.4" y="440.4" fill="none" width="991.2" height="138.6"/>
		<g enable-background="new    ">
			<path fill="#86604E" d="M219.5,450.7c2.2,0,4.3,0.1,6.1,0.3c1.8,0.2,3.4,0.5,4.8,1c1.3,0.4,2.4,0.9,3.1,1.5
				c0.8,0.6,1.2,1.2,1.2,2c0,0.5-0.1,1.1-0.3,1.8c-0.2,0.7-0.5,1.4-0.8,2.2c-0.3,0.7-0.7,1.5-1.1,2.2c-0.4,0.7-0.8,1.4-1.2,1.8
				c-0.2,0.1-0.4,0.1-0.6,0c-0.2-0.2-0.3-0.4-0.1-0.6c1.3-2.3,1.6-4,0.8-5.3c-0.9-1.4-2.6-2.6-5.2-3.7c-2.6-1-5.6-1.5-9-1.5
				c-4.4,0-8.5,0.8-12.1,2.4c-3.6,1.6-6.8,3.8-9.4,6.7c-2.6,2.9-4.7,6.3-6.1,10.2c-1.4,3.9-2.2,8.3-2.2,13c0,3.5,0.5,6.6,1.4,9.6
				c0.9,2.9,2.3,5.5,4.1,7.6c1.8,2.1,4,3.8,6.6,5c2.6,1.2,5.5,1.8,8.9,1.8c4.4,0,8.1-1.4,11.1-4.1c3-2.7,5-6.4,6.3-10.9
				c0.1-0.3,0.3-0.4,0.6-0.4c0.3,0.1,0.4,0.2,0.4,0.6c-0.2,1.3-0.6,2.7-1.1,4.3c-0.5,1.6-1,3-1.6,4.4c-0.6,1.4-1.1,2.6-1.6,3.6
				c-0.5,1-1,1.6-1.3,1.7c-2,0.7-4.2,1.3-6.6,1.8c-2.4,0.4-5,0.6-7.7,0.6c-3.8,0-7.1-0.6-10.1-1.7c-3-1.1-5.5-2.7-7.6-4.8
				c-2.1-2-3.6-4.4-4.8-7.2c-1.1-2.8-1.7-5.8-1.7-9c0-4.9,0.9-9.6,2.7-14.1c1.8-4.5,4.3-8.4,7.5-11.7c3.2-3.4,7.1-6,11.6-8
				C209.1,451.7,214.1,450.7,219.5,450.7z"/>
			<path fill="#86604E" d="M252.8,504.3c0.1-0.1,0.3-0.1,0.5,0c0.2,0.1,0.2,0.3,0.2,0.6c-1.3,1.8-2.6,3.1-3.8,4
				c-1.3,0.9-2.3,1.3-3.2,1.3c-0.6,0-1-0.3-1.3-0.8c-0.3-0.6-0.6-1.3-0.6-2.3c-0.1-1-0.1-2,0.1-3.2c0.2-1.2,0.4-2.4,0.8-3.7
				c-1.7,2.6-3.4,4.8-5.3,6.7c-1.8,1.9-3.6,3-5.4,3.4c-1.1,0-2-0.5-2.8-1.6c-0.8-1.1-1.2-2.8-1.2-5c0-2,0.4-4,1.2-6.1
				c0.8-2,2-3.8,3.4-5.5c1.4-1.6,3-2.9,4.9-3.9c1.8-1,3.8-1.5,5.8-1.5c1.1,0,2.1,0.1,2.9,0.4c0.8,0.2,1.5,0.6,2.2,1.1
				c0.4-0.3,0.9-0.6,1.5-0.9c0.6-0.3,1.2-0.4,1.8-0.4c0.3,0,0.4,0.2,0.3,0.5c-1.4,1.7-2.6,3.6-3.6,5.7c-1,2.1-1.8,4.1-2.4,6.1
				c-0.6,2-0.9,3.7-1.1,5.2c-0.2,1.5,0,2.5,0.3,3.1c0.3,0.4,0.9,0.4,1.7,0C250.5,507,251.5,506,252.8,504.3z M236.7,507
				c0.7,0,1.6-0.5,2.6-1.4c1.1-1,2.2-2.2,3.4-3.7c1.2-1.5,2.3-3.3,3.5-5.2c1.1-1.9,2.1-3.9,3-5.9c-0.2-0.8-0.8-1.4-1.7-1.9
				c-0.9-0.5-1.9-0.7-3.1-0.7c-1.4,0-2.6,0.4-3.8,1.1c-1.2,0.7-2.3,1.7-3.2,3c-0.9,1.3-1.7,2.8-2.2,4.5c-0.6,1.7-0.8,3.6-0.8,5.7
				c0,1.4,0.2,2.5,0.7,3.4C235.5,506.6,236.1,507,236.7,507z"/>
			<path fill="#86604E" d="M274.2,486.6c1.2,0,2.2,0.6,3,1.7c0.7,1.1,1.1,2.5,1.1,4.3c0,2.4-0.4,4.7-1.2,6.8c-0.8,2.1-2,4-3.4,5.6
				c-1.4,1.6-3.2,2.9-5.1,3.9c-2,1-4.1,1.4-6.5,1.4c-1,0-1.9-0.2-2.6-0.6c-1,3.1-2,6.4-2.9,9.8c-0.9,3.5-1.3,6.7-1.3,9.7
				c0,1.4,0.7,1.9,2.1,1.8c0.9-0.2,1.8-0.6,2.8-1.1c0.2-0.1,0.3,0,0.3,0.3c0,0.3,0,0.5-0.1,0.7c-0.7,0.4-1.8,0.9-3,1.3
				c-1.3,0.4-2.5,0.6-3.7,0.6c-0.5,0-0.9-0.1-1.2-0.3c-0.3-0.2-0.5-0.6-0.5-1.2c0-3.1,0.5-6.8,1.5-10.9c1-4.1,2.3-8.4,3.9-12.8
				c-0.1-0.2-0.2-0.4-0.3-0.6c-0.1-0.2-0.2-0.4-0.2-0.7c-0.1-0.2,0.4-0.5,1.4-0.8c0.8-2.2,1.7-4.4,2.6-6.7c0.9-2.2,1.8-4.4,2.8-6.5
				c1.2-2.6,1.7-4.2,1.6-4.8c-0.1-0.6-0.5-0.7-1.2-0.3c-0.4,0.2-0.9,0.6-1.5,1c-0.6,0.4-1.1,0.9-1.6,1.5c-0.1,0.1-0.3,0.1-0.4-0.1
				c-0.2-0.2-0.2-0.4-0.1-0.5c0.4-0.4,0.9-0.9,1.5-1.5c0.6-0.6,1.2-1.1,1.9-1.6c0.6-0.5,1.3-1,1.9-1.3c0.6-0.4,1.2-0.6,1.7-0.6
				c0.5,0,0.8,0.3,1,0.8c0.2,0.5,0,1.2-0.3,2.1c-0.4,1-0.8,2.3-1.4,3.6c-0.6,1.4-1.2,2.8-1.9,4.1c1.7-2.6,3.4-4.6,5.1-6
				C271.4,487.3,272.9,486.6,274.2,486.6z M264.3,508.4c1.5,0,3-0.3,4.3-1c1.3-0.7,2.5-1.6,3.4-2.8c1-1.2,1.7-2.6,2.2-4.3
				c0.5-1.6,0.8-3.4,0.8-5.4c0-1.5-0.3-2.7-0.8-3.6c-0.5-1-1.3-1.4-2.4-1.4c-1.4,0-3.1,1.3-5.1,3.8c-2,2.5-3.8,6.1-5.5,10.7
				c-0.1,0.3-0.2,0.6-0.3,0.9c-0.1,0.3-0.2,0.6-0.3,0.9c0.3,0.7,0.8,1.2,1.3,1.6C262.5,508.2,263.3,508.4,264.3,508.4z"/>
			<path fill="#86604E" d="M298.3,486.6c1.2,0,2.2,0.6,3,1.7c0.7,1.1,1.1,2.5,1.1,4.3c0,2.4-0.4,4.7-1.2,6.8c-0.8,2.1-2,4-3.4,5.6
				c-1.4,1.6-3.2,2.9-5.1,3.9c-2,1-4.1,1.4-6.5,1.4c-1,0-1.9-0.2-2.6-0.6c-1,3.1-2,6.4-2.9,9.8c-0.9,3.5-1.3,6.7-1.3,9.7
				c0,1.4,0.7,1.9,2.1,1.8c0.9-0.2,1.8-0.6,2.8-1.1c0.2-0.1,0.3,0,0.3,0.3c0,0.3,0,0.5-0.1,0.7c-0.7,0.4-1.8,0.9-3,1.3
				c-1.3,0.4-2.5,0.6-3.7,0.6c-0.5,0-0.9-0.1-1.2-0.3c-0.3-0.2-0.5-0.6-0.5-1.2c0-3.1,0.5-6.8,1.5-10.9c1-4.1,2.3-8.4,3.9-12.8
				c-0.1-0.2-0.2-0.4-0.3-0.6c-0.1-0.2-0.2-0.4-0.2-0.7c-0.1-0.2,0.4-0.5,1.4-0.8c0.8-2.2,1.7-4.4,2.6-6.7c0.9-2.2,1.8-4.4,2.8-6.5
				c1.2-2.6,1.7-4.2,1.6-4.8c-0.1-0.6-0.5-0.7-1.2-0.3c-0.4,0.2-0.9,0.6-1.5,1c-0.6,0.4-1.1,0.9-1.6,1.5c-0.1,0.1-0.3,0.1-0.4-0.1
				c-0.2-0.2-0.2-0.4-0.1-0.5c0.4-0.4,0.9-0.9,1.5-1.5c0.6-0.6,1.2-1.1,1.9-1.6c0.6-0.5,1.3-1,1.9-1.3c0.6-0.4,1.2-0.6,1.7-0.6
				c0.5,0,0.8,0.3,1,0.8c0.2,0.5,0,1.2-0.3,2.1c-0.4,1-0.8,2.3-1.4,3.6c-0.6,1.4-1.2,2.8-1.9,4.1c1.7-2.6,3.4-4.6,5.1-6
				C295.5,487.3,297,486.6,298.3,486.6z M288.4,508.4c1.5,0,3-0.3,4.3-1c1.3-0.7,2.5-1.6,3.4-2.8s1.7-2.6,2.2-4.3
				c0.5-1.6,0.8-3.4,0.8-5.4c0-1.5-0.3-2.7-0.8-3.6c-0.5-1-1.3-1.4-2.4-1.4c-1.4,0-3.1,1.3-5.1,3.8c-2,2.5-3.8,6.1-5.5,10.7
				c-0.1,0.3-0.2,0.6-0.3,0.9c-0.1,0.3-0.2,0.6-0.3,0.9c0.3,0.7,0.8,1.2,1.3,1.6C286.6,508.2,287.4,508.4,288.4,508.4z"/>
			<path fill="#86604E" d="M309.3,510.2c-0.8,0-1.5-0.4-2.1-1.2c-0.6-0.8-0.9-1.8-0.9-3c0-1,0.1-2.1,0.4-3.5
				c0.3-1.3,0.6-2.7,1.1-4.2s1-3,1.7-4.4s1.4-2.9,2.3-4.2c-0.7,0.5-1.4,1-2.1,1.6c-0.7,0.6-1.4,1.1-1.8,1.6
				c-0.2,0.1-0.3,0.1-0.5-0.1c-0.1-0.2-0.2-0.4-0.1-0.6c0.4-0.4,1-0.9,1.7-1.5c0.7-0.6,1.4-1.1,2.2-1.7c0.8-0.6,1.6-1.1,2.4-1.6
				c0.8-0.5,1.6-1,2.4-1.3c0.2-0.1,0.4,0,0.6,0.2c0.2,0.2,0.2,0.4,0.1,0.6c-2,2.5-3.6,5.3-4.8,8.4c-1.2,3-1.8,6-1.8,8.7
				c0,1.8,0.5,2.7,1.6,2.7c0.8,0,1.8-0.5,3-1.6c1.2-1.1,2.4-2.5,3.7-4.3c1.3-1.8,2.6-3.7,3.9-6c1.3-2.2,2.5-4.5,3.6-6.7
				c0.2-0.4,0.5-0.8,1.1-1.2c0.5-0.3,1.1-0.5,1.7-0.5c0.8,0,1.1,0.2,0.8,0.7c-0.9,1.6-1.6,3.1-2.3,4.5c-0.7,1.4-1.2,2.8-1.7,4.1
				c-0.4,1.4-0.8,2.7-1,4.2c-0.2,1.4-0.3,3-0.3,4.6c0,2,0.6,3,1.7,3c0.5,0,1-0.3,1.7-0.8c0.6-0.5,1.2-1.2,1.8-2.1
				c0.2-0.1,0.4-0.1,0.6,0c0.2,0.1,0.2,0.3,0.1,0.6c-0.9,1.3-1.9,2.4-3,3.4c-1.1,1-2.2,1.4-3.3,1.4c-0.8,0-1.5-0.4-2-1.2
				c-0.6-0.8-0.8-1.9-0.8-3.2c0-1.5,0.1-3.1,0.4-4.8s0.7-3.4,1.3-5.1c-1.2,2.3-2.4,4.3-3.7,6.1c-1.3,1.8-2.5,3.3-3.7,4.5
				c-1.2,1.2-2.3,2.2-3.4,2.8C310.8,509.8,309.9,510.2,309.3,510.2z"/>
			<path fill="#86604E" d="M347.3,494c-0.3,0-0.5-0.2-0.5-0.5c0.5-1.2,0.5-2.3,0-3.2s-1.4-1.4-2.8-1.4c-1,0-1.9,0.4-2.8,1.1
				c-0.9,0.7-1.6,1.7-2.2,3c-0.6,1.3-1.1,2.7-1.5,4.4c-0.4,1.7-0.6,3.5-0.6,5.5c0,3,1,4.5,3.1,4.5c2.4,0,4.8-1.4,7.2-4.3
				c0.2-0.1,0.5-0.1,0.6,0c0.2,0.2,0.2,0.4,0.1,0.7c-1.4,1.8-3,3.3-4.7,4.6c-1.7,1.3-3.4,1.9-5.1,1.9c-1.4,0-2.5-0.5-3.4-1.5
				c-0.9-1-1.3-2.3-1.3-4.1c0-2.2,0.4-4.3,1.1-6.5c0.7-2.2,1.6-4.1,2.8-5.8c1.1-1.7,2.4-3.1,3.9-4.2c1.5-1.1,3-1.6,4.5-1.6
				c1.3,0,2.3,0.3,3,0.9c0.7,0.6,1.1,1.4,1.1,2.2c0,0.3-0.1,0.7-0.3,1.1c-0.2,0.4-0.4,0.9-0.7,1.3c-0.3,0.4-0.6,0.8-0.9,1.2
				C347.9,493.6,347.6,493.9,347.3,494z"/>
			<path fill="#86604E" d="M354.4,493c-0.2,0.1-0.4,0.1-0.5-0.1c-0.2-0.2-0.2-0.4,0-0.6c0.9-0.9,2-1.8,3.5-3c1.5-1.1,3-2,4.4-2.8
				c0.5,0,0.7,0.3,0.7,0.8c-0.8,1.4-1.6,3-2.4,4.6c-0.8,1.7-1.4,3.3-2,4.9c-0.6,1.6-1.1,3.2-1.4,4.7c-0.4,1.5-0.6,2.8-0.6,3.7
				c0,1.3,0.4,1.9,1.3,1.9c0.7,0,1.3-0.3,2-0.9c0.6-0.6,1.4-1.4,2.3-2.4c0.1-0.1,0.3-0.1,0.5,0.1s0.2,0.4,0.1,0.6
				c-1.1,1.4-2.3,2.6-3.6,3.7c-1.3,1.1-2.4,1.7-3.6,1.7c-1.6,0-2.4-1-2.4-3c0-1.2,0.2-2.6,0.6-4.2c0.4-1.6,0.9-3.3,1.5-4.9
				c0.6-1.7,1.3-3.3,2.1-4.8c0.8-1.5,1.5-2.9,2.3-4c-0.7,0.5-1.5,1.1-2.5,1.9C355.7,491.8,354.9,492.5,354.4,493z M362.8,482.5
				c-0.2,0.2-0.4,0.2-0.5,0c-0.2-0.2-0.3-0.4-0.3-0.6c-0.1-0.3-0.1-0.6-0.1-1c0-0.4,0.1-0.7,0.3-0.9c1.6-2.2,3.8-4.6,6.7-7.1
				c0.2-0.1,0.4,0,0.6,0.1c0.2,0.2,0.2,0.3,0.1,0.4c-1.3,1.2-2.5,2.6-3.7,4.2C364.6,479.3,363.6,480.9,362.8,482.5z"/>
			<path fill="#86604E" d="M389.5,504.2c0.2-0.1,0.4-0.1,0.6,0c0.2,0.1,0.2,0.3,0.2,0.6c-1,1.4-2.2,2.7-3.5,3.7
				c-1.3,1.1-2.4,1.6-3.6,1.6c-1.9,0-2.9-1.2-2.9-3.7c0-2.1,0.4-4.4,1.1-7c0.7-2.6,1.8-5.1,3-7.7c0.2-0.4,0.4-0.9,0.4-1.3
				c0-0.7-0.3-1-0.9-1c-2.3,0-4.8,1.6-7.5,4.7c-2.7,3.1-5.3,8.1-7.6,14.8c-0.1,0.4-0.5,0.7-1,0.9c-0.6,0.2-1.1,0.3-1.6,0.3
				c-0.7,0-0.9-0.3-0.7-0.8c1-2.6,2.1-5.6,3.3-9c1.1-3.3,2.1-6.6,3-9.9c0.2-1.2,0-1.8-0.6-1.8c-0.6,0-1.2,0.3-1.8,0.9
				c-0.6,0.6-1.3,1.4-1.9,2.4c-0.1,0.1-0.3,0.1-0.4-0.1c-0.2-0.2-0.2-0.4-0.1-0.6c0.7-1,1.6-2.1,2.8-3.2c1.2-1.1,2.4-1.7,3.8-1.7
				c1.5,0,2.1,1,1.6,3.1c-0.2,1.4-0.6,2.8-1,4.3c-0.4,1.5-0.9,3-1.4,4.5c0.9-1.7,1.9-3.2,3-4.7c1.2-1.5,2.4-2.7,3.6-3.8
				c1.3-1,2.5-1.9,3.8-2.5c1.3-0.6,2.4-0.9,3.6-0.9c0.7,0,1.3,0.2,1.7,0.6c0.4,0.4,0.6,0.8,0.6,1.3c0,0.8-0.2,1.6-0.6,2.4
				c-1.3,2.3-2.4,4.8-3.3,7.3c-0.9,2.6-1.3,4.9-1.3,7.1c0,1.5,0.5,2.3,1.5,2.3C386.4,507.5,387.9,506.4,389.5,504.2z"/>
			<path fill="#86604E" d="M405.3,486.5c1.7,0,2.9,0.6,3.7,1.7c0.8,1.1,1.2,2.6,1.2,4.3c0,2.1-0.4,4.2-1.2,6.3c-0.8,2.1-1.8,4-3,5.7
				c-1.2,1.7-2.6,3.1-4,4.1c-1.4,1-2.8,1.6-4,1.6c-1.5,0-2.6-0.6-3.5-1.8c-0.9-1.2-1.3-2.8-1.3-5c0-1.7,0.3-3.6,1-5.5
				c0.7-2,1.6-3.8,2.7-5.5c1.1-1.7,2.4-3.1,3.9-4.2S403.7,486.5,405.3,486.5z M399.7,507.3c0.9,0,1.8-0.3,2.7-1
				c0.9-0.6,1.7-1.5,2.4-2.6c0.7-1.1,1.2-2.3,1.6-3.7c0.4-1.4,0.6-2.9,0.6-4.4c0-1.8-0.3-3.3-0.9-4.4c-0.6-1.1-1.6-1.6-3-1.6
				c-0.9,0-1.8,0.3-2.7,1c-0.9,0.6-1.6,1.5-2.3,2.6c-0.6,1.1-1.2,2.3-1.5,3.8c-0.4,1.4-0.6,3-0.6,4.6
				C396,505.4,397.3,507.3,399.7,507.3z"/>
		</g>
	</g>
</g>
</svg>
