<?xml version="1.0" encoding="utf-8"?>
<!-- Generator: Adobe Illustrator 18.0.0, SVG Export Plug-In . SVG Version: 6.00 Build 0)  -->
<!DOCTYPE svg PUBLIC "-//W3C//DTD SVG 1.1//EN" "http://www.w3.org/Graphics/SVG/1.1/DTD/svg11.dtd">
<svg version="1.1" id="Layer_1" xmlns="http://www.w3.org/2000/svg" xmlns:xlink="http://www.w3.org/1999/xlink" x="0px" y="0px"
	 viewBox="0 0 560 560" enable-background="new 0 0 560 560" xml:space="preserve">
<g>
	<path fill="#86604E" d="M202.2,271.6H350c0,0-22.1,145.3-73.9,131.3S202.2,271.6,202.2,271.6z"/>
	<g>
		<g>
			<g>
				<g opacity="0.8">
					<g opacity="0.8">
						<path fill="#EEE8E6" d="M226.5,340.5c5.6,12.3,11.5,24.6,19,35.6c7.6,10.6,17.6,19.6,28,22.4c1.1,0.3,2.2,0.6,3.4,0.8
							c1.1,0,2.2,0.3,3.4,0.3l-3.4-0.8c-6.4-2-12.3-6.2-17.6-10.9c-5.3-5-10.1-10.9-14.3-17.1c-8.4-12.6-15.1-26.9-20.7-40.9
							c-7.3-17.4-14.3-35.3-18.5-56c-0.6-2.2-1.4-2.5-2-2.5c-0.3,2.2-0.3,3.9-0.6,5.6c4.2,16.8,9.8,32.8,15.7,49.3
							C221.5,332.1,225.1,337.4,226.5,340.5z"/>
						<polygon fill="#E6DEDB" points="203.6,276.4 203.6,276.6 204.4,279.2 						"/>
						<path fill="#ECE6E3" d="M216.2,316.4c2,5.3,3.9,10.6,5.9,16c1.7,3.4,3.6,6.2,4.5,8.1c5.6,12.3,11.5,24.6,19,35.6
							c7.6,10.6,17.6,19.6,28,22.4c1.1,0.3,2.2,0.6,3.4,0.8c1.1,0,2.2,0.3,3.4,0.3c-1.1-0.3-2.5-0.6-3.6-0.8
							c-4.5-1.4-8.7-3.9-12.6-6.7c-3.9-2.8-7.6-6.7-10.9-10.4c-0.3-0.3-0.8-0.8-1.1-1.1c-4.2-3.9-6.7-9-9.8-13.7
							c-9-13.4-14-26.3-20.2-41.4c-2.2-5.3-5-10.9-7-17.6c-0.8-2.2-1.4-4.5-2-6.7c-2.8-8.7-5.6-17.6-7.3-27.2
							c-0.6-2.2-1.4-2.5-1.7-2.5c0,1.1-0.3,2.2-0.3,3.1c1.4,7.8,3.4,15.4,5.6,23.2c2.2,6.7,4.5,13.4,6.7,20.2
							C216.2,317.2,216.2,317,216.2,316.4z"/>
						<path fill="#E6DEDB" d="M215,317.5c0.3,0.8,1.4,2,1.1,0c-2.5-6.7-4.8-13.4-6.7-20.2C211.4,304.1,213.1,310.5,215,317.5z"/>
						<path fill="#F4F0EE" d="M212,317.5c4.2,13.4,10.1,25.5,14.6,36.4c2.2,5.3,4.5,10.9,6.7,16.2c1.1,1.7,2,3.4,3.4,5
							c3.4,5,7.3,9.8,11.8,14.3c4.2,4.5,9.2,8.7,14.6,11.8c5.6,3.1,11.5,5.6,18.5,6.2s13.7-2,19-5.6s9.8-8.4,13.4-13.2
							c3.9-4.8,7-10.1,9.8-15.4c5.6-10.6,10.4-21.6,14.3-32.8s6.7-22.4,9-33.6c1.1-5.6,2.2-11.2,3.1-17.1c0.6-2.8,0.8-5.9,1.4-8.7
							c0.6-3.6,1.1-7.6,1.4-11.5v-0.6c0-0.3,0-0.3,0-0.3H352h-2c-1.1,0-2.5,0-3.6,0c-2,0-3.9,0-5.9,0c-3.4,0-6.4-0.3-9.8-0.3
							c-6.4-0.3-12.6-0.6-19.6-1.1c-34.7-1.7-64.7,2-100,3.1c-9.5,0.3-10.9,3.9-8.4,3.9c29.7-0.8,58.5-0.6,87.4-0.6
							c14.3,0,28.8,0,43.4,0c3.6,0,7,0,10.6,0h2.8c0.3,0,0.3,0.3,0.3,0.6v0.6l-0.3,1.4l-0.8,4.8l-1.1,5.3c-0.8,3.6-1.4,7.3-2.2,10.9
							c-4.8,22.4-10.9,44-19.9,63.6c-2.2,4.8-4.8,9.8-7.6,14.3c-1.4,2.2-2.8,4.5-4.5,6.7c-1.7,2-3.1,4.2-5,6.2
							c-6.7,7.8-16.2,13.2-25.2,11.5c-1.1,0-2.2-0.3-3.4-0.3c-1.1-0.3-2.2-0.6-3.4-0.8c-10.6-2.8-20.4-11.5-28-22.4
							c-7.6-10.6-13.7-23.2-19-35.6c-1.4-3.1-5-8.7-7-14c-6.2-16.5-11.5-32.8-15.7-49.3c-0.6,3.6-1.1,6.7-1.1,10.4
							C205.5,297.6,208.9,307.7,212,317.5z"/>
						<path fill="#E5DDD9" d="M212,317.5c-2.8-9.8-6.2-19.9-9.2-30c0,1.7,0,3.9,0.3,6.2c4.8,25.5,15.7,53.2,30.2,76.7
							c-2.2-5.3-4.5-10.9-6.7-16.2C222,343,215.9,331,212,317.5z"/>
						<path fill="#ECE6E3" d="M212,317.5c-2.8-9.5-5.9-19-9-28.6c0.6,3.4,1.4,6.7,2.2,10.1c4.5,17.1,10.6,34.2,17.1,50.4
							c-7.8-17.4-14-35.3-19-53.8c5,24.9,15.7,51.8,30,74.5c-2.2-5.3-4.5-10.9-6.7-16.2C222,343,215.9,331,212,317.5z"/>
						<path fill="#E3DAD6" d="M222.6,344.1c-8.1-19.6-14-40-19.9-60.8c0,0.8-0.3,2-0.3,3.1c0.3,0.8,0.3,1.7,0.6,2.5
							c3.1,9.8,6.2,19.3,9,28.6c4.2,13.4,10.1,25.5,14.6,36.4c2.2,5.3,4.5,10.9,6.7,16.2c1.1,1.7,2,3.1,3.1,4.8
							c3.4,5,7.6,10.1,11.8,14.6c4.5,4.5,9.2,8.7,15.1,12c5.6,3.1,11.8,5.6,19,5.9c7,0.3,14-2.5,19.3-6.2c9-7.3,15.1-16.8,20.7-26.6
							c5.3-10.1,9.8-20.4,14-30.8c-3.4,9.8-7.3,19.6-12.3,29.1c5.6-10.4,10.1-21.3,14-32.2c3.4-9.5,5.9-19,7.8-28.6
							c-0.3-2.2-0.3-5.3,0.8-10.6c0.8-4.2,1.7-8.1,2.2-12.3c0.3-2,0.8-4.2,1.1-6.2c0-1.1,0.3-2,0.3-3.1s0.3-2.2,0.3-3.4
							c0.3-1.4,0.8-1.4,1.4-4.5c-0.3,2.2-0.8,4.2-1.1,6.4c-0.3,1.4-0.3,2.8-0.6,4.2c-0.3,2.8-0.6,5.3-0.6,7.6
							c0.6-2.8,0.8-5.9,1.4-8.7c0.6-3.6,1.1-7.6,1.4-11.2v-0.8v-0.3v-0.3h-1.4c-0.8,0-2,0-2.8,0c-2,0-3.6,0-5.3,0
							c-2.5,0-5,0-7.6-0.3c-5-0.3-10.1-0.6-15.1-0.8H317c-5.6,0-11.2,0.6-16.8,0.8c2.2,0,4.5,0,7,0c-3.6,0.3-8.4,0.3-11.8,0.3
							c1.7,0,3.4-0.3,5-0.3c-5.3,0-10.6,0-16.5-0.3c7,0,14.3-0.3,20.2-0.6c-12.9,0-24.9,0.3-37.5-0.3c0.3,0,0.6,0,0.8,0
							c-18.2,0.8-36.1,2.2-55.7,3.1c-9.5,0.3-10.9,3.9-8.4,3.9c41.4-1.1,81.2-0.6,121.8-0.6c-4.5-0.6-9.2-0.8-13.7-1.4
							c-2,0-3.9-0.3-5.9-0.6c2,0.3,3.9,0.3,5.9,0.6c5.3,0.3,11.5,0.3,17.4,0.6c1.1,0.3,4.5,0.3,6.2-0.3c2,0,4.2,0.3,6.2,0.3
							c1.7,0,3.6,0,5.3,0h1.1h0.6h0.3v0.3c0,0.8-0.3,1.4-0.3,2.2c-0.3,0.8-0.3,1.4-0.6,2.2c-0.3,1.1-0.6,2-0.8,3.1
							c0,0.6-0.6,1.1-0.8,2c-0.8,5-2,10.1-2.8,15.1c-3.1,14-6.4,27.7-10.9,40.6c-2.2,6.4-4.5,12.9-7.3,19
							c-2.8,6.2-5.6,12.3-9.2,17.9c3.6-5.3,6.7-10.6,9.8-15.7c4.2-6.7,9.2-23,12.6-36.7c0.8-3.6,2-5.3,3.1-8.7
							c-1.4,12.6-7.3,27.4-12.3,40.9c-3.4,8.7-8.7,19-15.4,28.3c-3.4,4.8-7.3,9-11.5,12.6c-4.2,3.6-9.2,6.2-14.3,7
							c-1.1,0.3-2,0.3-3.1,0.3c-1.1,0-2,0.3-3.1,0c-2-0.6-3.9-0.6-5.9-1.4l-2.8-1.1c-0.8-0.3-1.7-0.8-2.5-1.4
							c-0.8-0.6-1.4-0.8-2.2-1.4c-0.6-0.6-1.4-1.1-2-1.7c1.1,0.6,2.8,1.4,4.2,2c1.7,0.8,3.1,1.4,4.2,1.7c1.1,0.3,2.5,0.8,3.6,1.1
							l3.6,0.8c1.1,0,2.5,0,3.6,0c1.4,0,2.5-0.3,3.6-0.6c5-1.1,9.5-3.6,13.4-7c3.9-3.4,7.3-7.6,10.4-11.8c2.8-4.5,5.6-9,7.8-13.7
							c-5.3,9.5-11.5,18.8-19.6,25.2c-3.9,3.4-8.7,5.6-13.7,6.4c-5,0.8-9.8-0.3-14.6-2.5c5.6,2.2,11.5,3.4,17.1,2
							c5.6-1.4,10.6-5,14.3-9.5c-0.8,0.6-1.7,1.1-2.5,1.7c-1.4,1.4-3.1,2.2-4.8,3.6l-2.5,1.4c-0.6,0.3-0.8,0.6-1.4,0.6l-1.4,0.6
							c-3.4,1.4-7.3,1.4-10.6,1.1c-1.1,0-2.2-0.3-3.4-0.3c-1.1-0.3-2.2-0.6-3.4-0.8c-10.6-2.8-20.4-11.5-28-22.4
							c-7.6-10.6-13.7-23.2-19-35.6c-0.8-2-2.8-5-4.5-8.1c3.1,8.1,6.4,16.2,10.4,23.8c-1.4-3.1-2.5-6.4-3.4-9.2
							c3.6,7.3,5.9,13.7,10.4,20.7c-1.4-1.7-2.5-3.6-3.6-5.6s-2.2-3.9-3.1-5.6c2,4.8,4.8,9.8,7.6,14.6c-6.4-8.7-9.2-18.2-14.8-27.7
							c0.8,2,2,4.2,2.8,6.2c-0.8-2.2-2-4.2-2.8-6.4l0,0c-2.8-6.4-5.6-12.9-8.4-18.8c4.2,11.5,7.6,21.8,13.2,32.5
							c0.8,1.7,2,3.6,2.8,5c-1.1-1.7-2-3.4-2.8-5c-6.4-12-11.5-24.9-15.7-38.1s-7.6-26.3-10.4-39.8l-0.6-2.5c0,0.8-0.3,1.7-0.3,2.5
							C208,301.3,214.5,323.4,222.6,344.1z"/>
					</g>
				</g>
			</g>
		</g>
	</g>
</g>
<g>
	<circle fill="#DFCEC4" cx="280.8" cy="279.2" r="233.2"/>
	<g>
		<g>
			<g>
				<g opacity="0.8">
					<g opacity="0.8">
						<path fill="#FAF8F7" d="M402.4,93.8c-8.4-5.6-17.6-10.4-26.6-14.8c-9.2-4.5-18.8-8.4-28.3-11.8c-19.6-6.4-39.8-10.6-59.9-11.5
							c-40.9-2.5-80.4,8.4-108.9,28.3c-6.4,4.2-12.6,9-18.5,14c3.4-2,6.7-3.9,10.1-5.6c9.8-5,20.2-9.5,30.5-13.2
							c5.3-2,10.6-3.4,16-5c5.3-1.4,10.9-2.8,16.5-3.6c22.1-4.2,44.8-5,67.2-2.5c45.1,4.8,87.6,24.1,121.2,52.4
							c21.3,17.1,40.3,38.1,54.3,63.3c14.3,25.2,23.5,54.6,24.1,85.7c0,7,3.6,7.8,5.3,8.4c1.1-3.1,2.2-6.2,3.4-9
							c1.1-2.8,2.2-5.6,3.1-8.1c-1.4-13.4-4.2-26.6-8.1-39.2c-3.9-12.9-9-25.2-14.8-37c-12-23.8-27.7-45.6-46.8-64.7
							c-3.1-3.4-6.7-6.2-10.4-9c-3.9-2.5-7.6-5-11.2-7c-3.6-2-7.3-3.9-10.4-5.6C407.4,96.6,404.6,95.2,402.4,93.8z"/>
						<path fill="#F8F5F3" d="M512.1,262.9c0.3-0.3,0.3-0.6,0.3-1.1c-0.3-2.8-0.6-5.3-1.1-8.1C511.8,256.8,511.8,259.8,512.1,262.9z
							"/>
						<path fill="#FAF7F6" d="M463.1,144.5c-11.2-13.4-23.2-25.8-36.1-37c-2.2-1.7-4.8-2.8-7-4.2c-2.2-1.1-4.5-2.5-6.7-3.6
							c-4.5-2.2-8.1-4.2-10.9-5.9c-8.4-5.6-17.6-10.4-26.6-14.8c-9.2-4.5-18.8-8.4-28.3-11.8c-19.6-6.4-39.8-10.6-59.9-11.5
							c-40.9-2.5-80.4,8.4-108.9,28.3c-6.4,4.2-12.3,9-18.2,14c3.6-2,7.3-4.2,10.9-5.9c27.2-13.7,57.7-22.7,88.8-24.6
							c1.7-0.3,3.4-0.6,5-0.8c8.7-2,17.1-1.7,25.5-0.8c4.2,0.6,8.4,1.1,12.3,1.7c4.2,0.8,8.1,1.4,12.3,2.2c11.8,1.4,23,4.2,33.6,7.6
							c10.6,3.4,20.7,7.8,30.2,13.2c19.3,10.4,37,23.2,54.6,39.8c3.1,3.1,6.4,5.9,9.5,9c3.4,3.1,6.4,6.2,9.8,9.5
							c6.4,6.7,12.9,14.3,17.6,23.5c2,3.1,3.4,6.2,4.8,9.2c1.7,3.1,2.8,6.2,3.9,9.2c12.3,24.1,20.4,51.5,21,80.6
							c0,7,3.6,7.8,5.3,8.4c1.1-3.4,2.2-6.4,3.4-9.2c-0.3-12.3-1.4-24.6-3.9-36.7c-2.5-12-5.9-24.1-10.1-35.8
							c-8.7-20.2-20.2-38.9-33.6-56C462,142,462.6,143.1,463.1,144.5z"/>
						<path fill="#F8F5F3" d="M465.9,139.4c-2-2.5-6.2-3.9-4.5,1.7c13.7,17.1,25.2,35.8,33.6,56c-3.6-10.1-8.1-19.6-12.9-29.4
							C477.7,158.2,472.1,149,465.9,139.4z"/>
						<path fill="#FCFAF9" d="M478,135c-12.9-19-29.4-34.7-46.5-47.6s-35-22.7-51.5-31.9c-17.4-9.5-35.6-17.4-52.4-24.1
							c-3.4-0.6-6.4-1.1-9.5-1.7c-3.1-0.3-6.4-0.8-9.5-1.1c-19.9-2-40-1.1-59.6,1.7c-19.6,2.8-39.2,7.8-57.7,15.4
							c-37,14.6-70,38.1-96.3,67.5C81.8,128,70.3,144.2,61,161.6s-16.8,35.8-21.8,54.9s-7.8,38.6-8.7,58.2
							c-0.8,19.6,0.8,39.5,4.8,58.8s10.6,38.1,19.6,55.2c9,17.1,19.9,33,32.5,47c12.6,14.3,27.2,26.6,42.8,37.5s32.8,19.9,51.2,26.9
							c5.3,2.5,10.6,4.2,15.7,6.4c2.5,0.8,5.3,2,7.8,2.8c1.4,0.6,2.5,0.8,3.9,1.4c1.4,0.3,2.5,0.8,3.9,1.1c2.5,0.8,5,1.7,7.6,2.5
							c2.5,0.8,5,1.4,7.6,2c5,1.4,10.1,2.5,15.4,3.6c20.4,4.2,41.4,6.7,64.7,5.6c29.1-1.4,56.8-9.2,81.5-21.6
							c24.6-12.6,46.5-29.7,64.4-49.8c35.8-40.3,57.1-92.1,61-148.1c1.1-15.1-3.1-23.8-6.4-27.4c-3.6-3.9-7.3-2.8-7.3,0.6
							c1.4,44-11.5,87.9-35.8,124c-24.1,36.1-59.4,64.7-99.1,80.9c-10.1,4.2-20.2,7.3-30.8,10.1c-10.4,2.5-21,4.2-31.9,5.6
							c-10.6,0.8-21.6,1.4-32.5,0.8c-10.9-0.6-21.6-1.7-32.2-3.6c-42.6-8.1-83.2-28.6-115.6-59.4c-12.6-11.8-23.5-25.2-32.8-39.8
							c-9.2-14.3-16.8-29.7-22.4-45.6c-11.2-31.9-14.6-66.1-10.4-98.8c4.2-32.8,16-64.1,33.9-91s41.4-49.3,68.6-65
							c5.9-5,12-9.8,18.5-14c28.3-19.9,68-30.8,108.6-28.3c20.2,0.8,40.6,5,59.9,11.5c9.8,3.4,19.3,7.3,28.3,11.8
							c9.2,4.5,18.2,9.2,26.6,14.8c2.2,1.4,5,3.1,8.1,4.8c3.4,1.7,6.7,3.4,10.4,5.6c3.9,2,7.6,4.5,11.2,7c3.6,2.8,7.3,5.6,10.4,9
							c19,19,34.7,40.9,46.8,64.7c5.9,11.8,10.9,24.4,14.8,37c3.9,12.9,6.4,26,8.1,39.2c4.5-11.2,8.1-21,9.5-33.3
							C512.7,193.8,496.4,163,478,135z"/>
						<path fill="#F8F4F2" d="M478,135c18.5,28,34.4,58.5,44,92.4c0.3-3.1,0.6-6.2,0.3-9.5c0-3.4-0.6-7-1.1-10.6
							c-0.6-2.8-1.1-5.3-1.7-8.1c-0.6-2.5-1.4-5.3-2.2-8.1c-1.7-5.3-3.4-10.6-5.3-16c-3.9-10.6-9.2-20.7-14.8-30.8
							c-5.9-10.1-12.6-19.3-20.2-28.6c-7.6-9-15.7-17.4-24.4-25.5c-9-7.8-18.2-15.1-28-21.6s-20.2-12.3-30.8-17.1
							c-10.6-4.8-21.6-9.2-32.5-12.6c-5.6-2-11.2-3.1-16.5-4.8c-2.8-0.6-5.6-1.1-8.4-1.7c-2.8-0.6-5.6-1.1-8.4-1.7
							c16.8,6.7,34.7,14.6,52.4,24.1c16.5,9.2,34.2,19,51.5,31.9C448.6,100.2,465.1,115.9,478,135z"/>
						<path fill="#FAF7F6" d="M478,135c17.6,26.6,33,55.7,42.6,87.9c-0.8-5.6-2.2-11.2-3.4-16.5c-0.8-2.8-1.7-5.6-2.5-8.1l-1.4-4.2
							l-1.4-3.9c-10.1-27.4-25.8-53.2-44.8-75.3c-19.3-22.1-42-41.2-66.9-56.6c27.7,15.1,52.6,35.6,72.8,59.6
							c20.4,24.1,36.4,52.1,46.8,82.3c-9.8-41.7-35.6-82-70.3-111.7c-8.7-7.6-17.9-14.3-27.4-20.4c-9.8-6.2-19.6-11.5-30-16.2
							c-10.4-4.5-21-9-31.6-12c-5.3-1.7-10.6-3.1-16.2-4.5c-2.8-0.6-5.3-1.1-8.1-1.7c-2.8-0.6-5.3-1.1-8.1-1.7
							c16.5,6.4,34.7,14.6,52.1,24.1c16.5,9.2,34.2,19,51.5,31.9C448.6,100.2,465.1,115.9,478,135z"/>
						<path fill="#F8F4F1" d="M408.8,73.6c28.6,19,53.2,43.7,72,72.2c18.8,28.6,32.2,61,38.9,95.2c0.8-3.1,1.4-6.2,2-9.8
							c-0.3-3.1-0.8-5.9-1.1-8.7c-9.5-31.9-24.9-61.3-42.6-87.9c-12.9-19-29.4-34.7-46.5-47.6s-35-22.7-51.5-31.9
							c-17.4-9.5-35.6-17.4-52.1-24.1c-3.1-0.6-6.2-1.1-9-1.4c-3.1-0.3-6.2-0.8-9-1.1c-20.4-2-40.9-1.4-61,1.4
							c-10.1,1.4-20.2,3.6-30,6.2c-9.8,2.8-19.6,5.9-28.8,9.8c-9.5,3.6-18.5,8.1-27.4,12.9c-8.7,5-17.4,10.4-25.5,16.2
							c-8.4,5.9-16,12.3-23.5,19c-7.3,7-14.6,14-21,21.8C82,129.9,72.5,145,64.1,161c-8.1,16-14.8,33-19.9,50.7
							c-5,17.6-8.4,35.8-9.8,54c-1.4,18.5-0.8,37,1.4,55.2c-5.6-34.2-4.5-69.2,3.4-103.3c-9.8,37.2-11.2,76.7-3.9,114.5
							c6.7,33,21,63.3,40.6,89c3.4,1.7,6.7,4.5,11.2,8.1c4.5,3.6,9.5,8.4,15.7,14.6c9.8,9.5,19.9,18.5,30.8,26.3
							c10.9,7.8,23,14.8,35.6,19.9c3.4,1.7,1.4,3.9,8.1,7.3c-19-9.5-34.4-17.6-48.4-25.2c15.7,10.9,33,20.2,51.2,27.4
							c16.8,7.3,32.8,12.6,48.7,17.1c16,4.2,31.9,7.3,49,8.7c3.6,0,7.3-0.3,10.9-0.3c18.2-1.1,36.7-5,53.8-11.5
							c-3.6,0.8-7.3,1.7-10.9,2.5c-3.6,0.8-7.6,1.4-11.5,2c11.5-3.4,26.3-7,37.2-10.4c-4.8,2.2-9.8,4.2-14.8,6.2
							c17.4-4.2,33.3-10.1,50.4-18.8c-20.4,10.4-42.6,19.3-61.9,24.6c21-4.8,40.3-11.8,58.8-21c18.2-9.2,35.6-20.2,52.4-33
							c-0.8,0.8-1.4,1.7-2.2,2.5c21.8-20.7,39.5-45.4,52.1-72.8c12.6-27.2,20.2-57.1,22.7-88.2c0.3-3.6,0.3-7.3,0-10.1
							c-0.3-3.1-0.6-5.6-1.4-7.8c-1.4-4.5-3.1-7.6-5-9.5c-3.6-3.9-7.3-2.8-7.3,0.6c0.8,30.8-5.3,61.6-17.4,89.3
							c-12,28-30.2,53.2-52.6,73.6c-22.4,20.4-49,36.1-77.3,45.6c-28.6,9.8-59.1,13.4-89,11.2c13.4,2.8,27.4,4.5,41.7,4.8
							c3.1-0.3,6.2-0.3,9.2-0.3c3.1,0,5.9-0.3,8.7-0.3c-3.1,0.3-5.9,0.3-9,0.6c-3.1,0-5.9,0-9,0c-16.8,0.8-35.3,0.8-52.9-2.8
							c-1.7-0.8-5-1.4-8.7-1.7c-3.6-0.6-7.3-0.6-9.8,0.3c-11.8-3.6-24.6-7.3-37.2-12.3c-12.6-5-24.6-10.9-34.4-18.2
							c-1.1-0.8-2.8-2.8-4.8-5c-12.9-8.1-25.2-17.6-36.4-28.3c-31.4-30-52.9-68.9-61.6-110c-9-41.2-5.6-84.3,9-122.4
							c-8.1,17.9-13.7,36.4-17.6,54.3c-3.1,12-3.6,31.4,0,52.9c3.6,21.3,11.5,44.2,21.3,63.8c2.5,4.8,4.2,9,5.6,13.2
							c0.8,2,1.7,4.2,2.5,6.2c0.8,2.2,2,4.5,3.4,6.7c-0.8-0.8-1.7-1.7-2.5-2.8c-0.8-0.8-1.7-2-2.2-2.8c-1.7-2-3.1-3.9-4.8-6.2
							c-2.8-4.5-5.9-9-8.1-13.7c-5-9.8-9.2-20.4-12.3-31.6c-3.1-11.2-5.3-22.7-6.4-34.4c-1.4-11.5-1.7-23.2-2-34.2
							c0-14.8,2-31.4,6.2-47.9s10.6-33.6,18.8-49.6c8.4-16,18.2-31.1,29.4-45.1c10.9-13.7,23-26,34.7-37.2
							c9.8-9.2,20.7-16.2,31.9-21.3c11.2-5,22.1-8.7,32.5-10.9c-6.7,4.2-19.9,9.8-26.3,13.2c-28.8,14.6-54.6,35.8-74.8,61.3
							c-19.9,26.3-34.2,56.6-41.4,88.5c4.8-16.2,10.9-31.9,18.5-46.8c7.8-14.8,16.8-28.6,27.4-41.4c21-25.5,47.6-46.2,78.1-58.8
							l-6.4,3.4l-6.4,3.6l-3.1,1.4l-3.1,2l-6.2,3.6l-5.9,3.9l-3.1,2l-2.8,2.2l-5.9,4.2l-5.6,4.5c-14.6,12-27.2,26.3-35.8,42.3
							c2.2-2,4.5-4.2,6.7-6.4c16-19.6,35.3-36.1,56.6-48.7c5.9-5,11.8-9.8,18.2-14c28.3-19.9,68-30.8,108.6-28.3
							c20.2,0.8,40.6,5,59.9,11.5c9.8,3.4,19.3,7.3,28.3,11.8c9.2,4.5,18.2,9.2,26.6,14.8c2.8,1.7,6.4,3.9,10.9,5.9
							c2.2,1.1,4.5,2.2,6.7,3.6c2.2,1.1,4.8,2.5,7,4.2c-20.2-17.4-42.6-32.2-68-41.4c9.8,4.8,18.8,9.8,26,16
							c-10.9-5.6-21-10.6-31.6-15.1c-5.3-2.2-10.6-4.2-16-6.2c-5.6-1.7-11.5-3.1-17.6-4.2c13.4,1.4,26.6,4.8,39.2,9.2
							C343.8,58.8,327,54,310,51c16.8,0.6,32.5,5.6,47,11.8c14.8,6.2,28.8,13.7,44.2,20.7c-6.2-3.6-12.3-7.3-18.5-10.6
							c6.4,3.4,12.6,7,18.8,10.9c0,0-0.3,0-0.3-0.3c9.2,5.6,18.2,11.8,26.9,18.2c8.7,6.4,16.5,13.2,24.1,19.9
							c-12.9-14-26.3-26.3-40.6-37.5c-14.6-10.9-30.5-20.2-48.2-26.9c-2.8-1.1-5.9-2-9-2.8l-4.5-1.4l-4.5-1.1
							c1.7,0.3,3.1,0.8,4.5,1.1c1.4,0.6,3.1,0.8,4.5,1.4c3.1,1.1,5.9,1.7,9,3.1c41.2,14.6,77,42.3,102.8,77
							c25.8,34.7,40.9,76.7,44.5,119c0.6,2.5,0.6,5.3,1.1,8.1c1.1-2.5,2-5,2.8-7.3c-3.4-35.6-14.3-71.1-33-102.2
							c-9.2-15.7-20.2-30.2-32.5-43.4C437.4,95.8,423.6,83.7,408.8,73.6z"/>
					</g>
				</g>
			</g>
		</g>
	</g>
</g>
<g opacity="0.51">
	<path fill="#FFFFFF" d="M179.8,246.4h192.6c0,0,7.6-47.3-9.8-65c-13.4-13.7-47.6,6.4-86.5,6.7c-42.8,0.6-79-14.6-87.4,0.6
		C170.8,221.5,179.8,246.4,179.8,246.4z"/>
	<g>
		<g>
			<g>
				<g opacity="0.8">
					<g opacity="0.8">
						<path fill="#EEE8E6" d="M205.2,179.5c7.6,0,14.8,1.1,22.1,2c7.3,1.1,14.6,2.2,21.6,3.1c14,1.7,28,2.2,39.8-0.3
							c2.8-0.6,5.3-1.1,8.1-1.7l-4.2,0.6c-15.7,1.7-31.9,0.3-48.4-2c-8.4-1.1-16.5-2.5-25.2-3.4c-4.2-0.6-8.7-0.8-13.2-0.8
							s-9.2,0.3-14.6,2.8c-1.7,0.8-3.1,2-4.5,3.1c-0.6,0.6-1.1,1.4-2,2.2c-0.6,0.8-1.1,1.7-1.4,2.2c-1.1,2.5-2.2,4.8-3.4,7.3
							c-2,5-3.6,10.4-4.8,15.7c-2.2,10.9-2.8,22.1-0.6,33.9c0.6,2.5,1.7,2.8,2,2.8c0-2.5,0-4.5,0.6-6.4c-1.7-9-1.4-18.5,0.3-27.7
							c0.3-2.2,1.1-4.5,1.7-6.7c0.8-2.2,1.4-4.5,2.2-6.7c0.8-2.2,1.7-4.5,2.8-6.4l1.7-3.1c0.6-1.1,1.1-2.2,2-3.4
							c2.2-2.8,5.6-4.5,8.7-5.6C200.5,179.8,203.3,179.5,205.2,179.5z"/>
						<path fill="#E6DEDB" d="M178.1,241.4v-0.3c-0.3-0.8-0.3-2-0.6-2.8C177.8,239.4,177.8,240.2,178.1,241.4z"/>
						<path fill="#ECE6E3" d="M183.1,196.8c1.1-3.1,2.5-5.6,3.9-8.4c0.8-1.4,2-3.1,3.4-3.9c1.4-1.1,3.1-2,4.5-2.2
							c3.9-1.7,7.8-2.5,10.4-2.5c7.6,0,14.8,1.1,22.1,2c7.3,1.1,14.6,2.2,21.6,3.1c14,1.7,28,2.2,39.8-0.3c2.5-0.6,5.3-1.1,7.8-1.7
							c-1.4,0.3-3.1,0.3-4.5,0.6c-5.3,0.6-10.9,0.8-16.5,0.8c-5.6,0-11.2-0.6-16.8-0.8c-0.6,0-1.1,0-2,0c-6.4,0-12.3-1.4-18.5-2.2
							c-8.7-0.8-16.8-2.2-25.2-3.1c-4.2-0.3-8.4-0.6-13.2,0c-2.2,0.3-4.8,0.8-7.6,1.7c-2.5,1.1-5.3,2.8-7.3,5.6c-1.4,2-2,3.4-2.5,5
							c-0.6,1.7-1.4,3.1-2,4.8c-0.6,1.7-1.1,3.4-1.7,5c-0.6,1.7-1.1,3.6-1.7,5.3c-0.6,2.5-1.4,5-2,7.6c-1.7,10.1-2.2,20.7,0,31.6
							c0.6,2.5,1.7,2.8,2.2,2.8c0-1.4,0-2.5,0-3.6c-1.7-8.7-1.7-17.4-0.3-26c1.1-7.6,3.1-15.1,6.2-22.1
							C183.7,196,183.4,196.3,183.1,196.8z"/>
						<path fill="#E6DEDB" d="M184.5,196.6c0.6-1.1,0.3-2.5-0.8-0.8c-3.1,7-5.3,14.6-6.2,22.1C178.9,210.6,181.2,203.3,184.5,196.6z
							"/>
						<path fill="#F4F0EE" d="M187,198.8c0.8-1.7,1.4-3.4,2.2-4.8l1.1-2.5l0.6-1.1l0.6-0.8c1.7-2.2,4.2-3.6,7.3-4.2
							c6.2-1.1,12.9-0.6,18.8,0.6c6.2,1.1,12.3,2.5,17.9,4.2c2,0.3,4.2,0.6,6.2,0.8c12.6,1.4,25.5,2.2,38.6,1.7
							c12.9-0.8,25.8-3.4,38.1-6.2c6.2-1.4,12.3-2.8,18.2-3.9c5.9-1.1,12-2,17.1-0.8c2.5,0.6,4.5,1.7,5.9,3.4l2.5,3.1l2,3.6
							c2.2,5,3.6,10.9,4.2,16.8c0.8,5.9,1.1,11.8,1.1,17.6c0,3.1,0,5.9-0.3,9l-0.3,4.5l-0.3,2.2v0.6v0.6c0,0.3-0.3,0-0.6,0.3h-0.6
							c0,0-0.3,0-0.6,0h-1.1c-3.1,0-6.2,0.3-9.2,0.3c-6.2,0.3-12.3,0.6-18.8,0.8c-15.1,0.3-27.4-0.8-42.3-1.4
							c-37-1.7-69.2,2-106.7,3.1c-10.1,0.3-11.5,3.9-9,3.9c63.3-1.4,123.2,0,186.5-0.8h5.9h1.7h0.3v-0.3v-0.8l0.3-3.1l0.3-3.1
							l0.3-2.2l0.3-4.5c0.3-6.2,0.6-12.3,0-18.2c-0.3-6.2-1.1-12-2.5-17.9c-1.4-5.9-3.9-11.8-7.8-16.8c-1.7-2.5-4.8-4.8-7.8-5.9
							s-6.4-1.4-9.2-1.4c-6.2,0-12,1.1-17.6,2c-11.5,2.2-22.4,4.8-33.6,6.2c-2.8,0.6-5.3,1.4-8.1,1.7c-11.2,2-25.2,1.4-39.2-0.3
							c-7-0.8-14.3-2-21.6-3.1c-7.3-1.1-14.6-2.2-22.1-2c-2,0-4.8,0.6-7.8,1.4c-3.1,1.1-6.4,2.8-8.7,5.6c-0.8,1.1-1.4,2.2-2,3.4
							l-1.7,3.1c-1.1,2.2-2,4.5-2.8,6.4c-0.8,2.2-1.4,4.5-2.2,6.7c-0.6,2.2-1.1,4.5-1.7,6.7c-1.7,9.2-2,18.5-0.3,27.7
							c0.8-3.9,2-6.7,2.8-10.4C180.3,219.5,182.6,208.3,187,198.8z"/>
						<path fill="#E5DDD9" d="M187,198.8c-4.5,9.5-6.7,20.7-6.2,31.4c0.6-1.7,0.8-3.6,1.4-5.9c1.1-6.4,2.8-12.9,5-19
							c0.6-1.7,1.1-3.1,2-4.8c0.6-1.7,1.4-3.1,2.2-4.8l1.1-2.2c0.3-0.6,0.8-1.7,1.1-2c0.6-0.8,1.1-1.4,2-2c2-1.1,5-1.7,8.4-2
							c3.4-0.3,6.7,0,10.4,0.3c7,0.6,14.3,1.4,21.6,2.2c-5.3-1.7-11.5-3.1-17.9-4.2c-5.9-1.1-12.6-1.7-18.8-0.6
							c-3.1,0.6-5.9,2-7.3,4.2l-0.8,0.8l-0.6,1.1l-1.1,2.5C188.4,195.7,187.6,197.1,187,198.8z"/>
						<path fill="#ECE6E3" d="M187,198.8c-4.5,9.2-6.4,19.6-6.2,30c0.3-3.4,0.8-7,1.4-10.4c1.7-9,4.8-17.4,9-25.5
							c1.1-2.2,1.7-3.4,3.1-4.2c1.4-0.8,3.1-1.4,5-2c3.9-0.6,8.4-0.3,12.9,0.3c-4.8-0.3-9.5-0.6-13.4,0.6c-2,0.6-3.6,1.1-4.5,2.2
							c-0.6,0.6-0.8,1.1-1.4,2l-1.7,3.1c-2.2,4.2-3.9,8.7-5.3,13.2c-1.4,4.5-2.2,9.2-2.8,14c1.1-6.2,2.8-12.6,5.3-18.5
							c1.4-3.1,2.5-6.2,4.2-9l1.1-2.2c0.3-0.6,0.3-0.6,0.6-0.8c0-0.3,0.3-0.3,0.3-0.6c0.6-0.6,1.4-1.4,2.2-1.7
							c2.2-1.1,5.3-1.4,8.4-1.7c3.4,0,6.7,0,10.1,0.3c7,0.6,14,1.4,20.7,2.2c-5.3-1.7-11.5-3.1-17.9-4.2c-5.9-1.1-12.6-1.7-18.8-0.6
							c-3.1,0.6-5.9,2-7.3,4.2l-0.8,0.8l-0.6,1.1l-1.1,2.5C188.4,195.7,187.6,197.1,187,198.8z"/>
						<path fill="#E3DAD6" d="M207.2,184.5c-2.8,0-5.3,0-8.1,0.3c-2.5,0.3-5,1.1-6.7,2.8c-0.8,0.8-1.7,1.7-2.2,2.8l-2,3.6
							c-1.4,2.5-2.2,5-3.4,7.6c-3.9,10.4-6.2,21.6-5,32.8c0.3-1.1,0.6-2,0.8-2.8c0-0.8,0-1.7,0.3-2.8c-0.3-10.4,2-20.7,6.2-30
							c0.8-1.7,1.4-3.4,2.2-4.8l1.1-2.5l0.6-1.1l0.6-0.8c1.7-2.2,4.2-3.6,7.3-4.2c6.2-1.1,12.9-0.6,18.8,0.6
							c6.2,1.1,12.3,2.5,17.9,4.2c2,0.3,3.9,0.6,5.9,0.6c12.9,1.4,26,2.2,39.5,1.7c13.2-0.8,26-3.6,38.6-6.4
							c5.3-1.4,10.9-3.1,16.5-4.2c5.6-1.1,11.2-2,16.2-1.4c2.5,0.3,4.8,1.1,6.7,2.5c0.6,0.3,0.8,0.8,1.4,1.1l1.1,1.4l1.1,1.4
							c0.3,0.6,0.6,1.1,0.8,1.7c2.5,4.8,4.2,10.1,4.8,15.7c-0.8-5-2.5-10.1-4.8-14.6c-1.1-2.2-2.8-3.9-4.2-5.6
							c-1.4-1.4-3.4-2.2-5.3-2.8c2.2,0.6,4.2,1.7,5.9,3.4c0.8,1.1,1.7,2,2.2,3.1l2,3.6c2.2,5,3.4,10.6,4.2,16.2
							c1.4,10.1,1.4,20.2,0.8,30c0.3,0.6,0.3,1.1,0.3,2c0,0.3,0,0.8,0.3,1.1c0,0.3,0,0.8,0,1.1c0,0.3,0.3,0.8,0.3,1.7v0.6v0.3
							c0,0,0,0-0.3,0c-0.3,0-0.6,0-1.1,0c-0.8,0-3.4,0.3-5.6,0.3c-2.2,0-4.5,0-6.7,0.3c-4.5,0-9,0.3-13.4,0.6
							c-1.1,0-1.1-0.6-3.6-0.8c7,0,12.6-0.3,17.6-1.1c-6.2,0.3-12.6,0.6-18.8,0.8c-12,0.3-22.1-0.3-33-0.8h-3.6
							c-5.9,0-11.8,0.6-17.9,0.8c2.5,0,4.8,0,7.6,0c-3.9,0.3-9,0.3-12.6,0.3c1.7,0,3.6-0.3,5.3-0.3c-5.9,0-11.5,0-17.6-0.3
							c7.6,0,15.1-0.3,21.6-0.6c-13.7,0-26.6,0.3-40-0.3c0.3,0,0.6,0,1.1,0c-19.3,0.8-38.6,2.2-59.6,3.1c-10.1,0.3-11.5,3.9-9,3.9
							c44.2-1.1,86.8-0.6,129.9-0.6c-4.8-0.6-9.8-0.8-14.6-1.4c-2.2,0-4.2-0.3-6.2-0.6c2,0.3,4.2,0.3,6.2,0.6
							c5.9,0.3,12.3,0.3,18.5,0.6c1.1,0.3,5,0.3,6.4-0.3c8.7,0.6,18.8,0,27.4,0.6c0.6,0,1.4,0.3,2.2,0.6c5.3,0,10.9,0,16.5-0.3h3.6
							h2h1.1h0.6c0.3,0,0.3,0,0.3-0.3l0.6-3.9c0.3-1.4,0.3-2.8,0.3-3.6c0.3-3.9,0.6-7.6,0.8-11.5c0.3-7.6,0-15.1-1.1-22.7
							c-1.1-7.6-2.8-15.1-7-21.8c-0.6-0.8-1.1-1.7-1.7-2.5l-2-2.2c-1.4-1.4-3.1-2.8-5-3.9c-3.9-2-7.8-2.2-11.8-2.2
							c3.6,0,7.6,0.8,10.9,2.5c1.7,0.8,3.1,2,4.5,3.4c1.1,1.4,2,2.8,2.8,4.2c2.2,3.9,5,9.8,6.4,17.4c1.7,7.3,2.5,15.7,2.5,23.2
							c0,3.9-0.6,6.2-0.8,9.8c-0.6-6.7-0.6-14.3-1.1-22.1s-2-16-5.3-22.7c-1.1-2.2-2.5-4.5-4.2-6.7c-1.4-2.2-3.9-3.9-6.7-5
							c-5.6-2.2-11.8-1.7-17.9-0.8c-12.3,2-24.4,5.3-35,7.8c-8.7,2.2-17.4,2.5-24.6,2.2c2.5-0.6,7.6-0.8,10.1-1.1
							c11.2-1.1,22.1-3.6,33-6.2c5.6-1.1,10.9-2.5,16.8-3.4c5.6-0.8,11.5-1.4,17.4,0.3c-5.9-2-12-1.4-17.9-0.8
							c-5.9,0.8-11.5,2-17.1,3.4c-11.2,2.5-22.7,4.8-34.2,5.6c13.4-1.4,26.6-3.6,39.2-7.6c-1.1,0-2.2,0.3-3.4,0.3
							c-9,2-17.6,3.6-26.6,4.8c-2.5,0.6-5.3,1.4-7.8,1.7c-10.9,2.2-24.9,1.7-38.9,0c-7-0.8-14.3-2-21.6-3.1
							c-7.3-1.1-14.6-2.2-22.1-2c-2.5,0-6.4,0.6-10.4,2.5c5-1.7,9.8-1.4,14.6-1.1c4.8,0.3,9.5,0.8,14,1.4c-3.6-0.6-7.3-1.4-10.6-2.2
							c9,0.6,16,2.8,24.6,3.6c-4.8-0.3-9.5-1.1-14-1.7c5.6,1.1,11.5,2,17.4,2.8c-11.5-0.6-21.8-4.5-33.6-3.6c2.5,0,5,0.3,7.3,0.6
							c-2.5-0.3-5-0.6-7.6-0.6h0.3c-3.9,0-7.6,0.3-11.2,1.4c-3.6,1.1-6.7,3.9-7.8,7.3c1.4-3.1,3.9-5.3,7-6.2c3.1-1.1,6.2-1.1,9-1.1
							c6.2,0,12,1.1,18.5,1.7c2,0.3,4.2,0.6,6.2,0.8c-2.2-0.3-4.5-0.3-6.4-0.6c-7.3-0.8-14.6-1.7-21.6-1.1c-3.4,0.3-7,1.1-9.5,3.6
							c-1.4,1.1-2.2,2.5-3.1,4.2c-0.8,1.7-1.7,3.1-2.5,4.8c-6.2,13.2-9.8,27.7-8.1,42.3c0,0.8,0.3,2,0.6,2.8c0-0.8,0.3-1.7,0.6-2.5
							c-1.4-11.8,0.6-24.1,5-35.3c0.6-1.4,1.1-2.8,1.7-4.2c0.6-1.4,1.1-2.8,2-3.9l2.2-3.9c0.8-1.4,1.4-2.5,2.2-3.4
							c2-1.7,4.5-2.8,7-3.1C201.3,184.2,204.4,184.2,207.2,184.5z"/>
					</g>
				</g>
			</g>
		</g>
	</g>
</g>
<g>
	<g>
		<g>
			<g>
				<g opacity="0.8">
					<g opacity="0.8">
						<path fill="#FFFFFF" d="M285.9,412.4c0.6,4.5-3.6,9.2,0.6,12.9c0.3,0.6,0.8,0.8,1.4,1.4c0-0.3,0.3-0.6,0.3-0.6
							c2.5-5,3.4-10.4,2.2-15.4c-1.4-3.1-4.2-6.2-3.9-9.8c0-0.3-1.7-0.6-2.5-0.6c-1.1,0.3-2.2,0.6-3.6,0.8c0.8,2.8,2.5,5.6,2.5,8.4
							C283.1,410.8,285.9,411.9,285.9,412.4z"/>
						<path fill="#FFFFFF" d="M280.8,401.2C280.8,401.2,280.6,401.2,280.8,401.2c-0.3,0.3-0.3,0.3,0,0.6
							C280.8,401.5,280.8,401.5,280.8,401.2z"/>
						<path fill="#FFFFFF" d="M283.4,408.2c0.6,0.8,0.6,2,0.6,2.8c0.8,0.6,2,1.1,2,1.4c0.6,4.5-3.6,9.2,0.6,12.9
							c0.3,0.6,0.8,0.8,1.4,1.4c0-0.3,0.3-0.6,0.3-0.8c0.8-1.7,1.7-3.4,2-5.3l-0.3-0.3c-1.1-1.1,0.3-2,0.6-2.8
							c-0.8-2.8,0.3-5-0.6-7.8c-0.3-0.8-2.2-2-2.2-3.1c0-0.3,0-0.8,0.3-1.1c-0.8-1.4-1.4-3.1-1.1-4.8c0-0.3-1.7-0.6-2.5-0.6
							c-0.6,0.3-1.1,0.3-2,0.6c-0.3,1.4-0.3,2.5-0.3,3.9c0.6,1.1,0.8,2.2,1.1,3.4C283.1,408.2,283.4,408.2,283.4,408.2z"/>
						<path fill="#FFFFFF" d="M280.8,408.2c0,0.3,1.1,0.3,2.2,0c-0.3-1.1-0.6-2.2-1.1-3.4C281.7,406,281.7,407.1,280.8,408.2z"/>
						<path fill="#FFFFFF" d="M274.7,408c-0.8,2.2,1.4,4.5,0,6.4c-0.8,1.1-2,2-3.6,2.8c0,0.3,0,0.6,0,0.8c1.4,7.8,2,15.4,0,23.2
							c-0.6,3.9,2.5,7.3,4.5,11.2c0.6,2.2-1.4,4.2-2.8,6.4c-3.6,5.6,3.9,10.6,6.4,16.2c0.6,1.7,7.6,1.7,7.8,1.4
							c-2.8-9.8,0.3-18.8-1.7-28.6c-1.4-7.6-0.3-14.6,3.1-21.6c-0.6-0.6-0.8-0.8-1.4-1.4c-4.2-3.9,0-8.4-0.6-12.9
							c0-0.6-2.8-1.7-2.8-2.5c0-2.8-1.7-5.6-2.5-8.4c-2.5,0.6-5.3,1.1-7,1.7C274.4,404.6,275.5,406.3,274.7,408z"/>
						<path fill="#FFFFFF" d="M274.7,408c0.8-1.7,0-3.4-1.1-5c-0.8,0.3-1.7,0.6-2.2,0.8c-3.9,4.2-1.1,9-0.6,13.4
							c1.7-0.8,3.1-1.7,3.6-2.8C276.1,412.4,273.8,410.5,274.7,408z"/>
						<path fill="#FFFFFF" d="M274.7,408c0.8-1.7,0-3.4-1.1-4.8c-0.3,0.6-0.6,1.1-0.8,1.7c-0.6,2.8,0,5.9-1.7,8.7
							c0-3.1,0.3-6.2-0.3-9.2c-3.4,4.2-0.6,8.7,0,12.9c1.7-0.8,3.1-1.7,3.6-2.8C276.1,412.4,273.8,410.5,274.7,408z"/>
						<path fill="#FFFFFF" d="M275.5,412.7c0.8-3.4,1.4-7,0.3-10.4c-0.6,0.3-1.4,0.3-2,0.6c0,0.3-0.3,0.3-0.3,0.6
							c0.8,1.7,1.7,3.4,1.1,4.8c-0.8,2.2,1.4,4.5,0,6.4c-0.8,1.1-2,2-3.6,2.8c0,0.3,0,0.6,0,0.8c0.8,3.9,1.1,7.8,1.4,11.8
							c2.2,3.4,1.7,7.3,0,10.6c0-1.7,0-3.4-0.3-5c-0.3,2-0.6,3.6-1.1,5.6c-0.3,1.7,0.3,3.1,0.8,4.8c1.7,0.3,3.1,0.8,3.4,1.7
							c0.6,1.4,0.6,2.8,2,4.2c0,0.3-1.4,0.3-1.4,0.6c0.3-1.1-0.8-2-2.2-2.8c0.6,0.8,1.1,2,1.7,2.8c0.3,2-0.8,3.4-2,5
							c0,0.3,0,0.3,0.3,0.6c0.3,0.8,0.8,1.7,1.7,2.8c0-0.3,0-0.8,0.3-1.1c0.8,0.6,0.6,1.4,0.6,2c-0.3-0.3-0.6-0.6-0.8-0.8
							c0,0.8-0.3,1.7-0.3,2.8c0.3-1.1-0.6-2.2-1.1-3.4c0,2.2,0.6,4.2-0.6,6.2c0,0-0.3,0-0.3-0.3c1.7,3.1,4.5,5.9,5.9,9.2
							c0.6,1.7,7.6,1.7,7.8,1.4c-2-6.7-1.1-13.2-1.1-19.9c-0.8,0.8-2,1.4-2.8,2.2c-0.3,0.3-0.6,0.6-1.1,0.8c0.3-0.3,0.8-0.6,1.1-0.8
							c0.6-0.8,0.6-2,1.4-2.8c0.6-0.3,0.6-0.8-0.8-1.1c1.1-1.4,0-2.8,1.1-4.2c0,0,0.3-0.3,0.8-0.3c0-0.8-0.3-1.7-0.3-2.5
							c-0.8-4.8-0.8-9.2,0.3-13.7c-0.8,1.1-1.7,2.2-3.1,3.1c-2,1.4-0.3,3.9,0.3,6.4c0.3,0.6-1.1,0.8-1.1,1.4c-3.6-2-1.1-4.8-1.7-7
							c-0.3-3.1,2.8-7.6,0.3-10.6c-1.1-1.4,0.3-2.8,2-3.9c0.8,0.3,0.8,1.1,0.6,1.7c-0.6,3.4-1.1,7-0.8,10.4c2-3.6,1.1-7,3.4-10.6
							c0,2.2-2,4.2,0,6.2c0.3-0.3,0.6-0.3,0.8-0.6c0.6-1.4,1.1-2.8,1.7-4.2c-0.6-0.6-0.8-0.8-1.4-1.4c-4.2-3.9,0-8.4-0.6-12.9
							c0-0.3-1.1-0.8-2-1.4c-0.3,1.4-0.8,2.8-0.8,4.2c0.6-0.6,1.1-1.1,2-1.7c0.3,1.4-1.7,2.5-1.4,3.9c-0.3-0.8-0.6-1.4-0.6-2.2
							c-0.6,0.8-0.8,1.7-1.4,2.8c-1.4-1.7,2.2-3.4,0-5.3c0,0.3,0,0.8-0.3,1.1c0-0.3,0-0.8,0.3-1.1l0,0c0-1.1-0.8-2.2-1.7-3.4
							c0,2-1.7,3.9-1.7,5.6c0,0.3,0,0.6,0.3,0.8c0-0.3-0.3-0.6-0.3-0.8c-0.8-4.5,1.4-9,2.2-13.4c0-0.3,0-0.3-0.3-0.6
							c-0.6,0-1.1,0.3-1.7,0.3C278.3,405.4,277.2,409.1,275.5,412.7z"/>
					</g>
				</g>
			</g>
		</g>
	</g>
</g>
<g>
	<g>
		<g>
			<g>
				<g opacity="0.8">
					<g opacity="0.8">
						<path fill="#FFFFFF" d="M327.9,476.3c-8.1,0.6-16.8-3.6-23.8,0.6c-0.8,0.3-1.7,0.8-2.2,1.4c0.3,0,0.8,0.3,1.1,0.3
							c9,2.5,18.8,3.4,28,2.2c5.6-1.4,11.5-4.2,17.9-3.9c0.8,0,0.8-1.7,0.8-2.5c-0.6-1.1-1.1-2.2-1.7-3.6c-5,0.8-10.4,2.5-15.7,2.5
							C331,473.5,329,476.3,327.9,476.3z"/>
						<path fill="#FFFFFF" d="M348.3,471.2C348.3,471.2,348.3,471,348.3,471.2c-0.3-0.3-0.6-0.3-0.8,0
							C347.8,471.2,348,471.2,348.3,471.2z"/>
						<path fill="#FFFFFF" d="M335.7,473.8c-1.7,0.6-3.4,0.6-5,0.6c-1.1,0.8-2.2,2-2.8,2c-8.1,0.6-16.8-3.6-23.8,0.6
							c-0.8,0.3-1.7,0.8-2.2,1.4c0.6,0,0.8,0.3,1.4,0.3c3.1,0.8,6.4,1.7,9.5,2c0.3,0,0.3-0.3,0.6-0.3c2-1.1,3.6,0.3,5.3,0.6
							c5-0.8,9.2,0.3,14.3-0.6c1.7-0.3,3.6-2.2,5.9-2.2c0.8,0,1.4,0,2,0.3c2.8-0.8,5.6-1.4,8.7-1.1c0.8,0,0.8-1.7,0.8-2.5
							c-0.3-0.6-0.6-1.1-0.8-2c-2.5-0.3-4.8-0.3-7.3-0.3c-2.2,0.6-4.2,0.8-6.4,1.1C335.4,473.5,335.7,473.8,335.7,473.8z"/>
						<path fill="#FFFFFF" d="M335.7,471.2c-0.3,0-0.6,1.1,0,2.2c2.2-0.3,4.2-0.6,6.4-1.1C339.9,472.1,337.7,472.1,335.7,471.2z"/>
						<path fill="#FFFFFF" d="M336,465.1c-4.2-0.8-8.1,1.4-11.8,0c-1.7-0.8-3.6-2-5-3.6c-0.6,0-1.1,0-1.7,0c-14.3,1.4-28.3,2-42.3,0
							c-7-0.6-13.4,2.5-20.7,4.5c-4.2,0.6-7.6-1.4-11.8-2.8c-10.4-3.6-19.3,3.9-30,6.4c-2.8,0.6-3.4,7.6-2.5,7.8
							c17.9-2.8,34.4,0.3,52.4-1.7c13.7-1.4,26.6-0.3,39.5,3.1c0.8-0.6,1.7-0.8,2.2-1.4c7-4.2,15.4,0,23.8-0.6
							c1.1,0,3.1-2.8,4.8-2.8c5.3,0,10.4-1.7,15.7-2.5c-1.1-2.5-2-5.3-2.8-7C342.2,464.8,339.1,465.9,336,465.1z"/>
						<path fill="#FFFFFF" d="M336,465.1c3.1,0.8,6.2,0,9.2-1.1c-0.6-0.8-1.1-1.7-1.7-2.2c-7.6-3.9-16.2-1.1-24.4-0.6
							c1.7,1.7,3.4,3.1,5,3.6C327.6,466.5,331.8,464.2,336,465.1z"/>
						<path fill="#FFFFFF" d="M336,465.1c2.8,0.8,5.9,0,9-1.1c-1.1-0.3-2-0.6-3.1-0.8c-5.3-0.6-10.6,0-15.7-1.7
							c5.6,0,11.2,0.3,16.8-0.3c-7.6-3.4-16-0.6-23.8,0c1.7,1.7,3.4,3.1,5,3.6C327.6,466.5,331.8,464.2,336,465.1z"/>
						<path fill="#FFFFFF" d="M327.3,465.9c6.4,0.8,12.6,1.4,19,0.3c-0.3-0.6-0.6-1.4-0.8-2c-0.3,0-0.6-0.3-0.8-0.3
							c-3.1,0.8-5.9,1.7-9,1.1c-4.2-0.8-8.1,1.4-11.8,0c-1.7-0.8-3.6-2-5-3.6c-0.6,0-1.1,0-1.7,0c-7.3,0.8-14.6,1.1-21.6,1.4
							c-6.2,2.2-13.2,1.7-19.6,0c3.1,0,6.2,0,9.2-0.3c-3.4-0.3-7-0.6-10.4-1.1c-3.1-0.3-5.9,0.3-8.7,0.8c-0.6,1.7-1.4,3.1-3.1,3.4
							c-2.5,0.6-5,0.6-7.6,2c-0.3,0-0.3-1.4-1.1-1.4c2,0.3,3.6-0.8,5-2.2c-1.7,0.6-3.4,1.1-5.3,1.7c-3.4,0.3-6.2-0.8-9.2-2
							c-0.3,0-0.6,0-1.1,0.3c-1.7,0.3-3.4,0.8-5,1.7c0.6,0,1.4,0,2,0.3c-1.1,0.8-2.5,0.6-3.6,0.6c0.6-0.3,1.1-0.6,1.4-0.8
							c-1.7,0-3.1-0.3-5-0.3c2.2,0.3,4.2-0.6,6.2-1.1c-3.9,0-7.6,0.6-11.2-0.6l0.3-0.3c-5.3,1.7-10.9,4.5-16.8,5.9
							c-2.8,0.6-3.4,7.6-2.5,7.8c12.3-2,24.4-1.1,36.4-1.1c-1.4-0.8-2.8-2-4.2-2.8c-0.6-0.3-1.1-0.6-1.7-1.1
							c0.6,0.3,1.1,0.8,1.7,1.1c1.7,0.6,3.4,0.6,5.3,1.4c0.3,0.6,1.4,0.6,1.7-0.8c2.5,1.1,5.3,0,7.8,1.1c0.3,0,0.3,0.3,0.6,0.8
							c1.4,0,3.1-0.3,4.5-0.3c8.7-0.8,16.8-0.8,24.9,0.3c-2-0.8-3.9-1.7-5.6-3.1c-2.2-2-7.3-0.3-11.8,0.3c-1.1,0.3-1.7-1.1-2.8-1.1
							c3.6-3.6,8.4-1.1,12.9-1.7c5.6-0.3,13.7,2.8,19.6,0.3c2.5-1.1,5,0.3,7,2c-0.8,0.8-2.2,0.8-2.8,0.6c-6.4-0.6-12.6-1.1-19-0.8
							c6.7,2,12.9,1.1,19.6,3.4c-3.9,0-7.6-2-11.2,0c0.3,0.3,0.6,0.6,0.8,0.8c2.5,0.6,5,1.1,7.6,1.7c0.8-0.6,1.7-0.8,2.2-1.4
							c7-4.2,15.4,0,23.8-0.6c0.6,0,1.7-1.1,2.8-2c-2.5-0.3-5.3-0.8-7.8-0.8c1.1,0.6,2,1.1,3.1,2c-2.5,0.3-4.5-1.7-7-1.4
							c1.4-0.3,2.5-0.6,3.9-0.6c-1.7-0.6-3.4-0.8-5-1.4c3.4-1.4,6.2,2.2,9.5,0c-0.6,0-1.4,0-2-0.3c0.8,0,1.4,0,2.2,0.3l0,0
							c2.2,0,4.2-0.8,6.2-1.7c-3.6,0-7-1.7-10.4-1.7c-0.6,0-1.1,0-1.7,0.3c0.6,0,1.1-0.3,1.7-0.3c8.1-0.8,16.2,1.4,24.6,2.2
							c0.3,0,0.6,0,0.8-0.3c-0.3-0.6-0.6-1.1-0.6-1.7C340.8,468.7,334,467.6,327.3,465.9z"/>
					</g>
				</g>
			</g>
		</g>
	</g>
</g>
<g>
	<g>
		<g>
			<g>
				<g opacity="0.8">
					<g opacity="0.8">
						<path fill="#FFFFFF" d="M303.2,131.3c12-0.3,24.1,0,36.1,0.3c6.2,0,12,0.3,18.2,0.3c7,0,14,0.3,20.7,0.3c2,0,4.2,0,6.2,0.3
							h0.8h0.3v0.3v1.7l-0.3,3.1c-0.3,4.2-0.6,8.1-0.8,12c-0.6,5.9-0.8,11.5-1.4,17.1c-0.8,11.2-1.4,22.1-1.4,32.2
							c0,4.5-0.3,9.2-0.3,14c0.3-2.2,0.8-4.8,1.1-7c2.2-13.2,4.2-26.6,5.9-40.3c0.3-3.4,0.8-7,1.1-10.4l0.6-5.3l0.8-9.5l0.6-10.1
							l0.3-2.5c0-0.3,0-0.8,0-1.4h-1.1h-5c-3.4,0-6.7-0.3-10.1-0.3h-8.4c-28-0.3-56-0.3-82.9,0c-33.6,1.4-67.8,4.2-105,3.9
							c-4.2,0-4.8,1.7-5,2.5c3.6,1.1,6.7,2.2,9.8,3.6c30.2-0.8,60.5-2.5,91.6-2.5C285.9,134.1,297.1,131.3,303.2,131.3z"/>
						<path fill="#FFFFFF" d="M182.8,136.4l0.6,0.3c1.4,0,3.1,0,4.5-0.3C186.2,136.4,184.5,136.4,182.8,136.4z"/>
						<path fill="#FFFFFF" d="M257,133.8c10.1-0.6,20.2-0.6,30-0.6c6.4-0.8,12.6-2,16.5-2c12-0.3,24.1,0,36.1,0.3
							c6.2,0,12,0.3,18.2,0.3c7,0,14,0.3,20.7,0.3c2,0,4.2,0,6.2,0.3h0.8h0.3v0.3v1.7l-0.3,3.1c-0.3,4.2-0.6,8.1-0.8,12
							c-0.6,5.9-0.8,11.5-1.4,17.1c-0.8,11.2-1.4,22.1-1.4,32.2c0,4.5-0.3,9.2-0.3,13.7c0.3-2.5,0.8-5,1.1-7.6
							c1.4-9.2,2.8-18.2,4.2-27.7c0.6-4.8,1.1-9.5,2-14.3l0.8-7.3l0.3-3.6l0.6-4.5c0-2,0-3.9,0-5.6c0-5,0-9.8,0.3-14.6v-0.6
							c0,0-0.3,0-0.6,0h-0.8h-1.7h-3.6c-2.2,0-4.8,0-7-0.3l-7.3-0.3l-4.2-0.3c-2.5-0.3-5-0.3-7.6-0.3c-29.4,0.8-53.8-0.3-83.2,0.6
							c-10.4,0.3-21.6,2.2-33.9,2.2c-4.2,0-8.4,0-12.3-0.3c-16.2,0.8-32.8,1.4-50.1,1.1c-4.2,0-4.8,1.7-5,2.5c2,0.6,3.6,1.1,5.3,2
							c14,0.3,28,0.3,42.3,0.3c12.3-0.6,24.9-0.8,37.5-1.1C258.4,134.1,257.9,133.8,257,133.8z"/>
						<path fill="#FFFFFF" d="M258.2,136.4c1.7,0,3.9-1.1,0.8-2.2c-12.6,0.3-25.2,0.6-37.5,1.1C233.5,135.5,245.6,135.5,258.2,136.4
							z"/>
						<path fill="#FFFFFF" d="M256.2,142.5c24.6,0.8,48.2-1.4,68.3,0c10.6,0.8,21,2,30.2,3.6c3.4,0,6.7,0,10.1,0h3.9
							c0.6,0,0.3,0,0.6,0h0.3h0.3h1.4c0,0.3,0,0.8,0,1.4v0.3v0.6l-0.3,3.4c-0.6,10.4-1.4,20.7-2.5,30.8c-2,20.7-4.2,41.2-7,61.6
							c-3.1,20.4-6.7,40.3-12,59.9c-5.3,19.3-12.3,38.6-22.1,55.2c-9.8,16.5-21.8,30.5-38.1,36.1l-1.4,0.6l-1.7,0.3l-3.1,0.8
							c-2.2,0.6-4.2,0.6-6.4,0.8c-4.2,0.3-8.7,0-12.9-0.8c-8.7-2-16.8-7-24.1-14c-8.4-8.4-13.7-18.2-18.2-28
							c-4.5-10.1-7.6-20.4-10.9-31.9c-7.8-28.8-14.3-56-20.4-83.7c-5.9-27.7-11.5-56-14.3-87.1c-1.4-16.5-8.4-18.8-8.4-14.6
							c1.7,26.3,4.2,52.1,7.3,77.6c3.4,25.5,7.3,50.7,13.2,75.6c5.9,24.9,13.4,49.8,25.8,73.1c6.4,11.5,14,22.7,24.6,31.9
							c5.3,4.5,11.5,8.4,17.9,10.9c6.7,2.5,14,3.6,21,3.4c10.9-0.3,21.6-3.6,30.8-9.5c9-5.6,16.5-13.2,22.7-21.6
							c12-16.5,19.6-35.3,26-53.8c6.2-18.5,10.6-37.2,14.8-56c3.9-18.8,7.3-37.5,10.4-56.3c0-4.8,0.3-9.2,0.3-14
							c0-10.4,0.6-21,1.4-32.2c0.6-5.6,0.8-11.2,1.4-17.1c0.3-3.9,0.6-8.1,0.8-12l0.3-3.1V133v-0.3c0-0.3-0.3,0-0.3,0H385
							c-2,0-4.2,0-6.2-0.3c-6.7,0-13.7-0.3-20.7-0.3c-5.9,0-12-0.3-18.2-0.3c-12-0.3-24.4-0.3-36.1-0.3c-6.2,0-17.4,2.8-27.7,2.8
							c-31.1,0-61.3,1.7-91.6,2.5c6.2,2.5,10.9,5.3,17.4,7C219.8,142.8,238.3,141.7,256.2,142.5z"/>
						<path fill="#FFFFFF" d="M256.2,142.5c-17.9-0.8-36.4,0-54.9,1.1c3.1,0.8,6.4,1.7,10.4,2.2c45.1,3.9,96,1.1,143.1,0.6
							c-9.2-1.7-19.6-3.1-30.2-3.6C304.4,141.1,280.8,143.4,256.2,142.5z"/>
						<path fill="#FFFFFF" d="M256.2,142.5c-17.1-0.8-34.7,0-52.4,1.1c5.9,0.3,12,0.6,18.2,0.8c31.1,0.6,62.2,0,92.7,1.7
							c-33,0-65.8-0.3-99.1,0.3c44.2,3.4,93.5,0.6,139.2,0c-9.2-1.7-19.6-3.1-30.2-3.6C304.4,141.1,280.8,143.4,256.2,142.5z"/>
						<path fill="#FFFFFF" d="M306.3,141.7c-37.2-0.8-74.5-1.4-112.3-0.3c1.7,0.6,3.1,1.4,5,2c1.7,0,3.1,0.3,4.8,0.3
							c17.6-0.8,35.3-1.7,52.4-1.1c24.6,0.8,48.2-1.4,68.3,0c10.6,0.8,21,2,30.2,3.6c3.1,0,6.4,0,9.5,0h3.9h0.8h0.3h0.3h1.4
							c0.3,0.3,0,0.8,0.3,1.4v0.3v0.6l-0.3,3.4c-0.6,10.6-1.7,21-2.5,31.6c-2,21-4.2,42-7.3,63c-1.7,18.2-4.8,37-9.5,55.7
							c-4.8,18.5-11.2,37-20.4,52.9c8.1-15.4,13.4-32.5,17.9-49.8c-5.3,19-12,37.5-21.6,53.8c-8.4,14-17.9,26.3-30.8,33.3
							c-0.6,0.6-1.1,1.4-2,2.2c-0.8,0.8-1.7,1.7-2.8,2.2c-1.1,0.6-2.5,1.4-4.2,2s-3.6,1.1-5.6,1.4c-13.4,2.5-26.6-1.7-38.4-10.1
							c-1.4-1.4-0.3-2-3.1-4.8c7.6,7.8,16.2,11.5,23.5,12c-8.7-2-17.1-6.7-24.4-13.7c-6.4-6.4-11.5-14-15.4-21.6s-7-15.7-9.8-24.1
							c-0.8-1.7-1.4-3.4-2.2-5.3c-3.6-8.7-7.3-17.9-10.6-26.9c1.1,3.9,2,7.6,3.4,11.8c-2.8-5.9-4.8-13.7-6.2-19.6
							c1.1,2.8,2,5.3,3.1,8.1c-2.5-9.2-4.5-17.9-6.4-28c2.5,12,6.2,24.1,9.8,33.9c-6.4-21.6-11.2-41.7-13.7-63.8
							c0.3,0.6,0.3,1.1,0.6,1.7c-7-30.8-13.2-61.9-16.5-96.3c-1.4-16.5-8.4-18.8-8.4-14.6c2.5,36.7,6.2,72.5,11.8,107.8
							c2.8,17.6,6.2,35.3,10.6,52.6c4.5,17.4,9.8,34.7,17.1,51.2c-2.5-7.8-4.5-16-6.2-24.1c-0.8-3.4-1.7-6.7-2-10.1
							c0.6,3.4,1.4,6.7,2,10.1c2.5,9.5,6.4,19.3,10.4,29.1c0.3,1.1,1.1,2.8,2,4.8c1.1,2,2.5,3.6,3.6,4.5
							c6.2,13.2,17.4,26.9,29.7,36.1c0.8,0.6,1.7,1.7,3.1,2.8c8.7,4.8,18.8,7,28.6,6.4l5-0.3c1.7-0.3,3.4-0.6,5-0.8l2.5-0.6l2.5-0.8
							c1.7-0.6,3.4-1.1,4.8-1.7c6.2-2.5,12-6.2,17.1-10.1c10.4-8.4,17.9-19,24.1-30c6.2-10.9,10.9-22.4,15.1-33.9
							c4.2-11.5,7.6-23.2,10.6-35c-3.4,11.2-7.3,21.8-11.8,31.1c-3.1,6.4-6.7,16.5-12,27.7c-5,11.2-12,23.2-21,32.8
							c-4.5,4.8-8.4,6.2-13.7,9.5c8.7-7.3,16.8-16.5,24.1-27.2s13.2-22.7,17.4-34.4c5.6-15.7,11.5-34.7,16-54.6
							c4.5-19.9,7.6-40.3,8.7-58.5c0.8-14.8,3.6-28.6,6.4-40.3c0.3,4.5-0.6,12.6-1.1,16.8c-4.8,37-10.1,73.9-19.3,110.3
							c11.8-37.2,16-75,22.4-113.1c-2.2,22.7-7.3,44.5-9,66.1c0.6-1.7,1.1-3.4,1.7-5.3c2.8-14.8,5.6-29.7,7.8-44.5
							c0-4.5,0.3-9.2,0.3-13.7c0-10.4,0.6-21,1.4-32.2c0.6-5.6,0.8-11.2,1.4-17.1c0.3-3.9,0.6-8.1,0.8-12l0.3-3.1v-1.7v-0.3
							c0-0.3-0.3,0-0.3,0h-0.8c-2,0-4.2,0-6.2-0.3c-6.7,0-13.7-0.3-20.7-0.3c-5.9,0-12-0.3-18.2-0.3c-12-0.3-24.4-0.3-36.1-0.3
							c-3.9,0-9.8,1.1-16.5,2c15.4,0.3,30.8,0.8,46.2,0.8c-6.2-0.6-12-1.1-17.6-2c14.6-0.3,26.3,1.7,40.9,1.4
							c-7.8,0.3-15.7,0.6-23.2,0.6c9.2,0.6,19,0.8,29.1,1.4c-19,1.4-36.4-2.2-55.7,0c3.9,0,8.1,0,12,0.3c-4.2,0-8.4,0-12.3-0.3h0.3
							c-12.3,0-24.9,0.8-36.1,1.7c21.6,0,40.6,1.7,61.6,1.7c3.4,0,7-0.3,10.4-0.3c-3.6,0-7,0.3-10.4,0.3
							c-48.2,0.8-96.3-1.4-144.2-2.2c-1.4,0-3.1,0-4.5,0.3c1.4,0.6,2.8,1.1,3.9,1.7C227.1,138.9,267.4,140,306.3,141.7z"/>
					</g>
				</g>
			</g>
		</g>
	</g>
</g>
<g>
	<path fill="#C69C6D" d="M194.6,243.6h163.8c0,0,6.4,38.1-8.4,52.4c-11.5,10.9-40.3-4.8-73.6-5.3c-36.7-0.6-67.2,11.5-74.2-0.8
		C187,263.8,194.6,243.6,194.6,243.6z"/>
	<g>
		<g>
			<g>
				<g opacity="0.8">
					<g opacity="0.8">
						<path fill="#EEE8E6" d="M218.4,292.6c5.9-0.3,12-0.8,17.9-1.7c6.2-0.6,12.3-1.4,18.2-1.7c12-0.8,23.8-1.1,34.4-1.1
							c2.5,0,4.8,0.3,7.3,0.3l-3.6-0.6c-6.7-1.4-14-2-21.3-2s-14.3,0.3-21.6,0.8c-7.3,0.6-14.3,1.7-21,2.5
							c-3.4,0.3-6.7,0.8-10.1,0.8c-3.1,0-6.4,0-8.7-0.6c-1.4-0.3-2.5-0.8-3.1-1.4c-0.3,0-0.3-0.3-0.6-0.6s-0.6-0.8-0.8-1.1l-1.7-2.5
							c-2-3.6-3.9-7.3-5-11.2c-2.8-7.8-3.9-16.8-2-25.2c0.6-2-0.3-2.2-0.6-2.5c-1.1,1.4-2,2.8-2.8,4.2c-1.1,7.6,0,15.4,2,22.7
							c1.1,3.6,2.5,7.3,4.2,10.6c0.8,1.7,1.7,3.4,2.8,5c0.8,1.7,1.7,3.1,3.1,4.2c1.7,1.4,4.5,1.7,6.7,1.4
							C214.8,292.9,217,292.6,218.4,292.6z"/>
						<path fill="#E6DEDB" d="M194,248.6L194,248.6c-0.3,1.1-0.3,1.7-0.6,2.5C193.5,250.3,193.8,249.5,194,248.6z"/>
						<path fill="#ECE6E3" d="M201,284.2c0.6,1.1,1.4,2.2,2,3.4l0.8,1.7c0.3,0.3,0.6,0.8,0.8,1.1c1.4,1.4,3.4,2.2,5.6,2.8
							c3.1,0.3,5.9-0.6,7.8-0.6c5.9-0.3,12-0.8,17.9-1.7c6.2-0.6,12.3-1.4,18.2-1.7c12-0.8,23.8-1.1,34.4-1.1c2.2,0,4.8,0.3,7,0.3
							l-3.9-0.8c-4.8-0.8-9.5-1.4-14.6-1.7c-5-0.3-9.8-0.3-14.8,0c-0.6,0-1.1,0.3-1.7,0.3c-5.6,0.8-10.6,0.8-16,1.4
							c-7.6,1.1-14.3,2-20.7,2.5c-3.4,0.3-6.4,0.6-9.5,0.3c-3.1,0-5.9-0.6-7.6-1.7c-0.3-0.3-0.6-0.3-0.8-0.6l-0.3-0.3
							c0,0-0.3-0.3-0.6-0.6c-0.8-1.1-1.4-2.2-2.2-3.4c-1.4-2.2-2.8-4.8-3.6-7.6c-0.8-2-1.1-3.9-1.7-5.6c-2.2-7.3-3.1-15.7-1.1-23.5
							c0.6-1.7-0.3-2.2-0.6-2.5c-0.6,0.6-1.1,1.4-1.7,2.2c-1.7,6.7-1.4,14-0.3,21c1.4,6.2,3.6,12,6.7,17.4
							C201.3,285,201.3,284.8,201,284.2z"/>
						<path fill="#E6DEDB" d="M200.2,285.3c0.3,0.8,1.4,1.4,1.1-0.3c-2.8-5.6-5.3-11.5-6.7-17.4
							C195.7,273.8,197.7,279.7,200.2,285.3z"/>
						<path fill="#F4F0EE" d="M197.1,285.9c0.6,1.4,1.4,2.8,2.2,4.2l0.6,1.1c0.3,0.3,0.6,0.8,0.8,1.1c0.6,0.8,1.4,1.7,2,2.2
							c3.1,2.5,6.7,3.1,9.8,3.4c6.2,0.3,11.8-0.3,17.1-0.6c5.3-0.3,10.9-0.3,15.4,0c1.7-0.3,3.4-0.3,5-0.6
							c10.4-1.4,20.7-2.2,31.1-1.7c10.1,0.3,20.4,2.2,30.5,4.5c5,1.1,10.4,2.2,15.7,3.4c5.3,0.8,10.9,1.7,17.1,0.6
							c3.1-0.6,6.4-2.2,9-4.8c1.1-1.1,2.2-2.2,3.1-3.6c0.8-1.4,1.7-2.5,2.2-3.9c2.8-5.3,4.2-10.9,5-16.2c0.8-5.6,0.8-10.9,0.6-16.2
							c0-2.5-0.3-5.3-0.6-7.8c-0.3-1.4-0.3-2.2-0.6-4.8l-0.6-3.4l-0.3-1.7l-0.3-0.8V240h-0.3c-2.2,0-4.5,0-6.4,0h-2.5h-2
							c-2.5,0-5,0.3-7.6,0.3c-5,0.3-10.4,0.6-15.7,0.8c-12.6,0.3-23-0.8-35.3-1.4c-31.1-1.7-58,2-89.6,3.1c-8.4,0.3-9.5,3.9-7.6,3.9
							c53.2-1.4,103,0,156.2-0.8h3.4c0.8,0,1.7,0,2.2,0l0.3,2.2l0.3,1.4l0.3,2c0.6,5,0.6,9.8,0.6,14.8c-0.3,4.8-0.8,9.8-2,14.3
							c-1.1,4.5-3.1,9-6.2,12.3c-2.5,3.4-6.7,4.2-11.5,4.2c-4.5,0-9.2-1.1-13.7-2c-9.2-2.2-18.5-4.8-28.3-6.7
							c-2.5-0.3-4.8-0.3-7.3-0.3c-10.6-0.3-22.4,0-34.4,1.1c-6.2,0.6-12.3,1.1-18.2,1.7c-6.2,0.6-12.3,1.4-17.9,1.7
							c-1.4,0-3.6,0.3-5.9,0.6c-2.2,0-5-0.3-6.7-1.4c-1.4-0.8-2.2-2.2-3.1-4.2c-0.8-1.7-2-3.4-2.8-5c-1.7-3.4-3.1-7-4.2-10.6
							c-2-7.3-3.1-14.8-2-22.7c-1.7,2.8-3.4,5.3-4.2,8.7c0.3,5,1.4,9.8,2.5,14.6C193.5,277.2,195.2,281.7,197.1,285.9z"/>
						<path fill="#E5DDD9" d="M197.1,285.9c-2-4.5-3.6-9-5-13.4c-1.4-4.8-2.2-9.5-2.5-14.6c-0.6,1.7-0.8,3.6-0.8,5.6
							c0,6.2,1.4,12.6,3.6,18.5c1.1,3.1,2.5,5.9,4.2,9l0.6,1.1c0.3,0.3,0.3,0.6,0.8,1.1c0.6,1.1,1.4,2,2.5,2.8
							c2,1.7,3.9,2.5,5.9,3.4c3.9,1.4,7.6,1.4,10.9,1.4c3.4,0,6.4-0.3,9.8-0.8c6.2-0.8,12.3-1.7,18.2-2.5c-4.8-0.3-10.1-0.3-15.4,0
							c-5.3,0-10.6,0.8-17.1,0.6c-3.1-0.3-6.7-0.8-9.8-3.4c-0.8-0.6-1.4-1.4-2-2.2c-0.3-0.3-0.6-0.8-0.8-1.1l-0.6-1.1
							C198.5,288.7,197.7,287.3,197.1,285.9z"/>
						<path fill="#ECE6E3" d="M197.1,285.9c-3.6-8.4-6.7-17.1-7.3-26.6c0,3.1,0.3,6.4,0.8,9.8c1.7,8.1,4.5,16,8.7,23.2
							c1.4,2.5,3.9,4.2,6.2,5.3c2.2,1.1,4.8,1.4,6.7,1.7c4.5,0.6,8.4,0.6,12.6,0.3c-4.2,0.3-8.7,0.6-13.4,0c-2.5-0.3-5-0.8-7.6-2.5
							c-1.4-0.8-2.5-1.7-3.6-2.8c-0.6-0.6-0.8-1.1-1.4-2l-0.8-1.4c-4.2-7.8-7.6-16.2-9-25.2c0.6,6.2,2,12.3,4.2,17.9
							c0.6,1.4,1.1,2.8,2,4.2l2.2,4.2l0.3,0.6l0.6,0.8c0.3,0.6,0.6,1.1,1.1,1.4c0.8,0.8,1.7,1.7,2.5,2.2c2,1.4,3.9,2,5.9,2.5
							c3.6,0.8,7,0.8,10.4,0.8s6.4-0.6,9.2-0.8c5.9-0.8,11.8-1.7,17.6-2.5c-4.8-0.3-10.1-0.3-15.4,0c-5.3,0-10.6,0.8-17.1,0.6
							c-3.1-0.3-6.7-0.8-9.8-3.4c-0.8-0.6-1.4-1.4-2-2.2c-0.3-0.3-0.6-0.8-0.8-1.1l-0.6-1.1C198.5,288.7,197.7,287.3,197.1,285.9z"
							/>
						<path fill="#E3DAD6" d="M220.1,297.6c-4.8,0-9.8,0-14.8-2.2c-1.1-0.6-2.5-1.4-3.4-2.5c-0.6-0.6-0.8-1.1-1.1-1.7l-0.8-1.7
							l-1.7-3.1l-1.4-3.4c-3.9-9-6.2-18.8-5.9-28.6c-0.3,0.8-0.6,1.7-1.1,2.5c0,0.8,0,1.7,0,2.5c0.8,9.5,3.9,18.5,7.3,26.6
							c0.6,1.4,1.4,2.8,2.2,4.2l0.6,1.1c0.3,0.3,0.6,0.8,0.8,1.1c0.6,0.8,1.4,1.7,2,2.2c3.1,2.5,6.7,3.1,9.8,3.4
							c6.2,0.3,11.8-0.3,17.1-0.6s10.6-0.3,15.4,0c1.7-0.3,3.1-0.3,4.8-0.6c10.6-1.4,21.3-2.2,31.6-1.7s20.7,2.5,31.4,4.8
							c4.8,0.8,9.5,1.7,14.3,2.2c5,0.8,10.1,1.4,15.7,0.8c2.8-0.3,5.9-1.4,8.4-3.1c0.6-0.6,1.4-1.1,1.7-1.4l1.4-1.7l1.4-1.7l1.1-1.7
							c3.1-4.8,4.8-9.8,5.9-14.8c-0.8,4.8-2.2,9.8-4.8,14.3c-0.8,1.1-1.4,2.2-2.2,3.4c-0.8,1.1-1.7,2-2.8,3.1
							c-2.2,2.2-5,3.4-7.8,4.2c3.1-0.6,6.4-2.2,8.7-4.8c1.1-1.1,2.2-2.2,3.1-3.4c0.8-1.1,1.7-2.5,2.2-3.9c2.8-5.3,3.9-10.6,4.8-16
							c1.4-9.5,0.8-18.2-0.3-27.2c-0.6-1.4-1.1-3.4-2-5.3c-0.3-0.6-0.3-1.1-0.6-1.7c-0.8,0-1.4,0-2.2,0c-1.4,0-3.1,0-4.8,0.3
							c-7.6,0.3-14.8,0.3-22.4,1.1c-1.1,0-0.8-0.6-2.8-0.8c5.9,0,10.6-0.3,14.8-1.1c-5.3,0.3-10.4,0.6-16,0.8
							c-10.1,0.3-18.5-0.3-27.7-0.8h-3.1c-5,0-10.1,0.6-15.1,0.8c2,0,4.2,0,6.2,0c-3.4,0.3-7.6,0.3-10.6,0.3c1.4,0,2.8-0.3,4.5-0.3
							c-4.8,0-9.5,0-14.8-0.3c6.2,0,12.6-0.3,18.2-0.6c-11.5,0-22.1,0.3-33.6-0.3h0.8c-16.2,0.8-32.2,2.2-49.8,3.1
							c-8.4,0.3-9.8,3.9-7.6,3.9c37-1.1,72.8-0.6,108.9-0.6c-4.2-0.6-8.1-0.8-12.3-1.4c-1.7,0-3.6-0.3-5-0.6c1.7,0.3,3.4,0.3,5,0.6
							c4.8,0.3,10.4,0.3,15.4,0.6c1.1,0.3,4.2,0.3,5.3-0.3c7.3,0.6,15.7,0,23,0.6c0.6,0,1.1,0.3,2,0.6c4.5,0,9.2,0,13.7-0.3h3.9h1.4
							l0.3,1.4l0.3,1.4l0.3,2.2c0.3,1.7,0.3,3.1,0.3,4.8c0.3,6.2,0.3,12.3-0.6,18.5c-0.8,5.9-2.5,11.8-5.6,16.5
							c-0.6,1.4-1.7,2.2-2.5,3.1c-0.8,0.8-2,1.7-3.1,2.2c-2.2,1.1-5,1.4-7.8,1.1c2.8,0.3,5.3,0,7.8-0.6c1.1-0.3,2.2-0.8,3.4-1.7
							c0.8-0.8,2-1.7,2.8-2.5c2.5-2.5,4.8-7.6,5.9-13.4c1.1-6.2,1.4-12.9,1.1-19.3c-0.3-3.1,0.3-5,0-8.1c2.8,10.9,1.7,25.8-3.6,37.5
							c-0.3,1.1-1.1,2-1.7,2.8c-0.6,1.1-1.4,2-2,2.8c-1.4,2-3.6,3.4-5.9,3.9c-4.8,1.7-10.1,0.8-15.1,0.3
							c-10.1-1.7-20.2-4.8-29.4-5.6c-7.6-0.8-14.6-2.5-20.4-3.6c2.2-0.3,6.4,0,8.7,0.3c9.5,1.1,18.8,3.4,28,5.6
							c4.5,1.1,9.2,2,14,2.8c4.5,0.6,9.5,0.8,13.7-0.3c-4.5,1.1-9.5,0.6-14-0.3c-4.8-0.8-9.5-2-14-3.1c-9.5-2.2-19-4.5-28.8-6.2
							c11.8,1.1,22.7,4.8,33.3,6.2c-0.8-0.3-1.7-0.6-2.5-1.1c-7.3-2-14.8-3.9-22.4-5.3c-2.2-0.3-4.8-0.3-7-0.3
							c-10.6-0.3-22.4,0-34.4,1.1c-6.2,0.6-12.3,1.1-18.2,1.7c-6.2,0.6-12.3,1.4-17.9,1.7c-2,0-4.8,0.6-7.8,0.6
							c3.6,0.8,7.3,0.8,11.2,0.6c3.9-0.3,7.8-0.6,11.8-1.1c-3.1,0.3-6.2,0.3-9,0c7.3-0.8,13.4-0.8,20.7-1.7
							c-3.9,0.6-7.8,1.1-11.8,1.7c4.8-0.3,9.8-0.8,14.8-1.1c-9.5,1.7-18.5,1.4-28,3.1c2,0,4.2-0.3,6.2-0.3c-2,0.3-4.2,0.3-6.2,0.3
							l0,0c-3.1,0.3-6.2,0.3-9.2,0c-3.1-0.3-5.9-1.4-7.8-3.4c1.7,2.2,4.2,3.4,6.7,3.9c2.5,0.6,5,0.8,7.8,0.8
							c5,0.3,10.4-0.3,15.7-0.8c1.7-0.3,3.4-0.6,5.3-0.8c-1.7,0.3-3.6,0.6-5.3,0.8c-6.2,0.8-12,1.7-18.5,1.4
							c-3.1-0.3-6.2-0.6-9.2-2.2c-1.4-0.8-2.8-2-3.6-3.4s-1.4-2.8-2.2-4.2c-5.3-10.9-8.1-23.5-6.4-35.6c0-0.8,0-1.4,0.3-2.2
							c-0.6,0.6-0.8,1.4-1.1,2c-1.4,10.1,0.3,20.7,3.9,30.2c1.1,2.2,2,4.8,3.1,7c0.6,1.1,1.1,2.2,2,3.4c0.8,1.1,2,2.2,3.1,3.1
							c2.5,1.7,5,2.2,7.8,2.5C215,297.6,217.6,297.6,220.1,297.6z"/>
					</g>
				</g>
			</g>
		</g>
	</g>
</g>
<g>
	<path fill="#86604E" d="M194.6,294h161.3c0,0-24.1,119.3-80.6,107.8S194.6,294,194.6,294z"/>
	<g>
		<g>
			<g>
				<g opacity="0.8">
					<g opacity="0.8">
						<path fill="#EEE8E6" d="M224.8,358.1c7,10.6,14.8,21.3,24.6,29.4c4.8,3.9,10.1,7.3,15.4,9.5c5.3,2.2,11.2,3.4,16.2,3.1
							c1.1,0,2.2-0.3,3.4-0.3s2.2-0.6,3.4-0.8c-1.1,0-2.2,0.3-3.4,0.3c-3.4,0-6.4-0.6-9.5-1.4c-3.4-0.8-6.4-2-9.5-3.6
							c-6.2-3.1-12-7-17.4-12c-10.6-9.8-19-21.8-26.3-34.2c-9.2-15.1-17.6-31.9-23-51.2c-0.6-2.2-1.4-2.2-2-2.2c0,2-0.3,3.9-0.3,5.6
							c5.3,15.7,12,30.5,19.9,45.6C218.7,350.8,223.2,355.3,224.8,358.1z"/>
						<polygon fill="#E6DEDB" points="196.3,299.6 196.3,299.9 197.1,302.4 						"/>
						<path fill="#ECE6E3" d="M212,336.8c2.5,4.8,5,9.5,7.6,14.3c2,2.8,4.2,5.3,5.3,7c7,10.6,14.8,21.3,24.6,29.4
							c4.8,3.9,10.1,7.3,15.4,9.5c5.3,2.2,11.2,3.4,16.2,3.1c1.1,0,2.2-0.3,3.4-0.3c1.1,0,2.2-0.6,3.4-0.8c-1.1,0-2.5,0.3-3.6,0.3
							l-3.4-0.3c-1.1-0.3-2.2-0.3-3.4-0.6c-1.1,0-2.2-0.6-3.4-0.8c-1.1-0.3-2.2-0.6-3.4-1.1c-4.5-1.7-8.7-3.9-12.9-6.4
							c-0.6-0.3-0.8-0.6-1.4-0.8c-5-2.5-8.4-6.4-12-10.1c-5.6-5-10.1-10.6-14-16.5c-3.9-5.9-7.6-12-11.5-18.8
							c-2.8-4.8-6.2-9.8-8.7-16c-0.8-2-1.7-4.2-2.5-6.2c-3.6-7.8-6.7-16.2-9.2-25.2c-0.6-2.2-1.4-2.2-2-2.2c0,1.1,0,2,0,3.1
							c2,7.3,4.5,14.6,7,21.8c2.5,6.2,5.6,12.3,8.4,18.5C212,337.7,212,337.1,212,336.8z"/>
						<path fill="#E6DEDB" d="M210.8,338c0.3,0.8,1.4,1.7,1.1,0c-3.1-6.2-5.9-12.3-8.4-18.5C205.8,325.4,208.3,331.5,210.8,338z"/>
						<path fill="#F4F0EE" d="M207.8,338.2c5.3,12.6,12.9,23.2,19,32.5c3.1,5,6.4,9.8,9.5,14.3c1.4,1.4,2.8,2.8,4.2,3.9
							c4.5,3.9,9.2,7.6,14.6,10.4c5.3,3.1,10.9,5.3,16.8,6.7c5.9,1.4,12.3,2,18.8,0.6c6.2-1.4,11.8-4.2,16.8-7.6s9.2-7.6,13.2-12.3
							c3.9-4.5,7.3-9.2,10.4-14.3c6.2-9.8,11.2-20.2,15.4-30.8c4.2-10.6,7.3-21.3,9.8-31.9l0.8-3.9l0.8-4.5c0.6-2.2,0.8-4.5,1.1-6.4
							l0.6-3.1c0-0.3,0,0-0.3,0h-0.6h-0.8h-1.7c-2.2,0-4.5,0-6.7,0.3c-1.4,0-3.1,0-4.5,0.3c-2.8,0-5.6,0.3-8.4,0.3
							c-13.7,0.3-24.6-0.8-38.1-1.4c-33.3-1.7-62.2,2-96,3.1c-9.2,0.3-10.4,3.9-8.1,3.9c28.6-0.8,56.3-0.6,83.7-0.6
							c13.7,0,27.7,0,41.4,0c7,0,14,0,21,0c3.1,0,6.2,0,9.2,0h1.4h0.8c0,0.3,0,0.6,0,0.6l-0.6,2.8c-4.8,21-11.8,41.7-21.6,59.9
							c-4.8,9.2-10.6,17.6-17.6,24.9c-3.4,3.6-7.3,6.4-11.5,9s-8.7,3.9-13.2,4.5c-1.1,0.3-2.2,0.6-3.4,0.8c-1.1,0-2.2,0.3-3.4,0.3
							c-5,0.3-10.6-0.8-16.2-3.1c-5.6-2.2-10.6-5.6-15.4-9.5c-9.8-8.1-17.6-18.8-24.6-29.4c-1.7-2.8-6.2-7.3-8.7-12.3
							c-7.8-14.8-14.6-30-19.9-45.6c-0.3,3.6-0.8,6.4-0.6,10.1C199.6,320,203.8,329.3,207.8,338.2z"/>
						<path fill="#E5DDD9" d="M207.8,338.2c-3.9-9.2-8.1-18.5-11.8-28c0,1.7,0.3,3.6,0.8,5.9c6.7,24.1,20.7,49.8,39.5,68.9
							c-3.1-4.5-6.4-9.2-9.5-14.3C220.6,361.5,213.1,350.8,207.8,338.2z"/>
						<path fill="#ECE6E3" d="M207.8,338.2c-3.6-8.7-7.6-17.6-11.2-26.6c0.8,3.1,2,6.4,3.1,9.5c5.9,16,13.7,31.6,22.7,46.2
							c-10.4-15.4-18.2-31.9-24.9-49c7,23.5,20.7,48.2,38.9,66.6c-3.1-4.2-6.4-9.2-9.5-14C220.6,361.5,213.1,350.8,207.8,338.2z"/>
						<path fill="#E3DAD6" d="M221.5,362.3c-10.6-17.6-18.5-36.4-25.8-56c0,0.8,0,2,0,2.8c0.3,0.8,0.6,1.7,0.6,2.5
							c3.6,9,7.6,17.9,11.2,26.6c5.3,12.6,12.9,23.2,19,32.5c3.1,5,6.4,9.8,9.5,14c1.4,1.1,2.5,2.5,3.9,3.6
							c4.5,4.2,9.5,7.6,14.8,10.6s11.2,5.3,17.4,6.7c6.2,1.4,12.9,1.7,19,0.3c6.4-1.4,12-4.5,17.1-8.1c4.2-3.4,8.1-7.3,11.5-11.5
							s6.4-8.7,9.5-13.2c5.9-9.2,10.6-19,15.1-28.6c-3.9,9.2-8.1,18.5-13.4,27.4c5.9-9.5,10.9-19.9,15.1-30c3.6-9,6.4-17.9,8.7-27.2
							c-0.3-2,0-5,1.1-10.4c0.6-2.5,1.1-4.8,1.4-7.3l0.8-3.9l0.3-1.1c-0.3-0.3-0.6,0-0.8,0h-2c-1.4,0-2.8,0-4.2,0
							c-1.1,0-2.5,0-3.6,0c-2,0-3.9,0.3-6.2,0.6c-1.1,0-0.8-0.6-3.1-0.8c3.1,0,5.9,0,8.7-0.3c3.6-0.3,7-0.6,10.4-0.8
							c-2.2,0-4.5,0-6.7,0.3H348h-2.2c-2.8,0-5.6,0.3-8.7,0.3c-10.6,0.3-19.9-0.3-29.7-0.8h-3.1c-5.3,0-10.6,0.6-16,0.8
							c2.2,0,4.5,0,6.7,0c-3.6,0.3-8.1,0.3-11.5,0.3c1.7,0,3.1-0.3,4.8-0.3c-5.3,0-10.4,0-15.7-0.3c6.7,0,13.7-0.3,19.3-0.6
							c-12.3,0-23.8,0.3-36.1-0.3h0.8c-17.4,0.8-34.7,2.2-53.5,3.1c-9.2,0.3-10.4,3.9-8.1,3.9c39.8-1.1,78.1-0.6,116.8-0.6
							c-4.5-0.6-8.7-0.8-13.2-1.4c-2,0-3.9-0.3-5.6-0.6c2,0.3,3.6,0.3,5.6,0.6c5.3,0.3,10.9,0.3,16.8,0.6c1.1,0.3,4.5,0.3,5.9-0.3
							c7.8,0.6,17.1,0,24.6,0.6c0.6,0,1.1,0.3,2.2,0.6h4.5h0.3v0.3v0.6l-0.3,0.8l-0.6,2c-3.1,13.4-7,26.3-11.8,38.6
							c-4.8,12.3-10.6,24.1-17.9,34.4c3.9-4.8,7.3-9.8,10.4-14.6c4.5-6.2,10.1-21.6,14-34.4c0.8-3.4,2.2-5,3.1-8.1
							c-1.7,12-8.1,26-13.7,38.6c-3.9,8.1-9.5,17.6-16.5,26.3c-3.6,4.2-7.3,8.1-11.5,11.8c-4.2,3.4-8.7,6.2-13.2,8.1
							c-2,0.6-3.9,1.4-5.9,1.7c-0.8,0-2,0.3-2.8,0.3c-0.8,0-2,0-2.8,0c-0.8,0-2,0-2.8-0.3c-0.8-0.3-1.7-0.3-2.5-0.6
							c-0.8-0.3-1.7-0.3-2.5-0.6c-0.8-0.3-1.7-0.6-2.2-0.8c1.1,0,2.8,0.6,4.5,0.6c1.7,0.3,3.4,0.6,4.5,0.6
							c9.8,0.6,19.6-3.6,27.2-10.1c7.8-6.4,13.7-14.8,18.8-23.5c-5.9,8.7-12,17.1-20.2,23.2c-3.9,3.1-8.4,5.9-12.9,7.3
							c-4.8,1.4-9.8,2-14.6,1.4c5.9,0.6,11.5-0.3,16.8-2.5c5.3-2.2,10.1-5.6,13.7-9.8c-0.8,0.6-1.7,1.1-2.5,1.7
							c-5.9,5-12.9,8.7-20.2,9.2c-1.1,0.3-2.2,0.6-3.4,0.8c-1.1,0-2.2,0.3-3.4,0.3c-5,0.3-10.6-0.8-16.2-3.1
							c-5.6-2.2-10.6-5.6-15.4-9.5c-9.8-8.1-17.6-18.8-24.6-29.4c-1.1-1.7-3.4-4.2-5.3-7c4.2,7.3,8.4,14.3,13.4,21
							c-2-2.8-3.6-5.6-4.8-8.1c4.5,6.4,7.8,11.8,13.4,17.4c-3.1-2.8-5.9-5.9-8.7-9.2c2.8,4.2,6.4,8.1,10.1,12
							c-8.1-6.7-12.3-15.1-19-23.2c1.1,2,2.5,3.6,3.6,5.6c-1.4-2-2.5-3.6-3.6-5.6l0,0c-3.6-5.6-7.3-11.2-10.6-16.5
							c5.3,10.4,10.1,19.9,17.4,28.8l3.6,4.2c-1.4-1.4-2.5-2.8-3.6-4.2c-8.4-10.4-14.8-21.8-20.2-33.9c-5.3-12-9.8-24.4-13.4-37
							l-0.8-2.2c0,0.8,0,1.7-0.3,2.2C202.2,323.1,210.6,343.8,221.5,362.3z"/>
					</g>
				</g>
			</g>
		</g>
	</g>
</g>
<g>
	<g>
		<g>
			<g>
				<g opacity="0.8">
					<g opacity="0.8">
						<path fill="#FFFFFF" d="M385,222.9c0,0.8-0.6,2-1.1,3.4c-0.6,1.4-1.4,2.8-2,4.5v0.3c0,0,0,0,0.3,0h0.3c0.3,0,0.6,0,0.8-0.3
							c0.6,0,1.1-0.3,2-0.8c1.4-0.6,2.8-1.7,3.9-3.4c0.6-0.6,0.8-1.4,1.1-2l-0.3-0.3c-0.8-1.1-0.3-2.2,0.6-3.1c0.6-0.6,0.3,0,0-0.3
							c-0.3,0-0.3,0-0.6-0.3l0,0v-0.6v-1.4c0-1.7,0-3.4,0-5c0-3.4,0.3-7,1.7-10.4c0.3-0.8-1.4-1.4-2.2-1.7c-1.4,0.3-2.5,0.6-3.9,0.8
							c-0.3,2.8-0.6,5.9-0.8,9c-0.3,1.4-0.3,3.1-0.6,4.5c-0.3,1.4-0.6,3.1-0.8,3.9c-0.3,0.6,0.3,1.4,0.8,2
							C384.4,222.6,385,222.6,385,222.9z"/>
						<polygon fill="#FFFFFF" points="385.3,202.7 385,202.7 385,203.8 						"/>
						<path fill="#FFFFFF" d="M383.9,217.3c0,0.6,0,1.1,0,1.4s0,0.8-0.3,1.1c0,0.6-0.3,1.1-0.6,1.7c0.6,0.8,1.7,0.8,1.7,1.4
							c0,0.8-0.6,2-1.1,3.4c-0.6,1.4-1.4,2.8-2,4.5v0.3c0,0,0,0,0.3,0h0.3c0.3,0,0.6,0,0.8-0.3c0.6,0,1.1-0.3,2-0.8
							c1.4-0.6,2.8-1.7,3.9-3.4c0.6-0.6,0.8-1.4,1.1-2l-0.3-0.3c-0.6-0.8-0.3-1.7,0-2.2l-0.3,0.6c-2,2,0.3-0.6,0.6-0.8
							c-0.6,0.3-0.3,0-0.3-0.3c0.3-0.3,0.3-0.3,0-0.6c0,0,0,0-0.3,0c0,0-0.3,0-0.3-0.3c0-0.6-0.3-1.1-0.3-1.7
							c-0.3-1.1-0.3-2.5,0-3.6c0.3-0.8,0.6-1.4,0.8-2.2c0-3.1,0.6-6.4,1.7-9.5c0.3-0.8-1.4-1.4-2.2-1.7c-0.6,0.3-1.4,0.3-2,0.6
							c-1.1,2.5-1.7,5-2.5,7.8c-0.3,2.5-0.6,4.8-0.8,7.3C383.6,217.6,383.9,217.3,383.9,217.3z"/>
						<path fill="#FFFFFF" d="M381.4,216.7c0,0.3,1.1,1.1,2.2,0.8c0.6-2.5,0.6-4.8,0.8-7.3C383.6,212.5,382.8,214.8,381.4,216.7z"/>
						<path fill="#FFFFFF" d="M375.5,214.8c-0.8,1.7-1.7,5.9-2.2,8.7c-0.6,3.1-1.1,5.9-2.8,9c-1.4,3.1-3.6,7-6.4,11.8
							c-0.3,1.1-0.3,2-0.6,3.1l-0.3,2.2c0,0.6-0.6,2,0.8,1.1l5-1.7c3.1-1.1,6.4-2,9.5-3.1c3.1-1.1,6.4-2.2,9.5-3.4
							c3.1-1.1,6.4-2.5,9.2-3.9c1.7-0.8,2.5-1.1,3.4-1.7c0.8-0.6,2-0.8,2.8-1.4c2-0.8,3.9-2,5.9-3.1c2-1.1,3.9-2.2,5.9-3.9
							c1.1-0.8,2.2-1.7,3.1-2.5l2.8-2.8c3.4-3.9,4.8-9,5.3-13.7c0.3-4.8-0.3-9.8-2.2-14.6c-0.8-2.8-1.4-5.6-2.8-8.4
							c-0.6-1.4-1.4-2.8-2.5-4.2c-0.6-0.6-1.1-1.4-1.7-2c-0.6-0.6-1.4-1.1-2-1.7c-3.6-2.8-7.8-3.6-11.5-3.6c-3.9,0-8.1,1.4-11.2,3.9
							c-3.1,2.5-5,5.9-6.4,9c-1.1,3.1-1.7,6.4-2.2,9.5c-0.6,3.6,6.7,5,6.7,4.5c0-1.7,0.6-3.9,1.1-5.6c0.8-2,1.7-3.4,3.1-4.8
							c1.1-1.1,2.5-2.2,4.2-2.5c1.7-0.3,3.1-0.6,5.3-0.3c3.9,0.3,6.4,2,8.1,4.2c1.4,2.5,2.2,6.4,2,10.6c-0.6,6.7-4.2,13.2-9.5,16.2
							c-2.8,1.7-5.9,3.4-9.2,4.2c-3.9,1.4-5,1.1-5.9,0.3c-0.3,0.6-0.8,1.4-1.1,2c-1.1,1.7-2.8,2.8-3.9,3.4c-0.6,0.3-1.4,0.6-2,0.8
							c-0.3,0-0.6,0-0.8,0.3h-0.3c0,0,0,0-0.3,0v-0.3c0.6-1.7,1.4-3.1,2-4.5c0.6-1.4,1.1-2.2,1.1-3.4c0-0.3-0.6-0.6-1.1-0.8
							c-0.6-0.6-1.1-1.1-0.8-2c0.3-0.8,0.6-2.5,0.8-3.9c0.3-1.4,0.3-3.1,0.6-4.5c0.3-3.1,0.6-5.9,0.8-9c-2.8,0.6-5.6,0.6-7.8,1.4
							C377.4,208,377.2,211.7,375.5,214.8z"/>
						<path fill="#FFFFFF" d="M375.5,214.8c1.7-3.1,1.7-6.7,1.7-10.4c-1.1,0.3-2,0.8-2.8,1.4c-1.4,2-2.8,3.9-3.6,5.9
							c-0.6,1.1-0.8,2.2-1.1,3.4l-0.8,2.5c-0.3,1.1-0.6,2.2-0.8,3.4c-1.1,4.5-2,9-2.8,12.9c0,0.6-0.3,1.1-0.3,1.4v1.4
							c0,0.8-0.3,1.7-0.3,2.5c-0.3,1.7-0.3,3.4-0.6,5c2.8-4.8,4.8-8.4,6.4-11.8c1.7-3.4,2.2-5.9,2.8-9
							C373.8,220.6,374.6,216.4,375.5,214.8z"/>
						<path fill="#FFFFFF" d="M375.5,214.8c1.7-3.1,1.7-6.4,1.7-10.1c-0.6,1.1-1.1,2-1.7,3.1c-1.1,2.8-1.7,5.6-2.8,8.4
							c-1.4,4.8-3.1,9.5-5.6,15.1l4.5-16.2c0.8-3.1,1.7-6.2,2.2-9.2c-1.4,1.7-2.5,3.9-3.1,5.9c-0.3,1.1-0.8,2.2-1.1,3.1l-0.8,3.1
							c-0.3,1.1-0.6,2.2-0.8,3.4c-1.1,4.2-2,8.4-2.8,12.6c-0.3,1.1-0.3,2-0.3,2.8c0,0.8-0.3,1.7-0.3,2.5c-0.3,1.7-0.3,3.4-0.6,5
							c2.8-4.5,4.8-8.4,6.4-11.8c1.7-3.4,2.2-5.9,2.8-9C373.8,220.6,374.6,216.4,375.5,214.8z"/>
						<path fill="#FFFFFF" d="M373.2,227.1c2-4.8,3.6-10.1,4.5-12.9c1.1-3.4,1.7-7,2.2-10.6c-0.8,0-1.4,0.3-2,0.3
							c-0.3,0.3-0.3,0.6-0.6,0.8c0,3.6,0,7-1.7,10.1c-0.8,1.7-1.7,5.9-2.2,8.7c-0.6,3.1-1.1,5.9-2.8,9c-1.4,3.1-3.6,7-6.4,11.8
							c-0.3,0.8-0.3,2-0.6,2.8l-0.3,2.2l-0.3,1.1v0.3v0.3l0.6-0.3l5-1.7c3.4-1.1,6.4-2,9.8-3.1c3.1-1.1,6.4-2.2,9.8-3.4
							c3.4-1.4,6.4-2.5,9.5-3.9l0.8-0.6l0.6-0.6c0.3-0.3,0.8-0.6,1.1-0.8c0.8-0.6,1.7-1.1,2.5-1.7c1.7-1.1,3.4-2.2,5-3.4
							c1.7-1.1,3.6-2.2,5.3-3.4c2-1.4,3.9-2.8,5.6-4.5c-1.4,1.7-3.1,3.4-4.8,5c-1.7,1.4-3.1,2.5-4.8,3.9c2-1.1,3.6-2.2,5.9-3.6
							c1.1-0.8,2.2-1.7,3.1-2.5l2.8-2.8c2.8-3.4,4.5-7.3,5-11.5c-1.1-1.4-2.2-3.1-2.2-5c0-3.4,0.6-6.7-1.4-9.8
							c0-0.6,1.4-0.6,1.4-1.4c0,1.4,0.3,2.5,0.8,3.6c0.3,1.1,0.8,2.2,1.4,3.1c-0.3-1.1-0.6-2.5-0.8-3.6l-1.1-3.6
							c-1.1-4.5-2-9-5.3-13.2l-1.4-0.8c-2.5-1.4-5.3-1.7-7.8-1.4c0.8,0.3,2,0.6,2.8,1.1c-1.7,0.3-3.6-0.3-5-0.8
							c0.6-0.3,1.4-0.3,2.2-0.3c-1.1-0.3-2.2-0.8-3.4-0.8c-1.1-0.3-2.2-0.3-3.4-0.6c1.4,0.3,2.8,0.3,4.2,0c1.4,0,3.1,0,4.5,0
							c-1.4-0.3-2.8-0.8-4.2-0.8c-1.4,0-2.5,0-3.9-0.3c-1.4,0-2.8,0-4.2,0c-1.4,0.3-3.1,0.3-4.5,0.6l0.3-0.3
							c-3.9,2.2-6.7,5.9-8.1,9.5c-1.4,3.6-2.2,7-2.8,10.6c-0.3,1.7,1.4,3.1,3.1,3.9c0.8,0.3,1.7,0.6,2.5,0.6c0.6,0,1.1,0,1.1,0
							c0-2.5,1.1-5.6,2.2-7.8c1.4-2.2,3.1-3.9,5.3-4.8c2-0.8,4.5-0.8,7.3-0.6c2.5,0.6,4.5,1.4,5.9,2.8c0-1.1-0.3-2.8-1.1-4.2
							c-0.3-0.6-0.8-1.1-1.1-1.7c0.6,0.6,0.8,1.1,1.1,1.7c0.6,0.6,1.1,1.1,1.7,1.7c0.6,0.6,1.1,1.1,1.1,2c-0.3,0.6,0.3,1.1,1.4,0.8
							c0,1.1,0.6,2.2,0.6,3.4c0.3,1.1,0.3,2.5,0,3.6c0,0-0.3,0.3-0.8,0.6v2v2.2c-0.3,4.2-2,8.1-4.5,11.5c-0.6,0.8-1.4,1.4-2,2.2
							c-0.8,0.6-1.4,1.1-2.2,2c-1.7,1.1-3.6,2.2-5.6,3.1c2.2-0.3,4.5-0.6,6.7-0.8c0.8,0,1.7-0.3,2.2-0.8c0.8-0.6,1.4-1.4,2-2.2
							c0.3-0.6,0.6-0.8,0.8-1.4c0.3-0.6,0.6-1.1,0.8-1.7c0.6-1.1,0.8-2.2,1.1-3.4s1.7-1.1,2.2-2.2c0.6,1.4,0.6,2.5,0.3,3.6
							c-0.3,1.1-0.8,2.2-1.7,3.4c-0.8,1.1-1.7,2-2.5,2.8c-0.8,0.8-2,1.7-2.8,2.5c-2.2,2.2-5.9,3.9-9.5,5.3c-1.7,0.8-3.6,1.4-5.3,2.2
							c-1.7,0.8-3.1,1.7-4.8,3.1c-1.4,1.1-2.8,1.7-3.9,1.7c-1.1,0-2-0.6-2.2-1.4c1.1-1.4,2.2-1.7,2.8-1.7c2.5-0.6,5-1.4,8.1-2.8
							c3.4-1.4,6.4-3.1,9.2-5c-3.6,1.1-6.7,2.8-10.1,3.9c-2.8,0.8-5,1.4-6.4,0.6c2-0.8,4.2,0.6,7-3.1c-0.6-0.3-0.8-0.3-1.4-0.3
							c-2.5,0.6-3.1,0.3-3.9-0.3c-0.3,0.6-0.8,1.4-1.1,2c-1.1,1.7-2.8,2.8-3.9,3.4c-0.6,0.3-1.4,0.6-2,0.8c-0.3,0-0.6,0-0.8,0.3
							h-0.3c0,0,0,0-0.3,0V231c0.6-1.7,1.4-3.1,2-4.5c0.6-1.4,1.1-2.2,1.1-3.4c0.3-0.3-1.1-0.6-1.7-1.4c-0.6,1.7-2,3.9-2.5,6.2
							c0.8-1.1,1.7-2.2,3.1-3.4c0,0.6-0.8,1.4-1.4,2.5c-0.8,1.1-1.7,2.2-1.7,3.1c-0.3-0.6-0.3-1.4,0-2.2c-1.1,1.7-2,3.4-2.8,5.6
							c-0.6-0.6,0.6-2.8,1.4-4.5c0.8-1.7,1.7-3.1,0.8-3.9c-0.3,0.6-0.3,1.1-0.8,2l0.8-2l0,0c0.6-2,0-3.6-0.3-5.9
							c-0.6,2-1.4,3.6-2.5,5.9c-1.1,2-2.2,4.5-2.8,6.7l-0.3,2c0-0.6,0-1.1,0.3-2c0.8-4.8,2.8-10.6,4.5-14.8
							c1.7-4.2,3.6-8.7,5.3-12.9v-0.8c-0.6,0-1.1,0.3-2,0.3c-1.4,3.6-2.8,7.3-4.2,10.6C377.2,218.1,375.2,222.6,373.2,227.1z"/>
					</g>
				</g>
			</g>
		</g>
	</g>
</g>
<g>
	<rect x="357.6" y="351.7" fill="none" width="991.2" height="138.6"/>
	<g enable-background="new    ">
		<path fill="#86604E" d="M418.5,362.1c2,0,3.5,0.6,4.5,1.9c1,1.3,1.5,2.9,1.5,4.8c0,1.2-0.2,2.5-0.6,3.9c-0.4,1.4-0.9,2.6-1.5,3.7
			c-0.2,0.2-0.5,0.2-0.7,0.1c-0.2-0.1-0.3-0.3-0.2-0.6c0.4-1.1,0.6-2.2,0.6-3.4c0-1.2-0.2-2.2-0.7-3.2c-0.5-1-1.2-1.7-2.2-2.4
			c-1-0.6-2.3-0.9-3.8-0.9c-2.2,0-4.3,0.4-6.1,1.2c-1.8,0.8-3.6,2.3-5.1,4.4c-1.6,2.1-3.1,4.9-4.5,8.5c-1.4,3.6-2.8,8.2-4.3,13.7
			c-1.2,4.4-2.5,8.3-4.1,11.6c-1.5,3.3-3.3,6.1-5.4,8.4c2.6,1,5.4,2,8.4,2.8c2.9,0.8,6.2,1.2,9.8,1.2c2.9,0,5.3-0.5,7.2-1.5
			c1.9-1,3.5-2.9,4.9-5.8c0.2-0.1,0.5-0.1,0.6,0c0.2,0.2,0.2,0.4,0.1,0.7c-1.5,3.3-3.5,5.9-5.9,7.6c-2.5,1.7-5.8,2.6-9.9,2.6
			c-3.6,0-6.9-0.5-9.7-1.6c-2.8-1-5.6-2.2-8.2-3.4c-4.1,3.3-9.4,5-15.9,5c-2.3,0-4.1-0.5-5.3-1.4c-1.2-1-1.8-2-1.8-3.1
			c0-0.8,0.2-1.6,0.7-2.4c0.5-0.8,1.1-1.6,2-2.2c0.9-0.6,2-1.2,3.2-1.6c1.2-0.4,2.6-0.6,4.2-0.6c2.4,0,4.7,0.3,7,1
			c2.2,0.7,4.5,1.4,6.9,2.3c2.8-3.6,5.2-9.3,7.3-17.2c1.4-5.1,2.9-9.7,4.8-13.9c1.8-4.2,3.8-7.8,6.1-10.8c2.2-3,4.7-5.3,7.4-7
			C412.5,362.9,415.4,362.1,418.5,362.1z M370.3,419.7c2.3,0,4.4-0.3,6.3-0.8c1.8-0.6,3.6-1.5,5.2-2.9c-2.2-1-4.4-1.9-6.6-2.7
			c-2.2-0.7-4.7-1.1-7.4-1.1c-1.7,0-3,0.3-3.7,0.8c-0.7,0.6-1.1,1.3-1.1,2.1c0,1.2,0.6,2.3,1.9,3.2
			C366.2,419.2,368,419.7,370.3,419.7z"/>
		<path fill="#86604E" d="M443.1,415.8c0.1-0.1,0.3-0.1,0.5,0c0.2,0.1,0.2,0.3,0.2,0.6c-1.3,1.8-2.6,3.1-3.8,4
			c-1.3,0.9-2.3,1.3-3.2,1.3c-0.6,0-1-0.3-1.3-0.8c-0.3-0.6-0.6-1.3-0.6-2.3c-0.1-1-0.1-2,0.1-3.2c0.2-1.2,0.4-2.4,0.8-3.7
			c-1.7,2.6-3.4,4.8-5.3,6.7c-1.8,1.9-3.6,3-5.4,3.4c-1.1,0-2-0.5-2.8-1.6c-0.8-1.1-1.2-2.8-1.2-5c0-2,0.4-4,1.2-6.1
			c0.8-2,2-3.8,3.4-5.5c1.4-1.6,3-2.9,4.9-3.9c1.8-1,3.8-1.5,5.8-1.5c1.1,0,2.1,0.1,2.9,0.4c0.8,0.2,1.5,0.6,2.2,1.1
			c0.4-0.3,0.9-0.6,1.5-0.9c0.6-0.3,1.2-0.4,1.8-0.4c0.3,0,0.4,0.2,0.3,0.5c-1.4,1.7-2.6,3.6-3.7,5.7c-1,2.1-1.8,4.1-2.4,6.1
			c-0.6,2-0.9,3.7-1.1,5.2c-0.2,1.5,0,2.5,0.3,3.1c0.3,0.4,0.9,0.4,1.7,0C440.8,418.5,441.9,417.4,443.1,415.8z M427.1,418.5
			c0.7,0,1.6-0.5,2.6-1.4c1.1-1,2.2-2.2,3.4-3.7c1.2-1.5,2.3-3.3,3.5-5.2c1.1-1.9,2.1-3.9,3-5.9c-0.2-0.8-0.8-1.4-1.7-1.9
			c-0.9-0.5-1.9-0.7-3.1-0.7c-1.4,0-2.6,0.4-3.8,1.1c-1.2,0.7-2.3,1.7-3.2,3c-0.9,1.3-1.7,2.8-2.2,4.5c-0.6,1.7-0.8,3.6-0.8,5.7
			c0,1.4,0.2,2.5,0.7,3.4C425.8,418,426.4,418.5,427.1,418.5z"/>
		<path fill="#86604E" d="M464.4,398.3c0.3,0.1,0.4,0.3,0.4,0.6c-0.1,0.2-0.3,0.4-0.8,0.5c-1,0.1-2.1,0.1-3.3,0.2
			c-1.2,0.1-2.4,0.2-3.6,0.3c-1.2,3.1-2.3,6-3,8.9c-0.8,2.8-1.2,5.2-1.2,7c0,2.1,0.8,3.1,2.4,3.1c1.6,0,3.4-1.4,5.3-4.3
			c0.2-0.1,0.4-0.1,0.6,0c0.2,0.2,0.2,0.4,0.2,0.7c-0.6,0.9-1.2,1.7-1.9,2.4c-0.7,0.8-1.4,1.4-2.2,2c-0.7,0.6-1.4,1-2.1,1.3
			c-0.7,0.3-1.2,0.5-1.7,0.5c-1.4,0-2.4-0.4-3-1.2c-0.6-0.8-1-1.8-1-3c0-2,0.4-4.6,1.3-7.7c0.9-3.1,1.9-6.3,3.2-9.5
			c-0.8,0.1-1.6,0.2-2.3,0.4c-0.7,0.1-1.4,0.2-2.1,0.4c-0.3-0.1-0.4-0.2-0.2-0.5c0.2-0.2,0.4-0.5,0.8-0.7c0.4-0.2,0.9-0.5,1.4-0.7
			c0.6-0.2,1.1-0.3,1.6-0.3c0.3-0.1,0.6-0.1,0.8-0.1c0.2,0,0.4,0,0.7,0c0.9-1.9,1.7-3.7,2.6-5.5c0.9-1.8,1.7-3.4,2.6-4.9
			c0.4-0.4,0.8-0.7,1.2-1c0.5-0.3,0.9-0.5,1.3-0.6c0.4-0.1,0.8-0.1,1-0.1c0.2,0,0.3,0.1,0.3,0.3c-1,1.6-2.1,3.4-3.1,5.4
			c-1,2-2,4-2.9,6.1c1.1,0,2.2,0,3.3,0C462,398.3,463.2,398.3,464.4,398.3z"/>
		<path fill="#86604E" d="M480.2,398.3c0.3,0.1,0.4,0.3,0.4,0.6c-0.1,0.2-0.3,0.4-0.8,0.5c-1,0.1-2.1,0.1-3.3,0.2
			c-1.2,0.1-2.4,0.2-3.6,0.3c-1.2,3.1-2.3,6-3,8.9c-0.8,2.8-1.2,5.2-1.2,7c0,2.1,0.8,3.1,2.4,3.1c1.6,0,3.4-1.4,5.3-4.3
			c0.2-0.1,0.4-0.1,0.6,0c0.2,0.2,0.2,0.4,0.2,0.7c-0.6,0.9-1.2,1.7-1.9,2.4c-0.7,0.8-1.4,1.4-2.2,2c-0.7,0.6-1.4,1-2.1,1.3
			c-0.7,0.3-1.2,0.5-1.7,0.5c-1.4,0-2.4-0.4-3-1.2c-0.6-0.8-1-1.8-1-3c0-2,0.4-4.6,1.3-7.7c0.9-3.1,1.9-6.3,3.2-9.5
			c-0.8,0.1-1.6,0.2-2.3,0.4c-0.7,0.1-1.4,0.2-2.1,0.4c-0.3-0.1-0.4-0.2-0.2-0.5c0.2-0.2,0.4-0.5,0.8-0.7c0.4-0.2,0.9-0.5,1.4-0.7
			c0.6-0.2,1.1-0.3,1.6-0.3c0.3-0.1,0.6-0.1,0.8-0.1c0.2,0,0.4,0,0.7,0c0.9-1.9,1.7-3.7,2.6-5.5c0.9-1.8,1.7-3.4,2.6-4.9
			c0.4-0.4,0.8-0.7,1.2-1c0.5-0.3,0.9-0.5,1.3-0.6c0.4-0.1,0.8-0.1,1-0.1c0.2,0,0.3,0.1,0.3,0.3c-1,1.6-2.1,3.4-3.1,5.4
			c-1,2-2,4-2.9,6.1c1.1,0,2.2,0,3.3,0C477.8,398.3,479,398.3,480.2,398.3z"/>
		<path fill="#86604E" d="M496,402c0,0.9-0.3,1.7-1,2.4s-1.6,1.4-2.8,2c-1.2,0.6-2.5,1.1-4,1.6c-1.5,0.5-3.1,1-4.8,1.4
			c-0.1,0.7-0.1,1.4-0.1,2c0,0.7,0,1.4,0,2.2c0,1.5,0.3,2.8,1,3.9c0.7,1,1.6,1.6,2.9,1.6c1.2,0,2.4-0.3,3.5-0.9
			c1.1-0.6,2-1.4,2.9-2.5c0.2-0.1,0.4-0.1,0.6,0.1c0.1,0.2,0.1,0.4,0,0.6c-1,1.4-2.4,2.6-3.9,3.7c-1.6,1-3.2,1.5-4.9,1.5
			c-1.6,0-2.9-0.5-3.9-1.6c-1-1-1.5-2.6-1.5-4.6c0-1.8,0.3-3.8,1-5.9c0.7-2.1,1.6-4,2.7-5.7c1.1-1.7,2.4-3.1,3.8-4.3
			c1.4-1.1,3-1.7,4.6-1.7c1.2,0,2.2,0.4,3,1.2C495.6,400,496,401,496,402z M489.9,400.4c-1.4,0-2.7,0.6-3.8,1.8
			c-1.1,1.2-1.9,3.2-2.4,5.8c3-0.4,5.1-1.1,6.5-1.9c1.4-0.8,2.1-1.8,2.1-2.8c0-0.9-0.2-1.6-0.6-2.1
			C491.2,400.6,490.6,400.4,489.9,400.4z"/>
	</g>
</g>
</svg>
