<?xml version="1.0" encoding="utf-8"?>
<!-- Generator: Adobe Illustrator 18.0.0, SVG Export Plug-In . SVG Version: 6.00 Build 0)  -->
<!DOCTYPE svg PUBLIC "-//W3C//DTD SVG 1.1//EN" "http://www.w3.org/Graphics/SVG/1.1/DTD/svg11.dtd">
<svg version="1.1" id="Layer_1" xmlns="http://www.w3.org/2000/svg" xmlns:xlink="http://www.w3.org/1999/xlink" x="0px" y="0px"
	 viewBox="0 0 560 560" enable-background="new 0 0 560 560" xml:space="preserve">
<g>
	<g>
		<circle fill="#DFCEC4" cx="280.8" cy="270.8" r="233.2"/>
		<g>
			<g>
				<g>
					<g opacity="0.8">
						<g opacity="0.8">
							<path fill="#FAF8F7" d="M402.4,85.4c-8.4-5.6-17.6-10.4-26.6-14.8c-9.2-4.5-18.8-8.4-28.3-11.8
								c-19.6-6.4-39.8-10.6-59.9-11.5c-40.9-2.5-80.4,8.4-108.9,28.3c-6.4,4.2-12.6,9-18.5,14c3.4-2,6.7-3.9,10.1-5.6
								c9.8-5,20.2-9.5,30.5-13.2c5.3-2,10.6-3.4,16-5c5.3-1.4,10.9-2.8,16.5-3.6c22.1-4.2,44.8-5,67.2-2.5
								c45.1,4.8,87.6,24.1,121.2,52.4c21.3,17.1,40.3,38.1,54.3,63.3c14.3,25.2,23.5,54.6,24.1,85.7c0,7,3.6,7.8,5.3,8.4
								c1.1-3.1,2.2-6.2,3.4-9c1.1-2.8,2.2-5.6,3.1-8.1c-1.4-13.4-4.2-26.6-8.1-39.2c-3.9-12.9-9-25.2-14.8-37
								c-12-23.8-27.7-45.6-46.8-64.7c-3.1-3.4-6.7-6.2-10.4-9c-3.9-2.5-7.6-5-11.2-7c-3.6-2-7.3-3.9-10.4-5.6
								C407.4,88.2,404.6,86.8,402.4,85.4z"/>
							<path fill="#F8F5F3" d="M512.1,254.5c0.3-0.3,0.3-0.6,0.3-1.1c-0.3-2.8-0.6-5.3-1.1-8.1C511.8,248.4,511.8,251.4,512.1,254.5
								z"/>
							<path fill="#FAF7F6" d="M463.1,136.1c-11.2-13.4-23.2-25.8-36.1-37c-2.2-1.7-4.8-2.8-7-4.2c-2.2-1.1-4.5-2.5-6.7-3.6
								c-4.5-2.2-8.1-4.2-10.9-5.9c-8.4-5.6-17.6-10.4-26.6-14.8c-9.2-4.5-18.8-8.4-28.3-11.8c-19.6-6.4-39.8-10.6-59.9-11.5
								c-40.9-2.5-80.4,8.4-108.9,28.3c-6.4,4.2-12.3,9-18.2,14c3.6-2,7.3-4.2,10.9-5.9C198.5,70,229,61,260.1,59.1
								c1.7-0.3,3.4-0.6,5-0.8c8.7-2,17.1-1.7,25.5-0.8c4.2,0.6,8.4,1.1,12.3,1.7c4.2,0.8,8.1,1.4,12.3,2.2
								c11.8,1.4,23,4.2,33.6,7.6c10.6,3.4,20.7,7.8,30.2,13.2c19.3,10.4,37,23.2,54.6,39.8c3.1,3.1,6.4,5.9,9.5,9
								c3.4,3.1,6.4,6.2,9.8,9.5c6.4,6.7,12.9,14.3,17.6,23.5c2,3.1,3.4,6.2,4.8,9.2c1.7,3.1,2.8,6.2,3.9,9.2
								c12.3,24.1,20.4,51.5,21,80.6c0,7,3.6,7.8,5.3,8.4c1.1-3.4,2.2-6.4,3.4-9.2c-0.3-12.3-1.4-24.6-3.9-36.7
								c-2.5-12-5.9-24.1-10.1-35.8c-8.7-20.2-20.2-38.9-33.6-56C462,133.6,462.6,134.7,463.1,136.1z"/>
							<path fill="#F8F5F3" d="M465.9,131c-2-2.5-6.2-3.9-4.5,1.7c13.7,17.1,25.2,35.8,33.6,56c-3.6-10.1-8.1-19.6-12.9-29.4
								C477.7,149.8,472.1,140.6,465.9,131z"/>
							<path fill="#FCFAF9" d="M478,126.6c-12.9-19-29.4-34.7-46.5-47.6S396.5,56.3,380,47c-17.4-9.5-35.6-17.4-52.4-24.1
								c-3.4-0.6-6.4-1.1-9.5-1.7c-3.1-0.3-6.4-0.8-9.5-1.1c-20.2-1.7-40-0.8-59.9,2C229,24.9,209.4,30,191,37.5
								c-37,14.6-70,38.1-96.3,67.5c-13.2,14.8-24.6,31.1-33.9,48.4S44,189.3,38.9,208.3s-7.8,38.6-8.7,58.2
								c-0.8,19.6,0.8,39.5,4.8,58.8s10.6,38.1,19.6,55.2c9,17.1,19.9,33,32.5,47c12.6,14.3,27.2,26.6,42.8,37.5
								s32.8,19.9,51.2,26.9c5.3,2.5,10.6,4.2,15.7,6.4c2.5,0.8,5.3,2,7.8,2.8c1.4,0.6,2.5,0.8,3.9,1.4c1.4,0.3,2.5,0.8,3.9,1.1
								c2.5,0.8,5,1.7,7.6,2.5c2.5,0.8,5,1.4,7.6,2c5,1.4,10.1,2.5,15.4,3.6c20.4,4.2,41.4,6.7,64.7,5.6
								c29.1-1.4,56.8-9.2,81.5-21.6c24.6-12.6,46.5-29.7,64.4-49.8c35.8-40.3,57.1-92.1,61-148.1c1.1-15.1-3.1-23.8-6.4-27.4
								c-3.6-3.9-7.3-2.8-7.3,0.6c1.4,44-11.5,87.9-35.8,124C441,431.2,405.7,459.8,366,476c-10.1,4.2-20.2,7.3-30.8,10.1
								c-10.4,2.5-21,4.2-31.9,5.6c-10.6,0.8-21.6,1.4-32.5,0.8s-21.6-1.7-32.2-3.6c-42.6-8.1-83.2-28.6-115.6-59.4
								c-12.6-11.8-23.5-25.2-32.8-39.8c-9.2-14.3-16.8-29.7-22.4-45.6c-11.2-31.9-14.6-66.1-10.4-98.8c4.2-32.8,16-64.1,33.9-91
								s41.4-49.3,68.6-65c5.9-5,12-9.8,18.5-14c28.3-19.9,68-30.8,108.6-28.3c20.2,0.8,40.6,5,59.9,11.5
								c9.8,3.4,19.3,7.3,28.3,11.8c9.2,4.5,18.2,9.2,26.6,14.8c2.2,1.4,5,3.1,8.1,4.8c3.4,1.7,6.7,3.4,10.4,5.6
								c3.9,2,7.6,4.5,11.2,7c3.6,2.8,7.3,5.6,10.4,9c19,19,34.7,40.9,46.8,64.7c5.9,11.8,10.9,24.4,14.8,37
								c3.9,12.9,6.4,26,8.1,39.2c4.5-11.2,8.1-21,9.5-33.3C512.7,185.4,496.4,154.6,478,126.6z"/>
							<path fill="#F8F4F2" d="M478,126.6c18.5,28,34.4,58.5,44,92.4c0.3-3.1,0.6-6.2,0.3-9.5c0-3.4-0.6-7-1.1-10.6
								c-0.6-2.8-1.1-5.3-1.7-8.1c-0.6-2.5-1.4-5.3-2.2-8.1c-1.7-5.3-3.4-10.6-5.3-16c-3.9-10.6-9.2-20.7-14.8-30.8
								c-5.9-10.1-12.6-19.3-20.2-28.6c-7.6-9-15.7-17.4-24.4-25.5c-9-7.8-18.2-15.1-28-21.6s-20.2-12.3-30.8-17.1
								c-10.6-4.8-21.6-9.2-32.5-12.6c-5.6-2-11.2-3.1-16.5-4.8c-2.8-0.6-5.6-1.1-8.4-1.7c-2.8-0.6-5.6-1.1-8.4-1.7
								c16.8,6.7,34.7,14.6,52.4,24.1c16.5,9.2,34.2,19,51.5,31.9C448.6,91.8,465.1,107.5,478,126.6z"/>
							<path fill="#FAF7F6" d="M478,126.6c17.6,26.6,33,55.7,42.6,87.9c-0.8-5.6-2.2-11.2-3.4-16.5c-0.8-2.8-1.7-5.6-2.5-8.1
								l-1.4-4.2l-1.4-3.9c-10.1-27.4-25.8-53.2-44.8-75.3c-19.3-22.1-42-41.2-66.9-56.6c27.7,15.1,52.6,35.6,72.8,59.6
								c20.4,24.1,36.4,52.1,46.8,82.3c-9.8-41.7-35.6-82-70.3-111.7c-8.7-7.6-17.9-14.3-27.4-20.4c-9.8-6.2-19.6-11.5-30-16.2
								c-10.4-4.5-21-9-31.6-12c-5.3-1.7-10.6-3.1-16.2-4.5c-2.8-0.6-5.3-1.1-8.1-1.7c-2.8-0.6-5.3-1.1-8.1-1.7
								c16.5,6.4,34.7,14.6,52.1,24.1c16.5,9.2,34.2,19,51.5,31.9C448.6,91.8,465.1,107.5,478,126.6z"/>
							<path fill="#F8F4F1" d="M408.8,65.2c28.6,19,53.2,43.7,72,72.2c18.8,28.6,32.2,61,38.9,95.2c0.8-3.1,1.4-6.2,2-9.8
								c-0.3-3.1-0.8-5.9-1.1-8.7c-9.5-31.9-24.9-61.3-42.6-87.9c-12.9-19-29.4-34.7-46.5-47.6S396.5,56,380,46.8
								c-17.4-9.5-35.6-17.4-52.1-24.1c-3.1-0.6-6.2-1.1-9-1.4c-3.1-0.3-6.2-0.8-9-1.1c-20.4-1.7-41.2-0.8-61.3,2
								c-10.1,1.4-20.2,3.6-30,6.2c-9.8,2.8-19.6,5.9-28.8,9.8c-9.5,3.6-18.5,8.1-27.4,12.9c-8.7,5-17.4,10.4-25.5,16.2
								c-8.4,5.9-16,12.3-23.5,19c-7.3,7-14.6,14-21,21.8c-10.6,14-20.2,29.1-28.6,45.1c-8.1,16-14.8,33-19.9,50.7
								c-5,17.6-8.4,35.8-9.8,54c-1.4,18.5-0.8,37,1.4,55.2c-5.6-34.2-4.5-69.2,3.4-103.3C29.1,247,27.7,286.4,35,324.2
								c6.7,33,21,63.3,40.6,89c3.4,1.7,6.7,4.5,11.2,8.1s9.5,8.4,15.7,14.6c9.8,9.5,19.9,18.5,30.8,26.3
								c10.9,7.8,23,14.8,35.6,19.9c3.4,1.7,1.4,3.9,8.1,7.3c-19-9.5-34.4-17.6-48.4-25.2c15.7,10.9,33,20.2,51.2,27.4
								c16.8,7.3,32.8,12.6,48.7,17.1c16,4.2,31.9,7.3,49,8.7c3.6,0,7.3-0.3,10.9-0.3c18.2-1.1,36.7-5,53.8-11.5
								c-3.6,0.8-7.3,1.7-10.9,2.5c-3.6,0.8-7.6,1.4-11.5,2c11.5-3.4,26.3-7,37.2-10.4c-4.8,2.2-9.8,4.2-14.8,6.2
								c17.4-4.2,33.3-10.1,50.4-18.8c-20.4,10.4-42.6,19.3-61.9,24.6c21-4.8,40.3-11.8,58.8-21c18.2-9.2,35.6-20.2,52.4-33
								c-0.8,0.8-1.4,1.7-2.2,2.5c21.8-20.7,39.5-45.4,52.1-72.8c12.6-27.2,20.2-57.1,22.7-88.2c0.3-3.6,0.3-7.3,0-10.1
								c-0.3-3.1-0.6-5.6-1.4-7.8c-1.4-4.5-3.1-7.6-5-9.5c-3.6-3.9-7.3-2.8-7.3,0.6c0.8,30.8-5.3,61.6-17.4,89.3
								c-12,28-30.2,53.2-52.6,73.6c-22.4,20.4-49,36.1-77.3,45.6c-28.6,9.8-59.1,13.4-89,11.2c13.4,2.8,27.4,4.5,41.7,4.8
								c3.1-0.3,6.2-0.3,9.2-0.3c3.1,0,5.9-0.3,8.7-0.3c-3.1,0.3-5.9,0.3-9,0.6c-3.1,0-5.9,0-9,0c-16.8,0.8-35.3,0.8-52.9-2.8
								c-1.7-0.8-5-1.4-8.7-1.7c-3.6-0.6-7.3-0.6-9.8,0.3c-11.8-3.6-24.6-7.3-37.2-12.3c-12.6-5-24.6-10.9-34.4-18.2
								c-1.1-0.8-2.8-2.8-4.8-5c-12.9-8.1-25.2-17.6-36.4-28.3c-31.4-30-52.9-68.9-61.6-110c-9-41.2-5.6-84.3,9-122.4
								C61,214.5,55.4,233,51.5,250.9c-3.1,12-3.6,31.4,0,52.9c3.6,21.3,11.5,44.2,21.3,63.8c2.5,4.8,4.2,9,5.6,13.2
								c0.8,2,1.7,4.2,2.5,6.2c0.8,2.2,2,4.5,3.4,6.7c-0.8-0.8-1.7-1.7-2.5-2.8c-0.8-0.8-1.7-2-2.2-2.8c-1.7-2-3.1-3.9-4.8-6.2
								c-2.8-4.5-5.9-9-8.1-13.7c-5-9.8-9.2-20.4-12.3-31.6c-3.1-11.2-5.3-22.7-6.4-34.4c-1.4-11.5-1.7-23.2-2-34.2
								c0-14.8,2-31.4,6.2-47.9s10.6-33.6,18.8-49.6c8.4-16,18.2-31.1,29.4-45.1c10.9-13.7,23-26,34.7-37.2
								c9.8-9.2,20.7-16.2,31.9-21.3c11.2-5,22.1-8.7,32.5-10.9c-6.7,4.2-19.9,9.8-26.3,13.2c-28.8,14.6-54.6,35.8-74.8,61.3
								c-19.6,25.8-33.9,56-41.2,87.9c4.8-16.2,10.9-31.9,18.5-46.8c7.8-14.8,16.8-28.6,27.4-41.4c21-25.5,47.6-46.2,78.1-58.8
								l-6.4,3.4l-6.4,3.6l-3.1,1.4l-3.1,2l-6.2,3.6l-5.9,3.9l-3.1,2l-2.8,2.2l-5.9,4.2l-5.6,4.5c-14.6,12-27.2,26.3-35.8,42.3
								c2.2-2,4.5-4.2,6.7-6.4c16-19.6,35.3-36.1,56.6-48.7c5.9-5,11.8-9.8,18.2-14c28.3-19.9,68-30.8,108.6-28.3
								c20.2,0.8,40.6,5,59.9,11.5c9.8,3.4,19.3,7.3,28.3,11.8c9.2,4.5,18.2,9.2,26.6,14.8c2.8,1.7,6.4,3.9,10.9,5.9
								c2.2,1.1,4.5,2.2,6.7,3.6c2.2,1.1,4.8,2.5,7,4.2c-20.2-17.4-42.6-32.2-68-41.4c9.8,4.8,18.8,9.8,26,16
								c-10.9-5.6-21-10.6-31.6-15.1c-5.3-2.2-10.6-4.2-16-6.2c-5.6-1.7-11.5-3.1-17.6-4.2c13.4,1.4,26.6,4.8,39.2,9.2
								C343.8,50.4,327,45.6,310,42.6c16.8,0.6,32.5,5.6,47,11.8c14.8,6.2,28.8,13.7,44.2,20.7c-6.2-3.6-12.3-7.3-18.5-10.6
								c6.4,3.4,12.6,7,18.8,10.9c0,0-0.3,0-0.3-0.3c9.2,5.6,18.2,11.8,26.9,18.2c8.7,6.4,16.5,13.2,24.1,19.9
								c-12.9-14-26.3-26.3-40.6-37.5c-14.6-10.9-30.5-20.2-48.2-26.9c-2.8-1.1-5.9-2-9-2.8l-4.5-1.4l-4.5-1.1
								c1.7,0.3,3.1,0.8,4.5,1.1c1.4,0.6,3.1,0.8,4.5,1.4c3.1,1.1,5.9,1.7,9,3.1c41.2,14.6,77,42.3,102.8,77
								c25.8,34.7,40.9,76.7,44.5,119c0.6,2.5,0.6,5.3,1.1,8.1c1.1-2.5,2-5,2.8-7.3c-3.4-35.6-14.3-71.1-33-102.2
								c-9.2-15.7-20.2-30.2-32.5-43.4C437.4,87.4,423.6,75.3,408.8,65.2z"/>
						</g>
					</g>
				</g>
			</g>
		</g>
	</g>
	<g>
		<path fill="#6CC3E5" d="M314.7,218.1l-30.5,24.6c0,0,17.1,23.5,26.6,29.7c7.3,4.8,5-9,11.2-14.3c6.4-5.9,17.9-3.1,13.4-11.5
			C325.9,229,314.7,218.1,314.7,218.1z"/>
		<g>
			<g>
				<g>
					<g opacity="0.8">
						<g opacity="0.8">
							<path fill="#EEE8E6" d="M332.4,235.8c1.4,2,2.5,3.9,3.6,6.2l1.7,3.4c0.3,0.6,0.6,1.4,0.8,2.2c0.3,0.8,0.3,1.4,0.3,2.2
								c0,1.7-0.8,3.1-2,3.9s-2.5,1.7-3.9,2c-2.2,0.8-3.9,1.7-5.3,2.8c-0.6,0.6-1.1,1.1-1.7,1.7c0.3,0,0.6-0.3,0.8-0.3
								c0.8-0.3,2-0.6,3.1-0.8l1.7-0.3l1.1-0.3c0.3,0,1.1-0.3,1.4-0.6c2.2-0.6,4.5-2,5.9-3.6c1.4-2,1.7-4.5,1.1-6.7l-0.6-1.7
								c0-0.3-0.3-0.6-0.3-0.8l-0.3-0.6l-1.1-2.2c-0.8-1.7-1.4-2.5-2.2-3.9c-1.4-2.2-3.1-4.5-4.5-6.7c-4.2-5-9.5-9.2-14.3-14.8
								c-0.6-0.6-1.4,0-1.7,0.3c0,0.8,0,1.7,0,2.5c4.2,3.9,8.4,7.8,12,12.9C329.3,233.8,331.8,234.9,332.4,235.8z"/>
							<polygon fill="#E6DEDB" points="316.4,219.2 316.1,219.2 317,219.8 							"/>
							<path fill="#ECE6E3" d="M326.2,229.3c1.4,1.4,2.5,3.1,3.6,4.5c1.1,0.8,2.2,1.4,2.5,2.2c1.4,2,2.5,3.9,3.6,6.2l1.7,3.4
								c0.3,0.6,0.6,1.4,0.8,2.2c0.3,0.8,0.3,1.4,0.3,2.2c0,1.7-0.8,3.1-2,3.9s-2.5,1.7-3.9,2c-2.2,0.8-3.9,1.7-5.3,2.8
								c-0.6,0.6-1.1,0.8-1.7,1.4c0.3-0.3,0.6-0.3,1.1-0.3c1.4-0.3,2.8-0.8,4.5-1.1c1.1-0.3,5.6-1.1,7.8-3.4
								c0.3-0.3,0.3-0.6,0.6-0.8c0.8-1.7,1.1-3.4,1.4-5c0-0.8,0-1.7-0.3-2.5c0-0.6-0.3-0.8-0.3-1.4c0-0.6-0.3-0.8-0.3-1.1
								c-0.8-1.4-2-3.1-2.5-4.2c-0.6-1.1-1.4-2.2-2-3.4c-1.4-2.2-2.8-4.5-4.8-6.7c-1.4-1.7-3.4-2.8-4.8-4.8c-0.6-0.6-1.1-1.4-1.4-2
								c-2.2-2.2-4.5-4.5-7-7c-0.6-0.6-1.4,0-1.7,0.3c0,0.6,0,0.8,0,1.4c1.7,2,3.6,4.2,5.3,6.2c1.7,1.7,3.4,3.4,4.8,5.3
								C326.5,229.6,326.5,229.3,326.2,229.3z"/>
							<path fill="#E6DEDB" d="M325.4,230.2c0.3,0.3,0.8,0.3,1.1-0.6c-1.4-2-3.1-3.6-4.8-5.3C322.8,226.2,324.2,227.9,325.4,230.2z"
								/>
							<path fill="#F4F0EE" d="M322.6,231.8c2.5,3.9,5.9,7,7,10.6c0.3,0.8,0.6,2,0.8,2.8c0,0.8,0.3,1.7,0,2.5l0.6,0.8
								c0.3,0.3,0.3,0.8,0,0.8s-0.3,0.3-0.6,0.3l-2.8,0.8c-2,0.6-4.2,1.7-6.2,2.8s-4.2,3.6-5.3,5.9c-1.1,2.2-1.7,4.2-2.2,6.2
								c-0.3,1.1-0.6,1.4-0.6,1.7s-0.3,0.6-0.3,0.6c-0.3,0.6-0.8,0-1.1-0.3l-0.3-0.3l-0.6-0.6l-0.8-0.8l-0.8-1.1
								c-5-5.3-10.9-9.8-16.5-15.4c-0.8-0.8-1.4-1.7-2-2.8c-0.3-0.6-0.6-0.8-0.8-1.4c-0.3-0.3-0.3-0.6-0.3-0.8
								c-0.3-0.6-0.3-0.8-0.3-1.1s0.3-0.3,0.6-0.3l0.8-0.3c0.3,0,0.6-0.3,0.6-0.3s0.6-0.3,0.8-0.6l0.8-0.6c1.1-0.8,2.2-1.7,3.4-2.5
								c2-2,3.9-3.9,5.9-5.9c3.6-4.2,7.3-8.4,11.5-12.6c2.2-2.2,0.3-5.3-0.3-4.8c-7.3,6.7-14.8,12.9-22.4,18.8l-6.7,5.3l-2,1.7
								c-0.3,0.3-0.8,0.6-0.8,0.8l0.8,1.1l3.4,4.5l2.5,3.1l2.2,2.8c1.7,2,3.1,3.6,5,5.6c2.5,2.8,5.3,5.6,7.8,8.4
								c1.4,1.4,2.5,2.5,4.2,3.9l1.1,1.1l1.7,1.1c1.1,0.8,2.2,1.4,3.4,1.7c1.1,0.3,2.5,0,3.4-0.6c1.1-0.6,1.7-1.7,2.2-2.8
								c0.6-1.1,1.1-2.2,1.4-3.4l0.8-2.5c0.6-1.7,1.4-3.1,2.2-3.9l0.6-0.6l0.6-0.6c0.6-0.3,1.1-0.6,1.7-0.8c0.3-0.6,1.1-1.1,1.7-1.7
								c1.4-1.1,3.1-2,5.3-2.8c1.4-0.6,2.8-1.1,3.9-2c1.1-0.8,2-2.2,2-3.9c0-0.8,0-1.4-0.3-2.2c-0.3-0.6-0.6-1.7-0.8-2.2l-1.7-3.4
								c-1.1-2-2.2-4.2-3.6-6.2c-0.6-1.1-3.1-2-4.2-3.6c-3.4-4.8-7.6-9-12-12.9c-0.3,1.7-0.6,3.4-0.6,4.8
								C318.6,226.2,321.2,228.8,322.6,231.8z"/>
							<path fill="#E5DDD9" d="M322.6,231.8c-1.7-2.8-4.2-5.3-6.7-7.6c0,0.8,0,1.4,0.3,2.2c2,3.9,4.5,7.3,7,10.9
								c1.4,1.7,2.5,3.6,3.9,5.3c0.6,0.8,1.4,2,2,2.8s1.1,1.4,1.4,2.2c0-0.8,0-1.7,0-2.5c-0.3-0.8-0.6-2-0.8-2.8
								C328.4,238.6,325.1,235.8,322.6,231.8z"/>
							<path fill="#ECE6E3" d="M322.6,231.8c-1.7-2.8-3.9-5-6.4-7.3c0.6,0.8,1.1,2,2,2.8c3.4,4.5,7,9.2,9.2,14.3
								c-3.1-5-6.7-10.1-10.6-14.6c2,3.6,4.5,7,7,10.6c1.4,1.7,2.5,3.4,3.9,5.3c0.6,0.8,1.1,1.7,1.7,2.5s0.8,1.4,1.4,2.2
								c0-0.8,0-1.7,0-2.5c-0.3-0.8-0.6-2-0.8-2.8C328.4,238.6,325.1,235.8,322.6,231.8z"/>
							<path fill="#E3DAD6" d="M328.4,239.1c-3.4-6.2-7.3-12-12.6-16.8c0,0.6,0,0.8,0,1.4c0.3,0.3,0.3,0.6,0.6,0.8
								c2.5,2.2,4.8,4.5,6.4,7.3c2.5,3.9,5.9,7,7,10.6c0.3,0.8,0.6,2,0.8,2.8c0,0.8,0.3,1.7,0,2.5l0.6,0.8c0.3,0.3,0.3,0.8,0,1.1
								c-0.3,0-0.3,0.3-0.8,0.3l-2.8,0.8c-2,0.8-4.2,1.7-6.4,3.1c-1.1,0.8-2,1.7-3.1,2.8c-0.8,1.1-1.7,2.2-2.2,3.4
								c-0.6,2-1.1,3.9-1.4,5.9c-0.3,0.6-0.3,1.4-0.6,2c0,0.3-0.3,0.8-0.3,1.1c-0.3,0.3-0.6,0.6-0.8,0.6c-0.3,0-0.8-0.3-1.1-0.6
								s-0.6-0.6-0.8-0.8c-0.6-0.6-1.1-1.1-1.4-1.7c0.6,0.6,1.1,0.8,1.7,1.4c0.6,0.3,0.6,0.3,0.8,0.6c0.3,0.3,0.8,0.3,1.1-0.3
								c-0.3,0.3-0.8,0-1.1-0.3l-0.3-0.3l-0.6-0.6l-0.8-0.8l-0.8-0.8c-2.2-2.2-4.5-4.2-6.7-6.4c-1.1,0-2.2-0.3-3.6-1.4
								c-2-2-3.6-3.9-6.2-5.9c-0.3-0.3,0.3-0.6,0-1.4c1.4,1.7,2.8,2.8,4.2,3.6c-1.4-1.4-2.8-2.5-4.2-3.9c-1.1-1.4-2.2-2.8-3.1-4.2
								c-0.3-0.8-0.6-1.4-0.6-2c-0.3,0,0-0.3,0-0.3c0.3-0.3,0.3-0.6,0.6-0.8c0-0.3,0.3-0.3,0.3-0.6c0.3-0.3,0.6-0.8,0.8-1.1
								c-0.6,0.3-1.1,0.8-1.4,1.1c0-0.3,0.3-0.3,0.3-0.6c0.3-0.3,0.6-0.6,0.8-0.6c0.6-0.6,1.1-0.8,1.4-1.1c-0.3,0.6-0.6,0.8-1.1,1.4
								c1.4-1.1,2.8-2.2,4.5-3.4c-2,1.4-3.6,3.1-4.8,4.8c3.4-2.8,6.2-5.6,9.8-7.6l-0.3,0.3c4.2-4.5,7.8-9.2,12.6-14
								c2.2-2.2,0.3-5.3-0.3-4.8c-5,4.8-10.4,9.2-15.4,13.4c-2.5,2.2-5.3,4.2-7.8,6.2l-4.8,3.6l-2.8,2.2l-0.8,0.6l-0.3,0.3v0.3
								l0.3,0.3l1.1,1.4l-0.6-1.4l-0.3-0.6c0.3-0.3,0.6-0.3,0.8-0.6c1.1-0.6,2-1.1,3.1-1.7c0.8-0.6,1.4-0.8,2.2-1.1
								c-0.8,0.3-1.4,0.8-2.2,1.1c-1.1,0.6-2,1.4-3.1,2.2c0.6,1.1,1.4,2,2,3.1c0,0.6,1.1,2,2,2c1.4,2.5,3.6,4.8,5,7.3
								c0,0,0,0.6,0,0.8c1.1,1.4,2.2,2.5,3.4,3.9c3.4,3.6,6.4,7,10.1,10.4c0.8,0.8,1.7,1.7,2.8,2.5c0.3,0.3,1.1,0.8,1.7,1.4
								c0.6,0.6,1.4,1.1,2,1.1c1.4,0.8,2.8,0.8,4.2,0.3c1.4-0.6,2.2-1.7,3.1-3.1c-0.8,1.1-1.7,2.2-3.1,2.5c-1.1,0.6-2.5,0-3.6-0.8
								c-2.5-2.2-7-5.3-10.6-8.7c-0.8-0.8-0.8-1.7-1.7-2.8c4.2,1.7,6.7,6.7,10.9,9.2c0.6,0.6,1.4,0.8,2,1.1c0.8,0.3,1.7,0.3,2.5-0.3
								c1.4-1.1,2-3.1,2.8-5c1.4-3.6,2.5-7.3,4.8-10.1c2-2.2,5-2.5,7.3-2.5c-0.6,0.6-2,1.1-2.8,1.4c-1.7,0.6-3.1,1.4-4.2,2.5
								c-1.1,1.1-2,2.5-2.8,3.9c-0.6,1.7-1.1,3.1-1.7,5s-1.1,3.9-2.5,5.3c1.7-1.1,2.5-3.4,3.1-5.3c0.6-1.7,1.1-3.4,2-5
								c0.8-1.4,1.7-2.8,2.8-3.6c1.1-0.8,2.8-1.4,4.5-1.7c-1.7,0.8-3.4,1.4-4.8,2.5c-1.1,1.1-2,2.8-2.2,4.8c0.3-0.3,0.6-0.6,0.8-0.8
								c0.6-1.1,1.1-2,2-2.8c0.6-0.6,1.4-1.1,2.5-1.4c0.3-0.6,0.8-1.1,1.7-1.4c1.4-1.1,3.1-2,5.3-2.8c1.4-0.6,2.8-1.1,3.9-2
								s2-2.2,2-3.9c0-0.8,0-1.4-0.3-2.2c-0.3-0.6-0.6-1.7-0.8-2.2l-1.7-3.4c-1.1-2-2.2-4.2-3.6-6.2c-0.3-0.6-1.4-1.4-2.5-2.2
								c1.7,2.5,3.1,5,4.5,7.6c-0.6-1.1-0.8-2.2-0.8-3.4c1.7,2.2,2,4.8,3.4,7.3c-0.8-1.4-1.7-2.8-2.5-3.9c0.6,1.7,1.4,3.4,2.2,5.3
								c-2.5-3.1-2.5-6.7-5.6-9.2c0.6,0.6,0.8,1.4,1.1,2l-1.1-2l0,0c-1.4-2-3.1-3.6-4.5-5.3c2.5,3.4,3.6,7,5.6,10.4l1.1,1.7
								c-0.3-0.6-0.8-1.1-1.1-1.7c-5-7.6-9.5-15.4-15.4-22.7l-0.6-0.6v1.1C320.9,226.2,325.1,232.7,328.4,239.1z"/>
						</g>
					</g>
				</g>
			</g>
		</g>
	</g>
	<g>
		<path fill="#6CC3E5" d="M238.8,232.1l-27.7,27.7c0,0,19.3,21.6,29.4,26.6c7.8,3.9,4.2-9.5,9.5-15.4c5.9-6.4,17.6-5,12.3-12.9
			C251.2,241.6,238.8,232.1,238.8,232.1z"/>
		<g>
			<g>
				<g>
					<g opacity="0.8">
						<g opacity="0.8">
							<path fill="#EEE8E6" d="M258.4,247.8c1.4,1.7,2.8,3.6,4.2,5.6l2,3.4c0.3,0.6,0.6,1.4,1.1,2c0.3,0.8,0.6,1.4,0.6,2.2
								c0.3,1.4-0.6,3.1-1.4,4.2c-1.1,1.1-2.5,2-3.6,2.5c-2.2,1.1-3.9,2-5,3.4c-0.6,0.6-1.1,1.1-1.4,1.7c0.3-0.3,0.6-0.3,0.8-0.6
								c0.8-0.3,2-0.8,3.1-1.1l1.7-0.6l0.8-0.3c0.3,0,0.8-0.3,1.4-0.6c2-0.8,4.5-2.2,5.3-4.5c1.1-2,1.1-4.5,0.3-7l-0.8-1.7
								c0-0.3-0.3-0.6-0.3-0.8l-0.3-0.6l-1.4-2c-1.1-1.4-1.7-2.5-2.5-3.6c-1.7-2.2-3.4-4.2-5.3-6.2c-4.8-4.5-10.4-8.4-16-13.2
								c-0.6-0.6-1.4,0-1.7,0.3c0.3,0.8,0.3,1.7,0.3,2.5c4.8,3.4,9.2,7,13.2,11.5C255.1,246.1,257.6,247,258.4,247.8z"/>
							<polygon fill="#E6DEDB" points="240.5,233 240.5,233 241.1,233.5 							"/>
							<path fill="#ECE6E3" d="M251.4,241.9c1.4,1.1,2.8,2.8,3.9,4.2c1.1,0.6,2.2,1.1,2.8,2c1.4,1.7,2.8,3.6,4.2,5.6l2,3.4
								c0.3,0.6,0.6,1.4,1.1,2c0.3,0.8,0.6,1.4,0.6,2.2c0.3,1.4-0.6,3.1-1.4,4.2c-1.1,1.1-2.5,2-3.6,2.5c-2.2,1.1-3.9,2-5,3.4
								c-0.6,0.6-1.1,1.1-1.4,1.7c0.3-0.3,0.6-0.3,1.1-0.6c1.4-0.6,2.8-1.1,4.5-1.4c1.1-0.3,5.6-1.7,7.3-4.2
								c0.3-0.3,0.3-0.6,0.6-0.8c0.6-1.7,0.8-3.4,0.8-5c-0.3-0.8,0-1.7-0.6-2.5c-0.3-0.6-0.3-0.8-0.6-1.1c-0.3-0.6-0.3-0.8-0.6-1.1
								c-1.1-1.4-2.2-2.8-3.1-3.9c-0.8-1.1-1.7-2.2-2.5-3.1c-1.7-2.2-3.4-4.2-5.3-6.2c-1.4-1.4-3.6-2.2-5.3-4.2
								c-0.6-0.6-1.1-1.1-1.7-1.7c-2.5-2-5-3.9-7.6-6.4c-0.6-0.6-1.4,0-1.7,0.3c0,0.6,0.3,0.8,0.3,1.4c2,2,3.9,3.6,5.9,5.6
								c2,1.4,3.6,3.1,5.3,4.8C251.7,242.2,251.7,241.9,251.4,241.9z"/>
							<path fill="#E6DEDB" d="M250.6,243c0.3,0.3,0.8,0,0.8-0.6c-1.7-1.7-3.6-3.4-5.3-4.8C247.8,239.1,249.5,241.1,250.6,243z"/>
							<path fill="#F4F0EE" d="M248.4,244.7c2.8,3.6,6.4,6.2,8.1,9.8c0.6,0.8,0.8,2,1.1,2.8c0.3,0.8,0.3,1.7,0.3,2.5l0.6,0.6
								c0.3,0.3,0.6,0.8,0,0.8c0,0.3-0.3,0.3-0.6,0.6l-2.5,1.1c-2,0.8-3.9,2-5.9,3.6c-2,1.4-3.9,4.2-4.8,6.4
								c-0.8,2.2-1.4,4.5-1.7,6.4c-0.3,1.1-0.3,1.4-0.3,1.7s-0.3,0.6-0.3,0.6c-0.3,0.6-0.8,0.3-1.1,0l-0.3-0.3l-0.8-0.6l-0.8-0.6
								l-1.1-0.8c-5.6-4.8-11.8-8.7-17.9-13.4c-0.8-0.8-1.7-1.7-2.2-2.5c-0.3-0.3-0.6-0.8-1.1-1.4c-0.3-0.3-0.3-0.6-0.6-0.8
								c-0.3-0.6-0.3-0.8-0.3-1.1c-0.3-0.3,0.3-0.3,0.6-0.6l0.6-0.3c0.3,0,0.6-0.3,0.6-0.3s0.6-0.3,0.6-0.6l0.8-0.8
								c1.1-0.8,2-2,3.1-3.1c2-2,3.6-4.2,5-6.4c3.4-4.5,6.2-9.2,10.1-13.7c2-2.5-0.3-5.3-0.8-4.8c-6.4,7.6-13.4,14.3-20.2,21
								l-6.2,5.9l-2,2c-0.3,0.3-0.8,0.6-0.8,0.8l0.8,1.1l3.6,3.9l2.8,2.8l2.5,2.5c1.7,1.7,3.6,3.4,5.6,5c2.8,2.5,5.9,5,8.7,7.6
								c1.4,1.1,2.8,2.2,4.8,3.6l1.4,0.8l1.7,0.8c1.1,0.6,2.2,1.1,3.4,1.1c1.1,0.3,2.5,0,3.4-0.8c0.8-0.8,1.4-1.7,2-2.8
								c0.6-1.1,0.8-2.5,1.1-3.6l0.6-2.8c0.6-1.7,1.1-3.1,1.7-4.2l0.6-0.8l0.6-0.6c0.6-0.3,1.1-0.8,1.7-1.1c0.3-0.6,0.8-1.1,1.4-1.7
								c1.4-1.4,2.8-2.2,5-3.4c1.1-0.6,2.5-1.4,3.6-2.5c1.1-1.1,1.7-2.5,1.4-4.2c0-0.8-0.3-1.4-0.6-2.2c-0.3-0.6-0.8-1.7-1.1-2
								l-2-3.4c-1.4-2-2.8-3.9-4.2-5.6c-0.8-0.8-3.4-1.7-4.5-3.4c-3.9-4.5-8.7-8.1-13.2-11.5c0,1.7-0.3,3.4,0,4.8
								C243.6,240,246.1,241.9,248.4,244.7z"/>
							<path fill="#E5DDD9" d="M248.4,244.7c-2-2.8-4.8-4.8-7.6-6.7c0,0.8,0.3,1.4,0.6,2.2c2.2,3.6,5.3,6.7,8.1,10.1
								c1.4,1.7,3.1,3.4,4.5,5c0.8,0.8,1.4,1.7,2.2,2.5c0.8,0.8,1.1,1.4,1.7,2.2c0-0.8,0-1.7-0.3-2.5c-0.3-0.8-0.6-2-1.1-2.8
								C254.8,251.2,250.9,248.4,248.4,244.7z"/>
							<path fill="#ECE6E3" d="M248.4,244.7c-2-2.5-4.5-4.8-7.3-6.4c0.6,0.8,1.4,1.7,2.2,2.5c3.9,4.2,7.8,8.4,10.6,13.4
								c-3.6-4.8-7.8-9.2-12.3-13.4c2.2,3.4,5,6.4,8.1,9.8c1.4,1.7,2.8,3.1,4.5,4.8c0.8,0.8,1.4,1.7,2,2.5c0.6,0.8,1.1,1.4,1.7,2
								c0-0.8,0-1.7-0.3-2.5s-0.6-2-1.1-2.8C254.8,251.2,250.9,248.4,248.4,244.7z"/>
							<path fill="#E3DAD6" d="M254.8,251.4c-3.9-5.6-8.7-11.2-14.3-15.4c0,0.6,0,0.8,0,1.4c0.3,0.3,0.3,0.6,0.6,0.8
								c2.8,2,5.3,3.9,7.3,6.4c2.8,3.6,6.4,6.2,8.1,9.8c0.6,0.8,0.8,2,1.1,2.8c0.3,0.8,0.3,1.7,0.3,2.5l0.6,0.6
								c0.3,0.3,0.6,0.8,0,1.1c0,0.3-0.3,0.3-0.6,0.6l-2.8,1.1c-2,0.8-4.2,2-6.2,3.6c-0.8,0.8-2,1.7-2.8,3.1
								c-0.8,1.1-1.4,2.5-1.7,3.6c-0.6,2.2-0.6,4.2-0.8,5.9c0,0.6-0.3,1.4-0.3,2c0,0.3,0,0.8-0.3,1.1c0,0.3-0.6,0.6-0.8,0.6
								c-0.3,0-0.8-0.3-1.1-0.3c-0.3-0.3-0.6-0.6-0.8-0.8c-0.6-0.6-1.1-0.8-1.7-1.4c0.6,0.6,1.1,0.8,1.7,1.1
								c0.6,0.3,0.6,0.3,0.8,0.6c0.3,0.3,1.1,0.3,1.1-0.3c-0.3,0.6-0.8,0-1.1-0.3l-0.3-0.3l-0.8-0.6l-0.8-0.6l-1.1-0.8
								c-2.2-2-4.8-3.9-7.3-5.6c-1.1,0.3-2.2,0-3.6-1.1c-2.2-1.7-4.2-3.6-6.7-5c-0.3-0.3,0.3-0.6-0.3-1.4c1.4,1.7,3.1,2.5,4.8,3.1
								c-1.7-1.1-3.1-2.2-4.8-3.6c-1.4-1.1-2.5-2.5-3.4-3.9c-0.6-0.8-0.8-1.4-0.8-2c-0.3,0,0-0.3,0-0.3c0.3-0.3,0.3-0.6,0.6-0.8
								c0-0.3,0.3-0.3,0.3-0.6c0.3-0.3,0.6-0.8,0.8-1.1c-0.6,0.3-0.8,0.8-1.4,1.4c0-0.3,0-0.3,0.3-0.6c0.3-0.3,0.3-0.6,0.6-0.8
								c0.6-0.6,0.8-0.8,1.4-1.4c-0.3,0.6-0.6,0.8-0.8,1.4c1.4-1.1,2.5-2.5,3.9-3.6c-1.7,1.7-3.1,3.6-4.2,5.3c3.1-3.1,5.6-6.2,9-8.7
								l-0.3,0.3c3.6-4.8,7-10.1,11.2-15.1c2-2.5-0.3-5.3-0.8-4.8c-4.5,5.3-9.2,10.1-14,14.8l-7,6.7l-4.2,4.2l-2.8,2.8l-0.6,0.6
								l-0.3,0.3l0.3,0.3l0.3,0.3l1.4,1.4l-0.8-1.4l-0.3-0.6c0.3-0.3,0.6-0.3,0.8-0.6c1.1-0.6,2-1.4,2.8-2c0.8-0.6,1.4-1.1,2.2-1.4
								c-0.6,0.6-1.4,0.8-2.2,1.4c-0.8,0.8-2,1.7-2.8,2.5c0.8,0.8,1.4,2,2.2,3.1c0,0.6,1.1,1.7,2.2,1.7c1.7,2.5,4.2,4.2,5.6,6.7
								c0,0,0.3,0.6,0.3,0.8c1.1,1.1,2.5,2.2,3.9,3.4c3.6,3.1,7.3,6.4,10.9,9.2c0.8,0.8,2,1.4,3.1,2.2c0.6,0.3,1.1,0.8,2,1.1
								c0.6,0.3,1.4,0.8,2.2,1.1c1.4,0.6,3.1,0.6,4.2,0c1.4-0.8,2-2,2.8-3.4c-0.8,1.4-1.7,2.2-2.8,2.8s-2.5,0.3-3.6-0.3
								c-2.8-2-7.6-4.5-11.5-7.6c-1.1-0.6-1.1-1.7-2-2.5c4.2,1.4,7.6,5.9,11.8,8.1c0.6,0.3,1.4,0.6,2.2,0.8c0.8,0.3,1.7,0,2.5-0.6
								c1.1-1.4,1.7-3.4,2.2-5c0.8-3.9,1.7-7.6,3.6-10.4c1.7-2.5,4.5-3.1,7-3.4c-0.6,0.6-2,1.4-2.5,1.7c-1.4,0.8-2.8,1.7-3.9,2.8
								c-1.1,1.1-1.7,2.5-2.2,4.2c-0.6,1.7-0.8,3.4-1.1,5c-0.3,2-0.6,4.2-2,5.6c1.4-1.4,2-3.6,2.5-5.6c0.6-1.7,0.8-3.6,1.4-5
								c0.6-1.7,1.4-3.1,2.2-3.9c1.1-1.1,2.5-1.7,4.2-2.2c-1.7,0.8-3.4,1.7-4.5,3.1c-1.1,1.1-1.7,3.1-1.7,4.8
								c0.3-0.3,0.6-0.6,0.6-0.8c0.6-1.1,1.1-2.2,1.7-2.8c0.6-0.6,1.4-1.1,2.2-1.7c0.3-0.6,0.8-1.1,1.4-1.7c1.4-1.4,2.8-2.2,5-3.4
								c1.1-0.6,2.5-1.4,3.6-2.5c1.1-1.1,1.7-2.5,1.4-4.2c0-0.8-0.3-1.4-0.6-2.2c-0.3-0.6-0.8-1.7-1.1-2l-2-3.4
								c-1.4-2-2.8-3.9-4.2-5.6c-0.6-0.6-1.7-1.1-2.8-2c2,2.2,3.4,4.8,5.3,7.3c-0.6-1.1-0.8-2.2-1.4-3.4c2,2.2,2.5,4.5,4.2,7
								c-1.1-1.1-2-2.5-3.1-3.6c0.8,1.7,2,3.4,2.8,5c-2.8-2.8-3.1-6.4-6.4-8.7c0.6,0.6,0.8,1.1,1.4,2l-1.4-2l0,0
								c-1.4-2-3.4-3.4-5-4.8c2.8,3.1,4.2,6.4,6.7,9.5l1.1,1.4c-0.3-0.6-0.8-1.1-1.1-1.4c-5.9-7-10.9-14.6-17.6-21l-0.8-0.6v1.1
								C245.8,239.4,250.9,245.3,254.8,251.4z"/>
						</g>
					</g>
				</g>
			</g>
		</g>
	</g>
	<g>
		<path fill="#A2D2EA" d="M269.4,366.8l35,17.4c0,0,14.3-25.2,16-36.4c1.4-8.7-10.4-0.8-17.6-4.2c-7.8-3.6-10.4-15.1-16.2-7.6
			C274.4,352.2,269.4,366.8,269.4,366.8z"/>
		<g>
			<g>
				<g>
					<g opacity="0.8">
						<g opacity="0.8">
							<path fill="#EEE8E6" d="M278,343.3c1.1-2,2.5-3.9,3.9-5.9l2.5-3.1c0.3-0.6,1.1-1.1,1.7-1.7c0.6-0.6,1.4-0.8,2-1.1
								c1.4-0.6,3.1-0.6,4.5,0.3c1.4,0.6,2.5,1.7,3.4,2.8c1.7,1.7,3.1,3.1,4.8,3.6c0.6,0.3,1.4,0.6,2,0.8c-0.3-0.3-0.6-0.6-0.8-0.8
								c-0.6-0.8-1.4-1.7-2-2.5l-1.1-1.4l-0.6-0.8c-0.3-0.3-0.6-0.8-1.1-1.1c-1.4-1.7-3.6-3.4-5.9-3.6c-2.2-0.6-4.8,0.3-6.7,1.7
								l-1.4,1.4c-0.3,0.3-0.6,0.6-0.6,0.6l-0.3,0.6l-1.4,2c-1.1,1.4-1.7,2.5-2.5,3.6c-1.4,2.2-2.8,4.5-4.2,7
								c-2.8,6.2-4.5,12.6-7.6,19.3c-0.3,0.8,0.6,1.1,0.8,1.4c0.8-0.6,1.7-0.8,2.2-1.1c1.7-5.6,3.6-10.9,6.7-16.2
								C277.5,346.9,277.2,344.1,278,343.3z"/>
							<polygon fill="#E6DEDB" points="269.6,364.8 269.6,364.8 269.9,364 							"/>
							<path fill="#ECE6E3" d="M274.4,351.4c0.8-2,1.7-3.6,2.5-5c0.3-1.4,0.3-2.5,0.8-3.1c1.1-2,2.5-3.9,3.9-5.9l2.5-3.1
								c0.3-0.6,1.1-1.1,1.7-1.7c0.6-0.6,1.4-0.8,2-1.1c1.4-0.6,3.1-0.6,4.5,0.3c1.4,0.6,2.5,1.7,3.4,2.8c1.7,1.7,3.1,3.1,4.8,3.6
								c0.6,0.3,1.4,0.6,2,0.8c-0.3-0.3-0.6-0.6-0.8-0.8c-0.8-1.1-1.7-2.2-2.8-3.6c-0.6-0.8-3.4-4.8-6.4-5.6c-0.3,0-0.6-0.3-1.1-0.3
								c-1.7,0-3.4,0.3-5,0.8c-0.8,0.6-1.7,0.6-2.2,1.4c-0.3,0.3-0.6,0.6-1.1,0.8c-0.3,0.3-0.6,0.6-0.8,0.8c-0.8,1.4-2,2.8-2.8,4.2
								c-0.8,1.1-1.4,2.2-2.2,3.4c-1.4,2.2-2.8,4.5-4.2,7c-0.8,2-1.1,4.2-2.2,6.4c-0.3,0.8-0.8,1.4-1.1,2c-1.1,3.1-2.2,6.2-3.6,9.2
								c-0.3,0.8,0.6,1.1,0.8,1.4c0.6-0.3,0.8-0.6,1.1-0.6c1.1-2.5,2.2-5,3.4-7.3c0.8-2.2,1.7-4.5,2.8-6.7
								C274.7,351.4,274.7,351.4,274.4,351.4z"/>
							<path fill="#E6DEDB" d="M275.8,352c0.3-0.3-0.3-0.8-0.8-0.6c-1.1,2.2-2,4.5-2.8,6.7C273,355.9,274.4,353.9,275.8,352z"/>
							<path fill="#F4F0EE" d="M278.3,353.9c2.5-3.9,3.9-8.1,6.7-10.9c0.8-0.8,1.4-1.4,2.2-2c0.8-0.6,1.4-0.8,2.2-1.1l0.6-0.8
								c0-0.3,0.6-0.6,0.8-0.3c0.3,0,0.3,0.3,0.6,0.6l2,2c1.4,1.4,3.1,3.1,5.3,4.5c2,1.4,5,2.2,7.6,2.2s4.8-0.3,6.7-0.6
								c1.1-0.3,1.4-0.3,1.7-0.3s0.6,0,0.8,0c0.6,0.3,0.6,0.8,0.3,1.1v0.3l-0.3,0.8l-0.3,1.1l-0.6,1.4c-2.8,6.7-4.5,14-7,21.6
								c-0.6,1.1-1.1,2-1.7,3.1c-0.3,0.6-0.6,0.8-0.8,1.4c-0.3,0.3-0.3,0.6-0.6,0.6c-0.3,0.3-0.8,0.6-1.1,0.8c0,0.3-0.3-0.3-0.6-0.3
								l-0.6-0.6c-0.3-0.3-0.3-0.3-0.6-0.6c0,0-0.6-0.3-0.8-0.6c-0.3-0.3-0.6-0.3-0.8-0.6c-1.1-0.6-2.5-1.4-3.6-2
								c-2.5-1.1-5-2-7.8-2.8c-5.3-1.7-10.6-3.1-16.2-5c-3.1-1.1-5,2-4.2,2.2c9.2,3.6,17.9,8.1,26.3,12.3l7.6,3.9l2.5,1.1
								c0.3,0,0.8,0.6,1.1,0.6l0.6-1.1l2.5-4.8l2-3.6c0.6-1.1,1.1-2.2,1.7-3.4c1.1-2.2,2-4.5,3.1-6.7c1.4-3.6,2.8-7,4.2-10.6
								c0.6-2,1.4-3.6,2-5.6l0.6-1.4l0.3-2c0.3-1.1,0.3-2.5,0-3.6c-0.3-1.1-0.8-2.2-2-2.8s-2.2-0.8-3.4-0.8c-1.4,0-2.5,0-3.6,0
								l-2.8,0.3c-1.7,0-3.4,0-4.5-0.3l-0.8-0.3l-0.8-0.3c-0.6-0.3-1.1-0.8-1.4-1.1c-0.6,0-1.4-0.6-2-0.8c-1.7-0.8-3.1-2-4.8-3.6
								c-0.8-1.1-2.2-2-3.4-2.8c-1.4-0.6-3.1-0.8-4.5-0.3c-0.6,0.3-1.4,0.8-2,1.1c-0.6,0.6-1.4,1.1-1.7,1.7l-2.5,3.1
								c-1.4,2-2.8,3.6-3.9,5.9c-0.6,1.1-0.6,3.6-1.7,5.3c-3.1,5.3-4.8,10.6-6.7,16.2c1.7-0.6,3.1-0.8,4.5-1.7
								C275.2,359.8,276.4,356.4,278.3,353.9z"/>
							<path fill="#E5DDD9" d="M278.3,353.9c-2,2.8-3.1,6.2-3.9,9.2c0.6-0.3,1.4-0.8,1.7-1.4c2.5-3.4,4.8-7,7-10.9
								c1.1-2,2.2-3.9,3.4-5.9c0.6-0.8,1.1-2,1.7-2.8c0.6-0.8,0.8-1.4,1.4-2.2c-0.8,0.3-1.4,0.6-2.2,1.1s-1.7,1.1-2.2,2
								C282.2,345.5,280.8,350,278.3,353.9z"/>
							<path fill="#ECE6E3" d="M278.3,353.9c-2,2.5-3.1,5.9-3.9,9c0.6-0.8,1.1-2,1.7-2.8c2.8-5,5.3-10.1,9.2-14.3
								c-3.4,5-6.4,10.4-8.7,16c2.5-3.4,4.5-7,6.7-10.6c1.1-2,2-3.6,3.1-5.6c0.6-0.8,1.1-2,1.7-2.8c0.6-0.8,0.8-1.4,1.4-2.2
								c-0.8,0.3-1.4,0.6-2.2,1.1c-0.8,0.6-1.7,1.1-2.2,2C282.2,345.5,280.8,350,278.3,353.9z"/>
							<path fill="#E3DAD6" d="M282.5,345.5c-4.2,5.6-7.8,11.8-9.8,18.5c0.3-0.3,0.8-0.3,1.1-0.6c0.3-0.3,0.3-0.6,0.6-0.8
								c0.8-3.1,2-6.4,3.9-9c2.5-3.9,3.9-8.1,6.7-10.9c0.8-0.8,1.4-1.4,2.2-2c0.8-0.6,1.4-0.8,2.2-1.1l0.6-0.8
								c0-0.3,0.6-0.6,0.8-0.6s0.3,0.3,0.6,0.6l2,2.2c1.4,1.7,3.4,3.4,5.6,4.5c1.1,0.6,2.2,1.1,3.6,1.7c1.4,0.3,2.8,0.6,3.9,0.6
								c2.2-0.3,4.2-0.6,5.9-1.1c0.6,0,1.4-0.3,2-0.3c0.3,0,0.8,0,1.1,0s0.8,0.3,0.8,0.6c0.3,0.3,0,0.8,0,1.1s-0.3,0.6-0.3,1.1
								c-0.3,0.8-0.6,1.4-0.8,2c0.3-0.8,0.3-1.4,0.6-2c0.3-0.6,0-0.6,0.3-0.8c0-0.6,0-1.1-0.6-1.1c0.6,0.3,0.3,0.8,0.3,1.1v0.3
								l-0.3,0.8l-0.3,1.1l-0.6,1.1c-1.1,2.8-2,5.9-3.1,9c0.6,0.8,0.8,2.2,0.3,3.9c-0.8,2.5-2.2,5-2.8,7.8c-0.3,0.3-0.8,0-1.1,0.6
								c1.1-2,1.4-3.6,1.4-5.3c-0.6,2-1.1,3.6-2,5.6c-0.8,1.7-1.7,3.1-2.5,4.5c-0.6,0.8-1.1,1.1-1.7,1.4c0,0.3-0.3,0-0.3,0
								c-0.3,0-0.6,0-1.1-0.3c-0.3,0-0.6,0-0.6,0c-0.3,0-0.8-0.3-1.4-0.3c0.6,0.3,1.1,0.6,1.7,0.8c-0.3,0-0.3,0-0.6,0
								s-0.6-0.3-0.8-0.3c-0.6-0.3-1.1-0.6-1.7-0.8c0.6,0,1.1,0.3,1.7,0.3c-1.7-0.8-3.1-1.7-4.8-2.5c2,1.1,4.5,2,6.4,2.5
								c-3.9-2-7.6-3.4-11.2-5.9h0.3c-5.9-2-11.8-3.4-17.9-5.6c-3.1-1.1-5,2-4.2,2.2c6.4,2.5,12.6,5.6,18.5,8.4
								c3.1,1.4,5.9,3.1,9,4.5l5.3,2.8l3.4,1.7l0.8,0.3h0.3v-0.3l0.3-0.3l0.8-1.7l-1.1,1.1l-0.6,0.6c-0.3,0-0.6-0.3-0.8-0.6
								c-0.8-0.8-2-1.4-2.8-2.2c-0.8-0.6-1.4-1.1-2-1.7c0.6,0.6,1.4,1.1,2,1.7c1.1,0.6,2.2,1.4,3.4,2c0.6-0.8,1.4-2,2-3.1
								c0.3-0.3,1.1-1.7,1.1-2.5c2-2.2,2.8-5.3,4.5-7.6c0-0.3,0.3-0.3,0.8-0.6c0.8-1.7,1.4-3.1,2-4.8c2-4.5,3.6-9,5.3-13.4
								c0.3-1.1,0.8-2.2,1.1-3.6c0.3-0.6,0.3-1.4,0.6-2.2c0-0.8,0.3-1.7,0.3-2.2c0-1.4-0.3-3.1-1.4-4.2c-1.1-1.1-2.5-1.4-4.2-1.4
								c1.4,0.3,2.8,0.8,3.6,1.7c1.1,0.8,1.1,2.5,0.8,3.6c-0.8,3.4-2,8.7-3.4,13.2c-0.3,1.1-1.1,1.7-1.7,2.5c0-4.5,3.1-9,3.9-13.7
								c0-0.8,0.3-1.7,0.3-2.2c0-0.8-0.6-1.7-1.1-2.2c-1.7-0.8-3.6-0.6-5.6-0.3c-3.9,0.3-7.6,0.8-10.9,0c-2.8-0.8-4.5-3.4-5.3-5.6
								c0.8,0.3,2,1.4,2.5,2c1.1,1.1,2.5,2.2,3.9,2.8c1.4,0.6,3.1,0.8,4.8,0.8s3.4-0.3,5.3-0.6c2-0.3,4.2-0.6,5.9,0
								c-1.7-1.1-4.2-0.8-6.2-0.6c-2,0.3-3.6,0.3-5.3,0.3s-3.4-0.3-4.5-1.1c-1.4-0.8-2.5-2-3.4-3.4c1.4,1.4,2.8,2.5,4.2,3.1
								c1.4,0.6,3.4,0.6,5,0c-0.3,0-0.6-0.3-0.8-0.3c-1.1,0-2.5-0.3-3.4-0.6s-1.7-0.8-2.2-1.7c-0.6,0-1.4-0.6-2-0.8
								c-1.7-0.8-3.1-2-4.8-3.6c-0.8-1.1-2.2-2-3.4-2.8c-1.4-0.6-3.1-0.8-4.5-0.3c-0.6,0.3-1.4,0.8-2,1.1c-0.6,0.6-1.4,1.1-1.7,1.7
								l-2.5,3.1c-1.4,2-2.8,3.6-3.9,5.9c-0.6,0.6-0.6,2-0.8,3.1c1.7-2.5,3.4-4.8,5-7.3c-0.8,0.8-1.7,1.7-2.8,2.2
								c1.4-2.5,3.6-3.6,5.3-6.2c-0.8,1.4-1.7,2.8-2.5,3.9c1.4-1.4,2.5-2.8,3.9-4.2c-2,3.6-5,5-6.2,9c0.3-0.6,0.8-1.4,1.4-2l-1.4,2
								l0,0c-1.1,2-2.2,4.2-2.8,6.4c2-3.6,4.8-6.2,7-9.5l1.1-1.7c-0.3,0.6-0.6,1.1-1.1,1.7c-4.8,7.6-10.1,15.1-14.3,23.2l-0.3,0.8
								l1.1-0.3C273.8,357.6,278,351.1,282.5,345.5z"/>
						</g>
					</g>
				</g>
			</g>
		</g>
	</g>
	<g>
		<path fill="#A2D2EA" d="M250,335.7l-27.7,27.7c0,0,19.3,21.6,29.4,26.6c7.8,3.9,4.2-9.5,9.5-15.4c5.9-6.4,17.6-5,12.3-12.9
			C262.4,345.2,250,335.7,250,335.7z"/>
		<g>
			<g>
				<g>
					<g opacity="0.8">
						<g opacity="0.8">
							<path fill="#EEE8E6" d="M269.6,351.4c1.4,1.7,2.8,3.6,4.2,5.6l2,3.4c0.3,0.6,0.6,1.4,1.1,2c0.3,0.8,0.6,1.4,0.6,2.2
								c0.3,1.4-0.6,3.1-1.4,4.2c-1.1,1.1-2.5,2-3.6,2.5c-2.2,1.1-3.9,2-5,3.4c-0.6,0.6-1.1,1.1-1.4,1.7c0.3-0.3,0.6-0.3,0.8-0.6
								c0.8-0.3,2-0.8,3.1-1.1l1.7-0.6l0.8-0.3c0.3,0,0.8-0.3,1.4-0.6c2-0.8,4.5-2.2,5.3-4.5c1.1-2,1.1-4.5,0.3-7l-0.8-1.7
								c0-0.3-0.3-0.6-0.3-0.8l-0.3-0.6l-1.4-2c-1.1-1.4-1.7-2.5-2.5-3.6c-1.7-2.2-3.4-4.2-5.3-6.2c-4.8-4.5-10.4-8.4-16-13.2
								c-0.6-0.6-1.4,0-1.7,0.3c0.3,0.8,0.3,1.7,0.3,2.5c4.8,3.4,9.2,7,13.2,11.5C266.3,349.7,268.8,350.6,269.6,351.4z"/>
							<polygon fill="#E6DEDB" points="251.7,336.6 251.7,336.6 252.3,337.1 							"/>
							<path fill="#ECE6E3" d="M262.6,345.5c1.4,1.1,2.8,2.8,3.9,4.2c1.1,0.6,2.2,1.1,2.8,2c1.4,1.7,2.8,3.6,4.2,5.6l2,3.4
								c0.3,0.6,0.6,1.4,1.1,2c0.3,0.8,0.6,1.4,0.6,2.2c0.3,1.4-0.6,3.1-1.4,4.2c-1.1,1.1-2.5,2-3.6,2.5c-2.2,1.1-3.9,2-5,3.4
								c-0.6,0.6-1.1,1.1-1.4,1.7c0.3-0.3,0.6-0.3,1.1-0.6c1.4-0.6,2.8-1.1,4.5-1.4c1.1-0.3,5.6-1.7,7.3-4.2
								c0.3-0.3,0.3-0.6,0.6-0.8c0.6-1.7,0.8-3.4,0.8-5c-0.3-0.8,0-1.7-0.6-2.5c-0.3-0.6-0.3-0.8-0.6-1.1c-0.3-0.6-0.3-0.8-0.6-1.1
								c-1.1-1.4-2.2-2.8-3.1-3.9s-1.7-2.2-2.5-3.1c-1.7-2.2-3.4-4.2-5.3-6.2c-1.4-1.4-3.6-2.2-5.3-4.2c-0.6-0.6-1.1-1.1-1.7-1.7
								c-2.5-2-5-3.9-7.6-6.4c-0.6-0.6-1.4,0-1.7,0.3c0,0.6,0.3,0.8,0.3,1.4c2,2,3.9,3.6,5.9,5.6c2,1.4,3.6,3.1,5.3,4.8
								C262.9,345.8,262.9,345.5,262.6,345.5z"/>
							<path fill="#E6DEDB" d="M261.8,346.6c0.3,0.3,0.8,0,0.8-0.6c-1.7-1.7-3.6-3.4-5.3-4.8C259,342.7,260.7,344.7,261.8,346.6z"/>
							<path fill="#F4F0EE" d="M259.6,348.3c2.8,3.6,6.4,6.2,8.1,9.8c0.6,0.8,0.8,2,1.1,2.8c0.3,0.8,0.3,1.7,0.3,2.5l0.6,0.6
								c0.3,0.3,0.6,0.8,0,0.8c0,0.3-0.3,0.3-0.6,0.6l-2.5,1.1c-2,0.8-3.9,2-5.9,3.6c-2,1.4-3.9,4.2-4.8,6.4
								c-0.8,2.2-1.4,4.5-1.7,6.4c-0.3,1.1-0.3,1.4-0.3,1.7c0,0.3-0.3,0.6-0.3,0.6c-0.3,0.6-0.8,0.3-1.1,0l-0.3-0.3l-0.8-0.6
								l-0.8-0.6l-1.1-0.8c-5.6-4.8-11.8-8.7-17.9-13.4c-0.8-0.8-1.7-1.7-2.2-2.5c-0.3-0.3-0.6-0.8-1.1-1.4
								c-0.3-0.3-0.3-0.6-0.6-0.8c-0.3-0.6-0.3-0.8-0.3-1.1c-0.3-0.3,0.3-0.3,0.6-0.6l0.6-0.3c0.3,0,0.6-0.3,0.6-0.3
								s0.6-0.3,0.6-0.6l0.8-0.8c1.1-0.8,2-2,3.1-3.1c2-2,3.6-4.2,5-6.4c3.4-4.5,6.2-9.2,10.1-13.7c2-2.5-0.3-5.3-0.8-4.8
								c-6.4,7.6-13.4,14.3-20.2,21l-6.2,5.9l-2,2c-0.3,0.3-0.8,0.6-0.8,0.8l0.8,1.1l3.6,3.9l2.8,2.8l2.5,2.5c1.7,1.7,3.6,3.4,5.6,5
								c2.8,2.5,5.9,5,8.7,7.6c1.4,1.1,2.8,2.2,4.8,3.6l1.4,0.8l1.7,0.8c1.1,0.6,2.2,1.1,3.4,1.1c1.1,0.3,2.5,0,3.4-0.8
								c0.8-0.8,1.4-1.7,2-2.8c0.6-1.1,0.8-2.5,1.1-3.6l0.6-2.8c0.6-1.7,1.1-3.1,1.7-4.2l0.6-0.8l0.6-0.6c0.6-0.3,1.1-0.8,1.7-1.1
								c0.3-0.6,0.8-1.1,1.4-1.7c1.4-1.4,2.8-2.2,5-3.4c1.1-0.6,2.5-1.4,3.6-2.5c1.1-1.1,1.7-2.5,1.4-4.2c0-0.8-0.3-1.4-0.6-2.2
								c-0.3-0.6-0.8-1.7-1.1-2l-2-3.4c-1.4-2-2.8-3.9-4.2-5.6c-0.8-0.8-3.4-1.7-4.5-3.4c-3.9-4.5-8.7-8.1-13.2-11.5
								c0,1.7-0.3,3.4,0,4.8C254.8,343.6,257.3,345.5,259.6,348.3z"/>
							<path fill="#E5DDD9" d="M259.6,348.3c-2-2.8-4.8-4.8-7.6-6.7c0,0.8,0.3,1.4,0.6,2.2c2.2,3.6,5.3,6.7,8.1,10.1
								c1.4,1.7,3.1,3.4,4.5,5c0.8,0.8,1.4,1.7,2.2,2.5c0.8,0.8,1.1,1.4,1.7,2.2c0-0.8,0-1.7-0.3-2.5c-0.3-0.8-0.6-2-1.1-2.8
								C266,354.8,262.1,352,259.6,348.3z"/>
							<path fill="#ECE6E3" d="M259.6,348.3c-2-2.5-4.5-4.8-7.3-6.4c0.6,0.8,1.4,1.7,2.2,2.5c3.9,4.2,7.8,8.4,10.6,13.4
								c-3.6-4.8-7.8-9.2-12.3-13.4c2.2,3.4,5,6.4,8.1,9.8c1.4,1.7,2.8,3.1,4.5,4.8c0.8,0.8,1.4,1.7,2,2.5c0.6,0.8,1.1,1.4,1.7,2
								c0-0.8,0-1.7-0.3-2.5c-0.3-0.8-0.6-2-1.1-2.8C266,354.8,262.1,352,259.6,348.3z"/>
							<path fill="#E3DAD6" d="M266,355c-3.9-5.6-8.7-11.2-14.3-15.4c0,0.6,0,0.8,0,1.4c0.3,0.3,0.3,0.6,0.6,0.8
								c2.8,2,5.3,3.9,7.3,6.4c2.8,3.6,6.4,6.2,8.1,9.8c0.6,0.8,0.8,2,1.1,2.8c0.3,0.8,0.3,1.7,0.3,2.5l0.6,0.6
								c0.3,0.3,0.6,0.8,0,1.1c0,0.3-0.3,0.3-0.6,0.6l-2.8,1.1c-2,0.8-4.2,2-6.2,3.6c-0.8,0.8-2,1.7-2.8,3.1
								c-0.8,1.1-1.4,2.5-1.7,3.6c-0.6,2.2-0.6,4.2-0.8,5.9c0,0.6-0.3,1.4-0.3,2c0,0.3,0,0.8-0.3,1.1c0,0.3-0.6,0.6-0.8,0.6
								c-0.3,0-0.8-0.3-1.1-0.3c-0.3-0.3-0.6-0.6-0.8-0.8c-0.6-0.6-1.1-0.8-1.7-1.4c0.6,0.6,1.1,0.8,1.7,1.1
								c0.6,0.3,0.6,0.3,0.8,0.6c0.3,0.3,1.1,0.3,1.1-0.3c-0.3,0.6-0.8,0-1.1-0.3L252,385l-0.8-0.6l-0.8-0.6l-1.1-0.8
								c-2.2-2-4.8-3.9-7.3-5.6c-1.1,0.3-2.2,0-3.6-1.1c-2.2-1.7-4.2-3.6-6.7-5c-0.3-0.3,0.3-0.6-0.3-1.4c1.4,1.7,3.1,2.5,4.8,3.1
								c-1.7-1.1-3.1-2.2-4.8-3.6c-1.4-1.1-2.5-2.5-3.4-3.9c-0.6-0.8-0.8-1.4-0.8-2c-0.3,0,0-0.3,0-0.3c0.3-0.3,0.3-0.6,0.6-0.8
								c0-0.3,0.3-0.3,0.3-0.6c0.3-0.3,0.6-0.8,0.8-1.1c-0.6,0.3-0.8,0.8-1.4,1.4c0-0.3,0-0.3,0.3-0.6c0.3-0.3,0.3-0.6,0.6-0.8
								c0.6-0.6,0.8-0.8,1.4-1.4c-0.3,0.6-0.6,0.8-0.8,1.4c1.4-1.1,2.5-2.5,3.9-3.6c-1.7,1.7-3.1,3.6-4.2,5.3c3.1-3.1,5.6-6.2,9-8.7
								l-0.3,0.3c3.6-4.8,7-10.1,11.2-15.1c2-2.5-0.3-5.3-0.8-4.8c-4.5,5.3-9.2,10.1-14,14.8l-7.3,7l-4.2,4.2l-2.8,2.8l-0.6,0.6
								l-0.3,0.3l0.3,0.3l0.3,0.3l1.4,1.4l-0.6-1.4l-0.3-0.6c0.3-0.3,0.6-0.3,0.8-0.6c1.1-0.6,2-1.4,2.8-2c0.8-0.6,1.4-1.1,2.2-1.4
								c-0.6,0.6-1.4,0.8-2.2,1.4c-0.8,0.8-2,1.7-2.8,2.5c0.8,0.8,1.4,2,2.2,3.1c0,0.6,1.1,1.7,2.2,1.7c1.7,2.5,4.2,4.2,5.6,6.7
								c0,0,0.3,0.6,0.3,0.8c1.1,1.1,2.5,2.2,3.9,3.4c3.6,3.1,7.3,6.4,10.9,9.2c0.8,0.8,2,1.4,3.1,2.2c0.6,0.3,1.1,0.8,2,1.1
								c0.6,0.3,1.4,0.8,2.2,1.1c1.4,0.6,3.1,0.6,4.2,0c1.4-0.8,2-2,2.8-3.4c-0.8,1.4-1.7,2.2-2.8,2.8c-1.1,0.6-2.5,0.3-3.6-0.3
								c-2.8-2-7.6-4.5-11.5-7.6c-1.1-0.6-1.1-1.7-2-2.5c4.2,1.4,7.6,5.9,11.8,8.1c0.6,0.3,1.4,0.6,2.2,0.8c0.8,0.3,1.7,0,2.5-0.6
								c1.1-1.4,1.7-3.4,2.2-5c0.8-3.9,1.7-7.6,3.6-10.4c1.7-2.5,4.5-3.1,7-3.4c-0.6,0.6-2,1.4-2.5,1.7c-1.4,0.8-2.8,1.7-3.9,2.8
								c-1.1,1.1-1.7,2.5-2.2,4.2s-0.8,3.4-1.1,5c-0.3,2-0.6,4.2-2,5.6c1.4-1.4,2-3.6,2.5-5.6c0.6-1.7,0.8-3.6,1.4-5
								c0.6-1.7,1.4-3.1,2.2-3.9c1.1-1.1,2.5-1.7,4.2-2.2c-1.7,0.8-3.4,1.7-4.5,3.1c-1.1,1.1-1.7,3.1-1.7,4.8
								c0.3-0.3,0.6-0.6,0.6-0.8c0.6-1.1,1.1-2.2,1.7-2.8s1.4-1.1,2.2-1.7c0.3-0.6,0.8-1.1,1.4-1.7c1.4-1.4,2.8-2.2,5-3.4
								c1.1-0.6,2.5-1.4,3.6-2.5c1.1-1.1,1.7-2.5,1.4-4.2c0-0.8-0.3-1.4-0.6-2.2c-0.3-0.6-0.8-1.7-1.1-2l-2-3.4
								c-1.4-2-2.8-3.9-4.2-5.6c-0.6-0.6-1.7-1.1-2.8-2c2,2.2,3.4,4.8,5.3,7.3c-0.6-1.1-0.8-2.2-1.4-3.4c2,2.2,2.5,4.5,4.2,7
								c-1.1-1.1-2-2.5-3.1-3.6c0.8,1.7,2,3.4,2.8,5c-2.8-2.8-3.1-6.4-6.4-8.7c0.6,0.6,0.8,1.1,1.4,2l-1.4-2l0,0
								c-1.4-2-3.4-3.4-5-4.8c2.8,3.1,4.2,6.4,6.7,9.5l1.1,1.4c-0.3-0.6-0.8-1.1-1.1-1.4c-5.9-7-10.9-14.6-17.6-21l-0.8-0.6v1.1
								C257,343,262.1,348.9,266,355z"/>
						</g>
					</g>
				</g>
			</g>
		</g>
	</g>
	<g opacity="0.82">
		<path fill="#86604E" d="M186.2,246.4h168.3c0,0-25.2,168.6-84.3,152.3C211.1,382.5,186.2,246.4,186.2,246.4z"/>
		<g>
			<g>
				<g>
					<g opacity="0.8">
						<g opacity="0.8">
							<path fill="#EEE8E6" d="M213.4,327c6.2,14.3,12.9,28.6,21.6,41.2c4.2,6.2,9.2,12,14.6,16.5c5.3,4.8,11.2,8.1,17.4,10.1
								c1.4,0.3,2.8,0.8,3.9,1.1c1.4,0.3,2.5,0.6,3.9,0.6c-1.4-0.3-2.5-0.6-3.9-1.1c-7.6-2.5-14.3-7.3-20.4-13.2
								c-6.2-5.9-11.5-12.9-16.2-20.2c-9.5-14.8-17.1-31.1-23.5-47.3c-8.1-19.9-16-40.9-20.7-64.7c-0.6-2.5-1.4-2.8-2-2.8
								c0,2.5-0.3,4.5-0.6,6.4c4.8,19.3,10.6,37.8,17.6,57.1C207.8,317,211.7,323.4,213.4,327z"/>
							<path fill="#E6DEDB" d="M187.9,252.8v0.3l0.8,2.8C188.2,255.1,187.9,254,187.9,252.8z"/>
							<path fill="#ECE6E3" d="M201.6,299.3c2.2,6.2,4.5,12.3,6.7,18.2c2,3.9,3.9,7.3,4.8,9.5c6.2,14.3,12.9,28.6,21.6,41.2
								c4.2,6.2,9.2,12,14.6,16.5c5.3,4.8,11.2,8.1,17.4,10.1c1.4,0.3,2.5,0.6,3.9,1.1c1.4,0.3,2.5,0.6,3.9,0.6
								c-0.8,0-1.4-0.3-2-0.6c-0.6-0.3-1.4-0.3-2-0.6c-10.4-3.6-19.3-11.2-27.2-20.4c-0.6-0.6-0.8-0.8-1.4-1.4
								c-4.8-4.8-7.8-10.4-11.2-16c-5-7.8-9-15.4-12.6-23.2c-3.6-7.8-6.7-16-10.1-24.6c-2.5-6.2-5.6-12.6-7.8-20.4
								c-0.8-2.5-1.4-5-2.2-7.6c-3.4-10.1-6.2-20.4-8.4-31.4c-0.6-2.5-1.4-2.8-2-2.8c0,1.1-0.3,2.5-0.3,3.6c1.7,9,3.9,17.9,6.2,26.9
								c2.2,7.8,4.8,15.4,7.6,23.2C201.9,300.2,201.9,299.6,201.6,299.3z"/>
							<path fill="#E6DEDB" d="M200.8,300.4c0.3,1.1,1.4,2.2,1.1,0c-2.8-7.8-5.3-15.4-7.6-23.2C196.3,284.8,198.5,292.3,200.8,300.4
								z"/>
							<path fill="#F4F0EE" d="M197.4,300.2c4.8,15.7,11.5,29.4,16.5,42c2.5,6.2,5.3,12.6,7.8,18.5c1.1,2,2.2,3.9,3.6,5.6
								c7.8,11.5,17.1,22.7,29.4,30.5c3.1,2,6.4,3.6,9.8,5c1.7,0.6,3.4,1.1,5.3,1.7c0.8,0.3,2,0.6,2.8,0.6l2.8,0.3
								c7.8,0.8,15.7-1.7,21.8-5.9s11.2-9.5,15.4-15.1c4.2-5.6,7.8-11.5,11.2-17.6c6.4-12.3,11.5-24.9,16.2-37.8
								c4.5-12.9,7.6-25.8,10.4-38.6c1.4-6.4,2.5-12.9,3.6-19.6c0.6-3.4,1.1-6.7,1.4-10.1c0.6-3.9,1.1-7.8,1.7-12
								c0-0.8,0.3-1.4,0.3-2.2c0-0.3,0.3-0.8,0-0.8h-1.1c-1.4,0-2.8,0-4.2,0c-2.2,0-4.8,0-7,0c-3.9,0-7.6-0.3-11.2-0.3
								c-7.3-0.3-14.6-0.6-22.7-1.1c-39.8-1.7-74.5,2-115.1,3.1c-10.9,0.3-12.3,3.9-9.8,3.9c34.2-0.8,67.2-0.6,100.5-0.6
								c16.5,0,33,0,49.8,0c3.9,0,7.8,0,12,0h1.7c0.6,0,1.4-0.3,1.1,0.6l-0.6,3.6c-1.4,8.1-3.1,16.5-4.8,24.9
								C341,304.4,334,329,323.7,352c-5.3,11.2-11.2,22.1-19.3,31.1c-3.9,4.5-8.4,8.4-13.4,10.6c-5,2.5-10.4,3.4-15.7,2.2
								c-1.4,0-2.5-0.3-3.9-0.6s-2.8-0.8-3.9-1.1c-5.9-2-11.8-5.3-17.4-10.1c-5.3-4.8-10.4-10.4-14.6-16.5
								c-8.7-12.6-15.4-26.9-21.6-41.2c-1.4-3.6-5.6-10.1-7.8-16.2c-7-19-12.9-37.8-17.6-57.1c-0.6,4.2-0.8,7.6-0.8,11.8
								C190.4,277.2,194,288.7,197.4,300.2z"/>
							<path fill="#E5DDD9" d="M197.4,300.2c-3.4-11.5-7-23-10.4-34.7c0,2,0.3,4.2,0.6,7c2.8,14.6,7.3,30,13.2,45.1
								c5.9,15.1,12.9,29.7,21,43.1c-2.5-6.2-5.3-12.3-7.8-18.5C208.6,329.6,201.9,315.6,197.4,300.2z"/>
							<path fill="#ECE6E3" d="M197.4,300.2c-3.4-10.9-6.4-21.8-10.1-33c0.8,3.9,1.7,7.8,2.5,11.5c5.3,19.6,12,39.2,19.3,58
								c-9-19.9-15.7-40.6-21.6-61.6c5.9,28.6,17.6,59.4,33.6,85.7c-2.5-6.2-5-12.3-7.8-18.5C208.6,329.6,201.9,315.6,197.4,300.2z"
								/>
							<path fill="#E3DAD6" d="M209.4,330.7c-9-22.7-16-46.2-22.4-70c0,1.1-0.3,2.2-0.3,3.4l0.6,3.1c3.4,11.2,6.7,22.1,10.1,33
								c4.8,15.7,11.5,29.4,16.5,42c2.5,6.2,5.3,12.6,7.8,18.5c1.1,1.7,2.2,3.6,3.4,5.3c8.1,11.8,17.4,23.2,30.2,31.1l2.2,1.4
								c0.8,0.6,1.7,0.8,2.5,1.1c1.7,0.8,3.4,1.7,5,2.2c3.4,1.4,7.3,2.2,11.2,2.5c7.8,0.6,16-2.5,21.8-6.7c5.3-3.9,9.5-9,13.4-14
								c3.9-5.3,7.3-10.6,10.4-16.5c6.2-11.5,11.2-23.5,15.7-35.3c-3.9,11.2-8.4,22.7-13.7,33.6c6.2-12,11.2-24.4,15.7-37
								c3.6-10.9,6.7-21.8,9-32.8c-0.3-2.5,0-6.2,1.1-12c2-9.5,3.9-18.8,4.8-28.6c0-0.6,0.3-0.8,0.6-1.4c0.3-0.6,0.6-1.4,0.8-3.4
								c-0.3,2.2-0.8,4.2-1.1,6.4c-0.3,1.7-0.6,3.4-0.8,5c-0.3,3.1-0.6,6.2-0.8,8.7c0.6-3.4,1.1-6.7,1.4-10.1
								c0.6-3.9,1.1-7.8,1.7-11.8c0.3-1.1,0.3-2.2,0.6-3.4V245h-0.6h-0.8h-1.7c-2.2,0-4.2,0-6.4,0c-3.1,0-5.9,0-9-0.3
								c-5.9-0.3-11.5-0.6-17.4-0.8H317c-6.4,0-12.9,0.6-19.3,0.8c2.5,0,5.3,0,8.1,0c-4.2,0.3-9.5,0.3-13.7,0.3c2,0,3.6-0.3,5.6-0.3
								c-6.2,0-12.3,0-19-0.3c8.1,0,16.2-0.3,23.2-0.6c-14.8,0-28.6,0.3-43.1-0.3c0.3,0,0.8,0,1.1,0c-20.7,0.8-41.4,2.2-64.1,3.1
								c-10.9,0.3-12.3,3.9-9.8,3.9c47.6-1.1,93.5-0.6,140-0.6c-5.3-0.6-10.6-0.8-16-1.4c-2.2,0-4.5-0.3-6.7-0.6
								c2.2,0.3,4.5,0.3,6.7,0.6c6.2,0.3,13.2,0.3,19.9,0.6c1.4,0.3,5.3,0.3,7-0.3c2.2,0,4.8,0.3,7.3,0.3c2,0,3.9,0,5.9,0
								c0.3,0,0.8,0,1.1,0l-0.3,1.1c-0.3,0.8-0.3,1.7-0.6,2.5c-0.3,1.1-0.6,2.2-0.6,3.4c-0.3,1.1-0.6,2.2-0.8,3.4
								c0,0.6-0.6,1.4-0.8,2.5c-1.1,5.9-2.2,11.5-3.4,17.4c-3.4,16-7.6,31.6-12.3,46.8c-5,15.1-10.9,29.7-19,42.8
								c4.2-6.2,7.6-12.6,10.9-18.2c2.2-3.9,5-10.6,7.6-18.2c2.5-7.6,5-16.2,7-24.1c0.8-3.9,2.2-6.2,3.4-10.1
								c-1.7,14.3-8.4,31.6-14.3,47c-3.9,10.1-9.8,21.8-17.6,32.8c-3.9,5.3-8.4,10.4-13.2,14.6c-5,3.9-10.6,7-16.5,7.8
								c-4.8,0.8-9.8,0-13.7-1.7c-1.1-0.6-2-0.8-3.1-1.4c-0.8-0.6-2-1.1-2.8-1.7c-2-0.8-3.4-2.2-5-3.4c2.5,1.4,7.3,3.6,9.8,4.5
								c5.3,2.2,11.5,3.4,17.1,2.2c5.9-1.1,10.9-4.2,15.7-8.1c9-7.8,15.7-18.5,21-29.1c-6.2,10.9-12.9,21.6-22.4,29.4
								c-4.8,3.9-10.1,6.7-16,7.3c-2.8,0.3-5.9,0.3-8.7-0.3c-1.4-0.3-2.8-0.8-4.2-1.4s-2.8-1.1-4.2-1.7c3.4,1.4,6.4,2.5,9.8,3.1
								c3.4,0.6,6.7,0.3,9.8-0.6c6.4-1.7,12.3-5.9,16.5-10.9c-0.8,0.6-1.7,1.4-2.8,2c-3.4,3.1-7.3,5.3-11.5,7
								c-4.2,1.4-8.4,1.7-12.6,0.8c-1.4,0-2.5-0.3-3.9-0.6c-1.4-0.3-2.8-0.6-3.9-1.1c-5.9-2-11.8-5.3-17.4-10.1
								c-5.3-4.8-10.4-10.4-14.6-16.5c-8.7-12.6-15.4-26.9-21.6-41.2c-0.8-2.2-3.1-5.6-4.8-9.5c3.6,9.5,7.3,18.8,11.8,27.7
								c-1.7-3.6-3.1-7.3-3.9-10.6c3.9,8.4,6.7,15.7,11.5,23.8c-2.8-4.2-5.3-8.7-7.6-13.2c2.5,5.6,5.6,11.2,8.7,16.8
								c-7.3-10.1-10.6-21-16.8-32.2c1.1,2.5,2.2,4.8,3.1,7.3c-1.1-2.5-2.2-5-3.1-7.3v0.3c-3.4-7.6-6.4-14.8-9.2-21.6
								c4.8,13.2,8.7,25.2,14.8,37.5c1.1,2,2.2,3.9,3.4,5.9c-1.1-2-2.2-3.9-3.4-5.9c-7.3-14-12.9-28.8-17.6-43.7
								c-4.8-15.1-8.4-30.2-11.8-45.6l-0.8-2.8c0,0.8-0.3,2-0.3,2.8C192.9,281.4,199.9,306.9,209.4,330.7z"/>
						</g>
					</g>
				</g>
			</g>
		</g>
	</g>
	<g>
		<g>
			<g>
				<g>
					<g opacity="0.8">
						<g opacity="0.8">
							<path fill="#FFFFFF" d="M362.3,411.9c-14,0.6-28.8-3.6-40.6,0.6c-1.4,0.3-2.8,0.8-3.9,1.4c0.6,0,1.4,0.3,2,0.3
								c15.4,2.5,32.5,3.4,48.4,2.2c9.8-1.4,19.9-4.2,30.8-3.9c1.1,0,1.4-1.7,1.4-2.5c-1.1-1.1-2-2.2-2.8-3.6
								c-9,0.8-17.6,2.5-26.9,2.5C367.6,409.1,364.3,411.9,362.3,411.9z"/>
							<path fill="#FFFFFF" d="M397.6,406.8C397.6,406.8,397.6,406.6,397.6,406.8c-0.6-0.3-1.1-0.3-1.4,0
								C396.8,406.8,397.3,406.8,397.6,406.8z"/>
							<path fill="#FFFFFF" d="M376,409.4c-3.1,0.6-5.9,0.6-8.7,0.6c-2,0.8-3.6,2-4.8,2c-14,0.6-28.8-3.6-40.6,0.6
								c-1.4,0.3-2.5,0.8-3.9,1.4c0.8,0,1.4,0.3,2.2,0.3c5.3,0.8,10.9,1.7,16.5,2c0.3,0,0.6-0.3,0.8-0.3c3.1-1.1,6.2,0.3,9,0.6
								c8.7-0.8,15.7,0.3,24.4-0.6c3.1-0.3,6.2-2.2,9.8-2.2c1.1,0,2.5,0,3.6,0.3c4.8-0.8,9.5-1.4,14.6-1.1c1.1,0,1.4-1.7,1.4-2.5
								c-0.6-0.6-1.1-1.1-1.7-2c-4.2-0.3-8.1-0.3-12.3-0.3c-3.6,0.6-7.3,0.8-10.9,1.1C375.5,409.1,375.8,409.4,376,409.4z"/>
							<path fill="#FFFFFF" d="M375.8,406.8c-0.6,0-1.1,1.1-0.3,2.2c3.6-0.3,7.3-0.6,10.9-1.1C382.8,407.7,379.4,407.7,375.8,406.8z
								"/>
							<path fill="#FFFFFF" d="M376.3,400.7c-7.3-0.8-14,1.4-19.9,0c-3.1-0.8-6.2-2-9-3.6c-1.1,0-2,0-3.1,0c-24.4,1.4-48.7,2-72.8,0
								c-12-0.6-23.2,2.5-35.6,4.5c-7.3,0.6-13.2-1.4-20.4-2.8c-17.9-3.6-33.3,3.9-51.5,6.4c-5,0.6-5.6,7.6-4.5,7.8
								c30.5-2.8,59.4,0.3,89.9-1.7c23.8-1.4,45.9-0.3,68,3.1c1.4-0.6,2.8-0.8,3.9-1.4c12-4.2,26.6,0,40.6-0.6c1.7,0,5-2.8,8.1-2.8
								c9.2,0,17.9-1.7,26.9-2.5c-1.7-2.5-3.4-5.3-5-7C387,400.4,381.4,401.5,376.3,400.7z"/>
							<path fill="#FFFFFF" d="M376.3,400.7c5.3,0.8,10.6,0,16.2-1.1c-0.8-0.8-2-1.7-3.1-2.2c-13.2-3.9-28-1.1-42-0.6
								c2.8,1.7,5.6,3.1,9,3.6C362,402.1,369,399.8,376.3,400.7z"/>
							<path fill="#FFFFFF" d="M376.3,400.7c5,0.8,10.1,0,15.4-1.1c-1.7-0.3-3.6-0.6-5.3-0.8c-9-0.6-18.2,0-27.2-1.7
								c9.5,0,19.3,0.3,28.8-0.3c-12.9-3.4-27.4-0.6-40.6,0c2.8,1.7,5.6,3.1,8.7,3.6C362,402.1,369,399.8,376.3,400.7z"/>
							<path fill="#FFFFFF" d="M361.5,401.5c10.9,0.8,21.8,1.4,32.8,0.3c-0.6-0.6-0.8-1.4-1.4-2c-0.6,0-0.8-0.3-1.4-0.3
								c-5,0.8-10.4,1.7-15.4,1.1c-7.3-0.8-14,1.4-19.9,0c-3.1-0.8-6.2-2-8.7-3.6c-0.8,0-2,0-2.8,0c-12.6,0.8-24.9,1.1-37.2,1.4
								c-10.6,2.2-22.4,1.7-33.9,0c5.3,0,10.6,0,16-0.3c-5.9-0.3-11.8-0.6-17.6-1.1c-5-0.3-10.1,0.3-15.1,0.8
								c-1.1,1.7-2.5,3.1-5.3,3.4c-4.2,0.6-8.4,0.6-12.9,2c-0.6,0-0.6-1.4-1.7-1.4c3.4,0.3,6.2-0.8,8.7-2.2
								c-3.1,0.6-5.9,1.1-9.2,1.7c-5.9,0.3-10.6-0.8-16-2c-0.6,0-1.1,0-1.7,0.3c-2.8,0.3-5.6,0.8-8.7,1.7c1.1,0,2.2,0,3.6,0.3
								c-2,0.8-4.2,0.6-6.2,0.6c0.8-0.3,1.7-0.6,2.5-0.8c-2.8,0-5.6-0.3-8.4-0.3c3.6,0.3,7.3-0.6,10.4-1.1c-6.7,0-12.9,0.6-19.3-0.6
								c0.3,0,0.3-0.3,0.6-0.3c-9.2,1.7-18.5,4.5-28.8,5.9c-5,0.6-5.6,7.6-4.5,7.8c21.3-2,42-1.1,62.7-1.1c-2.2-0.8-4.8-2-7-2.8
								c-1.1-0.3-2-0.6-3.1-1.1c1.1,0.3,2,0.8,3.1,1.1c2.8,0.6,5.9,0.6,9,1.4c0.6,0.6,2.2,0.6,3.1-0.8c4.2,1.1,9.2,0,13.2,1.1
								c0.3,0,0.6,0.3,1.1,0.8c2.5,0,5.3-0.3,7.8-0.3c14.8-0.8,29.1-0.8,43.1,0.3c-3.4-0.8-6.7-1.7-9.5-3.1
								c-4.2-2-12.6-0.3-20.2,0.3c-2,0.3-2.8-1.1-4.8-1.1c6.4-3.6,14.6-1.1,22.1-1.7c9.8-0.3,23.5,2.8,33.9,0.3
								c4.5-1.1,8.4,0.3,12,2c-1.4,0.8-3.6,0.8-5,0.6c-10.9-0.6-21.8-1.1-32.8-0.8c11.5,2,22.4,1.1,33.6,3.4c-6.7,0-13.2-2-19.3,0
								c0.6,0.3,1.1,0.6,1.7,0.8c4.5,0.6,8.7,1.1,13.2,1.7c1.4-0.6,2.8-0.8,3.9-1.4c12-4.2,26.6,0,40.6-0.6c1.1,0,2.8-1.1,4.8-2
								c-4.5-0.3-9-0.8-13.4-0.8c1.7,0.6,3.6,1.1,5,2c-4.2,0.3-7.8-1.7-12-1.4c2.2-0.3,4.5-0.6,6.7-0.6c-2.8-0.6-5.6-0.8-8.4-1.4
								c5.6-1.4,10.6,2.2,16.2,0c-1.1,0-2.2,0-3.6-0.3c1.1,0,2.5,0,3.6,0.3l0,0c3.6,0,7.3-0.8,10.6-1.7c-6.2,0-12-1.7-17.9-1.7
								c-1.1,0-2,0-3.1,0.3c1.1,0,2-0.3,3.1-0.3c14-0.8,28.3,1.4,42.3,2.2c0.6,0,0.8,0,1.4-0.3c-0.3-0.6-0.8-1.1-1.1-1.7
								C384.7,404.3,373,403.2,361.5,401.5z"/>
						</g>
					</g>
				</g>
			</g>
		</g>
	</g>
	<g>
		<path fill="#FFFFFF" d="M317.2,423.6h-82.9c-4.5,0-8.4-3.6-8.4-8.4v-8.7c0-4.8,3.9-8.4,8.4-8.4h83.2c4.5,0,8.4,3.6,8.4,8.4v8.7
			C325.6,420,322,423.6,317.2,423.6z"/>
		<g>
			<g>
				<g>
					<g opacity="0.8">
						<g opacity="0.8">
							<path fill="#FFFFFF" d="M315,401.2c-13.7,0.3-28.3-1.7-40,0.3c-1.4,0.3-2.5,0.6-3.9,0.6l2,0.3c7.6,0.6,15.7,1.1,23.5,1.1
								c3.9,0,8.1,0.3,12,0c2,0,3.9,0,5.9,0h2.8c0.3,0,0.8,0,1.1,0.3c0.8,0.3,1.7,0.8,2.2,1.7c0,0.3,0.3,0.6,0.3,0.8
								c0,0.3,0,0.3,0,0.6v0.8l0.3,3.6l0.3,3.6c0,0.8,0,1.4-0.3,2.2c-0.6,1.4-2,2.5-3.4,2.8c-0.6,0-0.8,0.8-0.8,1.4
								c0.8,0.6,1.7,1.1,2.8,1.4c2-0.8,3.4-2.5,4.2-4.2c0.3-0.8,0.6-2,0.6-2.8l-0.3-3.4c0-2.2-0.3-4.2-0.3-6.4
								c-0.3-1.7-1.1-3.4-2.5-4.8c-0.8-0.8-2.2-1.1-3.4-0.8C317.5,401,315.8,401.2,315,401.2z"/>
							<path fill="#FFFFFF" d="M319.8,422.8L319.8,422.8c0.6,0,0.8-0.3,1.4-0.6C320.6,422.5,320.3,422.8,319.8,422.8z"/>
							<path fill="#FFFFFF" d="M323.7,405.2c-0.8-2.2-2.5-3.9-4.5-4.5c-0.8,0-1.4,0.3-2,0.3c-0.8,0.3-1.4,0.3-2,0.3
								c-13.7,0.3-28.3-1.7-40,0.3c-1.4,0.3-2.5,0.6-3.9,0.6l2.2,0.3c5.3,0.6,10.6,0.8,16.2,1.1c0.3,0,0.6,0,0.8,0
								c3.1-0.6,5.9,0.3,9,0.3c4.2-0.3,8.1-0.3,12-0.3c2,0,3.9,0,5.9,0c0.8,0,1.7,0.3,2.5,0.6c0.6,0.3,1.1,0.8,1.7,1.4
								c0.3,0.3,0.6,0.8,0.6,1.1c0,0.8,0,1.7,0,2.5c0,1.1,0,2.5,0,3.6l0.3,3.1c0,0.6-0.3,1.4-0.6,2c-0.6,1.4-2,2.2-3.4,2.5
								c-0.6,0-0.8,0.8-0.8,1.4c0.3,0.3,0.8,0.6,1.4,0.8c3.6-0.6,6.4-3.9,6.2-7.6l-0.3-5.3v-2.8c0-0.8-0.3-1.4-0.6-2.2
								C324,404.6,323.7,404.9,323.7,405.2z"/>
							<path fill="#FFFFFF" d="M325.1,404.3c-0.3-0.6-0.8-0.8-1.1,0.3c0.3,0.8,0.3,1.4,0.6,2.2v2.8l0.3,5.3c0-1.7,0-3.4,0.3-5.3
								C325.1,407.7,325.4,406,325.1,404.3z"/>
							<path fill="#FFFFFF" d="M328.2,404.3c-0.8-4.8-5.3-8.1-9.5-8.4c-1.1,0-2,0-2.8,0c-0.8,0-1.7,0-2.2,0c-1.7,0-3.1,0-4.5-0.3
								c-3.1-0.3-6.2-1.1-8.7-2c-0.8,0-2,0-2.8,0c-12,0.3-23.8,0.6-35.8,0.6c-5.9,0-11.8,0-17.9,0l-9-0.3h-0.6h-0.8
								c-0.6,0-1.1,0-1.7,0.3c-1.1,0.3-2.2,0.6-3.4,1.1c-2,0.8-3.9,2.5-5,4.2c-1.4,2-2,4.2-2.2,6.4v0.8v0.6v1.1v2.2
								c0,1.4,0.3,2.8,0.3,4.2v1.4c0,0.6,0.3,1.1,0.3,1.7c0.3,1.1,0.6,2,1.1,3.1c2,3.6,6.2,6.2,10.1,6.2c1.1,0,1.7,0,2.5-0.3
								l2.2-0.3c1.4,0,3.1-0.3,4.5-0.3c7.3-0.3,12.9,0.8,19.9,1.4c17.6,1.7,32.8-2,50.7-3.1c4.8-0.3,5.3-3.9,4.2-3.9
								c-15.1,0.8-29.7,0.6-44.2,0.6c-7.3,0-14.6,0-21.8,0c-3.6,0-7.3,0-10.9,0c-2,0-3.6,0-5.6,0c-1.4,0-2.8-0.3-3.9-1.1
								c-0.8-0.6-1.7-1.4-2-2.2c-0.3-0.6-0.3-0.8-0.6-1.4c0-0.6,0-0.8,0-1.7c0-2.8,0-5.9,0-8.4c0-2.2,1.4-4.2,3.4-5
								c0.8-0.6,2-0.8,3.1-0.6h4.2c11.2,0.3,21.8,0.8,32.8,1.7c1.4-0.3,2.8-0.6,3.9-0.6c11.8-2.2,26,0,40-0.3c0.8,0,2.2-0.3,3.1-0.6
								c1.1-0.3,2.5,0,3.4,0.8c1.4,1.1,2.5,2.8,2.5,4.8c0,2.2,0.3,4.2,0.3,6.4l0.3,3.4c0,0.8-0.3,2-0.6,2.8c-0.8,2-2.2,3.4-4.2,4.2
								c2,0.6,4.5,0.6,6.7-0.8c1.1-1.7,1.7-3.4,1.7-5c0-2,0-3.1,0-4.5s0-2.5,0-3.9v-2C328.4,406,328.2,405.2,328.2,404.3z"/>
							<path fill="#FFFFFF" d="M328.2,404.3c0.3,0.8,0.3,1.7,0.3,2.5v2c0,1.4,0,2.5,0,3.9s0.3,2.5,0,4.5c-0.3,1.7-0.8,3.6-1.7,5
								c1.1-0.8,2.2-1.7,2.8-3.4c0.6-1.1,0.6-2.5,0.8-3.6c0-0.8,0.3-1.7,0.3-2.5c0.3-1.7,0.3-3.4,0.3-5c0-0.6,0-2.2-0.3-3.6
								c-0.3-1.4-0.8-2.8-1.4-3.9c-1.4-2.5-3.6-4.5-6.2-5.6c-1.4-0.6-2.8-1.1-4.2-1.1c-0.6,0-1.4,0-2,0h-1.4l-5.3,0.3
								c-3.4,0.3-7,0.3-10.4,0.3c2.5,0.8,5.6,1.4,8.7,2c1.4,0.3,3.1,0.3,4.5,0.3c0.8,0,1.7,0,2.2,0c0.8,0,1.7,0,2.8,0
								C322.8,396.2,327.3,399.6,328.2,404.3z"/>
							<path fill="#FFFFFF" d="M328.2,404.3c0.3,0.8,0.3,1.7,0.3,2.5v2c0,1.1,0,2.5,0,3.6c0,0.6,0,1.1,0,2c0,0.6,0,1.1,0,2.2
								c0,1.7-0.6,3.4-1.4,5c0.6-0.8,1.1-2,1.7-3.4c0.3-0.6,0.3-1.1,0.3-1.7v-0.8v-0.6v-6.7c0-0.6,0-0.8,0-2c0-0.8,0-1.7-0.3-2.5
								c-0.3-1.7-1.1-3.1-2-4.5c-2-2.5-4.8-4.5-8.1-5c-2-0.3-2.8-0.3-3.9-0.3c-1.1,0-2.2-0.3-3.4-0.3h3.6h1.7c0.8,0,1.7,0,2.5,0.3
								c3.6,0.8,6.7,3.1,8.7,6.2c0.8,1.7,1.4,3.4,1.7,5v1.4v0.8v1.7v3.6c0,1.4,0,2,0,4.2c0.3-0.6,0.3-1.1,0.3-1.7v-1.1
								c0-0.8,0.3-1.7,0.3-2.5c0-1.7,0.3-3.4,0.3-5c0.3-5.6-3.4-10.9-8.7-12.9c-1.4-0.6-2.8-0.8-3.9-0.8h-1.1h-0.6h-1.4l-5,0.3
								c-3.4,0-6.7,0.3-10.1,0.3c2.5,0.8,5.6,1.4,8.7,2c1.4,0.3,3.1,0.3,4.5,0.3c0.8,0,1.7,0,2.2,0c0.8,0,1.7,0,2.8,0
								C322.8,396.2,327.3,399.6,328.2,404.3z"/>
							<path fill="#FFFFFF" d="M314.2,396.2h2h1.1h1.1c1.7,0.3,3.1,0.8,4.5,1.7c2.8,2,4.5,5,4.5,8.1c0,2.8,0,5.3,0,8.1
								c0,0.6,0,1.4,0,2.2s-0.3,1.7-0.6,2.5c-0.6,1.7-1.4,3.1-2.8,4.2c0.6,0,1.4-0.3,2-0.6c0.6-0.6,0.8-0.8,1.1-1.4
								c0.8-1.7,1.1-3.4,1.4-5c0-0.8,0-1.4,0-2.2c0-0.6,0-1.4,0-2c0-1.1,0-2.5,0-3.6v-2c0-0.8,0-1.7-0.3-2.5
								c-0.8-4.8-5.3-8.1-9.5-8.4c-1.1,0-2,0-2.8,0c-0.8,0-1.7,0-2.2,0c-1.7,0-3.1,0-4.5-0.3c-3.1-0.3-6.2-1.1-8.7-2
								c-0.8,0-2,0-2.8,0c-12.3,0.3-24.4,0.6-36.7,0.6c-5.3,0.6-10.9,0.8-16.5,0.8c-2.8,0-5.6,0-8.4-0.3h-2.2c-1.1,0-2,0-3.1,0.3
								c-2,0.6-3.9,1.4-5.3,2.8c1.4-1.4,3.1-2.2,4.8-2.8c0.8-0.3,2-0.6,2.8-0.6h0.8h0.6h1.1c2.5,0,5.3,0,7.8-0.3l-8.7-0.3
								c-0.6,0-2,0-3.1,0.3c-1.1,0.3-2.2,0.6-3.1,0.8c-2,0.8-3.9,2.2-5,4.2c-1.1,1.7-2,3.4-2.2,5.3c0,0.6-0.3,0.8-0.3,1.4v0.8v0.6v2
								c0,1.1,0,2.5,0.3,3.6v2v0.8c0,0.6,0,0.8,0.3,1.4c1.1,1.4,2,3.4,4.5,5.9c2,2,4.5,3.1,7.3,3.1c2.5,0,4.2-0.3,6.4-0.6
								c0.6,0,0.6,0.6,1.7,0.8c-1.7,0-3.1,0-4.5,0.3c-0.6,0-1.4,0.3-2,0.3c-0.3,0-0.6,0.3-0.8,0.3c-0.3,0-0.8,0-1.1,0.3
								c0.6,0,1.1,0,1.4,0h1.1l2.2-0.3c1.4,0,3.1-0.3,4.5-0.3c5.6-0.3,10.4,0.3,15.7,0.8h1.7c2.8,0,5.6-0.6,8.4-0.8
								c-1.1,0-2.2,0-3.6,0c2-0.3,4.2-0.3,5.9-0.3c-0.8,0-1.7,0.3-2.5,0.3c2.8,0,5.3,0,8.4,0.3c-3.6,0-7.3,0.3-10.4,0.6
								c6.4,0,12.6-0.3,19,0.3h-0.6c9.2-0.8,18.2-2.2,28.3-3.1c4.8-0.3,5.6-3.9,4.2-3.9c-21,1.1-41.2,0.6-61.6,0.6
								c2.2,0.6,4.8,0.8,7,1.4c1.1,0,2,0.3,2.8,0.6c-0.8-0.3-2-0.3-2.8-0.6c-2.8-0.3-5.9-0.3-8.7-0.6c-0.6-0.3-2.2-0.3-3.1,0.3
								c-4.2-0.6-9,0-12.9-0.6c-0.3,0-0.6-0.3-1.1-0.6h-2c-0.6,0-0.8,0-1.4,0c-0.8,0-1.7-0.6-2.5-1.1c-1.1-0.8-2-2-2.2-3.1
								c-0.3-0.6-0.3-1.1-0.3-2v-2.8c0-1.7,0-3.6,0-5.3c0-1.4,0.3-2.8,1.1-3.9c0.8-1.1,2-2,3.1-2.2c0.6-0.3,1.1-0.3,2-0.3h2.5
								c3.4,0,7,0.3,10.4,0.3c-3.4-0.6-6.4-0.8-9.5-1.4c-2-0.3-5.3-1.1-7.8,1.1c-1.4,1.1-2.2,2.5-2.5,4.2c-0.3,0.8-0.3,1.7,0,2.5
								c0,0.8,0,2,0,2.8c0.3,1.7-0.6,2.8-0.6,4.8c-0.6-1.7-0.8-3.4-0.8-5c0-1.7-0.3-3.6,0.3-5.6s2-3.4,3.6-4.5
								c1.7-1.1,3.6-1.4,5.3-1.4c9.5-0.3,23,1.4,33.3,0.3c4.2-0.6,8.4,0.3,11.8,0.8c-1.4,0.3-3.6,0.3-4.8,0.3
								c-10.6-0.3-21.3-0.6-32.2-0.3c11.2,0.8,21.8,0.6,33,1.7c-6.4,0-12.9-1.1-19,0c0.6,0.3,1.1,0.3,1.7,0.6
								c4.2,0.3,8.7,0.6,12.9,0.8c1.4-0.3,2.5-0.6,3.9-0.6c11.8-2.2,26,0,40-0.3c0.6,0,1.4,0,2-0.3c0.6-0.3,1.1-0.3,2-0.3
								c-0.8-0.3-1.4-0.3-2.8-0.3h-3.4c-2.2,0-4.5-0.3-6.7-0.3c1.7,0.3,3.4,0.6,5,1.1c-4.2,0-7.6-0.8-11.8-0.8
								c2.2-0.3,4.5-0.3,6.7-0.3c-2.8-0.3-5.6-0.6-8.4-0.6c5.6-0.8,10.4,1.1,16,0c-1.1,0-2.2,0-3.4,0h3.6l0,0c1.7,0,3.6-0.3,5,0
								c1.7,0.3,3.1,1.1,4.2,2c-1.1-1.1-2.2-2-3.6-2.5c-1.4-0.6-2.8-0.6-4.5-0.8c-2.8-0.3-5.9-0.6-8.7-0.6h-3.1c1.1,0,2,0,3.1,0
								c3.4,0,7,0,10.4,0c3.9,0,7.3,2.5,8.4,6.2c0.6,1.7,0.3,3.6,0.3,5.3l-0.3,5c0.3,3.4-1.7,7-4.8,8.4c-0.3,0.3-0.8,0.3-1.1,0.6
								c0.6,0.3,0.8,0.3,1.4,0.3c2.8-1.4,4.8-4.2,5-7.3c0-2.8,0.3-5.9,0.3-8.7c0.3-3.1-0.8-6.7-3.6-8.7c-1.4-1.1-2.8-2-4.5-2.2
								c-0.6,0-0.8,0-1.4-0.3h-1.1L314.2,396.2z"/>
						</g>
					</g>
				</g>
			</g>
		</g>
	</g>
	<g>
		<g>
			<g>
				<g>
					<g opacity="0.8">
						<g opacity="0.8">
							<path fill="#FFFFFF" d="M303.2,128.5c12-0.3,24.1,0,36.1,0.3c6.2,0,12,0.3,18.2,0.3c7,0,14,0.3,20.7,0.3c2,0,4.2,0,6.2,0.3
								h0.8h0.3v0.3v1.7l-0.3,3.1c-0.3,4.2-0.6,8.1-0.8,12c-0.6,5.9-0.8,11.5-1.4,17.1c-0.8,11.2-1.4,22.1-1.4,32.2
								c0,4.5-0.3,9.2-0.3,14c0.3-2.2,0.8-4.8,1.1-7c2.2-13.2,4.2-26.6,5.9-40.3c0.3-3.4,0.8-7,1.1-10.4l0.6-5.3l0.8-9.5l0.6-10.1
								l0.3-2.5c0-0.3,0-0.8,0-1.4h-1.1h-5c-3.4,0-6.7-0.3-10.1-0.3h-8.4c-28-0.3-56-0.3-82.9,0c-33.6,1.4-67.8,4.2-105,3.9
								c-4.2,0-4.8,1.7-5,2.5c3.6,1.1,6.7,2.2,9.8,3.6c30.2-0.8,60.5-2.5,91.6-2.5C285.9,131.3,297.1,128.5,303.2,128.5z"/>
							<path fill="#FFFFFF" d="M182.8,133.6l0.6,0.3c1.4,0,3.1,0,4.5-0.3C186.2,133.6,184.5,133.6,182.8,133.6z"/>
							<path fill="#FFFFFF" d="M257,131c10.1-0.6,20.2-0.6,30-0.6c6.4-0.8,12.6-2,16.5-2c12-0.3,24.1,0,36.1,0.3
								c6.2,0,12,0.3,18.2,0.3c7,0,14,0.3,20.7,0.3c2,0,4.2,0,6.2,0.3h0.8h0.3v0.3v1.7l-0.3,3.1c-0.3,4.2-0.6,8.1-0.8,12
								c-0.6,5.9-0.8,11.5-1.4,17.1c-0.8,11.2-1.4,22.1-1.4,32.2c0,4.5-0.3,9.2-0.3,13.7c0.3-2.5,0.8-5,1.1-7.6
								c1.4-9.2,2.8-18.2,4.2-27.7c0.6-4.8,1.1-9.5,2-14.3l0.8-7.3l0.3-3.6l0.6-4.5c0-2,0-3.9,0-5.6c0-5,0-9.8,0.3-14.6V124
								c0,0-0.3,0-0.6,0h-0.8h-1.7h-3.6c-2.2,0-4.8,0-7-0.3l-7.3-0.3l-4.2-0.3c-2.5-0.3-5-0.3-7.6-0.3c-29.4,0.8-53.8-0.3-83.2,0.6
								c-10.4,0.3-21.6,2.2-33.9,2.2c-4.2,0-8.4,0-12.3-0.3c-16.2,0.8-32.8,1.4-50.1,1.1c-4.2,0-4.8,1.7-5,2.5c2,0.6,3.6,1.1,5.3,2
								c14,0.3,28,0.3,42.3,0.3c12.3-0.6,24.9-0.8,37.5-1.1C258.4,131.3,257.9,131,257,131z"/>
							<path fill="#FFFFFF" d="M258.2,133.6c1.7,0,3.9-1.1,0.8-2.2c-12.6,0.3-25.2,0.6-37.5,1.1
								C233.5,132.7,245.6,132.7,258.2,133.6z"/>
							<path fill="#FFFFFF" d="M256.2,139.7c24.6,0.8,48.2-1.4,68.3,0c10.6,0.8,21,2,30.2,3.6c3.4,0,6.7,0,10.1,0h3.9
								c0.6,0,0.3,0,0.6,0h0.3h0.3h1.4c0,0.3,0,0.8,0,1.4v0.3v0.6L371,149c-0.6,10.4-1.4,20.7-2.5,30.8c-2,20.7-4.2,41.2-7,61.6
								c-3.1,20.4-6.7,40.3-12,59.9c-5.3,19.3-12.3,38.6-22.1,55.2c-9.8,16.5-21.8,30.5-38.1,36.1l-1.4,0.6l-1.7,0.3l-3.1,0.8
								c-2.2,0.6-4.2,0.6-6.4,0.8c-4.2,0.3-8.7,0-12.9-0.8c-8.7-2-16.8-7-24.1-14c-8.4-8.4-13.7-18.2-18.2-28
								c-4.5-10.1-7.6-20.4-10.9-31.9c-7.8-28.8-14.3-56-20.4-83.7c-5.9-27.7-11.5-56-14.3-87.1c-1.4-16.5-8.4-18.8-8.4-14.6
								c1.7,26.3,4.2,52.1,7.3,77.6c3.4,25.5,7.3,50.7,13.2,75.6c5.9,24.9,13.4,49.8,25.8,73.1c6.4,11.5,14,22.7,24.6,31.9
								c5.3,4.5,11.5,8.4,17.9,10.9c6.7,2.5,14,3.6,21,3.4c10.9-0.3,21.6-3.6,30.8-9.5c9-5.6,16.5-13.2,22.7-21.6
								c12-16.5,19.6-35.3,26-53.8c6.2-18.5,10.6-37.2,14.8-56c3.9-18.8,7.3-37.5,10.4-56.3c0-4.8,0.3-9.2,0.3-14
								c0-10.4,0.6-21,1.4-32.2c0.6-5.6,0.8-11.2,1.4-17.1c0.3-3.9,0.6-8.1,0.8-12l0.3-3.1v-1.7v-0.3c0-0.3-0.3,0-0.3,0H385
								c-2,0-4.2,0-6.2-0.3c-6.7,0-13.7-0.3-20.7-0.3c-5.9,0-12-0.3-18.2-0.3c-12-0.3-24.4-0.3-36.1-0.3c-6.2,0-17.4,2.8-27.7,2.8
								c-31.1,0-61.3,1.7-91.6,2.5c6.2,2.5,10.9,5.3,17.4,7C219.8,140,238.3,138.9,256.2,139.7z"/>
							<path fill="#FFFFFF" d="M256.2,139.7c-17.9-0.8-36.4,0-54.9,1.1c3.1,0.8,6.4,1.7,10.4,2.2c45.1,3.9,96,1.1,143.1,0.6
								c-9.2-1.7-19.6-3.1-30.2-3.6C304.4,138.3,280.8,140.6,256.2,139.7z"/>
							<path fill="#FFFFFF" d="M256.2,139.7c-17.1-0.8-34.7,0-52.4,1.1c5.9,0.3,12,0.6,18.2,0.8c31.1,0.6,62.2,0,92.7,1.7
								c-33,0-65.8-0.3-99.1,0.3c44.2,3.4,93.5,0.6,139.2,0c-9.2-1.7-19.6-3.1-30.2-3.6C304.4,138.3,280.8,140.6,256.2,139.7z"/>
							<path fill="#FFFFFF" d="M306.3,138.9c-37.2-0.8-74.5-1.4-112.3-0.3c1.7,0.6,3.1,1.4,5,2c1.7,0,3.1,0.3,4.8,0.3
								c17.6-0.8,35.3-1.7,52.4-1.1c24.6,0.8,48.2-1.4,68.3,0c10.6,0.8,21,2,30.2,3.6c3.1,0,6.4,0,9.5,0h3.9h0.8h0.3h0.3h1.4
								c0.3,0.3,0,0.8,0.3,1.4v0.3v0.6L371,149c-0.6,10.6-1.7,21-2.5,31.6c-2,21-4.2,42-7.3,63c-1.7,18.2-4.8,37-9.5,55.7
								c-4.8,18.5-11.2,37-20.4,52.9c8.1-15.4,13.4-32.5,17.9-49.8c-5.3,19-12,37.5-21.6,53.8c-8.4,14-17.9,26.3-30.8,33.3
								c-0.6,0.6-1.1,1.4-2,2.2c-0.8,0.8-1.7,1.7-2.8,2.2c-1.1,0.6-2.5,1.4-4.2,2s-3.6,1.1-5.6,1.4c-13.4,2.5-26.6-1.7-38.4-10.1
								c-1.4-1.4-0.3-2-3.1-4.8c7.6,7.8,16.2,11.5,23.5,12c-8.7-2-17.1-6.7-24.4-13.7c-6.4-6.4-11.5-14-15.4-21.6
								c-3.9-7.6-7-15.7-9.8-24.1c-0.8-1.7-1.4-3.4-2.2-5.3c-3.6-8.7-7.3-17.9-10.6-26.9c1.1,3.9,2,7.6,3.4,11.8
								c-2.8-5.9-4.8-13.7-6.2-19.6c1.1,2.8,2,5.3,3.1,8.1c-2.5-9.2-4.5-17.9-6.4-28c2.5,12,6.2,24.1,9.8,33.9
								c-6.4-21.6-11.2-41.7-13.7-63.8c0.3,0.6,0.3,1.1,0.6,1.7c-7-30.8-13.2-61.9-16.5-96.3c-1.4-16.5-8.4-18.8-8.4-14.6
								c2.5,36.7,6.2,72.5,11.8,107.8c2.8,17.6,6.2,35.3,10.6,52.6c4.5,17.4,9.8,34.7,17.1,51.2c-2.5-7.8-4.5-16-6.2-24.1
								c-0.8-3.4-1.7-6.7-2-10.1c0.6,3.4,1.4,6.7,2,10.1c2.5,9.5,6.4,19.3,10.4,29.1c0.3,1.1,1.1,2.8,2,4.8c1.1,2,2.5,3.6,3.6,4.5
								c6.2,13.2,17.4,26.9,29.7,36.1c0.8,0.6,1.7,1.7,3.1,2.8c8.7,4.8,18.8,7,28.6,6.4l5-0.3c1.7-0.3,3.4-0.6,5-0.8l2.5-0.6
								l2.5-0.8c1.7-0.6,3.4-1.1,4.8-1.7c6.2-2.5,12-6.2,17.1-10.1c10.4-8.4,17.9-19,24.1-30c6.2-10.9,10.9-22.4,15.1-33.9
								c4.2-11.5,7.6-23.2,10.6-35c-3.4,11.2-7.3,21.8-11.8,31.1c-3.1,6.4-6.7,16.5-12,27.7c-5,11.2-12,23.2-21,32.8
								c-4.5,4.8-8.4,6.2-13.7,9.5c8.7-7.3,16.8-16.5,24.1-27.2c7.3-10.6,13.2-22.7,17.4-34.4c5.6-15.7,11.5-34.7,16-54.6
								c4.5-19.9,7.6-40.3,8.7-58.5c0.8-14.8,3.6-28.6,6.4-40.3c0.3,4.5-0.6,12.6-1.1,16.8c-4.8,37-10.1,73.9-19.3,110.3
								c11.8-37.2,16-75,22.4-113.1c-2.2,22.7-7.3,44.5-9,66.1c0.6-1.7,1.1-3.4,1.7-5.3c2.8-14.8,5.6-29.7,7.8-44.5
								c0-4.5,0.3-9.2,0.3-13.7c0-10.4,0.6-21,1.4-32.2c0.6-5.6,0.8-11.2,1.4-17.1c0.3-3.9,0.6-8.1,0.8-12l0.3-3.1v-1.7v-0.3
								c0-0.3-0.3,0-0.3,0h-0.8c-2,0-4.2,0-6.2-0.3c-6.7,0-13.7-0.3-20.7-0.3c-5.9,0-12-0.3-18.2-0.3c-12-0.3-24.4-0.3-36.1-0.3
								c-3.9,0-9.8,1.1-16.5,2c15.4,0.3,30.8,0.8,46.2,0.8c-6.2-0.6-12-1.1-17.6-2c14.6-0.3,26.3,1.7,40.9,1.4
								c-7.8,0.3-15.7,0.6-23.2,0.6c9.2,0.6,19,0.8,29.1,1.4c-19,1.4-36.4-2.2-55.7,0c3.9,0,8.1,0,12,0.3c-4.2,0-8.4,0-12.3-0.3h0.3
								c-12.3,0-24.9,0.8-36.1,1.7c21.6,0,40.6,1.7,61.6,1.7c3.4,0,7-0.3,10.4-0.3c-3.6,0-7,0.3-10.4,0.3
								c-48.2,0.8-96.3-1.4-144.2-2.2c-1.4,0-3.1,0-4.5,0.3c1.4,0.6,2.8,1.1,3.9,1.7C227.1,136.1,267.4,137.2,306.3,138.9z"/>
						</g>
					</g>
				</g>
			</g>
		</g>
	</g>
	<g>
		<g>
			<g>
				<g>
					<g opacity="0.8">
						<g opacity="0.8">
							<path fill="#FFFFFF" d="M385,217.3c0,0.8-0.6,2-1.1,3.4s-1.4,2.8-2,4.5v0.3c0,0,0,0,0.3,0h0.3c0.3,0,0.6,0,0.8-0.3
								c0.6,0,1.1-0.3,2-0.8c1.4-0.6,2.8-1.7,3.9-3.4c0.6-0.6,0.8-1.4,1.1-2l-0.3-0.3c-0.8-1.1-0.3-2.2,0.6-3.1c0.6-0.6,0.3,0,0-0.3
								c-0.3,0-0.3,0-0.6-0.3l0,0v-0.6v-1.4c0-1.7,0-3.4,0-5c0-3.4,0.3-7,1.7-10.4c0.3-0.8-1.4-1.4-2.2-1.7
								c-1.4,0.3-2.5,0.6-3.9,0.8c-0.3,2.8-0.6,5.9-0.8,9c-0.3,1.4-0.3,3.1-0.6,4.5c-0.3,1.4-0.6,3.1-0.8,3.9
								c-0.3,0.6,0.3,1.4,0.8,2C384.4,217,385,217,385,217.3z"/>
							<polygon fill="#FFFFFF" points="385.3,197.1 385,197.1 385,198.2 							"/>
							<path fill="#FFFFFF" d="M383.9,211.7c0,0.6,0,1.1,0,1.4c0,0.3,0,0.8-0.3,1.1c0,0.6-0.3,1.1-0.6,1.7c0.6,0.8,1.7,0.8,1.7,1.4
								c0,0.8-0.6,2-1.1,3.4s-1.4,2.8-2,4.5v0.3c0,0,0,0,0.3,0h0.3c0.3,0,0.6,0,0.8-0.3c0.6,0,1.1-0.3,2-0.8
								c1.4-0.6,2.8-1.7,3.9-3.4c0.6-0.6,0.8-1.4,1.1-2l-0.3-0.3c-0.6-0.8-0.3-1.7,0-2.2l-0.3,0.6c-2,2,0.3-0.6,0.6-0.8
								c-0.6,0.3-0.3,0-0.3-0.3c0.3-0.3,0.3-0.3,0-0.6c0,0,0,0-0.3,0c0,0-0.3,0-0.3-0.3c0-0.6-0.3-1.1-0.3-1.7
								c-0.3-1.1-0.3-2.5,0-3.6c0.3-0.8,0.6-1.4,0.8-2.2c0-3.1,0.6-6.4,1.7-9.5c0.3-0.8-1.4-1.4-2.2-1.7c-0.6,0.3-1.4,0.3-2,0.6
								c-1.1,2.5-1.7,5-2.5,7.8c-0.3,2.5-0.6,4.8-0.8,7.3C383.6,212,383.9,211.7,383.9,211.7z"/>
							<path fill="#FFFFFF" d="M381.4,211.1c0,0.3,1.1,1.1,2.2,0.8c0.6-2.5,0.6-4.8,0.8-7.3C383.6,206.9,382.8,209.2,381.4,211.1z"
								/>
							<path fill="#FFFFFF" d="M375.5,209.2c-0.8,1.7-1.7,5.9-2.2,8.7c-0.6,3.1-1.1,5.9-2.8,9c-1.4,3.1-3.6,7-6.4,11.8
								c-0.3,1.1-0.3,2-0.6,3.1l-0.3,2.2c0,0.6-0.6,2,0.8,1.1l5-1.7c3.1-1.1,6.4-2,9.5-3.1c3.1-1.1,6.4-2.2,9.5-3.4
								c3.1-1.1,6.4-2.5,9.2-3.9c1.7-0.8,2.5-1.1,3.4-1.7c0.8-0.6,2-0.8,2.8-1.4c2-0.8,3.9-2,5.9-3.1c2-1.1,3.9-2.2,5.9-3.9
								c1.1-0.8,2.2-1.7,3.1-2.5l2.8-2.8c3.4-3.9,4.8-9,5.3-13.7c0.3-4.8-0.3-9.8-2.2-14.6c-0.8-2.8-1.4-5.6-2.8-8.4
								c-0.6-1.4-1.4-2.8-2.5-4.2c-0.6-0.6-1.1-1.4-1.7-2c-0.6-0.6-1.4-1.1-2-1.7c-3.6-2.8-7.8-3.6-11.5-3.6
								c-3.9,0-8.1,1.4-11.2,3.9s-5,5.9-6.4,9c-1.1,3.1-1.7,6.4-2.2,9.5c-0.6,3.6,6.7,5,6.7,4.5c0-1.7,0.6-3.9,1.1-5.6
								c0.8-2,1.7-3.4,3.1-4.8c1.1-1.1,2.5-2.2,4.2-2.5c1.7-0.3,3.1-0.6,5.3-0.3c3.9,0.3,6.4,2,8.1,4.2c1.4,2.5,2.2,6.4,2,10.6
								c-0.6,6.7-4.2,13.2-9.5,16.2c-2.8,1.7-5.9,3.4-9.2,4.2c-3.9,1.4-5,1.1-5.9,0.3c-0.3,0.6-0.8,1.4-1.1,2
								c-1.1,1.7-2.8,2.8-3.9,3.4c-0.6,0.3-1.4,0.6-2,0.8c-0.3,0-0.6,0-0.8,0.3h-0.3c0,0,0,0-0.3,0v-0.3c0.6-1.7,1.4-3.1,2-4.5
								c0.6-1.4,1.1-2.2,1.1-3.4c0-0.3-0.6-0.6-1.1-0.8c-0.6-0.6-1.1-1.1-0.8-2c0.3-0.8,0.6-2.5,0.8-3.9c0.3-1.4,0.3-3.1,0.6-4.5
								c0.3-3.1,0.6-5.9,0.8-9c-2.8,0.6-5.6,0.6-7.8,1.4C377.4,202.4,377.2,206.1,375.5,209.2z"/>
							<path fill="#FFFFFF" d="M375.5,209.2c1.7-3.1,1.7-6.7,1.7-10.4c-1.1,0.3-2,0.8-2.8,1.4c-1.4,2-2.8,3.9-3.6,5.9
								c-0.6,1.1-0.8,2.2-1.1,3.4l-0.8,2.5c-0.3,1.1-0.6,2.2-0.8,3.4c-1.1,4.5-2,9-2.8,12.9c0,0.6-0.3,1.1-0.3,1.4v1.4
								c0,0.8-0.3,1.7-0.3,2.5c-0.3,1.7-0.3,3.4-0.6,5c2.8-4.8,4.8-8.4,6.4-11.8c1.7-3.4,2.2-5.9,2.8-9
								C373.8,215,374.6,210.8,375.5,209.2z"/>
							<path fill="#FFFFFF" d="M375.5,209.2c1.7-3.1,1.7-6.4,1.7-10.1c-0.6,1.1-1.1,2-1.7,3.1c-1.1,2.8-1.7,5.6-2.8,8.4
								c-1.4,4.8-3.1,9.5-5.6,15.1l4.5-16.2c0.8-3.1,1.7-6.2,2.2-9.2c-1.4,1.7-2.5,3.9-3.1,5.9c-0.3,1.1-0.8,2.2-1.1,3.1l-0.8,3.1
								c-0.3,1.1-0.6,2.2-0.8,3.4c-1.1,4.2-2,8.4-2.8,12.6c-0.3,1.1-0.3,2-0.3,2.8s-0.3,1.7-0.3,2.5c-0.3,1.7-0.3,3.4-0.6,5
								c2.8-4.5,4.8-8.4,6.4-11.8c1.7-3.4,2.2-5.9,2.8-9C373.8,215,374.6,210.8,375.5,209.2z"/>
							<path fill="#FFFFFF" d="M373.2,221.5c2-4.8,3.6-10.1,4.5-12.9c1.1-3.4,1.7-7,2.2-10.6c-0.8,0-1.4,0.3-2,0.3
								c-0.3,0.3-0.3,0.6-0.6,0.8c0,3.6,0,7-1.7,10.1c-0.8,1.7-1.7,5.9-2.2,8.7c-0.6,3.1-1.1,5.9-2.8,9c-1.4,3.1-3.6,7-6.4,11.8
								c-0.3,0.8-0.3,2-0.6,2.8l-0.3,2.2l-0.3,1.1v0.3v0.3l0.6-0.3l5-1.7c3.4-1.1,6.4-2,9.8-3.1c3.1-1.1,6.4-2.2,9.8-3.4
								c3.4-1.4,6.4-2.5,9.5-3.9l0.8-0.6l0.6-0.6c0.3-0.3,0.8-0.6,1.1-0.8c0.8-0.6,1.7-1.1,2.5-1.7c1.7-1.1,3.4-2.2,5-3.4
								c1.7-1.1,3.6-2.2,5.3-3.4c2-1.4,3.9-2.8,5.6-4.5c-1.4,1.7-3.1,3.4-4.8,5c-1.7,1.4-3.1,2.5-4.8,3.9c2-1.1,3.6-2.2,5.9-3.6
								c1.1-0.8,2.2-1.7,3.1-2.5l2.8-2.8c2.8-3.4,4.5-7.3,5-11.5c-1.1-1.4-2.2-3.1-2.2-5c0-3.4,0.6-6.7-1.4-9.8
								c0-0.6,1.4-0.6,1.4-1.4c0,1.4,0.3,2.5,0.8,3.6c0.3,1.1,0.8,2.2,1.4,3.1c-0.3-1.1-0.6-2.5-0.8-3.6l-1.1-3.6
								c-1.1-4.5-2-9-5.3-13.2l-1.4-0.8c-2.5-1.4-5.3-1.7-7.8-1.4c0.8,0.3,2,0.6,2.8,1.1c-1.7,0.3-3.6-0.3-5-0.8
								c0.6-0.3,1.4-0.3,2.2-0.3c-1.1-0.3-2.2-0.8-3.4-0.8c-1.1-0.3-2.2-0.3-3.4-0.6c1.4,0.3,2.8,0.3,4.2,0c1.4,0,3.1,0,4.5,0
								c-1.4-0.3-2.8-0.8-4.2-0.8c-1.4,0-2.5,0-3.9-0.3c-1.4,0-2.8,0-4.2,0c-1.4,0.3-3.1,0.3-4.5,0.6l0.3-0.3
								c-3.9,2.2-6.7,5.9-8.1,9.5c-1.4,3.6-2.2,7-2.8,10.6c-0.3,1.7,1.4,3.1,3.1,3.9c0.8,0.3,1.7,0.6,2.5,0.6c0.6,0,1.1,0,1.1,0
								c0-2.5,1.1-5.6,2.2-7.8c1.4-2.2,3.1-3.9,5.3-4.8c2-0.8,4.5-0.8,7.3-0.6c2.5,0.6,4.5,1.4,5.9,2.8c0-1.1-0.3-2.8-1.1-4.2
								c-0.3-0.6-0.8-1.1-1.1-1.7c0.6,0.6,0.8,1.1,1.1,1.7c0.6,0.6,1.1,1.1,1.7,1.7c0.6,0.6,1.1,1.1,1.1,2c-0.3,0.6,0.3,1.1,1.4,0.8
								c0,1.1,0.6,2.2,0.6,3.4c0.3,1.1,0.3,2.5,0,3.6c0,0-0.3,0.3-0.8,0.6v2v2.2c-0.3,4.2-2,8.1-4.5,11.5c-0.6,0.8-1.4,1.4-2,2.2
								c-0.8,0.6-1.4,1.1-2.2,2c-1.7,1.1-3.6,2.2-5.6,3.1c2.2-0.3,4.5-0.6,6.7-0.8c0.8,0,1.7-0.3,2.2-0.8c0.8-0.6,1.4-1.4,2-2.2
								c0.3-0.6,0.6-0.8,0.8-1.4c0.3-0.6,0.6-1.1,0.8-1.7c0.6-1.1,0.8-2.2,1.1-3.4c0.3-1.1,1.7-1.1,2.2-2.2c0.6,1.4,0.6,2.5,0.3,3.6
								c-0.3,1.1-0.8,2.2-1.7,3.4c-0.8,1.1-1.7,2-2.5,2.8c-0.8,0.8-2,1.7-2.8,2.5c-2.2,2.2-5.9,3.9-9.5,5.3
								c-1.7,0.8-3.6,1.4-5.3,2.2c-1.7,0.8-3.1,1.7-4.8,3.1c-1.4,1.1-2.8,1.7-3.9,1.7c-1.1,0-2-0.6-2.2-1.4c1.1-1.4,2.2-1.7,2.8-1.7
								c2.5-0.6,5-1.4,8.1-2.8c3.4-1.4,6.4-3.1,9.2-5c-3.6,1.1-6.7,2.8-10.1,3.9c-2.8,0.8-5,1.4-6.4,0.6c2-0.8,4.2,0.6,7-3.1
								c-0.6-0.3-0.8-0.3-1.4-0.3c-2.5,0.6-3.1,0.3-3.9-0.3c-0.3,0.6-0.8,1.4-1.1,2c-1.1,1.7-2.8,2.8-3.9,3.4
								c-0.6,0.3-1.4,0.6-2,0.8c-0.3,0-0.6,0-0.8,0.3h-0.3c0,0,0,0-0.3,0v-0.3c0.6-1.7,1.4-3.1,2-4.5c0.6-1.4,1.1-2.2,1.1-3.4
								c0.3-0.3-1.1-0.6-1.7-1.4c-0.6,1.7-2,3.9-2.5,6.2c0.8-1.1,1.7-2.2,3.1-3.4c0,0.6-0.8,1.4-1.4,2.5c-0.8,1.1-1.7,2.2-1.7,3.1
								c-0.3-0.6-0.3-1.4,0-2.2c-1.1,1.7-2,3.4-2.8,5.6c-0.6-0.6,0.6-2.8,1.4-4.5c0.8-1.7,1.7-3.1,0.8-3.9c-0.3,0.6-0.3,1.1-0.8,2
								l0.8-2l0,0c0.6-2,0-3.6-0.3-5.9c-0.6,2-1.4,3.6-2.5,5.9c-1.1,2-2.2,4.5-2.8,6.7l-0.3,2c0-0.6,0-1.1,0.3-2
								c0.8-4.8,2.8-10.6,4.5-14.8c1.7-4.2,3.6-8.7,5.3-12.9v-0.8c-0.6,0-1.1,0.3-2,0.3c-1.4,3.6-2.8,7.3-4.2,10.6
								C377.2,212.5,375.2,217,373.2,221.5z"/>
						</g>
					</g>
				</g>
			</g>
		</g>
	</g>
	<g>
		<rect x="158.8" y="441" fill="none" width="991.2" height="138.6"/>
		<g enable-background="new    ">
			<path fill="#86604E" d="M226.9,451.3c0.2,0.1,0.2,0.3,0.2,0.6c-0.1,0.2-0.2,0.5-0.5,0.8c-0.2,0.3-0.5,0.6-0.8,0.9
				c-0.3,0.3-0.6,0.5-0.8,0.6c-1.2,0.4-2.3,0.9-3.3,1.5c-1,0.6-1.9,1.6-2.9,2.9c-0.9,1.3-1.8,3.1-2.7,5.3c-0.9,2.2-1.8,5.2-2.7,8.7
				c-2.2,8.4-5.2,15.6-9.1,21.4c0.9-0.1,1.7-0.3,2.4-0.6c0.8-0.3,1.4-0.6,1.8-0.8c0.2-0.1,0.3,0,0.4,0.1c0.1,0.2,0,0.3-0.1,0.5
				c-1.3,0.9-3,1.4-5.1,1.8c-3.6,5.2-7.7,9.1-12.5,11.8c-4.7,2.7-10,4.1-15.9,4.1c-3.7,0-6.6-0.8-8.8-2.5c-2.2-1.7-3.3-3.7-3.3-6.1
				c0-1.9,0.8-3.8,2.4-5.7c1.6-1.9,3.8-3.5,6.5-4.7c0.3,0.1,0.5,0.2,0.5,0.4c0,0.2,0,0.3-0.1,0.5c-1.9,1-3.3,2.3-4.3,3.6
				c-0.9,1.4-1.4,2.7-1.4,4.2c0,2.1,1,3.9,2.9,5.5c1.9,1.5,4.8,2.3,8.7,2.3c4.9,0,9.2-1,13-3c3.8-2,7.1-5.4,10-10.1
				c-3.1-0.2-5.5-1.4-7.2-3.6c-1.7-2.2-2.5-5.1-2.5-8.6c0-3.8,0.9-7.6,2.8-11.4c1.8-3.8,4.4-7.1,7.5-10.2c3.2-3,6.9-5.5,11.2-7.3
				C217.5,452.2,222.1,451.3,226.9,451.3z M209.4,474.6c0.7-2.6,1.4-4.9,2.1-7c0.7-2.1,1.6-3.9,2.5-5.5c0.9-1.6,2-3,3.1-4.2
				c1.1-1.2,2.4-2.2,3.8-3.1c-4.3,0.5-8.1,1.7-11.6,3.6c-3.5,1.9-6.4,4.1-8.8,6.7c-2.4,2.6-4.3,5.4-5.6,8.5c-1.3,3-2,6-2,8.9
				c0,3.7,0.8,6.5,2.4,8.5c1.6,1.9,3.8,3,6.6,3.2c1.4-2.5,2.7-5.3,4-8.5C207.2,482.4,208.3,478.7,209.4,474.6z"/>
			<path fill="#86604E" d="M226.3,494.7c-0.3,0-0.5-0.2-0.5-0.5c0.5-1.2,0.5-2.3,0-3.2s-1.4-1.4-2.8-1.4c-1,0-1.9,0.4-2.8,1.1
				c-0.9,0.7-1.6,1.7-2.2,3c-0.6,1.3-1.1,2.7-1.5,4.4c-0.4,1.7-0.6,3.5-0.6,5.5c0,3,1,4.5,3.1,4.5c2.4,0,4.8-1.4,7.2-4.3
				c0.2-0.1,0.5-0.1,0.6,0c0.2,0.2,0.2,0.4,0.1,0.7c-1.4,1.8-3,3.3-4.7,4.6c-1.7,1.3-3.4,1.9-5.1,1.9c-1.4,0-2.5-0.5-3.4-1.5
				c-0.9-1-1.3-2.3-1.3-4.1c0-2.2,0.4-4.3,1.1-6.5c0.7-2.2,1.6-4.1,2.8-5.8c1.1-1.7,2.4-3.1,3.9-4.2c1.5-1.1,3-1.6,4.5-1.6
				c1.3,0,2.3,0.3,3,0.9c0.7,0.6,1.1,1.4,1.1,2.2c0,0.3-0.1,0.7-0.3,1.1c-0.2,0.4-0.4,0.9-0.7,1.3c-0.3,0.4-0.6,0.8-0.9,1.2
				C226.8,494.3,226.5,494.6,226.3,494.7z"/>
			<path fill="#86604E" d="M247.6,491.3c0,0.9-0.3,1.7-1,2.4c-0.7,0.7-1.6,1.4-2.8,2c-1.2,0.6-2.5,1.1-4,1.6c-1.5,0.5-3.1,1-4.8,1.4
				c-0.1,0.7-0.1,1.4-0.1,2c0,0.7,0,1.4,0,2.2c0,1.5,0.3,2.8,1,3.9c0.7,1,1.6,1.6,2.9,1.6c1.2,0,2.4-0.3,3.5-0.9
				c1.1-0.6,2-1.4,2.9-2.5c0.2-0.1,0.4-0.1,0.6,0.1c0.1,0.2,0.1,0.4,0,0.6c-1,1.4-2.4,2.6-3.9,3.7s-3.2,1.5-4.9,1.5
				c-1.6,0-2.9-0.5-3.9-1.6c-1-1-1.5-2.6-1.5-4.6c0-1.8,0.3-3.8,1-5.9c0.7-2.1,1.6-4,2.7-5.7c1.1-1.7,2.4-3.1,3.8-4.3
				c1.4-1.1,3-1.7,4.6-1.7c1.2,0,2.2,0.4,3,1.2C247.2,489.3,247.6,490.2,247.6,491.3z M241.5,489.6c-1.4,0-2.7,0.6-3.8,1.8
				c-1.1,1.2-1.9,3.2-2.4,5.8c3-0.4,5.1-1.1,6.5-1.9c1.4-0.8,2.1-1.8,2.1-2.8c0-0.9-0.2-1.6-0.6-2.1
				C242.9,489.9,242.3,489.6,241.5,489.6z"/>
			<path fill="#86604E" d="M303.3,441c1.6,0,2.6,0.6,3,1.8c0.4,1.2,0.2,2.8-0.6,4.6c-0.5,0.4-0.8,0.3-0.9-0.3c0.1-0.9-0.1-1.5-0.7-2
				c-0.6-0.5-1.5-0.7-2.6-0.7c-2.2,0-4.5,0.8-6.7,2.3c-2.3,1.5-4.5,3.7-6.7,6.4c-2.2,2.7-4.3,6-6.3,9.7c-2,3.7-3.9,7.7-5.6,12
				c-1.7,4.3-3.3,8.8-4.7,13.5c-1.4,4.7-2.5,9.4-3.4,14.2c-0.2,1.4-0.3,2.7-0.2,3.7c0.1,1.1,0.6,1.6,1.3,1.6c0.7,0,1.4-0.4,2-1.1
				c0.7-0.7,1.3-1.5,1.8-2.4c0.1-0.1,0.3-0.1,0.5,0c0.2,0.1,0.3,0.3,0.2,0.6c-0.3,0.6-0.7,1.2-1.3,1.8c-0.6,0.7-1.2,1.3-1.8,1.9
				c-0.6,0.6-1.3,1.1-2,1.5c-0.7,0.4-1.3,0.6-1.8,0.6c-1,0-1.8-0.4-2.2-1.3c-0.4-0.9-0.5-2-0.4-3.5c0.1-1,0.2-2,0.4-3
				c0.2-0.9,0.4-1.9,0.6-3c-0.6,1.3-1.3,2.5-2.2,3.7c-0.9,1.2-1.9,2.3-2.9,3.3c-1,1-2,1.8-2.9,2.4c-1,0.6-1.8,1.1-2.4,1.2
				c-1,0-2-0.4-3-1.3c-1-0.9-1.4-2.3-1.4-4.3c0-2.3,0.4-4.6,1.2-6.8c0.8-2.2,1.9-4.1,3.3-5.8c1.4-1.7,3-3,4.8-4
				c1.8-1,3.8-1.5,5.9-1.5c0.7,0,1.3,0.1,1.8,0.3c0.5,0.2,1,0.4,1.4,0.7c1.1-3.3,2.4-6.8,4-10.4c1.6-3.6,3.3-7.2,5.1-10.7
				c1.8-3.5,3.8-6.8,5.9-9.9c2.1-3.1,4.2-5.9,6.4-8.3c2.2-2.4,4.4-4.3,6.6-5.7C299,441.7,301.2,441,303.3,441z M256.5,507.6
				c0.7,0,1.5-0.4,2.4-1.2c1-0.8,1.9-1.8,2.9-3c1-1.2,1.9-2.7,2.8-4.3c0.9-1.6,1.6-3.3,2.3-5c0.2-0.6,0.4-1.2,0.6-1.8
				c0.2-0.6,0.3-1.1,0.5-1.7c-0.2-0.7-0.7-1.3-1.4-1.6c-0.7-0.3-1.4-0.5-2.3-0.5c-1.3,0-2.6,0.4-3.8,1.2c-1.2,0.8-2.3,1.8-3.3,3.2
				c-1,1.4-1.7,3-2.3,4.8c-0.6,1.8-0.9,3.9-0.9,6.1c0,1.3,0.3,2.2,0.8,2.9C255.2,507.3,255.8,507.6,256.5,507.6z"/>
			<path fill="#86604E" d="M304.3,494.7c-0.3,0-0.5-0.2-0.5-0.5c0.5-1.2,0.5-2.3,0-3.2s-1.4-1.4-2.8-1.4c-1,0-1.9,0.4-2.8,1.1
				c-0.9,0.7-1.6,1.7-2.2,3c-0.6,1.3-1.1,2.7-1.5,4.4c-0.4,1.7-0.6,3.5-0.6,5.5c0,3,1,4.5,3.1,4.5c2.4,0,4.8-1.4,7.2-4.3
				c0.2-0.1,0.5-0.1,0.6,0c0.2,0.2,0.2,0.4,0.1,0.7c-1.4,1.8-3,3.3-4.7,4.6c-1.7,1.3-3.4,1.9-5.1,1.9c-1.4,0-2.5-0.5-3.4-1.5
				c-0.9-1-1.3-2.3-1.3-4.1c0-2.2,0.4-4.3,1.1-6.5c0.7-2.2,1.6-4.1,2.8-5.8c1.1-1.7,2.4-3.1,3.9-4.2c1.5-1.1,3-1.6,4.5-1.6
				c1.3,0,2.3,0.3,3,0.9c0.7,0.6,1.1,1.4,1.1,2.2c0,0.3-0.1,0.7-0.3,1.1c-0.2,0.4-0.4,0.9-0.7,1.3c-0.3,0.4-0.6,0.8-0.9,1.2
				C304.8,494.3,304.5,494.6,304.3,494.7z"/>
			<path fill="#86604E" d="M321.6,487.2c1.7,0,2.9,0.6,3.7,1.7c0.8,1.1,1.2,2.6,1.2,4.3c0,2.1-0.4,4.2-1.2,6.3c-0.8,2.1-1.8,4-3,5.7
				c-1.2,1.7-2.6,3.1-4,4.1c-1.4,1-2.8,1.6-4,1.6c-1.5,0-2.6-0.6-3.5-1.8c-0.9-1.2-1.3-2.8-1.3-5c0-1.7,0.3-3.6,1-5.5
				c0.7-2,1.6-3.8,2.7-5.5c1.1-1.7,2.4-3.1,3.9-4.2S320,487.2,321.6,487.2z M316,508c0.9,0,1.8-0.3,2.7-1c0.9-0.6,1.7-1.5,2.4-2.6
				c0.7-1.1,1.2-2.3,1.6-3.7c0.4-1.4,0.6-2.9,0.6-4.4c0-1.8-0.3-3.3-0.9-4.4c-0.6-1.1-1.6-1.6-3-1.6c-0.9,0-1.8,0.3-2.7,1
				c-0.9,0.6-1.6,1.5-2.3,2.6c-0.6,1.1-1.2,2.3-1.5,3.8c-0.4,1.4-0.6,3-0.6,4.6C312.3,506.1,313.6,508,316,508z"/>
			<path fill="#86604E" d="M370.3,443.7c1.2,0,2.2,0.2,3,0.7c0.8,0.5,1.4,1.1,1.8,1.9c0.4,0.8,0.6,1.7,0.6,2.6s-0.2,1.9-0.6,2.8
				c-0.1,0.2-0.3,0.2-0.5,0.2s-0.3-0.2-0.5-0.4c-0.1-1.2-0.7-2.3-1.7-3.3c-1-1-2.6-1.4-4.8-1.4c-2.3,0-4.6,0.6-6.7,1.8
				c-2.1,1.2-4.3,3.4-6.5,6.5c-2.2,3.1-4.4,7.2-6.7,12.5c-2.2,5.2-4.7,11.9-7.3,19.9c1.4-0.1,2.9-0.1,4.5-0.1c1.6,0,3.2,0,4.9,0
				c0.3,0.1,0.4,0.3,0.4,0.5c0,0.2-0.3,0.4-0.9,0.5c-1.5,0.1-3.1,0.1-4.6,0.2c-1.5,0.1-3.1,0.2-4.7,0.3c-0.2,0.7-0.4,1.3-0.6,1.8
				c-2.5,8.1-5.1,14.8-7.8,20.3c-2.6,5.5-5.4,9.8-8.1,13.1c-2.8,3.3-5.6,5.6-8.5,7c-2.9,1.4-5.8,2.1-8.7,2.1c-2.1,0-3.6-0.5-4.5-1.4
				c-0.9-0.9-1.3-2-1.3-3.2c0-0.6,0.1-1.2,0.4-1.8c0.2-0.6,0.6-1.2,0.9-1.7c0.2-0.2,0.4-0.2,0.5-0.1c0.2,0.1,0.2,0.3,0.2,0.5
				c-0.2,0.5-0.3,1.1-0.3,1.7c0.1,0.6,0.3,1.3,0.8,1.8c0.5,0.6,1.1,1.1,2,1.5c0.9,0.4,2,0.6,3.5,0.6c1.5,0,2.9-0.2,4.4-0.6
				c1.4-0.4,2.9-1.1,4.3-2.1c1.4-1,2.9-2.4,4.3-4.3c1.4-1.8,2.9-4.3,4.5-7.3c1.5-3,3.1-6.6,4.8-10.9c1.7-4.3,3.4-9.3,5.2-15.2
				c0.1-0.3,0.2-0.6,0.3-0.9c0.1-0.3,0.2-0.6,0.3-0.9c-1,0.1-2.1,0.3-3.1,0.4c-1,0.2-2.1,0.4-3.1,0.6c-0.3-0.1-0.4-0.2-0.2-0.5
				c0.2-0.2,0.4-0.5,0.8-0.7c0.4-0.2,0.9-0.5,1.4-0.7c0.6-0.2,1.1-0.4,1.6-0.4c0.5-0.1,1-0.1,1.5-0.1c0.5,0,1.1-0.1,1.6-0.1
				c2.2-6.7,4.6-12.7,7.2-18.1c2.6-5.4,5.3-10,8.1-13.9c2.8-3.8,5.8-6.8,8.8-8.9C364.1,444.7,367.2,443.7,370.3,443.7z"/>
			<path fill="#86604E" d="M384.7,443.7c1.2,0,2.2,0.2,3,0.7c0.8,0.5,1.4,1.1,1.8,1.9c0.4,0.8,0.6,1.7,0.6,2.6s-0.2,1.9-0.6,2.8
				c-0.1,0.2-0.3,0.2-0.5,0.2s-0.3-0.2-0.5-0.4c-0.1-1.2-0.7-2.3-1.7-3.3c-1-1-2.6-1.4-4.8-1.4c-2.3,0-4.6,0.6-6.7,1.8
				c-2.1,1.2-4.3,3.4-6.5,6.5c-2.2,3.1-4.4,7.2-6.7,12.5c-2.2,5.2-4.7,11.9-7.3,19.9c1.4-0.1,2.9-0.1,4.5-0.1c1.6,0,3.2,0,4.9,0
				c0.3,0.1,0.4,0.3,0.4,0.5c0,0.2-0.3,0.4-0.9,0.5c-1.5,0.1-3.1,0.1-4.6,0.2c-1.5,0.1-3.1,0.2-4.7,0.3c-0.2,0.7-0.4,1.3-0.6,1.8
				c-2.5,8.1-5.1,14.8-7.8,20.3c-2.6,5.5-5.4,9.8-8.1,13.1c-2.8,3.3-5.6,5.6-8.5,7c-2.9,1.4-5.8,2.1-8.7,2.1c-2.1,0-3.6-0.5-4.5-1.4
				c-0.9-0.9-1.3-2-1.3-3.2c0-0.6,0.1-1.2,0.4-1.8c0.2-0.6,0.6-1.2,0.9-1.7c0.2-0.2,0.4-0.2,0.5-0.1c0.2,0.1,0.2,0.3,0.2,0.5
				c-0.2,0.5-0.3,1.1-0.3,1.7c0.1,0.6,0.3,1.3,0.8,1.8c0.5,0.6,1.1,1.1,2,1.5c0.9,0.4,2,0.6,3.5,0.6c1.5,0,2.9-0.2,4.4-0.6
				c1.4-0.4,2.9-1.1,4.3-2.1c1.4-1,2.9-2.4,4.3-4.3c1.4-1.8,2.9-4.3,4.5-7.3c1.5-3,3.1-6.6,4.8-10.9c1.7-4.3,3.4-9.3,5.2-15.2
				c0.1-0.3,0.2-0.6,0.3-0.9c0.1-0.3,0.2-0.6,0.3-0.9c-1,0.1-2.1,0.3-3.1,0.4c-1,0.2-2.1,0.4-3.1,0.6c-0.3-0.1-0.4-0.2-0.2-0.5
				c0.2-0.2,0.4-0.5,0.8-0.7c0.4-0.2,0.9-0.5,1.4-0.7c0.6-0.2,1.1-0.4,1.6-0.4c0.5-0.1,1-0.1,1.5-0.1c0.5,0,1.1-0.1,1.6-0.1
				c2.2-6.7,4.6-12.7,7.2-18.1c2.6-5.4,5.3-10,8.1-13.9c2.8-3.8,5.8-6.8,8.8-8.9C378.5,444.7,381.6,443.7,384.7,443.7z"/>
			<path fill="#86604E" d="M375.2,491.3c0,0.9-0.3,1.7-1,2.4s-1.6,1.4-2.8,2c-1.2,0.6-2.5,1.1-4,1.6c-1.5,0.5-3.1,1-4.8,1.4
				c-0.1,0.7-0.1,1.4-0.1,2c0,0.7,0,1.4,0,2.2c0,1.5,0.3,2.8,1,3.9c0.7,1,1.6,1.6,2.9,1.6c1.2,0,2.4-0.3,3.5-0.9
				c1.1-0.6,2-1.4,2.9-2.5c0.2-0.1,0.4-0.1,0.6,0.1c0.1,0.2,0.1,0.4,0,0.6c-1,1.4-2.4,2.6-3.9,3.7c-1.6,1-3.2,1.5-4.9,1.5
				c-1.6,0-2.9-0.5-3.9-1.6c-1-1-1.5-2.6-1.5-4.6c0-1.8,0.3-3.8,1-5.9c0.7-2.1,1.6-4,2.7-5.7c1.1-1.7,2.4-3.1,3.8-4.3
				c1.4-1.1,3-1.7,4.6-1.7c1.2,0,2.2,0.4,3,1.2C374.8,489.3,375.2,490.2,375.2,491.3z M369.1,489.6c-1.4,0-2.7,0.6-3.8,1.8
				c-1.1,1.2-1.9,3.2-2.4,5.8c3-0.4,5.1-1.1,6.5-1.9c1.4-0.8,2.1-1.8,2.1-2.8c0-0.9-0.2-1.6-0.6-2.1
				C370.5,489.9,369.9,489.6,369.1,489.6z"/>
			<path fill="#86604E" d="M394.3,491.3c0,0.9-0.3,1.7-1,2.4s-1.6,1.4-2.8,2c-1.2,0.6-2.5,1.1-4,1.6c-1.5,0.5-3.1,1-4.8,1.4
				c-0.1,0.7-0.1,1.4-0.1,2c0,0.7,0,1.4,0,2.2c0,1.5,0.3,2.8,1,3.9c0.7,1,1.6,1.6,2.9,1.6c1.2,0,2.4-0.3,3.5-0.9
				c1.1-0.6,2-1.4,2.9-2.5c0.2-0.1,0.4-0.1,0.6,0.1c0.1,0.2,0.1,0.4,0,0.6c-1,1.4-2.4,2.6-3.9,3.7c-1.6,1-3.2,1.5-4.9,1.5
				c-1.6,0-2.9-0.5-3.9-1.6c-1-1-1.5-2.6-1.5-4.6c0-1.8,0.3-3.8,1-5.9c0.7-2.1,1.6-4,2.7-5.7c1.1-1.7,2.4-3.1,3.8-4.3
				c1.4-1.1,3-1.7,4.6-1.7c1.2,0,2.2,0.4,3,1.2C393.9,489.3,394.3,490.2,394.3,491.3z M388.2,489.6c-1.4,0-2.7,0.6-3.8,1.8
				c-1.1,1.2-1.9,3.2-2.4,5.8c3-0.4,5.1-1.1,6.5-1.9c1.4-0.8,2.1-1.8,2.1-2.8c0-0.9-0.2-1.6-0.6-2.1
				C389.5,489.9,388.9,489.6,388.2,489.6z"/>
		</g>
	</g>
</g>
</svg>
