<?xml version="1.0" encoding="utf-8"?>
<!-- Generator: Adobe Illustrator 18.0.0, SVG Export Plug-In . SVG Version: 6.00 Build 0)  -->
<!DOCTYPE svg PUBLIC "-//W3C//DTD SVG 1.1//EN" "http://www.w3.org/Graphics/SVG/1.1/DTD/svg11.dtd">
<svg version="1.1" id="Layer_1" xmlns="http://www.w3.org/2000/svg" xmlns:xlink="http://www.w3.org/1999/xlink" x="0px" y="0px"
	 viewBox="0 0 560 560" enable-background="new 0 0 560 560" xml:space="preserve">
<g>
	<g>
		<circle fill="#DFCEC4" cx="284.2" cy="273" r="197.4"/>
		<g>
			<g>
				<g>
					<g opacity="0.8">
						<g opacity="0.8">
							<path fill="#FAF8F7" d="M385.8,117.6c-7-4.8-14.6-8.7-22.4-12.6c-7.6-3.6-15.7-7-23.8-9.8c-16.2-5.6-33.3-9.2-50.4-10.1
								c-33.6-2-67.2,7.3-90.4,24.6c-5.3,3.6-10.4,7.8-15.1,12c2.8-1.4,5.6-3.4,8.7-4.5c8.1-4.2,16.8-7.6,25.5-10.6
								c4.5-1.7,9-2.8,13.4-3.9c4.5-1.1,9-2.2,13.7-2.8c18.2-3.4,37.2-3.9,56-1.7c37.2,3.9,72.8,19.9,100.8,43.4
								c17.6,14,33.9,31.4,45.9,52.1c12,20.7,20.2,45.4,20.4,71.7c0,5.9,3.6,6.4,5.3,7c2.2-5.3,4.5-10.1,6.4-14.6
								c-1.4-11.2-3.6-22.4-7-33c-3.4-10.6-7.6-21.3-12.9-31.1c-10.4-19.9-23.5-38.4-39.8-54.3c-2.5-2.8-5.6-5-8.7-7.3
								c-3.4-2-6.4-4.2-9.5-5.6c-3.1-1.7-6.2-3.1-9-4.5C390,120.1,387.8,118.7,385.8,117.6z"/>
							<path fill="#F8F5F3" d="M479.4,259.3c0.3-0.3,0.3-0.6,0.6-0.8c-0.3-2.2-0.6-4.5-0.8-6.7C479.4,254.2,479.4,256.8,479.4,259.3
								z"/>
							<path fill="#FAF7F6" d="M437.4,159.6c-9.5-11.2-19.6-21.6-30.5-31.1c-8.1-4.8-16.5-7.8-21-10.9c-7-4.8-14.6-8.7-22.4-12.6
								c-7.6-3.6-15.7-7-23.8-9.8c-16.2-5.6-33.3-9.2-50.4-10.1c-33.6-2-67.2,7.3-90.4,24.6c-5.3,3.6-10.4,7.8-15.1,12
								c3.1-1.7,6.2-3.4,9.2-5c23-11.2,48.2-18.5,73.9-19.9c1.4-0.3,2.8-0.6,4.2-0.8c7.3-1.7,14.3-1.7,21.3-0.8
								c3.4,0.3,7,1.1,10.4,1.7c3.4,0.8,6.7,1.4,10.1,2c9.8,1.1,19,3.4,28,6.2c9,2.8,17.4,6.4,25.2,10.9c16,8.7,30.8,19.6,45.4,33
								c2.5,2.5,5.3,4.8,8.1,7.3c2.8,2.5,5.6,5,8.4,7.8c5.3,5.6,10.9,11.8,14.8,19.3c1.7,2.5,2.8,5,3.9,7.6c1.4,2.5,2.2,5,3.4,7.8
								c10.6,19.9,17.4,42.8,17.9,67.2c0,5.9,3.6,6.4,5.3,7c1.1-2.8,2.2-5.3,3.6-7.8c0-10.4-1.1-20.7-3.1-30.8
								c-2-10.1-5-20.4-8.7-30.2c-7.3-16.8-17.1-32.8-28.6-47C436.5,157.6,437.1,158.5,437.4,159.6z"/>
							<path fill="#F8F5F3" d="M440.7,155.1c-1.7-2.2-5.6-3.1-4.2,2c11.5,14.3,21.3,30.2,28.6,47
								C458.9,187.3,450.5,171.1,440.7,155.1z"/>
							<path fill="#FCFAF9" d="M452.2,150.1c-10.9-16.2-25.2-29.7-39.8-40.3c-14.6-10.9-29.7-19.3-43.7-27.2
								c-14.8-8.4-30.2-15.4-44.5-21.6c-2.8-0.6-5.6-0.8-8.4-1.4c-2.8-0.3-5.6-0.6-8.1-1.1c-17.1-1.7-34.2-0.8-51.2,1.4
								c-16.8,2.5-33.6,6.7-49.3,13.2c-31.6,12.6-59.9,32.8-82.3,58c-11.2,12.6-21,26.6-28.8,41.4S81.8,203,77.3,219.2
								c-4.5,16.2-7,33-7.6,49.8c-0.6,16.8,0.6,33.9,3.6,50.4c3.4,16.8,9.2,32.5,16.8,47.3c7.6,14.6,17.4,28,28.3,40.3
								c10.9,12,23.5,22.7,37,31.9c13.4,9.2,28.3,16.8,44,22.7c4.5,2,9,3.6,13.4,5.3c2.2,0.8,4.5,1.7,6.7,2.2
								c2.2,0.8,4.5,1.7,6.4,2.2c2.2,0.8,4.5,1.4,6.4,2c2.2,0.6,4.5,1.1,6.4,2c4.2,1.4,8.7,2.2,12.9,3.4c17.4,3.9,35.3,6.2,55.4,5.3
								c24.9-0.8,48.7-7.6,70-18.2c21-10.9,39.8-25.5,54.9-42.8c30.2-35,47.6-79.2,50.7-126.8c0.8-12.9-3.4-20.2-6.7-23.2
								c-3.6-3.4-7.3-2.5-7.3,0.6c1.4,37-9.2,73.9-29.7,104.2c-20.2,30.5-49.6,54.3-83.2,68c-8.4,3.4-17.1,6.2-25.8,8.4
								c-8.7,2.2-17.6,3.6-26.6,4.5c-9,0.8-18.2,1.1-27.2,0.6s-18.2-1.4-27.2-3.1c-35.8-6.7-69.7-23.8-97.2-49.6
								c-21-19.9-37.2-44.8-46.5-71.7c-9.5-26.9-12.3-55.7-8.7-83.2c3.6-27.4,13.7-53.8,28.8-76.2c15.1-22.4,35.3-40.9,58-54
								c4.8-4.2,9.8-8.4,15.1-12c23.2-17.4,56.8-26.3,90.7-24.4c17.1,0.8,34.2,4.5,50.4,10.1c8.1,2.8,16,6.2,23.8,9.8
								c7.6,3.9,15.1,7.8,22.4,12.6c2,1.1,4.2,2.5,7,3.6c2.8,1.1,5.9,2.8,9,4.5c3.4,1.7,6.4,3.6,9.5,5.6c3.1,2.2,6.2,4.5,8.7,7.3
								c16,16,29.4,34.4,39.8,54.3c5,10.1,9.5,20.4,12.9,31.1c3.4,10.6,5.6,21.8,7,33c4.5-9.5,8.4-17.9,10.4-28.6
								C481.9,200.2,467.9,174.2,452.2,150.1z"/>
							<path fill="#F8F4F2" d="M452.2,150.1c15.4,23.8,29.4,49.8,37.8,78.7c0.3-2.5,0.6-5.3,0.8-8.1c0-2.8-0.3-5.9-0.6-9.2
								c-0.8-4.5-2-9.2-3.1-13.7c-1.4-4.5-2.8-9.2-4.5-13.7c-3.4-9-7.6-17.9-12.6-26.6s-10.9-16.8-17.1-24.6
								c-6.4-7.8-13.4-15.1-21-21.8c-7.6-6.7-15.7-12.9-24.1-18.5c-8.7-5.3-17.4-10.4-26.6-14.6c-9.2-4.2-18.5-7.8-28-10.6
								c-4.8-1.7-9.5-2.5-14.3-3.9c-2.5-0.6-4.8-1.1-7.3-1.7c-2.5-0.6-4.8-1.1-7.3-1.4c14.3,6.2,29.7,13.4,44.5,21.6
								c14,8.1,29.1,16.2,43.7,27.2C427.3,120.4,441.3,133.8,452.2,150.1z"/>
							<path fill="#FAF7F6" d="M452.2,150.1c14.8,23,28.3,47.6,36.7,74.8c-0.6-4.8-1.7-9.5-2.8-14.3c-0.6-2.2-1.4-4.8-2-7
								s-1.4-4.8-2.2-7c-8.7-23.5-21.8-45.4-38.4-64.4s-35.8-35.3-57.1-48.7c47.6,25.8,84.8,70,102.5,121.5
								c-8.1-35.6-30-70.6-59.9-95.8c-7.3-6.4-15.4-12-23.8-17.4c-8.4-5.3-17.1-9.8-25.8-14c-9-3.9-17.9-7.6-27.2-10.1
								c-4.5-1.4-9.2-2.5-13.7-3.9c-4.8-0.8-9.2-2.2-14-2.8c14.3,6.2,29.4,13.4,44.2,21.6c14,8.1,29.1,16.2,43.7,27.2
								C427.3,120.4,441.3,133.8,452.2,150.1z"/>
							<path fill="#F8F4F1" d="M393.1,98c24.4,16.2,45.1,37.5,61,61.6c16,24.4,27.4,51.8,33.3,80.9c0.8-2.8,1.7-5.3,2.2-8.4
								c-0.3-2.5-0.6-5-0.8-7.6c-8.4-27.2-21.8-52.1-36.7-74.8c-10.9-16.2-25.2-29.7-39.8-40.3c-14.6-10.9-29.7-19.3-43.7-27.2
								c-14.8-8.4-30.2-15.4-44.2-21.6c-2.5-0.6-5-0.8-7.8-1.4c-2.5-0.3-5-0.6-7.8-0.8c-17.4-1.7-35-1.1-52.4,1.4
								c-8.7,1.1-17.1,3.1-25.5,5.3c-8.4,2.5-16.8,5-24.6,8.4c-16,6.4-31.4,14.8-45.4,25.2c-7,5-13.7,10.6-20.2,16.2
								c-6.2,5.9-12.3,12-17.9,18.5c-9,12-17.1,24.9-24.1,38.6s-12.6,28.3-17.1,43.1c-8.7,30-11.5,62.2-7.6,93.5
								c-4.8-29.1-3.9-59.4,2.8-88.5c-8.4,31.9-9.8,65.5-3.6,98.3c5.6,28.3,17.9,54.3,35,76.2c3.1,1.4,6.2,3.6,10.1,6.4
								c3.9,3.1,8.4,7,13.7,12.3c8.4,8.1,17.1,15.7,26.6,22.4c9.5,6.7,19.6,12.3,30.5,16.5c2.8,1.4,1.1,3.6,6.7,6.7
								c-16.2-8.1-29.4-14.8-41.7-21c13.7,9.2,28.3,17.1,44,23c14.3,6.2,27.7,10.9,41.4,14.6s27.2,6.4,41.7,7.8
								c3.1,0,6.2-0.3,9.5-0.3c15.7-0.8,31.1-4.5,45.9-10.1c-6.2,1.4-12.3,2.8-19,3.6c9.8-3.1,22.4-6.2,31.6-9
								c-4.2,2-8.4,3.6-12.6,5.3c14.8-3.6,28.6-8.7,43.1-15.7c-17.6,9-36.1,16.5-52.6,21.6c17.9-3.9,34.4-10.1,50.1-17.9
								c15.7-7.8,30.2-17.1,44.8-28c-0.6,0.8-1.1,1.4-1.7,2.2c18.5-17.9,33.3-39.2,43.7-62.7c10.4-23.2,16.5-48.7,18.5-75
								c0.3-3.1,0.3-6.2-0.3-8.7c-0.3-2.5-0.8-4.8-1.4-6.7c-1.4-3.9-3.4-6.4-5-8.1c-3.6-3.1-7.3-2.5-7.3,0.6
								c0.8,25.8-4.2,51.5-14.3,75c-10.1,23.5-25.2,44.5-44,61.6c-18.8,17.1-40.9,30.2-65,38.4c-23.8,8.1-49.6,11.2-74.8,9.5
								c11.2,2.8,23,4.5,35,5c2.5,0,5-0.3,7.6,0c2.5,0,5,0,7.3,0c-2.5,0-5,0.3-7.6,0.3s-5,0-7.6-0.3c-14,0.3-29.7,0.6-44.5-2.8
								c-1.4-0.6-4.2-1.1-7.3-1.7c-3.1-0.3-6.2-0.3-8.1,0.6c-9.8-3.1-20.7-6.4-31.1-10.4c-10.4-4.2-20.7-9.2-28.8-15.4
								c-1.1-0.6-2.2-2.5-3.9-4.5c-10.9-6.7-21-14.8-30.5-23.8c-26.3-24.9-44.5-57.7-51.8-92.4c-7.6-34.4-4.8-70.8,7.8-102.8
								c-7,15.1-12.3,30.5-15.7,45.4c-2.8,10.1-3.4,26.6-0.3,44.5c3.1,17.9,10.1,37.2,18.2,53.8c2.2,4.2,3.6,7.6,4.8,11.2
								c1.4,3.4,2.2,7,4.8,10.9c-3.1-2.8-5.6-6.4-8.4-9.8c-2.5-3.6-5-7.6-7-11.5c-4.5-8.1-7.8-17.4-10.4-26.6
								c-2.8-9.5-4.2-19.3-5.3-29.1c-1.1-9.8-1.4-19.6-1.7-29.1c0-12.6,1.7-26.6,5.3-40.6c3.6-14,9-28.3,16-42
								c7-13.4,15.7-26.3,24.9-37.8c9.2-11.8,19.3-22.1,29.1-31.6c8.1-7.8,17.4-14,26.9-18.2c9.5-4.2,19-7,27.7-8.7
								c-5.6,3.6-16.5,8.4-22.1,11.5c-24.4,12.3-46.2,30-63.3,51.5c-17.1,21.6-29.4,47-35.3,74.2c4.2-13.7,9.5-26.9,16-39.5
								c6.4-12.3,14.3-24.1,23.2-34.7c17.6-21.3,40.3-38.6,66.1-49c-7.3,3.6-14.3,7.6-21.3,11.8c-6.7,4.5-13.4,8.7-19.6,14
								c-12.3,10.1-23,22.1-30,35.6c2-1.7,3.9-3.4,5.9-5.3c13.4-16.2,30-30,47.9-40.3c4.8-4.2,9.8-8.4,15.1-12
								c23.2-17.4,56.8-26.3,90.7-24.4c17.1,0.8,34.2,4.5,50.4,10.1c8.1,2.8,16,6.2,23.8,9.8c7.6,3.9,15.1,7.8,22.4,12.6
								c4.5,3.1,12.9,6.2,21,10.9c-16.8-14.6-35.8-27.2-57.1-35c8.1,3.9,15.7,8.7,21.6,14c-9.2-4.8-17.6-9-26.3-12.9
								c-8.7-3.9-17.9-7.3-28.3-8.7c11.5,1.1,22.4,3.9,33,7.6c-12.3-5.9-26.3-9.8-40.6-12.6c14.3,0.3,27.4,4.8,39.8,10.1
								c12.3,5.3,24.1,11.8,37.5,17.4c-5-3.1-10.4-6.2-15.4-9.2c5.3,2.8,10.6,5.9,15.7,9.2c0,0-0.3,0-0.3-0.3
								c7.8,4.8,15.4,9.8,23,15.1c7.3,5.3,14.3,10.9,20.4,16.5c-10.9-11.8-22.1-22.4-34.2-31.9c-12.3-9.2-25.8-17.4-40.6-23
								c-2.5-0.8-5-1.7-7.6-2.5c-2.5-0.8-5-1.4-7.6-2.2c2.5,0.6,5.3,1.1,7.8,2c2.5,0.8,5,1.4,7.6,2.5c35,12,65.5,35.8,87.1,65.5
								c21.6,29.7,34.4,65,37.2,100.8c0.3,2.2,0.6,4.5,0.8,6.7c1.1-2.2,2-4.2,3.1-6.2c-2.8-30.2-12-60.2-27.7-86.8
								c-7.8-13.2-16.8-25.8-27.4-37C417.5,117,405.7,107,393.1,98z"/>
						</g>
					</g>
				</g>
			</g>
		</g>
	</g>
	<g>
		<path fill="#C69C6D" d="M350.8,252H200.8c0,0-5.9,30,7.6,41.2c10.6,8.7,37-3.9,67.5-4.2c33.6-0.3,61.6,9.2,68-0.6
			C357.8,268,350.8,252,350.8,252z"/>
		<g>
			<g>
				<g>
					<g opacity="0.8">
						<g opacity="0.8">
							<path fill="#EEE8E6" d="M325.1,295.7c-10.9-0.6-21.8-2.8-32.5-3.6c-10.6-1.1-20.7-1.1-29.7,1.1c-2,0.6-3.9,0.8-5.9,1.4
								c1.1,0,2-0.3,3.1-0.3c5.9-0.6,11.8-0.6,17.6-0.3s12,0.6,18.2,1.4c6.2,0.6,12.3,1.4,18.5,2s12.6,1.4,19.6,0.8
								c2.2-0.3,4.5-0.6,6.7-1.7c2.2-0.8,5.3-2.8,6.7-5.3c2-3.6,3.9-7.3,5.3-11.5c2.8-8.1,3.9-16.8,1.7-26c-0.6-2-1.4-2-2-2
								c0,2-0.3,3.6-0.6,5c1.4,6.7,0.8,14-1.4,20.4c-1.1,3.4-2.5,6.7-4.2,9.5L345,289c-0.6,0.8-1.1,1.7-2,2.2
								c-1.7,1.4-3.6,2-5.3,2.5C333.2,294.6,327.9,295.7,325.1,295.7z"/>
							<path fill="#E6DEDB" d="M352.5,255.9L352.5,255.9l0.3,2.2C352.8,257.3,352.5,256.8,352.5,255.9z"/>
							<path fill="#ECE6E3" d="M345.8,288.7c-0.6,0.8-1.4,2.2-2.5,3.1c-1.1,0.8-2.2,1.4-3.6,2c-2.5,0.8-4.8,1.1-7.3,1.1
								c-3.1,0.6-5.9,0.8-7.6,0.8c-10.9-0.6-21.8-2.8-32.5-3.6c-10.6-1.1-20.7-1.1-29.7,1.1c-2,0.6-3.9,0.8-5.9,1.4
								c1.1,0,2.2-0.3,3.4-0.3c8.1-0.6,16.2-0.6,24.6,0c0.6,0,0.8,0,1.4,0c4.8-0.3,9,0.8,13.7,1.1c6.4,0.3,12.6,1.1,18.8,1.7
								c3.1,0.3,6.2,0.6,9.5,0.6c3.4,0,6.7,0,10.9-1.1c1.4-0.6,3.1-0.8,4.5-2c1.4-0.8,3.1-2.5,3.9-4.2c1.4-2.5,2.5-5,3.9-7.6
								c0.8-2,1.7-3.6,2.5-5.6c2.2-7.6,3.1-16,1.1-24.4c-0.6-2-1.7-2-2-2c0,1.1,0,2,0,2.8c1.4,6.4,1.1,13.2-0.8,19.3
								c-1.4,5.6-3.6,10.9-6.7,16C345.5,289.2,345.5,289,345.8,288.7z"/>
							<path fill="#E6DEDB" d="M344.4,288.4c-0.3,0.6-0.8,2,0.8,0.8c3.1-4.8,5.6-10.4,6.7-16C350.6,278.9,348,283.9,344.4,288.4z"/>
							<path fill="#F4F0EE" d="M342.4,285.9c-0.8,1.4-1.1,1.7-2,2.2s-1.7,0.8-2.8,1.1c-2.2,0.6-4.8,0.8-7.3,0.8
								c-5,0-9.8-0.3-14.3-1.1c-4.8-0.8-9.2-2-13.4-3.4c-1.7,0-3.1-0.3-4.5-0.3c-9.5-0.6-19-0.8-28.8-0.3c-9.5,0.8-19,2.5-28.3,4.2
								c-4.5,0.8-9.2,1.7-13.7,2.2c-4.5,0.6-9,0.8-12.6,0.3c-0.8,0-1.7-0.6-2.5-0.8c-0.3,0-0.6-0.6-0.8-0.6
								c-0.3-0.3-0.6-0.3-0.8-0.8c-1.4-1.1-2.5-2.8-3.4-4.5c-1.7-3.4-2.5-7.6-3.1-11.8c-0.3-4.2-0.6-8.7-0.3-12.9
								c0-1.1,0-2.2,0.3-3.1v-0.8v-0.3h0.3h0.3h0.3l0,0h0.6c9-0.6,18.2-1.1,27.4-1.7c11.2-0.3,20.4,0.8,31.4,1.4
								c27.4,1.7,51.2-2,79.5-3.1c7.6-0.3,8.7-3.9,6.7-3.9c-47,1.4-91.6,0-138.6,0.8c-2.2,0-4.5,0-6.7,0c-1.4,0-3.1,0-4.8,0h-1.1
								c-0.3,0-0.8-0.3-0.8,0.3l-0.3,2.2c-0.3,1.4-0.6,3.1-0.6,4.5c0,1.1-0.3,2.2-0.3,3.4c-0.3,2.2-0.3,4.5-0.3,6.7
								c0,4.5,0.6,9.2,1.7,13.7c1.1,4.5,3.1,9,6.4,12.6c0.8,0.8,1.7,1.7,2.8,2.5c1.1,0.8,2.2,1.1,3.4,1.7c2.2,0.8,4.8,1.1,7,1.1
								c4.5,0.3,9-0.3,13.4-0.8c8.7-1.1,17.1-2.5,25.2-3.4c2-0.6,3.9-1.1,5.9-1.4c8.7-2.2,19-2.2,29.7-1.1
								c10.6,0.8,21.3,3.1,32.5,3.6c2.8,0.3,8.1-0.8,12.9-2c2-0.6,3.6-1.1,5.3-2.5c0.8-0.6,1.4-1.7,2-2.2l1.4-2.2
								c1.7-3.1,3.1-6.4,4.2-9.5c2.2-6.7,2.8-13.7,1.4-20.4c-0.8,2.8-2,5-3.1,7.6C349.4,271.9,346.9,279.7,342.4,285.9z"/>
							<path fill="#E5DDD9" d="M342.4,285.9c4.5-6.2,7.3-14.3,7-21.8c-0.6,1.1-1.1,2.5-1.7,4.2c-1.1,4.5-3.1,8.7-5.6,12.9
								c-0.6,1.1-1.4,2-2,3.1l-0.6,0.8c-0.3,0.3-0.3,0.6-0.3,0.6l-0.3,0.3c-0.6,0.6-2.8,1.1-5,1.4c-4.5,0.6-10.1,0-15.4-0.3
								c-5.3-0.6-10.9-0.8-16.2-1.4c4.2,1.4,8.7,2.5,13.4,3.4c4.5,0.8,9.2,1.4,14.3,1.1c2.5,0,5-0.3,7.3-0.8c1.1-0.3,2-0.8,2.8-1.1
								C341.3,287.6,341.6,287.3,342.4,285.9z"/>
							<path fill="#ECE6E3" d="M342.4,285.9c4.5-5.9,7-13.4,7-20.7c-0.3,2.5-0.8,4.8-1.7,7.3c-0.8,3.1-2.2,6.2-3.6,9
								c-0.8,1.4-1.7,2.8-2.5,4.2c-0.3,0.3-0.6,0.8-0.6,0.8c0,0.3-0.3,0.3-0.6,0.6s-0.8,0.6-1.1,0.8c-2,0.8-5.3,1.1-8.7,1.1
								c-3.4,0-6.7-0.6-9.8-1.1c3.6,0.3,7.3,0.6,10.6,0.6c3.4,0,6.7-0.6,8.1-1.7c0.3-0.3,0.6-0.6,0.8-0.8l1.4-2.2
								c0.8-1.4,1.7-3.1,2.5-4.5c1.4-3.1,2.5-6.2,3.1-9.5c-1.4,4.2-3.4,8.4-5.6,12.6l-2,3.1c-0.3,0.3-0.3,0.3-0.3,0.3s0,0-0.3,0.3
								c0,0-0.3,0.3-0.6,0.3c-1.1,0.6-3.1,1.1-5.3,1.1c-4.5,0.3-9.8,0-15.1-0.3c-5.3-0.6-10.6-0.8-15.7-1.4
								c3.9,1.1,8.7,2.5,13.4,3.4c4.5,0.8,9.2,1.4,14.3,1.1c2.5,0,5-0.3,7.3-0.8c1.1-0.3,2-0.8,2.8-1.1
								C341.3,287.6,341.6,287.3,342.4,285.9z"/>
							<path fill="#E3DAD6" d="M324,290.4c4.2,0.3,8.1,0.8,12,0.3c2-0.3,3.6-0.8,5-1.7c0.6-0.6,1.1-0.8,1.7-2l1.7-2.5
								c4.2-7,6.7-15.1,5.9-23.2c-0.3,0.8-0.6,1.4-0.8,2c0,0.6-0.3,1.4-0.3,2c0,7.3-2.5,14.8-7,20.7c-0.8,1.4-1.1,1.7-2,2.2
								s-1.7,0.8-2.8,1.1c-2.2,0.6-4.8,0.8-7.3,0.8c-5,0-9.8-0.3-14.3-1.1c-4.8-0.8-9.2-2-13.4-3.4c-1.4,0-2.8-0.3-4.2-0.3
								c-9.8-0.6-19.6-1.1-29.4-0.3c-9.8,0.8-19.3,2.5-28.8,4.2c-3.9,1.1-8.1,2-12.3,2.8c-4.2,0.6-8.4,1.1-12,0.6
								c-1.7-0.3-3.6-0.8-4.8-1.7c-0.6-0.3-1.4-1.1-2-1.7c-0.6-0.6-1.1-1.4-1.7-2.2c-2-3.1-3.1-7-3.4-10.9c0.6,3.6,1.7,7.3,3.4,10.1
								l1.4,2c0.6,0.6,1.1,1.1,1.7,1.7c0.6,0.3,1.1,0.8,1.7,1.1c0.8,0.3,1.4,0.6,2.2,0.6c-0.8,0-1.4-0.6-2.2-0.8l-0.8-0.6
								c-0.3-0.3-0.6-0.3-0.8-0.8c-1.1-1.1-2.2-2.5-3.1-4.2c-1.7-3.4-2.5-7.3-3.1-11.5c-0.3-3.6-0.6-7.3-0.3-10.9
								c0-2,0.3-3.6,0.3-5.3c0-0.3,0-0.6,0-0.8v-0.3v-0.3l0,0c0-0.3,0-0.8,0.6-1.1c0.3,0,0.3-0.3,0.6-0.3s0.8,0,1.1-0.3
								c0.8,0,1.7-0.3,2.8-0.3c6.7-0.3,13.2-0.3,19.9-1.1c0.8,0,0.8,0.6,2.5,0.8c-5.3,0-9.5,0.3-13.2,1.1c4.5-0.3,9.2-0.6,14-0.8
								c9-0.3,16.2,0.3,24.6,0.8h2.5c4.5,0,9-0.6,13.2-0.8c-1.7,0-3.6,0-5.6,0c2.8-0.3,6.7-0.3,9.5-0.3c-1.4,0-2.5,0.3-3.9,0.3
								c4.2,0,8.4,0,13.2,0.3c-5.6,0-11.2,0.3-16,0.6c10.4,0,19.6-0.3,30,0.3H299c14.3-0.8,28.6-2.2,44.2-3.1
								c7.6-0.3,8.7-3.9,6.7-3.9c-33,1.1-64.4,0.6-96.6,0.6c3.6,0.6,7.3,0.8,10.9,1.4c1.7,0,3.1,0.3,4.5,0.6l-4.5-0.6
								c-4.2-0.3-9.2-0.3-13.7-0.6c-0.8-0.3-3.6-0.3-4.8,0.3c-6.4-0.6-14,0-20.4-0.6c-0.3,0-1.1-0.3-1.7-0.6c-3.9,0-8.1,0-12.3,0.3
								c-3.1,0-6.2,0-9.2,0.3c-5.3-1.7-4.2,4.8-5,7.6c-0.6,5.6-0.6,11.5,0,17.1c0.6,5.6,2,11.5,5.6,16.5c1.7,2.5,3.9,4.8,7,6.2
								l2.2,0.8l2.2,0.6c1.4,0.3,2.8,0.3,4.5,0.6c-2.8-0.3-5.6-0.8-8.1-2c-1.4-0.6-2.2-1.4-3.4-2.2c-0.8-1.1-1.7-2-2.2-3.1
								c-1.7-2.8-3.9-7.3-5.3-12.9c-1.1-5.6-1.7-11.8-1.4-17.4c0-1.4,0.3-2.5,0.6-3.6c0.3-1.1,0.6-2.5,0.8-3.9c0,2.8,0,5.6,0,8.1
								c0,2.8,0,5.6,0,8.4c0.3,5.9,1.1,11.8,3.6,16.8c1.7,3.1,4.5,6.7,8.4,8.1c4.2,1.4,8.7,1.4,13.4,0.8c9.2-0.8,18.2-2.8,26-4.8
								c6.4-1.7,12.9-1.7,18.2-1.1c-2,0.6-5.6,0.8-7.6,1.1c-8.4,0.8-16.5,2.2-24.6,3.6c-4.2,0.8-8.4,1.4-12.6,2
								c-4.2,0.6-8.7,0.8-12.9-0.6c4.5,1.4,9,1.4,13.4,0.8c4.5-0.3,8.7-1.1,12.9-1.7c8.4-1.4,16.8-2.8,25.5-3.1
								c-10.1,1.1-19.9,2-29.4,4.8c0.8,0,1.7,0,2.5,0c6.7-1.1,13.4-2,19.9-2.5c2-0.6,3.9-1.1,5.9-1.4c8.7-2.2,19-2.2,29.7-1.1
								c10.6,0.8,21.3,3.1,32.5,3.6c1.7,0.3,4.8-0.3,7.6-0.8c-7.3,0.3-14-1.1-21-1.7c2.8,0.6,5.3,1.1,7.8,2
								c-6.7-0.6-11.8-2.2-18.2-2.5c3.6,0,7,0.6,10.4,0.8c-4.2-0.8-8.4-1.4-12.9-2c8.7,0,16.2,3.1,24.9,2.5c-2,0-3.6-0.3-5.6-0.6
								c2,0.3,3.6,0.3,5.6,0.6l0,0c5.6,0.3,11.5,0.3,16.2-2c-4.5,1.7-9.2,1.1-13.7,0.8c-4.5-0.6-9-1.1-13.7-1.7l-4.8-0.3
								c1.7,0,3.1,0.3,4.8,0.3c5.3,0.6,10.6,1.1,16.2,1.4c2.8,0,5.3,0,7.8-0.3c2.5-0.3,5.3-1.1,6.7-3.1c3.1-4.2,5.9-9.2,7.6-14.3
								c1.7-5,2.5-10.6,2-16l-0.3-2c-0.3,0.6-0.3,1.4-0.6,2c0.8,8.7-1.7,17.6-6.2,25.2c-0.6,0.8-1.1,2-1.7,2.8c-0.6,0.8-1.1,2-2,2.5
								c-1.4,1.1-3.4,2-5.3,2.2C332.6,291.2,328.4,290.9,324,290.4z"/>
						</g>
					</g>
				</g>
			</g>
		</g>
	</g>
	<g>
		<path fill="#86604E" d="M207.2,282.8h140c0,0-21,54-70,49C228.2,326.5,207.2,282.8,207.2,282.8z"/>
		<g>
			<g>
				<g>
					<g opacity="0.8">
						<g opacity="0.8">
							<path fill="#EEE8E6" d="M242.8,315.3c7.8,4.5,16.2,8.7,24.9,10.9c2.2,0.6,4.5,0.8,6.4,1.4c1.1,0.3,2.2,0.3,3.4,0.6
								c1.1,0,2.2,0,3.1,0.3c4.2,0,8.1-0.3,11.8-1.4c1.7-0.3,3.1-1.1,4.8-1.7l-2.5,0.3c-4.8,0.6-9.5,0.8-14.6,0.3
								c-2.5-0.3-5-0.8-7.6-1.1c-1.1-0.3-2.5-0.6-3.6-0.8l-3.6-1.1c-9.8-2.8-19-7.3-27.2-13.2c-5-3.4-10.1-7.3-14.8-11.8
								c-4.8-4.5-9-9.8-12.3-16c-0.6-1.4-1.7-1.1-2-1.1c0,1.4,0.3,2.8,0.3,4.2c6.4,9.8,14.8,18.2,24.1,25.8c1.4,1.4,3.4,2.2,5,3.1
								C240.2,314.2,241.9,314.7,242.8,315.3z"/>
							<path fill="#E6DEDB" d="M209.2,284.2L209.2,284.2c0.3,0.8,0.6,1.1,1.1,1.7C210,285.6,209.7,285,209.2,284.2z"/>
							<path fill="#ECE6E3" d="M228.2,305.8c1.4,1.4,3.1,2.5,4.5,3.6l2.2,1.7l2.2,1.7c2.2,1.1,4.5,2,5.6,2.8
								c7.8,4.5,16.2,8.7,24.9,10.9c2.2,0.6,4.5,0.8,6.4,1.4c1.1,0.3,2.2,0.3,3.4,0.6c1.1,0,2.2,0,3.1,0.3c4.2,0,8.1-0.3,11.8-1.4
								c1.7-0.3,3.1-1.1,4.8-1.7l-2.8,0.6c-6.7,0.8-13.4,0.6-20.2-0.8c-0.3,0-0.8,0-1.1,0c-3.9,0-7.3-1.7-10.9-2.8
								c-10.4-2.8-18.2-7.8-26.9-14.3c-3.1-2.2-6.7-4.2-10.1-7.8c-1.1-1.1-2.2-2.2-3.1-3.4c-4.2-4.2-8.1-9.2-11.2-15.1
								c-0.6-1.4-1.4-1.1-2-1.1c0,0.8,0,1.4,0,2.2c2.5,4.8,5.6,9.2,9,13.4c3.1,3.6,6.7,7,10.4,10.1C228.5,306,228.5,306,228.2,305.8
								z"/>
							<path fill="#E6DEDB" d="M227.6,306.9c0.6,0.6,1.4,0.6,0.8-0.6c-3.6-3.4-7-6.4-10.4-10.1c0.8,0.8,1.4,1.7,2.2,2.8
								c0.8,0.8,1.7,1.7,2.2,2.8C224.3,303.5,226,305.2,227.6,306.9z"/>
							<path fill="#F4F0EE" d="M224.8,308.8c7,7,15.4,11.5,22.4,15.7c3.6,2.2,7.3,4.2,10.6,6.4c1.4,0.6,2.8,0.8,3.9,1.1
								c2,0.6,4.2,1.1,6.2,1.4l6.4,0.8c4.2,0.6,8.7,0.6,12.9,0.3c8.7-0.6,17.1-3.1,24.9-7.3c7.6-3.9,14.3-9.5,20.2-15.7
								c5.9-6.2,10.6-12.9,15.1-20.2c1.7-2.8,3.4-6.4,4.5-9.5l2-4.8c0.3-0.3,0-0.3-0.3-0.3h-0.6H352h-2.5h-2.5h-2.8h-5.3
								c-2,0-3.9,0.3-5.9,0.3c-7.8,0.6-15.7,1.1-23.8,1.7c-9.8,0.3-17.6-0.8-27.2-1.4c-23.8-1.7-44.2,2-68.6,3.1
								c-6.4,0.3-7.3,3.9-5.9,3.9c40.6-1.4,79.2,0,119.8-0.8c3.9,0,7.8,0,11.8-0.3h3.6h0.8h0.6h0.3c0,0,0,0,0,0.3l-0.8,1.7
								c-0.6,1.1-1.1,2-1.7,3.4c-0.8,1.4-1.7,3.1-2.8,4.8c-2,3.1-4.2,6.2-6.4,9c-4.5,5.6-10.1,10.6-16,14.6c-3.1,2-6.2,3.6-9.2,5
								c-3.1,1.4-6.4,2.2-9.8,3.1c-1.7,0.6-3.1,1.4-4.8,1.7c-3.6,1.1-7.6,1.7-11.8,1.4c-1.1,0-2.2,0-3.1-0.3
								c-1.1-0.3-2.2-0.3-3.4-0.6c-2.2-0.3-4.5-0.6-6.4-1.4c-8.7-2.2-17.1-6.2-24.9-10.9c-1.1-0.6-2.5-1.1-4.2-2
								c-1.7-0.8-3.6-1.7-5-3.1c-9.2-7.6-17.6-15.7-24.1-25.8c0,2.8,0,5,0.8,7.6C214.8,298.2,220.1,303.5,224.8,308.8z"/>
							<path fill="#E5DDD9" d="M224.8,308.8c-5-5.3-10.1-10.4-14.8-16.2c0.3,1.4,0.8,2.5,1.7,3.9c4.8,7.8,11.5,15.1,19.6,21
								c8.1,5.9,17.4,10.4,26.6,13.2c-3.4-2.2-7-4.2-10.6-6.4C240.5,320,231.8,315.8,224.8,308.8z"/>
							<path fill="#ECE6E3" d="M224.8,308.8c-4.8-5-9.8-10.1-14.3-15.4c1.4,2,2.5,4.2,4.2,5.9c7.6,9.8,17.6,17.9,28,24.9
								c-11.8-6.7-21.8-15.7-30.5-26c4.8,7.6,11.8,14.6,19.6,20.2c7.8,5.6,16.8,10.1,25.8,12.6c-3.4-2.2-7-4.2-10.6-6.4
								C240.5,320,231.8,315.8,224.8,308.8z"/>
							<path fill="#E3DAD6" d="M241.1,320.3c-3.1-2-6.2-4.2-9-6.4c-2.8-2.5-5.6-4.8-8.1-7.6c-5.3-5.3-10.1-10.9-14.6-17.1
								c0,0.8,0.3,1.4,0.3,2.2c0.3,0.6,0.6,1.1,0.8,1.7c4.5,5.6,9.5,10.6,14.3,15.4c7,7,15.4,11.5,22.4,15.7
								c3.6,2.2,7.3,4.2,10.6,6.4c1.1,0.6,2.5,0.6,3.6,1.1c2.2,0.6,4.2,1.1,6.4,1.4l6.4,0.8c4.2,0.6,8.7,0.6,13.2,0.3
								c9-0.6,17.6-3.4,25.2-7.6c12.9-8.1,24.1-20.4,32.5-33.3c-3.6,6.4-7.8,12.3-12.9,17.9c5.6-5.9,10.4-12.6,14.6-19.6
								c0.6-1.1,1.4-2.5,2-3.9s1.4-2.8,2-4.2c0.6-1.4,1.1-2.8,1.7-3.9l0.8-2l0.3-0.6c0-0.3,0.3-0.3,0-0.3h-1.1
								c-2.8,0-5.6-0.3-8.7-0.3h-4.5h-2.8c-1.4,0.8-3.4,1.4-7.3,1.7c-5.6,0.3-11.5,0.3-17.1,1.1c-0.8,0-0.6-0.6-2.2-0.8
								c4.5,0,8.1-0.3,11.5-1.1c-3.9,0.3-8.1,0.6-12,0.8c-7.6,0.3-14.3-0.3-21.3-0.8h-2.2c-3.9,0-7.6,0.6-11.5,0.8
								c1.7,0,3.1,0,4.8,0c-2.5,0.3-5.6,0.3-8.1,0.3c1.1,0,2.2-0.3,3.4-0.3c-3.6,0-7.3,0-11.2-0.3c4.8,0,9.8-0.3,14-0.6
								c-9,0-17.1,0.3-25.8-0.3h0.6c-12.3,0.8-24.6,2.2-38.4,3.1c-6.4,0.3-7.3,3.9-5.9,3.9c28.6-1.1,55.7-0.6,83.4-0.6l-9.5-1.4
								c-1.4,0-2.8-0.3-3.9-0.6l3.9,0.6c3.6,0.3,7.8,0.3,12,0.6c0.8,0.3,3.1,0.3,4.2-0.3c5.6,0.6,12,0,17.6,0.6
								c0.3,0,0.8,0.3,1.4,0.6c3.4,0,7,0,10.6-0.3c4.5,0,9-0.3,13.2-0.3h2.2h0.6h0.3l0,0l0,0l-0.6,1.1c-0.6,1.4-1.1,2.5-2,4.2
								c-4.5,8.1-10.1,15.7-16.8,21.8c3.4-2.8,6.4-5.6,9.5-8.4c2-2,4.5-5.3,6.7-9.5c0.6-1.1,1.1-2.2,1.7-3.4c0.6-1.1,0.8-2,1.4-2.8
								c0.3-0.8,0.8-2,1.1-2.8l0.3-0.6v-0.3v-0.3c-0.6,0-1.1,0-1.7,0c-2,0.3-2.8-0.6-5-0.6c2-0.6,4.5-0.8,7.3-0.8h1.1h0.6h0.3v0.3
								c-0.3,0.6-0.6,1.1-0.8,1.7c-0.6,1.1-1.1,2.5-1.7,3.6c-1.4,2.5-2.5,4.8-3.9,6.7c-1.4,2.2-2.8,4.2-4.2,6.2
								c-3.6,5.3-9,11.2-15.1,16c-6.2,5-13.2,9-19.6,11.8c-5.3,2.5-10.9,2.5-15.7,2c0.8-0.3,2-0.6,3.1-0.6c1.1-0.3,2.2-0.3,3.1-0.6
								c14-2,26.9-10.1,36.4-21c-5.3,5.3-10.9,9.8-17.4,13.4c-6.2,3.6-13.2,5.9-20.4,6.4c8.4-1.1,16.5-3.6,22.7-9
								c-0.6,0.3-1.4,0.6-2,0.8c-4.8,2.8-10.1,4.8-15.4,5.6c-1.7,0.6-3.1,1.4-4.8,1.7c-3.6,1.1-7.6,1.7-11.8,1.4
								c-1.1,0-2.2,0-3.1-0.3c-1.1-0.3-2.2-0.3-3.4-0.6c-2.2-0.3-4.5-0.6-6.4-1.4c-8.7-2.2-17.1-6.2-24.9-10.9
								c-1.4-0.8-3.4-1.4-5.6-2.8c4.8,3.6,9.8,6.7,15.1,9.2c-2-1.1-3.9-2.5-5.6-3.9c2.5,1.1,4.8,2.5,6.7,3.6
								c2.2,1.1,4.5,2.2,7.3,3.1c-2.8-0.8-5.6-1.7-8.4-3.1c1.4,0.8,3.4,1.7,5,2.2c1.7,0.8,3.4,1.7,5.3,2c-2-0.3-3.6-0.8-5-1.7
								c-1.7-0.8-3.4-1.4-4.8-2.2c-3.1-1.7-6.2-3.4-9.5-4.8c1.4,0.8,2.5,1.7,3.9,2.5c-1.4-0.6-2.8-1.7-4.2-2.5l0,0l-3.1-1.7l-3.1-2
								c-1.1-0.6-2-1.1-3.1-1.7c-0.8-0.6-2-1.4-2.8-2c1.7,1.4,3.1,2.8,4.8,3.9c1.7,1.1,3.1,2.5,4.8,3.6c1.7,1.1,3.4,2.2,5,3.4
								c1.7,0.8,3.6,2,5.3,2.8c1.1,0.6,2.5,1.1,3.9,1.4c-1.4-0.6-2.5-0.8-3.9-1.4c-8.7-3.6-16.5-9.2-23.2-15.7
								c-6.7-6.7-12.6-14-17.4-22.1c-0.3-0.6-0.6-0.8-0.8-1.4c0,0.6,0,1.1,0,1.7C217.3,299.6,228.2,311.6,241.1,320.3z"/>
						</g>
					</g>
				</g>
			</g>
		</g>
	</g>
	<g>
		<path fill="#86604E" d="M212.8,282.8h140c0,0-21,54-70,49C233.8,326.5,212.8,282.8,212.8,282.8z"/>
		<g>
			<g>
				<g>
					<g opacity="0.8">
						<g opacity="0.8">
							<path fill="#EEE8E6" d="M248.4,315.3c7.8,4.5,16.2,8.7,24.9,10.9c2.2,0.6,4.5,0.8,6.4,1.4c1.1,0.3,2.2,0.3,3.4,0.6
								c1.1,0,2.2,0,3.1,0.3c4.2,0,8.1-0.3,11.8-1.4c1.7-0.3,3.1-1.1,4.8-1.7l-2.5,0.3c-4.8,0.6-9.5,0.8-14.6,0.3
								c-2.5-0.3-5-0.8-7.6-1.1c-1.1-0.3-2.5-0.6-3.6-0.8l-3.6-1.1c-9.8-2.8-19-7.3-27.2-13.2c-5-3.4-10.1-7.3-14.8-11.8
								c-4.8-4.5-9-9.8-12.3-16c-0.6-1.4-1.7-1.1-2-1.1c0,1.4,0.3,2.8,0.3,4.2c6.4,9.8,14.8,18.2,24.1,25.8c1.4,1.4,3.4,2.2,5,3.1
								C245.8,314.2,247.5,314.7,248.4,315.3z"/>
							<path fill="#E6DEDB" d="M214.8,284.2L214.8,284.2c0.3,0.8,0.6,1.1,1.1,1.7C215.6,285.6,215.3,285,214.8,284.2z"/>
							<path fill="#ECE6E3" d="M233.8,305.8c1.4,1.4,3.1,2.5,4.5,3.6l2.2,1.7l2.2,1.7c2.2,1.1,4.5,2,5.6,2.8
								c7.8,4.5,16.2,8.7,24.9,10.9c2.2,0.6,4.5,0.8,6.4,1.4c1.1,0.3,2.2,0.3,3.4,0.6c1.1,0,2.2,0,3.1,0.3c4.2,0,8.1-0.3,11.8-1.4
								c1.7-0.3,3.1-1.1,4.8-1.7l-2.8,0.6c-6.7,0.8-13.4,0.6-20.2-0.8c-0.3,0-0.8,0-1.1,0c-3.9,0-7.3-1.7-10.9-2.8
								c-10.4-2.8-18.2-7.8-26.9-14.3c-3.1-2.2-6.7-4.2-10.1-7.8c-1.1-1.1-2.2-2.2-3.1-3.4c-4.2-4.2-8.1-9.2-11.2-15.1
								c-0.6-1.4-1.4-1.1-2-1.1c0,0.8,0,1.4,0,2.2c2.5,4.8,5.6,9.2,9,13.4c3.1,3.6,6.7,7,10.4,10.1C234.1,306,234.1,306,233.8,305.8
								z"/>
							<path fill="#E6DEDB" d="M233.2,306.9c0.6,0.6,1.4,0.6,0.8-0.6c-3.6-3.4-7-6.4-10.4-10.1c0.8,0.8,1.4,1.7,2.2,2.8
								c0.8,0.8,1.7,1.7,2.2,2.8C229.9,303.5,231.6,305.2,233.2,306.9z"/>
							<path fill="#F4F0EE" d="M230.4,308.8c7,7,15.4,11.5,22.4,15.7c3.6,2.2,7.3,4.2,10.6,6.4c1.4,0.6,2.8,0.8,3.9,1.1
								c2,0.6,4.2,1.1,6.2,1.4l6.4,0.8c4.2,0.6,8.7,0.6,12.9,0.3c8.7-0.6,17.1-3.1,24.9-7.3c7.6-3.9,14.3-9.5,20.2-15.7
								c5.9-6.2,10.6-12.9,15.1-20.2c1.7-2.8,3.4-6.4,4.5-9.5l2-4.8c0.3-0.3,0-0.3-0.3-0.3h-0.6h-1.1H355h-2.5h-2.8h-5.3
								c-2,0-3.9,0.3-5.9,0.3c-7.8,0.6-15.7,1.1-23.8,1.7c-9.8,0.3-17.6-0.8-27.2-1.4c-23.8-1.7-44.2,2-68.6,3.1
								c-6.4,0.3-7.3,3.9-5.9,3.9c40.6-1.4,79.2,0,119.8-0.8c3.9,0,7.8,0,11.8-0.3h3.6h0.8h0.6h0.3c0,0,0,0,0,0.3l-0.8,1.7
								c-0.6,1.1-1.1,2-1.7,3.4c-0.8,1.4-1.7,3.1-2.8,4.8c-2,3.1-4.2,6.2-6.4,9c-4.5,5.6-10.1,10.6-16,14.6c-3.1,2-6.2,3.6-9.2,5
								c-3.1,1.4-6.4,2.2-9.8,3.1c-1.7,0.6-3.1,1.4-4.8,1.7c-3.6,1.1-7.6,1.7-11.8,1.4c-1.1,0-2.2,0-3.1-0.3
								c-1.1-0.3-2.2-0.3-3.4-0.6c-2.2-0.3-4.5-0.6-6.4-1.4c-8.7-2.2-17.1-6.2-24.9-10.9c-1.1-0.6-2.5-1.1-4.2-2
								c-1.7-0.8-3.6-1.7-5-3.1c-9.2-7.6-17.6-15.7-24.1-25.8c0,2.8,0,5,0.8,7.6C220.4,298.2,225.7,303.5,230.4,308.8z"/>
							<path fill="#E5DDD9" d="M230.4,308.8c-5-5.3-10.1-10.4-14.8-16.2c0.3,1.4,0.8,2.5,1.7,3.9c4.8,7.8,11.5,15.1,19.6,21
								c8.1,5.9,17.4,10.4,26.6,13.2c-3.4-2.2-7-4.2-10.6-6.4C246.1,320,237.4,315.8,230.4,308.8z"/>
							<path fill="#ECE6E3" d="M230.4,308.8c-4.8-5-9.8-10.1-14.3-15.4c1.4,2,2.5,4.2,4.2,5.9c7.6,9.8,17.6,17.9,28,24.9
								c-11.8-6.7-21.8-15.7-30.5-26c4.8,7.6,11.8,14.6,19.6,20.2s16.8,10.1,25.8,12.6c-3.4-2.2-7-4.2-10.6-6.4
								C246.1,320,237.4,315.8,230.4,308.8z"/>
							<path fill="#E3DAD6" d="M246.7,320.3c-3.1-2-6.2-4.2-9-6.4c-2.8-2.5-5.6-4.8-8.1-7.6c-5.3-5.3-10.1-10.9-14.6-17.1
								c0,0.8,0.3,1.4,0.3,2.2c0.3,0.6,0.6,1.1,0.8,1.7c4.5,5.6,9.5,10.6,14.3,15.4c7,7,15.4,11.5,22.4,15.7
								c3.6,2.2,7.3,4.2,10.6,6.4c1.1,0.6,2.5,0.6,3.6,1.1c2.2,0.6,4.2,1.1,6.4,1.4l6.4,0.8c4.2,0.6,8.7,0.6,13.2,0.3
								c9-0.6,17.6-3.4,25.2-7.6c12.9-8.1,24.1-20.4,32.5-33.3c-3.6,6.4-7.8,12.3-12.9,17.9c5.6-5.9,10.4-12.6,14.6-19.6
								c0.6-1.1,1.4-2.5,2-3.9s1.4-2.8,2-4.2c0.6-1.4,1.1-2.8,1.7-3.9l0.8-2l0.3-0.6c0-0.3,0.3-0.3,0-0.3h-1.1
								c-2.8,0-5.6-0.3-8.7-0.3H345h-2.8c-1.4,0.8-3.4,1.4-7.3,1.7c-5.6,0.3-11.5,0.3-17.1,1.1c-0.8,0-0.6-0.6-2.2-0.8
								c4.5,0,8.1-0.3,11.5-1.1c-3.9,0.3-8.1,0.6-12,0.8c-7.6,0.3-14.3-0.3-21.3-0.8h-2.2c-3.9,0-7.6,0.6-11.5,0.8
								c1.7,0,3.1,0,4.8,0c-2.5,0.3-5.6,0.3-8.1,0.3c1.1,0,2.2-0.3,3.4-0.3c-3.6,0-7.3,0-11.2-0.3c4.8,0,9.8-0.3,14-0.6
								c-9,0-17.1,0.3-25.8-0.3h0.6c-12.3,0.8-24.6,2.2-38.4,3.1c-6.4,0.3-7.3,3.9-5.9,3.9c28.6-1.1,55.7-0.6,83.4-0.6l-9.5-1.4
								c-1.4,0-2.8-0.3-3.9-0.6l3.9,0.6c3.6,0.3,7.8,0.3,12,0.6c0.8,0.3,3.1,0.3,4.2-0.3c5.6,0.6,12,0,17.6,0.6
								c0.3,0,0.8,0.3,1.4,0.6c3.4,0,7,0,10.6-0.3c4.5,0,9-0.3,13.2-0.3h2.2h0.6h0.3l0,0l0,0l-0.6,1.1c-0.6,1.4-1.1,2.5-2,4.2
								c-4.5,8.1-10.1,15.7-16.8,21.8c3.4-2.8,6.4-5.6,9.5-8.4c2-2,4.5-5.3,6.7-9.5c0.6-1.1,1.1-2.2,1.7-3.4c0.6-1.1,0.8-2,1.4-2.8
								c0.3-0.8,0.8-2,1.1-2.8l0.3-0.6v-0.3v-0.3c-0.6,0-1.1,0-1.7,0c-2,0.3-2.8-0.6-5-0.6c2-0.6,4.5-0.8,7.3-0.8h1.1h0.6h0.3v0.3
								c-0.3,0.6-0.6,1.1-0.8,1.7c-0.6,1.1-1.1,2.5-1.7,3.6c-1.4,2.5-2.5,4.8-3.9,6.7c-1.4,2.2-2.8,4.2-4.2,6.2
								c-3.6,5.3-9,11.2-15.1,16c-6.2,5-13.2,9-19.6,11.8c-5.3,2.5-10.9,2.5-15.7,2c0.8-0.3,2-0.6,3.1-0.6c1.1-0.3,2.2-0.3,3.1-0.6
								c14-2,26.9-10.1,36.4-21c-5.3,5.3-10.9,9.8-17.4,13.4c-6.2,3.6-13.2,5.9-20.4,6.4c8.4-1.1,16.5-3.6,22.7-9
								c-0.6,0.3-1.4,0.6-2,0.8c-4.8,2.8-10.1,4.8-15.4,5.6c-1.7,0.6-3.1,1.4-4.8,1.7c-3.6,1.1-7.6,1.7-11.8,1.4
								c-1.1,0-2.2,0-3.1-0.3c-1.1-0.3-2.2-0.3-3.4-0.6c-2.2-0.3-4.5-0.6-6.4-1.4c-8.7-2.2-17.1-6.2-24.9-10.9
								c-1.4-0.8-3.4-1.4-5.6-2.8c4.8,3.6,9.8,6.7,15.1,9.2c-2-1.1-3.9-2.5-5.6-3.9c2.5,1.1,4.8,2.5,6.7,3.6
								c2.2,1.1,4.5,2.2,7.3,3.1c-2.8-0.8-5.6-1.7-8.4-3.1c1.4,0.8,3.4,1.7,5,2.2c1.7,0.8,3.4,1.7,5.3,2c-2-0.3-3.6-0.8-5-1.7
								c-1.7-0.8-3.4-1.4-4.8-2.2c-3.1-1.7-6.2-3.4-9.5-4.8c1.4,0.8,2.5,1.7,3.9,2.5c-1.4-0.6-2.8-1.7-4.2-2.5l0,0l-3.1-1.7l-3.1-2
								c-1.1-0.6-2-1.1-3.1-1.7c-0.8-0.6-2-1.4-2.8-2c1.7,1.4,3.1,2.8,4.8,3.9s3.1,2.5,4.8,3.6c1.7,1.1,3.4,2.2,5,3.4
								c1.7,0.8,3.6,2,5.3,2.8c1.1,0.6,2.5,1.1,3.9,1.4c-1.4-0.6-2.5-0.8-3.9-1.4c-8.7-3.6-16.5-9.2-23.2-15.7
								c-6.7-6.7-12.6-14-17.4-22.1c-0.3-0.6-0.6-0.8-0.8-1.4c0,0.6,0,1.1,0,1.7C222.9,299.6,233.8,311.6,246.7,320.3z"/>
						</g>
					</g>
				</g>
			</g>
		</g>
	</g>
	<g>
		<g>
			<g>
				<g>
					<g opacity="0.8">
						<g opacity="0.8">
							<path fill="#FFFFFF" d="M365.1,341.9c-14,0.6-28.8-3.6-40.6,0.6c-1.4,0.3-2.8,0.8-3.9,1.4c0.6,0,1.4,0.3,2,0.3
								c15.4,2.5,32.5,3.4,48.4,2.2c9.8-1.4,19.9-4.2,30.8-3.9c1.1,0,1.4-1.7,1.4-2.5c-1.1-1.1-2-2.2-2.8-3.6
								c-9,0.8-17.6,2.5-26.9,2.5C370.4,339.1,367.1,341.9,365.1,341.9z"/>
							<path fill="#FFFFFF" d="M400.4,336.8C400.4,336.8,400.4,336.6,400.4,336.8c-0.6-0.3-1.1-0.3-1.4,0
								C399.6,336.8,400.1,336.8,400.4,336.8z"/>
							<path fill="#FFFFFF" d="M378.8,339.4c-3.1,0.6-5.9,0.6-8.7,0.6c-2,0.8-3.6,2-4.8,2c-14,0.6-28.8-3.6-40.6,0.6
								c-1.4,0.3-2.5,0.8-3.9,1.4c0.8,0,1.4,0.3,2.2,0.3c5.3,0.8,10.9,1.7,16.5,2c0.3,0,0.6-0.3,0.8-0.3c3.1-1.1,6.2,0.3,9,0.6
								c8.7-0.8,15.7,0.3,24.4-0.6c3.1-0.3,6.2-2.2,9.8-2.2c1.1,0,2.5,0,3.6,0.3c4.8-0.8,9.5-1.4,14.6-1.1c1.1,0,1.4-1.7,1.4-2.5
								c-0.6-0.6-1.1-1.1-1.7-2c-4.2-0.3-8.1-0.3-12.3-0.3c-3.6,0.6-7.3,0.8-10.9,1.1C378.3,339.1,378.6,339.4,378.8,339.4z"/>
							<path fill="#FFFFFF" d="M378.6,336.8c-0.6,0-1.1,1.1-0.3,2.2c3.6-0.3,7.3-0.6,10.9-1.1C385.6,337.7,382.2,337.7,378.6,336.8z
								"/>
							<path fill="#FFFFFF" d="M379.1,330.7c-7.3-0.8-14,1.4-19.9,0c-3.1-0.8-6.2-2-9-3.6c-1.1,0-2,0-3.1,0c-24.4,1.4-48.7,2-72.8,0
								c-12-0.6-23.2,2.5-35.6,4.5c-7.3,0.6-13.2-1.4-20.4-2.8c-17.9-3.6-33.3,3.9-51.5,6.4c-5,0.6-5.6,7.6-4.5,7.8
								c30.5-2.8,59.4,0.3,89.9-1.7c23.8-1.4,45.9-0.3,68,3.1c1.4-0.6,2.8-0.8,3.9-1.4c12-4.2,26.6,0,40.6-0.6c1.7,0,5-2.8,8.1-2.8
								c9.2,0,17.9-1.7,26.9-2.5c-1.7-2.5-3.4-5.3-5-7C389.8,330.4,384.2,331.5,379.1,330.7z"/>
							<path fill="#FFFFFF" d="M379.1,330.7c5.3,0.8,10.6,0,16.2-1.1c-0.8-0.8-2-1.7-3.1-2.2c-13.2-3.9-28-1.1-42-0.6
								c2.8,1.7,5.6,3.1,9,3.6C364.8,332.1,371.8,329.8,379.1,330.7z"/>
							<path fill="#FFFFFF" d="M379.1,330.7c5,0.8,10.1,0,15.4-1.1c-1.7-0.3-3.6-0.6-5.3-0.8c-9-0.6-18.2,0-27.2-1.7
								c9.5,0,19.3,0.3,28.8-0.3c-12.9-3.4-27.4-0.6-40.6,0c2.8,1.7,5.6,3.1,8.7,3.6C364.8,332.1,371.8,329.8,379.1,330.7z"/>
							<path fill="#FFFFFF" d="M364.3,331.5c10.9,0.8,21.8,1.4,32.8,0.3c-0.6-0.6-0.8-1.4-1.4-2c-0.6,0-0.8-0.3-1.4-0.3
								c-5,0.8-10.4,1.7-15.4,1.1c-7.3-0.8-14,1.4-19.9,0c-3.1-0.8-6.2-2-8.7-3.6c-0.8,0-2,0-2.8,0c-12.6,0.8-24.9,1.1-37.2,1.4
								c-10.6,2.2-22.4,1.7-33.9,0c5.3,0,10.6,0,16-0.3c-5.9-0.3-11.8-0.6-17.6-1.1c-5-0.3-10.1,0.3-15.1,0.8
								c-1.1,1.7-2.5,3.1-5.3,3.4c-4.2,0.6-8.4,0.6-12.9,2c-0.6,0-0.6-1.4-1.7-1.4c3.4,0.3,6.2-0.8,8.7-2.2
								c-3.1,0.6-5.9,1.1-9.2,1.7c-5.9,0.3-10.6-0.8-16-2c-0.6,0-1.1,0-1.7,0.3c-2.8,0.3-5.6,0.8-8.7,1.7c1.1,0,2.2,0,3.6,0.3
								c-2,0.8-4.2,0.6-6.2,0.6c0.8-0.3,1.7-0.6,2.5-0.8c-2.8,0-5.6-0.3-8.4-0.3c3.6,0.3,7.3-0.6,10.4-1.1c-6.7,0-12.9,0.6-19.3-0.6
								c0.3,0,0.3-0.3,0.6-0.3c-9.2,1.7-18.5,4.5-28.8,5.9c-5,0.6-5.6,7.6-4.5,7.8c21.3-2,42-1.1,62.7-1.1c-2.2-0.8-4.8-2-7-2.8
								c-1.1-0.3-2-0.6-3.1-1.1c1.1,0.3,2,0.8,3.1,1.1c2.8,0.6,5.9,0.6,9,1.4c0.6,0.6,2.2,0.6,3.1-0.8c4.2,1.1,9.2,0,13.2,1.1
								c0.3,0,0.6,0.3,1.1,0.8c2.5,0,5.3-0.3,7.8-0.3c14.8-0.8,29.1-0.8,43.1,0.3c-3.4-0.8-6.7-1.7-9.5-3.1
								c-4.2-2-12.6-0.3-20.2,0.3c-2,0.3-2.8-1.1-4.8-1.1c6.4-3.6,14.6-1.1,22.1-1.7c9.8-0.3,23.5,2.8,33.9,0.3
								c4.5-1.1,8.4,0.3,12,2c-1.4,0.8-3.6,0.8-5,0.6c-10.9-0.6-21.8-1.1-32.8-0.8c11.5,2,22.4,1.1,33.6,3.4c-6.7,0-13.2-2-19.3,0
								c0.6,0.3,1.1,0.6,1.7,0.8c4.5,0.6,8.7,1.1,13.2,1.7c1.4-0.6,2.8-0.8,3.9-1.4c12-4.2,26.6,0,40.6-0.6c1.1,0,2.8-1.1,4.8-2
								c-4.5-0.3-9-0.8-13.4-0.8c1.7,0.6,3.6,1.1,5,2c-4.2,0.3-7.8-1.7-12-1.4c2.2-0.3,4.5-0.6,6.7-0.6c-2.8-0.6-5.6-0.8-8.4-1.4
								c5.6-1.4,10.6,2.2,16.2,0c-1.1,0-2.2,0-3.6-0.3c1.1,0,2.5,0,3.6,0.3l0,0c3.6,0,7.3-0.8,10.6-1.7c-6.2,0-12-1.7-17.9-1.7
								c-1.1,0-2,0-3.1,0.3c1.1,0,2-0.3,3.1-0.3c14-0.8,28.3,1.4,42.3,2.2c0.6,0,0.8,0,1.4-0.3c-0.3-0.6-0.8-1.1-1.1-1.7
								C387.5,334.3,375.8,333.2,364.3,331.5z"/>
						</g>
					</g>
				</g>
			</g>
		</g>
	</g>
	<g>
		<path fill="#FFFFFF" d="M320,353.6h-82.9c-4.5,0-8.4-3.9-8.4-8.4v-8.7c0-4.5,3.9-8.4,8.4-8.4h83.2c4.5,0,8.4,3.9,8.4,8.4v8.7
			C328.4,350,324.8,353.6,320,353.6z"/>
		<g>
			<g>
				<g>
					<g opacity="0.8">
						<g opacity="0.8">
							<path fill="#FFFFFF" d="M317.8,331.2c-13.7,0.3-28.3-1.7-40,0.3c-1.4,0.3-2.5,0.6-3.9,0.6l2,0.3c7.6,0.6,15.7,1.1,23.5,1.1
								c3.9,0,8.1,0.3,12,0c2,0,3.9,0,5.9,0h2.8c0.3,0,0.8,0,1.1,0.3c0.8,0.3,1.7,0.8,2.2,1.7c0,0.3,0.3,0.6,0.3,0.8
								c0,0.3,0,0.3,0,0.6v0.8l0.3,3.6l0.3,3.6c0,0.8,0,1.4-0.3,2.2c-0.6,1.4-2,2.5-3.4,2.8c-0.6,0-0.8,0.8-0.8,1.4
								c0.8,0.6,1.7,1.1,2.8,1.4c2-0.8,3.4-2.5,4.2-4.2c0.3-0.8,0.6-2,0.6-2.8l-0.3-3.4c0-2.2-0.3-4.2-0.3-6.4
								c-0.3-1.7-1.1-3.4-2.5-4.8c-0.8-0.8-2.2-1.1-3.4-0.8C320.3,331,318.6,331.2,317.8,331.2z"/>
							<path fill="#FFFFFF" d="M322.6,352.8L322.6,352.8c0.6,0,0.8-0.3,1.4-0.6C323.4,352.5,323.1,352.8,322.6,352.8z"/>
							<path fill="#FFFFFF" d="M326.5,335.2c-0.8-2.2-2.5-3.9-4.5-4.5c-0.8,0-1.4,0.3-2,0.3c-0.8,0.3-1.4,0.3-2,0.3
								c-13.7,0.3-28.3-1.7-40,0.3c-1.4,0.3-2.5,0.6-3.9,0.6l2.2,0.3c5.3,0.6,10.6,0.8,16.2,1.1c0.3,0,0.6,0,0.8,0
								c3.1-0.6,5.9,0.3,9,0.3c4.2-0.3,8.1-0.3,12-0.3c2,0,3.9,0,5.9,0c0.8,0,1.7,0.3,2.5,0.6c0.6,0.3,1.1,0.8,1.7,1.4
								c0.3,0.3,0.6,0.8,0.6,1.1c0,0.8,0,1.7,0,2.5c0,1.1,0,2.5,0,3.6l0.3,3.1c0,0.6-0.3,1.4-0.6,2c-0.6,1.4-2,2.2-3.4,2.5
								c-0.6,0-0.8,0.8-0.8,1.4c0.3,0.3,0.8,0.6,1.4,0.8c3.6-0.6,6.4-3.9,6.2-7.6l-0.3-5.3v-2.8c0-0.8-0.3-1.4-0.6-2.2
								C326.8,334.6,326.5,334.9,326.5,335.2z"/>
							<path fill="#FFFFFF" d="M327.9,334.3c-0.3-0.6-0.8-0.8-1.1,0.3c0.3,0.8,0.3,1.4,0.6,2.2v2.8l0.3,5.3c0-1.7,0-3.4,0.3-5.3
								C327.9,337.7,328.2,336,327.9,334.3z"/>
							<path fill="#FFFFFF" d="M331,334.3c-0.8-4.8-5.3-8.1-9.5-8.4c-1.1,0-2,0-2.8,0s-1.7,0-2.2,0c-1.7,0-3.1,0-4.5-0.3
								c-3.1-0.3-6.2-1.1-8.7-2c-0.8,0-2,0-2.8,0c-12,0.3-23.8,0.6-35.8,0.6c-5.9,0-11.8,0-17.9,0l-9-0.3h-0.6h-0.8
								c-0.6,0-1.1,0-1.7,0.3c-1.1,0.3-2.2,0.6-3.4,1.1c-2,0.8-3.9,2.5-5,4.2c-1.4,2-2,4.2-2.2,6.4v0.8v0.6v1.1v2.2
								c0,1.4,0.3,2.8,0.3,4.2v1.4c0,0.6,0.3,1.1,0.3,1.7c0.3,1.1,0.6,2,1.1,3.1c2,3.6,6.2,6.2,10.1,6.2c1.1,0,1.7,0,2.5-0.3
								l2.2-0.3c1.4,0,3.1-0.3,4.5-0.3c7.3-0.3,12.9,0.8,19.9,1.4c17.6,1.7,32.8-2,50.7-3.1c4.8-0.3,5.3-3.9,4.2-3.9
								c-15.1,0.8-29.7,0.6-44.2,0.6c-7.3,0-14.6,0-21.8,0c-3.6,0-7.3,0-10.9,0c-2,0-3.6,0-5.6,0c-1.4,0-2.8-0.3-3.9-1.1
								c-0.8-0.6-1.7-1.4-2-2.2c-0.3-0.6-0.3-0.8-0.6-1.4c0-0.6,0-0.8,0-1.7c0-2.8,0-5.9,0-8.4c0-2.2,1.4-4.2,3.4-5
								c0.8-0.6,2-0.8,3.1-0.6h4.2c11.2,0.3,21.8,0.8,32.8,1.7c1.4-0.3,2.8-0.6,3.9-0.6c11.8-2.2,26,0,40-0.3c0.8,0,2.2-0.3,3.1-0.6
								c1.1-0.3,2.5,0,3.4,0.8c1.4,1.1,2.5,2.8,2.5,4.8c0,2.2,0.3,4.2,0.3,6.4l0.3,3.4c0,0.8-0.3,2-0.6,2.8c-0.8,2-2.2,3.4-4.2,4.2
								c2,0.6,4.5,0.6,6.7-0.8c1.1-1.7,1.7-3.4,1.7-5c0-2,0-3.1,0-4.5c0-1.4,0-2.5,0-3.9v-2C331.2,336,331,335.2,331,334.3z"/>
							<path fill="#FFFFFF" d="M331,334.3c0.3,0.8,0.3,1.7,0.3,2.5v2c0,1.4,0,2.5,0,3.9s0.3,2.5,0,4.5c-0.3,1.7-0.8,3.6-1.7,5
								c1.1-0.8,2.2-1.7,2.8-3.4c0.6-1.1,0.6-2.5,0.8-3.6c0-0.8,0.3-1.7,0.3-2.5c0.3-1.7,0.3-3.4,0.3-5c0-0.6,0-2.2-0.3-3.6
								s-0.8-2.8-1.4-3.9c-1.4-2.5-3.6-4.5-6.2-5.6c-1.4-0.6-2.8-1.1-4.2-1.1c-0.6,0-1.4,0-2,0h-1.4l-5.3,0.3
								c-3.4,0.3-7,0.3-10.4,0.3c2.5,0.8,5.6,1.4,8.7,2c1.4,0.3,3.1,0.3,4.5,0.3c0.8,0,1.7,0,2.2,0c0.8,0,1.7,0,2.8,0
								C325.6,326.2,330.1,329.6,331,334.3z"/>
							<path fill="#FFFFFF" d="M331,334.3c0.3,0.8,0.3,1.7,0.3,2.5v2c0,1.1,0,2.5,0,3.6c0,0.6,0,1.1,0,2c0,0.6,0,1.1,0,2.2
								c0,1.7-0.6,3.4-1.4,5c0.6-0.8,1.1-2,1.7-3.4c0.3-0.6,0.3-1.1,0.3-1.7v-0.8v-0.6v-6.7c0-0.6,0-0.8,0-2c0-0.8,0-1.7-0.3-2.5
								c-0.3-1.7-1.1-3.1-2-4.5c-2-2.5-4.8-4.5-8.1-5c-2-0.3-2.8-0.3-3.9-0.3c-1.1,0-2.2-0.3-3.4-0.3h3.6h1.7c0.8,0,1.7,0,2.5,0.3
								c3.6,0.8,6.7,3.1,8.7,6.2c0.8,1.7,1.4,3.4,1.7,5v1.4v0.8v1.7v3.6c0,1.4,0,2,0,4.2c0.3-0.6,0.3-1.1,0.3-1.7v-1.1
								c0-0.8,0.3-1.7,0.3-2.5c0-1.7,0.3-3.4,0.3-5c0.3-5.6-3.4-10.9-8.7-12.9c-1.4-0.6-2.8-0.8-3.9-0.8h-1.1h-0.6h-1.4l-5,0.3
								c-3.4,0-6.7,0.3-10.1,0.3c2.5,0.8,5.6,1.4,8.7,2c1.4,0.3,3.1,0.3,4.5,0.3c0.8,0,1.7,0,2.2,0c0.8,0,1.7,0,2.8,0
								C325.6,326.2,330.1,329.6,331,334.3z"/>
							<path fill="#FFFFFF" d="M317,326.2h2h1.1h1.1c1.7,0.3,3.1,0.8,4.5,1.7c2.8,2,4.5,5,4.5,8.1c0,2.8,0,5.3,0,8.1
								c0,0.6,0,1.4,0,2.2c0,0.8-0.3,1.7-0.6,2.5c-0.6,1.7-1.4,3.1-2.8,4.2c0.6,0,1.4-0.3,2-0.6c0.6-0.6,0.8-0.8,1.1-1.4
								c0.8-1.7,1.1-3.4,1.4-5c0-0.8,0-1.4,0-2.2c0-0.6,0-1.4,0-2c0-1.1,0-2.5,0-3.6v-2c0-0.8,0-1.7-0.3-2.5
								c-0.8-4.8-5.3-8.1-9.5-8.4c-1.1,0-2,0-2.8,0s-1.7,0-2.2,0c-1.7,0-3.1,0-4.5-0.3c-3.1-0.3-6.2-1.1-8.7-2c-0.8,0-2,0-2.8,0
								c-12.3,0.3-24.4,0.6-36.7,0.6c-5.3,0.6-10.9,0.8-16.5,0.8c-2.8,0-5.6,0-8.4-0.3h-2.2c-1.1,0-2,0-3.1,0.3
								c-2,0.6-3.9,1.4-5.3,2.8c1.4-1.4,3.1-2.2,4.8-2.8c0.8-0.3,2-0.6,2.8-0.6h0.8h0.6h1.1c2.5,0,5.3,0,7.8-0.3l-8.7-0.3
								c-0.6,0-2,0-3.1,0.3c-1.1,0.3-2.2,0.6-3.1,0.8c-2,0.8-3.9,2.2-5,4.2c-1.1,1.7-2,3.4-2.2,5.3c0,0.6-0.3,0.8-0.3,1.4v0.8v0.6v2
								c0,1.1,0,2.5,0.3,3.6v2v0.8c0,0.6,0,0.8,0.3,1.4c1.1,1.4,2,3.4,4.5,5.9c2,2,4.5,3.1,7.3,3.1c2.5,0,4.2-0.3,6.4-0.6
								c0.6,0,0.6,0.6,1.7,0.8c-1.7,0-3.1,0-4.5,0.3c-0.6,0-1.4,0.3-2,0.3c-0.3,0-0.6,0.3-0.8,0.3c-0.3,0-0.8,0-1.1,0.3
								c0.6,0,1.1,0,1.4,0h1.1l2.2-0.3c1.4,0,3.1-0.3,4.5-0.3c5.6-0.3,10.4,0.3,15.7,0.8h1.7c2.8,0,5.6-0.6,8.4-0.8
								c-1.1,0-2.2,0-3.6,0c2-0.3,4.2-0.3,5.9-0.3c-0.8,0-1.7,0.3-2.5,0.3c2.8,0,5.3,0,8.4,0.3c-3.6,0-7.3,0.3-10.4,0.6
								c6.4,0,12.6-0.3,19,0.3H287c9.2-0.8,18.2-2.2,28.3-3.1c4.8-0.3,5.6-3.9,4.2-3.9c-21,1.1-41.2,0.6-61.6,0.6
								c2.2,0.6,4.8,0.8,7,1.4c1.1,0,2,0.3,2.8,0.6c-0.8-0.3-2-0.3-2.8-0.6c-2.8-0.3-5.9-0.3-8.7-0.6c-0.6-0.3-2.2-0.3-3.1,0.3
								c-4.2-0.6-9,0-12.9-0.6c-0.3,0-0.6-0.3-1.1-0.6h-2c-0.6,0-0.8,0-1.4,0c-0.8,0-1.7-0.6-2.5-1.1c-1.1-0.8-2-2-2.2-3.1
								c-0.3-0.6-0.3-1.1-0.3-2v-2.8c0-1.7,0-3.6,0-5.3c0-1.4,0.3-2.8,1.1-3.9s2-2,3.1-2.2c0.6-0.3,1.1-0.3,2-0.3h2.5
								c3.4,0,7,0.3,10.4,0.3c-3.4-0.6-6.4-0.8-9.5-1.4c-2-0.3-5.3-1.1-7.8,1.1c-1.4,1.1-2.2,2.5-2.5,4.2c-0.3,0.8-0.3,1.7,0,2.5
								c0,0.8,0,2,0,2.8c0.3,1.7-0.6,2.8-0.6,4.8c-0.6-1.7-0.8-3.4-0.8-5c0-1.7-0.3-3.6,0.3-5.6c0.6-2,2-3.4,3.6-4.5
								s3.6-1.4,5.3-1.4c9.5-0.3,23,1.4,33.3,0.3c4.2-0.6,8.4,0.3,11.8,0.8c-1.4,0.3-3.6,0.3-4.8,0.3c-10.6-0.3-21.3-0.6-32.2-0.3
								c11.2,0.8,21.8,0.6,33,1.7c-6.4,0-12.9-1.1-19,0c0.6,0.3,1.1,0.3,1.7,0.6c4.2,0.3,8.7,0.6,12.9,0.8c1.4-0.3,2.5-0.6,3.9-0.6
								c11.8-2.2,26,0,40-0.3c0.6,0,1.4,0,2-0.3c0.6-0.3,1.1-0.3,2-0.3c-0.8-0.3-1.4-0.3-2.8-0.3h-3.4c-2.2,0-4.5-0.3-6.7-0.3
								c1.7,0.3,3.4,0.6,5,1.1c-4.2,0-7.6-0.8-11.8-0.8c2.2-0.3,4.5-0.3,6.7-0.3c-2.8-0.3-5.6-0.6-8.4-0.6c5.6-0.8,10.4,1.1,16,0
								c-1.1,0-2.2,0-3.4,0h3.6l0,0c1.7,0,3.6-0.3,5,0c1.7,0.3,3.1,1.1,4.2,2c-1.1-1.1-2.2-2-3.6-2.5c-1.4-0.6-2.8-0.6-4.5-0.8
								c-2.8-0.3-5.9-0.6-8.7-0.6h-3.1c1.1,0,2,0,3.1,0c3.4,0,7,0,10.4,0c3.9,0,7.3,2.5,8.4,6.2c0.6,1.7,0.3,3.6,0.3,5.3l-0.3,5
								c0.3,3.4-1.7,7-4.8,8.4c-0.3,0.3-0.8,0.3-1.1,0.6c0.6,0.3,0.8,0.3,1.4,0.3c2.8-1.4,4.8-4.2,5-7.3c0-2.8,0.3-5.9,0.3-8.7
								c0.3-3.1-0.8-6.7-3.6-8.7c-1.4-1.1-2.8-2-4.5-2.2c-0.6,0-0.8,0-1.4-0.3h-1.1L317,326.2z"/>
						</g>
					</g>
				</g>
			</g>
		</g>
	</g>
	<g>
		<g>
			<g>
				<g>
					<g opacity="0.8">
						<g opacity="0.8">
							<path fill="#FFFFFF" d="M362.6,273.3c0,0.8-0.6,2-1.1,3.4s-1.4,2.8-2,4.5v0.3c0,0,0,0,0.3,0h0.3c0.3,0,0.6,0,0.8-0.3
								c0.6,0,1.1-0.3,2-0.8c1.4-0.6,2.8-1.7,3.9-3.4c0.6-0.6,0.8-1.4,1.1-2l-0.3-0.3c-0.8-1.1-0.3-2.2,0.6-3.1c0.6-0.6,0.3,0,0-0.3
								c-0.3,0-0.3,0-0.6-0.3l0,0v-0.6v-1.4c0-1.7,0-3.4,0-5c0-3.4,0.3-7,1.7-10.4c0.3-0.8-1.4-1.4-2.2-1.7
								c-1.4,0.3-2.5,0.6-3.9,0.8c-0.3,2.8-0.6,5.9-0.8,9c-0.3,1.4-0.3,3.1-0.6,4.5c-0.3,1.4-0.6,3.1-0.8,3.9
								c-0.3,0.6,0.3,1.4,0.8,2C362,273,362.6,273,362.6,273.3z"/>
							<polygon fill="#FFFFFF" points="362.9,253.1 362.6,253.1 362.6,254.2 							"/>
							<path fill="#FFFFFF" d="M361.5,267.7c0,0.6,0,1.1,0,1.4s0,0.8-0.3,1.1c0,0.6-0.3,1.1-0.6,1.7c0.6,0.8,1.7,0.8,1.7,1.4
								c0,0.8-0.6,2-1.1,3.4s-1.4,2.8-2,4.5v0.3c0,0,0,0,0.3,0h0.3c0.3,0,0.6,0,0.8-0.3c0.6,0,1.1-0.3,2-0.8
								c1.4-0.6,2.8-1.7,3.9-3.4c0.6-0.6,0.8-1.4,1.1-2l-0.3-0.3c-0.6-0.8-0.3-1.7,0-2.2l-0.3,0.6c-2,2,0.3-0.6,0.6-0.8
								c-0.6,0.3-0.3,0-0.3-0.3c0.3-0.3,0.3-0.3,0-0.6c0,0,0,0-0.3,0c0,0-0.3,0-0.3-0.3c0-0.6-0.3-1.1-0.3-1.7
								c-0.3-1.1-0.3-2.5,0-3.6c0.3-0.8,0.6-1.4,0.8-2.2c0-3.1,0.6-6.4,1.7-9.5c0.3-0.8-1.4-1.4-2.2-1.7c-0.6,0.3-1.4,0.3-2,0.6
								c-1.1,2.5-1.7,5-2.5,7.8c-0.3,2.5-0.6,4.8-0.8,7.3C361.2,268,361.5,267.7,361.5,267.7z"/>
							<path fill="#FFFFFF" d="M359,267.1c0,0.3,1.1,1.1,2.2,0.8c0.6-2.5,0.6-4.8,0.8-7.3C361.2,262.9,360.4,265.2,359,267.1z"/>
							<path fill="#FFFFFF" d="M353.1,265.2c-0.8,1.7-1.7,5.9-2.2,8.7c-0.6,3.1-1.1,5.9-2.8,9c-1.4,3.1-3.6,7-6.4,11.8
								c-0.3,1.1-0.3,2-0.6,3.1l-0.3,2.2c0,0.6-0.6,2,0.8,1.1l5-1.7c3.1-1.1,6.4-2,9.5-3.1c3.1-1.1,6.4-2.2,9.5-3.4
								c3.1-1.1,6.4-2.5,9.2-3.9c1.7-0.8,2.5-1.1,3.4-1.7c0.8-0.6,2-0.8,2.8-1.4c2-0.8,3.9-2,5.9-3.1c2-1.1,3.9-2.2,5.9-3.9
								c1.1-0.8,2.2-1.7,3.1-2.5l2.8-2.8c3.4-3.9,4.8-9,5.3-13.7c0.3-4.8-0.3-9.8-2.2-14.6c-0.8-2.8-1.4-5.6-2.8-8.4
								c-0.6-1.4-1.4-2.8-2.5-4.2c-0.6-0.6-1.1-1.4-1.7-2c-0.6-0.6-1.4-1.1-2-1.7c-3.6-2.8-7.8-3.6-11.5-3.6
								c-3.9,0-8.1,1.4-11.2,3.9s-5,5.9-6.4,9c-1.1,3.1-1.7,6.4-2.2,9.5c-0.6,3.6,6.7,5,6.7,4.5c0-1.7,0.6-3.9,1.1-5.6
								c0.8-2,1.7-3.4,3.1-4.8c1.1-1.1,2.5-2.2,4.2-2.5c1.7-0.3,3.1-0.6,5.3-0.3c3.9,0.3,6.4,2,8.1,4.2c1.4,2.5,2.2,6.4,2,10.6
								c-0.6,6.7-4.2,13.2-9.5,16.2c-2.8,1.7-5.9,3.4-9.2,4.2c-3.9,1.4-5,1.1-5.9,0.3c-0.3,0.6-0.8,1.4-1.1,2
								c-1.1,1.7-2.8,2.8-3.9,3.4c-0.6,0.3-1.4,0.6-2,0.8c-0.3,0-0.6,0-0.8,0.3h-0.3c0,0,0,0-0.3,0v-0.3c0.6-1.7,1.4-3.1,2-4.5
								c0.6-1.4,1.1-2.2,1.1-3.4c0-0.3-0.6-0.6-1.1-0.8c-0.6-0.6-1.1-1.1-0.8-2c0.3-0.8,0.6-2.5,0.8-3.9c0.3-1.4,0.3-3.1,0.6-4.5
								c0.3-3.1,0.6-5.9,0.8-9c-2.8,0.6-5.6,0.6-7.8,1.4C355,258.4,354.8,262.1,353.1,265.2z"/>
							<path fill="#FFFFFF" d="M353.1,265.2c1.7-3.1,1.7-6.7,1.7-10.4c-1.1,0.3-2,0.8-2.8,1.4c-1.4,2-2.8,3.9-3.6,5.9
								c-0.6,1.1-0.8,2.2-1.1,3.4l-0.8,2.5c-0.3,1.1-0.6,2.2-0.8,3.4c-1.1,4.5-2,9-2.8,12.9c0,0.6-0.3,1.1-0.3,1.4v1.4
								c0,0.8-0.3,1.7-0.3,2.5c-0.3,1.7-0.3,3.4-0.6,5c2.8-4.8,4.8-8.4,6.4-11.8c1.7-3.4,2.2-5.9,2.8-9
								C351.4,271,352.2,266.8,353.1,265.2z"/>
							<path fill="#FFFFFF" d="M353.1,265.2c1.7-3.1,1.7-6.4,1.7-10.1c-0.6,1.1-1.1,2-1.7,3.1c-1.1,2.8-1.7,5.6-2.8,8.4
								c-1.4,4.8-3.1,9.5-5.6,15.1l4.5-16.2c0.8-3.1,1.7-6.2,2.2-9.2c-1.4,1.7-2.5,3.9-3.1,5.9c-0.3,1.1-0.8,2.2-1.1,3.1l-0.8,3.1
								c-0.3,1.1-0.6,2.2-0.8,3.4c-1.1,4.2-2,8.4-2.8,12.6c-0.3,1.1-0.3,2-0.3,2.8c0,0.8-0.3,1.7-0.3,2.5c-0.3,1.7-0.3,3.4-0.6,5
								c2.8-4.5,4.8-8.4,6.4-11.8c1.7-3.4,2.2-5.9,2.8-9C351.4,271,352.2,266.8,353.1,265.2z"/>
							<path fill="#FFFFFF" d="M350.8,277.5c2-4.8,3.6-10.1,4.5-12.9c1.1-3.4,1.7-7,2.2-10.6c-0.8,0-1.4,0.3-2,0.3
								c-0.3,0.3-0.3,0.6-0.6,0.8c0,3.6,0,7-1.7,10.1c-0.8,1.7-1.7,5.9-2.2,8.7c-0.6,3.1-1.1,5.9-2.8,9c-1.4,3.1-3.6,7-6.4,11.8
								c-0.3,0.8-0.3,2-0.6,2.8l-0.3,2.2l-0.3,1.1v0.3v0.3l0.6-0.3l5-1.7c3.4-1.1,6.4-2,9.8-3.1c3.1-1.1,6.4-2.2,9.8-3.4
								c3.4-1.4,6.4-2.5,9.5-3.9l0.8-0.6l0.6-0.6c0.3-0.3,0.8-0.6,1.1-0.8c0.8-0.6,1.7-1.1,2.5-1.7c1.7-1.1,3.4-2.2,5-3.4
								c1.7-1.1,3.6-2.2,5.3-3.4c2-1.4,3.9-2.8,5.6-4.5c-1.4,1.7-3.1,3.4-4.8,5c-1.7,1.4-3.1,2.5-4.8,3.9c2-1.1,3.6-2.2,5.9-3.6
								c1.1-0.8,2.2-1.7,3.1-2.5l2.8-2.8c2.8-3.4,4.5-7.3,5-11.5c-1.1-1.4-2.2-3.1-2.2-5c0-3.4,0.6-6.7-1.4-9.8
								c0-0.6,1.4-0.6,1.4-1.4c0,1.4,0.3,2.5,0.8,3.6c0.3,1.1,0.8,2.2,1.4,3.1c-0.3-1.1-0.6-2.5-0.8-3.6l-1.1-3.6
								c-1.1-4.5-2-9-5.3-13.2l-1.4-0.8c-2.5-1.4-5.3-1.7-7.8-1.4c0.8,0.3,2,0.6,2.8,1.1c-1.7,0.3-3.6-0.3-5-0.8
								c0.6-0.3,1.4-0.3,2.2-0.3c-1.1-0.3-2.2-0.8-3.4-0.8c-1.1-0.3-2.2-0.3-3.4-0.6c1.4,0.3,2.8,0.3,4.2,0c1.4,0,3.1,0,4.5,0
								c-1.4-0.3-2.8-0.8-4.2-0.8c-1.4,0-2.5,0-3.9-0.3c-1.4,0-2.8,0-4.2,0c-1.4,0.3-3.1,0.3-4.5,0.6l0.3-0.3
								c-3.9,2.2-6.7,5.9-8.1,9.5s-2.2,7-2.8,10.6c-0.3,1.7,1.4,3.1,3.1,3.9c0.8,0.3,1.7,0.6,2.5,0.6c0.6,0,1.1,0,1.1,0
								c0-2.5,1.1-5.6,2.2-7.8c1.4-2.2,3.1-3.9,5.3-4.8c2-0.8,4.5-0.8,7.3-0.6c2.5,0.6,4.5,1.4,5.9,2.8c0-1.1-0.3-2.8-1.1-4.2
								c-0.3-0.6-0.8-1.1-1.1-1.7c0.6,0.6,0.8,1.1,1.1,1.7c0.6,0.6,1.1,1.1,1.7,1.7c0.6,0.6,1.1,1.1,1.1,2c-0.3,0.6,0.3,1.1,1.4,0.8
								c0,1.1,0.6,2.2,0.6,3.4c0.3,1.1,0.3,2.5,0,3.6c0,0-0.3,0.3-0.8,0.6v2v2.2c-0.3,4.2-2,8.1-4.5,11.5c-0.6,0.8-1.4,1.4-2,2.2
								c-0.8,0.6-1.4,1.1-2.2,2c-1.7,1.1-3.6,2.2-5.6,3.1c2.2-0.3,4.5-0.6,6.7-0.8c0.8,0,1.7-0.3,2.2-0.8c0.8-0.6,1.4-1.4,2-2.2
								c0.3-0.6,0.6-0.8,0.8-1.4c0.3-0.6,0.6-1.1,0.8-1.7c0.6-1.1,0.8-2.2,1.1-3.4c0.3-1.1,1.7-1.1,2.2-2.2c0.6,1.4,0.6,2.5,0.3,3.6
								c-0.3,1.1-0.8,2.2-1.7,3.4c-0.8,1.1-1.7,2-2.5,2.8c-0.8,0.8-2,1.7-2.8,2.5c-2.2,2.2-5.9,3.9-9.5,5.3
								c-1.7,0.8-3.6,1.4-5.3,2.2c-1.7,0.8-3.1,1.7-4.8,3.1c-1.4,1.1-2.8,1.7-3.9,1.7c-1.1,0-2-0.6-2.2-1.4c1.1-1.4,2.2-1.7,2.8-1.7
								c2.5-0.6,5-1.4,8.1-2.8c3.4-1.4,6.4-3.1,9.2-5c-3.6,1.1-6.7,2.8-10.1,3.9c-2.8,0.8-5,1.4-6.4,0.6c2-0.8,4.2,0.6,7-3.1
								c-0.6-0.3-0.8-0.3-1.4-0.3c-2.5,0.6-3.1,0.3-3.9-0.3c-0.3,0.6-0.8,1.4-1.1,2c-1.1,1.7-2.8,2.8-3.9,3.4
								c-0.6,0.3-1.4,0.6-2,0.8c-0.3,0-0.6,0-0.8,0.3h-0.3c0,0,0,0-0.3,0v-0.3c0.6-1.7,1.4-3.1,2-4.5c0.6-1.4,1.1-2.2,1.1-3.4
								c0.3-0.3-1.1-0.6-1.7-1.4c-0.6,1.7-2,3.9-2.5,6.2c0.8-1.1,1.7-2.2,3.1-3.4c0,0.6-0.8,1.4-1.4,2.5c-0.8,1.1-1.7,2.2-1.7,3.1
								c-0.3-0.6-0.3-1.4,0-2.2c-1.1,1.7-2,3.4-2.8,5.6c-0.6-0.6,0.6-2.8,1.4-4.5c0.8-1.7,1.7-3.1,0.8-3.9c-0.3,0.6-0.3,1.1-0.8,2
								l0.8-2l0,0c0.6-2,0-3.6-0.3-5.9c-0.6,2-1.4,3.6-2.5,5.9c-1.1,2-2.2,4.5-2.8,6.7l-0.3,2c0-0.6,0-1.1,0.3-2
								c0.8-4.8,2.8-10.6,4.5-14.8c1.7-4.2,3.6-8.7,5.3-12.9v-0.8c-0.6,0-1.1,0.3-2,0.3c-1.4,3.6-2.8,7.3-4.2,10.6
								C354.8,268.5,352.8,273,350.8,277.5z"/>
						</g>
					</g>
				</g>
			</g>
		</g>
	</g>
	<g>
		<g>
			<g>
				<g>
					<g opacity="0.8">
						<g opacity="0.8">
							<path fill="#FFFFFF" d="M267.4,209.7c29.4-0.6,60.5,3.6,85.4-0.6l1.1-0.3c0.3,0,1.1,0,1.7-0.3l3.6-0.3c2.2-0.3,5-0.6,7.6-0.6
								c-2.2-0.3-4.8-0.3-7.3-0.3c-9-0.6-17.9-1.1-27.2-1.7c-8.4-0.3-17.1-0.8-25.5-0.8c-17.1-0.3-34.4-0.3-51,0
								c-20.7,1.4-41.7,4.2-64.4,3.9c-2.5,0-2.8,1.7-3.1,2.5c2.2,1.1,4.2,2.2,5.9,3.6c18.5-0.8,37.2-2.5,56.3-2.5
								C256.5,212.5,263.5,209.7,267.4,209.7z"/>
							<polygon fill="#FFFFFF" points="193.2,214.8 193.5,215 196.3,214.8 							"/>
							<path fill="#FFFFFF" d="M238.8,212.2c6.2-0.6,12.3-0.6,18.5-0.6c3.9-0.8,7.6-2,10.1-2c29.4-0.6,60.5,3.6,85.4-0.6l1.1-0.3
								c0.3,0,1.1,0,1.7-0.3l3.4-0.3c2.2-0.3,5-0.6,7.3-0.6c-2.5-0.3-5.3-0.3-7.8-0.3l-3.6-0.3l-2.5-0.3l-4.2-0.3
								c-2.8-0.3-5.9-0.3-8.7-0.6c-5.9-0.3-11.8-0.6-17.6-0.8c-0.6,0-1.4,0.3-2,0.3c-6.7,1.1-12.6-0.3-19-0.6
								c-17.9,0.8-33-0.3-51,0.6c-6.4,0.3-13.2,2.2-20.7,2.2c-2.5,0-5,0-7.6-0.3c-10.1,0.8-20.2,1.4-30.8,1.1
								c-2.5,0-2.8,1.7-3.1,2.5c1.1,0.6,2.2,1.1,3.4,2c8.7,0.3,17.4,0.3,26,0.3c7.6-0.6,15.4-0.8,23-1.1
								C239.7,212.5,239.4,212.2,238.8,212.2z"/>
							<path fill="#FFFFFF" d="M239.7,214.8c1.1,0,2.5-1.1,0.6-2.2c-7.8,0.3-15.4,0.6-23,1.1C224.3,213.9,231.8,213.9,239.7,214.8z"
								/>
							<path fill="#FFFFFF" d="M238.3,220.9c15.1,0.8,29.7-1.4,42,0c6.4,0.8,12.9,2,18.5,3.6c2,0,4.2,0,6.2,0
								c12.9-0.3,25.8-0.6,38.4-0.8l9.5-0.3h1.1h0.3h0.6h1.4h0.6c0.3,0,0.6,0,0.6,0.3v1.1l-0.3,1.4l-0.6,2.8
								c-2.5,12.3-5,24.6-9,36.1c-3.9,11.5-9,22.4-16.2,31.1c-7,9-14.6,16.5-24.1,21.8c-4.8,2.8-9.8,5-15.4,6.4
								c-5.6,1.7-11.5,2.5-17.6,3.1c-7.3,0.3-13.7-1.4-19.6-3.9c-5.9-2.2-11.2-5.9-16.2-10.4c-12.6-10.9-22.1-24.1-30.2-38.9
								c-7.8-14.3-14.8-30.8-18.2-49.6c-1.7-10.1-8.7-11.2-8.7-8.7c0.8,8.4,2.2,16.5,4.2,24.4c1.7,7.8,3.9,15.7,6.4,23.5
								c5,15.4,11.8,30.2,22.1,43.4c5,6.4,11.2,12.3,17.9,17.1c7,4.8,14.6,8.4,23,10.6c8.1,2.2,16.8,2.8,24.9,2.5
								c8.4-0.3,16.8-1.7,24.6-4.8c12.6-4.5,23.5-12,32.2-21.6s14.6-20.4,19.6-31.6c4.8-11.2,8.1-23,11.5-34.2l2.2-8.4l1.1-4.2
								l0.6-2.2l0.3-1.1l0.3-1.7c1.1-4.5,2-9.2,2.5-14l0.6-3.6c0-0.6,0.3-1.4,0.3-1.7l-1.7-0.3l-6.7-0.6c-2.5,0-5,0.6-7.6,0.6
								l-3.6,0.3c-0.6,0-1.4,0-1.7,0.3l-1.1,0.3c-24.9,4.2-56,0-85.4,0.6c-3.9,0-10.6,2.8-17.1,2.8c-19,0-37.8,1.7-56.3,2.5
								c3.6,2.5,6.7,5.3,10.6,7C215.9,221.2,227.4,220.1,238.3,220.9z"/>
							<path fill="#FFFFFF" d="M238.3,220.9c-10.9-0.8-22.4,0-33.9,1.1c2,0.8,3.9,1.7,6.4,2.2c27.7,3.9,59.1,1.1,87.9,0.6
								c-5.6-1.7-12-3.1-18.5-3.6C268,219.5,253.7,221.8,238.3,220.9z"/>
							<path fill="#FFFFFF" d="M238.3,220.9c-10.6-0.8-21.3,0-32.2,1.1c3.6,0.3,7.3,0.6,11.2,0.8c19,0.6,38.4,0,57.1,1.7
								c-20.2,0-40.6-0.3-60.8,0.3c27.2,3.4,57.4,0.6,85.7,0c-5.6-1.7-12-3.1-18.5-3.6C268,219.5,253.7,221.8,238.3,220.9z"/>
							<path fill="#FFFFFF" d="M269.1,220.1c-22.7-1.1-45.6-1.7-68.9-0.3c1.1,0.6,2,1.4,3.1,2c0.8,0,2,0.3,2.8,0.3
								c10.9-0.8,21.8-1.7,32.2-1.1c15.1,0.8,29.7-1.4,42,0c6.4,0.8,12.9,2,18.5,3.6c2,0,3.9,0,5.9,0c13.2-0.3,26-0.6,39.2-0.8
								l9.8-0.3h2.8c1.4-0.6,0.8,0.8,0.8,1.7c-0.3,1.1,0,0.8-0.8,4.8c-1.1,11.2-3.1,22.7-6.7,33.6c-3.4,10.9-8.4,21.6-15.1,30.2
								c5.6-8.4,9.8-18.5,12.9-28.6c-3.9,11.2-9,21.8-15.7,30.5c-5.9,7.8-12,14.3-19.6,19.3c-0.3,1.1-1.1,2.5-2.2,3.6
								c-1.4,1.1-3.1,2.5-5.3,3.6c-7.6,3.6-16,5-24.9,6.7c-1.1,0-1.1-1.4-3.4-1.4c6.7,0,12.3-1.4,16.5-3.6
								c-5.6,1.7-11.5,2.8-17.6,3.1c-11.5,0.3-20.7-3.4-29.4-8.7L243,317c-2.5-1.1-4.8-2.8-7.3-3.9c-2.2-1.7-4.8-3.1-7-4.8
								c1.7,1.7,3.4,3.4,5.3,4.8c-3.4-1.7-7-5-9.2-7.8c1.4,1.1,2.8,2.2,3.9,3.1c-3.9-3.9-7.3-8.1-10.4-13.2
								c3.9,6.2,9.5,11.2,14.3,14.6c-9.5-8.4-17.1-18.5-21.6-30.8l0.6,0.8c-9.5-16-17.4-34.2-21.6-54.9c-0.8-5-3.1-7.8-5-9
								c-2-1.1-3.6-0.8-3.6,0.6c1.4,11.8,3.6,22.7,6.4,33.9c2.8,10.9,6.4,21.6,11.2,31.9c4.8,10.4,10.6,20.2,18.2,28.8
								c7.6,8.7,17.1,16,28,20.7c-2.2-1.7-4.5-3.1-6.4-4.8l-3.6-2.2l-2.8-2.8c-1.7-1.4-3.1-3.1-4.5-4.8c1.4,1.7,2.8,3.4,4.5,4.8
								c4.5,4.2,10.9,7.3,16.8,10.1c1.1,0.8,4.8,2.2,6.7,1.4c8.7,3.4,19.9,2.8,28.8,3.1c0.6,0,1.4,0.3,2.5,0.6
								c5.9-0.8,11.5-2,17.1-4.2c7.8-2.8,15.1-6.7,21.6-11.8s11.8-10.9,16.5-17.4c9.2-12.9,15.1-27.2,19.6-41.4
								c-2.8,6.7-5.9,13.2-9.5,18.5c-2.5,3.6-5.3,9.8-9.2,16.2c-3.9,6.7-8.7,13.7-14.6,19c-2.8,2.8-5.6,3.4-8.7,5.3
								c4.8-5.3,10.1-10.4,15.1-16.5c5-5.9,9.8-12.9,12.9-19.9c4.2-9.2,8.7-20.7,12-32.8c1.7-6.2,3.1-12,4.5-18.2
								c1.1-5.9,2-12.6,2-17.6v-0.8v-0.3h-0.3c-0.6,0-1.1,0-1.7,0c-1.1,0-2.2,0-3.4,0c-2.2,0-4.2-0.3-6.2-0.3
								c-4.2-0.6-8.1-1.1-11.8-2c2.8-0.8,7.8-0.8,10.4-0.6c3.1,0,7,0,10.1,0.3l5,0.3h0.6c0.3,0,0,0.3,0,0.6L369,215l-0.3,2.5
								c-0.6,3.4-1.1,6.7-1.7,10.1c-0.6,3.1-1.1,5.6-2,8.7c-2.5,11.2-5,22.4-8.7,33.6c4.8-11.2,7.6-22.7,10.4-34.2l1.1-4.2l0.6-2.2
								l0.6-2.8c0.8-3.9,1.4-7.8,2-11.8l0.6-3.1c-0.8-0.3-2-0.3-2.8-0.3c-2-0.3-3.9-0.3-5.9-0.6c-2,0-4.2-0.3-6.2-0.3H355h-1.4
								l-2.2-0.3c2.2,0,4.2,0,6.4,0c2.5,0,5,0,7.6,0.3l3.6,0.3h1.7h0.8h0.6h0.3c0,0,0,0,0,0.3c-0.3,2.5-0.6,4.8-1.1,7.3
								c-0.3,2.2-0.8,4.8-1.1,7c-0.3,2-0.8,3.9-1.1,6.2c-0.6,3.4-1.1,6.7-1.4,10.1c0.6-1.1,1.1-2,1.7-3.1l1.7-6.7l0.6-1.7l0.6-2.5
								l1.1-5.6c0.6-3.6,1.1-7.3,1.7-11.2l0.3-1.4v-0.8h-0.6l-2.5-0.3l-5.3-0.6c-2.5,0-5,0.6-7.3,0.6l-3.4,0.3c-0.6,0-1.4,0-1.7,0.3
								l-1.1,0.3c-24.9,4.2-56,0-85.4,0.6c-2.5,0-6.2,1.1-10.1,2c9.5,0.3,19,0.8,28.6,0.8c-3.9-0.6-7.6-1.1-10.9-2
								c9-0.3,16.2,1.7,25.2,1.4c-4.8,0.3-9.5,0.6-14.3,0.6c5.6,0.6,11.8,0.8,17.9,1.4c-11.8,1.4-22.4-2.2-34.2,0c2.5,0,5,0,7.6,0.3
								c-2.5,0-5,0-7.6-0.3h0.3c-7.6,0-15.1,0.8-22.1,1.7c13.2,0,24.9,1.7,37.8,1.7c2.2,0,4.2-0.3,6.4-0.3c-2.2,0-4.2,0.3-6.4,0.3
								c-29.7,0.8-59.1-1.4-88.8-2.2l-2.8,0.3c0.8,0.6,1.7,1.1,2.5,1.7C220.4,217.3,245.3,218.4,269.1,220.1z"/>
						</g>
					</g>
				</g>
			</g>
		</g>
	</g>
	<g>
		<rect x="133" y="376" fill="none" width="730.8" height="96.6"/>
		<g enable-background="new    ">
			<path fill="#86604E" d="M251.8,385.4c0.3,0,0.5,0.2,0.6,0.5c0.1,0.3,0.1,0.6-0.1,0.8c-3,2.6-5.6,5.7-8,9.3
				c-2.4,3.6-4.4,7.4-6.1,11.4c-1.7,4-3,8.1-4,12.2c-0.9,4.2-1.4,8.1-1.4,11.7c0,3.3,0.4,5.9,1.2,7.8c0.8,1.9,1.9,2.8,3.3,2.8
				c2.3,0,4.7-1.7,6.9-5.2c0.2-0.2,0.4-0.2,0.6,0c0.2,0.2,0.3,0.4,0.2,0.6c-0.7,1-1.4,2.1-2.3,3.1c-0.8,1-1.7,1.9-2.6,2.8
				c-0.9,0.8-1.8,1.5-2.7,2c-0.9,0.5-1.7,0.8-2.4,0.8c-1.6,0-3-0.9-4.3-2.8c-1.2-1.9-1.8-4.8-1.8-8.6c0-3.2,0.3-6.7,1-10.3
				c0.6-3.7,1.6-7.4,2.9-11.1c1.3-3.7,2.9-7.3,4.9-10.9c1.9-3.5,4.2-6.7,6.7-9.6c-3.8,2.8-7.7,6.2-11.7,10.2c-4,4-7.8,8.2-11.5,12.8
				c-3.7,4.5-7.1,9.2-10.2,14c-3.1,4.8-5.8,9.4-7.9,13.8c-0.2,0.4-0.7,1-1.4,1.7c-0.7,0.7-1.2,1-1.6,1c-0.4,0-0.6-0.2-0.6-0.6
				c1.2-9.5,2.8-18,5-25.5c2.2-7.4,4.8-14.3,7.8-20.6c-4.9,7.4-9.8,14-14.5,19.8c-4.7,5.8-9.5,10.7-14.2,14.6c-4.7,4-9.6,7-14.5,9.1
				c-4.9,2.1-10,3.1-15.3,3.1c-2.5,0-4.8-0.4-6.7-1.2c-2-0.8-3.7-1.9-5.1-3.3c-1.4-1.4-2.5-3.1-3.2-5c-0.7-1.9-1.1-4-1.1-6.3
				c0-3,0.7-5.7,2.1-8.1c1.4-2.5,3.4-4.4,6.1-5.8c0.2-0.1,0.4-0.1,0.5,0.2c0.1,0.2,0.1,0.5,0,0.7c-1.9,1.2-3.3,2.6-4,4.3
				c-0.8,1.6-1.2,3.7-1.2,6.3c0,2,0.3,4,1,5.8c0.7,1.8,1.7,3.4,3,4.8c1.3,1.4,3,2.4,4.9,3.2c1.9,0.8,4.2,1.2,6.8,1.2
				c5.4,0,10.6-1.2,15.6-3.7c5-2.5,9.8-5.9,14.5-10.3c4.7-4.4,9.3-9.5,13.8-15.3c4.5-5.9,9-12.2,13.5-18.9
				c-4.3-1.5-8.8-2.7-13.5-3.7s-9.2-1.5-13.5-1.5c-4.6,0-8.5,1.3-11.6,4c-3.1,2.7-5,6.8-5.6,12.2c-0.1,0.3-0.3,0.4-0.5,0.4
				c-0.2-0.1-0.4-0.2-0.4-0.6c0.7-6,2.9-10.7,6.7-13.9c3.8-3.2,8.7-4.8,14.7-4.8c2.5,0,5.1,0.2,7.7,0.5c2.6,0.3,5.1,0.8,7.6,1.3
				c2.5,0.5,4.8,1.1,7.1,1.8c2.2,0.6,4.3,1.3,6.1,1.9c0.1-0.1,0.3-0.1,0.4-0.1c0.2,0,0.3,0,0.4-0.1c0.2,0,0.4,0.1,0.4,0.4
				c0,0.2,0,0.5-0.1,0.6c-0.9,0.6-1.6,1.2-2.1,2c-0.6,0.8-1.2,1.8-1.8,3.1c-3.1,6.2-5.5,12.6-7.3,19.4c-1.8,6.7-3.3,13.6-4.6,20.5
				c2.9-5.1,6.2-10.2,10-15.3c3.8-5.1,7.7-10,11.9-14.6c4.2-4.6,8.5-8.9,12.9-12.7C243.3,391.3,247.7,388,251.8,385.4z"/>
			<path fill="#86604E" d="M270.6,440.2c0.1-0.1,0.3-0.1,0.5,0c0.2,0.1,0.2,0.3,0.2,0.6c-1.3,1.8-2.6,3.1-3.8,4
				c-1.3,0.9-2.3,1.3-3.2,1.3c-0.6,0-1-0.3-1.3-0.8c-0.3-0.6-0.6-1.3-0.6-2.3c-0.1-1-0.1-2,0.1-3.2c0.2-1.2,0.4-2.4,0.8-3.7
				c-1.7,2.6-3.4,4.8-5.3,6.7c-1.8,1.9-3.6,3-5.4,3.4c-1.1,0-2-0.5-2.8-1.6c-0.8-1.1-1.2-2.8-1.2-5c0-2,0.4-4,1.2-6.1
				c0.8-2,2-3.8,3.4-5.5c1.4-1.6,3-2.9,4.9-3.9c1.8-1,3.8-1.5,5.8-1.5c1.1,0,2.1,0.1,2.9,0.4c0.8,0.2,1.5,0.6,2.2,1.1
				c0.4-0.3,0.9-0.6,1.5-0.9c0.6-0.3,1.2-0.4,1.8-0.4c0.3,0,0.4,0.2,0.3,0.5c-1.4,1.7-2.6,3.6-3.6,5.7c-1,2.1-1.8,4.1-2.4,6.1
				c-0.6,2-0.9,3.7-1.1,5.2c-0.2,1.5,0,2.5,0.3,3.1c0.3,0.4,0.9,0.4,1.7,0C268.3,442.9,269.3,441.8,270.6,440.2z M254.5,442.8
				c0.7,0,1.6-0.5,2.6-1.4c1.1-1,2.2-2.2,3.4-3.7c1.2-1.5,2.3-3.3,3.5-5.2c1.1-1.9,2.1-3.9,3-5.9c-0.2-0.8-0.8-1.4-1.7-1.9
				c-0.9-0.5-1.9-0.7-3.1-0.7c-1.4,0-2.6,0.4-3.8,1.1c-1.2,0.7-2.3,1.7-3.2,3c-0.9,1.3-1.7,2.8-2.2,4.5c-0.6,1.7-0.8,3.6-0.8,5.7
				c0,1.4,0.2,2.5,0.7,3.4C253.3,442.4,253.8,442.8,254.5,442.8z"/>
			<path fill="#86604E" d="M289.3,429.8c-0.3,0-0.5-0.2-0.5-0.5c0.5-1.2,0.5-2.3,0-3.2s-1.4-1.4-2.8-1.4c-1,0-1.9,0.4-2.8,1.1
				c-0.9,0.7-1.6,1.7-2.2,3c-0.6,1.3-1.1,2.7-1.5,4.4c-0.4,1.7-0.6,3.5-0.6,5.5c0,3,1,4.5,3.1,4.5c2.4,0,4.8-1.4,7.2-4.3
				c0.2-0.1,0.5-0.1,0.6,0c0.2,0.2,0.2,0.4,0.1,0.7c-1.4,1.8-3,3.3-4.7,4.6c-1.7,1.3-3.4,1.9-5.1,1.9c-1.4,0-2.5-0.5-3.4-1.5
				c-0.9-1-1.3-2.3-1.3-4.1c0-2.2,0.4-4.3,1.1-6.5c0.7-2.2,1.6-4.1,2.8-5.8c1.1-1.7,2.4-3.1,3.9-4.2c1.5-1.1,3-1.6,4.5-1.6
				c1.3,0,2.3,0.3,3,0.9c0.7,0.6,1.1,1.4,1.1,2.2c0,0.3-0.1,0.7-0.3,1.1c-0.2,0.4-0.4,0.9-0.7,1.3c-0.3,0.4-0.6,0.8-0.9,1.2
				C289.8,429.5,289.5,429.7,289.3,429.8z"/>
			<path fill="#86604E" d="M308,429.8c-0.3,0-0.5-0.2-0.5-0.5c0.5-1.2,0.5-2.3,0-3.2s-1.4-1.4-2.8-1.4c-1,0-1.9,0.4-2.8,1.1
				c-0.9,0.7-1.6,1.7-2.2,3c-0.6,1.3-1.1,2.7-1.5,4.4c-0.4,1.7-0.6,3.5-0.6,5.5c0,3,1,4.5,3.1,4.5c2.4,0,4.8-1.4,7.2-4.3
				c0.2-0.1,0.5-0.1,0.6,0c0.2,0.2,0.2,0.4,0.1,0.7c-1.4,1.8-3,3.3-4.7,4.6c-1.7,1.3-3.4,1.9-5.1,1.9c-1.4,0-2.5-0.5-3.4-1.5
				c-0.9-1-1.3-2.3-1.3-4.1c0-2.2,0.4-4.3,1.1-6.5c0.7-2.2,1.6-4.1,2.8-5.8c1.1-1.7,2.4-3.1,3.9-4.2c1.5-1.1,3-1.6,4.5-1.6
				c1.3,0,2.3,0.3,3,0.9c0.7,0.6,1.1,1.4,1.1,2.2c0,0.3-0.1,0.7-0.3,1.1c-0.2,0.4-0.4,0.9-0.7,1.3c-0.3,0.4-0.6,0.8-0.9,1.2
				C308.6,429.5,308.3,429.7,308,429.8z"/>
			<path fill="#86604E" d="M312.7,445.2c2.8-10.6,5.9-20.1,9.3-28.6c3.4-8.5,7.1-15.7,10.9-21.7c3.8-6,7.7-10.6,11.6-13.8
				c3.9-3.2,7.8-4.9,11.5-4.9c1.4,0,2.5,0.3,3.4,0.8c0.9,0.5,1.5,1.2,1.8,2c0.3,0.8,0.4,1.7,0.3,2.7c-0.2,1-0.6,1.9-1.3,2.9
				c-0.1,0.2-0.3,0.2-0.5,0.2c-0.2-0.1-0.3-0.2-0.3-0.5c0.2-1.2-0.1-2.4-1.1-3.5c-1-1.1-2.6-1.7-4.7-1.7c-2.9,0-5.9,1.1-8.9,3.4
				c-3,2.3-6,5.8-9.1,10.5c-3,4.7-6,10.6-8.9,17.8c-2.9,7.1-5.7,15.6-8.5,25.4c1-1.9,2.1-3.7,3.4-5.4c1.3-1.7,2.6-3.2,4-4.4
				c1.4-1.2,2.7-2.2,4.1-2.9c1.4-0.7,2.7-1.1,4-1.1c0.7,0,1.3,0.2,1.7,0.6c0.4,0.4,0.6,0.8,0.6,1.3c0,0.8-0.3,1.7-0.8,2.7
				c-1.3,2.3-2.4,4.6-3.2,7c-0.8,2.4-1.2,4.6-1.2,6.6c0,0.9,0.1,1.6,0.3,2.1c0.2,0.6,0.6,0.8,1.1,0.8c0.6,0,1.3-0.3,2-1
				c0.7-0.6,1.3-1.4,1.9-2.2c0.2-0.1,0.4-0.1,0.6,0c0.2,0.2,0.2,0.4,0.2,0.6c-0.4,0.6-0.8,1.1-1.4,1.7c-0.6,0.6-1.2,1.1-1.8,1.7
				c-0.6,0.5-1.3,0.9-2,1.2c-0.7,0.3-1.3,0.5-1.8,0.5c-1.5,0-2.3-1.3-2.3-3.9c0-2.2,0.4-4.6,1.1-7.3s1.6-4.9,2.7-7
				c0.4-0.6,0.6-1.1,0.6-1.6c0-0.6-0.3-0.8-1-0.8c-1.1,0-2.3,0.4-3.6,1.3c-1.3,0.9-2.6,2.1-4,3.8c-1.4,1.7-2.6,3.7-3.9,6.1
				c-1.2,2.4-2.3,5-3.3,8c-0.1,0.4-0.4,0.8-1,1c-0.5,0.2-1,0.4-1.5,0.4C312.8,446,312.5,445.7,312.7,445.2z"/>
			<path fill="#86604E" d="M342.1,428.8c-0.2,0.1-0.4,0.1-0.5-0.1c-0.2-0.2-0.2-0.4,0-0.6c0.9-0.9,2-1.8,3.5-3c1.5-1.1,3-2,4.4-2.8
				c0.5,0,0.7,0.3,0.7,0.8c-0.8,1.4-1.6,3-2.4,4.6c-0.8,1.7-1.4,3.3-2,4.9c-0.6,1.6-1.1,3.2-1.4,4.7c-0.4,1.5-0.6,2.8-0.6,3.7
				c0,1.3,0.4,1.9,1.3,1.9c0.7,0,1.3-0.3,2-0.9c0.6-0.6,1.4-1.4,2.3-2.4c0.1-0.1,0.3-0.1,0.5,0.1s0.2,0.4,0.1,0.6
				c-1.1,1.4-2.3,2.6-3.6,3.7c-1.3,1.1-2.4,1.7-3.6,1.7c-1.6,0-2.4-1-2.4-3c0-1.2,0.2-2.6,0.6-4.2c0.4-1.6,0.9-3.3,1.5-4.9
				c0.6-1.7,1.3-3.3,2.1-4.8c0.8-1.5,1.5-2.9,2.3-4c-0.7,0.5-1.5,1.1-2.5,1.9C343.4,427.7,342.6,428.3,342.1,428.8z M350.4,418.4
				c-0.2,0.2-0.4,0.2-0.5,0c-0.2-0.2-0.3-0.4-0.3-0.6c-0.1-0.3-0.1-0.6-0.1-1c0-0.4,0.1-0.7,0.3-0.9c1.6-2.2,3.8-4.6,6.7-7.1
				c0.2-0.1,0.4,0,0.6,0.1c0.2,0.2,0.2,0.3,0.1,0.4c-1.3,1.2-2.5,2.6-3.7,4.2C352.3,415.1,351.3,416.8,350.4,418.4z"/>
			<path fill="#86604E" d="M376,440.2c0.1-0.1,0.3-0.1,0.5,0c0.2,0.1,0.2,0.3,0.2,0.6c-1.3,1.8-2.6,3.1-3.8,4
				c-1.3,0.9-2.3,1.3-3.2,1.3c-0.6,0-1-0.3-1.3-0.8c-0.3-0.6-0.6-1.3-0.6-2.3c-0.1-1-0.1-2,0.1-3.2c0.2-1.2,0.4-2.4,0.8-3.7
				c-1.7,2.6-3.4,4.8-5.3,6.7c-1.8,1.9-3.6,3-5.4,3.4c-1.1,0-2-0.5-2.8-1.6c-0.8-1.1-1.2-2.8-1.2-5c0-2,0.4-4,1.2-6.1
				c0.8-2,2-3.8,3.4-5.5c1.4-1.6,3-2.9,4.9-3.9c1.8-1,3.8-1.5,5.8-1.5c1.1,0,2.1,0.1,2.9,0.4c0.8,0.2,1.5,0.6,2.2,1.1
				c0.4-0.3,0.9-0.6,1.5-0.9c0.6-0.3,1.2-0.4,1.8-0.4c0.3,0,0.4,0.2,0.3,0.5c-1.4,1.7-2.6,3.6-3.7,5.7c-1,2.1-1.8,4.1-2.4,6.1
				c-0.6,2-0.9,3.7-1.1,5.2c-0.2,1.5,0,2.5,0.3,3.1c0.3,0.4,0.9,0.4,1.7,0C373.7,442.9,374.7,441.8,376,440.2z M359.9,442.8
				c0.7,0,1.6-0.5,2.6-1.4c1.1-1,2.2-2.2,3.4-3.7c1.2-1.5,2.3-3.3,3.5-5.2c1.1-1.9,2.1-3.9,3-5.9c-0.2-0.8-0.8-1.4-1.7-1.9
				c-0.9-0.5-1.9-0.7-3.1-0.7c-1.4,0-2.6,0.4-3.8,1.1c-1.2,0.7-2.3,1.7-3.2,3c-0.9,1.3-1.7,2.8-2.2,4.5c-0.6,1.7-0.8,3.6-0.8,5.7
				c0,1.4,0.2,2.5,0.7,3.4C358.7,442.4,359.3,442.8,359.9,442.8z"/>
			<path fill="#86604E" d="M397.3,422.7c0.3,0.1,0.4,0.3,0.4,0.6c-0.1,0.2-0.3,0.4-0.8,0.5c-1,0.1-2.1,0.1-3.3,0.2
				c-1.2,0.1-2.4,0.2-3.6,0.3c-1.2,3.1-2.3,6-3,8.9c-0.8,2.8-1.2,5.2-1.2,7c0,2.1,0.8,3.1,2.4,3.1c1.6,0,3.4-1.4,5.3-4.3
				c0.2-0.1,0.4-0.1,0.6,0c0.2,0.2,0.2,0.4,0.2,0.7c-0.6,0.9-1.2,1.7-1.9,2.4c-0.7,0.8-1.4,1.4-2.2,2c-0.7,0.6-1.4,1-2.1,1.3
				c-0.7,0.3-1.2,0.5-1.7,0.5c-1.4,0-2.4-0.4-3-1.2c-0.6-0.8-1-1.8-1-3c0-2,0.4-4.6,1.3-7.7c0.9-3.1,1.9-6.3,3.2-9.5
				c-0.8,0.1-1.6,0.2-2.3,0.4c-0.7,0.1-1.4,0.2-2.1,0.4c-0.3-0.1-0.4-0.2-0.2-0.5c0.2-0.2,0.4-0.5,0.8-0.7c0.4-0.2,0.9-0.5,1.4-0.7
				c0.6-0.2,1.1-0.3,1.6-0.3c0.3-0.1,0.6-0.1,0.8-0.1c0.2,0,0.4,0,0.7,0c0.9-1.9,1.7-3.7,2.6-5.5c0.9-1.8,1.7-3.4,2.6-4.9
				c0.4-0.4,0.8-0.7,1.2-1c0.5-0.3,0.9-0.5,1.3-0.6c0.4-0.1,0.8-0.1,1-0.1c0.2,0,0.3,0.1,0.3,0.3c-1,1.6-2.1,3.4-3.1,5.4
				c-1,2-2,4-2.9,6.1c1.1,0,2.2,0,3.3,0C394.9,422.7,396,422.7,397.3,422.7z"/>
			<path fill="#86604E" d="M409,422.3c1.7,0,2.9,0.6,3.7,1.7c0.8,1.1,1.2,2.6,1.2,4.3c0,2.1-0.4,4.2-1.2,6.3c-0.8,2.1-1.8,4-3,5.7
				c-1.2,1.7-2.6,3.1-4,4.1c-1.4,1-2.8,1.6-4,1.6c-1.5,0-2.6-0.6-3.5-1.8c-0.9-1.2-1.3-2.8-1.3-5c0-1.7,0.3-3.6,1-5.5
				c0.7-2,1.6-3.8,2.7-5.5c1.1-1.7,2.4-3.1,3.9-4.2S407.4,422.3,409,422.3z M403.5,443.1c0.9,0,1.8-0.3,2.7-1
				c0.9-0.6,1.7-1.5,2.4-2.6c0.7-1.1,1.2-2.3,1.6-3.7c0.4-1.4,0.6-2.9,0.6-4.4c0-1.8-0.3-3.3-0.9-4.4c-0.6-1.1-1.6-1.6-3-1.6
				c-0.9,0-1.8,0.3-2.7,1c-0.9,0.6-1.6,1.5-2.3,2.6c-0.6,1.1-1.2,2.3-1.5,3.8c-0.4,1.4-0.6,3-0.6,4.6
				C399.8,441.2,401,443.1,403.5,443.1z"/>
		</g>
	</g>
</g>
</svg>
