<?xml version="1.0" encoding="utf-8"?>
<!-- Generator: Adobe Illustrator 18.0.0, SVG Export Plug-In . SVG Version: 6.00 Build 0)  -->
<!DOCTYPE svg PUBLIC "-//W3C//DTD SVG 1.1//EN" "http://www.w3.org/Graphics/SVG/1.1/DTD/svg11.dtd">
<svg version="1.1" id="Layer_1" xmlns="http://www.w3.org/2000/svg" xmlns:xlink="http://www.w3.org/1999/xlink" x="0px" y="0px"
	 viewBox="0 0 560 560" enable-background="new 0 0 560 560" xml:space="preserve">
<g>
	<g>
		<circle fill="#DFCEC4" cx="278" cy="265.2" r="216.4"/>
		<g>
			<g>
				<g>
					<g opacity="0.8">
						<g opacity="0.8">
							<path fill="#FAF8F7" d="M390.3,93.8c-7.8-5-16.2-9.5-24.6-13.7c-8.4-4.2-17.4-7.6-26.3-10.9c-17.9-5.9-36.7-10.1-55.4-10.9
								c-37.5-2.2-74.2,7.8-100.2,26.3c-5.9,3.9-11.5,8.4-16.8,13.2c3.1-1.7,6.2-3.6,9.5-5c9-4.8,18.5-8.7,28.3-12
								c4.8-1.7,9.8-3.1,14.8-4.5c5-1.1,10.1-2.5,15.1-3.4c20.2-3.9,41.4-4.5,61.9-2.2c41.4,4.5,80.6,22.1,111.7,48.2
								c19.6,15.7,37.2,35,50.4,58c13.2,23,21.8,50.4,22.4,79.2c0,6.4,3.6,7.3,5.3,7.6c1.1-2.8,2.2-5.6,3.4-8.4
								c1.1-2.5,2.2-5.3,3.1-7.6c-1.4-12.3-3.9-24.6-7.6-36.4c-3.6-11.8-8.4-23.2-14-34.2c-11.2-21.8-25.8-42.3-43.4-59.9
								c-2.8-3.1-6.2-5.6-9.5-8.1c-3.6-2.2-7-4.5-10.6-6.4c-3.4-2-6.7-3.6-9.8-5C394.8,96.6,392.3,94.9,390.3,93.8z"/>
							<path fill="#F8F5F3" d="M492.5,250c0.3-0.3,0.3-0.6,0.3-0.8c-0.3-2.5-0.6-5-0.8-7.6C492.2,244.4,492.2,247.2,492.5,250z"/>
							<path fill="#FAF7F6" d="M446.6,140.3c-10.4-12.3-21.6-23.8-33.3-34.2c-2.2-1.4-4.5-2.5-6.7-3.6c-2.2-1.1-4.2-2.2-6.2-3.4
								c-4.2-2-7.6-3.9-10.1-5.3c-7.8-5-16.2-9.5-24.6-13.7c-8.4-4.2-17.4-7.6-26.3-10.9c-17.9-5.9-36.7-10.1-55.4-10.9
								c-37.5-2.2-74.2,7.8-100.2,26.3c-5.9,3.9-11.5,8.4-16.8,12.9c3.4-2,6.7-3.9,10.1-5.6c25.2-12.6,53.2-20.7,81.8-22.4
								c1.7-0.3,3.1-0.6,4.5-0.8c7.8-2,16-1.7,23.5-0.8c3.9,0.6,7.6,1.1,11.5,1.7c3.6,0.8,7.6,1.4,11.2,2.2
								c10.9,1.1,21.3,3.9,31.1,7c9.8,3.1,19,7.3,28,12c17.9,9.5,34.2,21.6,50.1,36.7c2.8,2.8,5.9,5.3,9,8.1
								c3.1,2.8,6.2,5.6,9.2,8.7c5.9,6.2,11.8,13.2,16.2,21.6c1.7,2.8,3.1,5.6,4.5,8.4s2.5,5.6,3.6,8.4c11.5,22.1,19,47.6,19.6,74.5
								c0,6.4,3.6,7.3,5.3,7.8c1.1-3.1,2.2-5.9,3.4-8.7c-0.3-11.5-1.4-22.7-3.4-33.9c-2.2-11.2-5.3-22.4-9.5-33.3
								c-8.1-18.5-18.8-35.8-31.4-51.8C445.8,138.3,446.3,139.2,446.6,140.3z"/>
							<path fill="#F8F5F3" d="M449.7,135.5c-1.7-2.2-5.9-3.6-4.2,1.7c12.6,16,23.2,33.3,31.4,51.8c-3.4-9.2-7.6-18.2-11.8-27.2
								C460.6,153.2,455.3,144.5,449.7,135.5z"/>
							<path fill="#FCFAF9" d="M461.7,131c-12-17.6-27.4-32.5-43.4-44.2c-16-12-32.5-21-47.9-29.7c-16.2-9-33-16.5-48.7-23
								c-3.1-0.6-5.9-1.1-9-1.4c-3.1-0.3-5.9-0.8-9-1.1c-18.8-1.7-37.2-1.1-55.7,1.7c-18.5,2.5-36.4,7.6-53.8,14.3
								c-34.4,13.7-65.2,35.6-89.6,63c-12,13.7-23,28.8-31.6,45.1s-15.7,33.3-20.4,51c-4.8,17.6-7.6,36.1-8.1,54.3
								c-0.8,18.5,0.6,37,4.2,54.9c3.6,18.2,9.8,35.6,18.2,51.5s18.8,30.8,30.5,44s25.5,24.9,40,35s30.8,18.5,47.6,24.9
								c5,2.2,9.8,3.9,14.8,5.9c2.5,0.8,4.8,1.7,7.3,2.5c1.1,0.6,2.5,0.8,3.6,1.4l3.6,1.1c2.5,0.8,4.8,1.4,7,2.2
								c2.5,0.6,4.8,1.4,7,2c4.8,1.4,9.5,2.2,14.3,3.6c19,3.9,38.6,6.4,60.5,5.3c27.2-1.1,52.9-8.4,76.2-20.2
								c23-11.8,43.4-27.7,59.9-46.5c33.3-37.8,52.6-86.2,56.3-138c0.8-14-3.1-22.1-6.7-25.5c-3.6-3.6-7.3-2.8-7.3,0.6
								c1.4,40.6-10.4,81.5-32.8,114.8c-22.4,33.6-54.9,59.6-91.6,74.8c-9.2,3.9-18.8,6.7-28.3,9.2c-9.8,2.5-19.6,3.9-29.4,5
								c-10.1,0.8-19.9,1.1-30,0.8c-10.1-0.6-19.9-1.4-29.7-3.4c-39.5-7.3-76.7-26.3-107-54.6c-23.2-22.1-40.9-49.3-51.2-79
								s-13.4-61.3-9.5-91.6c3.9-30.2,14.8-59.4,31.4-84s38.6-45.4,63.6-59.9c5.3-4.8,10.9-9.2,16.8-13.2
								c26-18.8,62.7-28.8,100.2-26.3c18.8,0.8,37.5,4.8,55.4,10.9c9,3.1,17.6,6.7,26.3,10.9c8.4,4.2,16.8,8.7,24.6,13.7
								c2,1.4,4.5,2.8,7.6,4.2c3.1,1.4,6.2,3.1,9.8,5c3.6,1.7,7,4.2,10.6,6.4c3.4,2.5,6.7,5,9.5,8.1c17.6,17.6,32.2,37.8,43.4,59.9
								c5.6,10.9,10.4,22.4,14,34.2c3.6,11.8,6.2,24.1,7.6,36.4c4.5-10.4,8.4-19.6,9.8-31.1C493.9,185.4,478.8,156.8,461.7,131z"/>
							<path fill="#F8F4F2" d="M461.7,131c17.1,26,32.2,54.6,40.9,86c0.3-2.8,0.6-5.9,0.6-9c0-3.1-0.3-6.4-0.8-10.1
								c-0.3-2.5-1.1-5-1.7-7.6c-0.6-2.5-1.1-5-2-7.6c-1.4-5-3.1-10.1-5-14.8c-3.6-9.8-8.4-19.3-13.7-28.8
								c-5.3-9.2-11.8-18.2-18.8-26.6s-14.6-16.2-23-23.8c-8.4-7.3-17.1-14-26.3-19.9c-9.2-5.9-18.8-11.5-28.8-16
								c-9.8-4.5-20.2-8.7-30.5-11.8c-5-1.7-10.4-2.8-15.4-4.2c-2.5-0.6-5.3-1.1-7.8-1.7c-2.5-0.6-5.3-1.1-7.8-1.4
								c15.4,6.4,32.5,14,48.7,23c15.4,8.7,31.9,17.6,47.9,29.7C434.3,98.6,449.7,113.1,461.7,131z"/>
							<path fill="#FAF7F6" d="M461.7,131c16.2,24.9,30.8,52.1,39.8,81.8c-0.6-5.3-2-10.4-3.1-15.4c-0.6-2.5-1.4-5-2.2-7.6l-1.1-3.9
								l-1.4-3.6c-9.2-25.8-23.8-49.6-41.7-70.3c-17.9-20.7-39.2-38.4-62.4-52.9c26,14,49,33,68,55.7s33.9,48.7,43.7,76.7
								c-9-38.9-33-76.7-65.5-104.4c-8.1-7-16.8-13.2-25.8-19c-9-5.6-18.5-10.6-28-15.1c-9.8-4.2-19.6-8.1-29.4-11.2
								c-5-1.7-10.1-2.8-15.1-4.2c-2.5-0.6-5-1.1-7.6-1.7c-2.5-0.6-5-1.1-7.6-1.4c15.4,6.4,32.2,14,48.4,23
								c15.4,8.7,31.9,17.6,47.9,29.7C434.3,98.6,449.7,113.1,461.7,131z"/>
							<path fill="#F8F4F1" d="M397.3,73.9c26.6,17.6,49.3,40.9,66.9,67.5c17.4,26.6,30,56.8,36.4,88.8c0.8-2.8,1.7-5.9,2.2-9
								c-0.3-2.8-0.8-5.3-1.1-8.1c-9-29.7-23.5-56.8-39.8-81.8c-12-17.6-27.4-32.5-43.4-44.2c-16-12-32.5-21-47.9-29.7
								c-16.2-9-33-16.5-48.4-23c-2.8-0.6-5.6-0.8-8.4-1.4c-2.8-0.3-5.6-0.6-8.4-1.1c-19-2-38.1-1.4-56.8,1.4
								c-9.5,1.1-18.8,3.4-28,5.6c-9.2,2.5-18.2,5.3-26.9,9c-8.7,3.4-17.4,7.6-25.5,12c-8.1,4.8-16.2,9.5-23.8,15.1
								c-7.8,5.3-14.8,11.5-21.8,17.6c-6.7,6.4-13.4,13.2-19.6,20.2c-9.8,13.2-18.8,27.2-26.3,42c-7.6,14.8-13.7,30.8-18.5,47
								c-4.8,16.5-7.8,33.3-9.2,50.4c-1.4,17.1-1.1,34.4,1.1,51.5c-5.3-31.9-4.2-64.7,3.1-96.3c-9,34.7-10.6,71.4-3.9,107
								c6.2,30.8,19.6,59.1,37.8,83.2c3.1,1.7,6.4,3.9,10.9,7.3c4.2,3.4,9,7.8,14.8,13.4c9,9,18.5,17.1,28.8,24.6
								c10.4,7.3,21.3,13.7,33.3,18.2c3.1,1.7,1.1,3.6,7.6,7c-17.6-9-32.2-16.5-45.4-23.2c14.8,10.1,30.8,18.8,47.9,25.5
								c15.7,6.7,30.5,11.8,45.4,16c14.8,3.9,29.7,7,45.6,8.1c3.4,0,6.7-0.3,10.4-0.3c17.1-0.8,34.2-4.8,50.1-10.9
								c-3.4,0.8-6.7,1.4-10.1,2.2c-3.4,0.8-7,1.1-10.6,1.7c10.6-3.1,24.4-6.4,34.7-9.8c-4.5,2.2-9.2,3.9-13.7,5.9
								c16-3.9,31.1-9.5,47-17.4c-19,9.8-39.5,17.9-57.4,23.2c19.6-4.5,37.8-10.9,54.6-19.6c17.1-8.7,33-18.8,48.7-30.8
								c-0.6,0.8-1.4,1.7-2,2.2c20.4-19.3,36.7-42.6,48.2-68c11.5-25.5,18.5-53.2,20.7-82c0.3-3.4,0.3-6.7,0-9.5
								c-0.3-2.8-0.8-5.3-1.4-7.3c-1.4-4.2-3.1-7-5-8.7c-3.6-3.6-7.3-2.5-7.3,0.6c0.8,28.3-4.8,56.8-16,82.6s-28,49-48.7,68
								c-20.7,18.8-45.1,33.3-71.7,42.3c-26.3,9-54.6,12.3-82.3,10.4c12.3,2.8,25.2,4.5,38.6,4.8c2.8,0,5.6-0.3,8.4-0.3
								c2.8,0,5.3-0.3,8.1,0c-2.8,0-5.6,0.3-8.4,0.3c-2.8,0-5.6,0-8.1,0c-15.4,0.6-32.8,0.8-49-2.8c-1.4-0.6-4.8-1.1-7.8-1.7
								c-3.4-0.6-6.7-0.6-9,0.6c-10.9-3.4-22.7-6.7-34.4-11.5c-11.5-4.5-22.7-10.1-31.6-17.1c-1.1-0.8-2.5-2.5-4.2-4.8
								c-12-7.6-23.2-16.2-33.6-26c-29.1-27.7-49-63.6-57.1-101.6s-5.3-77.8,8.4-113.1c-7.6,16.5-13.2,33.6-16.8,50.1
								c-3.1,10.9-3.6,29.1-0.3,49c3.4,19.9,10.6,40.9,19.9,59.1c2.5,4.5,3.9,8.4,5.3,12c1.4,3.6,2.8,7.8,5.3,12
								c-3.4-3.4-6.2-7-9-10.9c-2.5-3.9-5.3-8.1-7.6-12.9c-4.8-9-8.4-19-11.5-29.4s-4.8-21.3-5.9-31.9c-1.4-10.6-1.7-21.6-2-31.9
								c0-13.7,1.7-29.1,5.6-44.5c3.9-15.4,9.8-31.1,17.4-45.9c7.8-14.8,17.1-28.8,27.2-41.7s21.3-24.4,31.9-34.4
								c9-8.7,19-15.1,29.4-19.9s20.7-7.8,30.2-9.8c-7,5-19,10.4-24.9,13.4c-26.9,13.4-50.7,33-69.4,56.8S77.3,187,70.8,216.7
								c4.5-15.1,10.4-29.7,17.4-43.4c7.3-13.7,15.7-26.6,25.5-38.4c19.3-23.5,44.2-42.8,72.5-54.3c-8.1,3.9-15.7,8.4-23.2,13.2
								c-7.3,4.8-14.8,9.8-21.6,15.4c-13.7,10.9-25.2,24.4-33,39.2c2.2-2,4.2-3.9,6.4-5.9c14.8-18.2,32.8-33.3,52.6-44.8
								c5.3-4.8,10.9-9,16.8-12.9c26-18.8,62.7-28.8,100.2-26.3c18.8,0.8,37.5,4.8,55.4,10.9c9,3.1,17.6,6.7,26.3,10.9
								c8.4,4.2,16.8,8.7,24.6,13.7c2.5,1.7,5.9,3.6,10.1,5.3c2,0.8,4.2,2.2,6.2,3.4c2.2,1.1,4.5,2.2,6.7,3.6
								c-18.5-16.2-39.5-29.7-62.7-38.4c9,4.5,17.1,9.2,24.1,15.1c-10.1-5.3-19.6-10.1-29.1-14.3c-4.8-2.2-9.8-3.9-14.8-5.6
								c-5.3-1.4-10.6-3.1-16.2-3.9c12.6,1.4,24.6,4.2,36.4,8.7c-13.4-6.4-29.1-10.6-44.8-13.7c15.7,0.6,30,5.3,43.7,10.9
								c13.7,5.9,26.6,12.9,41.2,19c-5.6-3.4-11.2-6.7-17.1-10.1c5.9,3.1,11.8,6.4,17.4,10.1c0,0-0.3,0-0.3-0.3
								c8.7,5.3,17.1,10.9,24.9,16.8c8.1,5.9,15.4,12,22.4,18.2c-12-12.9-24.4-24.6-37.8-34.7s-28.3-18.8-44.8-24.9
								c-2.8-1.1-5.6-1.7-8.4-2.8l-4.2-1.4l-4.2-1.1c1.4,0.3,2.8,0.6,4.2,1.1c1.4,0.6,2.8,0.8,4.2,1.4c2.8,0.8,5.6,1.7,8.1,2.8
								c38.1,13.4,71.7,39.2,95.2,71.7c23.8,32.5,37.8,71.1,41.2,110.6c0.6,2.5,0.6,5,0.8,7.6c1.1-2.2,2-4.8,2.8-7
								c-3.1-33-13.2-66.1-30.5-94.9c-8.7-14.6-18.8-28-30-40.3C423.6,94.4,411,83.4,397.3,73.9z"/>
						</g>
					</g>
				</g>
			</g>
		</g>
	</g>
	<g>
		<path fill="#86604E" d="M203.6,245.8l-2-31.9c-1.1-1.4-0.3-3.4,1.7-3.6c1.4-0.3,2.8-0.3,4.8-0.3h137.8c1.7,0,3.4,0,4.8,0.3
			c1.7,0.3,2.5,2.2,1.7,3.6l-2,31.9c0,0.3-19.9,0.3-19.9,0.6c-0.6,0.8-3.9,1.4-7.8,1.4h-91.3c-3.9,0-7-0.6-7.8-1.4
			C223.4,246.4,203.8,246.1,203.6,245.8z"/>
		<g>
			<g>
				<g>
					<g opacity="0.8">
						<g opacity="0.8">
							<path fill="#EEE8E6" d="M261.2,245c21.3-0.3,44,2,61.9-0.3c0.8,0,1.7-0.3,2.5-0.6c0.3,0,0.8-0.3,1.1-0.3s0.3-0.3,0.3-0.3l0,0
								c0.3,0.6,0.6,1.1,0.8,1.7c-0.3-0.6-0.6-1.1-0.8-1.7l0,0h-0.3c-0.3,0-0.8,0-1.1,0.3c-1.1,0-2.5,0-3.9,0l-4.5-0.3
								c-3.1,0-6.2-0.3-9.2-0.3c-6.2-0.3-12.3-0.3-18.5-0.6c-12.3-0.3-24.9-0.3-37,0c-7.6,0.3-15.1,0.8-22.7,1.4c-0.8,0-1.7,0-2.5,0
								c-0.8,0-1.7-0.3-2-0.3c-0.6,1.1-1.1,2-1.4,2.2l0,0l0,0c-0.3,0.6,2.2-5.3,1.1-2.8l0,0l0,0l0,0h-0.3c-0.3,0-0.8-0.3-1.4-0.3
								c-0.3,0-0.6,0-0.6,0h-0.3h-0.3h-0.8h-3.1c-3.9,0-8.1,0-12-0.3c-2,0-2,0.8-2.2,1.1c1.4,0.6,3.1,1.4,4.2,2
								c3.4,0,6.7,0,10.1-0.3h2.5c0.8,0,1.7,0,3.1,0c1.1,0.8,2.8,0.8,4.5,1.1c6.4,0,13.4-0.3,20.4-0.3
								C253.4,246.4,258.4,245,261.2,245z"/>
							<polygon fill="#E6DEDB" points="207.8,245.6 208,245.8 210,245.8 							"/>
							<path fill="#ECE6E3" d="M240.5,246.1c4.5-0.3,9-0.3,13.4-0.3c2.8-0.3,5.6-1.1,7.3-0.8c21.3-0.3,44,2,61.9-0.3
								c0.8,0,1.7-0.3,2.5-0.6c0.3,0,0.8-0.3,1.1-0.3s0.3-0.3,0.3-0.3l0,0c0-0.3,0.3,0.3,0.3,0.6c0,0.3,0.3,0.6,0.6,0.8
								c-0.3-0.3-0.3-0.6-0.6-0.8c0,0,0-0.3-0.3-0.6c0-0.3,0,0,0,0l0,0h-0.6c-0.3,0-0.8,0-1.4,0c-1.7,0-3.4,0-5.6,0
								c-2,0-4.2-0.3-6.2-0.3c-4.2-0.3-8.4-0.3-12.6-0.6c-0.6,0-0.8,0-1.4,0c-4.8,0.6-9.2-0.3-13.7-0.3c-13.2,0.6-24.1-0.3-37,0.3
								c-4.8,0.3-9.5,1.1-15.1,1.1c-2,0-3.6,0-5-0.3c-0.8,0-1.7,0-2.2-0.3H226l0,0l0,0l-0.3,0.6c0,0.3-0.3,0.6-0.3,0.6
								c0,0.3-0.3,0.3-0.3,0.6l-0.3,0.3c0,0,0,0-0.3,0.3l0,0l0,0c2.5-5.6,0.6-1.7,1.1-2.8l0,0l0,0h-0.3l-0.6-0.3
								c-0.3,0-0.8-0.3-1.1-0.3h-0.6h-0.3h-0.3h-0.8h-1.4h-2.8c-3.6,0-7.6,0-11.5-0.3c-0.8,0-1.4,0.3-1.7,0.3c0,0,0,0-0.3,0.3
								c0,0,0,0,0.3,0.3c0.3,0,0.3,0.3,0.6,0.3l0.3,0.3c0,0,0,0,0,0.3c0,0.3-0.3,0.3-0.3,0.6c-0.3,0.6-0.8,0.8-1.4,1.1
								c0.3-0.3,0.6-0.6,0.8-0.8c0.3-0.3,0.6-0.8,0.3-0.8s-0.3-0.3-0.6-0.3c-0.3,0-0.3,0-0.6,0l0,0h0.3l0.6,0.3l1.1,0.6
								c3.1,0.3,6.2,0.3,9.5,0.3c1.7,0,3.1,0,4.8,0h2.5c0.3,0,0.6,0,0.8,0c0.3,0,0.3,0,0.3,0l0,0l0,0l0,0c0.3,0.8,0,0.3,0,0.6l0,0
								h0.3l0,0c0,0,0.6,0.3,0.8,0.3c2.5,0.6,5.3,0.6,8.1,0.3c2.8,0,5.6-0.3,8.4-0.3C241.4,246.4,241.1,246.4,240.5,246.1z"/>
							<path fill="#E6DEDB" d="M241.1,247.5c0.8,0,1.7-0.6,0.3-1.1c-2.8,0-5.6,0.3-8.4,0.3s-5.6,0.3-8.1-0.3c2.2,0.8,5,0.8,7.8,0.8
								S238.3,247.2,241.1,247.5z"/>
							<path fill="#F4F0EE" d="M240.2,250.6c10.9,0.3,21.6-0.8,30.5,0c4.8,0.3,9.5,1.1,13.4,2c1.4,0,3.1,0,4.5,0
								c9.2-0.3,18.5-0.3,28-0.6h3.4c1.1,0,2.2,0,3.6,0c1.4,0,2.5-0.3,3.9-0.6c0.8-0.3,1.4-0.3,2.2-0.6c0.3,0,0.6-0.3,0.8-0.3
								l0.6-0.3c0.3-0.3,0.6-0.6,0.8-0.8l0.3-0.3c2.8,2.5-3.6-3.4-2.8-2.5c0.3,0.3,0.6,0.3,0.6,0.6c0.3,0.6,0.8,0.8,0.8,1.7
								c0.6,1.7-0.3,1.4-0.8,1.7c-0.3,0-0.6,0-0.6,0l0,0l0,0h0.3c4.5-0.3,9.2-0.3,13.7-0.3h2.8c1.1,0,2-0.3,2.8-0.6l2.2-0.8
								c0.8,0,0.8-1.1,1.1-2l0.3-1.1v-1.4l0.3-2.8l0.3-3.4l1.1-13.7l0.6-7l0.3-2.2c0-0.6,0.3-1.1,0.3-1.7c0-0.6,0-0.8,0-1.1
								c0-1.7-1.1-3.6-2.5-4.8c-0.6-0.6-1.7-0.6-2.5-0.8l-2.8-0.6l-2.8-0.6c-0.8,0-1.1,0-2,0l-7-0.3c-18.5-0.3-35.6,1.1-54.3,2.2
								c-11.2,0.3-20.2-0.8-31.1-1.4c-9.5-0.6-18.5-0.6-27.4-0.3c-4.5,0.3-9,0.6-13.4,0.8c-1.1,0-2.2,0-3.4,0.3l-4.5,0.8
								c-1.4,0-2.8,1.1-3.6,2.5c-0.3,0.6-0.6,1.4-0.3,2.2c0,0.3,0,0.6,0.3,1.1l0.3,1.1c0.6,3.9,1.1,8.1,1.7,12.3
								c0.6,3.9,1.1,8.1,1.4,12.3c0.8,7.6,4.5,8.1,4.2,6.4c-0.6-5.3-0.8-10.4-1.4-15.4c-0.3-5-0.8-10.1-1.1-14.8v-0.6L203,215
								c0-0.3,0-0.6,0-0.8c1.4-1.4,2-1.4,2.5-1.4l2-0.3h0.3h0.3h0.8h1.7c4.5,0,8.7,0,13.2,0c8.7,0,17.6,0,26.3,0
								c17.6,0,35.3,0,53.2-0.3c9-0.3,17.9-0.3,26.6-0.3c4.5,0,8.7,0,13.2,0c2.5,0,3.4,0.3,5,0.3c0.6,0,1.1,0.6,1.4,1.4
								c0,0.3,0,0.6-0.3,0.8c0,0.3,0,0.6,0,0.8c-0.6,8.4-1.4,17.1-2.2,25.5l-0.3,1.4v0.6c0,0.3-0.6,0-0.6,0h-1.4h-2.8l-6.4-0.3h-3.1
								h-1.7h-0.8l0,0c0,0-0.3,0-0.6,0s-0.6,0-0.8,0.3c-0.6,0.3-0.8,0.3-1.4,0.8c-0.3,0.3-0.3,0.3-0.6,0.6c-2.5-1.7,3.1,2.5,2.5,2
								l0,0c-0.3,0-0.3,0-0.6-0.3c-0.3-0.3-0.3-0.6-0.3-0.6c-0.3-0.6-0.6-1.1-0.8-1.7l0,0c0,0-0.3,0-0.3,0.3
								c-0.3,0.3-0.8,0.3-1.1,0.3c-0.8,0.3-1.7,0.6-2.5,0.6c-17.9,2.2-40.6,0-61.9,0.3c-2.8,0-7.8,1.4-12.3,1.4
								c-7,0-14,0.3-20.4,0.3c-1.7-0.3-3.4-0.3-4.5-1.1c-1.4-0.3-2,0-3.1,0h-2.5c-3.4,0-6.7,0-10.1,0.3c2.8,1.4,4.8,2.8,7.6,3.6
								c2,0,4.2-0.3,6.2-0.3h0.3c0.3,0-0.3,0-0.3,0l-0.3-0.3l0,0l0.8-1.1l0.3-0.6l0.3-0.3v-0.3c0.6-0.6-4.2,3.1-2.2,1.7
								c0.3,0.3,0.3,0.3,0.6,0.6c1.1,0.8,2,0.8,2.5,1.1c1.4,0.3,2.5,0.3,3.6,0.6c1.1,0,2.2,0,3.4,0h3.1
								C236.3,250.6,238.3,250.6,240.2,250.6z"/>
							<path fill="#E5DDD9" d="M240.2,250.6c-2,0-3.9-0.3-6.2-0.3H231c-1.1,0-2.2,0-3.4,0c-1.1,0-2.2-0.3-3.6-0.6
								c-0.6-0.3-1.4-0.3-2.5-1.1c-0.3-0.3-0.3-0.3-0.6-0.6c-2,1.4,2.8-2,2.2-1.7v0.3l-0.3,0.3l-0.3,0.6l-0.8,1.1l0,0l0.3,0.3h0.3
								H222c-2,0-4.2,0.3-6.2,0.3c1.4,0.6,2.8,0.8,4.5,1.1l2,0.3l0,0H222c-0.3,0-0.3,0-0.6,0c-0.3,0-0.3-0.3-0.6-0.3l0,0l0,0
								l0.6-0.8l0.8-1.7l0.6-0.8l0.3-0.3c0.8-0.8-7,5-3.6,2.8l0.3,0.3c0.3,0.3,0.3,0.3,0.6,0.6c0.3,0.3,0.6,0.3,0.8,0.6
								c0.3,0.3,0.8,0.6,1.1,0.6c2.2,1.1,3.6,1.1,5,1.4s3.1,0.3,4.5,0.3h3.9c5.3,0,10.6,0,16,0c10.9-0.3,21.8-0.6,32.2-0.8
								c-4.2-0.8-8.7-1.4-13.4-2C261.8,249.8,251.2,251.2,240.2,250.6z"/>
							<path fill="#ECE6E3" d="M240.2,250.6c-2,0-3.9-0.3-5.9-0.3s-3.9,0-6.2,0c-1.1,0-2.2-0.3-3.4-0.3c-0.6,0-1.1-0.3-2-0.6
								c-0.3-0.3-0.8-0.3-1.4-0.8c0,0-0.3-0.3-0.6-0.6v-0.3l0,0c4.5-3.4,1.1-0.8,2.2-1.7l-0.3,0.3l-0.3,0.6l-0.8,1.4c0,0.3,0,0,0,0
								c-0.3,0,0,0.3,0,0.3h0.3h-0.3h-0.8h-1.4h-3.1c1.4,0,2.8,0.3,3.9,0.3h1.1h0.6c-0.3,0-0.6,0-0.8-0.3h-0.3l0,0l0,0l0.3-0.6
								l0.6-0.8l0.6-0.8l0.3-0.6v-0.3l0,0l0,0c0.6-0.6-5.3,3.9-2.8,2c0,0.3,0.3,0.3,0.3,0.6c0.6,0.6,0.8,0.8,1.4,0.8
								c0.6,0.3,1.1,0.6,1.7,0.6c4.5,1.1,7.8,0.8,11.2,0.8h10.4c7,0,13.7,0.3,20.7,0.6c-7.3,0-14.8,0-22.1,0h-10.9
								c-1.7,0-3.9,0-6.2-0.3c-1.1,0-2.2-0.3-3.6-0.6c-0.8-0.3-1.4-0.3-2.8-1.4c-0.3-0.3-0.6-0.6-0.6-0.6l0.6,1.1
								c1.7-1.1-3.6,2.5,3.6-2.8l-0.3,0.3l-0.3,0.6l-1.4,2.5l-0.3,0.6l0,0l0,0l0,0l0.3,0.3c0.3,0,0.6,0.3,0.8,0.3c0.3,0,0.3,0,0,0
								H222h0.3H222c-0.3,0-0.8-0.3-0.8-0.6l0,0l0,0l0.6-0.8l2-3.4c-7.3,5.6-2,1.7-3.6,2.8l0,0l0,0l0.3,0.3c0.3,0.3,0.3,0.3,0.6,0.6
								c0.3,0.3,0.6,0.3,0.8,0.6l0.6,0.3c1.4,0.6,2,0.8,2.8,1.1c1.7,0.3,3.1,0.6,4.5,0.8c1.4,0,2.8,0.3,3.9,0.3h3.9
								c5,0,10.4,0,15.7,0c10.4-0.3,21-0.6,31.4-0.8c-4.2-0.8-8.7-1.4-13.4-2C261.8,249.8,251.2,251.2,240.2,250.6z"/>
							<path fill="#E3DAD6" d="M262.6,250c-8.4-0.3-16.5-0.6-24.9-0.6h-6.2c-2.2,0-4.5,0-6.7-0.6c-0.6-0.3-1.1-0.3-2-0.8l-0.3-0.3
								l-0.3-0.3l0,0l0,0c-0.3,0.3,2.5-2,1.4-0.8l-0.8,1.4h-0.3l0,0l0,0h-0.3h-3.1c-2,0-4.2,0-6.4,0c0.8,0.3,1.4,0.6,2.2,0.8
								c0.8,0,1.4,0,2,0.3h3.1h1.4h0.8h0.3h-0.3c0,0-0.3-0.3,0-0.3l0,0l0.8-1.4l0.3-0.6l0.3-0.3c-1.1,0.8,2.2-2-2.2,1.7l0,0v0.3
								c0.3,0.3,0.3,0.3,0.6,0.6c0.6,0.6,1.1,0.6,1.4,0.8c0.8,0.3,1.4,0.3,2,0.6c1.1,0.3,2.2,0.3,3.4,0.3c2.2,0,4.2,0,6.2,0
								s3.9,0,5.9,0.3c10.9,0.3,21.6-0.8,30.5,0c4.8,0.3,9.2,1.1,13.4,2c1.4,0,2.8,0,4.2,0c9.5-0.3,19-0.3,28.6-0.6
								c2.5,0,4.5,0,7.3-0.3c1.4,0,2.8-0.3,4.2-0.6c0.8-0.3,1.4-0.3,2.8-1.1l1.4-1.1l0,0c2.5,2.5-3.6-3.4-2.8-2.8l0.3,0.3
								c0.3,0.3,0.6,0.6,0.6,0.6c0.3,0.6,0.6,1.1,0.8,1.7c0,0.3,0.3,0.8,0,0.8c0,0-0.3,0-0.3,0.3c-0.3,0-0.6,0.3-0.8,0.3h-0.3l0,0
								l0,0h0.8c4.8,0,9.8-0.3,14.6-0.3c1.7,0,3.6-0.3,4.8-0.8c0.6-0.3,1.1-0.6,2-0.8c0.3-0.6,0.6-1.1,0.8-2c0-0.3,0.3-0.8,0.3-1.1
								v-1.4v-2.5v-3.1c0.3-4.2,0.3-8.7,0.8-12.9c0.3-2.2,0.3-4.2,0.6-6.4l0.3-3.6c0-0.8,0.6-2,0.6-2.5c0-0.8,0-1.4-0.3-2.2
								c-0.6-1.4-1.7-2.8-3.4-3.1l-4.8-0.8l-1.1-0.3c-0.3,0-0.6,0-0.8,0h-1.7l-3.4-0.3h3.1h1.4c0.6,0,0.8,0,1.7,0l4.8,0.6
								c0.8,0.3,1.7,0,2.2,0.6c0.6,0.3,1.1,0.8,1.7,1.7c0.8,1.4,1.4,2.8,1.1,4.2c-0.3,0.8-0.3,1.7-0.3,2.8v1.7l-0.3,6.2l0.6-6.7
								l0.3-2.2l0.3-1.7c0-0.6,0-0.8,0-1.1c0-1.7-1.1-3.4-2.5-4.5c-0.6-0.6-1.7-0.6-2.5-0.8l-2.8-0.6l-2.8-0.6c-0.6,0-0.8,0-1.1,0
								h-0.8l-6.7-0.3c-7.8,0-15.4,0-23,0.3c-1.7,0.8-3.9,1.4-8.1,1.7c-6.4,0.3-12.9,0.3-19.6,1.1c-0.8,0-0.8-0.6-2.5-0.8
								c5,0,9.2-0.3,13.2-1.1c-4.5,0.3-9.2,0.6-14,0.8c-8.7,0.3-16.2-0.3-24.4-0.8H257c-4.2,0-8.7,0.6-13.2,0.8c1.7,0,3.6,0,5.6,0
								c-2.8,0.3-6.4,0.3-9.2,0.3c1.4,0,2.5-0.3,3.9-0.3c-4.2,0-8.4,0-12.9-0.3c5.6,0,11.2-0.3,16-0.6c-10.1,0-19.6,0.3-29.4-0.3
								h0.8c-1.7,0-3.4,0.3-5,0.3l-2.5,0.3H210c-0.3,0-0.8,0-1.4,0.3l-3.4,0.6l-1.7,0.3c-0.6,0-1.1,0.3-1.4,0.6
								c-0.8,0.6-1.4,1.7-1.7,2.8c-0.3,1.1,0.3,2,0.6,3.4c0.6,3.9,1.1,8.1,1.7,12c0.6,3.9,1.1,8.1,1.4,12c0.8,7.6,4.5,8.1,4.2,6.4
								c-0.6-5-0.8-10.4-1.4-15.4c-0.3-5-0.8-9.8-1.1-14.8c0-0.3-0.3-0.6-0.3-1.1c0-0.3,0-0.8,0.3-1.1c0.6-0.6,1.4-0.3,2.2-0.6h1.1
								h2h4.2c5.3,0,10.9,0,16.2,0c10.9,0,21.6,0,32.5,0c-3.6-0.6-7.3-0.8-10.9-1.4c-1.7,0-3.1-0.3-4.5-0.6l4.5,0.6
								c4.2,0.3,9,0.3,13.7,0.6c0.8,0.3,3.6,0.3,4.8-0.3c6.4,0.6,14,0,20.2,0.6c0.3,0,1.1,0.3,1.7,0.6c3.9,0,8.1,0,12-0.3
								c11.2-0.3,22.4-0.3,33.3-0.3c2.8,0,5.3,0,8.1,0l2.8,0.3c0.8,0,1.7,0.6,1.7,1.4c0,0.6-0.3,0.8-0.3,1.1v1.4l-0.3,3.9l-0.6,8.1
								c0.3-2.5,0.8-5,1.1-7.6c0.3-1.1,0.3-2.5,0.6-3.6l0.3-1.7c0-0.6,0.3-0.8,0.3-1.4c0.6-0.6,0.6-1.4,0.3-2.2
								c-0.3-0.3-0.6-0.8-0.8-0.8c-0.3-0.3-0.8-0.3-1.4-0.3c-1.1,0-2.2-0.3-3.4-0.3c-1.4,0-2.5,0-3.9,0c-5.3,0.3-11.5,0.3-17.1,0.6
								c-2.8,0.3-4.5-0.6-7.3-0.6c4.8-0.8,10.4-1.1,16.2-1.1c2.8,0,5.9,0,8.7,0.3c2.8,0,5.9,0.3,8.7,0.6c0.8,0.3,1.7,1.1,1.7,2.2
								c0,0.6,0,1.1-0.3,1.4c0,0.6,0,1.1-0.3,1.7c-0.3,2-0.3,4.2-0.6,6.2c-0.3,4.2-0.8,8.7-1.1,13.2c-0.3,2.2-0.3,4.5-0.6,6.7
								c0,1.1-0.3,2-0.3,3.1c0,0.3,0,0.6,0,0.8c-0.3,0-0.6,0-0.8,0h-1.4c-2.2,0-4.2,0.3-6.4,0.3c-2.2,0-4.2,0.3-6.2,0.6
								c-0.8,0-1.7,0.3-2.5,0.3h-1.1h-0.6c0,0-0.3,0-0.3,0.3c-1.4,0.8-3.1,0.8-4.8,0.8c-3.1,0-5.9-0.6-8.7-0.8
								c2-0.6,5.6-0.3,7.6-0.3c1.1,0,2,0,3.1-0.3c0.6,0,0.8-0.3,1.4-0.3s0.8-0.3,0.8-0.3c0.3-0.3,0.6-0.3,0.8-0.6c0.3,0,0.3,0,0.3,0
								h0.3h0.8h1.7h3.1H350h0.6h0.3v-0.3V243l0.3-2.5l0.6-6.2c0.3-4.2,0.6-8.4,0.8-12.6c-0.6,4.2-0.8,8.7-1.4,12.9
								c-0.3,2-0.3,4.2-0.6,6.2l-0.3,2.2v0.6c0,0.3,0,0.3-0.3,0.3h-1.1c-3.9,0-7.8,0-11.8,0H334h-1.7c0,0,0,0-0.6,0
								c-0.3,0-0.6,0.3-0.8,0.3l-0.3,0.3l0,0c2.5,1.7,0.6,0.6,1.1,0.8l0,0c-0.3,0-0.3,0-0.6-0.3s-0.3-0.6-0.3-0.6c0-0.3-0.3,0-0.3,0
								c-1.4,0.3-3.6,0.6-5.6,0.3c1.1,0,2.2,0,3.4-0.3c0.6,0,1.1-0.3,1.7-0.3c0.3,0,0.6,0,0.6-0.3l0,0l0.3,0.3c0,0.3,0,0.3,0.3,0.6
								s0.3,0.3,0.3,0.3h0.3h0.3l0,0c1.4,0.8-1.7-1.1-1.4-1.1l0,0l0,0c0.3-0.3,0.6-0.6,0.8-0.6c0.3-0.3,0.8-0.3,0.8-0.3l0,0h0.6h0.8
								h2c1.1,0,2.5,0,3.6,0c2.5,0,5,0,7.3,0c0.8,0,1.4,0,2.2-0.3h0.6c0,0,0.3,0,0.3-0.3s0-0.8,0-1.1l-0.3,0.6c0,0,0,0.3-0.3,0.3
								h-2.5h-5h-5H334h-1.4h-0.3h-0.3l0,0c0,0-0.3,0-0.6,0s-0.8,0.3-1.1,0.3c-0.3,0.3-0.8,0.3-1.1,0.6c-0.3,0-0.3,0.3-0.3,0.3l0,0
								c-0.6-0.3,5,3.6,2.5,2l0,0l0,0l-0.3-0.3c-0.3-0.3-0.3-0.6-0.6-1.1c-0.3-0.3-0.3-0.6-0.6-0.8c0-0.3-0.3-0.8-0.3-0.6l0,0
								c0,0-0.3,0-0.3,0.3c-0.3,0.3-0.8,0.3-1.1,0.3c-0.8,0.3-1.7,0.6-2.5,0.6c-17.9,2.2-40.6,0-61.9,0.3c-1.7,0-4.5,0.6-7.3,0.8
								c7,0,13.7,0.3,20.7,0.3c-2.8-0.3-5.3-0.6-7.8-1.1c6.4,0,11.8,0.8,18.2,0.8c-3.6,0.3-7,0.3-10.4,0.3c4.2,0.3,8.7,0.6,12.9,0.6
								c-8.4,0.8-16.2-1.1-24.9,0c1.7,0,3.6,0,5.3,0c-2,0-3.6,0-5.6,0l0,0c-5.6,0-11.2,0.6-16,0.8c9.5,0,18.2,0.8,27.4,0.8h4.8
								c-1.7,0-3.1,0-4.8,0c-10.6,0.3-21.6,0-32.2-0.3l-8.1-0.3c-2.8,0-5.3,0-8.1-0.8c-0.6-0.3-1.4-0.3-2-0.6
								c-0.6-0.6-1.1-0.3-2-0.6l-3.9-0.3l-10.4,1.4h-2c0.6,0.3,1.1,0.6,1.7,0.8c4.2,0.3,8.7,0.3,13.2,0.6l0,0l0,0l0,0l0,0l0.3-0.3
								c-0.3,0,0.8-0.8-0.6,0.3c0.3,0.3,0.3,0.3,0.6,0.6c0.3,0.3,0.6,0.3,0.8,0.6c0.6,0.3,1.1,0.3,1.7,0.6c1.1,0.3,2.2,0.3,3.4,0.6
								c2.2,0.3,4.5,0.3,6.7,0.3C245,249.5,254,249.8,262.6,250z"/>
						</g>
					</g>
				</g>
			</g>
		</g>
	</g>
	<g>
		<path fill="#C69C6D" d="M224.3,335.4l-23.8-88.8c0-2.5,3.6-4.5,7.8-4.5h138.9c4.2,0,7.8,2,7.8,4.5l-23.8,88.8
			c0,2.5-3.6,4.5-7.8,4.5h-91C227.9,339.9,224.3,338,224.3,335.4z"/>
		<g>
			<g>
				<g>
					<g opacity="0.8">
						<g opacity="0.8">
							<path fill="#EEE8E6" d="M294,336.8c6.4,0,13.2,0,19.9,0c3.4,0,6.7,0,9.8,0.3c1.4,0,2.8-0.3,3.9-0.6c0.8-0.3,1.7-0.8,1.7-2
								c3.6-12.6,6.7-24.6,8.7-35.8c0.6-2.5,0.8-5,1.4-7.6l-1.1,3.6c-3.9,12.6-7.8,25.8-11.5,38.9l0,0l0,0c0,0-0.3,0.3-0.6,0.3
								c-0.6,0-1.1,0.3-1.7,0.3h-3.1c-4.2,0-8.4,0-12.6,0c-8.4,0-16.8,0-24.9,0.3c-9.2,0.3-18.5,0.8-28,1.4
								c-4.8,0.3-9.5,0.3-14.6,0.6c-2.5,0-5,0-7.6,0c-0.6,0-1.1,0-1.7,0c-0.6,0-0.8,0-1.4-0.3c-0.8-0.3-1.7-0.6-2.2-0.8
								c-0.3-0.3-0.3-0.3-0.8,0c0,0-0.6,0-0.8,0.3c-0.3,0.3-0.3,0.8,0.3,1.7c0.3,0.6,0.8,1.4,1.7,1.7c2,0.6,3.9,0.6,6.2,0.6l6.2-0.3
								c4.2,0,8.4-0.3,12.6-0.3c8.4-0.3,16.8-0.6,25.5-0.6C284.2,338.2,290.4,336.8,294,336.8z"/>
							<path fill="#E6DEDB" d="M227.6,338.5L227.6,338.5c1.1,0.6,1.7,0.6,2.5,0.8C229.6,339.1,228.5,339.1,227.6,338.5z"/>
							<path fill="#ECE6E3" d="M268.2,338.2c5.6-0.3,10.9-0.3,16.5-0.3c3.6-0.3,7-1.1,9-0.8c6.4,0,13.2,0,19.9,0
								c3.4,0,6.7,0,9.8,0.3c1.4,0,2.8-0.3,3.9-0.6c0.8-0.3,1.7-0.8,1.7-2c3.6-12.6,6.7-24.6,8.7-35.8c0.6-2.5,0.8-5,1.4-7.6
								l-1.1,3.9c-3.1,9.8-6.2,19.6-9,29.7c0,0.6-0.3,1.1-0.3,1.7c-0.3,2.5-1.1,5-1.7,7.3c0,0.3-0.3,0.3-0.6,0.3
								c-0.6,0.3-1.7,0.3-2.5,0.3c-16,0.6-29.7-0.3-45.6,0.3c-5.9,0.3-11.8,1.1-18.8,1.1c-2.2,0-4.5,0-6.7,0
								c-4.5,0.3-9,0.3-13.7,0.6c-2.2,0-4.5,0-7,0c-1.7,0-3.6-0.6-4.5-1.1c-0.3,0,0-0.3-0.3,0c0,0-0.3,0-0.3,0.3c0,0,0,0-0.3,0l0,0
								c-0.3,0-0.3,0-0.3,0c-0.3,0-0.3,0.8,0,1.7c1.1,1.1,3.1,1.7,4.8,1.7c1.7,0,3.9,0,5.6,0c3.9,0,7.8,0,11.8,0
								c6.7-0.3,13.7-0.6,20.7-0.6C269.1,338.2,268.8,338.2,268.2,338.2z"/>
							<path fill="#E6DEDB" d="M269.1,339.4c0.8,0,2.2-0.6,0.3-1.1c-7,0-13.7,0.3-20.7,0.6C255.4,339.1,262.1,339.1,269.1,339.4z"/>
							<path fill="#F4F0EE" d="M268,342.4c13.4,0.3,26.6-0.8,37.5,0c5.9,0.3,11.5,1.1,16.5,2h1.4c0.6,0,1.1,0,2,0
								c1.1,0,2.5-0.3,3.6-0.8c1.1-0.3,3.1-1.4,4.2-2.5c1.4-1.1,2.2-2.8,2.5-4.5c5.3-21.6,10.9-42.6,16.5-63.8l4.2-16l2.5-9
								c0.6-2.2-0.3-4.5-1.7-6.2c-1.4-1.7-3.9-2.8-5.9-3.1c-0.8-0.3-1.7-0.3-2.5-0.3c-0.6,0-0.8,0-1.4,0h-1.1h-4.2H334l-16.2-0.3
								c-22.7-0.3-43.7,1.1-66.9,2.2c-13.7,0.3-24.9-0.8-38.4-1.4c-1.1,0-2.2,0-3.1-0.3c-0.6,0-1.1,0-2,0c-0.6,0-1.4,0-2,0.3
								c-0.3,0-0.6,0-1.1,0.3c-0.3,0-0.8,0.3-1.4,0.3c-0.8,0.3-1.7,0.6-2.5,1.1c-1.4,0.8-2.8,2.2-3.6,3.6c-0.8,1.7-0.8,3.4-0.3,5
								l0.8,3.6c0.6,2,1.1,3.9,1.7,5.9c2.2,7.6,4.5,15.1,7,22.7c4.8,15.1,10.1,30,15.1,46.5c2.8,9,6.4,9.2,5.9,7
								c-8.1-27.7-15.4-54.6-22.4-81.8l-1.1-4.5c0-0.6-0.3-0.8,0-1.4c0.3-0.3,0.6-0.8,0.8-0.8c0.3-0.3,0.8-0.3,1.1-0.6
								c0.6-0.3,1.4-0.3,2-0.3c0.6,0,1.7,0,2.5,0h2.5c7,0,14,0,21,0c14,0,28.3,0,42.6-0.3c22.4-0.3,44-0.3,65.2-0.3h3.9h2
								c0.6,0,1.1,0,1.7,0.3c1.1,0.3,1.7,0.6,2.2,0.8c0.6,0.3,1.1,1.1,1.1,1.7c-1.4,4.8-2.8,9.2-4.2,14c-3.1,10.1-5.9,19.9-9,30
								c-0.6,2.5-0.8,5-1.4,7.6c-2,11.2-5,23.2-8.7,35.8c0,0.8-0.8,1.7-1.7,2c-1.1,0.6-2.5,0.6-3.9,0.6c-3.4,0-6.7,0-9.8-0.3
								c-6.7,0-13.4-0.3-19.9,0c-3.4,0-9.5,1.4-15.4,1.4c-8.7,0-17.1,0.3-25.5,0.6c-4.2,0-8.4,0.3-12.6,0.3l-6.2,0.3
								c-2,0-4.2,0.3-6.2-0.6c1.4,1.1,3.1,2,4.5,2.5c1.4,0.6,3.1,1.1,4.8,1.7C247.8,342.7,258.2,342.2,268,342.4z"/>
							<path fill="#E5DDD9" d="M268,342.4c-9.8-0.3-20.2,0-30.2,0.6c1.7,0.6,3.6,0.8,5.6,1.1c24.9,2,52.9,0.6,79,0.3
								c-5-0.8-10.9-1.4-16.5-2C294.6,341.9,281.4,343,268,342.4z"/>
							<path fill="#ECE6E3" d="M268,342.4c-9.5-0.3-19,0-28.8,0.6c3.4,0.3,6.7,0.3,10.1,0.3c17.1,0.3,34.2,0,51,0.8
								c-18.2,0-36.4,0-54.6,0c24.4,1.7,51.5,0.3,76.7,0c-5-0.8-10.6-1.4-16.5-2C294.6,341.9,281.4,343,268,342.4z"/>
							<path fill="#E3DAD6" d="M295.4,342.2c-20.4-0.6-40.9-0.8-61.9,0c0.8,0.3,1.7,0.6,2.8,0.8c0.8,0,1.7,0,2.5,0.3
								c9.8-0.6,19.3-0.8,28.8-0.6c13.4,0.3,26.6-0.8,37.5,0c5.9,0.3,11.5,1.1,16.5,2h1.4c0.6,0,1.1,0,1.7,0c1.1,0,2.2-0.3,3.6-0.6
								c1.1-0.3,3.1-1.1,4.5-2.5c1.4-1.1,2.5-2.8,2.8-4.8c5.3-20.7,10.6-41.4,16-62.2c1.1-5,2.2-10.1,3.4-15.1c0.6-2.5,1.4-5,2-7.6
								l0.6-2.2c0.3-1.1,0.6-2,0.6-3.1c0-2-1.4-3.9-3.1-5c-3.6-2.5-7.6-2.2-10.1-2.2l-8.1-0.3c-5.3-0.3-10.6-0.3-16-0.6
								c5,0,10.1,0,15.1,0h7.6h3.9c0.8,0,1.7,0,2.5,0.3c0.8,0,1.7,0.3,2.8,0.6c-1.4-0.6-2-0.6-3.1-0.8c-0.8-0.3-2-0.3-2.5-0.3H343
								h-8.4l-16.5-0.3c-9.5,0-19,0-28.3,0.3c-2,0.8-5,1.4-10.1,1.7c-8.1,0.3-16,0.3-24.4,1.1c-1.1,0-0.8-0.6-3.1-0.8
								c6.4,0,11.5-0.3,16.2-1.1c-5.6,0.3-11.5,0.6-17.1,0.8c-10.9,0.3-19.9-0.3-30-0.8h-3.4c-2.8,0-5.3,0.3-8.1,0.3
								c-1.1,0-3.1,0.3-4.8,0.6c-1.7,0.6-3.6,1.4-5,2.8c1.1-1.1,2.5-1.7,4.2-2.2c1.4-0.3,2.8-0.6,4.2-0.6c-1.1,0-2.2,0.3-3.4,0.6
								c-1.1,0.3-2.5,0.8-3.6,1.7c-1.1,0.8-2,1.7-2.5,3.1c-0.6,1.1,0,2.2,0.3,3.6c-0.3-1.1-0.8-2-0.6-3.1c0.3-1.1,0.8-2,1.4-2.8
								c-1.4,1.1-2.2,3.1-1.7,4.8c0.3,0.8,0.6,2,0.6,2.5l0.6,2c0.6,2.5,1.4,5,2,7.8c-0.8-3.4-1.7-6.7-2.8-9.8
								c-0.3-1.1-0.8-2.2-0.8-3.6c0-1.1,0.3-2.2,0.8-3.4c1.4-2,3.4-3.1,5.6-3.9c-2.5,0.6-4.8,2-5.9,3.9c-0.6,0.8-1.1,2.2-0.8,3.4
								c0,1.1,0.6,2.2,0.8,3.4c0.8,3.1,1.7,5.9,2.5,8.7c1.7,5.9,3.1,11.5,4.2,17.6l-0.3-0.8c5.3,16.8,11.2,33.3,16.8,51.5
								c2.8,9,6.4,9.2,5.9,7c-5.6-19.3-10.9-38.4-16-57.1c-2.5-9.5-5-18.8-7.6-28.3c0-0.6-0.6-1.1-0.3-1.7c0.3-0.6,0.8-0.8,1.4-1.1
								c0.3,0,0.6-0.3,0.8-0.3c0.6,0,0.8-0.3,1.4-0.3c0.8,0,2.2,0,3.4,0c4.8,0,9.8,0,14.6,0c-4.5-0.6-9-0.8-13.4-1.4
								c-2,0-3.9-0.3-5.3-0.3c1.7,0,3.6,0.3,5.3,0.3c5.3,0.3,11.2,0.3,16.8,0.6c1.1,0.3,4.5,0.3,5.9-0.3c7.8,0.6,17.1,0,24.9,0.6
								c0.6,0,1.1,0.3,2.2,0.6c5,0,9.8,0,14.8-0.3c14-0.3,27.7-0.3,41.2-0.3c6.7,0,13.4,0,20.2,0c3.4,0,6.4,0,9.8,0.3
								c0.6,0,1.4,0.3,2,0.3c0.6,0.3,0.8,0.3,1.4,0.6c0.8,0.3,1.7,1.1,1.1,2.2c0.6-0.8-0.3-1.7-0.8-2.2c-0.3-0.3-0.8-0.6-1.1-0.6
								c-0.6-0.3-1.1-0.3-2-0.6c-2.8-0.3-5.9-0.6-8.7-0.8c-7.6-1.1-24.1,0-37.8,0.3c-3.4,0.3-5.6-0.6-9-0.6c12-2,27.7-0.6,41.4-0.8
								c4.5,0,9.5,0,14.8,0.3c1.4,0.3,2.5,0.6,3.6,1.4c1.1,0.6,2.2,2,2,3.4c-0.8,2.5-1.4,5.3-2.2,7.8c-3.1,10.6-6.2,21.8-8.1,31.4
								c-1.7,8.1-4.2,15.4-6.7,21.6c0.3-2.5,1.4-6.7,2-9c2.8-9.8,5.6-19.6,8.1-29.7c1.4-5,2.8-9.8,3.9-14.8l2-7
								c0.3-1.1-0.6-2.2-1.4-2.8c-0.8-0.6-2-0.8-3.1-1.1c1.1,0.3,2.2,0.8,3.1,1.4c0.8,0.6,1.4,1.7,0.8,2.8c-0.8,2.5-1.4,4.8-2.2,7.3
								c-1.4,5-2.8,10.1-4.2,15.1c-2.8,10.1-5.9,20.2-9,30.2c3.1-12,7.3-23.8,9.5-35.3c-0.3,0.8-0.8,2-1.1,2.8
								c-2.5,7.8-4.8,15.7-7.3,23.5c-0.6,2.5-0.8,5-1.4,7.6c-2,11.2-5,23.2-8.7,35.8c0,0.8-0.8,1.7-1.7,2c-1.1,0.6-2.5,0.6-3.9,0.6
								c-3.4,0-6.7,0-9.8-0.3c-6.7,0-13.4-0.3-19.9,0c-2.2,0-5.6,0.6-9,0.8c8.4,0,17.1,0.3,25.5,0.3c-3.4-0.3-6.7-0.6-9.8-1.1
								c8.1,0,14.6,0.8,22.7,0.8c-4.2,0.3-8.7,0.3-12.9,0.3c2.5,0.3,5.3,0.3,7.8,0.3c1.4,0,2.8,0,3.9,0c1.4,0,2.5,0,3.9,0
								c-2.2,0.6-5,0.3-7.6,0.3c-2.5,0-5-0.3-7.6-0.3c-5-0.3-10.1-0.3-15.4,0.3c2.2,0,4.5,0,6.7,0c-2.2,0-4.5,0-6.7,0l0,0
								c-6.7,0-13.7,0.6-19.9,0.8c11.8,0,22.4,0.8,33.9,0.8c2,0,3.9,0,5.6,0c-2,0-3.9,0-5.6,0c-26.6,0.3-53.2-0.6-79.2-1.4
								c-0.8,0-1.7-0.3-2.5-0.6c0.6,0.6,1.1,1.1,2,1.4c1.4,0.3,2.8,0.3,4.2,0.3h4.2h8.1l16.5,0.3
								C273.8,341.3,284.8,341.6,295.4,342.2z"/>
						</g>
					</g>
				</g>
			</g>
		</g>
	</g>
	<g>
		<path fill="#86604E" d="M232.7,386.4l-14.6-59.1c0-1.7-2.5-2.8,1.1-2.8h106.4c3.6,0,6.7,1.4,6.7,2.8l-9,59.1
			c0,1.7-3.1,2.8-6.7,2.8h-77.3C235.8,389.2,232.7,388.1,232.7,386.4z"/>
		<g>
			<g>
				<g>
					<g opacity="0.8">
						<g opacity="0.8">
							<path fill="#EEE8E6" d="M283.9,386.4c7,0,14,0,21,0.3c3.6,0,7,0.3,10.4,0.3h1.4c0.3,0,0.8,0,1.1,0s0.8,0,1.1,0
								c0.3,0,0.6,0,0.8-0.3c0.8-0.3,2-0.8,1.7-2c0-1.1,0.3-2.2,0.3-3.4c0-1.1,0.3-2.5,0.3-3.6c0.3-2.5,0.3-4.8,0.3-7
								c0-2,0-3.6,0.3-5.6l-0.6,2.8c-1.1,5.3-2.2,10.6-3.4,16.2c0,0.3-0.3,0.3-0.6,0.3s-0.6,0-0.8,0c-0.3,0-0.6,0-1.1,0H313
								c-4.2,0-8.4,0-12.3-0.3c-8.4,0-16.5,0-24.6,0.3c-6.7,0.3-13.7,0.8-20.7,1.4c-3.6,0.3-7,0.3-10.6,0.6c-1.7,0-3.6,0-5.6,0
								c-1.4,0-3.1-0.3-3.6-0.8c-0.3,0,0-0.3-0.6,0.6c-0.3,0.3-0.3,0.3-0.6,0.3l-0.3,0.3c-0.3,0.3-0.3,0-0.3,0s0.3,0,0.6-0.3
								c0,0,0,0,0,0.3s0,0.6,0.3,0.8c0.3,0.6,0.8,1.1,1.1,1.4c1.4,0.3,2.8,0.3,4.5,0.3l4.5-0.3l9.2-0.3c6.2-0.3,12.3-0.6,18.8-0.6
								C276.9,387.8,281.4,386.4,283.9,386.4z"/>
							<path fill="#E6DEDB" d="M235.5,388.4L235.5,388.4c0.8,0.3,1.4,0.6,2,0.6C236.6,388.6,236,388.6,235.5,388.4z"/>
							<path fill="#ECE6E3" d="M265.2,387.5c4.2-0.3,8.1-0.3,12-0.3c2.5-0.3,5-1.1,6.7-0.8c7,0,14,0,21,0.3c3.6,0,7,0.3,10.4,0.3
								h1.4c0.3,0,0.8,0,1.1,0s0.8,0,1.1,0c0.3,0,0.6,0,0.8-0.3c0.8-0.3,2-0.8,1.7-2c0-1.1,0.3-2.2,0.3-3.4s0.3-2.5,0.3-3.6
								c0.3-2.5,0.3-4.8,0.3-7c0-1.7,0-3.6,0.3-5.6l-0.6,3.1c-1.1,5.3-2.2,10.6-3.1,16c0,0.3-0.3,0.3-0.6,0.3c0,0-0.3,0.3-0.6,0.3
								s-0.6,0.3-1.1,0.3s-1.1,0-1.7,0c-1.1,0-2,0-3.1,0c-2,0-4.2-0.3-6.2-0.3c-11.8,0.6-21.8-0.3-33.6,0.3
								c-4.2,0.3-8.7,1.1-13.7,1.1c-1.7,0-3.4,0-5,0c-3.4,0.3-6.7,0.3-10.1,0.6c-1.7,0-3.6,0-5,0s-2.8-0.3-3.1-0.8l0,0l0,0l-0.3,0.3
								c-0.3,0.3-0.6,0.6-0.6,0.6c-0.3,0.3-0.6,0.3-0.6,0.3c-0.3,0,0,0-0.3,0c0,0,0.6-0.3,0.3,0c0,0.3,0,0.6,0.3,0.8
								c0.8,0.6,2.2,0.8,3.6,1.1c1.4,0,2.8,0,4.2,0c2.8,0,5.6,0,8.7,0c5-0.3,10.1-0.6,15.1-0.6C265.7,387.8,265.4,387.8,265.2,387.5
								z"/>
							<path fill="#E6DEDB" d="M265.7,388.9c0.8,0,1.7-0.6,0.3-1.1c-5,0-10.1,0.3-15.1,0.6C255.6,388.4,260.7,388.6,265.7,388.9z"/>
							<path fill="#F4F0EE" d="M264.9,392c10.1,0.3,19.6-0.8,27.7,0c4.2,0.3,8.4,1.1,12.3,2c1.4,0,2.8,0,4.2,0l8.4-0.3
								c0.8,0,1.7,0,2.8-0.3c1.1-0.3,2.5-0.6,3.6-1.1c2.2-1.1,3.9-3.1,4.2-5.6c1.1-7.3,2-14.3,3.1-21.6c1.1-7,2-13.7,3.1-20.7
								L336,334l0.3-2.5c0-1.1,0.6-3.1,0.6-4.2c0-0.8,0-1.4-0.3-2s-0.6-1.1-1.1-1.7c-0.8-1.1-2.2-1.7-3.6-2.2
								c-1.4-0.6-3.1-0.8-4.2-0.8s-2,0-2.8,0h-5.3l-10.4-0.3c-16.8-0.3-32.2,1.1-49.3,2.2c-10.1,0.3-18.2-0.8-28-1.4
								c-1.7,0-3.1-0.3-4.8-0.3c-0.8,0-1.7,0-2.5,0c-1.4,0-2.8,0-4.2,0c-1.4,0-2.5,0.3-3.6,0.6c-0.8,0.3-1.7,0.8-2.2,1.7
								c-0.3,0.8-0.3,1.1-0.6,2.2c0,0.6,0,1.1,0.3,2v0.6c0,0,0,0.3,0.3,0.3c0.3,0,0,0.3,0,0.3c0,0.3,0,0.3,0,0.6v0.3
								c0,0,0.3,0.3,0,0.3c0.3,0.8,0.6,2,0.8,2.8l0.3,1.1l0.3,0.8l0.8,3.1c0.6,2,1.1,4.2,2,6.2c1.4,3.9,2.8,8.1,3.9,12.3
								c2.8,8.1,5.6,16.5,8.4,25.5c2,6.4,5.6,6.4,5.3,5c-2.8-9.5-5.3-19-7.6-28.6c-2.2-9.2-4.5-18.2-6.7-27.4
								c-0.3-0.6-0.3-1.4-0.6-2c-0.3-0.3,0.3-0.6,0.6-0.6h1.1h6.4c5.3,0,10.9,0,16.2,0c10.9,0,21.8,0,33-0.3
								c16.2-0.3,32.2-0.3,47.9,0c0.8,0,1.4,0,2,0.3s1.1,0.3,1.4,0.8c0.3,0.3,0.3,0.3,0.6,0.6c0,0.3,0,0.6,0,0.8l-0.3,2l-2,11.5
								c-1.4,7.6-2.8,15.1-4.5,22.4c0,2,0,3.6-0.3,5.6c0,2.2-0.3,4.8-0.3,7c0,1.1-0.3,2.5-0.3,3.6c0,1.1-0.3,2.2-0.3,3.4
								c0.3,1.1-0.8,1.7-1.7,2c-0.3,0-0.6,0-0.8,0.3c-0.3,0-0.6,0-1.1,0c-0.3,0-0.8,0-1.1,0h-1.4c-3.4,0-7-0.3-10.4-0.3
								c-7-0.3-14-0.3-21-0.3c-2.5,0-7,1.4-11.2,1.4c-6.2,0-12.6,0.3-18.8,0.6l-9.2,0.3l-4.5,0.3c-1.4,0-3.1,0-4.5-0.3
								c0.8,0.8,2,1.7,3.4,2.2c1.1,0.6,2.2,1.1,3.6,1.7C250.3,392,257.6,391.7,264.9,392z"/>
							<path fill="#E5DDD9" d="M264.9,392c-7.3-0.3-14.8,0-22.1,0.6c1.1,0.6,2.5,0.8,4.2,1.1c18.2,2,38.9,0.6,58,0.3
								c-3.6-0.8-7.8-1.4-12.3-2C284.5,391.2,275,392.3,264.9,392z"/>
							<path fill="#ECE6E3" d="M264.9,392c-7-0.3-14,0-21.3,0.6c2.5,0.3,4.8,0.3,7.3,0.3c12.6,0.3,25.2,0,37.5,0.8
								c-13.4,0-26.6,0-40,0c17.9,1.7,37.8,0.3,56.3,0c-3.6-0.8-7.8-1.4-12-2C284.5,391.2,275,392.3,264.9,392z"/>
							<path fill="#E3DAD6" d="M285.3,391.4c-15.1-0.6-30-0.8-45.4,0c0.6,0.3,1.4,0.6,2,0.8c0.6,0,1.4,0,2,0.3
								c7.3-0.6,14.3-0.8,21.3-0.6c10.1,0.3,19.6-0.8,27.7,0c4.2,0.3,8.4,1.1,12,2c1.4,0,2.5,0,3.9,0l8.7-0.3c0.8,0,2,0,2.8-0.3
								c1.1-0.3,2.5-0.6,3.6-1.1c2.2-1.1,4.2-3.1,4.2-5.6c0.8-5.9,1.7-11.8,2.5-17.9c0.8-5.6,1.7-11.5,2.5-17.1
								c0.3-3.6,0.6-7.6,1.1-11.2c0.3-2,0.6-3.9,0.8-5.9l0.3-2.8l0.3-2c0-0.8,0.3-1.7,0.3-2.2c0-0.8,0-1.4-0.3-2s-0.8-1.4-1.1-1.7
								c-1.1-1.1-2.5-1.7-3.9-2.2c-1.4-0.6-3.1-0.6-4.2-0.6h-3.1c-3.9,0-7.8-0.3-11.8-0.6c3.6,0,7.3,0,10.9,0h2.8h1.4h0.8h1.1
								c3.1,0.6,6.2,1.7,7.6,4.5c-1.4-3.1-5-4.5-8.4-4.8c-0.8,0-1.4,0-2,0h-1.4h-3.1c-4.2,0-8.1-0.3-12.3-0.3c-7,0-14,0-20.7,0.3
								c-1.4,0.8-3.6,1.4-7.6,1.7c-5.9,0.3-11.8,0.3-17.9,1.1c-0.8,0-0.6-0.6-2.2-0.8c4.8,0,8.4-0.3,11.8-1.1
								c-4.2,0.3-8.4,0.6-12.6,0.8c-7.8,0.3-14.6-0.3-22.1-0.8h-2.2c-2,0-3.9,0.3-5.9,0.3c-2.2,0.3-4.2,0.3-6.4,0.6
								c1.7,0,3.6,0,5.3,0c-1.4,0.3-2.5,0.3-4.5,0.3s-4.2,0-5.6,0.3c1.1-0.3,2.8-0.6,4.5-0.6c-1.4,0-2.5,0-3.9,0
								c-1.1,0.3-2.2,0.3-3.1,0.8c-0.6,0.3-0.8,0.8-0.8,1.1s0,0.8,0,1.1c0,0.6,0,1.1,0,1.7v0.6c0,0.3,0,0.3,0.3,0.6
								c0,0.3,0,0.6,0.3,0.8c0.3,0.6,0.3,0.8,0.3,1.4c0-0.6-0.3-0.8-0.3-1.4c0-0.3,0-0.3-0.3-0.6v-0.3l-0.3-0.3v-0.3
								c0-0.6-0.3-0.8-0.3-1.1c0-0.8,0-1.4,0-2c0-0.3,0-0.6,0-0.8c0-0.3,0.3-0.6,0.6-0.8c0.6-0.3,1.1-0.6,1.7-0.8
								c1.1-0.6,3.1-0.6,4.5-0.6c0.8,0,1.7,0,2.5,0c0.6,0,1.1,0,1.4,0c-1.4,0-3.1,0-4.5,0c-1.7,0-3.6,0-4.8,0.6
								c-0.6,0.3-1.1,0.6-1.7,0.8c-0.6,0.6-0.6,1.1-0.6,1.7s0,1.1,0,2c0,0.3,0.3,0.8,0.3,1.4c0,0,0.6,0.3,0.3,0.3v0.3c0,0,0,0,0,0.3
								v0.3c0,0,0.3,0.3,0,0.3c0.3,0.8,0.3,1.7,0.6,2.5l0.3,1.7c0.3,1.1,0.6,2.2,0.8,3.4c0.6,2.2,0.8,4.5,1.4,6.7l-0.3-0.6
								c3.9,12.3,8.4,24.4,12.3,37.8c2,6.4,5.6,6.4,5.3,5c-2.8-9.5-5.3-19-7.6-28.3c-2.2-9.2-4.5-18.2-6.7-27.2
								c-0.3-0.6-0.3-1.1-0.6-1.7l-0.3-0.3c0-0.3,0.3-0.3,0.3-0.3c0.3,0,0.6,0,0.8,0h4.8c4.8,0,9.5,0,14,0l-9.8-1.4
								c-1.4,0-2.8-0.3-4.2-0.6l4.2,0.6c3.9,0.3,8.1,0.3,12.3,0.6c0.8,0.3,3.4,0.3,4.2-0.3c5.6,0.6,12.6,0,18.2,0.6
								c0.3,0,0.8,0.3,1.7,0.6c3.6,0,7.3,0,10.9-0.3c10.1-0.3,20.2-0.3,30.2-0.3c5,0,9.8,0,14.8,0c1.1,0,2.5,0,3.4,0
								c0.8,0,1.4,0.3,2,0.6c0.6,0.3,1.1,0.8,0.8,1.7l-0.6,2.5l0.3-0.8c0-0.3,0-0.3,0.3-0.6l0.3-1.1c0.3-0.8,0-1.4-0.6-2
								c-1.1-0.8-2.5-1.4-4.8-1.7c-5.6-1.1-17.6,0-27.7,0.3c-2.5,0.3-3.9-0.6-6.4-0.6c9-2,20.2-0.6,30.2-0.8c1.7,0,3.4,0,5.3,0
								c2,0,3.9,0.6,5.3,1.7c0.3,0.3,0.8,0.6,0.8,1.1s0,1.1-0.3,1.4c-0.3,0.8-0.3,2-0.6,3.1c-0.3,2-0.8,3.9-1.1,5.9
								c-1.4,8.1-2.8,16.2-3.4,23.5c-0.3,6.2-2,11.5-3.4,16.2c-0.3-2,0.3-5,0.6-6.7l3.6-22.1l1.7-11.2l0.8-5.6l0.3-2.5l0.3-1.1
								c0-0.3-0.3-0.8-0.6-1.1c0.6,0.6,0.3,1.7,0,2.2l-0.6,2.5c-0.3,2-0.8,3.9-1.1,5.6c-0.6,3.9-1.4,7.6-2,11.5
								c-1.4,7.6-2.5,15.1-4.5,22.7c1.4-9.2,3.6-17.9,3.9-26.6c-0.3,0.6-0.6,1.4-0.8,2.2c-1.1,5.9-2.2,11.8-3.6,17.6
								c0,2,0,3.6-0.3,5.6c0,2.2-0.3,4.8-0.3,7c0,1.1-0.3,2.5-0.3,3.6c0,1.1-0.3,2.2-0.3,3.4c0.3,1.1-0.8,1.7-1.7,2
								c-0.3,0-0.6,0-0.8,0.3c-0.3,0-0.6,0-1.1,0c-0.3,0-0.8,0-1.1,0H313c-3.4,0-7-0.3-10.4-0.3c-7-0.3-14-0.3-21-0.3
								c-1.7,0-3.9,0.6-6.7,0.8c6.2,0,12.3,0.3,18.8,0.3c-2.5-0.3-5-0.6-7-1.1c5.9,0,10.6,0.8,16.5,0.8c-3.1,0.3-6.4,0.3-9.5,0.3
								c3.6,0.3,7.8,0.6,11.8,0.6c-7.6,0.8-14.8-1.1-22.4,0c1.7,0,3.4,0,5,0h-5l0,0c-5,0-10.1,0.6-14.6,0.8c8.7,0,16.5,0.8,24.9,0.8
								h4.2c-1.4,0-2.8,0-4.2,0c-19.3,0.3-38.9-0.6-58.2-1.4c-0.6,0-1.1-0.3-1.7-0.3c0.6,0.6,0.8,0.8,1.4,1.1
								c2.2,0.3,4.2,0.3,6.2,0.3h6.2l12,0.3C269.4,390.9,277.2,391.2,285.3,391.4z"/>
						</g>
					</g>
				</g>
			</g>
		</g>
	</g>
	<g opacity="0.53">
		<path fill="#FFFFFF" d="M342.2,166.3h-128c-4.5,0-8.4-3.6-8.4-8.4v-8.7c0-4.8,3.9-8.4,8.4-8.4h128c4.5,0,8.4,3.6,8.4,8.4v8.7
			C350.6,162.4,346.6,166.3,342.2,166.3z"/>
		<g>
			<g>
				<g>
					<g opacity="0.8">
						<g opacity="0.8">
							<path fill="#FFFFFF" d="M325.6,143.6c-19,0.3-38.9-1.7-55.2,0.3c-1.7,0.3-3.6,0.6-5.3,0.6l2.8,0.3c21,1.4,44,1.7,65.2,1.1
								c3.1-0.3,6.2-0.3,9.2-0.6c1.4,0,3.1,1.1,3.6,2.8c0.3,0.6,0.3,2.8,0.3,4.5s0.3,3.4,0.3,5.3c0,2-1.4,4.2-3.6,4.8
								c-0.8,0.3-1.1,1.1-1.1,1.4c1.1,0.6,2.2,0.8,3.6,0.8c2.5-1.4,3.9-4.2,3.9-7l-0.3-9c-0.3-2.5-2-5-4.2-5.9
								c-1.1-0.6-2.2-0.6-3.9-0.6c-1.4,0-3.1,0-4.5,0C332.6,142.2,328.2,143.9,325.6,143.6z"/>
							<path fill="#FFFFFF" d="M345.5,165.2L345.5,165.2c0.8-0.3,1.1-0.6,1.7-0.8C346.6,164.4,346.1,164.9,345.5,165.2z"/>
							<path fill="#FFFFFF" d="M343.6,142.8c-1.4-0.3-3.6,0-5.6,0s-3.9,0-5.9,0c-2.5,0.3-5,1.1-6.4,0.8c-19,0.3-38.9-1.7-55.2,0.3
								c-1.7,0.3-3.6,0.6-5.3,0.6l3.1,0.3c7.3,0.6,14.8,0.8,22.4,1.1c0.3,0,0.8,0,1.1,0c4.2-0.6,8.1,0.3,12.3,0.3
								c11.5-0.6,21.3,0.3,33-0.3c1.1,0,2,0,3.1-0.3c0.6,0,1.1,0,1.7-0.3c0.3,0,0.6,0,0.6,0h0.3c1.1,0,2.5,0.3,3.1,1.7
								c0.6,0.8,0.8,1.7,0.6,2.5l0.3,4.8v2.5v1.1c0,0.3,0,0.6,0,0.8c0,2-1.7,3.9-3.6,4.2c-0.8,0.3-1.1,0.8-1.1,1.4
								c0.6,0.3,1.1,0.6,1.7,0.6c2.2-0.6,4.5-2.2,5.3-4.8c0.6-1.1,0.3-2.2,0.3-3.9c0-1.4,0-2.8,0-4.2c0-1.1,0-2.5-0.3-3.6
								c-0.3-1.1-0.6-2-1.1-3.1c-1.1-1.7-3.1-3.1-5-3.1C343.3,142.5,343.3,142.5,343.6,142.8z"/>
							<path fill="#FFFFFF" d="M343.6,141.4c-0.8,0-1.4,0.6-0.6,1.1c2,0.3,3.9,1.4,5,3.1c0.6,0.8,1.1,2,1.1,3.1c0,1.1,0,2.5,0.3,3.6
								c0-1.1,0-2.5,0-3.6c0-1.1-0.3-2.2-0.8-3.1C347.8,143.6,345.8,142,343.6,141.4z"/>
							<path fill="#FFFFFF" d="M345,138.6c-1.7-0.6-3.4-0.6-4.2-0.6c-1.1,0-2.5,0-3.6,0c-2.2,0-4.8,0-7,0.3c-4.5,0-9,0.3-12.9-0.3
								c-4.2-0.3-8.4-1.1-12-2c-1.4,0-2.8,0-3.9,0c-16.5,0.3-33,0.6-49.3,0.6c-8.1,0-16.5,0-24.6,0l-12.3-0.3h-0.8h-1.1
								c-0.8,0-1.7,0.3-2.2,0.3c-1.4,0.3-3.1,1.1-4.2,2c-2.5,1.7-4.5,4.5-5.3,7.6c-0.3,0.8-0.3,1.7-0.3,2.2c0,0.8,0,1.1,0,1.7v3.1
								v3.1v1.7c0,0.8,0,1.4,0.3,2.2c0.6,3.1,2.5,5.6,4.8,7.6c2.2,1.7,5.6,2.5,8.1,2.5c7.8-0.6,16-1.1,24.1-1.7
								c9.8-0.3,17.9,0.8,27.4,1.4c24.1,1.7,45.1-2,69.7-3.1c6.7-0.3,7.6-3.9,5.9-3.9c-41.4,1.4-80.4,0-121.8,0.8c-2,0-3.9,0-5.9,0
								c-1.4,0-2.8-0.6-4.2-1.4c-1.1-0.8-2-2.2-2.2-3.6c0-0.3,0-0.8,0-1.1v-1.4v-2.8v-2.8c0-0.6,0-1.1,0-1.4c0-0.3,0-0.8,0-1.1
								c0.3-1.4,1.1-2.8,2.2-3.6s2.5-1.4,3.9-1.4h5.6c15.4,0.3,30.2,0.8,45.1,1.7c2-0.3,3.6-0.6,5.3-0.6c16.2-2.2,36.1,0,55.2-0.3
								c2.5,0,7-1.4,10.9-1.4c1.7,0,3.1,0,4.5,0c1.4,0,2.5,0,3.9,0.6c2.2,1.1,3.9,3.4,4.2,5.9l0.3,9c0,2.8-1.4,5.6-3.9,7
								c2.5,0,5.6-1.1,7.6-4.2c0.3-0.6,0.3-1.1,0.3-2c0-0.6,0-1.4,0-1.7l-0.3-2.8c0-2-0.3-3.6-0.3-5.6
								C352.8,144.2,349.4,140,345,138.6z"/>
							<path fill="#FFFFFF" d="M345,138.6c4.5,1.4,7.8,5.6,8.1,10.6c0,1.7,0.3,3.6,0.3,5.6l0.3,2.8c0,0.3,0,1.1,0,1.7s0,1.4-0.3,2
								c0.6-0.8,0.8-1.7,1.1-2.5s0.3-1.4,0.6-2.2c0.3-2.2,0.6-4.5,0.6-6.7c0.3-3.6-1.4-7.6-4.2-10.1c-1.4-1.4-3.1-2.2-5-2.8
								c-0.8-0.3-2-0.6-2.8-0.6h-1.4h-0.8c-2.5,0-4.8,0-7.3,0c-9.5,0.3-19.3,0.6-28.6,0.8c3.6,0.8,7.8,1.4,12,2
								c3.9,0.3,8.4,0.3,12.9,0.3c2.2,0,4.5,0,7-0.3c1.1,0,2.2,0,3.6,0C341.6,138,343.6,138,345,138.6z"/>
							<path fill="#FFFFFF" d="M345,138.6c4.2,1.4,7.6,5.3,8.1,9.8c0,1.7,0.3,3.6,0.3,5.3l0.3,2.5v1.4c0,0.6,0,1.1,0,1.7
								c0.3-1.7,0.3-2.8,0.3-3.9c0-1.1,0-2.5,0-3.6v-2.2c0-0.3,0-0.8,0-1.4c0-0.6,0-1.1-0.3-1.7c-0.6-2.2-1.7-4.2-3.1-5.9
								c-1.4-1.7-3.4-2.8-5.6-3.4c-1.1-0.3-2.2-0.3-3.1-0.3h-2.2c-6.2,0-12.3-0.3-18.2-0.6H341h1.1c0.6,0,1.1,0,2,0.3
								c1.1,0.3,2.5,0.6,3.6,1.1c2.2,1.1,4.2,2.8,5.6,4.8c1.4,2,2,4.8,2,7v5c0-1.1,0.3-2.2,0.3-3.4v-1.7c0-0.6,0-1.7,0-2.5
								c-0.6-3.6-2.5-7-5.6-9c-1.4-1.1-3.4-1.7-5-2.2c-0.8-0.3-2-0.3-2.8-0.3h-1.7c-2.2,0-4.8,0-7,0c-9.2,0.3-18.8,0.6-27.7,0.8
								c3.6,0.8,7.8,1.4,12,2c3.9,0.3,8.4,0.3,12.9,0.3c2.2,0,4.5,0,7-0.3c1.1,0,2.2,0,3.6,0C341.6,138,343.6,138,345,138.6z"/>
							<path fill="#FFFFFF" d="M324.5,138.6l10.9,0.3h5.6c0.8,0,2,0,3.1,0.3s2.2,0.6,3.1,1.1c2,1.1,3.4,2.8,4.2,5
								c0.3,1.1,0.6,2.2,0.6,3.4v2.8c0,2,0,3.6,0,5.6c0.3,2-0.3,4.5-1.7,6.4c0.8-0.6,1.4-1.1,2-1.7c0.3-0.8,0.6-1.7,0.8-2.5
								c0-0.6,0-1.1,0-1.7v-1.4l-0.3-2.5c0-2-0.3-3.6-0.3-5.3c-0.3-4.5-3.6-8.4-8.1-9.8c-1.7-0.6-3.4-0.6-4.2-0.6
								c-1.1,0-2.5,0-3.6,0c-2.2,0-4.8,0-7,0.3c-4.5,0-9,0.3-12.9-0.3c-4.2-0.3-8.4-1.1-12-2c-1.4,0-2.5,0-3.6,0
								c-16.8,0.3-33.6,0.6-50.4,0.6c-7.3,0.6-14.8,0.8-22.7,0.8c-3.9,0-7.8,0-11.5-0.3h-3.1c-1.4,0-2.8,0.3-3.9,0.6
								c-2.5,0.8-5,2.8-6.4,5c1.4-2.2,3.4-4.2,5.9-5c1.1-0.6,2.5-0.8,3.9-0.8h1.1h0.6h1.4c3.6,0,7.3,0,10.9-0.3l-12-0.3h-0.8h-1.1
								c-0.8,0-1.4,0.3-2.2,0.3c-1.4,0.3-2.8,1.1-4.2,2c-2.5,1.7-4.5,4.2-5.3,7.3c-0.3,0.6-0.3,1.4-0.3,2s0,1.4,0,1.7v2.5
								c0,1.7,0,3.4,0,5c0,0.3,0,1.1,0,1.7s0.3,1.4,0.3,2c0.3,1.1,0.8,2.5,1.7,3.6c1.4,2.2,3.4,3.9,5.6,4.8c1.1,0,2.5,0,4.2,0
								l1.1-0.3l1.1-0.3c0.8,0,1.7-0.3,2.5-0.3c5.9-0.3,11.5-0.3,17.4-1.1c0.8,0,0.6,0.6,2.2,0.8c-4.5,0-8.4,0.3-11.5,1.1
								c3.9-0.3,8.1-0.6,12.3-0.8c7.8-0.3,14.3,0.3,21.6,0.8h2.2c3.9,0,7.8-0.6,11.8-0.8c-1.7,0-3.1,0-4.8,0
								c2.5-0.3,5.9-0.3,8.4-0.3c-1.1,0-2.2,0.3-3.4,0.3c3.9,0,7.6,0,11.5,0.3c-4.8,0-9.8,0.3-14,0.6c9,0,17.4-0.3,26.3,0.3h-0.6
								c12.6-0.8,25.2-2.2,38.9-3.1c6.7-0.3,7.6-3.9,5.9-3.9c-28.8,1.1-56.6,0.6-84.8,0.6l9.5,1.4c1.4,0,2.8,0.3,3.9,0.6l-3.9-0.6
								c-3.9-0.3-8.1-0.3-12-0.6c-0.8-0.3-3.1-0.3-4.2,0.3c-5.6-0.6-12.3,0-17.9-0.6c-0.3,0-0.8-0.3-1.7-0.6c-3.6,0-7,0-10.6,0.3
								h-3.6h-2c-0.6,0-0.8,0-1.4,0c-1.7-0.3-3.4-1.4-4.2-3.1c-0.6-0.8-0.6-1.7-0.8-2.5c0-1.1,0-2.5,0-3.6v-3.6v-1.7
								c0-0.6,0-0.8,0.3-1.4c0.6-1.7,1.7-3.4,3.4-4.2c0.8-0.3,1.7-0.6,2.5-0.6c1.1,0,2.2,0,3.4,0c4.8,0,9.5,0.3,14.3,0.3
								c-4.5-0.6-9-0.8-13.2-1.4c-1.4-0.3-3.1-0.3-5-0.3c-2,0-3.9,1.1-5.3,2.8c-0.6,0.8-1.1,2-1.4,3.1c-0.3,1.1,0,2.2,0,3.6
								c0,2.5,0.3,5.3,0.3,7.6c0.6,2,0.6,3.6,2.2,5.3c-2-0.8-3.4-3.1-3.6-5.6c-0.3-2.5-0.3-5-0.3-7.6c0-1.1,0-2.5,0.6-3.9
								c0.3-1.4,1.1-2.5,2-3.4c1.7-2,4.5-2.8,7-2.8c13.2-0.3,31.6,1.4,45.9,0.3c5.9-0.6,11.5,0.3,16.2,0.8c-1.7,0.3-5,0.3-6.7,0.3
								c-14.8-0.3-29.4-0.6-44.2-0.3c15.4,0.8,30.2,0.6,45.6,1.7c-9,0-17.9-1.1-26.3,0c0.6,0.3,1.4,0.3,2.2,0.6
								c5.9,0.3,11.8,0.6,17.6,0.8c2-0.3,3.6-0.6,5.3-0.6c16.2-2.2,36.1,0,55.2-0.3c1.7,0,3.9-0.6,6.4-0.8c-6.2,0-12.3-0.3-18.2-0.3
								c2.5,0.3,4.8,0.6,7,1.1c-5.9,0-10.4-0.8-16.2-0.8c3.1-0.3,6.2-0.3,9.2-0.3c-3.6-0.3-7.6-0.6-11.5-0.6
								c7.6-0.8,14.6,1.1,22.1,0c-1.7,0-3.1,0-4.8,0h5l0,0c5,0,9.8-0.6,14.3-0.8c-8.4,0-16.2-0.8-24.4-0.8h-4.2c1.4,0,2.8,0,4.2,0
								c9.5-0.3,19,0,28.6,0.3c2.5,0.3,4.8,1.7,6.2,3.9c0.6,1.1,1.1,2.2,1.4,3.4s0,2.5,0,3.6l-0.3,7c-0.3,2.2-1.4,4.5-3.1,5.9
								c-0.6,0.3-0.8,0.8-1.4,1.1c0.6,0,1.1,0,1.7,0c1.7-1.1,3.1-3.1,3.4-5c0.6-2.2,0.3-4.2,0.3-6.2v-3.1c0-0.8,0-2,0-3.1
								c-0.3-2.2-1.4-4.2-3.1-5.9c-1.7-1.4-3.9-2.5-6.2-2.5l-5.9-0.3C332.4,138.9,328.4,138.9,324.5,138.6z"/>
						</g>
					</g>
				</g>
			</g>
		</g>
	</g>
	<g opacity="0.61">
		<path fill="#FFFFFF" d="M362.6,207.5H193.8c-4.8,0-8.4-3.9-8.4-8.4v-24.4c0-4.8,3.6-8.4,8.4-8.4h168.8c4.5,0,8.4,3.6,8.4,8.4v24.4
			C371,203.8,367.1,207.5,362.6,207.5z"/>
		<g>
			<g>
				<g>
					<g opacity="0.8">
						<g opacity="0.8">
							<path fill="#FFFFFF" d="M344.1,169.4c-25.5,0.3-52.6-1.7-74.2,0.3c-2.5,0.3-4.8,0.6-7.3,0.6l3.6,0.3
								c28.3,1.4,59.1,1.7,88.2,1.1c2.2,0,4.5-0.3,6.7-0.3h1.7c0.3,0,0.6,0,0.8,0c0.6,0,0.8,0.3,1.4,0.6c0.8,0.6,1.7,1.4,2,2.5
								c0,0.3,0.3,1.7,0.3,2.8l0.3,3.4c0.3,4.8,0.3,9.2,0.6,14v3.6v0.8c0,0.3,0,0.3,0,0.6c0,0.3,0,0.8-0.3,1.1
								c-0.6,1.4-1.7,2.5-3.1,3.1c-1.1,0.3-1.4,1.1-1.4,1.7c1.4,0.6,3.1,0.6,4.8,0c1.4-1.1,2.5-3.1,2.8-5c0.3-2,0-3.9,0-5.9
								c0-3.9-0.3-8.1-0.3-12l-1.1-6.2V175c0-0.6,0-0.8-0.3-1.4c-0.3-0.8-0.6-1.7-0.8-2.2c-0.8-1.4-2.2-2.5-3.9-3.1
								c-0.8-0.3-1.7-0.3-2.5-0.3H359C353.4,168,347.2,169.4,344.1,169.4z"/>
							<path fill="#FFFFFF" d="M367.1,205.8h0.3c0.6-0.6,1.1-1.1,1.7-1.7C368.5,204.7,367.6,205.2,367.1,205.8z"/>
							<path fill="#FFFFFF" d="M367.1,170c-0.8-0.6-1.7-1.1-2.8-1.4c-0.6,0-1.1-0.3-1.4-0.3h-2c-2.8,0-5.3,0-7.8,0
								c-3.4,0.3-6.7,1.1-8.7,0.8c-25.5,0.3-52.6-1.7-74.2,0.3c-2.5,0.3-4.8,0.6-7.3,0.6l3.9,0.3c9.8,0.6,19.9,0.8,30.2,1.1
								c0.6,0,1.1,0,1.7,0c5.6-0.6,10.9,0.3,16.5,0.3c15.7-0.6,28.8,0.3,44.2-0.3c0.6,0,1.4,0,2.2,0h1.1c0.3,0,0.3,0,0.6,0
								c0.6,0,1.4,0,2,0.3s1.4,0.8,1.7,1.7c0.3,0.3,0.3,0.8,0.3,1.1c0,0.3,0,0.3,0,0.8v1.1c0,2.2,0,4.5,0,6.4
								c0.3,4.2,0.3,8.7,0.6,13.2v3.4c0,0.6-0.3,1.4-0.6,2c-0.6,1.1-1.7,2.2-3.1,2.5c-1.1,0.3-1.4,1.1-1.7,1.7
								c0.8,0.3,1.7,0.6,2.5,0.6c3.1-1.1,5.3-4.2,5-7.8c0-3.6,0-7.6,0-11.5c0-3.4-0.3-6.7-0.3-10.1c0-1.7,0-3.1-0.6-4.5
								c-0.6-1.4-1.4-2.5-2.5-3.1C366.8,169.4,366.8,169.7,367.1,170z"/>
							<path fill="#FFFFFF" d="M367.4,168.6c-0.8-0.6-2-0.6-0.8,0.6c1.1,0.8,2,2,2.5,3.1c0.6,1.4,0.6,2.8,0.6,4.5
								c0,3.4,0.3,6.7,0.3,10.1c0-3.1,0-6.4,0.3-9.8c0-1.7,0.3-3.4-0.3-4.8C369.6,170.8,368.8,169.4,367.4,168.6z"/>
							<path fill="#FFFFFF" d="M370.4,166.9c-1.4-1.7-3.4-2.5-5.6-3.1c-2.2-0.3-3.6-0.3-5.3-0.3c-3.1,0-6.4,0-9.5,0.3
								c-6.2,0-12,0.3-17.4-0.3c-5.6-0.3-11.2-1.1-16.2-2c-1.7,0-3.6,0-5.3,0c-22.1,0.3-44.5,0.6-66.6,0.6c-11.2,0-22.1,0-33,0
								l-16.5-0.3h-1.1c-0.3,0-1.1,0-1.4,0c-1.1,0-2,0.3-3.1,0.6c-2,0.6-3.6,2-5,3.4c-1.4,1.4-2.5,3.4-3.1,5.6
								c-0.3,1.1-0.3,2.2-0.3,3.1v2c0,5.6,0,10.9,0,16.2v3.9v2c0,1.1,0.3,2,0.6,3.1c1.1,3.9,4.2,7,7.8,8.4c0.8,0.3,2,0.6,2.8,0.6
								c0.6,0,0.8,0,1.4,0h1.1l3.9-0.3c2.8,0,5.3-0.3,8.1-0.3c5.3-0.3,10.9-0.6,16.5-0.8c13.4-0.3,24.1,0.8,37.2,1.4
								c32.5,1.7,60.8-2,94.1-3.1c9-0.3,10.1-3.9,7.8-3.9c-55.7,1.4-108.4,0-164.1,0.8h-3.9c-1.4,0-2,0-3.1-0.6
								c-2-0.8-3.4-2.5-3.6-4.5c0-0.6-0.3-0.8-0.3-1.4v-2v-3.9c0-2.5,0-5.3,0-7.8s0-5.3,0-7.8v-2c0-0.6,0-1.1,0-1.7
								c0.3-0.8,0.6-2,1.1-2.5c1.1-1.7,3.1-2.5,5-2.5c2.5,0,5,0,7.8,0c20.7,0.3,40.9,0.8,61,1.7c2.5-0.3,5-0.6,7.3-0.6
								c21.8-2.2,48.7,0,74.2-0.3c3.4,0,9.2-1.4,14.8-1.4h3.1c1.1,0,1.7,0,2.5,0.3c1.7,0.6,3.1,1.7,3.9,3.1c0.6,0.8,0.8,1.4,0.8,2.2
								c0,0.6,0,0.8,0.3,1.4v1.4l0.3,6.2c0,3.9,0.3,8.1,0.3,12c0,2,0.3,4.2,0,5.9c-0.3,2-1.4,3.6-2.8,5c1.7-0.6,3.1-1.4,4.5-2.8
								c0.6-0.8,1.1-1.7,1.4-2.5c0.3-0.8,0.6-1.7,0.8-2.5c-0.3-5-0.6-9.8-0.6-14.8c0-2.5,0-4.8,0-7.3c0-0.6,0-1.4,0-2.2
								s-0.3-1.7-0.6-2.2C372.4,169.4,371.6,168,370.4,166.9z"/>
							<path fill="#FFFFFF" d="M370.4,166.9c1.1,1.1,2,2.5,2.5,3.9c0.3,0.8,0.6,1.4,0.6,2.2s0,1.7,0,2.2c0,2.5,0,4.8,0,7.3
								c0,5,0.3,9.8,0.6,14.8c0.6-1.7,0.8-3.4,1.1-5.6c0.3-3.1,0.6-6.2,0.6-9.2l0.3-4.8v-2.2c0-0.6,0-0.6,0-1.4c0-0.6,0-1.4-0.3-2
								c-0.8-5-4.8-9.8-9.8-10.9c-1.1-0.3-2.8-0.6-3.9-0.6h-2.5h-4.8c-12.9,0.3-26,0.6-38.6,0.8c4.8,0.8,10.4,1.4,16.2,2
								c5.3,0.3,11.2,0.3,17.4,0.3c3.1,0,6.2,0,9.5-0.3c1.7,0,3.1-0.3,5.3,0.3C366.8,164.4,369,165.2,370.4,166.9z"/>
							<path fill="#FFFFFF" d="M370.4,166.9c2,2.2,3.4,5.3,3.1,8.1c0,2.2,0,4.8,0,7c0,4.8,0.3,9.5,0.6,14c0.3-3.1,0.3-6.4,0.3-9.5
								v-6.2v-3.1v-1.7v-0.8v-1.1c-0.3-6.2-5.9-11.2-11.8-11.2c-8.4,0-16.5-0.3-24.6-0.6h13.2h6.7h3.4h1.7c0.8,0,1.7,0,2.5,0.3
								c3.4,0.8,6.2,2.8,8.1,5.6c0.8,1.4,1.4,3.1,2,4.8c0.3,0.8,0.3,1.7,0.3,2.5v1.7c0,4.5,0,9,0,13.2c0.3-3.1,0.3-5.9,0.6-9
								l0.3-4.5c0-0.8,0-1.4,0-2.8c0-1.1-0.3-2.5-0.8-3.6c-1.7-4.8-6.2-8.4-11.5-9c-1.4,0-2,0-2.8,0h-2.2h-4.8
								c-12.6,0.3-25.2,0.6-37.5,0.8c4.8,0.8,10.4,1.4,16,2c5.3,0.3,11.2,0.3,17.4,0.3c3.1,0,6.2,0,9.5-0.3c1.7,0,3.1-0.3,5.3,0.3
								C366.8,164.4,369,165.2,370.4,166.9z"/>
							<path fill="#FFFFFF" d="M342.4,164.1l14.8,0.3h3.6c0.6,0,1.1,0,2,0c0.8,0,1.4,0,2.2,0.3c2.8,0.8,5.3,2.8,6.7,5.6
								c0.6,1.4,0.8,2.8,0.8,4.5v3.6c0,2.5,0,5,0,7.6s0,5,0,7.6v3.6c0,0.6,0,1.1,0,2c0,0.8,0,1.7-0.3,2.2c0.6-0.8,1.1-2.2,1.4-3.1
								c0-0.8,0-1.7,0.3-2.5c-0.3-4.8-0.6-9.5-0.6-14c0-2.2,0-4.8,0-7c0-2.8-1.1-5.9-3.1-8.1c-1.4-1.7-3.4-2.5-5.6-3.1
								c-2.2-0.3-3.6-0.3-5.3-0.3c-3.1,0-6.4,0-9.5,0.3c-6.2,0-12,0.3-17.4-0.3c-5.6-0.3-11.2-1.1-16-2c-1.7,0-3.4,0-5,0
								c-23,0.8-45.6,1.1-68,1.1c-9.8,0.6-20.2,0.8-30.5,0.8c-5.3,0-10.4,0-15.7-0.3h-3.9c-2,0-3.6,0.6-5.3,1.4
								c-3.4,1.7-5.9,5-6.4,8.7c0.6-3.6,2.8-6.7,5.9-8.7c1.4-0.8,3.4-1.4,5-1.7c0.6,0,0.8,0,1.4,0h0.8h2c4.8,0,9.8,0,14.6-0.3
								l-16.2-0.3H194c-0.3,0-0.8,0-1.4,0c-1.1,0-2,0.3-3.1,0.6c-2,0.6-3.6,1.7-5,3.4c-1.4,1.4-2.5,3.4-3.1,5.3
								c-0.3,1.1-0.6,2-0.6,3.1v2.2c0,4.8,0,9.2,0,13.7l0.3,6.7v1.7c0,0.6,0,1.7,0.3,2.5c0.3,1.7,1.1,3.4,2,4.8
								c1.1,0.8,2.5,2,4.5,2.8c1.1,0.6,2.2,0.8,3.6,1.1c0.6,0,1.4,0.3,2.2,0c0.6,0,1.1,0,2,0c7.8-0.3,15.7-0.3,23.5-1.1
								c1.1,0,0.8,0.6,3.1,0.8c-6.2,0-11.2,0.3-15.7,1.1c5.6-0.3,10.9-0.6,16.5-0.8c10.6-0.3,19.3,0.3,29.1,0.8h3.1
								c5.3,0,10.4-0.6,15.7-0.8c-2.2,0-4.2,0-6.4,0c3.4-0.3,7.8-0.3,11.2-0.3c-1.7,0-3.1,0.3-4.5,0.3c5,0,10.1,0,15.4,0.3
								c-6.7,0-13.4,0.3-19,0.6c12.3,0,23.2-0.3,35.3,0.3h-0.8c17.1-0.8,33.9-2.2,52.4-3.1c9-0.3,10.1-3.9,7.8-3.9
								c-38.9,1.1-76.4,0.6-114.2,0.6c4.2,0.6,8.7,0.8,12.9,1.4c2,0,3.6,0.3,5.3,0.6c-1.7-0.3-3.6-0.3-5.3-0.6
								c-5-0.3-10.9-0.3-16.2-0.6c-1.1-0.3-4.2-0.3-5.6,0.3c-7.6-0.6-16.5,0-24.1-0.6c-0.6,0-1.1-0.3-2-0.6c-4.8,0-9.5,0-14.6,0.3
								H196c-0.8,0-1.7,0-2.2,0c-1.1,0-2.5-0.6-3.4-1.4c-0.8-0.8-1.7-2-2-3.1c-0.3-0.6-0.3-1.1-0.3-2V196c0-6.7,0-13.2,0-19.9
								c0-0.8,0-1.7,0-2.2c0-0.6,0.3-1.1,0.3-1.7c0.3-1.1,1.1-2.2,2.2-2.8c0.8-0.8,2.2-1.1,3.4-1.1c1.4,0,3.1,0,4.8,0
								c6.4,0,12.9,0.3,19.3,0.3c-6.2-0.6-12-0.8-17.6-1.4c-2-0.3-4.2-0.6-7-0.3c-2.5,0.3-5.3,2-6.4,5c-0.6,1.4-0.6,3.1-0.6,4.8
								c0,1.7,0,3.4,0.3,5.3c0,3.4,0.3,7,0.3,10.4c0,1.7,0,3.1-0.3,4.5c0,1.4-0.6,2.8-0.3,4.2c-0.6-1.4-0.6-2.8-0.8-4.5
								c-0.3-1.7-0.3-3.1-0.3-4.8c0-3.4-0.3-6.7,0-10.1c0-1.7,0-3.4,0-5.3c0-1.7,0-3.6,0.8-5.3c1.7-3.4,5.3-5,8.7-4.8
								c17.6-0.3,42.6,1.4,61.9,0.3c7.8-0.6,15.4,0.3,21.8,0.8c-2.2,0.3-6.7,0.3-9,0.3c-19.9-0.3-39.8-0.6-59.6-0.3
								c20.7,0.8,40.9,0.6,61.3,1.7c-12.3,0-24.1-1.1-35.3,0c1.1,0.3,2,0.3,2.8,0.6c7.8,0.3,16,0.6,23.8,0.8
								c2.5-0.3,4.8-0.6,7.3-0.6c21.8-2.2,48.7,0,74.2-0.3c2,0,5.3-0.6,8.7-0.8c-8.1,0-16.5-0.3-24.6-0.3c3.4,0.3,6.4,0.6,9.5,1.1
								c-7.8,0-14-0.8-21.8-0.8c4.2-0.3,8.4-0.3,12.6-0.3c-5-0.3-10.4-0.6-15.4-0.6c10.1-0.8,19.3,1.1,29.7,0c-2.2,0-4.2,0-6.4,0
								c2.2,0,4.5,0,6.7,0l0,0c6.7,0,13.2-0.6,19.3-0.8c-11.5,0-21.8-0.8-33-0.8c-2,0-3.6,0-5.6,0c2,0,3.6,0,5.6,0
								c6.4,0,12.9,0,19.3,0h9.5h4.8c1.7,0,3.4,0.6,4.8,1.4c3.1,1.7,4.5,5.3,4.2,8.7l-0.3,9.5l-0.3,9.5c0,1.7,0,3.4-0.3,4.8
								c-0.3,1.7-0.8,3.1-1.7,4.2c-0.6,0.6-1.1,1.1-1.7,1.7c0.8-0.3,1.4-0.6,2.2-0.8c0.8-1.1,1.7-2.2,2-3.6c0.3-1.4,0.3-2.8,0.3-4.2
								v-8.1l0.3-8.1v-3.9v-2c0-0.6,0-1.4-0.3-2.2c-0.6-3.1-2.5-5.6-5.3-7c-1.4-0.6-3.1-0.8-4.5-0.8h-3.9
								C352.8,164.6,347.8,164.4,342.4,164.1z"/>
						</g>
					</g>
				</g>
			</g>
		</g>
	</g>
	<g opacity="0.81">
		<g>
			<g>
				<g>
					<g opacity="0.8">
						<g opacity="0.8">
							<path fill="#FFFFFF" d="M317.2,383.3h5.9h2.2c0.6,0,0.8,0,1.4,0c1.7-0.3,3.1-2,3.1-3.9c1.4-7.3,2.5-14.6,3.9-21.8
								s2.5-14.6,3.6-21.6c2.2-14.3,3.9-27.7,4.2-40.6c0-3.6,0.3-7.3,0.3-10.9l-1.1,5.3c-3.1,14.3-5.9,28.8-8.7,43.7
								c-1.4,7.6-2.5,14.8-3.9,22.4c-1.1,7.3-2.2,14.8-3.6,22.1l0,0l0,0l0,0h-1.1h-2.5c-6.4,0-12.6,0.3-19,0.3
								c-13.2,0.6-26.3,1.7-39.8,2.5c-6.7,0.6-13.7,0.8-20.4,1.1c-3.4,0-7,0.3-10.6,0.3h-1.4h-0.3H229l0,0c-0.3,0,0.3,0,0.3,0l0,0
								l0,0h-0.6c-0.3,0,0.3,0,0,0h-0.3c-0.3-0.3-0.6-0.6-0.8-0.8c-0.3-0.6-2-0.6-2.8-0.6c-1.1,1.4-1.1,3.9-0.3,6.2
								c1.1,0.8,2.5,1.1,3.9,1.1c1.4,0,2.8,0,4.5-0.3l8.7-0.3c5.9-0.3,11.8-0.6,17.6-0.8c11.8-0.6,23.8-0.8,35.8-0.8
								C303.5,386.4,312.2,383.3,317.2,383.3z"/>
							<path fill="#FFFFFF" d="M224.6,386.7c0,0.3,0,0.3,0.3,0.6c0.8,0.6,2,1.1,3.1,1.4C226.5,388.1,225.4,387.5,224.6,386.7z"/>
							<path fill="#FFFFFF" d="M281.1,385.8c7.8-0.6,15.7-0.6,23.2-0.6c5-0.8,9.8-2,12.9-2h5.9h2.2c0.6,0,0.8,0,1.4,0
								c1.7-0.3,3.1-2,3.1-3.9c1.4-7.3,2.5-14.6,3.9-21.8c1.4-7.3,2.5-14.6,3.6-21.6c2.2-14.3,3.9-27.7,4.2-40.6
								c0-3.6,0.3-7,0.3-10.6c-0.3,2-0.8,3.9-1.1,5.9c-3.1,14-5.9,28.6-8.4,43.1c0,0.8,0,1.7,0,2.5c0,8.4-2.8,16-3.9,23.8
								c-0.3,3.4-0.8,6.4-1.1,9.8c-0.6,3.1-0.8,5.9-1.1,9c0,0.3-0.3,0.6-0.6,0.6c-2.2,0-4.5,0-6.7,0c-7.6,0-15.1,0-23,0.3
								c-8.1,0.3-16.8,2.2-26.3,2.2c-3.4,0-6.4,0-9.5-0.3c-6.4,0.3-12.6,0.8-19.3,0.8c-3.4,0-6.4,0.3-9.8,0.3h-0.6l0,0l0,0
								c0,0,0.6,0,0.3,0l0,0l0,0h-0.3h-0.3h-0.3l0,0l0,0c-0.3,0-0.3,0-0.6-0.3s-0.6-0.6-0.6-0.8c-0.3-0.6-2-0.6-2.8-0.6
								c-0.6,0.8-1.1,1.7-1.1,2.8c0.8,1.7,2.8,3.1,4.5,3.4c2.5,0,5.3,0,8.1,0c5.6,0,10.9,0,16.5,0c9.8-0.6,19.3-0.8,29.1-1.1
								C282.2,386.1,281.7,386.1,281.1,385.8z"/>
							<path fill="#FFFFFF" d="M282,388.6c1.4,0,3.1-1.1,0.6-2.2c-9.8,0.3-19.6,0.6-29.1,1.1C262.9,387.5,272.2,387.8,282,388.6z"/>
							<path fill="#FFFFFF" d="M280.6,394.8c9.5,0.3,19,0,27.7-0.3c4.5,0,9-0.3,13.2-0.3c1.1,0,2.2,0,3.1,0c1.4,0,3.1,0,4.5,0
								c2.8-0.3,5.6-1.7,7.8-3.6c2.5-2.2,4.2-5.3,4.5-9c0.3-0.6,0.3-0.8,0.3-1.4l0.3-1.1l0.6-2.2c0.6-1.4,0.8-2.8,1.4-4.2
								c0.8-2.8,2-5.3,2.8-7.8c0.3-2.5,0.8-5.3,1.1-7.8c4.2-32.2,8.4-64.1,13.2-96c1.1-7.8,2.5-16,3.6-23.8l2-12l0.8-5.9l0.6-3.4
								c0.3-1.7,0.6-3.6,0.6-5c-0.3-6.7-5-13.2-11.5-15.1c-1.7-0.6-3.4-0.8-5-0.8h-4.2h-5.9c-8.1-0.3-16-0.6-24.1-0.6
								c-32.2-0.6-61.9,2.5-94.6,4.5c-4.8,0-9.5,0-14,0c-1.4,0-2.8,0-3.9,0c-1.7,0-3.1,0-4.8,0.6c-3.1,0.8-5.9,2.5-7.6,5.3
								c-2,2.5-3.1,5.9-2.8,9c0,0.8,0.3,1.7,0.3,2.5v1.1v0.8c0,1.1,0.3,2.2,0.3,3.4c0.3,4.5,0.6,9,1.1,13.7
								c3.6,47.6,16.8,86.8,26.3,134.4c2.5,12.9,9.8,13.4,9.2,10.4c-7.6-40-13.2-79-18.8-117.9c-1.4-9.8-2.8-19.6-4.2-29.4
								c-0.8-4.8-1.4-9.8-2.2-14.6c-0.3-3.4-0.6-3.9-0.6-5.3c0-1.1,0.8-2.2,2-3.1c1.1-0.8,2.2-0.8,3.6-0.8h7.3c5,0,10.1,0,14.8,0
								c10.1,0,20.2-0.3,30.2-0.6c15.7-0.3,31.1-0.6,46.5-0.6c7.6,0,15.1,0,23,0c7.3,0,14.6,0.3,21.6,0.3c2.2,0,4.2,1.4,4.8,3.6
								c0.3,1.1,0,2.2-0.3,3.1l-0.8,5c-1.4,7.3-2.8,14.6-3.9,21.8c-2.8,14.6-5.6,28.8-8.7,43.1c0,3.6-0.3,7.3-0.3,10.9
								c-0.3,12.6-2,26.3-4.2,40.6c-1.1,7-2.5,14.3-3.6,21.6c-1.4,7.3-2.5,14.6-3.9,21.8c0,2-1.4,3.6-3.1,3.9c-0.6,0-0.8,0-1.4,0
								h-2.2H317c-4.8,0-13.7,2.8-21.6,2.8c-12,0-24.1,0.6-35.8,0.8c-5.9,0.3-11.8,0.6-17.6,0.8l-8.7,0.3c-1.4,0-3.1,0.3-4.5,0.3
								c-1.4,0-2.5-0.6-3.9-1.1c0.6,1.1,1.4,2.2,2.5,3.1c0.6,0.3,1.1,0.8,1.7,1.1c0.8,0.3,1.1,0.6,1.7,0.8c2.2,1.1,4.2,2.2,6.7,3.4
								C252.3,394.8,266.6,394,280.6,394.8z"/>
							<path fill="#FFFFFF" d="M280.6,394.8c-14-0.8-28.3,0-42.8,1.1c2.2,0.8,5,1.7,8.1,2.2c14.8,1.7,30.5,2.2,46.5,2
								c7.8,0,16-0.3,24.1-0.6l5.9-0.3h3.9c2,0,3.9-0.3,5.6-0.8c7-2.2,12.6-8.7,12.9-16.2c0.8-5.6,1.4-11.5,2.2-17.1
								c-1.1,2.5-2,5-2.8,7.8c-0.6,1.4-0.8,2.8-1.4,4.2l-0.6,2.2l-0.3,1.1c0,0.3-0.3,0.6-0.3,1.4c-0.6,3.4-2,6.4-4.5,9
								c-2.2,2-4.8,3.4-7.8,3.6c-1.4,0.3-3.1,0-4.5,0c-1.1,0-2,0-3.1,0c-4.2,0-8.7,0-13.2,0.3C299.3,394.8,290.1,395.1,280.6,394.8z
								"/>
							<path fill="#FFFFFF" d="M280.6,394.8c-13.4-0.8-27.2,0-40.9,1.1c4.8,0.3,9.2,0.6,14,0.8c12,0,24.1,0.3,36.1,0.3
								c5.9,0,12,0.3,17.9,0.6l9,0.3l4.5,0.3l2.2,0.3h1.4c0.6,0,1.4,0,2,0c-13.2,0-26.3,0-39.5,0c-12.9,0-25.8,0-38.6,0.3
								c14.6,1.4,29.7,1.7,45.1,1.7c7.8,0,15.4-0.3,23.2-0.6l5.9-0.3h4.2c2,0,3.6-0.6,5.3-1.1c6.7-2.2,11.8-9,12-16
								c0.8-5.6,1.4-11.5,2.2-16.8c-1.1,2.5-2,5-2.8,7.8c-0.6,1.4-0.8,2.8-1.4,4.2l-0.6,2l-0.3,1.1c0,0.3-0.3,0.6-0.3,1.4
								c-0.6,3.4-2,6.4-4.5,9c-2.2,2-4.8,3.4-7.8,3.6c-1.4,0.3-3.1,0-4.5,0c-1.1,0-2,0-3.1,0c-4.2,0-8.7,0-13.2,0.3
								C299.3,394.8,290.1,395.1,280.6,394.8z"/>
							<path fill="#FFFFFF" d="M319.5,393.7c-28.8-0.8-57.7-1.4-87.1-0.3c1.1,0.6,2.5,1.4,3.9,2c1.1,0,2.5,0.3,3.6,0.3
								c13.7-0.8,27.4-1.7,40.9-1.1c9.5,0.3,19,0,27.7-0.3c4.5,0,9-0.3,13.2-0.3c1.1,0,2.2,0,3.1,0c1.4,0,3.1,0,4.5,0
								c2.8-0.3,5.6-1.7,7.8-3.6c2.5-2.2,4.2-5.3,4.5-9c0.3-0.6,0.3-0.8,0.3-1.4l0.3-1.1l0.6-2c0.6-1.4,0.8-2.8,1.4-4.2
								c0.8-2.8,2-5.3,2.8-7.8c0.3-2.5,0.6-4.8,1.1-7.3c4.2-32.8,8.4-65.5,13.4-98c0.6-7.3,1.1-14.6,2-21.8
								c0.6-3.6,0.8-7.3,1.4-11.2c0.6-3.9,1.1-7.8,1.7-11.8c1.4-5.9-1.1-12-5.9-15.4c-2.2-1.7-5.3-2.5-8.1-2.8l-7-0.3
								c-7.6-0.3-15.1-0.6-22.7-0.8c7,0,14,0,21.3,0h5.3c3.1,0,6.2,0,9,1.1c5.6,2.2,9.5,7.3,10.4,13.4c-0.6-6.7-5.3-12.6-11.8-14.3
								c-1.7-0.6-3.4-0.6-5-0.8H348h-5.9l-23.5-0.6c-13.4-0.3-26.9,0.3-40,0.8c-2.8,1.7-7,3.1-14.3,3.4c-11.5,0.6-22.7,0.6-34.4,2
								c-1.7,0-1.4-1.4-4.5-1.4c9,0.3,16.2-0.8,22.7-2.2c-7.8,0.6-16,1.1-24.1,1.7c-3.9,0-7.6,0-11.2,0c-1.7,0-3.6,0-5.3-0.3
								c-2.5,0-5-0.3-7.6,0.6c-4.8,1.4-8.7,5.6-9.5,10.6c-0.3,1.1-0.3,2.5-0.3,3.9l0.3,3.9c0,1.7,0.3,3.4,0.3,5.3l0.8,4.5
								c1.4,7.6,3.1,14.8,5,22.4c-0.3-3.1-0.8-6.2-1.1-9.5c1.4,4.8,2.2,11.2,3.1,16c-0.6-2.2-1.1-4.5-1.7-6.4
								c0.8,7.3,2,14.6,2.8,22.4c-1.1-9.5-3.4-19-5.3-27.2c2.8,17.6,5.6,33.6,7,51c-0.3-0.6-0.3-0.8-0.6-1.4
								c5.3,24.1,11.8,48.2,17.1,74.5c2.5,12.9,9.8,13.4,9.2,10.4c-5.3-28-9.5-55.4-13.7-82.6c-3.9-27.2-7.8-54.3-11.8-81.5v0.3v0.6
								v1.1v2.2v4.8c0,3.1,0,6.4,0,9.5c0.3,2.8,0.3,5.3,0,7.8c0-2.8,0-5.3,0-7.8c-0.3-3.6-0.8-7.6-1.1-11.5c-0.3-2-0.6-3.9-0.6-5.9
								c0-1.1,0-1.4,0-2.2c0-0.6,0-1.4,0.3-2c0.3-0.3,0.8-1.1,1.1-2c0.6-0.8,1.1-1.7,1.4-2.5c0.8-0.3,2-0.3,3.1-0.3h1.4h2.2
								c3.1,0,5.9,0,9,0c6.2,0,12,0,17.6,0.6c0.6,0,1.7,0.3,3.1,0.8c7,0,14-0.3,21-0.3c19.6-0.6,38.9-0.6,58-0.6
								c9.5,0,19,0,28.3,0.3h3.1c0.6,0,1.4,0,2,0c1.4,0.3,2.5,1.1,3.4,2.2c0.8,1.1,0.8,2.5,0.6,3.9l-1.1,5.9l0.8-3.4l0.3-1.7
								l0.3-0.8c0.3-0.6,0.6-1.4,0.6-2c0-0.8,0-1.4-0.3-2.2c-0.6-1.4-1.4-2.8-2.8-3.4c-1.4-0.8-2.8-0.8-4.5-1.1
								c-10.9-2-33.9-0.3-53.2,0.3c-5,0.3-7.8-1.1-12.6-1.1c17.1-3.6,38.9-1.1,58.5-1.7c3.4,0,6.4,0,10.4,0c3.6-0.3,7.3,2.2,8.4,5.9
								c0.3,0.8,0.6,2,0.3,2.8c-0.3,0.8-0.3,2-0.6,2.8c-0.3,2-0.6,3.6-1.1,5.6c-0.6,3.9-1.4,7.6-2.2,11.5
								c-2.8,15.7-5.3,31.4-6.2,45.4c-0.6,11.5-3.6,22.1-6.4,31.1c-0.3-3.6,0.8-9.8,1.4-12.9c2.2-14.3,4.8-28.6,7-42.8
								c1.1-7.3,2.2-14.3,3.4-21.6l1.7-10.6l0.8-5.3c0.3-1.4,0.6-3.1,0.3-4.5c0.3,1.7-0.3,3.1-0.6,4.8c-0.3,2-0.8,3.6-1.1,5.3
								c-0.6,3.6-1.4,7.3-2,10.9c-1.4,7.3-2.5,14.6-3.9,21.8c-2.5,14.6-5,29.1-8.4,44c2.5-17.6,7-34.2,7.6-51
								c-0.6,1.4-1.1,2.8-1.4,3.9c-2.2,11.5-4.5,22.7-7,34.2c0,3.6-0.3,7.3-0.3,10.6c-0.3,12.6-2,26.3-4.2,40.6
								c-1.1,7-2.5,14.3-3.6,21.6c-1.4,7.3-2.5,14.6-3.9,21.8c0,2-1.4,3.6-3.1,3.9c-0.6,0-0.8,0-1.4,0h-2.2H317
								c-3.1,0-7.8,1.1-12.9,2c5.9,0,12,0.3,17.9,0.3h3.6c1.1,0,2-0.3,3.1-0.8c2-1.1,3.1-3.1,3.1-5.3c-0.3,1.7-1.1,3.1-2.5,3.9
								c-1.4,0.8-2.8,0.8-3.9,0.3c2.5,0,4.8-2,5-4.5l0.8-4.2c0.3-1.4,0.6-2.8,0.8-4.2c0.6-2.8,1.1-5.9,1.7-9.2
								c-0.6,6.2-1.4,12-2.2,17.9l0,0l0,0c1.7-6.7,3.1-14.6,4.5-21.8c-0.3,7.6-2.2,15.1-3.6,22.1c-0.3,2.8-2,5-4.2,6.2
								c-1.1,0.6-2.5,0.6-3.9,0.6c-1.7,0-3.4,0.3-5.3,0.6h4.8c1.4,0,2.8,0.3,3.9,0c-1.4,0.3-2.5,0.3-4.2,0.3h-4.8c0,0,0,0,0.3,0
								c-9.5,0-19.3,0.8-28,1.7c8.4,0,16.2,0.3,24.1,0.8l5.9,0.3l3.1,0.3c1.1,0,2.2,0,3.4,0c4.5-0.3,8.7-3.9,9-8.7
								c0-0.3,0-0.6,0-1.1c0.3-2.5,0.6-4.8,0.8-7.3c-0.3,2.5-0.6,4.8-0.8,7.3c0,0.3,0,0.6,0,1.1c-0.3,2.5-1.4,5.3-3.6,7
								c-2,1.7-4.8,2.5-7.6,2.2h-14.3c-9.2,0-18.8-0.3-28-0.6l-28-0.8l-14-0.6l-7-0.3h-3.4c-1.1,0-2.2,0-3.4-0.3
								c-1.1-0.3-2-0.6-3.1-1.4c0.3,1.1,1.1,2.2,2,3.1c2.2,0.8,4.2,0.3,6.2,0.6h5.9l11.8,0.3c7.8,0.3,15.4,0.6,23.2,0.6
								C289,392.3,304.4,392.8,319.5,393.7z"/>
						</g>
					</g>
				</g>
			</g>
		</g>
	</g>
	<g>
		<rect x="126.6" y="414.7" fill="none" width="730.8" height="96.6"/>
		<g enable-background="new    ">
			<path fill="#86604E" d="M169.6,425.1c2.2,0,4.3,0.1,6.1,0.3c1.8,0.2,3.4,0.5,4.8,1c1.3,0.4,2.4,0.9,3.1,1.5
				c0.8,0.6,1.2,1.2,1.2,2c0,0.5-0.1,1.1-0.3,1.8c-0.2,0.7-0.5,1.4-0.8,2.2c-0.3,0.7-0.7,1.5-1.1,2.2c-0.4,0.7-0.8,1.4-1.2,1.8
				c-0.2,0.1-0.4,0.1-0.6,0c-0.2-0.2-0.3-0.4-0.1-0.6c1.3-2.3,1.6-4,0.8-5.3c-0.9-1.4-2.6-2.6-5.2-3.7c-2.6-1-5.6-1.5-9-1.5
				c-4.4,0-8.5,0.8-12.1,2.4c-3.6,1.6-6.8,3.8-9.4,6.7c-2.6,2.9-4.7,6.3-6.1,10.2c-1.4,3.9-2.2,8.3-2.2,13c0,3.5,0.5,6.6,1.4,9.6
				c0.9,2.9,2.3,5.5,4.1,7.6c1.8,2.1,4,3.8,6.6,5c2.6,1.2,5.5,1.8,8.9,1.8c4.4,0,8.1-1.4,11.1-4.1c3-2.7,5-6.4,6.3-10.9
				c0.1-0.3,0.3-0.4,0.6-0.4c0.3,0.1,0.4,0.2,0.4,0.6c-0.2,1.3-0.6,2.7-1.1,4.3c-0.5,1.6-1,3-1.6,4.4c-0.6,1.4-1.1,2.6-1.6,3.6
				c-0.5,1-1,1.6-1.3,1.7c-2,0.7-4.2,1.3-6.6,1.8c-2.4,0.4-5,0.6-7.7,0.6c-3.8,0-7.1-0.6-10.1-1.7c-3-1.1-5.5-2.7-7.6-4.8
				c-2.1-2-3.6-4.4-4.8-7.2c-1.1-2.8-1.7-5.8-1.7-9c0-4.9,0.9-9.6,2.7-14.1c1.8-4.5,4.3-8.4,7.5-11.7c3.2-3.4,7.1-6,11.6-8
				C159.2,426.1,164.2,425.1,169.6,425.1z"/>
			<path fill="#86604E" d="M192.9,461c1.7,0,2.9,0.6,3.7,1.7c0.8,1.1,1.2,2.6,1.2,4.3c0,2.1-0.4,4.2-1.2,6.3c-0.8,2.1-1.8,4-3,5.7
				c-1.2,1.7-2.6,3.1-4,4.1c-1.4,1-2.8,1.6-4,1.6c-1.5,0-2.6-0.6-3.5-1.8c-0.9-1.2-1.3-2.8-1.3-5c0-1.7,0.3-3.6,1-5.5
				c0.7-2,1.6-3.8,2.7-5.5c1.1-1.7,2.4-3.1,3.9-4.2C189.8,461.5,191.3,461,192.9,461z M187.4,481.8c0.9,0,1.8-0.3,2.7-1
				c0.9-0.6,1.7-1.5,2.4-2.6c0.7-1.1,1.2-2.3,1.6-3.7c0.4-1.4,0.6-2.9,0.6-4.4c0-1.8-0.3-3.3-0.9-4.4c-0.6-1.1-1.6-1.6-3-1.6
				c-0.9,0-1.8,0.3-2.7,1c-0.9,0.6-1.6,1.5-2.3,2.6c-0.6,1.1-1.2,2.3-1.5,3.8c-0.4,1.4-0.6,3-0.6,4.6
				C183.7,479.8,184.9,481.8,187.4,481.8z"/>
			<path fill="#86604E" d="M241.6,417.5c1.2,0,2.2,0.2,3,0.7c0.8,0.5,1.4,1.1,1.8,1.9c0.4,0.8,0.6,1.7,0.6,2.6s-0.2,1.9-0.6,2.8
				c-0.1,0.2-0.3,0.2-0.5,0.2c-0.2-0.1-0.3-0.2-0.5-0.4c-0.1-1.2-0.7-2.3-1.7-3.3c-1-1-2.6-1.4-4.8-1.4c-2.3,0-4.6,0.6-6.7,1.8
				c-2.1,1.2-4.3,3.4-6.5,6.5c-2.2,3.1-4.4,7.2-6.7,12.5c-2.2,5.2-4.7,11.9-7.3,19.9c1.4-0.1,2.9-0.1,4.5-0.1s3.2,0,4.9,0
				c0.3,0.1,0.4,0.3,0.4,0.5c0,0.2-0.3,0.4-0.9,0.5c-1.5,0.1-3.1,0.1-4.6,0.2c-1.5,0.1-3.1,0.2-4.7,0.3c-0.2,0.7-0.4,1.3-0.6,1.8
				c-2.5,8.1-5.1,14.8-7.8,20.3c-2.6,5.5-5.4,9.8-8.1,13.1c-2.8,3.3-5.6,5.6-8.5,7s-5.8,2.1-8.7,2.1c-2.1,0-3.6-0.5-4.5-1.4
				c-0.9-0.9-1.3-2-1.3-3.2c0-0.6,0.1-1.2,0.4-1.8c0.2-0.6,0.6-1.2,0.9-1.7c0.2-0.2,0.4-0.2,0.5-0.1c0.2,0.1,0.2,0.3,0.2,0.5
				c-0.2,0.5-0.3,1.1-0.3,1.7c0.1,0.6,0.3,1.3,0.8,1.8c0.5,0.6,1.1,1.1,2,1.5c0.9,0.4,2,0.6,3.5,0.6c1.5,0,2.9-0.2,4.4-0.6
				c1.4-0.4,2.9-1.1,4.3-2.1c1.4-1,2.9-2.4,4.3-4.3c1.4-1.8,2.9-4.3,4.5-7.3c1.5-3,3.1-6.6,4.8-10.9c1.7-4.3,3.4-9.3,5.2-15.2
				c0.1-0.3,0.2-0.6,0.3-0.9c0.1-0.3,0.2-0.6,0.3-0.9c-1,0.1-2.1,0.3-3.1,0.4c-1,0.2-2.1,0.4-3.1,0.6c-0.3-0.1-0.4-0.2-0.2-0.5
				c0.2-0.2,0.4-0.5,0.8-0.7c0.4-0.2,0.9-0.5,1.4-0.7c0.6-0.2,1.1-0.4,1.6-0.4c0.5-0.1,1-0.1,1.5-0.1c0.5,0,1.1-0.1,1.6-0.1
				c2.2-6.7,4.6-12.7,7.2-18.1c2.6-5.4,5.3-10,8.1-13.9c2.8-3.8,5.8-6.8,8.8-8.9C235.5,418.5,238.5,417.5,241.6,417.5z"/>
			<path fill="#86604E" d="M256,417.5c1.2,0,2.2,0.2,3,0.7c0.8,0.5,1.4,1.1,1.8,1.9c0.4,0.8,0.6,1.7,0.6,2.6s-0.2,1.9-0.6,2.8
				c-0.1,0.2-0.3,0.2-0.5,0.2c-0.2-0.1-0.3-0.2-0.5-0.4c-0.1-1.2-0.7-2.3-1.7-3.3c-1-1-2.6-1.4-4.8-1.4c-2.3,0-4.6,0.6-6.7,1.8
				c-2.1,1.2-4.3,3.4-6.5,6.5c-2.2,3.1-4.4,7.2-6.7,12.5c-2.2,5.2-4.7,11.9-7.3,19.9c1.4-0.1,2.9-0.1,4.5-0.1s3.2,0,4.9,0
				c0.3,0.1,0.4,0.3,0.4,0.5c0,0.2-0.3,0.4-0.9,0.5c-1.5,0.1-3.1,0.1-4.6,0.2c-1.5,0.1-3.1,0.2-4.7,0.3c-0.2,0.7-0.4,1.3-0.6,1.8
				c-2.5,8.1-5.1,14.8-7.8,20.3c-2.6,5.5-5.4,9.8-8.1,13.1c-2.8,3.3-5.6,5.6-8.5,7s-5.8,2.1-8.7,2.1c-2.1,0-3.6-0.5-4.5-1.4
				c-0.9-0.9-1.3-2-1.3-3.2c0-0.6,0.1-1.2,0.4-1.8c0.2-0.6,0.6-1.2,0.9-1.7c0.2-0.2,0.4-0.2,0.5-0.1c0.2,0.1,0.2,0.3,0.2,0.5
				c-0.2,0.5-0.3,1.1-0.3,1.7c0.1,0.6,0.3,1.3,0.8,1.8c0.5,0.6,1.1,1.1,2,1.5c0.9,0.4,2,0.6,3.5,0.6c1.5,0,2.9-0.2,4.4-0.6
				c1.4-0.4,2.9-1.1,4.3-2.1c1.4-1,2.9-2.4,4.3-4.3c1.4-1.8,2.9-4.3,4.5-7.3c1.5-3,3.1-6.6,4.8-10.9c1.7-4.3,3.4-9.3,5.2-15.2
				c0.1-0.3,0.2-0.6,0.3-0.9c0.1-0.3,0.2-0.6,0.3-0.9c-1,0.1-2.1,0.3-3.1,0.4c-1,0.2-2.1,0.4-3.1,0.6c-0.3-0.1-0.4-0.2-0.2-0.5
				c0.2-0.2,0.4-0.5,0.8-0.7c0.4-0.2,0.9-0.5,1.4-0.7c0.6-0.2,1.1-0.4,1.6-0.4c0.5-0.1,1-0.1,1.5-0.1c0.5,0,1.1-0.1,1.6-0.1
				c2.2-6.7,4.6-12.7,7.2-18.1c2.6-5.4,5.3-10,8.1-13.9c2.8-3.8,5.8-6.8,8.8-8.9C249.9,418.5,252.9,417.5,256,417.5z"/>
			<path fill="#86604E" d="M246.6,465c0,0.9-0.3,1.7-1,2.4c-0.7,0.7-1.6,1.4-2.8,2c-1.2,0.6-2.5,1.1-4,1.6c-1.5,0.5-3.1,1-4.8,1.4
				c-0.1,0.7-0.1,1.4-0.1,2c0,0.7,0,1.4,0,2.2c0,1.5,0.3,2.8,1,3.9c0.7,1,1.6,1.6,2.9,1.6c1.2,0,2.4-0.3,3.5-0.9
				c1.1-0.6,2-1.4,2.9-2.5c0.2-0.1,0.4-0.1,0.6,0.1c0.1,0.2,0.1,0.4,0,0.6c-1,1.4-2.4,2.6-3.9,3.7s-3.2,1.5-4.9,1.5
				c-1.6,0-2.9-0.5-3.9-1.6c-1-1-1.5-2.6-1.5-4.6c0-1.8,0.3-3.8,1-5.9c0.7-2.1,1.6-4,2.7-5.7c1.1-1.7,2.4-3.1,3.8-4.3
				c1.4-1.1,3-1.7,4.6-1.7c1.2,0,2.2,0.4,3,1.2C246.2,463.1,246.6,464,246.6,465z M240.5,463.4c-1.4,0-2.7,0.6-3.8,1.8
				c-1.1,1.2-1.9,3.2-2.4,5.8c3-0.4,5.1-1.1,6.5-1.9c1.4-0.8,2.1-1.8,2.1-2.8c0-0.9-0.2-1.6-0.6-2.1
				C241.8,463.7,241.2,463.4,240.5,463.4z"/>
			<path fill="#86604E" d="M265.6,465c0,0.9-0.3,1.7-1,2.4c-0.7,0.7-1.6,1.4-2.8,2c-1.2,0.6-2.5,1.1-4,1.6c-1.5,0.5-3.1,1-4.8,1.4
				c-0.1,0.7-0.1,1.4-0.1,2c0,0.7,0,1.4,0,2.2c0,1.5,0.3,2.8,1,3.9c0.7,1,1.6,1.6,2.9,1.6c1.2,0,2.4-0.3,3.5-0.9
				c1.1-0.6,2-1.4,2.9-2.5c0.2-0.1,0.4-0.1,0.6,0.1c0.1,0.2,0.1,0.4,0,0.6c-1,1.4-2.4,2.6-3.9,3.7s-3.2,1.5-4.9,1.5
				c-1.6,0-2.9-0.5-3.9-1.6c-1-1-1.5-2.6-1.5-4.6c0-1.8,0.3-3.8,1-5.9c0.7-2.1,1.6-4,2.7-5.7c1.1-1.7,2.4-3.1,3.8-4.3
				c1.4-1.1,3-1.7,4.6-1.7c1.2,0,2.2,0.4,3,1.2C265.2,463.1,265.6,464,265.6,465z M259.5,463.4c-1.4,0-2.7,0.6-3.8,1.8
				c-1.1,1.2-1.9,3.2-2.4,5.8c3-0.4,5.1-1.1,6.5-1.9c1.4-0.8,2.1-1.8,2.1-2.8c0-0.9-0.2-1.6-0.6-2.1
				C260.9,463.7,260.3,463.4,259.5,463.4z"/>
			<path fill="#86604E" d="M284.9,469.8c0.8-0.1,1.8-0.2,3.1-0.3c1.3-0.1,2.6-0.2,4-0.3c1.4-0.1,2.8-0.2,4.2-0.2
				c1.4-0.1,2.6-0.1,3.7-0.1c0.2,0.1,0.3,0.2,0.3,0.5c-0.1,0.2-0.2,0.5-0.4,0.8c-0.2,0.3-0.5,0.5-0.9,0.8c-0.4,0.2-0.8,0.4-1.2,0.5
				c-1.1,0-2.3,0-3.7,0c-1.4,0-2.7,0.1-4,0.1c-1.3,0.1-2.6,0.1-3.8,0.1c-1.2,0-2.3,0.1-3,0.1c-0.4-0.1-0.4-0.4,0-1
				C283.5,470.4,284.1,470,284.9,469.8z"/>
			<path fill="#86604E" d="M335,461.3c0.3,0.1,0.4,0.3,0.4,0.6c-0.1,0.2-0.3,0.4-0.8,0.5c-1,0.1-2.1,0.1-3.3,0.2
				c-1.2,0.1-2.4,0.2-3.6,0.3c-1.2,3.1-2.3,6-3,8.9c-0.8,2.8-1.2,5.2-1.2,7c0,2.1,0.8,3.1,2.4,3.1c1.6,0,3.4-1.4,5.3-4.3
				c0.2-0.1,0.4-0.1,0.6,0c0.2,0.2,0.2,0.4,0.2,0.7c-0.6,0.9-1.2,1.7-1.9,2.4c-0.7,0.8-1.4,1.4-2.2,2c-0.7,0.6-1.4,1-2.1,1.3
				c-0.7,0.3-1.2,0.5-1.7,0.5c-1.4,0-2.4-0.4-3-1.2c-0.6-0.8-1-1.8-1-3c0-2,0.4-4.6,1.3-7.7c0.9-3.1,1.9-6.3,3.2-9.5
				c-0.8,0.1-1.6,0.2-2.3,0.4c-0.7,0.1-1.4,0.2-2.1,0.4c-0.3-0.1-0.4-0.2-0.2-0.5c0.2-0.2,0.4-0.5,0.8-0.7c0.4-0.2,0.9-0.5,1.4-0.7
				c0.6-0.2,1.1-0.3,1.6-0.3c0.3-0.1,0.6-0.1,0.8-0.1c0.2,0,0.4,0,0.7,0c0.9-1.9,1.7-3.7,2.6-5.5c0.9-1.8,1.7-3.4,2.6-4.9
				c0.4-0.4,0.8-0.7,1.2-1c0.5-0.3,0.9-0.5,1.3-0.6c0.4-0.1,0.8-0.1,1-0.1c0.2,0,0.3,0.1,0.3,0.3c-1,1.6-2.1,3.4-3.1,5.4
				c-1,2-2,4-2.9,6.1c1.1,0,2.2,0,3.3,0C332.6,461.4,333.8,461.3,335,461.3z"/>
			<path fill="#86604E" d="M346.8,461c1.7,0,2.9,0.6,3.7,1.7c0.8,1.1,1.2,2.6,1.2,4.3c0,2.1-0.4,4.2-1.2,6.3c-0.8,2.1-1.8,4-3,5.7
				c-1.2,1.7-2.6,3.1-4,4.1c-1.4,1-2.8,1.6-4,1.6c-1.5,0-2.6-0.6-3.5-1.8c-0.9-1.2-1.3-2.8-1.3-5c0-1.7,0.3-3.6,1-5.5
				c0.7-2,1.6-3.8,2.7-5.5c1.1-1.7,2.4-3.1,3.9-4.2S345.2,461,346.8,461z M341.2,481.8c0.9,0,1.8-0.3,2.7-1c0.9-0.6,1.7-1.5,2.4-2.6
				c0.7-1.1,1.2-2.3,1.6-3.7c0.4-1.4,0.6-2.9,0.6-4.4c0-1.8-0.3-3.3-0.9-4.4c-0.6-1.1-1.6-1.6-3-1.6c-0.9,0-1.8,0.3-2.7,1
				c-0.9,0.6-1.6,1.5-2.3,2.6c-0.6,1.1-1.2,2.3-1.5,3.8c-0.4,1.4-0.6,3-0.6,4.6C337.5,479.8,338.8,481.8,341.2,481.8z"/>
			<path fill="#86604E" d="M371.9,469.8c0.8-0.1,1.8-0.2,3.1-0.3c1.3-0.1,2.6-0.2,4-0.3c1.4-0.1,2.8-0.2,4.2-0.2
				c1.4-0.1,2.6-0.1,3.6-0.1c0.2,0.1,0.3,0.2,0.3,0.5c-0.1,0.2-0.2,0.5-0.4,0.8c-0.2,0.3-0.5,0.5-0.9,0.8c-0.4,0.2-0.8,0.4-1.2,0.5
				c-1.1,0-2.3,0-3.7,0c-1.4,0-2.7,0.1-4,0.1c-1.3,0.1-2.6,0.1-3.8,0.1c-1.2,0-2.2,0.1-3,0.1c-0.4-0.1-0.4-0.4,0-1
				C370.5,470.4,371.1,470,371.9,469.8z"/>
			<path fill="#86604E" d="M423.8,459.7c0.2-0.1,0.4-0.1,0.6,0c0.2,0.2,0.2,0.4,0.1,0.6c-0.5,0.7-1.1,1.4-1.8,2
				c-0.7,0.6-1.7,0.8-2.8,0.8c0.6,0.9,0.8,2.1,0.8,3.6c0,1.4-0.2,2.7-0.6,3.9c-0.4,1.2-0.9,2.3-1.5,3.3c-0.6,1-1.1,2-1.7,3
				c-0.6,0.9-1,1.9-1.4,2.9c-0.3,1-0.5,2-0.5,3c0,1,0.4,2.1,1.1,3.4c0.6,1,1.1,2,1.5,2.8c0.5,0.8,0.9,1.6,1.2,2.4
				c0.3,0.8,0.6,1.6,0.7,2.4c0.2,0.8,0.2,1.7,0.2,2.6c0,1.5-0.3,2.9-0.9,4.2c-0.6,1.3-1.5,2.5-2.7,3.5c-1.2,1-2.6,1.8-4.3,2.4
				c-1.7,0.6-3.5,0.9-5.6,0.9c-2.2,0-4.1-0.3-5.8-0.9c-1.7-0.6-3.2-1.4-4.4-2.4s-2.1-2.2-2.7-3.5c-0.6-1.3-0.9-2.7-0.9-4.1
				c0-1.8,0.7-3.5,2-4.9c1.3-1.4,3.2-2.4,5.7-3.1c0.3,0,0.5,0.1,0.6,0.3c0.1,0.2,0,0.4-0.1,0.6c-1.3,0.5-2.3,1.2-3.1,2.2
				c-0.8,1-1.2,2.3-1.2,4c0,3.1,1.1,5.7,3.2,7.6c2.2,1.9,5,2.9,8.5,2.9c3,0,5.1-0.8,6.6-2.3c1.4-1.5,2.1-3.5,2.1-5.9
				c0-1.4-0.2-2.7-0.6-3.8c-0.4-1.1-1.1-2.4-1.9-3.8c-1.2-2-1.7-3.9-1.5-5.7c0.2-1.8,0.8-3.7,1.9-5.7c0.1-0.2,0.3-0.5,0.4-0.7
				c0.2-0.2,0.3-0.5,0.4-0.8c-0.7,0.7-1.5,1.4-2.4,1.9c-0.9,0.6-1.6,0.8-2.3,0.8c-3,0-4.5-2-4.5-5.9c0-1.3,0.2-2.7,0.7-4.3
				c0.5-1.5,1.2-3,2.1-4.3c0.9-1.3,1.9-2.4,3.1-3.3c1.2-0.9,2.5-1.3,4-1.3c2.2,0,3.8-0.1,5-0.2C422.2,460.7,423.1,460.3,423.8,459.7
				z M416.4,475.1c0.4-0.9,0.7-1.8,0.9-2.7c0.2-0.9,0.4-1.8,0.4-2.8c0-1.8-0.3-3.2-0.9-4.2c-0.6-1-1.5-1.5-2.8-1.5
				c-1.5,0-2.7,0.7-3.7,2.2c-1,1.5-1.5,3.6-1.5,6.3c0,1.8,0.3,3.1,0.9,3.9c0.6,0.8,1.5,1.2,2.6,1.2c0.7,0,1.4-0.2,2.2-0.6
				C415.3,476.4,415.9,475.9,416.4,475.1z"/>
			<path fill="#86604E" d="M437.3,461c1.7,0,2.9,0.6,3.7,1.7c0.8,1.1,1.2,2.6,1.2,4.3c0,2.1-0.4,4.2-1.2,6.3c-0.8,2.1-1.8,4-3,5.7
				c-1.2,1.7-2.6,3.1-4,4.1c-1.4,1-2.8,1.6-4,1.6c-1.5,0-2.6-0.6-3.5-1.8c-0.9-1.2-1.3-2.8-1.3-5c0-1.7,0.3-3.6,1-5.5
				c0.7-2,1.6-3.8,2.7-5.5c1.1-1.7,2.4-3.1,3.9-4.2S435.7,461,437.3,461z M431.8,481.8c0.9,0,1.8-0.3,2.7-1c0.9-0.6,1.7-1.5,2.4-2.6
				c0.7-1.1,1.2-2.3,1.6-3.7c0.4-1.4,0.6-2.9,0.6-4.4c0-1.8-0.3-3.3-0.9-4.4c-0.6-1.1-1.6-1.6-3-1.6c-0.9,0-1.8,0.3-2.7,1
				c-0.9,0.6-1.6,1.5-2.3,2.6c-0.6,1.1-1.2,2.3-1.5,3.8c-0.4,1.4-0.6,3-0.6,4.6C428.1,479.8,429.3,481.8,431.8,481.8z"/>
		</g>
	</g>
</g>
</svg>
